<svg width="32" height="32" viewBox="0 0 32 32" fill="none" xmlns="http://www.w3.org/2000/svg">
<path d="M12.6866 27.9999C13.2891 27.9999 13.7775 27.5115 13.7775 26.909C13.7775 26.3065 13.2891 25.8181 12.6866 25.8181C12.0841 25.8181 11.5957 26.3065 11.5957 26.909C11.5957 27.5115 12.0841 27.9999 12.6866 27.9999Z" fill="white" stroke="white" stroke-width="2" stroke-linecap="round" stroke-linejoin="round"/>
<path d="M25.2882 27.9999C25.8907 27.9999 26.3791 27.5115 26.3791 26.909C26.3791 26.3065 25.8907 25.8181 25.2882 25.8181C24.6857 25.8181 24.1973 26.3065 24.1973 26.909C24.1973 27.5115 24.6857 27.9999 25.2882 27.9999Z" fill="white" stroke="white" stroke-width="2" stroke-linecap="round" stroke-linejoin="round"/>
<path d="M3.78125 4H4.11944C6.06767 4 7.73253 5.40362 8.06187 7.32382L10.1026 19.2217C10.4319 21.1418 12.0968 22.5455 14.045 22.5455H26.3787" stroke="white" stroke-width="2" stroke-linecap="round" stroke-linejoin="round"/>
<path d="M10.5565 18.1817H25.9475C26.0616 18.1818 26.1723 18.1381 26.2606 18.0582C26.3489 17.9783 26.4094 17.867 26.4318 17.7433L28.2088 7.92508C28.2232 7.84591 28.2214 7.76421 28.2037 7.68588C28.186 7.60755 28.1528 7.53453 28.1065 7.47211C28.0601 7.40968 28.0018 7.3594 27.9358 7.3249C27.8697 7.2904 27.7975 7.27253 27.7245 7.27258H8.58203" stroke="white" stroke-width="2" stroke-linecap="round" stroke-linejoin="round"/>
</svg>
