<svg width="24" height="24" viewBox="0 0 24 24" fill="none" xmlns="http://www.w3.org/2000/svg">
<path d="M22.5151 6.01807C21.1454 6.01807 19.8816 5.56432 18.8668 4.79885C17.7029 3.92135 16.8666 2.63416 16.5713 1.15057C16.4982 0.784004 16.4588 0.405723 16.4551 0.0180664H12.5424V10.7093L12.5377 16.5654C12.5377 18.131 11.5182 19.4585 10.1049 19.9254C9.69477 20.0609 9.2518 20.1251 8.79055 20.0998C8.2018 20.0674 7.65008 19.8898 7.17055 19.6029C6.15008 18.9926 5.45821 17.8854 5.43946 16.6188C5.40993 14.6393 7.01024 13.0254 8.98837 13.0254C9.37883 13.0254 9.75383 13.0891 10.1049 13.2049V10.2827V9.23229C9.73462 9.17744 9.35774 9.14885 8.97665 9.14885C6.81149 9.14885 4.78649 10.0488 3.33899 11.6702C2.24493 12.8956 1.58868 14.4588 1.48743 16.098C1.35477 18.2515 2.14274 20.2985 3.67086 21.8088C3.8954 22.0305 4.13118 22.2363 4.37774 22.4262C5.6879 23.4345 7.28962 23.981 8.97665 23.981C9.35774 23.981 9.73462 23.9529 10.1049 23.898C11.6809 23.6646 13.1349 22.9432 14.2824 21.8088C15.6924 20.4152 16.4715 18.5651 16.4799 16.5959L16.4598 7.85088C17.1324 8.36979 17.8679 8.79916 18.6573 9.13244C19.8849 9.65041 21.1866 9.91291 22.5263 9.91244V7.07135V6.01713C22.5273 6.01807 22.516 6.01807 22.5151 6.01807Z" fill="black"/>
</svg>
