<svg width="24" height="24" viewBox="0 0 24 24" fill="none" xmlns="http://www.w3.org/2000/svg">
<g clip-path="url(#clip0_2_297)">
<path d="M12 0C8.74 0 8.333 0.015 7.053 0.072C5.775 0.132 4.905 0.333 4.14 0.63C3.351 0.936 2.681 1.347 2.014 2.014C1.347 2.681 0.935 3.35 0.63 4.14C0.333 4.905 0.131 5.775 0.072 7.053C0.012 8.333 0 8.74 0 12C0 15.26 0.015 15.6671 0.072 16.9471C0.132 18.224 0.333 19.0951 0.63 19.86C0.936 20.648 1.347 21.3191 2.014 21.986C2.681 22.652 3.35 23.0651 4.14 23.37C4.906 23.666 5.776 23.8689 7.053 23.928C8.333 23.988 8.74 24 12 24C15.26 24 15.6671 23.9849 16.9471 23.928C18.224 23.868 19.0951 23.666 19.86 23.37C20.648 23.064 21.3191 22.652 21.986 21.986C22.652 21.3191 23.0651 20.6511 23.37 19.86C23.666 19.0951 23.8689 18.224 23.928 16.9471C23.988 15.6671 24 15.26 24 12C24 8.74 23.9849 8.333 23.928 7.053C23.868 5.776 23.666 4.904 23.37 4.14C23.064 3.351 22.652 2.681 21.986 2.014C21.3191 1.347 20.6511 0.935 19.86 0.63C19.0951 0.333 18.224 0.131 16.9471 0.072C15.6671 0.012 15.26 0 12 0ZM12 2.16C15.2031 2.16 15.5851 2.176 16.85 2.231C18.02 2.286 18.6549 2.48 19.0769 2.646C19.6389 2.863 20.0369 3.123 20.4589 3.542C20.878 3.962 21.138 4.361 21.3549 4.923C21.5189 5.345 21.7149 5.98 21.768 7.15C21.8249 8.416 21.838 8.796 21.838 12C21.838 15.204 21.8229 15.5851 21.764 16.85C21.7029 18.02 21.508 18.6549 21.3431 19.0769C21.1191 19.6389 20.864 20.0369 20.444 20.4589C20.0251 20.878 19.62 21.138 19.064 21.3549C18.644 21.5189 17.9991 21.7149 16.8291 21.768C15.5551 21.8249 15.18 21.838 11.97 21.838C8.759 21.838 8.384 21.8229 7.111 21.764C5.94 21.7029 5.295 21.508 4.875 21.3431C4.306 21.1191 3.915 20.864 3.496 20.444C3.075 20.0251 2.806 19.62 2.596 19.064C2.431 18.644 2.237 17.9991 2.176 16.8291C2.131 15.5691 2.115 15.18 2.115 11.985C2.115 8.789 2.131 8.399 2.176 7.124C2.237 5.954 2.431 5.31 2.596 4.89C2.806 4.32 3.075 3.93 3.496 3.509C3.915 3.09 4.306 2.82 4.875 2.611C5.295 2.445 5.926 2.25 7.096 2.19C8.371 2.145 8.746 2.13 11.955 2.13L12 2.16ZM12 5.838C8.595 5.838 5.838 8.598 5.838 12C5.838 15.4049 8.598 18.162 12 18.162C15.4049 18.162 18.162 15.402 18.162 12C18.162 8.595 15.402 5.838 12 5.838ZM12 16C9.79 16 8 14.21 8 12C8 9.79 9.79 8 12 8C14.21 8 16 9.79 16 12C16 14.21 14.21 16 12 16ZM19.846 5.595C19.846 6.39 19.2 7.035 18.406 7.035C17.6111 7.035 16.966 6.389 16.966 5.595C16.966 4.801 17.612 4.156 18.406 4.156C19.1991 4.155 19.846 4.801 19.846 5.595Z" fill="#1C1C33"/>
</g>
<defs>
<clipPath id="clip0_2_297">
<rect width="24" height="24" fill="white"/>
</clipPath>
</defs>
</svg>
