<svg width="24" height="24" viewBox="0 0 24 24" fill="none" xmlns="http://www.w3.org/2000/svg">
<path d="M23.4965 6.20522C23.3574 5.70698 23.0921 5.25305 22.7264 4.88727C22.3606 4.52151 21.9067 4.25628 21.4085 4.11722C19.5384 3.61623 12.0124 3.61623 12.0124 3.61623C12.0124 3.61623 4.50545 3.60623 2.61644 4.11722C2.1182 4.25628 1.66426 4.52151 1.29849 4.88727C0.932721 5.25305 0.667492 5.70698 0.528441 6.20522C0.173963 8.11974 -0.000797883 10.0632 0.00644158 12.0102C0.000570699 13.9499 0.175324 15.886 0.528441 17.7932C0.667492 18.2914 0.932721 18.7455 1.29849 19.1113C1.66426 19.477 2.1182 19.7421 2.61644 19.8812C4.48444 20.3833 12.0124 20.3833 12.0124 20.3833C12.0124 20.3833 19.5184 20.3833 21.4085 19.8812C21.9067 19.7421 22.3606 19.477 22.7264 19.1113C23.0921 18.7455 23.3574 18.2914 23.4965 17.7932C23.8422 15.8853 24.0096 13.9493 23.9965 12.0102C24.011 10.0639 23.8435 8.12044 23.4965 6.20522ZM9.61044 15.6012V8.40823L15.8744 12.0102L9.61044 15.6012Z" fill="#1C1C33"/>
</svg>
