<?xml version="1.0" standalone="no"?>
<!DOCTYPE svg PUBLIC "-//W3C//DTD SVG 1.1//EN" "http://www.w3.org/Graphics/SVG/1.1/DTD/svg11.dtd" >
<svg>
<metadata>
Created by FontForge 20090914 at Thu Jun 23 11:54:51 2022
 By www-data
Copyright &#194;&#169; 2020 Cerebri Sans Pro&#226;&#132;&#162; Version &#226;&#128;&#148; 2020 Edition by Alfredo Marco Pradil. All rights reserved.
</metadata>
<defs>
<font id="CerebriSansPro-ExtraBold" horiz-adv-x="0" >
  <font-face 
    font-family="Cerebri Sans Pro ExtraBold"
    font-weight="800"
    font-stretch="normal"
    units-per-em="1000"
    panose-1="0 0 9 0 0 0 0 0 0 0"
    ascent="750"
    descent="-250"
    x-height="511"
    cap-height="713"
    bbox="-813 -250 1355 1093"
    underline-thickness="75"
    underline-position="-66"
    unicode-range="U+000D-U+FB02"
  />
<missing-glyph horiz-adv-x="548" 
d="M39 0v713h469v-713h-469zM159 120h229v473h-229v-473z" />
    <glyph glyph-name="fi" unicode="fi" horiz-adv-x="677" 
d="M377 760c62.667 0 113.833 -13.834 153.5 -41.501s67.5 -64.834 83.5 -111.501l-154 -40c-7.33301 24.667 -18.166 42 -32.499 52s-34.166 15 -59.499 15c-10 0 -20.333 -1 -31 -3s-20.5 -6.16699 -29.5 -12.5s-16.333 -15.166 -22 -26.499s-8.5 -26.333 -8.5 -45v-36
h108v-121h-108v-390h-158v390h-102v121h102v36c0 39.333 6.83301 72.5 20.5 99.5s32.167 48.833 55.5 65.5s50.666 28.834 81.999 36.501s64.666 11.5 99.999 11.5zM460.999 510.999h158v-511h-158v511z" />
    <glyph glyph-name="fl" unicode="fl" horiz-adv-x="677" 
d="M369 760c34 0 66.167 -3.83301 96.5 -11.5s57 -19.834 80 -36.501s41.167 -38.5 54.5 -65.5s20 -60.167 20 -99.5v-547h-159v538c0 18.667 -2.5 34.167 -7.5 46.5s-11.667 22.166 -20 29.499s-18.166 12.5 -29.499 15.5s-23.333 4.5 -36 4.5c-10 0 -20.333 -1 -31 -3
s-20.5 -6.16699 -29.5 -12.5s-16.333 -15.166 -22 -26.499s-8.5 -26.333 -8.5 -45v-36h108v-121h-108v-390h-158v390h-102v121h102v36c0 39.333 6.66699 72.5 20 99.5s31.5 48.833 54.5 65.5s49.667 28.834 80 36.501s62.166 11.5 95.499 11.5z" />
    <glyph glyph-name="f_f" unicode="ff" horiz-adv-x="753" 
d="M706 625c-6.66699 0 -14.665 -0.5 -23.998 -1.5s-18 -4 -26 -9s-14.833 -12.833 -20.5 -23.5s-8.5 -25.334 -8.5 -44.001v-36h108v-121h-108v-390h-159v390h-191v-390h-158v390h-102v121h102v36c0 39.333 6.83301 72.5 20.5 99.5s32.167 48.833 55.5 65.5
s50.666 28.834 81.999 36.501s64.666 11.5 99.999 11.5c66 0 118 -16 156 -48c21.333 15.333 46.5 25.5 75.5 30.5s61.5 7.5 97.5 7.5h29v-125h-29zM277.002 511l191 -0.000976562v36c0 7.33301 0.166992 14.5 0.5 21.5s0.833008 14.167 1.5 21.5
c-23.333 29.333 -57.333 44 -102 44c-32 0 -55.167 -7.16699 -69.5 -21.5s-21.5 -36.166 -21.5 -65.499v-36z" />
    <glyph glyph-name="f_f_i" unicode="ffi" horiz-adv-x="1020" 
d="M720 760c62.667 0 113.669 -13.834 153.002 -41.501s67.333 -64.834 84 -111.501l-154 -40c-8 24.667 -19 42 -33 52s-33.667 15 -59 15c-10 0 -20.333 -1 -31 -3s-20.5 -6.16699 -29.5 -12.5s-16.333 -15.166 -22 -26.499s-8.5 -26.333 -8.5 -45v-36h108v-121h-108v-390
h-159v390h-184v-390h-158v390h-102v121h102v36c0 39.333 6.83301 72.5 20.5 99.5s32.167 48.833 55.5 65.5s50.666 28.834 81.999 36.501s64.666 11.5 99.999 11.5c34.667 0 65 -4.33301 91 -13s48.333 -20.667 67 -36c23.333 17.333 51 29.833 83 37.5s66 11.5 102 11.5z
M461.002 510.999l-0.000976562 36c0 8.66699 0.333008 17.167 1 25.5s1.66699 16.166 3 23.499c-23.333 25.333 -55.666 38 -96.999 38c-32 0 -55.167 -7.16699 -69.5 -21.5s-21.5 -36.166 -21.5 -65.499v-36h184zM804.001 510.999h158v-511h-158v511z" />
    <glyph glyph-name="f_f_l" unicode="ffl" horiz-adv-x="1020" 
d="M712 760c33.333 0 65.168 -3.83203 95.501 -11.499s57 -19.834 80 -36.501s41.167 -38.5 54.5 -65.5s20 -60.167 20 -99.5v-547h-158v538c0 18.667 -2.5 34.167 -7.5 46.5s-11.667 22.166 -20 29.499s-18.166 12.5 -29.499 15.5s-23.333 4.5 -36 4.5
c-10 0 -20.333 -1.5 -31 -4.5s-20.5 -7.83301 -29.5 -14.5s-16.333 -15.5 -22 -26.5s-8.5 -24.833 -8.5 -41.5v-36h108v-121h-108v-390h-159v390h-184v-390h-158v390h-102v121h102v36c0 39.333 6.83301 72.5 20.5 99.5s32.167 48.833 55.5 65.5s50.666 28.834 81.999 36.501
s64.666 11.5 99.999 11.5c34 0 64 -4.33301 90 -13s48.333 -20.667 67 -36c23.333 17.333 50.333 29.833 81 37.5s63 11.5 97 11.5zM461.002 511.001l-0.000976562 36c0 8.66699 0.333008 17.167 1 25.5s1.66699 16.166 3 23.499c-23.333 25.333 -55.666 38 -96.999 38
c-32 0 -55.167 -7.16699 -69.5 -21.5s-21.5 -36.166 -21.5 -65.499v-36h184z" />
    <glyph glyph-name="h_d_c_o.liga" unicode="hdco" horiz-adv-x="795" 
d="M398 0c-52 0 -101.167 10 -147.5 30s-86.666 47.167 -120.999 81.5s-61.5 74.666 -81.5 120.999s-30 95.5 -30 147.5c0 52.667 10 102 30 148s47.167 86.167 81.5 120.5s74.666 61.5 120.999 81.5s95.5 30 147.5 30c52.667 0 102 -10 148 -30s86.167 -47.167 120.5 -81.5
s61.5 -74.5 81.5 -120.5s30 -95.333 30 -148c0 -52 -10 -101.167 -30 -147.5s-47.167 -86.666 -81.5 -120.999s-74.5 -61.5 -120.5 -81.5s-95.333 -30 -148 -30zM398 36c47.333 0 92 9 134 27s78.5 42.667 109.5 74s55.5 67.833 73.5 109.5s27 86.167 27 133.5
s-9 92 -27 134s-42.5 78.5 -73.5 109.5s-67.5 55.5 -109.5 73.5s-86.667 27 -134 27s-91.833 -9 -133.5 -27s-78.167 -42.5 -109.5 -73.5s-56 -67.5 -74 -109.5s-27 -86.667 -27 -134s9 -91.833 27 -133.5s42.667 -78.167 74 -109.5s67.833 -56 109.5 -74
s86.167 -27 133.5 -27zM597 217c-4.66699 0 -8.66699 1.99805 -12 5.99805l-145 144c-8 9.33301 -8 18 0 26l145 145c8.66699 8.66699 17 8.66699 25 0c3.33301 -3.33301 5 -7.66602 5 -12.999s-1.66699 -9.66602 -5 -12.999l-132 -132l132 -132
c3.33301 -3.33301 5 -7.33301 5 -12s-1.66699 -9 -5 -13c-2.66699 -4 -7 -6 -13 -6zM199 216.998c-5.33301 0 -9.66602 1.66699 -12.999 5s-5 7.66602 -5 12.999v290c0 5.33301 1.66699 9.66602 5 12.999s7.66602 5 12.999 5s9.66602 -1.66699 12.999 -5
s5 -7.66602 5 -12.999v-290c0 -5.33301 -1.66699 -9.66602 -5 -12.999s-7.66602 -5 -12.999 -5zM398 216.998c-5.33301 0 -9.66602 1.66699 -12.999 5s-5 7.66602 -5 12.999v290c0 5.33301 1.66699 9.66602 5 12.999s7.66602 5 12.999 5s9.66602 -1.66699 12.999 -5
s5 -7.66602 5 -12.999v-290c0 -5.33301 -1.66699 -9.66602 -5 -12.999s-7.66602 -5 -12.999 -5zM253 361.998c-5.33301 0 -9.66602 1.66699 -12.999 5s-5 7.66602 -5 12.999s1.66699 9.66602 5 12.999s7.66602 5 12.999 5h91c5.33301 0 9.66602 -1.66699 12.999 -5
s5 -7.66602 5 -12.999s-1.66699 -9.66602 -5 -12.999s-7.66602 -5 -12.999 -5h-91z" />
    <glyph glyph-name="hyphen_greater.liga" unicode="&#x2d;&#x3e;" horiz-adv-x="753" 
d="M574 72h-126l103 125h-551v118h551l-103 125h126l152 -184z" />
    <glyph glyph-name="less_hyphen.liga" unicode="&#x3c;&#x2d;" horiz-adv-x="753" 
d="M179 72l-152 184l152 184h126l-103 -125h551v-118h-551l103 -125h-126z" />
    <glyph glyph-name="parenleft_greater_parenright.liga" unicode="&#x28;&#x3e;&#x29;" horiz-adv-x="799" 
d="M399 -10c-50 0 -97.333 9.66699 -142 29s-83.5 45.5 -116.5 78.5s-59.167 71.833 -78.5 116.5s-29 92 -29 142c0 50.667 9.66699 98.167 29 142.5s45.5 83.166 78.5 116.499s71.833 59.666 116.5 78.999s92 29 142 29c50.667 0 98.167 -9.66699 142.5 -29
s83.166 -45.666 116.499 -78.999s59.666 -72.166 78.999 -116.499s29 -91.833 29 -142.5c0 -50 -9.66699 -97.333 -29 -142s-45.666 -83.5 -78.999 -116.5s-72.166 -59.167 -116.499 -78.5s-91.833 -29 -142.5 -29zM399 71c40 0 77.333 7.33301 112 22
s64.834 34.834 90.501 60.501s45.834 55.834 60.501 90.501s22 72 22 112s-7.33301 77.333 -22 112s-34.834 64.834 -60.501 90.501s-55.834 45.834 -90.501 60.501s-72 22 -112 22s-77.333 -7.33301 -112 -22s-64.834 -34.834 -90.501 -60.501
s-45.834 -55.834 -60.501 -90.501s-22 -72 -22 -112s7.33301 -77.333 22 -112s34.834 -64.834 60.501 -90.501s55.834 -45.834 90.501 -60.501s72 -22 112 -22zM313 157v398l291 -199z" />
    <glyph glyph-name=".notdef" horiz-adv-x="548" 
d="M39 0v713h469v-713h-469zM159 120h229v473h-229v-473z" />
    <glyph glyph-name=".null" 
 />
    <glyph glyph-name=".null" 
 />
    <glyph glyph-name="nonmarkingreturn" unicode="&#xd;" horiz-adv-x="250" 
 />
    <glyph glyph-name="space" unicode=" " horiz-adv-x="260" 
 />
    <glyph glyph-name="exclam" unicode="!" horiz-adv-x="283" 
d="M78 236l-17 477h160l-18 -477h-125zM141 -10c-24.667 0 -45.5 8.5 -62.5 25.5s-25.5 37.833 -25.5 62.5s8.5 45.5 25.5 62.5s37.833 25.5 62.5 25.5s45.5 -8.5 62.5 -25.5s25.5 -37.833 25.5 -62.5s-8.5 -45.5 -25.5 -62.5s-37.833 -25.5 -62.5 -25.5z" />
    <glyph glyph-name="quotedbl" unicode="&#x22;" horiz-adv-x="450" 
d="M62 393l-23 320h151l-18 -320h-110zM279 393l-18 320h150l-22 -320h-110z" />
    <glyph glyph-name="numbersign" unicode="#" horiz-adv-x="780" 
d="M151 0l22 158h-137l14 108h138l27 178h-140l19 108h135l23 161h108l-22 -161h159l23 161h108l-22 -161h139l-17 -108h-137l-25 -178h137l-15 -108h-137l-24 -158h-108l23 158h-162l-21 -158h-108zM297 266h159l26 178h-161z" />
    <glyph glyph-name="dollar" unicode="$" horiz-adv-x="615" 
d="M578 207c0 -31.333 -5.66602 -59.998 -16.999 -85.998s-27.5 -48.5 -48.5 -67.5s-46.167 -34.167 -75.5 -45.5s-62.333 -18.333 -99 -21v-67h-55v67c-36 2 -69.667 8.16699 -101 18.5s-59.166 24.666 -83.499 42.999s-44.333 40.5 -60 66.5s-26.167 55.333 -31.5 88
l163 35c9.33301 -36 23.5 -63.333 42.5 -82s42.5 -30 70.5 -34v172c-5.33301 2 -10.833 3.83301 -16.5 5.5s-11.5 3.5 -17.5 5.5c-26 8 -51.833 17 -77.5 27s-48.667 22.833 -69 38.5s-37 35 -50 58s-19.5 51.167 -19.5 84.5c0 32 6.16699 61 18.5 87s29.5 48.167 51.5 66.5
s48.333 32.833 79 43.5s64.334 16.334 101.001 17.001v57h55v-60c27.333 -2.66699 53.833 -8.5 79.5 -17.5s49.167 -21.333 70.5 -37s39.666 -35 54.999 -58s26.333 -50.167 33 -81.5l-149 -34c-17.333 51.333 -47 82 -89 92v-156l9 -3c26 -8 52.667 -17.333 80 -28
s52.166 -24.334 74.499 -41.001s40.666 -37.334 54.999 -62.001s21.5 -55 21.5 -91zM200.001 522.002c0 -19.333 7.83301 -34.333 23.5 -45s35.5 -20 59.5 -28v142c-25.333 -2 -45.5 -9 -60.5 -21s-22.5 -28 -22.5 -48zM338.001 122.002c45.333 8 68 32.001 68 72.001
c0 20 -6.16699 36.167 -18.5 48.5s-28.833 23.166 -49.5 32.499v-153z" />
    <glyph glyph-name="percent" unicode="%" horiz-adv-x="886" 
d="M222 376c-24 0 -46.667 4.5 -68 13.5s-39.833 21.333 -55.5 37s-28 34 -37 55s-13.5 43.5 -13.5 67.5s4.5 46.5 13.5 67.5s21.5 39.5 37.5 55.5s34.5 28.5 55.5 37.5s43.5 13.5 67.5 13.5s46.5 -4.5 67.5 -13.5s39.333 -21.5 55 -37.5s28 -34.5 37 -55.5
s13.5 -43.5 13.5 -67.5s-4.5 -46.5 -13.5 -67.5s-21.333 -39.333 -37 -55s-34 -28 -55 -37s-43.5 -13.5 -67.5 -13.5zM191 0l370 713h130l-371 -713h-129zM222 479c20 0 36.667 6.83301 50 20.5s20 30.167 20 49.5s-7 36 -21 50s-30.333 21 -49 21
c-19.333 0 -35.833 -6.83301 -49.5 -20.5s-20.5 -30.5 -20.5 -50.5c0 -19.333 6.83301 -35.833 20.5 -49.5s30.167 -20.5 49.5 -20.5zM665 -8c-24 0 -46.667 4.5 -68 13.5s-39.833 21.333 -55.5 37s-28 34 -37 55s-13.5 43.5 -13.5 67.5s4.5 46.5 13.5 67.5
s21.5 39.5 37.5 55.5s34.5 28.5 55.5 37.5s43.5 13.5 67.5 13.5s46.5 -4.5 67.5 -13.5s39.333 -21.5 55 -37.5s28 -34.5 37 -55.5s13.5 -43.5 13.5 -67.5s-4.5 -46.5 -13.5 -67.5s-21.333 -39.333 -37 -55s-34 -28 -55 -37s-43.5 -13.5 -67.5 -13.5zM665 96
c19.333 0 35.833 6.66699 49.5 20s20.5 29.666 20.5 48.999s-6.83301 35.833 -20.5 49.5s-30.167 20.5 -49.5 20.5s-36 -6.66699 -50 -20s-21 -30 -21 -50c0 -19.333 7 -35.666 21 -48.999s30.667 -20 50 -20z" />
    <glyph glyph-name="ampersand" unicode="&#x26;" horiz-adv-x="772" 
d="M738 0h-179l-37 45c-31.333 -18.667 -65.333 -33.167 -102 -43.5s-76 -15.5 -118 -15.5c-40 0 -76.5 5 -109.5 15s-61.333 24.167 -85 42.5s-42 40.666 -55 66.999s-19.5 55.5 -19.5 87.5c0 25.333 3.83301 48.333 11.5 69s18.834 40 33.501 58s32.667 35.167 54 51.5
s45.666 32.833 72.999 49.5l-15 19c-14 17.333 -25.167 36.333 -33.5 57s-12.5 41.667 -12.5 63c0 26 5.16699 49 15.5 69s24.5 37 42.5 51s39.167 24.5 63.5 31.5s50.166 10.5 77.499 10.5c34.667 0 65.167 -4 91.5 -12s48.333 -19.167 66 -33.5s31 -31.333 40 -51
s13.5 -40.834 13.5 -63.501c0 -36 -12.5 -67.333 -37.5 -94s-60.5 -51 -106.5 -73l124 -151c15.333 25.333 27 52.833 35 82.5s12 61.5 12 95.5h141c0 -55.333 -8.16699 -107.666 -24.5 -156.999s-40.166 -93.666 -71.499 -132.999zM351 623
c-18 0 -32.167 -4.33301 -42.5 -13s-15.5 -20.667 -15.5 -36c0 -10.667 2.5 -21.5 7.5 -32.5s11.833 -21.833 20.5 -32.5l15 -18c24.667 14 42.667 28.167 54 42.5s17 28.5 17 42.5c0 13.333 -5.33301 24.5 -16 33.5s-24 13.5 -40 13.5zM317 119
c41.333 0 80.667 10.332 118 30.999l-151 181c-28.667 -17.333 -51 -34.166 -67 -50.499s-24 -38.833 -24 -67.5c0 -31.333 11.167 -54.833 33.5 -70.5s52.5 -23.5 90.5 -23.5z" />
    <glyph glyph-name="quotesingle" unicode="'" horiz-adv-x="230" 
d="M58 393l-18 320h150l-22 -320h-110z" />
    <glyph glyph-name="parenleft" unicode="(" horiz-adv-x="369" 
d="M201 -250c-50 63.333 -88.667 142.833 -116 238.5s-41 200.5 -41 314.5s13.667 218.667 41 314s66 174.666 116 237.999h150c-26.667 -28.667 -50.334 -62.667 -71.001 -102s-38.167 -82.5 -52.5 -129.5s-25.333 -97.5 -33 -151.5s-11.5 -110.333 -11.5 -169
s3.83301 -115 11.5 -169s18.667 -104.667 33 -152s31.833 -90.666 52.5 -129.999s44.334 -73.333 71.001 -102h-150z" />
    <glyph glyph-name="parenright" unicode=")" horiz-adv-x="369" 
d="M18 -250c26.667 28.667 50.334 62.667 71.001 102s38.167 82.666 52.5 129.999s25.333 98 33 152s11.5 110.333 11.5 169s-3.83301 115 -11.5 169s-18.667 104.5 -33 151.5s-31.833 90.167 -52.5 129.5s-44.334 73.333 -71.001 102h150
c50 -63.333 88.667 -142.666 116 -237.999s41 -200 41 -314s-13.667 -218.833 -41 -314.5s-66 -175.167 -116 -238.5h-150z" />
    <glyph glyph-name="asterisk" unicode="*" horiz-adv-x="417" 
d="M146 379l-73.999 44l80 95c8 10 10.167 18.333 6.5 25s-11.834 9 -24.501 7l-124 -21v85l124 -20c12.667 -2.66699 21 -0.5 25 6.5s1.66699 15.167 -7 24.5l-80 96l74 44l44 -119c4 -12 10 -18 18 -18s14.333 6 19 18l44 119l75 -44l-81 -96
c-8.66699 -9.33301 -11 -17.5 -7 -24.5s12.333 -9.16699 25 -6.5l124 20v-85l-124 21c-12.667 2 -21 -0.166992 -25 -6.5s-1.33301 -14.833 8 -25.5l80 -95l-75 -44l-44 118c-4 12 -10 18 -18 18s-14.333 -6 -19 -18z" />
    <glyph glyph-name="plus" unicode="+" horiz-adv-x="600" 
d="M241 11v186h-186v118h186v186h118v-186h186v-118h-186v-186h-118z" />
    <glyph glyph-name="comma" unicode="," horiz-adv-x="331" 
d="M60 -181l62 325h162l-111 -325h-113z" />
    <glyph glyph-name="hyphen" unicode="-" horiz-adv-x="397" 
d="M24 197v118h350v-118h-350z" />
    <glyph glyph-name="period" unicode="." horiz-adv-x="324" 
d="M161 -10c-12 0 -23.333 2.33301 -34 7s-20 11 -28 19s-14.333 17.333 -19 28s-7 22 -7 34s2.33301 23.333 7 34s11 20 19 28s17.333 14.333 28 19s22 7 34 7c24.667 0 45.667 -8.66699 63 -26s26 -38 26 -62s-8.66699 -44.667 -26 -62s-38.333 -26 -63 -26z" />
    <glyph glyph-name="slash" unicode="/" horiz-adv-x="642" 
d="M3 -205l487 955h149l-487 -955h-149z" />
    <glyph glyph-name="zero" unicode="0" horiz-adv-x="610" 
d="M305 -14c-84.667 0 -150 30.333 -196 91s-69 153.667 -69 279c0 126.667 23 220.167 69 280.5s111.333 90.5 196 90.5c84 0 149.167 -30.167 195.5 -90.5s69.5 -153.833 69.5 -280.5c0 -125.333 -23 -218.333 -69 -279s-111.333 -91 -196 -91zM305 127
c32.667 0 58.5 18 77.5 54s28.5 94.333 28.5 175c0 81.333 -9.5 139.833 -28.5 175.5s-44.833 53.5 -77.5 53.5s-58.667 -17.833 -78 -53.5s-29 -94.167 -29 -175.5c0 -80.667 9.66699 -139 29 -175s45.333 -54 78 -54z" />
    <glyph glyph-name="one" unicode="1" horiz-adv-x="610" 
d="M288 713h152v-713h-158v529l-162 -131v179z" />
    <glyph glyph-name="two" unicode="2" horiz-adv-x="610" 
d="M278 140l280.998 -0.000976562v-140h-507v122l284 288c18 18.667 31.667 35.834 41 51.501s14 32.834 14 51.501c0 24 -7.33301 42.167 -22 54.5s-35.334 18.5 -62.001 18.5c-66 0 -99 -36 -99 -108v-33l-158 16v31c0 36.667 5.83301 69.5 17.5 98.5
s28.334 53.667 50.001 74s47.834 35.833 78.501 46.5s65.334 16 104.001 16c36 0 69.167 -4.66699 99.5 -14s56.333 -23 78 -41s38.667 -39.833 51 -65.5s18.5 -54.834 18.5 -87.501c0 -39.333 -7.33301 -73.833 -22 -103.5s-38 -60.5 -70 -92.5z" />
    <glyph glyph-name="three" unicode="3" horiz-adv-x="610" 
d="M311 -14c-87.333 0 -154.003 22.1699 -200.003 66.5029s-69 109.166 -69 194.499h162c0.666992 -16.667 2.66699 -32.5 6 -47.5s9 -27.833 17 -38.5s18.5 -19.167 31.5 -25.5s29.167 -9.5 48.5 -9.5c33.333 0 58.166 9.16699 74.499 27.5s24.5 41.5 24.5 69.5
c0 20.667 -3.83301 37 -11.5 49s-17 21.167 -28 27.5s-22.167 10.333 -33.5 12s-20.666 2.5 -27.999 2.5h-23v120h21c24 0 43.833 7.5 59.5 22.5s23.5 35.167 23.5 60.5c0 21.333 -7.33301 38.5 -22 51.5s-33.667 19.5 -57 19.5c-28 0 -49.833 -9.33301 -65.5 -28
s-23.5 -44.667 -23.5 -78v-8l-160 16c0 38 5.83301 71.667 17.5 101s28.167 54.166 49.5 74.499s47.166 35.666 77.499 45.999s63.833 15.5 100.5 15.5c34 0 65 -5.16699 93 -15.5s52.167 -24.333 72.5 -42s36.166 -38.334 47.499 -62.001s17 -48.834 17 -75.501
c0 -20 -2.83301 -38.167 -8.5 -54.5s-13 -30.666 -22 -42.999s-18.667 -22.666 -29 -30.999s-20.166 -14.5 -29.499 -18.5c14.667 -4 29.334 -10 44.001 -18s27.834 -19 39.501 -33s21.167 -30.833 28.5 -50.5s11 -43.167 11 -70.5c0 -34 -6 -64.833 -18 -92.5
s-29.167 -51.5 -51.5 -71.5s-49.166 -35.5 -80.499 -46.5s-66.666 -16.5 -105.999 -16.5z" />
    <glyph glyph-name="four" unicode="4" horiz-adv-x="610" 
d="M585 275v-139h-73v-136h-159v136h-326v140l242 437h243v-438h73zM171 275h182v333z" />
    <glyph glyph-name="five" unicode="5" horiz-adv-x="610" 
d="M310 462c82.667 0 146.169 -18.1689 190.502 -54.502s66.5 -92.833 66.5 -169.5c0 -38.667 -6 -73.5 -18 -104.5s-29.333 -57.5 -52 -79.5s-50 -38.833 -82 -50.5s-67.667 -17.5 -107 -17.5c-38.667 0 -73.834 5.5 -105.501 16.5s-58.834 26.667 -81.501 47
s-40.167 45 -52.5 74s-18.5 61.5 -18.5 97.5v14c0 4.66699 0.333008 9.33398 1 14.001h155c-0.666992 -3.33301 -1 -8 -1 -14c0 -34 9 -60.667 27 -80s44 -29 78 -29s59 9.83301 75 29.5s24 43.834 24 72.501c0 24 -5 43 -15 57s-22.5 24.5 -37.5 31.5
s-31.5 11.333 -49.5 13s-35 2.5 -51 2.5h-185l23 381h438v-140h-292l-7 -111h77z" />
    <glyph glyph-name="six" unicode="6" horiz-adv-x="610" 
d="M339 475c31.333 0 61.1689 -5.66797 89.502 -17.001s53.166 -27.333 74.499 -48s38.333 -45.667 51 -75s19 -61.666 19 -96.999s-7.33301 -68.333 -22 -99s-34.334 -57.334 -59.001 -80.001s-53.5 -40.5 -86.5 -53.5s-67.5 -19.5 -103.5 -19.5
c-37.333 0 -72.166 6.83301 -104.499 20.5s-60.333 32.167 -84 55.5s-42.334 50.333 -56.001 81s-20.5 63.334 -20.5 98.001c0 28.667 4.83301 57.167 14.5 85.5s26.167 58.833 49.5 91.5l219 295h189l-182 -238h12zM419.003 240.999
c0.666992 34 -9.33594 62.668 -30.0029 86.001s-50 35 -88 35c-35.333 0 -63.166 -10.833 -83.499 -32.5s-31.166 -49.5 -32.499 -83.5c-0.666992 -15.333 1.33301 -30.333 6 -45s11.834 -27.5 21.501 -38.5s21.667 -19.833 36 -26.5s30.833 -10 49.5 -10
c18 0 34.333 3.16699 49 9.5s27.167 14.666 37.5 24.999s18.5 22.5 24.5 36.5s9.33301 28.667 10 44z" />
    <glyph glyph-name="seven" unicode="7" horiz-adv-x="610" 
d="M53 713h507v-140l-313 -573h-183l326 573h-337v140z" />
    <glyph glyph-name="eight" unicode="8" horiz-adv-x="610" 
d="M305 -14c-38 0 -73.0049 5.33008 -105.005 15.9971s-59.833 25.667 -83.5 45s-42.167 42.833 -55.5 70.5s-20 58.834 -20 93.501c0 40.667 9.5 76.334 28.5 107.001s44.5 55 76.5 73c-23.333 16.667 -41.833 36.834 -55.5 60.501s-20.5 50.5 -20.5 80.5
c0 28.667 5.83301 54.834 17.5 78.501s27.834 44.167 48.501 61.5s45.334 30.833 74.001 40.5s60.334 14.5 95.001 14.5c34 0 65.333 -4.83301 94 -14.5s53.334 -23.167 74.001 -40.5s36.834 -37.833 48.501 -61.5s17.5 -49.834 17.5 -78.501
c0 -30 -6.83301 -56.833 -20.5 -80.5s-31.5 -43.834 -53.5 -60.501c32 -18 57.333 -42.167 76 -72.5s28 -66.166 28 -107.499c0 -34 -6.66699 -65 -20 -93s-31.833 -51.667 -55.5 -71s-51.5 -34.333 -83.5 -45s-67 -16 -105 -16zM304.995 435.997
c24.667 0 45.834 8.33301 63.501 25s26.5 38.334 26.5 65.001c0 25.333 -8.83301 46 -26.5 62s-38.834 24 -63.501 24c-25.333 0 -46.666 -8 -63.999 -24s-26 -36.667 -26 -62c0 -26.667 8.66699 -48.334 26 -65.001s38.666 -25 63.999 -25zM304.995 125.997
c30 0 55.168 9.66699 75.501 29s30.5 44.333 30.5 75c0 32 -10.167 56.833 -30.5 74.5s-45.5 26.5 -75.5 26.5c-30.667 0 -55.834 -8.83301 -75.501 -26.5s-29.5 -42.5 -29.5 -74.5c0 -30.667 10 -55.667 30 -75s45 -29 75 -29z" />
    <glyph glyph-name="nine" unicode="9" horiz-adv-x="610" 
d="M308 727c37.333 0 72.1631 -6.83203 104.496 -20.499s60.333 -32.167 84 -55.5s42.334 -50.333 56.001 -81s20.5 -63.334 20.5 -98.001c0 -28.667 -4.83301 -57.167 -14.5 -85.5s-26.167 -58.833 -49.5 -91.5l-219 -295h-189l182 238h-12
c-31.333 0 -61.166 5.66699 -89.499 17s-53.166 27.333 -74.499 48s-38.333 45.667 -51 75s-19 61.666 -19 96.999s7.33301 68.333 22 99s34.334 57.334 59.001 80.001s53.5 40.5 86.5 53.5s67.5 19.5 103.5 19.5zM425.997 467.001c0.666992 15.333 -1.5 30.168 -6.5 44.501
s-12.333 27 -22 38s-21.667 19.833 -36 26.5s-30.833 10 -49.5 10c-18 0 -34.167 -3 -48.5 -9s-26.833 -14.333 -37.5 -25s-19 -23 -25 -37s-9 -28.667 -9 -44c-0.666992 -16.667 1.66602 -32.334 6.99902 -47.001s13 -27.5 23 -38.5s22.333 -19.667 37 -26
s31.334 -9.5 50.001 -9.5c35.333 0 63.333 11 84 33s31.667 50 33 84z" />
    <glyph glyph-name="colon" unicode=":" horiz-adv-x="306" 
d="M153 327c-24 0 -44.667 8.66699 -62 26s-26 38 -26 62s8.66699 44.667 26 62s38 26 62 26s44.667 -8.66699 62 -26s26 -38 26 -62s-8.66699 -44.667 -26 -62s-38 -26 -62 -26zM153 -10c-24 0 -44.667 8.66699 -62 26s-26 38 -26 62s8.66699 44.667 26 62s38 26 62 26
s44.667 -8.66699 62 -26s26 -38 26 -62s-8.66699 -44.667 -26 -62s-38 -26 -62 -26z" />
    <glyph glyph-name="semicolon" unicode=";" horiz-adv-x="328" 
d="M178 327c-23.333 0 -43.666 8.66699 -60.999 26s-26 38 -26 62s8.66699 44.667 26 62s37.666 26 60.999 26c24.667 0 45.667 -8.66699 63 -26s26 -38 26 -62s-8.66699 -44.667 -26 -62s-38.333 -26 -63 -26zM47 -181l61 325h162l-111 -325h-112z" />
    <glyph glyph-name="less" unicode="&#x3c;" horiz-adv-x="494" 
d="M439 499v-127l-231 -116l231 -117v-127l-384 194v101z" />
    <glyph glyph-name="equal" unicode="=" horiz-adv-x="560" 
d="M55 307v118h450v-118h-450zM55 87v118h450v-118h-450z" />
    <glyph glyph-name="greater" unicode="&#x3e;" horiz-adv-x="494" 
d="M55 499l384 -192v-101l-384 -194v127l231 117l-231 116v127z" />
    <glyph glyph-name="question" unicode="?" horiz-adv-x="542" 
d="M201 228l0.000976562 44c0 17.333 2.16699 32.166 6.5 44.499s10.166 23 17.499 32s15.833 16.833 25.5 23.5s19.834 13 30.501 19l28 18c9.33301 6 17.666 13.333 24.999 22s13.166 18.667 17.499 30s6.5 25.333 6.5 42c0 30.667 -9 54 -27 70s-41 24 -69 24
c-30 0 -53.667 -8.66699 -71 -26s-26 -39.666 -26 -66.999c0 -8.66699 1 -18.667 3 -30l-140 10c0 4 -0.166992 8.33301 -0.5 13s-0.5 10 -0.5 16c0 31.333 5.66699 60 17 86s27.166 48.5 47.499 67.5s45 33.833 74 44.5s61.167 16 96.5 16c36 0 69 -5 99 -15
s55.833 -24.167 77.5 -42.5s38.334 -40.5 50.001 -66.5s17.5 -55.333 17.5 -88c0 -34 -4.66699 -62.333 -14 -85s-20.666 -41.834 -33.999 -57.501s-27.833 -28.334 -43.5 -38.001l-41.5 -26.5c-14 -9.33301 -25.167 -18.666 -33.5 -27.999s-12.5 -20.666 -12.5 -33.999v-18
h-126zM266.001 -10c-25.333 0 -46.499 8.5 -63.499 25.5s-25.5 37.833 -25.5 62.5s8.66699 45.5 26 62.5s38.333 25.5 63 25.5c23.333 0 43.666 -8.5 60.999 -25.5s26 -37.833 26 -62.5s-8.5 -45.5 -25.5 -62.5s-37.5 -25.5 -61.5 -25.5z" />
    <glyph glyph-name="at" unicode="@" horiz-adv-x="885" 
d="M444 -111c-53.333 0 -103.498 9.49609 -150.498 28.4961s-88 45.5 -123 79.5s-62.5 74 -82.5 120s-30 96 -30 150c0 57.333 9.66699 110 29 158s46.166 89.5 80.499 124.5s75 62.333 122 82s98.5 29.5 154.5 29.5c58 0 110.667 -10.167 158 -30.5
s87.833 -47.666 121.5 -81.999s59.834 -74 78.501 -119s28 -92.167 28 -141.5c0 -64.667 -14.333 -114.834 -43 -150.501s-70.667 -53.5 -126 -53.5c-30.667 0 -55.5 4.83301 -74.5 14.5s-35.833 26.167 -50.5 49.5h-8c-13.333 -22 -30.666 -39 -51.999 -51s-46 -18 -74 -18
c-16.667 0 -32.834 2.33301 -48.501 7s-29.5 11.334 -41.5 20.001s-21.5 19.5 -28.5 32.5s-10.5 27.833 -10.5 44.5c0 18.667 4.16699 34.5 12.5 47.5s18.666 24 30.999 33s26 16.167 41 21.5s28.833 9.33301 41.5 12l105 26v17c0 18 -5.16699 31.333 -15.5 40
s-24.166 13 -41.499 13c-18.667 0 -33.667 -4.66699 -45 -14s-19.333 -24.666 -24 -45.999l-101 24c8.66699 32 27.167 58.167 55.5 78.5s66.5 30.5 114.5 30.5c19.333 0 38.666 -2.33301 57.999 -7s36.833 -12.5 52.5 -23.5s28.334 -25.833 38.001 -44.5s14.5 -42 14.5 -70
v-87c0 -25.333 4.83301 -43.333 14.5 -54s25.5 -16 47.5 -16c24.667 0 42.667 9 54 27s17 47 17 87c0 40.667 -7 78.834 -21 114.501s-34 66.834 -60 93.501s-57.333 47.834 -94 63.501s-77.667 23.5 -123 23.5c-43.333 0 -83.333 -7.5 -120 -22.5s-68.167 -36 -94.5 -63
s-47 -59.167 -62 -96.5s-22.5 -78.333 -22.5 -123c0 -42 7.83301 -80.833 23.5 -116.5s37 -66.5 64 -92.5s58.667 -46.333 95 -61s75.166 -22 116.499 -22c30 0 58.667 4.16699 86 12.5s53.666 20.166 78.999 35.499l40 -76c-30 -19.333 -62.333 -34 -97 -44
s-71 -15 -109 -15zM427.002 152.996c22.667 0 41.167 8.33203 55.5 24.999s21.5 37.667 21.5 63v22l-66 -21c-23.333 -7.33301 -38.833 -14.666 -46.5 -21.999s-11.5 -16.666 -11.5 -27.999c0 -12.667 4.5 -22.334 13.5 -29.001s20.167 -10 33.5 -10z" />
    <glyph glyph-name="A" unicode="A" horiz-adv-x="742" 
d="M561 0l-49 140h-283l-49 -140h-175l264 713h204l264 -713h-176zM278 277h186l-93 265z" />
    <glyph glyph-name="B" unicode="B" horiz-adv-x="630" 
d="M465 381c40.667 -13.333 72.668 -33.999 96.001 -61.999s35 -67 35 -117c0 -48.667 -10.333 -86.5 -31 -113.5s-45.334 -47 -74.001 -60s-58.167 -21 -88.5 -24s-54.833 -4.5 -73.5 -4.5h-265v713h237c82.667 0 145 -15.333 187 -46s63 -76.334 63 -137.001
c0 -72 -28.667 -121.667 -86 -149zM386.001 502.001c0 50 -29.333 75 -88 75h-69v-149h69c58.667 0 88 24.667 88 74zM331.001 140.001c34.667 0 59.834 6.5 75.501 19.5s23.5 33.833 23.5 62.5c0 28 -7.83301 48.5 -23.5 61.5s-40.834 19.5 -75.501 19.5h-102v-163h102z
" />
    <glyph glyph-name="C" unicode="C" horiz-adv-x="769" 
d="M401 -14c-54 0 -103.5 8.99707 -148.5 26.9971s-83.667 43.167 -116 75.5s-57.666 71.333 -75.999 117s-27.5 95.834 -27.5 150.501c0 55.333 9.16699 105.666 27.5 150.999s43.666 84.333 75.999 117s71 58 116 76s94.5 27 148.5 27c41.333 0 80 -5.5 116 -16.5
s68.833 -26.5 98.5 -46.5s55.5 -44.167 77.5 -72.5s39 -60.166 51 -95.499l-155 -55c-13.333 42 -36.666 75 -69.999 99s-72.666 36 -117.999 36c-29.333 0 -56.5 -5.33301 -81.5 -16s-46.5 -25.5 -64.5 -44.5s-32 -42 -42 -69s-15 -57.167 -15 -90.5
c0 -32.667 5 -62.5 15 -89.5s24 -50.167 42 -69.5s39.5 -34.166 64.5 -44.499s52.167 -15.5 81.5 -15.5c45.333 0 84.666 12 117.999 36s56.666 57 69.999 99l155 -55c-12 -35.333 -29 -67.166 -51 -95.499s-47.833 -52.5 -77.5 -72.5s-62.5 -35.5 -98.5 -46.5
s-74.667 -16.5 -116 -16.5z" />
    <glyph glyph-name="D" unicode="D" horiz-adv-x="711" 
d="M64 0v713.002h226c60 0 110.5 -5.5 151.5 -16.5s76.5 -27.167 106.5 -48.5c42.667 -30.667 74.5 -70.834 95.5 -120.501s31.5 -106.834 31.5 -171.501s-10.5 -121.667 -31.5 -171s-52.833 -89.333 -95.5 -120c-30 -21.333 -65.5 -37.5 -106.5 -48.5
s-91.5 -16.5 -151.5 -16.5h-226zM229 144.002h59.999c30.667 0 57.834 3.33301 81.501 10s44.167 16 61.5 28c26 17.333 45.5 40.833 58.5 70.5s19.5 64.167 19.5 103.5c0 40 -6.5 74.833 -19.5 104.5s-32.5 53.167 -58.5 70.5c-36 24.667 -83.667 37 -143 37h-60v-424z" />
    <glyph glyph-name="E" unicode="E" horiz-adv-x="533" 
d="M488 568h-259v-140h231v-143h-231v-141h259v-144h-424v713h424v-145z" />
    <glyph glyph-name="F" unicode="F" horiz-adv-x="523" 
d="M497 568h-268v-140h231v-143h-231v-285h-165v713h433v-145z" />
    <glyph glyph-name="G" unicode="G" horiz-adv-x="791" 
d="M391 -14c-52 0 -99.9971 9.00098 -143.997 27.001s-81.833 43.167 -113.5 75.5s-56.334 71.333 -74.001 117s-26.5 95.834 -26.5 150.501c0 55.333 9.16699 105.666 27.5 150.999s43.666 84.333 75.999 117s71 58 116 76s94.5 27 148.5 27
c70.667 0 133.5 -15.333 188.5 -46s97.833 -73 128.5 -127l-144 -78c-17.333 32 -41 56.667 -71 74s-64 26 -102 26c-29.333 0 -56.5 -5.33301 -81.5 -16s-46.5 -25.5 -64.5 -44.5s-32 -42 -42 -69s-15 -57.167 -15 -90.5c0 -32.667 4.66699 -62.334 14 -89.001
s22.833 -49.667 40.5 -69s39 -34.333 64 -45s53.167 -16 84.5 -16c40 0 77 10.167 111 30.5s57.667 52.5 71 96.5h-175v132h336v-396h-128v92c-22.667 -31.333 -52.334 -56.833 -89.001 -76.5s-82 -29.5 -136 -29.5z" />
    <glyph glyph-name="H" unicode="H" horiz-adv-x="745" 
d="M64 0v713h165v-284h287v284h165v-713h-165v286h-287v-286h-165z" />
    <glyph glyph-name="I" unicode="I" horiz-adv-x="293" 
d="M64 0v713h165v-713h-165z" />
    <glyph glyph-name="J" unicode="J" horiz-adv-x="479" 
d="M203 -14c-32.667 0 -65 4.00195 -97 12.002s-66 22.667 -102 44l69 135c18 -12.667 35.5 -22.334 52.5 -29.001s35.5 -10 55.5 -10c25.333 0 44 7.83301 56 23.5s18 43.5 18 83.5v468h165v-499c0 -36.667 -5.33301 -69.334 -16 -98.001s-25.5 -52.5 -44.5 -71.5
s-41.833 -33.5 -68.5 -43.5s-56 -15 -88 -15z" />
    <glyph glyph-name="K" unicode="K" horiz-adv-x="711" 
d="M498 0l-219 296h-50v-296h-165v713h165v-275h49l220 275h201l-279 -341l285 -372h-207z" />
    <glyph glyph-name="L" unicode="L" horiz-adv-x="457" 
d="M64 0v713h165v-569h219v-144h-384z" />
    <glyph glyph-name="M" unicode="M" horiz-adv-x="949" 
d="M909 0h-167l-44 536l-168 -536h-112l-168 536l-44 -536h-167l61 713h242l132 -405l132 405h242z" />
    <glyph glyph-name="N" unicode="N" horiz-adv-x="785" 
d="M556 713h165v-713h-198l-294 480v-480h-165v713h195l297 -479v479z" />
    <glyph glyph-name="O" unicode="O" horiz-adv-x="801" 
d="M401 -14c-54 0 -103.5 9 -148.5 27s-83.667 43.167 -116 75.5s-57.666 71.333 -75.999 117s-27.5 95.834 -27.5 150.501c0 55.333 9.16699 105.666 27.5 150.999s43.666 84.333 75.999 117s71 58 116 76s94.5 27 148.5 27c53.333 0 102.5 -9 147.5 -27
s83.833 -43.333 116.5 -76s58 -71.667 76 -117s27 -95.666 27 -150.999c0 -54.667 -9 -104.834 -27 -150.501s-43.333 -84.667 -76 -117s-71.5 -57.5 -116.5 -75.5s-94.167 -27 -147.5 -27zM401 137c29.333 0 56.333 5.16699 81 15.5s46 25.166 64 44.499s32 42.5 42 69.5
s15 56.833 15 89.5c0 33.333 -5 63.5 -15 90.5s-24 50 -42 69s-39.333 33.833 -64 44.5s-51.667 16 -81 16s-56.5 -5.33301 -81.5 -16s-46.5 -25.5 -64.5 -44.5s-32 -42 -42 -69s-15 -57.167 -15 -90.5c0 -32.667 5 -62.5 15 -89.5s24 -50.167 42 -69.5
s39.5 -34.166 64.5 -44.499s52.167 -15.5 81.5 -15.5z" />
    <glyph glyph-name="P" unicode="P" horiz-adv-x="607" 
d="M517 655c20.667 -17.333 36.833 -39.667 48.5 -67s17.5 -60.333 17.5 -99c0 -45.333 -8.66699 -86.833 -26 -124.5s-44.333 -66.5 -81 -86.5c-14 -8 -28.833 -14.167 -44.5 -18.5s-31.167 -7.5 -46.5 -9.5s-30 -3.16699 -44 -3.5s-26.667 -0.5 -38 -0.5h-74v-246h-165
v713h239c52 0 94.833 -4.83301 128.5 -14.5s62.167 -24.167 85.5 -43.5zM386.999 404.999c20.667 14.667 30.999 39.335 30.999 74.002c0 18.667 -2.83301 34.167 -8.5 46.5s-13.5 22.166 -23.5 29.499c-14 9.33301 -30.833 15 -50.5 17s-38.167 3 -55.5 3h-51v-191h51
c8 0 16.833 0.166992 26.5 0.5s19.334 1.16602 29.001 2.49902s19 3.33301 28 6s16.833 6.66699 23.5 12z" />
    <glyph glyph-name="Q" unicode="Q" horiz-adv-x="808" 
d="M792 -28l-142.999 -55.001l-90 100c-48.667 -20.667 -101.334 -31 -158.001 -31c-54 0 -103.5 9 -148.5 27s-83.667 43.167 -116 75.5s-57.666 71.333 -75.999 117s-27.5 95.834 -27.5 150.501c0 55.333 9.16699 105.666 27.5 150.999s43.666 84.333 75.999 117
s71 58 116 76s94.5 27 148.5 27c53.333 0 102.5 -9 147.5 -27s83.833 -43.333 116.5 -76s58 -71.667 76 -117s27 -95.666 27 -150.999c0 -50 -7.33301 -95.833 -22 -137.5s-35.667 -78.5 -63 -110.5zM198.001 355.999c0 -32.667 5 -62.5 15 -89.5s24 -50.167 42 -69.5
s39.5 -34.166 64.5 -44.499s52.167 -15.5 81.5 -15.5s56.333 5.16699 81 15.5s46 25.166 64 44.499s32 42.5 42 69.5s15 56.833 15 89.5c0 33.333 -5 63.5 -15 90.5s-24 50 -42 69s-39.333 33.833 -64 44.5s-51.667 16 -81 16s-56.5 -5.33301 -81.5 -16
s-46.5 -25.5 -64.5 -44.5s-32 -42 -42 -69s-15 -57.167 -15 -90.5z" />
    <glyph glyph-name="R" unicode="R" horiz-adv-x="650" 
d="M436 0l-176.001 269.998h-31v-270h-165v713h239c52 0 94.833 -4.83301 128.5 -14.5s62.167 -24.167 85.5 -43.5c20.667 -17.333 36.834 -39.666 48.501 -66.999s17.5 -60.333 17.5 -99c0 -42.667 -8.66699 -82.167 -26 -118.5s-44.333 -64.166 -81 -83.499
c-10.667 -5.33301 -20 -9.33301 -28 -12l190 -275h-202zM228.999 574.998l-0.000976562 -190.999h51c8 0 16.833 0.166992 26.5 0.5s19.334 1.16602 29.001 2.49902s19 3.33301 28 6s16.833 6.66699 23.5 12c20.667 14.667 31 39.334 31 74.001
c0 18.667 -2.83301 34.167 -8.5 46.5s-13.5 22.166 -23.5 29.499c-14 9.33301 -30.833 15 -50.5 17s-38.167 3 -55.5 3h-51z" />
    <glyph glyph-name="S" unicode="S" horiz-adv-x="615" 
d="M307 -14c-38.667 0 -75.0049 4.83008 -109.005 14.4971s-64.333 23.667 -91 42s-48.667 41 -66 68s-28.666 57.833 -33.999 92.5l163 35c10.667 -42 27.834 -72.167 51.501 -90.5s52.834 -27.5 87.501 -27.5c31.333 0 55.333 6.5 72 19.5s25 31.167 25 54.5
c0 14 -3.83301 26 -11.5 36s-18 18.667 -31 26s-28 14 -45 20s-35.167 12 -54.5 18c-26 8 -52.667 17 -80 27s-52.166 23.167 -74.499 39.5s-40.666 36.666 -54.999 60.999s-21.5 54.833 -21.5 91.5c0 32 6.33301 61.167 19 87.5s30.167 48.833 52.5 67.5
s49.333 33.167 81 43.5s66.5 15.5 104.5 15.5c31.333 0 62.5 -3.5 93.5 -10.5s59.5 -18.333 85.5 -34s48.333 -36 67 -61s32 -55.5 40 -91.5l-149 -34c-11.333 34 -27 58.5 -47 73.5s-46.667 22.5 -80 22.5c-30 0 -54.167 -6.16699 -72.5 -18.5s-27.5 -29.5 -27.5 -51.5
c0 -12 3.5 -22.167 10.5 -30.5s16.5 -15.666 28.5 -21.999s25.833 -11.833 41.5 -16.5l50.5 -15c27.333 -8 55.5 -17 84.5 -27s55.5 -23.5 79.5 -40.5s43.833 -38.5 59.5 -64.5s23.5 -59 23.5 -99c0 -33.333 -6.5 -63.666 -19.5 -90.999s-31.333 -50.666 -55 -69.999
s-52.167 -34.166 -85.5 -44.499s-70.333 -15.5 -111 -15.5z" />
    <glyph glyph-name="T" unicode="T" horiz-adv-x="516" 
d="M507 713v-145h-166v-568h-165v568h-166v145h497z" />
    <glyph glyph-name="U" unicode="U" horiz-adv-x="688" 
d="M344 -14c-40.667 0 -78.5 5.33301 -113.5 16s-65.5 27 -91.5 49s-46.333 50 -61 84s-22 74.333 -22 121v457h165v-436c0 -26 3.16699 -48.167 9.5 -66.5s15 -33 26 -44s24 -19 39 -24s31.167 -7.5 48.5 -7.5s33.5 2.5 48.5 7.5s28 13 39 24s19.667 25.667 26 44
s9.5 40.5 9.5 66.5v436h165v-457c0 -46.667 -7.33301 -87 -22 -121s-35 -62 -61 -84s-56.5 -38.333 -91.5 -49s-72.833 -16 -113.5 -16z" />
    <glyph glyph-name="V" unicode="V" horiz-adv-x="743" 
d="M561 713h176l-264 -713h-204l-264 713h175l191 -543z" />
    <glyph glyph-name="W" unicode="W" horiz-adv-x="1077" 
d="M894 713h171l-180 -713h-219l-128 409l-127 -409h-219l-180 713h171l131 -534l155 534h139l154 -534z" />
    <glyph glyph-name="X" unicode="X" horiz-adv-x="764" 
d="M5 0l279 371l-273 342h201l170 -221l170 221h201l-273 -342l279 -371h-207l-170 235l-170 -235h-207z" />
    <glyph glyph-name="Y" unicode="Y" horiz-adv-x="636" 
d="M637 713l-236 -373v-340h-165v335l-239 378h182l139 -230l139 230h180z" />
    <glyph glyph-name="Z" unicode="Z" horiz-adv-x="582" 
d="M228 144h320v-144h-515v130l318 438h-317v145h512v-130z" />
    <glyph glyph-name="bracketleft" unicode="[" horiz-adv-x="356" 
d="M58 -250v1105h270v-111h-131v-883h131v-111h-270z" />
    <glyph glyph-name="backslash" unicode="\" horiz-adv-x="642" 
d="M490 -205l-487 955h149l487 -955h-149z" />
    <glyph glyph-name="bracketright" unicode="]" horiz-adv-x="356" 
d="M299 -250h-271v111h132v883h-132v111h271v-1105z" />
    <glyph glyph-name="asciicircum" unicode="^" horiz-adv-x="725" 
d="M685 161h-133l-189 416l-190 -416h-133l251 552h143z" />
    <glyph glyph-name="underscore" unicode="_" horiz-adv-x="500" 
d="M0 -131v118h500v-118h-500z" />
    <glyph glyph-name="grave" unicode="`" horiz-adv-x="382" 
d="M180 571l-116 142h167l88 -142h-139z" />
    <glyph glyph-name="a" unicode="a" horiz-adv-x="579" 
d="M522 91c0 -14.667 0.498047 -28.3311 1.49805 -40.998s4.16699 -24.667 9.5 -36v-14h-157l-6 61c-18 -25.333 -42.333 -43.5 -73 -54.5s-62 -16.5 -94 -16.5c-20 0 -40 2.33301 -60 7s-38.167 12.5 -54.5 23.5s-29.5 25.5 -39.5 43.5s-15 40 -15 66
c0 29.333 6 53.666 18 72.999s27.5 35.333 46.5 48s39.833 22.667 62.5 30s44.667 13.333 66 18l88 20c13.333 3.33301 24.833 7.5 34.5 12.5s14.5 13.833 14.5 26.5c0 19.333 -8.16699 32.666 -24.5 39.999s-34.166 11 -53.499 11c-26 0 -47.5 -5.83301 -64.5 -17.5
s-28.167 -29.5 -33.5 -53.5l-151 23c11.333 55.333 39.5 95.833 84.5 121.5s100.5 38.5 166.5 38.5c76.667 0 134.834 -16 174.501 -48s59.5 -79 59.5 -141v-241zM249.998 98.0029c14 0 28.332 2.99902 42.999 8.99902s28 14.833 40 26.5s21.667 26.334 29 44.001
s11 38.167 11 61.5l-121 -34c-13.333 -3.33301 -26.5 -9 -39.5 -17s-19.5 -21.667 -19.5 -41c0 -16.667 5.33301 -29 16 -37s24.334 -12 41.001 -12z" />
    <glyph glyph-name="b" unicode="b" horiz-adv-x="652" 
d="M368 521c34 0 66.166 -5.99805 96.499 -17.998s56.833 -29.5 79.5 -52.5s40.5 -51 53.5 -84s19.5 -70.5 19.5 -112.5s-6.5 -79.333 -19.5 -112s-30.833 -60.334 -53.5 -83.001s-49.167 -39.834 -79.5 -51.501s-62.5 -17.5 -96.5 -17.5
c-33.333 0 -63.666 5.5 -90.999 16.5s-48.333 27.5 -63 49.5l-5 -56h-150v750h158v-293c15.333 21.333 36.333 37.333 63 48s56 16 88 16zM333.999 120.002c36 0 65.833 11.667 89.5 35s35.5 56.333 35.5 99s-11.833 76 -35.5 100s-53.5 36 -89.5 36
c-35.333 0 -64.833 -12 -88.5 -36s-35.5 -57.333 -35.5 -100s11.833 -75.667 35.5 -99s53.167 -35 88.5 -35z" />
    <glyph glyph-name="c" unicode="c" horiz-adv-x="603" 
d="M314 -10c-41.333 0 -79.165 6.50098 -113.498 19.501s-63.833 31.167 -88.5 54.5s-43.834 51.333 -57.501 84s-20.5 68.667 -20.5 108s6.83301 75.166 20.5 107.499s32.834 60.166 57.501 83.499s54.167 41.5 88.5 54.5s72.166 19.5 113.499 19.5
c68.667 0 125.667 -16.833 171 -50.5s73.666 -81.834 84.999 -144.501l-145 -14c-7.33301 30 -20.5 51.667 -39.5 65s-43.167 20 -72.5 20c-38 0 -67.667 -13 -89 -39s-32 -60 -32 -102s10.667 -76.333 32 -103s51 -40 89 -40c29.333 0 53.5 7 72.5 21
s32.167 35.667 39.5 65l145 -14c-5.33301 -31.333 -15.5 -59.166 -30.5 -83.499s-33.667 -44.666 -56 -60.999s-47.833 -28.833 -76.5 -37.5s-59.667 -13 -93 -13z" />
    <glyph glyph-name="d" unicode="d" horiz-adv-x="652" 
d="M435 750l157.999 -0.000976562v-750h-149l-6 55c-14.667 -21.333 -35.667 -37.5 -63 -48.5s-57.666 -16.5 -90.999 -16.5c-34 0 -66.167 5.83301 -96.5 17.5s-56.833 28.834 -79.5 51.501s-40.5 50.334 -53.5 83.001s-19.5 70 -19.5 112s6.5 79.5 19.5 112.5
s30.833 61 53.5 84s49.167 40.5 79.5 52.5s62.5 18 96.5 18c32 0 61.333 -5.33301 88 -16s47.667 -26.334 63 -47.001v292zM317.999 119.999c35.333 0 64.833 11.667 88.5 35s35.5 56.333 35.5 99s-11.833 76 -35.5 100s-53.167 36 -88.5 36c-36 0 -65.833 -12 -89.5 -36
s-35.5 -57.333 -35.5 -100s11.833 -75.667 35.5 -99s53.5 -35 89.5 -35z" />
    <glyph glyph-name="e" unicode="e" horiz-adv-x="604" 
d="M566 224l-375.994 0.000976562c3.33301 -36.667 16.5 -64.334 39.5 -83.001s50.5 -28 82.5 -28c24.667 0 45.667 5.16699 63 15.5s30.333 26.166 39 47.499l146 -20c-16.667 -53.333 -46.834 -94.333 -90.501 -123s-95.834 -43 -156.501 -43
c-42.667 0 -81.334 6 -116.001 18s-64.167 29.333 -88.5 52s-43 50.5 -56 83.5s-19.5 70.167 -19.5 111.5c0 42 6.66699 79.333 20 112s32.166 60.5 56.499 83.5s53.333 40.5 87 52.5s70.834 18 111.501 18c37.333 0 71.666 -5.16699 102.999 -15.5
s58.666 -26.166 81.999 -47.499s41.666 -48.333 54.999 -81s20 -71.667 20 -117zM309.006 404.001c-31.333 0 -56.665 -6.66699 -75.998 -20s-32.333 -34.666 -39 -63.999h218c-4.66699 27.333 -16.334 48.166 -35.001 62.499s-41.334 21.5 -68.001 21.5z" />
    <glyph glyph-name="f" unicode="f" horiz-adv-x="403" 
d="M356 625c-6.66699 0 -14.5 -0.500977 -23.5 -1.50098s-17.667 -4 -26 -9s-15.333 -12.833 -21 -23.5s-8.5 -25.334 -8.5 -44.001v-36h108v-121h-108v-390h-158v390h-102v121h102v36c0 43.333 5.83301 78.333 17.5 105s28 47.334 49 62.001s46 24.334 75 29.001
s60.833 7 95.5 7h29v-125h-29z" />
    <glyph glyph-name="g" unicode="g" horiz-adv-x="633" 
d="M426 511h150v-495c0 -48 -6.33301 -88.833 -19 -122.5s-30.667 -61.167 -54 -82.5s-51.833 -36.833 -85.5 -46.5s-71.167 -14.5 -112.5 -14.5c-76 0 -135.167 14.667 -177.5 44s-72.166 68 -89.499 116l131 53c14.667 -31.333 32 -54.5 52 -69.5s46 -22.5 78 -22.5
c43.333 0 73.833 12.167 91.5 36.5s26.5 56.5 26.5 96.5v74c-14.667 -18 -35.167 -32.833 -61.5 -44.5s-55.833 -17.5 -88.5 -17.5c-32 0 -62 6 -90 18s-52.667 29 -74 51s-38.166 48.667 -50.499 80s-18.5 66.333 -18.5 105s6.16699 73.5 18.5 104.5
s29.166 57.333 50.499 79s46.333 38.334 75 50.001s59 17.5 91 17.5c34.667 0 65.167 -6.33301 91.5 -19s46.166 -29.334 59.499 -50.001zM306 143c35.333 0 64.333 11.999 87 35.999s34 54.333 34 91s-11.167 66.834 -33.5 90.501s-51.5 35.5 -87.5 35.5
c-34.667 0 -63.334 -11.833 -86.001 -35.5s-34 -53.834 -34 -90.501c0 -18 3 -34.833 9 -50.5s14.5 -29.167 25.5 -40.5s23.833 -20.166 38.5 -26.499s30.334 -9.5 47.001 -9.5z" />
    <glyph glyph-name="h" unicode="h" horiz-adv-x="628" 
d="M387 521c61.333 0 108.001 -16.333 140.001 -49s48 -81.667 48 -147v-325h-158v300c0 36 -8.66699 61 -26 75s-39 21 -65 21c-12.667 0 -25.5 -1.83301 -38.5 -5.5s-24.667 -10.167 -35 -19.5s-19 -22 -26 -38s-10.5 -36.333 -10.5 -61v-272h-158v750h158v-300
c19.333 22 43.166 39.333 71.499 52s61.5 19 99.5 19z" />
    <glyph glyph-name="i" unicode="i" horiz-adv-x="272" 
d="M136 574c-24.667 0 -45.667 8.66699 -63 26s-26 38.333 -26 63c0 24 8.66699 44.667 26 62s38.333 26 63 26c24 0 44.667 -8.66699 62 -26s26 -38 26 -62c0 -24.667 -8.66699 -45.667 -26 -63s-38 -26 -62 -26zM57 0v511h158v-511h-158z" />
    <glyph glyph-name="j" unicode="j" horiz-adv-x="270" 
d="M133 574c-24.667 0 -45.667 8.66699 -63 26s-26 38.333 -26 63c0 24 8.66699 44.667 26 62s38.333 26 63 26c24 0 44.667 -8.66699 62 -26s26 -38 26 -62c0 -24.667 -8.66699 -45.667 -26 -63s-38 -26 -62 -26zM-52 -122c22 0 39.8301 2.66895 53.4971 8.00195
s24.334 13.666 32.001 24.999s12.834 25.666 15.501 42.999s4 38.333 4 63v494h159v-494c0 -86.667 -20.167 -151.667 -60.5 -195s-108.166 -65 -203.499 -65v121z" />
    <glyph glyph-name="k" unicode="k" horiz-adv-x="602" 
d="M372 271l220 -271h-190l-161 207h-25v-207h-158v750h158v-435h22l162 196h177z" />
    <glyph glyph-name="l" unicode="l" horiz-adv-x="273" 
d="M58 0v750h158v-750h-158z" />
    <glyph glyph-name="m" unicode="m" horiz-adv-x="933" 
d="M699 521c56.667 0 101 -13.168 133 -39.501s48 -63.166 48 -110.499v-371h-159v317c0 26.667 -7.66699 46.5 -23 59.5s-34 19.5 -56 19.5c-12 0 -23.667 -2 -35 -6s-21.333 -10.833 -30 -20.5s-15.667 -22.5 -21 -38.5s-8 -36.333 -8 -61v-270h-158v317
c0 26.667 -7.83301 46.5 -23.5 59.5s-34.5 19.5 -56.5 19.5c-12 0 -23.667 -2 -35 -6s-21.333 -10.833 -30 -20.5s-15.667 -22.5 -21 -38.5s-8 -36.333 -8 -61v-270h-158v511h149l7 -61c17.333 22.667 39 40.167 65 52.5s55.333 18.5 88 18.5c42 0 77.5 -7.33301 106.5 -22
s49.5 -36 61.5 -64c17.333 28 40 49.333 68 64s60 22 96 22z" />
    <glyph glyph-name="n" unicode="n" horiz-adv-x="628" 
d="M378 521c66 0 115.165 -15.668 147.498 -47.001s48.5 -75.333 48.5 -132v-342h-158v309c0 31.333 -8.66699 53.666 -26 66.999s-38.333 20 -63 20c-13.333 0 -26.166 -1.66699 -38.499 -5s-23.5 -9.16602 -33.5 -17.499s-18.5 -19.166 -25.5 -32.499s-11.5 -30 -13.5 -50
v-291h-158v511h149l6 -58c18.667 21.333 41.834 38 69.501 50s59.5 18 95.5 18z" />
    <glyph glyph-name="o" unicode="o" horiz-adv-x="639" 
d="M320 -10c-42 0 -80.667 6.16699 -116 18.5s-65.5 29.833 -90.5 52.5s-44.5 50.334 -58.5 83.001s-21 70 -21 112c0 41.333 7 78.333 21 111s33.5 60.334 58.5 83.001s55.167 40.167 90.5 52.5s74 18.5 116 18.5s80.5 -6.16699 115.5 -18.5s65 -29.833 90 -52.5
s44.5 -50.334 58.5 -83.001s21 -69.667 21 -111c0 -42 -7 -79.333 -21 -112s-33.5 -60.334 -58.5 -83.001s-55 -40.167 -90 -52.5s-73.5 -18.5 -115.5 -18.5zM320 115c38.667 0 69.5 13 92.5 39s34.5 60 34.5 102c0 41.333 -11.5 75 -34.5 101s-53.833 39 -92.5 39
c-39.333 0 -70.5 -13 -93.5 -39s-34.5 -59.667 -34.5 -101c0 -42 11.5 -76 34.5 -102s54.167 -39 93.5 -39z" />
    <glyph glyph-name="p" unicode="p" horiz-adv-x="652" 
d="M367 521c34 0 66.168 -5.83105 96.501 -17.498s56.833 -28.834 79.5 -51.501s40.5 -50.334 53.5 -83.001s19.5 -70 19.5 -112s-6.5 -79.5 -19.5 -112.5s-30.833 -61 -53.5 -84s-49.167 -40.5 -79.5 -52.5s-62.5 -18 -96.5 -18c-32 0 -61.333 5.33301 -88 16
s-47.667 26 -63 46v-295h-158v754h149l6 -54c14.667 21.333 35.667 37.333 63 48s57.666 16 90.999 16zM333.001 120.002c35.333 0 65 12 89 36s36 57.667 36 101c0 42.667 -12 75.5 -36 98.5s-53.667 34.5 -89 34.5c-36 0 -65.667 -11.5 -89 -34.5s-35 -55.833 -35 -98.5
c0 -43.333 11.667 -77 35 -101s53 -36 89 -36z" />
    <glyph glyph-name="q" unicode="q" horiz-adv-x="652" 
d="M445 511l150.001 -0.00195312v-754h-159v295c-15.333 -20 -36.333 -35.333 -63 -46s-56 -16 -88 -16c-34 0 -66.167 6 -96.5 18s-56.833 29.5 -79.5 52.5s-40.5 51 -53.5 84s-19.5 70.5 -19.5 112.5s6.5 79.333 19.5 112s30.833 60.334 53.5 83.001
s49.167 39.834 79.5 51.501s62.5 17.5 96.5 17.5c33.333 0 63.666 -5.33301 90.999 -16s48.333 -26.667 63 -48zM319.001 119.998c36 0 65.667 12 89 36s35 57.667 35 101c0 42.667 -11.667 75.5 -35 98.5s-53 34.5 -89 34.5c-35.333 0 -65 -11.5 -89 -34.5
s-36 -55.833 -36 -98.5c0 -43.333 12 -77 36 -101s53.667 -36 89 -36z" />
    <glyph glyph-name="r" unicode="r" horiz-adv-x="401" 
d="M216 444c15.333 23.333 37.5 42 66.5 56s62.5 21 100.5 21v-147c-29.333 0 -54.5 -2.16699 -75.5 -6.5s-38.333 -12 -52 -23s-23.667 -25.667 -30 -44s-9.5 -41.5 -9.5 -69.5v-231h-158v511h158v-67z" />
    <glyph glyph-name="s" unicode="s" horiz-adv-x="524" 
d="M274 -10c-30 0 -58.501 2.82617 -85.501 8.49316s-51.167 14.334 -72.5 26.001s-39.166 26.5 -53.499 44.5s-24.166 39.333 -29.499 64l132 37c8.66699 -27.333 21.5 -46.166 38.5 -56.499s37.167 -15.5 60.5 -15.5c17.333 0 33.5 3.16699 48.5 9.5
s22.5 17.833 22.5 34.5c0 10 -3 18.333 -9 25s-13.833 12.334 -23.5 17.001s-20.834 8.5 -33.501 11.5s-26 5.83301 -40 8.5c-28 5.33301 -53.333 11.833 -76 19.5s-42 17.334 -58 29.001s-28.167 26 -36.5 43s-12.5 37.5 -12.5 61.5c0 52 19 92.333 57 121
s89.333 43 154 43c24.667 0 48.834 -2.5 72.501 -7.5s45.167 -12.667 64.5 -23s36.333 -23.833 51 -40.5s25.334 -37 32.001 -61l-139 -30c-8 21.333 -19.167 36.333 -33.5 45s-31.833 13 -52.5 13c-18.667 0 -33.834 -3.33301 -45.501 -10s-17.5 -16.667 -17.5 -30
c0 -15.333 10.167 -26.666 30.5 -33.999s44.833 -14 73.5 -20c31.333 -6.66699 59 -14.167 83 -22.5s44.167 -18.666 60.5 -30.999s28.833 -27.166 37.5 -44.499s13 -39 13 -65c0 -30.667 -6 -56.667 -18 -78s-27.833 -38.833 -47.5 -52.5s-42.334 -23.667 -68.001 -30
s-52.167 -9.5 -79.5 -9.5z" />
    <glyph glyph-name="t" unicode="t" horiz-adv-x="417" 
d="M279 0c-52.667 0 -92.999 14.5 -120.999 43.5s-42 69.833 -42 122.5v224h-99v121h34c12.667 0 24.167 1.33301 34.5 4s19.166 7.66699 26.499 15s13 17.5 17 30.5s6 29.833 6 50.5v62h139v-162h106v-121h-106v-200c0 -23.333 5.33301 -40 16 -50s25.667 -15 45 -15h45
v-125h-101z" />
    <glyph glyph-name="u" unicode="u" horiz-adv-x="628" 
d="M412 511h158.001v-511h-150l-6 59c-18.667 -22 -41.834 -39 -69.501 -51s-59.5 -18 -95.5 -18c-66 0 -115.333 15.5 -148 46.5s-49 74.833 -49 131.5v343h159v-310c0 -31.333 8.5 -53.333 25.5 -66s38.167 -19 63.5 -19c14 0 27.667 2 41 6s25.333 10.667 36 20
s19.167 21.833 25.5 37.5s9.5 35.5 9.5 59.5v272z" />
    <glyph glyph-name="v" unicode="v" horiz-adv-x="600" 
d="M417 511h172l-219 -511h-141l-219 511h172l118 -324z" />
    <glyph glyph-name="w" unicode="w" horiz-adv-x="910" 
d="M729 511h168l-177 -511h-161l-104 312l-104 -312h-161l-177 511h168l98 -318l114 318h125l113 -317z" />
    <glyph glyph-name="x" unicode="x" horiz-adv-x="646" 
d="M11 0l217 256l-217 255h199l113 -152l114 152h197l-217 -256l217 -255h-197l-113 150l-114 -150h-199z" />
    <glyph glyph-name="y" unicode="y" horiz-adv-x="600" 
d="M417 511h172l-321 -754h-172l121 272l-207 482h172l117 -319z" />
    <glyph glyph-name="z" unicode="z" horiz-adv-x="496" 
d="M472 511l-216 -390h205v-121h-440l215 390h-195v121h431z" />
    <glyph glyph-name="braceleft" unicode="{" horiz-adv-x="361" 
d="M266 -250c-26.667 0 -50.5 3.66406 -71.5 10.9971s-38.667 17.5 -53 30.5s-25.166 28.167 -32.499 45.5s-11 36 -11 56v244c0 24 -1.16699 42.833 -3.5 56.5s-6.16602 24.167 -11.499 31.5s-12.833 13 -22.5 17s-21.834 8 -36.501 12v98
c14.667 4 26.834 7.83301 36.501 11.5s17.167 9.16699 22.5 16.5s9.16602 17.833 11.499 31.5s3.5 32.5 3.5 56.5v244c0 20 3.66699 38.667 11 56s18.166 32.5 32.499 45.5s32 23.167 53 30.5s44.833 11 71.5 11h67v-113h-37c-13.333 0 -24.833 -3.83301 -34.5 -11.5
s-14.5 -20.167 -14.5 -37.5v-220c0 -43.333 -5.83301 -79.166 -17.5 -107.499s-35.834 -49.166 -72.501 -62.499c36.667 -14 60.834 -35.167 72.501 -63.5s17.5 -64.166 17.5 -107.499v-220c0 -17.333 4.83301 -29.833 14.5 -37.5s21.167 -11.5 34.5 -11.5h37v-113h-67z" />
    <glyph glyph-name="bar" unicode="|" horiz-adv-x="353" 
d="M98 -150v900h158v-900h-158z" />
    <glyph glyph-name="braceright" unicode="}" horiz-adv-x="361" 
d="M29 -250v113.003h36c13.333 0 24.833 3.83301 34.5 11.5s14.5 20.167 14.5 37.5v220c0 43.333 6 79.166 18 107.499s36.333 49.5 73 63.5c-36.667 13.333 -61 34.166 -73 62.499s-18 64.166 -18 107.499v220c0 17.333 -4.83301 29.833 -14.5 37.5
s-21.167 11.5 -34.5 11.5h-36v113h67c26.667 0 50.334 -3.66699 71.001 -11s38.167 -17.5 52.5 -30.5s25.166 -28.167 32.499 -45.5s11 -36 11 -56v-244c0 -24 1.16699 -42.833 3.5 -56.5s6.16602 -24.167 11.499 -31.5s12.833 -12.833 22.5 -16.5s21.834 -7.5 36.501 -11.5
v-98c-14.667 -4 -26.834 -8 -36.501 -12s-17.167 -9.66699 -22.5 -17s-9.16602 -17.833 -11.499 -31.5s-3.5 -32.5 -3.5 -56.5v-244c0 -20 -3.66699 -38.667 -11 -56s-18.166 -32.5 -32.499 -45.5s-31.833 -23.167 -52.5 -30.5s-44.334 -11 -71.001 -11h-67z" />
    <glyph glyph-name="asciitilde" unicode="~" horiz-adv-x="629" 
d="M416 151c-20 0 -38 2.99609 -54 8.99609s-30 13.333 -42 22s-22.167 17.334 -30.5 26.001l-20.5 21c-9.33301 8.66699 -17.333 14.334 -24 17.001s-12.667 4 -18 4c-10.667 0 -20 -2.66699 -28 -8s-14.5 -12.333 -19.5 -21s-8.66699 -18.667 -11 -30
s-3.5 -22.666 -3.5 -33.999h-110c0 30 3.66699 57.5 11 82.5s18.333 46.5 33 64.5s33 32 55 42s47.333 15 76 15c31.333 0 56.5 -6.16699 75.5 -18.5s37.167 -30.166 54.5 -53.499c5.33301 -7.33301 11.5 -14.333 18.5 -21s16.5 -10 28.5 -10c16.667 0 31 8 43 24
s17.333 38.667 16 68h108c0 -28 -3.5 -54.167 -10.5 -78.5s-17.167 -45.5 -30.5 -63.5s-29.833 -32 -49.5 -42s-42.167 -15 -67.5 -15z" />
    <glyph glyph-name="exclamdown" unicode="&#xa1;" horiz-adv-x="283" 
d="M141 519c24.667 0 45.5 -8.5 62.5 -25.5s25.5 -37.833 25.5 -62.5s-8.5 -45.5 -25.5 -62.5s-37.833 -25.5 -62.5 -25.5s-45.5 8.5 -62.5 25.5s-25.5 37.833 -25.5 62.5s8.5 45.5 25.5 62.5s37.833 25.5 62.5 25.5zM78 273h125l18 -477h-160z" />
    <glyph glyph-name="cent" unicode="&#xa2;" horiz-adv-x="603" 
d="M313 219c29.333 0 53.498 6.66406 72.498 19.9971s32.167 35 39.5 65l145 -14c-9.33301 -56 -33.166 -100.167 -71.499 -132.5s-85.166 -52.166 -140.499 -59.499v-98h-91v98c-34.667 4.66699 -66.334 14.334 -95.001 29.001s-53.334 33.334 -74.001 56.001
s-36.5 49 -47.5 79s-16.5 62.667 -16.5 98c0 36 5.5 69 16.5 99s26.833 56.333 47.5 79s45.334 41.167 74.001 55.5s60.334 23.833 95.001 28.5v91h91v-91c56.667 -6.66699 103.667 -26.167 141 -58.5s61 -76.5 71 -132.5l-145 -14c-7.33301 29.333 -20.5 50.833 -39.5 64.5
s-43.167 20.5 -72.5 20.5c-38 0 -67.667 -13.167 -89 -39.5s-32 -60.5 -32 -102.5s10.667 -76 32 -102s51 -39 89 -39z" />
    <glyph glyph-name="sterling" unicode="&#xa3;" horiz-adv-x="658" 
d="M461 495c0.666992 4 1.00098 7.83398 1.00098 11.501v10.5c0 28 -7.33301 48.167 -22 60.5s-35.334 18.5 -62.001 18.5c-30 0 -53.5 -9.33301 -70.5 -28s-25.5 -49 -25.5 -91v-78h134v-112h-134v-153h295v-134h-512v93l31 7c28 8 42 28 42 60v127h-73v112h73v78
c0 36.667 6 70.167 18 100.5s28.667 56.333 50 78s46.833 38.5 76.5 50.5s62.5 18 98.5 18c26 0 51.833 -3.33301 77.5 -10s48.5 -17.5 68.5 -32.5s36.167 -34.5 48.5 -58.5s18.5 -53.333 18.5 -88c0 -5.33301 -0.166992 -10.333 -0.5 -15s-0.5 -9.33398 -0.5 -14.001z" />
    <glyph glyph-name="currency" unicode="&#xa4;" horiz-adv-x="680" 
d="M151 87l-83.001 87l60 61c-11.333 18.667 -20 38.667 -26 60s-9 42.666 -9 63.999c0 45.333 11.667 87.333 35 126l-59 60l83 87l62 -62c39.333 23.333 81.333 35 126 35s86.334 -11.667 125.001 -35l61 61l85 -85l-61 -60c12 -19.333 20.667 -39.666 26 -60.999
s8 -43 8 -65c0 -21.333 -2.66699 -42.833 -8 -64.5s-14 -42.167 -26 -61.5l60 -60l-83 -87l-62 62c-39.333 -22.667 -81.333 -34 -126 -34c-44 0 -86 11.333 -126 34zM338.999 233c18 0 34.832 3.50195 50.499 10.502s29.167 16.5 40.5 28.5s20.166 25.667 26.499 41
s9.5 31.333 9.5 48c0 17.333 -3.33301 33.5 -10 48.5s-15.667 28.167 -27 39.5s-24.833 20.333 -40.5 27s-32.167 10 -49.5 10s-33.666 -3.33301 -48.999 -10s-28.666 -15.834 -39.999 -27.501s-20.333 -25.334 -27 -41.001s-10 -32.167 -10 -49.5
c0 -18 3.5 -34.667 10.5 -50s16.333 -28.5 28 -39.5s25 -19.667 40 -26s30.833 -9.5 47.5 -9.5z" />
    <glyph glyph-name="yen" unicode="&#xa5;" horiz-adv-x="636" 
d="M637 713l-183 -288h106v-118h-159v-102h159v-118h-159v-87h-165v87h-161v118h161v102h-161v118h105l-183 288h182l139 -229l139 229h180z" />
    <glyph glyph-name="brokenbar" unicode="&#xa6;" horiz-adv-x="353" 
d="M98 390v360h158v-360h-158zM98 -150v360h158v-360h-158z" />
    <glyph glyph-name="section" unicode="&#xa7;" horiz-adv-x="622" 
d="M326 -172c-28.667 0 -56.999 2.99512 -84.999 8.99512s-53.5 15.833 -76.5 29.5s-42.833 31.334 -59.5 53.001s-28.334 48.167 -35.001 79.5l128 32c6.66699 -34 20 -58.333 40 -73s46.667 -22 80 -22c30 0 54.833 6.33301 74.5 19s29.5 32.667 29.5 60
c0 13.333 -3.83301 24.333 -11.5 33s-18.167 16.334 -31.5 23.001s-28.5 12.667 -45.5 18s-35.167 10.666 -54.5 15.999c-24.667 7.33301 -49.5 15.5 -74.5 24.5s-47.667 20.833 -68 35.5s-37 32.834 -50 54.501s-19.5 48.834 -19.5 81.501c0 24.667 3.5 46.834 10.5 66.501
s17.167 37.167 30.5 52.5c-12.667 13.333 -22.667 28.666 -30 45.999s-11 37.666 -11 60.999c0 30 5.66699 56.667 17 80s27.166 43.166 47.499 59.499s44.5 28.833 72.5 37.5s58.667 13 92 13c29.333 0 57.833 -3.16699 85.5 -9.5s53 -16.166 76 -29.499
s42.833 -30.833 59.5 -52.5s28.334 -48.167 35.001 -79.5l-128 -32c-6.66699 34 -20 58.333 -40 73s-46.667 22 -80 22c-30 0 -54.833 -6.33301 -74.5 -19s-29.5 -32.667 -29.5 -60c0 -12.667 3.83301 -23.5 11.5 -32.5s18 -16.833 31 -23.5s28.167 -12.667 45.5 -18l54 -16
c24.667 -7.33301 49.667 -15.666 75 -24.999s48.166 -21.166 68.499 -35.499s37 -32.5 50 -54.5s19.5 -49 19.5 -81c0 -24.667 -3.5 -46.834 -10.5 -66.501s-17.167 -37.167 -30.5 -52.5c12.667 -13.333 22.667 -28.666 30 -45.999s11 -37.666 11 -60.999
c0 -30 -5.66699 -56.833 -17 -80.5s-27.166 -43.5 -47.499 -59.5s-44.5 -28.333 -72.5 -37s-58.667 -13 -92 -13zM401.001 185.995c12 14 18 30.999 18 50.999c0 16 -4.16699 29.333 -12.5 40s-19.666 19.834 -33.999 27.501s-30.833 14.5 -49.5 20.5l-58 18
c-8 2.66699 -15.667 5 -23 7s-14.333 4.66699 -21 8c-12 -12.667 -18 -29.334 -18 -50.001c0 -16 4.16699 -29.333 12.5 -40s19.666 -20 33.999 -28s30.833 -15 49.5 -21l58 -18c8 -2 15.667 -4.16699 23 -6.5s14.333 -5.16602 21 -8.49902z" />
    <glyph glyph-name="dieresis" unicode="&#xa8;" horiz-adv-x="523" 
d="M153 574c-24.667 0 -45.667 8.66699 -63 26s-26 38.333 -26 63c0 24 8.66699 44.667 26 62s38.333 26 63 26c24 0 44.667 -8.66699 62 -26s26 -38 26 -62c0 -24.667 -8.66699 -45.667 -26 -63s-38 -26 -62 -26zM371 574c-24.667 0 -45.667 8.66699 -63 26
s-26 38.333 -26 63c0 24 8.66699 44.667 26 62s38.333 26 63 26c24 0 44.667 -8.66699 62 -26s26 -38 26 -62c0 -24.667 -8.66699 -45.667 -26 -63s-38 -26 -62 -26z" />
    <glyph glyph-name="copyright" unicode="&#xa9;" horiz-adv-x="848" 
d="M424 -10c-50 0 -97.333 9.66699 -142 29s-83.5 45.5 -116.5 78.5s-59.167 71.833 -78.5 116.5s-29 92 -29 142c0 50.667 9.66699 98.167 29 142.5s45.5 83.166 78.5 116.499s71.833 59.666 116.5 78.999s92 29 142 29s97.333 -9.66699 142 -29
s83.5 -45.666 116.5 -78.999s59.167 -72.166 78.5 -116.499s29 -91.833 29 -142.5c0 -50 -9.66699 -97.333 -29 -142s-45.5 -83.5 -78.5 -116.5s-71.667 -59.167 -116 -78.5s-91.833 -29 -142.5 -29zM424 71c40 0 77.333 7.33301 112 22s64.834 34.834 90.501 60.501
s45.834 55.834 60.501 90.501s22 72 22 112s-7.33301 77.333 -22 112s-34.834 64.834 -60.501 90.501s-55.834 45.834 -90.501 60.501s-72 22 -112 22s-77.333 -7.33301 -112 -22s-64.834 -34.834 -90.501 -60.501s-45.834 -55.834 -60.501 -90.501s-22 -72 -22 -112
s7.33301 -77.333 22 -112s34.834 -64.834 60.501 -90.501s55.834 -45.834 90.501 -60.501s72 -22 112 -22zM424 173c-26 0 -50.167 4.83691 -72.5 14.5039s-41.666 22.667 -57.999 39s-29.333 35.666 -39 57.999s-14.5 46.166 -14.5 71.499c0 26 4.83301 50.167 14.5 72.5
s22.667 41.666 39 57.999s35.666 29.333 57.999 39s46.5 14.5 72.5 14.5c30.667 0 58.667 -6.66699 84 -20s46.666 -31.333 63.999 -54l-66 -47c-9.33301 12 -21 21.667 -35 29s-29.667 11 -47 11c-29.333 0 -53.833 -9.83301 -73.5 -29.5s-29.5 -44.167 -29.5 -73.5
c0 -28.667 9.83301 -52.834 29.5 -72.501s44.167 -29.5 73.5 -29.5c17.333 0 33 3.66699 47 11s25.667 17 35 29l66 -48c-17.333 -22.667 -38.666 -40.5 -63.999 -53.5s-53.333 -19.5 -84 -19.5z" />
    <glyph glyph-name="ordfeminine" unicode="&#xaa;" horiz-adv-x="435" 
d="M280 713h89v-300h-89v37c-11.333 -13.333 -25.166 -23.833 -41.499 -31.5s-34.5 -11.5 -54.5 -11.5c-20.667 0 -40 4 -58 12s-33.667 19 -47 33s-23.833 30.5 -31.5 49.5s-11.5 39.5 -11.5 61.5s3.83301 42.5 11.5 61.5s18.167 35.5 31.5 49.5s29 25 47 33
s37.333 12 58 12c20 0 38.167 -3.83301 54.5 -11.5s30.166 -18.167 41.499 -31.5v37zM202 483c21.333 0 39.666 7.83301 54.999 23.5s23 34.5 23 56.5s-7.66699 40.667 -23 56s-33.666 23 -54.999 23s-39.833 -7.66699 -55.5 -23s-23.5 -34 -23.5 -56
s7.83301 -40.833 23.5 -56.5s34.167 -23.5 55.5 -23.5z" />
    <glyph glyph-name="guillemotleft" unicode="&#xab;" horiz-adv-x="577" 
d="M179 72l-152 184l152 184h126l-152 -184l152 -184h-126zM424 72l-152 184l152 184h126l-152 -184l152 -184h-126z" />
    <glyph glyph-name="logicalnot" unicode="&#xac;" horiz-adv-x="778" 
d="M596 68v247h-541v128h668v-375h-127z" />
    <glyph glyph-name="uni00AD" unicode="&#xad;" horiz-adv-x="397" 
d="M24 197v118h350v-118h-350z" />
    <glyph glyph-name="registered" unicode="&#xae;" horiz-adv-x="435" 
d="M217 307c-28.667 0 -55.501 5.5 -80.501 16.5s-46.833 26 -65.5 45s-33.5 41.167 -44.5 66.5s-16.5 52 -16.5 80c0 28.667 5.33301 55.667 16 81s25.334 47.333 44.001 66s40.667 33.5 66 44.5s52.333 16.5 81 16.5c28 0 54.667 -5.5 80 -16.5s47.5 -25.833 66.5 -44.5
s34 -40.667 45 -66s16.5 -52.333 16.5 -81c0 -28 -5.5 -54.667 -16.5 -80s-26 -47.5 -45 -66.5s-41.167 -34 -66.5 -45s-52 -16.5 -80 -16.5zM216.999 355c22 0 42.833 4.16699 62.5 12.5s36.667 19.666 51 33.999s25.666 31.333 33.999 51s12.5 40.5 12.5 62.5
c0 22.667 -4.16699 43.834 -12.5 63.501s-19.666 36.667 -33.999 51s-31.333 25.666 -51 33.999s-40.5 12.5 -62.5 12.5c-22.667 0 -43.667 -4.16699 -63 -12.5s-36.333 -19.666 -51 -33.999s-26.167 -31.333 -34.5 -51s-12.5 -40.834 -12.5 -63.501
c0 -22 4.16699 -42.833 12.5 -62.5s19.833 -36.667 34.5 -51s31.667 -25.666 51 -33.999s40.333 -12.5 63 -12.5zM134.999 404l-0.000976562 222h106c18.667 0 34.334 -6.33301 47.001 -19s19 -28.667 19 -48c0 -13.333 -3.16699 -25 -9.5 -35s-14.5 -17.667 -24.5 -23
l40 -97h-55l-34 90h-38v-90h-51zM185.998 535l43.001 0.000976562c9.33301 0 16.166 2.16699 20.499 6.5s6.5 10.166 6.5 17.499c0 15.333 -9 23 -27 23h-43v-47z" />
    <glyph glyph-name="macron" unicode="&#xaf;" horiz-adv-x="415" 
d="M64 590v99h287v-99h-287z" />
    <glyph glyph-name="degree" unicode="&#xb0;" horiz-adv-x="446" 
d="M223 417c-21.333 0 -41.333 4 -60 12s-34.834 18.833 -48.501 32.5s-24.5 29.834 -32.5 48.501s-12 38.667 -12 60s4 41.333 12 60s18.833 34.834 32.5 48.501s29.834 24.5 48.501 32.5s38.667 12 60 12s41.333 -4 60 -12s34.834 -18.833 48.501 -32.5
s24.5 -29.834 32.5 -48.501s12 -38.667 12 -60s-4 -41.333 -12 -60s-18.833 -34.834 -32.5 -48.501s-29.834 -24.5 -48.501 -32.5s-38.667 -12 -60 -12zM223 503c19.333 0 35.166 6.33301 47.499 19s18.5 28.667 18.5 48c0 18.667 -6.16699 34.167 -18.5 46.5
s-28.166 18.5 -47.499 18.5c-18.667 0 -34.334 -6.16699 -47.001 -18.5s-19 -27.833 -19 -46.5c0 -19.333 6.33301 -35.333 19 -48s28.334 -19 47.001 -19z" />
    <glyph glyph-name="plusminus" unicode="&#xb1;" horiz-adv-x="600" 
d="M241 188v133h-186v118h186v134h118v-134h186v-118h-186v-133h-118zM55 12v118h490v-118h-490z" />
    <glyph glyph-name="uni00B2" unicode="&#xb2;" horiz-adv-x="353" 
d="M161 489l168 0.00195312v-84h-304v73l170 173c11.333 11.333 19.666 21.666 24.999 30.999s8 19.666 8 30.999c0 14 -4.5 24.833 -13.5 32.5s-21.167 11.5 -36.5 11.5c-40 0 -60 -21.667 -60 -65v-20l-94 10v18c0 44 13.333 78.5 40 103.5s63.334 37.5 110.001 37.5
c43.333 0 78.833 -11 106.5 -33s41.5 -52.667 41.5 -92c0 -23.333 -4.5 -44 -13.5 -62s-22.833 -36.667 -41.5 -56z" />
    <glyph glyph-name="uni00B3" unicode="&#xb3;" horiz-adv-x="358" 
d="M182 396c-52.667 0 -92.833 13.3311 -120.5 39.998s-41.5 65.667 -41.5 117h98c0 -20.667 4.33301 -37.834 13 -51.501s24.667 -20.5 48 -20.5c20 0 35 5.33301 45 16s15 24.334 15 41.001c0 12.667 -2.33301 22.667 -7 30s-10.334 12.833 -17.001 16.5s-13.5 6 -20.5 7
s-12.5 1.5 -16.5 1.5h-14v73h13c14 0 25.833 4.33301 35.5 13s14.5 20.667 14.5 36c0 13.333 -4.5 23.833 -13.5 31.5s-20.5 11.5 -34.5 11.5c-16.667 0 -29.667 -5.66699 -39 -17s-14 -27 -14 -47v-5l-96 10c0 46 13.333 81.167 40 105.5s62.334 36.5 107.001 36.5
c20 0 38.5 -3.16699 55.5 -9.5s31.667 -14.666 44 -24.999s21.833 -22.666 28.5 -36.999s10 -29.5 10 -45.5c0 -24 -6.16699 -43.333 -18.5 -58s-23.833 -24.667 -34.5 -30c8.66699 -2 17.334 -5.5 26.001 -10.5s16.5 -11.667 23.5 -20s12.667 -18.5 17 -30.5
s6.5 -26 6.5 -42c0 -40.667 -13.833 -73.667 -41.5 -99s-64.834 -38 -111.501 -38z" />
    <glyph glyph-name="acute" unicode="&#xb4;" horiz-adv-x="382" 
d="M64 571l87 142h168l-117 -142h-138z" />
    <glyph glyph-name="uni00B5" unicode="&#xb5;" horiz-adv-x="627" 
d="M411 511h158.001v-511h-150l-6 59c-18.667 -22 -41.834 -39 -69.501 -51s-59.5 -18 -95.5 -18c-6.66699 0 -13 0.166992 -19 0.5s-12 0.833008 -18 1.5v-235h-159v754h159v-310c0 -31.333 8.5 -53.333 25.5 -66s37.833 -19 62.5 -19c14 0 27.667 2 41 6
s25.333 10.667 36 20s19.167 21.833 25.5 37.5s9.5 35.5 9.5 59.5v272z" />
    <glyph glyph-name="paragraph" unicode="&#xb6;" horiz-adv-x="593" 
d="M241 -150v527.999h-16c-55.333 0 -98.833 14.333 -130.5 43s-47.5 70.334 -47.5 125.001s15.833 96.167 47.5 124.5s75.167 42.5 130.5 42.5h95v-863h-79zM415 -150.001v863h80v-863h-80z" />
    <glyph glyph-name="periodcentered" unicode="&#xb7;" horiz-adv-x="351" 
d="M174 266c-24 0 -45 8.66797 -63 26.001s-27 38.666 -27 63.999c0 12 2.5 23.5 7.5 34.5s11.5 20.667 19.5 29s17.5 15 28.5 20s22.5 7.5 34.5 7.5s23.333 -2.5 34 -7.5s20.334 -11.667 29.001 -20s15.5 -18 20.5 -29s7.5 -22.5 7.5 -34.5
c0 -12.667 -2.5 -24.5 -7.5 -35.5s-11.833 -20.5 -20.5 -28.5s-18.334 -14.333 -29.001 -19s-22 -7 -34 -7z" />
    <glyph glyph-name="cedilla" unicode="&#xb8;" horiz-adv-x="374" 
d="M218 -48c28 0 50.334 -8.49805 67.001 -25.498s25 -39.167 25 -66.5c0 -30 -10.667 -55.5 -32 -76.5s-49.666 -31.5 -84.999 -31.5c-38 0 -67.333 7.16699 -88 21.5s-34.334 32.166 -41.001 53.499l86 23c3.33301 -9.33301 8.66602 -16.333 15.999 -21s15.333 -7 24 -7
c10.667 0 20 3.33301 28 10s12 16 12 28c0 13.333 -4 23.166 -12 29.499s-17.333 9.5 -28 9.5c-15.333 0 -27 -5.66699 -35 -17l-73 31l78 129l75 -28l-44 -65c10 2 19 3 27 3z" />
    <glyph glyph-name="uni00B9" unicode="&#xb9;" horiz-adv-x="256" 
d="M112 832h92v-427h-95v317l-97 -78v107z" />
    <glyph glyph-name="ordmasculine" unicode="&#xba;" horiz-adv-x="398" 
d="M199 411c-23.333 0 -45.166 4 -65.499 12s-38 19 -53 33s-26.833 30.5 -35.5 49.5s-13 39.5 -13 61.5s4.33301 42.5 13 61.5s20.5 35.5 35.5 49.5s32.667 25 53 33s42.166 12 65.499 12s45.166 -4 65.499 -12s38.166 -19 53.499 -33s27.333 -30.5 36 -49.5
s13 -39.5 13 -61.5s-4.33301 -42.5 -13 -61.5s-20.667 -35.5 -36 -49.5s-33.166 -25 -53.499 -33s-42.166 -12 -65.499 -12zM199 487c22 0 40.667 7.83301 56 23.5s23 34.5 23 56.5s-7.66699 40.667 -23 56s-34 23 -56 23s-40.833 -7.66699 -56.5 -23s-23.5 -34 -23.5 -56
s7.83301 -40.833 23.5 -56.5s34.5 -23.5 56.5 -23.5z" />
    <glyph glyph-name="guillemotright" unicode="&#xbb;" horiz-adv-x="577" 
d="M154 72h-127l152 184l-152 184h127l152 -184zM398 72h-126l152 184l-152 184h126l152 -184z" />
    <glyph glyph-name="onequarter" unicode="&#xbc;" horiz-adv-x="810" 
d="M519 713h96l-402 -713h-96zM204 285h-95v317l-97 -78v107l100 81h92v-427zM789 165v-84h-44v-81h-95v81h-196v85l145 262h146v-263h44zM541 165h109v200z" />
    <glyph glyph-name="onehalf" unicode="&#xbd;" horiz-adv-x="829" 
d="M519 713h96l-402 -713h-96zM204 285h-95v317l-97 -78v107l100 81h92v-427zM637 84l169 0.00195312v-84h-304v73l170 173c11.333 11.333 19.666 21.666 24.999 30.999s8 19.666 8 30.999c0 14 -4.5 24.833 -13.5 32.5s-21.167 11.5 -36.5 11.5c-40 0 -60 -21.667 -60 -65
v-20l-94 10v18c0 44 13.333 78.5 40 103.5s63.334 37.5 110.001 37.5c43.333 0 78.833 -11 106.5 -33s41.5 -52.667 41.5 -92c0 -23.333 -4.5 -43.833 -13.5 -61.5s-22.833 -36.167 -41.5 -55.5z" />
    <glyph glyph-name="threequarters" unicode="&#xbe;" horiz-adv-x="911" 
d="M335 413c0 -40.667 -13.832 -73.6689 -41.499 -99.002s-64.834 -38 -111.501 -38c-52.667 0 -92.834 13.333 -120.501 40s-41.5 65.667 -41.5 117h98c0 -20.667 4.33301 -37.834 13 -51.501s24.667 -20.5 48 -20.5c20 0 35 5.33301 45 16s15 24.334 15 41.001
c0 12.667 -2.33301 22.667 -7 30s-10.334 12.833 -17.001 16.5s-13.5 6 -20.5 7s-12.5 1.5 -16.5 1.5h-14v73h13c14 0 25.833 4.33301 35.5 13s14.5 20.667 14.5 36c0 13.333 -4.5 23.833 -13.5 31.5s-20.5 11.5 -34.5 11.5c-16.667 0 -29.667 -5.66699 -39 -17
s-14 -27 -14 -47v-5l-96 10c0 46 13.333 81.167 40 105.5s62.334 36.5 107.001 36.5c20 0 38.5 -3.16699 55.5 -9.5s31.667 -14.666 44 -24.999s21.833 -22.666 28.5 -36.999s10 -29.5 10 -45.5c0 -24 -6.16699 -43.333 -18.5 -58s-23.833 -24.667 -34.5 -30
c8.66699 -2 17.334 -5.5 26.001 -10.5s16.5 -11.667 23.5 -20s12.667 -18.5 17 -30.5s6.5 -26 6.5 -42zM621.001 712.998h96l-402 -713h-96zM890.001 164.998v-84h-44v-81h-95v81h-196v85l145 262h146v-263h44zM642.001 164.998h109v200z" />
    <glyph glyph-name="questiondown" unicode="&#xbf;" horiz-adv-x="542" 
d="M268 521c24.667 0 45.499 -8.66699 62.499 -26s25.5 -38 25.5 -62c0 -24.667 -8.66699 -45.5 -26 -62.5s-38 -25.5 -62 -25.5s-44.5 8.5 -61.5 25.5s-25.5 37.833 -25.5 62.5c0 24 8.33301 44.667 25 62s37.334 26 62.001 26zM331.999 283l-0.00195312 -44.0029
c0 -17.333 -2.16699 -32.166 -6.5 -44.499s-10.166 -23 -17.499 -32s-15.833 -16.833 -25.5 -23.5s-19.5 -13 -29.5 -19s-19.667 -12.167 -29 -18.5s-17.666 -13.666 -24.999 -21.999s-13.166 -18.166 -17.499 -29.499s-6.5 -25.333 -6.5 -42c0 -31.333 9 -54.833 27 -70.5
s41 -23.5 69 -23.5c30.667 0 54.5 8.66699 71.5 26s25.5 39.333 25.5 66c0 10 -1 20 -3 30l140 -9c0 -4.66699 0.166992 -9.33398 0.5 -14.001s0.5 -10 0.5 -16c0 -30.667 -5.66699 -59.167 -17 -85.5s-27.166 -49 -47.499 -68s-45 -33.833 -74 -44.5s-61.167 -16 -96.5 -16
c-36 0 -69 5 -99 15s-55.833 24.167 -77.5 42.5s-38.334 40.5 -50.001 66.5s-17.5 55.333 -17.5 88c0 34 4.66699 62.5 14 85.5s20.666 42.333 33.999 58s27.833 28.334 43.5 38.001l41.5 26.5c14 9.33301 25.167 18.5 33.5 27.5s12.5 20.5 12.5 34.5v18h126z" />
    <glyph glyph-name="Agrave" unicode="&#xc0;" horiz-adv-x="742" 
d="M441 743h-138l-114 138h167zM561 0l-49 140h-283l-49 -140h-175l264 713h204l264 -713h-176zM278 277h186l-93 265z" />
    <glyph glyph-name="Aacute" unicode="&#xc1;" horiz-adv-x="742" 
d="M554 881l-114 -138h-138l85 138h167zM561 0l-49 140h-283l-49 -140h-175l264 713h204l264 -713h-176zM278 277h186l-93 265z" />
    <glyph glyph-name="Acircumflex" unicode="&#xc2;" horiz-adv-x="742" 
d="M372 810l-56 -65h-130l96 136h179l96 -136h-130zM561 0l-49 140h-283l-49 -140h-175l264 713h204l264 -713h-176zM278 277h186l-93 265z" />
    <glyph glyph-name="Atilde" unicode="&#xc3;" horiz-adv-x="742" 
d="M304 811c-10 0 -16.833 -6.16602 -20.5 -18.499s-5.5 -26.833 -5.5 -43.5h-75c0 42.667 9.66699 77.667 29 105s46.333 41 81 41c23.333 0 41.333 -4.66699 54 -14s23.334 -19 32.001 -29c6 -7.33301 12 -13.333 18 -18s13 -7 21 -7c10 0 16.5 6 19.5 18
s4.5 26.667 4.5 44h76c0 -20.667 -2.33301 -39.834 -7 -57.501s-11.5 -33 -20.5 -46s-20.333 -23.333 -34 -31s-29.5 -11.5 -47.5 -11.5c-24 0 -42.333 4.66699 -55 14s-23 19 -31 29c-6 6.66699 -11.833 12.5 -17.5 17.5s-12.834 7.5 -21.501 7.5zM561 0.000976562l-49 140
h-283l-49 -140h-175l264 713h204l264 -713h-176zM278 277.001h186l-93 265z" />
    <glyph glyph-name="Adieresis" unicode="&#xc4;" horiz-adv-x="742" 
d="M263 748c-24.667 0 -45.667 8.66699 -63 26s-26 38.333 -26 63c0 24 8.66699 44.667 26 62s38.333 26 63 26c24 0 44.667 -8.66699 62 -26s26 -38 26 -62c0 -24.667 -8.66699 -45.667 -26 -63s-38 -26 -62 -26zM481 748c-24.667 0 -45.667 8.66699 -63 26
s-26 38.333 -26 63c0 24 8.66699 44.667 26 62s38.333 26 63 26c24 0 44.667 -8.66699 62 -26s26 -38 26 -62c0 -24.667 -8.66699 -45.667 -26 -63s-38 -26 -62 -26zM561 0l-49 140h-283l-49 -140h-175l264 713h204l264 -713h-176zM278 277h186l-93 265z" />
    <glyph glyph-name="Aring" unicode="&#xc5;" horiz-adv-x="742" 
d="M371 741c-18.667 0 -36.334 3.16699 -53.001 9.5s-31.167 15.166 -43.5 26.499s-22 25 -29 41s-10.5 34 -10.5 54s3.5 38 10.5 54s16.667 29.833 29 41.5s26.833 20.5 43.5 26.5s34.334 9 53.001 9s36.167 -3 52.5 -9s30.666 -14.833 42.999 -26.5s22 -25.5 29 -41.5
s10.5 -34 10.5 -54s-3.5 -38 -10.5 -54s-16.667 -29.667 -29 -41s-26.666 -20.166 -42.999 -26.499s-33.833 -9.5 -52.5 -9.5zM371 932c-17.333 0 -31.333 -5.5 -42 -16.5s-16 -25.5 -16 -43.5c0 -17.333 5.33301 -31.5 16 -42.5s24.667 -16.5 42 -16.5
s31.666 5.5 42.999 16.5s17 25.167 17 42.5c0 18 -5.66699 32.5 -17 43.5s-25.666 16.5 -42.999 16.5zM561 0l-49 140h-283l-49 -140h-175l264 713h204l264 -713h-176zM278 277h186l-93 265z" />
    <glyph glyph-name="AE" unicode="&#xc6;" horiz-adv-x="922" 
d="M5 0l264 713h608v-145h-268v-140h231v-144h-231v-139h268v-145h-433v140h-214l-50 -140h-175zM277 277h167v291h-64z" />
    <glyph glyph-name="Ccedilla" unicode="&#xc7;" horiz-adv-x="769" 
d="M401 137c45.333 0 84.6689 12.002 118.002 36.002s56.666 57 69.999 99l155 -55c-23.333 -66.667 -62.333 -120.334 -117 -161.001s-119.334 -63.667 -194.001 -69l-26 -38c10 2 19 3 27 3c28 0 50.333 -8.5 67 -25.5s25 -39.167 25 -66.5c0 -30 -10.667 -55.5 -32 -76.5
s-49.666 -31.5 -84.999 -31.5c-38 0 -67.333 7.16699 -88 21.5s-34.334 32.166 -41.001 53.499l86 23c3.33301 -9.33301 8.66602 -16.333 15.999 -21s15.333 -7 24 -7c10.667 0 20 3.33301 28 10s12 16 12 28c0 13.333 -4 23.166 -12 29.499s-17.333 9.5 -28 9.5
c-15.333 0 -27 -5.66699 -35 -17l-73 31l46 77c-46 6 -88 19 -126 39s-70.833 46 -98.5 78s-49 69 -64 111s-22.5 88 -22.5 138c0 55.333 9.16699 105.666 27.5 150.999s43.666 84.333 75.999 117s71 58 116 76s94.5 27 148.5 27c41.333 0 80 -5.5 116 -16.5
s68.833 -26.5 98.5 -46.5s55.5 -44.167 77.5 -72.5s39 -60.166 51 -95.499l-155 -55c-13.333 42 -36.666 75 -69.999 99s-72.666 36 -117.999 36c-29.333 0 -56.5 -5.33301 -81.5 -16s-46.5 -25.5 -64.5 -44.5s-32 -42 -42 -69s-15 -57.167 -15 -90.5
c0 -32.667 5 -62.5 15 -89.5s24 -50.167 42 -69.5s39.5 -34.166 64.5 -44.499s52.167 -15.5 81.5 -15.5z" />
    <glyph glyph-name="Egrave" unicode="&#xc8;" horiz-adv-x="533" 
d="M350 743h-138l-114 138h167zM488 568h-259v-140h231v-143h-231v-141h259v-144h-424v713h424v-145z" />
    <glyph glyph-name="Eacute" unicode="&#xc9;" horiz-adv-x="533" 
d="M464 881l-114 -138h-138l85 138h167zM488 568h-259v-140h231v-143h-231v-141h259v-144h-424v713h424v-145z" />
    <glyph glyph-name="Ecircumflex" unicode="&#xca;" horiz-adv-x="533" 
d="M282 810l-56 -65h-130l96 136h179l96 -136h-130zM488 568h-259v-140h231v-143h-231v-141h259v-144h-424v713h424v-145z" />
    <glyph glyph-name="Edieresis" unicode="&#xcb;" horiz-adv-x="533" 
d="M172 748c-24.667 0 -45.667 8.66699 -63 26s-26 38.333 -26 63c0 24 8.66699 44.667 26 62s38.333 26 63 26c24 0 44.667 -8.66699 62 -26s26 -38 26 -62c0 -24.667 -8.66699 -45.667 -26 -63s-38 -26 -62 -26zM390 748c-24.667 0 -45.667 8.66699 -63 26
s-26 38.333 -26 63c0 24 8.66699 44.667 26 62s38.333 26 63 26c24 0 44.667 -8.66699 62 -26s26 -38 26 -62c0 -24.667 -8.66699 -45.667 -26 -63s-38 -26 -62 -26zM488 568h-259v-140h231v-143h-231v-141h259v-144h-424v713h424v-145z" />
    <glyph glyph-name="Igrave" unicode="&#xcc;" horiz-adv-x="293" 
d="M77 743l-114 138h167l85 -138h-138zM64 0v713h165v-713h-165z" />
    <glyph glyph-name="Iacute" unicode="&#xcd;" horiz-adv-x="293" 
d="M77 743l85 138h167l-114 -138h-138zM64 0v713h165v-713h-165z" />
    <glyph glyph-name="Icircumflex" unicode="&#xce;" horiz-adv-x="293" 
d="M-40 745l96 136h179l96 -136h-130l-55 65l-56 -65h-130zM64 0v713h165v-713h-165z" />
    <glyph glyph-name="Idieresis" unicode="&#xcf;" horiz-adv-x="293" 
d="M37 748c-24.667 0 -45.667 8.66699 -63 26s-26 38.333 -26 63c0 24 8.66699 44.667 26 62s38.333 26 63 26c24 0 44.667 -8.66699 62 -26s26 -38 26 -62c0 -24.667 -8.66699 -45.667 -26 -63s-38 -26 -62 -26zM255 748c-24.667 0 -45.667 8.66699 -63 26
s-26 38.333 -26 63c0 24 8.66699 44.667 26 62s38.333 26 63 26c24 0 44.667 -8.66699 62 -26s26 -38 26 -62c0 -24.667 -8.66699 -45.667 -26 -63s-38 -26 -62 -26zM64 0v713h165v-713h-165z" />
    <glyph glyph-name="Eth" unicode="&#xd0;" horiz-adv-x="711" 
d="M548 648c42.667 -30.667 74.5 -70.832 95.5 -120.499s31.5 -106.834 31.5 -171.501s-10.5 -121.667 -31.5 -171s-52.833 -89.333 -95.5 -120c-30 -21.333 -65.5 -37.5 -106.5 -48.5s-91.5 -16.5 -151.5 -16.5h-226v309h-74v95h74v309h226c60 0 110.5 -5.5 151.5 -16.5
s76.5 -27.167 106.5 -48.5zM432 182.002c26 17.333 45.499 40.833 58.499 70.5s19.5 64.167 19.5 103.5c0 40 -6.5 74.833 -19.5 104.5s-32.5 53.167 -58.5 70.5c-36 24.667 -83.667 37 -143 37h-60v-164h113v-95h-113v-165h60c30.667 0 57.834 3.33301 81.501 10
s44.167 16 61.5 28z" />
    <glyph glyph-name="Ntilde" unicode="&#xd1;" horiz-adv-x="785" 
d="M327 811c-10 0 -16.833 -6.16602 -20.5 -18.499s-5.5 -26.833 -5.5 -43.5h-75c0 42.667 9.66699 77.667 29 105s46.333 41 81 41c23.333 0 41.333 -4.66699 54 -14s23.334 -19 32.001 -29c6 -7.33301 12 -13.333 18 -18s13 -7 21 -7c10 0 16.5 6 19.5 18
s4.5 26.667 4.5 44h76c0 -20.667 -2.33301 -39.834 -7 -57.501s-11.5 -33 -20.5 -46s-20.333 -23.333 -34 -31s-29.5 -11.5 -47.5 -11.5c-24 0 -42.333 4.66699 -55 14s-23 19 -31 29c-6 6.66699 -11.833 12.5 -17.5 17.5s-12.834 7.5 -21.501 7.5zM556 713.001h165v-713
h-198l-294 480v-480h-165v713h195l297 -479v479z" />
    <glyph glyph-name="Ograve" unicode="&#xd2;" horiz-adv-x="801" 
d="M332 743l-114 138h167l85 -138h-138zM401 -14c-54 0 -103.5 9 -148.5 27s-83.667 43.167 -116 75.5s-57.666 71.333 -75.999 117s-27.5 95.834 -27.5 150.501c0 55.333 9.16699 105.666 27.5 150.999s43.666 84.333 75.999 117s71 58 116 76s94.5 27 148.5 27
c53.333 0 102.5 -9 147.5 -27s83.833 -43.333 116.5 -76s58 -71.667 76 -117s27 -95.666 27 -150.999c0 -54.667 -9 -104.834 -27 -150.501s-43.333 -84.667 -76 -117s-71.5 -57.5 -116.5 -75.5s-94.167 -27 -147.5 -27zM401 137c29.333 0 56.333 5.16699 81 15.5
s46 25.166 64 44.499s32 42.5 42 69.5s15 56.833 15 89.5c0 33.333 -5 63.5 -15 90.5s-24 50 -42 69s-39.333 33.833 -64 44.5s-51.667 16 -81 16s-56.5 -5.33301 -81.5 -16s-46.5 -25.5 -64.5 -44.5s-32 -42 -42 -69s-15 -57.167 -15 -90.5c0 -32.667 5 -62.5 15 -89.5
s24 -50.167 42 -69.5s39.5 -34.166 64.5 -44.499s52.167 -15.5 81.5 -15.5z" />
    <glyph glyph-name="Oacute" unicode="&#xd3;" horiz-adv-x="801" 
d="M332 743l85 138h167l-114 -138h-138zM401 -14c-54 0 -103.5 9 -148.5 27s-83.667 43.167 -116 75.5s-57.666 71.333 -75.999 117s-27.5 95.834 -27.5 150.501c0 55.333 9.16699 105.666 27.5 150.999s43.666 84.333 75.999 117s71 58 116 76s94.5 27 148.5 27
c53.333 0 102.5 -9 147.5 -27s83.833 -43.333 116.5 -76s58 -71.667 76 -117s27 -95.666 27 -150.999c0 -54.667 -9 -104.834 -27 -150.501s-43.333 -84.667 -76 -117s-71.5 -57.5 -116.5 -75.5s-94.167 -27 -147.5 -27zM401 137c29.333 0 56.333 5.16699 81 15.5
s46 25.166 64 44.499s32 42.5 42 69.5s15 56.833 15 89.5c0 33.333 -5 63.5 -15 90.5s-24 50 -42 69s-39.333 33.833 -64 44.5s-51.667 16 -81 16s-56.5 -5.33301 -81.5 -16s-46.5 -25.5 -64.5 -44.5s-32 -42 -42 -69s-15 -57.167 -15 -90.5c0 -32.667 5 -62.5 15 -89.5
s24 -50.167 42 -69.5s39.5 -34.166 64.5 -44.499s52.167 -15.5 81.5 -15.5z" />
    <glyph glyph-name="Ocircumflex" unicode="&#xd4;" horiz-adv-x="801" 
d="M215 745l96 136h179l96 -136h-130l-55 65l-56 -65h-130zM401 -14c-54 0 -103.5 9 -148.5 27s-83.667 43.167 -116 75.5s-57.666 71.333 -75.999 117s-27.5 95.834 -27.5 150.501c0 55.333 9.16699 105.666 27.5 150.999s43.666 84.333 75.999 117s71 58 116 76
s94.5 27 148.5 27c53.333 0 102.5 -9 147.5 -27s83.833 -43.333 116.5 -76s58 -71.667 76 -117s27 -95.666 27 -150.999c0 -54.667 -9 -104.834 -27 -150.501s-43.333 -84.667 -76 -117s-71.5 -57.5 -116.5 -75.5s-94.167 -27 -147.5 -27zM401 137
c29.333 0 56.333 5.16699 81 15.5s46 25.166 64 44.499s32 42.5 42 69.5s15 56.833 15 89.5c0 33.333 -5 63.5 -15 90.5s-24 50 -42 69s-39.333 33.833 -64 44.5s-51.667 16 -81 16s-56.5 -5.33301 -81.5 -16s-46.5 -25.5 -64.5 -44.5s-32 -42 -42 -69
s-15 -57.167 -15 -90.5c0 -32.667 5 -62.5 15 -89.5s24 -50.167 42 -69.5s39.5 -34.166 64.5 -44.499s52.167 -15.5 81.5 -15.5z" />
    <glyph glyph-name="Otilde" unicode="&#xd5;" horiz-adv-x="801" 
d="M459 743c-24 0 -42.333 4.66797 -55 14.001s-23 19 -31 29c-6 6.66699 -11.833 12.5 -17.5 17.5s-12.834 7.5 -21.501 7.5c-10 0 -16.833 -6.16699 -20.5 -18.5s-5.5 -26.833 -5.5 -43.5h-75c0 42.667 9.66699 77.667 29 105s46.333 41 81 41
c23.333 0 41.333 -4.66699 54 -14s23.334 -19 32.001 -29c6 -7.33301 12 -13.333 18 -18s13 -7 21 -7c10 0 16.5 6 19.5 18s4.5 26.667 4.5 44h76c0 -20.667 -2.33301 -39.834 -7 -57.501s-11.5 -33 -20.5 -46s-20.333 -23.333 -34 -31s-29.5 -11.5 -47.5 -11.5z
M401 -13.999c-54 0 -103.5 9 -148.5 27s-83.667 43.167 -116 75.5s-57.666 71.333 -75.999 117s-27.5 95.834 -27.5 150.501c0 55.333 9.16699 105.666 27.5 150.999s43.666 84.333 75.999 117s71 58 116 76s94.5 27 148.5 27c53.333 0 102.5 -9 147.5 -27
s83.833 -43.333 116.5 -76s58 -71.667 76 -117s27 -95.666 27 -150.999c0 -54.667 -9 -104.834 -27 -150.501s-43.333 -84.667 -76 -117s-71.5 -57.5 -116.5 -75.5s-94.167 -27 -147.5 -27zM401 137.001c29.333 0 56.333 5.16699 81 15.5s46 25.166 64 44.499
s32 42.5 42 69.5s15 56.833 15 89.5c0 33.333 -5 63.5 -15 90.5s-24 50 -42 69s-39.333 33.833 -64 44.5s-51.667 16 -81 16s-56.5 -5.33301 -81.5 -16s-46.5 -25.5 -64.5 -44.5s-32 -42 -42 -69s-15 -57.167 -15 -90.5c0 -32.667 5 -62.5 15 -89.5s24 -50.167 42 -69.5
s39.5 -34.166 64.5 -44.499s52.167 -15.5 81.5 -15.5z" />
    <glyph glyph-name="Odieresis" unicode="&#xd6;" horiz-adv-x="801" 
d="M292 748c-24.667 0 -45.667 8.66699 -63 26s-26 38.333 -26 63c0 24 8.66699 44.667 26 62s38.333 26 63 26c24 0 44.667 -8.66699 62 -26s26 -38 26 -62c0 -24.667 -8.66699 -45.667 -26 -63s-38 -26 -62 -26zM510 748c-24.667 0 -45.667 8.66699 -63 26
s-26 38.333 -26 63c0 24 8.66699 44.667 26 62s38.333 26 63 26c24 0 44.667 -8.66699 62 -26s26 -38 26 -62c0 -24.667 -8.66699 -45.667 -26 -63s-38 -26 -62 -26zM401 -14c-54 0 -103.5 9 -148.5 27s-83.667 43.167 -116 75.5s-57.666 71.333 -75.999 117
s-27.5 95.834 -27.5 150.501c0 55.333 9.16699 105.666 27.5 150.999s43.666 84.333 75.999 117s71 58 116 76s94.5 27 148.5 27c53.333 0 102.5 -9 147.5 -27s83.833 -43.333 116.5 -76s58 -71.667 76 -117s27 -95.666 27 -150.999c0 -54.667 -9 -104.834 -27 -150.501
s-43.333 -84.667 -76 -117s-71.5 -57.5 -116.5 -75.5s-94.167 -27 -147.5 -27zM401 137c29.333 0 56.333 5.16699 81 15.5s46 25.166 64 44.499s32 42.5 42 69.5s15 56.833 15 89.5c0 33.333 -5 63.5 -15 90.5s-24 50 -42 69s-39.333 33.833 -64 44.5s-51.667 16 -81 16
s-56.5 -5.33301 -81.5 -16s-46.5 -25.5 -64.5 -44.5s-32 -42 -42 -69s-15 -57.167 -15 -90.5c0 -32.667 5 -62.5 15 -89.5s24 -50.167 42 -69.5s39.5 -34.166 64.5 -44.499s52.167 -15.5 81.5 -15.5z" />
    <glyph glyph-name="multiply" unicode="&#xd7;" horiz-adv-x="540" 
d="M138 41l-83 84l132 131l-132 132l83 83l132 -131l132 131l83 -83l-132 -132l132 -131l-83 -84l-132 132z" />
    <glyph glyph-name="Oslash" unicode="&#xd8;" horiz-adv-x="801" 
d="M643 644c39.333 -33.333 70 -74.332 92 -122.999s33 -103.667 33 -165c0 -54.667 -9 -104.834 -27 -150.501s-43.333 -84.667 -76 -117s-71.5 -57.5 -116.5 -75.5s-94.167 -27 -147.5 -27c-34.667 0 -67.5 3.83301 -98.5 11.5s-60.167 18.5 -87.5 32.5l-56 -81l-60 35
l59 85c-39.333 32.667 -70 73.334 -92 122.001s-33 103.667 -33 165c0 55.333 9.16699 105.666 27.5 150.999s43.666 84.333 75.999 117s71 58 116 76s94.5 27 148.5 27c34.667 0 67.334 -3.83301 98.001 -11.5s59.667 -18.5 87 -32.5l56 81l60 -35zM198 356.001
c0 -32 4.5 -60.833 13.5 -86.5s22.167 -48.167 39.5 -67.5l245 352c-29.333 14.667 -61 22 -95 22c-29.333 0 -56.5 -5.33301 -81.5 -16s-46.5 -25.5 -64.5 -44.5s-32 -42 -42 -69s-15 -57.167 -15 -90.5zM401 137.001c29.333 0 56.333 5.16797 81 15.501
s46 25.166 64 44.499s32 42.5 42 69.5s15 56.833 15 89.5c0 32 -4.66699 61 -14 87s-22.333 48.667 -39 68l-245 -352c29.333 -14.667 61.333 -22 96 -22z" />
    <glyph glyph-name="Ugrave" unicode="&#xd9;" horiz-adv-x="688" 
d="M274 743l-114 138h167l85 -138h-138zM344 -14c-40.667 0 -78.5 5.33301 -113.5 16s-65.5 27 -91.5 49s-46.333 50 -61 84s-22 74.333 -22 121v457h165v-436c0 -26 3.16699 -48.167 9.5 -66.5s15 -33 26 -44s24 -19 39 -24s31.167 -7.5 48.5 -7.5s33.5 2.5 48.5 7.5
s28 13 39 24s19.667 25.667 26 44s9.5 40.5 9.5 66.5v436h165v-457c0 -46.667 -7.33301 -87 -22 -121s-35 -62 -61 -84s-56.5 -38.333 -91.5 -49s-72.833 -16 -113.5 -16z" />
    <glyph glyph-name="Uacute" unicode="&#xda;" horiz-adv-x="688" 
d="M274 743l85 138h167l-114 -138h-138zM344 -14c-40.667 0 -78.5 5.33301 -113.5 16s-65.5 27 -91.5 49s-46.333 50 -61 84s-22 74.333 -22 121v457h165v-436c0 -26 3.16699 -48.167 9.5 -66.5s15 -33 26 -44s24 -19 39 -24s31.167 -7.5 48.5 -7.5s33.5 2.5 48.5 7.5
s28 13 39 24s19.667 25.667 26 44s9.5 40.5 9.5 66.5v436h165v-457c0 -46.667 -7.33301 -87 -22 -121s-35 -62 -61 -84s-56.5 -38.333 -91.5 -49s-72.833 -16 -113.5 -16z" />
    <glyph glyph-name="Ucircumflex" unicode="&#xdb;" horiz-adv-x="688" 
d="M157 745l96 136h179l96 -136h-130l-55 65l-56 -65h-130zM344 -14c-40.667 0 -78.5 5.33301 -113.5 16s-65.5 27 -91.5 49s-46.333 50 -61 84s-22 74.333 -22 121v457h165v-436c0 -26 3.16699 -48.167 9.5 -66.5s15 -33 26 -44s24 -19 39 -24s31.167 -7.5 48.5 -7.5
s33.5 2.5 48.5 7.5s28 13 39 24s19.667 25.667 26 44s9.5 40.5 9.5 66.5v436h165v-457c0 -46.667 -7.33301 -87 -22 -121s-35 -62 -61 -84s-56.5 -38.333 -91.5 -49s-72.833 -16 -113.5 -16z" />
    <glyph glyph-name="Udieresis" unicode="&#xdc;" horiz-adv-x="688" 
d="M234 748c-24.667 0 -45.667 8.66699 -63 26s-26 38.333 -26 63c0 24 8.66699 44.667 26 62s38.333 26 63 26c24 0 44.667 -8.66699 62 -26s26 -38 26 -62c0 -24.667 -8.66699 -45.667 -26 -63s-38 -26 -62 -26zM452 748c-24.667 0 -45.667 8.66699 -63 26
s-26 38.333 -26 63c0 24 8.66699 44.667 26 62s38.333 26 63 26c24 0 44.667 -8.66699 62 -26s26 -38 26 -62c0 -24.667 -8.66699 -45.667 -26 -63s-38 -26 -62 -26zM344 -14c-40.667 0 -78.5 5.33301 -113.5 16s-65.5 27 -91.5 49s-46.333 50 -61 84s-22 74.333 -22 121
v457h165v-436c0 -26 3.16699 -48.167 9.5 -66.5s15 -33 26 -44s24 -19 39 -24s31.167 -7.5 48.5 -7.5s33.5 2.5 48.5 7.5s28 13 39 24s19.667 25.667 26 44s9.5 40.5 9.5 66.5v436h165v-457c0 -46.667 -7.33301 -87 -22 -121s-35 -62 -61 -84s-56.5 -38.333 -91.5 -49
s-72.833 -16 -113.5 -16z" />
    <glyph glyph-name="Yacute" unicode="&#xdd;" horiz-adv-x="636" 
d="M501 881l-114 -138h-138l85 138h167zM637 713l-236 -373v-340h-165v335l-239 378h182l139 -230l139 230h180z" />
    <glyph glyph-name="Thorn" unicode="&#xde;" horiz-adv-x="607" 
d="M517 557c20.667 -17.333 36.833 -39.832 48.5 -67.499s17.5 -60.834 17.5 -99.501c0 -45.333 -8.66699 -86.833 -26 -124.5s-44.333 -66.5 -81 -86.5c-14 -8 -28.833 -14 -44.5 -18s-31.167 -7 -46.5 -9s-30 -3.16699 -44 -3.5s-26.667 -0.5 -38 -0.5h-74v-148h-165v713
h165v-99h74c96.667 0 168 -19 214 -57zM386.999 306.001c20.667 14.667 30.999 39.3359 30.999 74.0029c0 18.667 -2.83301 34.167 -8.5 46.5s-13.5 22.166 -23.5 29.499c-14 9.33301 -30.833 15.166 -50.5 17.499s-38.167 3.5 -55.5 3.5h-51v-192h51
c8 0 16.833 0.166992 26.5 0.5s19.334 1.16602 29.001 2.49902s19 3.5 28 6.5s16.833 6.83301 23.5 11.5z" />
    <glyph glyph-name="germandbls" unicode="&#xdf;" horiz-adv-x="728" 
d="M488 -10c-30.667 0 -59.4961 2.83496 -86.4961 8.50195s-51.333 14.334 -73 26.001s-39.667 26.5 -54 44.5s-23.833 39.333 -28.5 64l131 36c8.66699 -26.667 21.667 -45.167 39 -55.5s37.666 -15.5 60.999 -15.5c18.667 0 35.5 3.16699 50.5 9.5
s22.5 18.166 22.5 35.499c0 10 -3 18.5 -9 25.5s-13.833 12.667 -23.5 17s-20.5 8 -32.5 11s-24.333 5.83301 -37 8.5c-28.667 6 -54.167 12.667 -76.5 20s-40.833 16.666 -55.5 27.999s-25.834 25.166 -33.501 41.499s-11.5 36.5 -11.5 60.5c0 26 4.33301 47.5 13 64.5
s19.834 31.167 33.501 42.5s28.667 20.5 45 27.5l47.5 19.5c21.333 9.33301 40 18.5 56 27.5s24 22.167 24 39.5s-9.33301 31.5 -28 42.5s-46.334 16.5 -83.001 16.5c-38.667 0 -69 -6.5 -91 -19.5s-38.333 -30 -49 -51s-17.167 -44.333 -19.5 -70s-3.5 -51.167 -3.5 -76.5
v-418h-158v444c0 59.333 8 109 24 149s38.333 72.5 67 97.5s62.5 42.833 101.5 53.5s81.833 16 128.5 16c40.667 0 77.167 -5 109.5 -15s59.666 -23.667 81.999 -41s39.333 -38.166 51 -62.499s17.5 -51.166 17.5 -80.499c0 -25.333 -4.33301 -46.166 -13 -62.499
s-19.834 -29.666 -33.501 -39.999s-28.5 -18.333 -44.5 -24s-31.667 -10.834 -47 -15.501c-19.333 -5.33301 -35.833 -11.333 -49.5 -18s-20.5 -16.667 -20.5 -30c0 -14.667 7.5 -24.834 22.5 -30.501s35.167 -11.5 60.5 -17.5c30 -6 56.667 -13 80 -21s43 -18.167 59 -30.5
s28.167 -27.333 36.5 -45s12.5 -39.5 12.5 -65.5c0 -30.667 -6 -56.834 -18 -78.501s-28 -39.334 -48 -53.001s-42.833 -23.667 -68.5 -30s-52.167 -9.5 -79.5 -9.5z" />
    <glyph glyph-name="agrave" unicode="&#xe0;" horiz-adv-x="579" 
d="M364 571h-139l-116 142h167zM522 91c0 -14.667 0.498047 -28.3311 1.49805 -40.998s4.16699 -24.667 9.5 -36v-14h-157l-6 61c-18 -25.333 -42.333 -43.5 -73 -54.5s-62 -16.5 -94 -16.5c-20 0 -40 2.33301 -60 7s-38.167 12.5 -54.5 23.5s-29.5 25.5 -39.5 43.5
s-15 40 -15 66c0 29.333 6 53.666 18 72.999s27.5 35.333 46.5 48s39.833 22.667 62.5 30s44.667 13.333 66 18l88 20c13.333 3.33301 24.833 7.5 34.5 12.5s14.5 13.833 14.5 26.5c0 19.333 -8.16699 32.666 -24.5 39.999s-34.166 11 -53.499 11
c-26 0 -47.5 -5.83301 -64.5 -17.5s-28.167 -29.5 -33.5 -53.5l-151 23c11.333 55.333 39.5 95.833 84.5 121.5s100.5 38.5 166.5 38.5c76.667 0 134.834 -16 174.501 -48s59.5 -79 59.5 -141v-241zM249.998 98.0029c14 0 28.332 2.99902 42.999 8.99902s28 14.833 40 26.5
s21.667 26.334 29 44.001s11 38.167 11 61.5l-121 -34c-13.333 -3.33301 -26.5 -9 -39.5 -17s-19.5 -21.667 -19.5 -41c0 -16.667 5.33301 -29 16 -37s24.334 -12 41.001 -12z" />
    <glyph glyph-name="aacute" unicode="&#xe1;" horiz-adv-x="579" 
d="M478 713l-117 -142h-138l87 142h168zM522 91c0 -14.667 0.498047 -28.3311 1.49805 -40.998s4.16699 -24.667 9.5 -36v-14h-157l-6 61c-18 -25.333 -42.333 -43.5 -73 -54.5s-62 -16.5 -94 -16.5c-20 0 -40 2.33301 -60 7s-38.167 12.5 -54.5 23.5s-29.5 25.5 -39.5 43.5
s-15 40 -15 66c0 29.333 6 53.666 18 72.999s27.5 35.333 46.5 48s39.833 22.667 62.5 30s44.667 13.333 66 18l88 20c13.333 3.33301 24.833 7.5 34.5 12.5s14.5 13.833 14.5 26.5c0 19.333 -8.16699 32.666 -24.5 39.999s-34.166 11 -53.499 11
c-26 0 -47.5 -5.83301 -64.5 -17.5s-28.167 -29.5 -33.5 -53.5l-151 23c11.333 55.333 39.5 95.833 84.5 121.5s100.5 38.5 166.5 38.5c76.667 0 134.834 -16 174.501 -48s59.5 -79 59.5 -141v-241zM249.998 98.0029c14 0 28.332 2.99902 42.999 8.99902s28 14.833 40 26.5
s21.667 26.334 29 44.001s11 38.167 11 61.5l-121 -34c-13.333 -3.33301 -26.5 -9 -39.5 -17s-19.5 -21.667 -19.5 -41c0 -16.667 5.33301 -29 16 -37s24.334 -12 41.001 -12z" />
    <glyph glyph-name="acircumflex" unicode="&#xe2;" horiz-adv-x="579" 
d="M293 640l-55 -69h-130l96 142h178l96 -142h-130zM522 91c0 -14.667 0.498047 -28.3311 1.49805 -40.998s4.16699 -24.667 9.5 -36v-14h-157l-6 61c-18 -25.333 -42.333 -43.5 -73 -54.5s-62 -16.5 -94 -16.5c-20 0 -40 2.33301 -60 7s-38.167 12.5 -54.5 23.5
s-29.5 25.5 -39.5 43.5s-15 40 -15 66c0 29.333 6 53.666 18 72.999s27.5 35.333 46.5 48s39.833 22.667 62.5 30s44.667 13.333 66 18l88 20c13.333 3.33301 24.833 7.5 34.5 12.5s14.5 13.833 14.5 26.5c0 19.333 -8.16699 32.666 -24.5 39.999s-34.166 11 -53.499 11
c-26 0 -47.5 -5.83301 -64.5 -17.5s-28.167 -29.5 -33.5 -53.5l-151 23c11.333 55.333 39.5 95.833 84.5 121.5s100.5 38.5 166.5 38.5c76.667 0 134.834 -16 174.501 -48s59.5 -79 59.5 -141v-241zM249.998 98.0029c14 0 28.332 2.99902 42.999 8.99902s28 14.833 40 26.5
s21.667 26.334 29 44.001s11 38.167 11 61.5l-121 -34c-13.333 -3.33301 -26.5 -9 -39.5 -17s-19.5 -21.667 -19.5 -41c0 -16.667 5.33301 -29 16 -37s24.334 -12 41.001 -12z" />
    <glyph glyph-name="atilde" unicode="&#xe3;" horiz-adv-x="579" 
d="M226 631c-10 0 -16.833 -6.16602 -20.5 -18.499s-5.5 -26.5 -5.5 -42.5h-75c0 42 9.66699 76.833 29 104.5s46.333 41.5 81 41.5c23.333 0 41.333 -4.83301 54 -14.5s23.334 -19.5 32.001 -29.5c6 -7.33301 12 -13.333 18 -18s13 -7 21 -7c10 0 16.5 6 19.5 18
s4.5 26.667 4.5 44h76c0 -20.667 -2.33301 -39.834 -7 -57.501s-11.5 -33 -20.5 -46s-20.333 -23.333 -34 -31s-29.5 -11.5 -47.5 -11.5c-24 0 -42.333 4.83301 -55 14.5s-23 19.167 -31 28.5c-6 7.33301 -11.833 13.333 -17.5 18s-12.834 7 -21.501 7zM522 91.001
c0 -14.667 0.498047 -28.3311 1.49805 -40.998s4.16699 -24.667 9.5 -36v-14h-157l-6 61c-18 -25.333 -42.333 -43.5 -73 -54.5s-62 -16.5 -94 -16.5c-20 0 -40 2.33301 -60 7s-38.167 12.5 -54.5 23.5s-29.5 25.5 -39.5 43.5s-15 40 -15 66c0 29.333 6 53.666 18 72.999
s27.5 35.333 46.5 48s39.833 22.667 62.5 30s44.667 13.333 66 18l88 20c13.333 3.33301 24.833 7.5 34.5 12.5s14.5 13.833 14.5 26.5c0 19.333 -8.16699 32.666 -24.5 39.999s-34.166 11 -53.499 11c-26 0 -47.5 -5.83301 -64.5 -17.5s-28.167 -29.5 -33.5 -53.5l-151 23
c11.333 55.333 39.5 95.833 84.5 121.5s100.5 38.5 166.5 38.5c76.667 0 134.834 -16 174.501 -48s59.5 -79 59.5 -141v-241zM249.998 98.0039c14 0 28.332 2.99902 42.999 8.99902s28 14.833 40 26.5s21.667 26.334 29 44.001s11 38.167 11 61.5l-121 -34
c-13.333 -3.33301 -26.5 -9 -39.5 -17s-19.5 -21.667 -19.5 -41c0 -16.667 5.33301 -29 16 -37s24.334 -12 41.001 -12z" />
    <glyph glyph-name="adieresis" unicode="&#xe4;" horiz-adv-x="579" 
d="M184 574c-24.667 0 -45.667 8.66699 -63 26s-26 38.333 -26 63c0 24 8.66699 44.667 26 62s38.333 26 63 26c24 0 44.667 -8.66699 62 -26s26 -38 26 -62c0 -24.667 -8.66699 -45.667 -26 -63s-38 -26 -62 -26zM402 574c-24.667 0 -45.667 8.66699 -63 26
s-26 38.333 -26 63c0 24 8.66699 44.667 26 62s38.333 26 63 26c24 0 44.667 -8.66699 62 -26s26 -38 26 -62c0 -24.667 -8.66699 -45.667 -26 -63s-38 -26 -62 -26zM522 91c0 -14.667 0.498047 -28.3311 1.49805 -40.998s4.16699 -24.667 9.5 -36v-14h-157l-6 61
c-18 -25.333 -42.333 -43.5 -73 -54.5s-62 -16.5 -94 -16.5c-20 0 -40 2.33301 -60 7s-38.167 12.5 -54.5 23.5s-29.5 25.5 -39.5 43.5s-15 40 -15 66c0 29.333 6 53.666 18 72.999s27.5 35.333 46.5 48s39.833 22.667 62.5 30s44.667 13.333 66 18l88 20
c13.333 3.33301 24.833 7.5 34.5 12.5s14.5 13.833 14.5 26.5c0 19.333 -8.16699 32.666 -24.5 39.999s-34.166 11 -53.499 11c-26 0 -47.5 -5.83301 -64.5 -17.5s-28.167 -29.5 -33.5 -53.5l-151 23c11.333 55.333 39.5 95.833 84.5 121.5s100.5 38.5 166.5 38.5
c76.667 0 134.834 -16 174.501 -48s59.5 -79 59.5 -141v-241zM249.998 98.0029c14 0 28.332 2.99902 42.999 8.99902s28 14.833 40 26.5s21.667 26.334 29 44.001s11 38.167 11 61.5l-121 -34c-13.333 -3.33301 -26.5 -9 -39.5 -17s-19.5 -21.667 -19.5 -41
c0 -16.667 5.33301 -29 16 -37s24.334 -12 41.001 -12z" />
    <glyph glyph-name="aring" unicode="&#xe5;" horiz-adv-x="579" 
d="M293 562c-39.333 0 -70.334 12 -93.001 36s-34 53.333 -34 88c0 16.667 2.83301 32.334 8.5 47.001s14 27.5 25 38.5s24.333 19.833 40 26.5s33.5 10 53.5 10c19.333 0 36.833 -3.33301 52.5 -10s29 -15.5 40 -26.5s19.333 -23.833 25 -38.5s8.5 -30.334 8.5 -47.001
c0 -34.667 -11.167 -64 -33.5 -88s-53.166 -36 -92.499 -36zM292.999 734c-13.333 0 -24.833 -4.16699 -34.5 -12.5s-14.5 -20.166 -14.5 -35.499s4.83301 -27.333 14.5 -36s21.167 -13 34.5 -13c14 0 25.833 4.33301 35.5 13s14.5 20.667 14.5 36
s-4.83301 27.166 -14.5 35.499s-21.5 12.5 -35.5 12.5zM521.999 91c0 -14.667 0.498047 -28.3311 1.49805 -40.998s4.16699 -24.667 9.5 -36v-14h-157l-6 61c-18 -25.333 -42.333 -43.5 -73 -54.5s-62 -16.5 -94 -16.5c-20 0 -40 2.33301 -60 7s-38.167 12.5 -54.5 23.5
s-29.5 25.5 -39.5 43.5s-15 40 -15 66c0 29.333 6 53.666 18 72.999s27.5 35.333 46.5 48s39.833 22.667 62.5 30s44.667 13.333 66 18l88 20c13.333 3.33301 24.833 7.5 34.5 12.5s14.5 13.833 14.5 26.5c0 19.333 -8.16699 32.666 -24.5 39.999s-34.166 11 -53.499 11
c-26 0 -47.5 -5.83301 -64.5 -17.5s-28.167 -29.5 -33.5 -53.5l-151 23c11.333 55.333 39.5 95.833 84.5 121.5s100.5 38.5 166.5 38.5c76.667 0 134.834 -16 174.501 -48s59.5 -79 59.5 -141v-241zM249.997 98.0029c14 0 28.332 2.99902 42.999 8.99902s28 14.833 40 26.5
s21.667 26.334 29 44.001s11 38.167 11 61.5l-121 -34c-13.333 -3.33301 -26.5 -9 -39.5 -17s-19.5 -21.667 -19.5 -41c0 -16.667 5.33301 -29 16 -37s24.334 -12 41.001 -12z" />
    <glyph glyph-name="ae" unicode="&#xe6;" horiz-adv-x="919" 
d="M879 224l-376.002 0.00292969c3.33301 -36.667 16.5 -64.334 39.5 -83.001s50.5 -28 82.5 -28c24 0 44.667 5.16699 62 15.5s30.666 26.166 39.999 47.499l146 -20c-16.667 -53.333 -47 -94.333 -91 -123s-96 -43 -156 -43c-46.667 0 -88.334 7 -125.001 21
s-67 34.333 -91 61c-27.333 -27.333 -58.5 -47.833 -93.5 -61.5s-72.5 -20.5 -112.5 -20.5c-22.667 0 -44.167 2.5 -64.5 7.5s-38 13 -53 24s-27 25.167 -36 42.5s-13.5 38.666 -13.5 63.999c0 28.667 5.66699 52.5 17 71.5s26.333 34.667 45 47s40 22.166 64 29.499
s48.333 13.666 73 18.999l72 16c19.333 4 32.333 9.33301 39 16s10 15.334 10 26.001c0 23.333 -8.5 39.333 -25.5 48s-35.833 13 -56.5 13c-25.333 0 -46.666 -6 -63.999 -18s-27.666 -34 -30.999 -66l-140 21c10.667 59.333 35.834 102.333 75.501 129
s96.834 40 171.501 40c30 0 59.333 -3 88 -9s53.334 -18.667 74.001 -38c47.333 32 104.333 48 171 48c37.333 0 71.833 -5.16699 103.5 -15.5s59.167 -26.166 82.5 -47.499s41.666 -48.333 54.999 -81s20 -71.667 20 -117zM620.998 404.003
c-30.667 0 -55.666 -6.66699 -74.999 -20s-32.333 -34.666 -39 -63.999h218c-4.66699 27.333 -16.334 48.166 -35.001 62.499s-41.667 21.5 -69 21.5zM248.999 112.003c19.333 0 39.5 4.66895 60.5 14.002s36.5 24.333 46.5 45c-4 17.333 -7 34.666 -9 51.999l-88 -21
c-22 -5.33301 -38.833 -11.833 -50.5 -19.5s-17.5 -17.834 -17.5 -30.501c0 -13.333 5.33301 -23.333 16 -30s24.667 -10 42 -10z" />
    <glyph glyph-name="ccedilla" unicode="&#xe7;" horiz-adv-x="603" 
d="M313 113c29.333 0 53.5 7.00586 72.5 21.0059s32.167 35.667 39.5 65l145 -14c-10 -58.667 -35.667 -104.5 -77 -137.5s-91.666 -51.833 -150.999 -56.5l-29 -42c10 2 19 3 27 3c28 0 50.333 -8.5 67 -25.5s25 -39.167 25 -66.5c0 -30 -10.667 -55.5 -32 -76.5
s-49.666 -31.5 -84.999 -31.5c-38 0 -67.333 7.16699 -88 21.5s-34.334 32.166 -41.001 53.499l86 23c3.33301 -9.33301 8.66602 -16.333 15.999 -21s15.333 -7 24 -7c10.667 0 20 3.33301 28 10s12 16 12 28c0 13.333 -4 23.166 -12 29.499s-17.333 9.5 -28 9.5
c-15.333 0 -27 -5.66699 -35 -17l-73 31l50 82c-33.333 6 -63.5 16.5 -90.5 31.5s-50.167 33.667 -69.5 56s-34.166 48.166 -44.499 77.499s-15.5 61.333 -15.5 96c0 39.333 6.83301 75.166 20.5 107.499s32.834 60.166 57.501 83.499s54.167 41.5 88.5 54.5
s72.166 19.5 113.499 19.5c68.667 0 125.667 -16.833 171 -50.5s73.666 -81.834 84.999 -144.501l-145 -14c-7.33301 30 -20.5 51.667 -39.5 65s-43.167 20 -72.5 20c-38 0 -67.667 -13 -89 -39s-32 -60 -32 -102s10.667 -76.333 32 -103s51 -40 89 -40z" />
    <glyph glyph-name="egrave" unicode="&#xe8;" horiz-adv-x="604" 
d="M383 572h-139l-116 142h167zM566 224l-375.994 0.000976562c3.33301 -36.667 16.5 -64.334 39.5 -83.001s50.5 -28 82.5 -28c24.667 0 45.667 5.16699 63 15.5s30.333 26.166 39 47.499l146 -20c-16.667 -53.333 -46.834 -94.333 -90.501 -123s-95.834 -43 -156.501 -43
c-42.667 0 -81.334 6 -116.001 18s-64.167 29.333 -88.5 52s-43 50.5 -56 83.5s-19.5 70.167 -19.5 111.5c0 42 6.66699 79.333 20 112s32.166 60.5 56.499 83.5s53.333 40.5 87 52.5s70.834 18 111.501 18c37.333 0 71.666 -5.16699 102.999 -15.5
s58.666 -26.166 81.999 -47.499s41.666 -48.333 54.999 -81s20 -71.667 20 -117zM309.006 404.001c-31.333 0 -56.665 -6.66699 -75.998 -20s-32.333 -34.666 -39 -63.999h218c-4.66699 27.333 -16.334 48.166 -35.001 62.499s-41.334 21.5 -68.001 21.5z" />
    <glyph glyph-name="eacute" unicode="&#xe9;" horiz-adv-x="604" 
d="M497 714l-117 -142h-138l87 142h168zM566 224l-375.994 0.000976562c3.33301 -36.667 16.5 -64.334 39.5 -83.001s50.5 -28 82.5 -28c24.667 0 45.667 5.16699 63 15.5s30.333 26.166 39 47.499l146 -20c-16.667 -53.333 -46.834 -94.333 -90.501 -123
s-95.834 -43 -156.501 -43c-42.667 0 -81.334 6 -116.001 18s-64.167 29.333 -88.5 52s-43 50.5 -56 83.5s-19.5 70.167 -19.5 111.5c0 42 6.66699 79.333 20 112s32.166 60.5 56.499 83.5s53.333 40.5 87 52.5s70.834 18 111.501 18
c37.333 0 71.666 -5.16699 102.999 -15.5s58.666 -26.166 81.999 -47.499s41.666 -48.333 54.999 -81s20 -71.667 20 -117zM309.006 404.001c-31.333 0 -56.665 -6.66699 -75.998 -20s-32.333 -34.666 -39 -63.999h218c-4.66699 27.333 -16.334 48.166 -35.001 62.499
s-41.334 21.5 -68.001 21.5z" />
    <glyph glyph-name="ecircumflex" unicode="&#xea;" horiz-adv-x="604" 
d="M312 641l-55 -69h-130l96 142h178l96 -142h-130zM566 224l-375.994 0.000976562c3.33301 -36.667 16.5 -64.334 39.5 -83.001s50.5 -28 82.5 -28c24.667 0 45.667 5.16699 63 15.5s30.333 26.166 39 47.499l146 -20c-16.667 -53.333 -46.834 -94.333 -90.501 -123
s-95.834 -43 -156.501 -43c-42.667 0 -81.334 6 -116.001 18s-64.167 29.333 -88.5 52s-43 50.5 -56 83.5s-19.5 70.167 -19.5 111.5c0 42 6.66699 79.333 20 112s32.166 60.5 56.499 83.5s53.333 40.5 87 52.5s70.834 18 111.501 18
c37.333 0 71.666 -5.16699 102.999 -15.5s58.666 -26.166 81.999 -47.499s41.666 -48.333 54.999 -81s20 -71.667 20 -117zM309.006 404.001c-31.333 0 -56.665 -6.66699 -75.998 -20s-32.333 -34.666 -39 -63.999h218c-4.66699 27.333 -16.334 48.166 -35.001 62.499
s-41.334 21.5 -68.001 21.5z" />
    <glyph glyph-name="edieresis" unicode="&#xeb;" horiz-adv-x="604" 
d="M203 575c-24.667 0 -45.667 8.66699 -63 26s-26 38.333 -26 63c0 24 8.66699 44.667 26 62s38.333 26 63 26c24 0 44.667 -8.66699 62 -26s26 -38 26 -62c0 -24.667 -8.66699 -45.667 -26 -63s-38 -26 -62 -26zM421 575c-24.667 0 -45.667 8.66699 -63 26
s-26 38.333 -26 63c0 24 8.66699 44.667 26 62s38.333 26 63 26c24 0 44.667 -8.66699 62 -26s26 -38 26 -62c0 -24.667 -8.66699 -45.667 -26 -63s-38 -26 -62 -26zM566 224l-375.994 0.000976562c3.33301 -36.667 16.5 -64.334 39.5 -83.001s50.5 -28 82.5 -28
c24.667 0 45.667 5.16699 63 15.5s30.333 26.166 39 47.499l146 -20c-16.667 -53.333 -46.834 -94.333 -90.501 -123s-95.834 -43 -156.501 -43c-42.667 0 -81.334 6 -116.001 18s-64.167 29.333 -88.5 52s-43 50.5 -56 83.5s-19.5 70.167 -19.5 111.5
c0 42 6.66699 79.333 20 112s32.166 60.5 56.499 83.5s53.333 40.5 87 52.5s70.834 18 111.501 18c37.333 0 71.666 -5.16699 102.999 -15.5s58.666 -26.166 81.999 -47.499s41.666 -48.333 54.999 -81s20 -71.667 20 -117zM309.006 404.001
c-31.333 0 -56.665 -6.66699 -75.998 -20s-32.333 -34.666 -39 -63.999h218c-4.66699 27.333 -16.334 48.166 -35.001 62.499s-41.334 21.5 -68.001 21.5z" />
    <glyph glyph-name="igrave" unicode="&#xec;" horiz-adv-x="272" 
d="M67 571l-116 142h167l88 -142h-139zM57 0v511h158v-511h-158z" />
    <glyph glyph-name="iacute" unicode="&#xed;" horiz-adv-x="272" 
d="M66 571l87 142h168l-117 -142h-138zM57 0v511h158v-511h-158z" />
    <glyph glyph-name="icircumflex" unicode="&#xee;" horiz-adv-x="272" 
d="M-49 571l96 142h178l96 -142h-130l-55 69l-55 -69h-130zM57 0v511h158v-511h-158z" />
    <glyph glyph-name="idieresis" unicode="&#xef;" horiz-adv-x="272" 
d="M27 574c-24.667 0 -45.667 8.66699 -63 26s-26 38.333 -26 63c0 24 8.66699 44.667 26 62s38.333 26 63 26c24 0 44.667 -8.66699 62 -26s26 -38 26 -62c0 -24.667 -8.66699 -45.667 -26 -63s-38 -26 -62 -26zM245 574c-24.667 0 -45.667 8.66699 -63 26
s-26 38.333 -26 63c0 24 8.66699 44.667 26 62s38.333 26 63 26c24 0 44.667 -8.66699 62 -26s26 -38 26 -62c0 -24.667 -8.66699 -45.667 -26 -63s-38 -26 -62 -26zM57 0v511h158v-511h-158z" />
    <glyph glyph-name="eth" unicode="&#xf0;" horiz-adv-x="600" 
d="M529 427c17.333 -22.667 31.166 -48.168 41.499 -76.501s15.5 -59.833 15.5 -94.5c0 -42 -7 -79.333 -21 -112s-33.667 -60.334 -59 -83.001s-55.5 -40.167 -90.5 -52.5s-73.5 -18.5 -115.5 -18.5s-80.5 6.16699 -115.5 18.5s-65.167 29.833 -90.5 52.5
s-45 50.334 -59 83.001s-21 70 -21 112c0 40 6.5 75.833 19.5 107.5s31.333 58.834 55 81.501s51.834 40.5 84.501 53.5s69 20.5 109 22.5l-64 81l-121 -31l-12 43l103 26l-86 110h177l56 -72l91 23l12 -44l-73 -18zM300 113.999c38.667 0 69.667 13.167 93 39.5
s35 60.5 35 102.5c0 41.333 -11.5 75 -34.5 101s-54.167 39 -93.5 39s-70.666 -13 -93.999 -39s-35 -59.667 -35 -101c0 -42 11.667 -76.167 35 -102.5s54.666 -39.5 93.999 -39.5z" />
    <glyph glyph-name="ntilde" unicode="&#xf1;" horiz-adv-x="628" 
d="M242 631c-10 0 -16.833 -6.16602 -20.5 -18.499s-5.5 -26.5 -5.5 -42.5h-75c0 42 9.66699 76.833 29 104.5s46.333 41.5 81 41.5c23.333 0 41.333 -4.83301 54 -14.5s23.334 -19.5 32.001 -29.5c6 -7.33301 12 -13.333 18 -18s13 -7 21 -7c10 0 16.5 6 19.5 18
s4.5 26.667 4.5 44h76c0 -20.667 -2.33301 -39.834 -7 -57.501s-11.5 -33 -20.5 -46s-20.333 -23.333 -34 -31s-29.5 -11.5 -47.5 -11.5c-24 0 -42.333 4.83301 -55 14.5s-23 19.167 -31 28.5c-6 7.33301 -11.833 13.333 -17.5 18s-12.834 7 -21.501 7zM378 521.001
c66 0 115.165 -15.668 147.498 -47.001s48.5 -75.333 48.5 -132v-342h-158v309c0 31.333 -8.66699 53.666 -26 66.999s-38.333 20 -63 20c-13.333 0 -26.166 -1.66699 -38.499 -5s-23.5 -9.16602 -33.5 -17.499s-18.5 -19.166 -25.5 -32.499s-11.5 -30 -13.5 -50v-291h-158
v511h149l6 -58c18.667 21.333 41.834 38 69.501 50s59.5 18 95.5 18z" />
    <glyph glyph-name="ograve" unicode="&#xf2;" horiz-adv-x="639" 
d="M253 571l-116 142h167l88 -142h-139zM320 -10c-42 0 -80.667 6.16699 -116 18.5s-65.5 29.833 -90.5 52.5s-44.5 50.334 -58.5 83.001s-21 70 -21 112c0 41.333 7 78.333 21 111s33.5 60.334 58.5 83.001s55.167 40.167 90.5 52.5s74 18.5 116 18.5
s80.5 -6.16699 115.5 -18.5s65 -29.833 90 -52.5s44.5 -50.334 58.5 -83.001s21 -69.667 21 -111c0 -42 -7 -79.333 -21 -112s-33.5 -60.334 -58.5 -83.001s-55 -40.167 -90 -52.5s-73.5 -18.5 -115.5 -18.5zM320 115c38.667 0 69.5 13 92.5 39s34.5 60 34.5 102
c0 41.333 -11.5 75 -34.5 101s-53.833 39 -92.5 39c-39.333 0 -70.5 -13 -93.5 -39s-34.5 -59.667 -34.5 -101c0 -42 11.5 -76 34.5 -102s54.167 -39 93.5 -39z" />
    <glyph glyph-name="oacute" unicode="&#xf3;" horiz-adv-x="639" 
d="M251 571l87 142h168l-117 -142h-138zM320 -10c-42 0 -80.667 6.16699 -116 18.5s-65.5 29.833 -90.5 52.5s-44.5 50.334 -58.5 83.001s-21 70 -21 112c0 41.333 7 78.333 21 111s33.5 60.334 58.5 83.001s55.167 40.167 90.5 52.5s74 18.5 116 18.5
s80.5 -6.16699 115.5 -18.5s65 -29.833 90 -52.5s44.5 -50.334 58.5 -83.001s21 -69.667 21 -111c0 -42 -7 -79.333 -21 -112s-33.5 -60.334 -58.5 -83.001s-55 -40.167 -90 -52.5s-73.5 -18.5 -115.5 -18.5zM320 115c38.667 0 69.5 13 92.5 39s34.5 60 34.5 102
c0 41.333 -11.5 75 -34.5 101s-53.833 39 -92.5 39c-39.333 0 -70.5 -13 -93.5 -39s-34.5 -59.667 -34.5 -101c0 -42 11.5 -76 34.5 -102s54.167 -39 93.5 -39z" />
    <glyph glyph-name="ocircumflex" unicode="&#xf4;" horiz-adv-x="639" 
d="M136 571l96 142h178l96 -142h-130l-55 69l-55 -69h-130zM320 -10c-42 0 -80.667 6.16699 -116 18.5s-65.5 29.833 -90.5 52.5s-44.5 50.334 -58.5 83.001s-21 70 -21 112c0 41.333 7 78.333 21 111s33.5 60.334 58.5 83.001s55.167 40.167 90.5 52.5s74 18.5 116 18.5
s80.5 -6.16699 115.5 -18.5s65 -29.833 90 -52.5s44.5 -50.334 58.5 -83.001s21 -69.667 21 -111c0 -42 -7 -79.333 -21 -112s-33.5 -60.334 -58.5 -83.001s-55 -40.167 -90 -52.5s-73.5 -18.5 -115.5 -18.5zM320 115c38.667 0 69.5 13 92.5 39s34.5 60 34.5 102
c0 41.333 -11.5 75 -34.5 101s-53.833 39 -92.5 39c-39.333 0 -70.5 -13 -93.5 -39s-34.5 -59.667 -34.5 -101c0 -42 11.5 -76 34.5 -102s54.167 -39 93.5 -39z" />
    <glyph glyph-name="otilde" unicode="&#xf5;" horiz-adv-x="639" 
d="M379 563c-24 0 -42.333 4.83398 -55 14.501s-23 19.167 -31 28.5c-6 7.33301 -11.833 13.333 -17.5 18s-12.834 7 -21.501 7c-10 0 -16.833 -6.16699 -20.5 -18.5s-5.5 -26.5 -5.5 -42.5h-75c0 42 9.66699 76.833 29 104.5s46.333 41.5 81 41.5
c23.333 0 41.333 -4.83301 54 -14.5s23.334 -19.5 32.001 -29.5c6 -7.33301 12 -13.333 18 -18s13 -7 21 -7c10 0 16.5 6 19.5 18s4.5 26.667 4.5 44h76c0 -20.667 -2.33301 -39.834 -7 -57.501s-11.5 -33 -20.5 -46s-20.333 -23.333 -34 -31s-29.5 -11.5 -47.5 -11.5z
M320 -9.99902c-42 0 -80.667 6.16699 -116 18.5s-65.5 29.833 -90.5 52.5s-44.5 50.334 -58.5 83.001s-21 70 -21 112c0 41.333 7 78.333 21 111s33.5 60.334 58.5 83.001s55.167 40.167 90.5 52.5s74 18.5 116 18.5s80.5 -6.16699 115.5 -18.5s65 -29.833 90 -52.5
s44.5 -50.334 58.5 -83.001s21 -69.667 21 -111c0 -42 -7 -79.333 -21 -112s-33.5 -60.334 -58.5 -83.001s-55 -40.167 -90 -52.5s-73.5 -18.5 -115.5 -18.5zM320 115.001c38.667 0 69.5 13 92.5 39s34.5 60 34.5 102c0 41.333 -11.5 75 -34.5 101s-53.833 39 -92.5 39
c-39.333 0 -70.5 -13 -93.5 -39s-34.5 -59.667 -34.5 -101c0 -42 11.5 -76 34.5 -102s54.167 -39 93.5 -39z" />
    <glyph glyph-name="odieresis" unicode="&#xf6;" horiz-adv-x="639" 
d="M213 574c-24.667 0 -45.667 8.66699 -63 26s-26 38.333 -26 63c0 24 8.66699 44.667 26 62s38.333 26 63 26c24 0 44.667 -8.66699 62 -26s26 -38 26 -62c0 -24.667 -8.66699 -45.667 -26 -63s-38 -26 -62 -26zM431 574c-24.667 0 -45.667 8.66699 -63 26
s-26 38.333 -26 63c0 24 8.66699 44.667 26 62s38.333 26 63 26c24 0 44.667 -8.66699 62 -26s26 -38 26 -62c0 -24.667 -8.66699 -45.667 -26 -63s-38 -26 -62 -26zM320 -10c-42 0 -80.667 6.16699 -116 18.5s-65.5 29.833 -90.5 52.5s-44.5 50.334 -58.5 83.001
s-21 70 -21 112c0 41.333 7 78.333 21 111s33.5 60.334 58.5 83.001s55.167 40.167 90.5 52.5s74 18.5 116 18.5s80.5 -6.16699 115.5 -18.5s65 -29.833 90 -52.5s44.5 -50.334 58.5 -83.001s21 -69.667 21 -111c0 -42 -7 -79.333 -21 -112s-33.5 -60.334 -58.5 -83.001
s-55 -40.167 -90 -52.5s-73.5 -18.5 -115.5 -18.5zM320 115c38.667 0 69.5 13 92.5 39s34.5 60 34.5 102c0 41.333 -11.5 75 -34.5 101s-53.833 39 -92.5 39c-39.333 0 -70.5 -13 -93.5 -39s-34.5 -59.667 -34.5 -101c0 -42 11.5 -76 34.5 -102s54.167 -39 93.5 -39z" />
    <glyph glyph-name="divide" unicode="&#xf7;" horiz-adv-x="610" 
d="M300 367c-20.667 0 -38.834 7.5 -54.501 22.5s-23.5 33.5 -23.5 55.5c0 20.667 7.83301 38.834 23.5 54.501s33.834 23.5 54.501 23.5c21.333 0 39.833 -7.83301 55.5 -23.5s23.5 -33.834 23.5 -54.501c0 -22 -7.83301 -40.5 -23.5 -55.5s-34.167 -22.5 -55.5 -22.5z
M55 197v118h500v-118h-500zM300 -12c-20.667 0 -38.834 7.5 -54.501 22.5s-23.5 33.833 -23.5 56.5c0 20.667 7.83301 38.834 23.5 54.501s33.834 23.5 54.501 23.5c21.333 0 39.833 -7.83301 55.5 -23.5s23.5 -33.834 23.5 -54.501c0 -22.667 -7.83301 -41.5 -23.5 -56.5
s-34.167 -22.5 -55.5 -22.5z" />
    <glyph glyph-name="oslash" unicode="&#xf8;" horiz-adv-x="639" 
d="M508 464c30.667 -22.667 54.498 -51.499 71.498 -86.499s25.5 -75.5 25.5 -121.5c0 -42 -7 -79.333 -21 -112s-33.5 -60.334 -58.5 -83.001s-55 -40.167 -90 -52.5s-73.5 -18.5 -115.5 -18.5c-45.333 0 -87.333 7.33301 -126 22l-40 -57l-60 35l39 55
c-31.333 23.333 -55.666 52.666 -72.999 87.999s-26 76.333 -26 123c0 41.333 7 78.333 21 111s33.5 60.334 58.5 83.001s55.167 40.167 90.5 52.5s74 18.5 116 18.5c46.667 0 89.334 -7.66699 128.001 -23l39 56l59 -35zM191.998 256.001
c0 -34.667 8.33398 -64.667 25.001 -90l153 221c-14.667 6 -31.334 9 -50.001 9c-39.333 0 -70.5 -13 -93.5 -39s-34.5 -59.667 -34.5 -101zM319.999 115.001c38.667 0 69.501 12.999 92.501 38.999s34.5 60 34.5 102c0 34.667 -8 63.334 -24 86.001l-152 -218
c15.333 -6 31.666 -9 48.999 -9z" />
    <glyph glyph-name="ugrave" unicode="&#xf9;" horiz-adv-x="628" 
d="M382 571h-139l-116 142h167zM412 511h158.001v-511h-150l-6 59c-18.667 -22 -41.834 -39 -69.501 -51s-59.5 -18 -95.5 -18c-66 0 -115.333 15.5 -148 46.5s-49 74.833 -49 131.5v343h159v-310c0 -31.333 8.5 -53.333 25.5 -66s38.167 -19 63.5 -19c14 0 27.667 2 41 6
s25.333 10.667 36 20s19.167 21.833 25.5 37.5s9.5 35.5 9.5 59.5v272z" />
    <glyph glyph-name="uacute" unicode="&#xfa;" horiz-adv-x="628" 
d="M496 713l-117 -142h-138l87 142h168zM412 511h158.001v-511h-150l-6 59c-18.667 -22 -41.834 -39 -69.501 -51s-59.5 -18 -95.5 -18c-66 0 -115.333 15.5 -148 46.5s-49 74.833 -49 131.5v343h159v-310c0 -31.333 8.5 -53.333 25.5 -66s38.167 -19 63.5 -19
c14 0 27.667 2 41 6s25.333 10.667 36 20s19.167 21.833 25.5 37.5s9.5 35.5 9.5 59.5v272z" />
    <glyph glyph-name="ucircumflex" unicode="&#xfb;" horiz-adv-x="628" 
d="M311 640l-55 -69h-130l96 142h178l96 -142h-130zM412 511h158.001v-511h-150l-6 59c-18.667 -22 -41.834 -39 -69.501 -51s-59.5 -18 -95.5 -18c-66 0 -115.333 15.5 -148 46.5s-49 74.833 -49 131.5v343h159v-310c0 -31.333 8.5 -53.333 25.5 -66s38.167 -19 63.5 -19
c14 0 27.667 2 41 6s25.333 10.667 36 20s19.167 21.833 25.5 37.5s9.5 35.5 9.5 59.5v272z" />
    <glyph glyph-name="udieresis" unicode="&#xfc;" horiz-adv-x="628" 
d="M202 574c-24.667 0 -45.667 8.66699 -63 26s-26 38.333 -26 63c0 24 8.66699 44.667 26 62s38.333 26 63 26c24 0 44.667 -8.66699 62 -26s26 -38 26 -62c0 -24.667 -8.66699 -45.667 -26 -63s-38 -26 -62 -26zM420 574c-24.667 0 -45.667 8.66699 -63 26
s-26 38.333 -26 63c0 24 8.66699 44.667 26 62s38.333 26 63 26c24 0 44.667 -8.66699 62 -26s26 -38 26 -62c0 -24.667 -8.66699 -45.667 -26 -63s-38 -26 -62 -26zM412 511h158.001v-511h-150l-6 59c-18.667 -22 -41.834 -39 -69.501 -51s-59.5 -18 -95.5 -18
c-66 0 -115.333 15.5 -148 46.5s-49 74.833 -49 131.5v343h159v-310c0 -31.333 8.5 -53.333 25.5 -66s38.167 -19 63.5 -19c14 0 27.667 2 41 6s25.333 10.667 36 20s19.167 21.833 25.5 37.5s9.5 35.5 9.5 59.5v272z" />
    <glyph glyph-name="yacute" unicode="&#xfd;" horiz-adv-x="600" 
d="M490 713l-117 -142h-138l87 142h168zM417 511h172l-321 -754h-172l121 272l-207 482h172l117 -319z" />
    <glyph glyph-name="thorn" unicode="&#xfe;" horiz-adv-x="652" 
d="M367 521c34 0 66.167 -6.00195 96.5 -18.002s56.833 -29.5 79.5 -52.5s40.5 -51 53.5 -84s19.5 -70.5 19.5 -112.5s-6.5 -79.5 -19.5 -112.5s-30.833 -61 -53.5 -84s-49.167 -40.5 -79.5 -52.5s-62.5 -18 -96.5 -18c-32 0 -61.333 5.33301 -88 16
s-47.667 26.334 -63 47.001v-293h-158v993h158v-292c15.333 20.667 36.333 36.334 63 47.001s56 16 88 16zM334 117.998c35.333 0 64.833 12 88.5 36s35.5 57.333 35.5 100s-11.833 76 -35.5 100s-53.167 36 -88.5 36c-36 0 -65.833 -12 -89.5 -36s-35.5 -57.333 -35.5 -100
s11.833 -76 35.5 -100s53.5 -36 89.5 -36z" />
    <glyph glyph-name="ydieresis" unicode="&#xff;" horiz-adv-x="600" 
d="M196 574c-24.667 0 -45.667 8.66699 -63 26s-26 38.333 -26 63c0 24 8.66699 44.667 26 62s38.333 26 63 26c24 0 44.667 -8.66699 62 -26s26 -38 26 -62c0 -24.667 -8.66699 -45.667 -26 -63s-38 -26 -62 -26zM414 574c-24.667 0 -45.667 8.66699 -63 26
s-26 38.333 -26 63c0 24 8.66699 44.667 26 62s38.333 26 63 26c24 0 44.667 -8.66699 62 -26s26 -38 26 -62c0 -24.667 -8.66699 -45.667 -26 -63s-38 -26 -62 -26zM417 511h172l-321 -754h-172l121 272l-207 482h172l117 -319z" />
    <glyph glyph-name="Amacron" unicode="&#x100;" horiz-adv-x="742" 
d="M535 877v-99h-327v99h327zM561 0l-49 140h-283l-49 -140h-175l264 713h204l264 -713h-176zM278 277h186l-93 265z" />
    <glyph glyph-name="amacron" unicode="&#x101;" horiz-adv-x="579" 
d="M436 689v-99h-287v99h287zM522 91c0 -14.667 0.498047 -28.3311 1.49805 -40.998s4.16699 -24.667 9.5 -36v-14h-157l-6 61c-18 -25.333 -42.333 -43.5 -73 -54.5s-62 -16.5 -94 -16.5c-20 0 -40 2.33301 -60 7s-38.167 12.5 -54.5 23.5s-29.5 25.5 -39.5 43.5
s-15 40 -15 66c0 29.333 6 53.666 18 72.999s27.5 35.333 46.5 48s39.833 22.667 62.5 30s44.667 13.333 66 18l88 20c13.333 3.33301 24.833 7.5 34.5 12.5s14.5 13.833 14.5 26.5c0 19.333 -8.16699 32.666 -24.5 39.999s-34.166 11 -53.499 11
c-26 0 -47.5 -5.83301 -64.5 -17.5s-28.167 -29.5 -33.5 -53.5l-151 23c11.333 55.333 39.5 95.833 84.5 121.5s100.5 38.5 166.5 38.5c76.667 0 134.834 -16 174.501 -48s59.5 -79 59.5 -141v-241zM249.998 98.0029c14 0 28.332 2.99902 42.999 8.99902s28 14.833 40 26.5
s21.667 26.334 29 44.001s11 38.167 11 61.5l-121 -34c-13.333 -3.33301 -26.5 -9 -39.5 -17s-19.5 -21.667 -19.5 -41c0 -16.667 5.33301 -29 16 -37s24.334 -12 41.001 -12z" />
    <glyph glyph-name="Abreve" unicode="&#x102;" horiz-adv-x="742" 
d="M371 744c-26.667 0 -51.166 2 -73.499 6s-41.5 11.167 -57.5 21.5s-28.333 24.333 -37 42s-13.334 40.167 -14.001 67.5h99c0.666992 -21.333 7.5 -36.5 20.5 -45.5s33.833 -13.5 62.5 -13.5s49.5 4.5 62.5 13.5s20.167 24.167 21.5 45.5h99
c-0.666992 -27.333 -5.5 -49.833 -14.5 -67.5s-21.5 -31.667 -37.5 -42s-35 -17.5 -57 -21.5s-46.667 -6 -74 -6zM561.001 0l-49 140h-283l-49 -140h-175l264 713h204l264 -713h-176zM278.001 277h186l-93 265z" />
    <glyph glyph-name="abreve" unicode="&#x103;" horiz-adv-x="579" 
d="M293 561c-27.333 0 -52.166 2.66699 -74.499 8s-41.5 14 -57.5 26s-28.333 27.667 -37 47s-13 43 -13 71h112c0 -22 5.66699 -39.333 17 -52s29 -19 53 -19c25.333 0 43.666 6.33301 54.999 19s17 30 17 52h112c0 -28 -4.5 -51.667 -13.5 -71s-21.5 -35 -37.5 -47
s-35.333 -20.667 -58 -26s-47.667 -8 -75 -8zM522 91c0 -14.667 0.498047 -28.3311 1.49805 -40.998s4.16699 -24.667 9.5 -36v-14h-157l-6 61c-18 -25.333 -42.333 -43.5 -73 -54.5s-62 -16.5 -94 -16.5c-20 0 -40 2.33301 -60 7s-38.167 12.5 -54.5 23.5
s-29.5 25.5 -39.5 43.5s-15 40 -15 66c0 29.333 6 53.666 18 72.999s27.5 35.333 46.5 48s39.833 22.667 62.5 30s44.667 13.333 66 18l88 20c13.333 3.33301 24.833 7.5 34.5 12.5s14.5 13.833 14.5 26.5c0 19.333 -8.16699 32.666 -24.5 39.999s-34.166 11 -53.499 11
c-26 0 -47.5 -5.83301 -64.5 -17.5s-28.167 -29.5 -33.5 -53.5l-151 23c11.333 55.333 39.5 95.833 84.5 121.5s100.5 38.5 166.5 38.5c76.667 0 134.834 -16 174.501 -48s59.5 -79 59.5 -141v-241zM249.998 98.0029c14 0 28.332 2.99902 42.999 8.99902s28 14.833 40 26.5
s21.667 26.334 29 44.001s11 38.167 11 61.5l-121 -34c-13.333 -3.33301 -26.5 -9 -39.5 -17s-19.5 -21.667 -19.5 -41c0 -16.667 5.33301 -29 16 -37s24.334 -12 41.001 -12z" />
    <glyph glyph-name="Aogonek" unicode="&#x104;" horiz-adv-x="742" 
d="M662 -99c0 -7.33301 3.16797 -13.168 9.50098 -17.501s14.166 -6.5 23.499 -6.5c15.333 0 29.333 5.33301 42 16v-96c-11.333 -5.33301 -23.666 -9.16602 -36.999 -11.499s-27 -3.5 -41 -3.5c-26 0 -49 5.16699 -69 15.5s-30 27.833 -30 52.5s10.833 49.5 32.5 74.5
s48.167 50.167 79.5 75.5h-111l-49 140h-283l-49 -140h-175l264 713h204l264 -713c-22.667 -17.333 -40.834 -34.833 -54.501 -52.5s-20.5 -33.167 -20.5 -46.5zM278.001 276.998h186l-93 265z" />
    <glyph glyph-name="aogonek" unicode="&#x105;" horiz-adv-x="579" 
d="M459 -99c0 -7.33301 3.16602 -13.165 9.49902 -17.498s14.166 -6.5 23.499 -6.5c15.333 0 29.333 5.33301 42 16v-96c-11.333 -5.33301 -23.666 -9.16602 -36.999 -11.499s-27 -3.5 -41 -3.5c-26 0 -49 5.16699 -69 15.5s-30 27.833 -30 52.5s10.833 49.5 32.5 74.5
s48.167 50.167 79.5 75.5h-93l-6 61c-18 -25.333 -42.333 -43.5 -73 -54.5s-62 -16.5 -94 -16.5c-20 0 -40 2.33301 -60 7s-38.167 12.5 -54.5 23.5s-29.5 25.5 -39.5 43.5s-15 40 -15 66c0 29.333 6 53.666 18 72.999s27.5 35.333 46.5 48s39.833 22.667 62.5 30
s44.667 13.333 66 18l88 20c13.333 3.33301 24.833 7.5 34.5 12.5s14.5 13.833 14.5 26.5c0 19.333 -8.16699 32.666 -24.5 39.999s-34.166 11 -53.499 11c-26 0 -47.5 -5.83301 -64.5 -17.5s-28.167 -29.5 -33.5 -53.5l-151 23c11.333 55.333 39.5 95.833 84.5 121.5
s100.5 38.5 166.5 38.5c76.667 0 134.834 -16 174.501 -48s59.5 -79 59.5 -141v-241c0 -14.667 0.5 -28.334 1.5 -41.001s4.16699 -24.667 9.5 -36v-14h1c-22.667 -17.333 -40.834 -34.833 -54.501 -52.5s-20.5 -33.167 -20.5 -46.5zM249.999 98.001
c14 0 28.332 2.99902 42.999 8.99902s28 14.833 40 26.5s21.667 26.334 29 44.001s11 38.167 11 61.5l-121 -34c-13.333 -3.33301 -26.5 -9 -39.5 -17s-19.5 -21.667 -19.5 -41c0 -16.667 5.33301 -29 16 -37s24.334 -12 41.001 -12z" />
    <glyph glyph-name="Cacute" unicode="&#x106;" horiz-adv-x="769" 
d="M332 743l85 138h167l-114 -138h-138zM401 -14c-54 0 -103.5 8.99707 -148.5 26.9971s-83.667 43.167 -116 75.5s-57.666 71.333 -75.999 117s-27.5 95.834 -27.5 150.501c0 55.333 9.16699 105.666 27.5 150.999s43.666 84.333 75.999 117s71 58 116 76s94.5 27 148.5 27
c41.333 0 80 -5.5 116 -16.5s68.833 -26.5 98.5 -46.5s55.5 -44.167 77.5 -72.5s39 -60.166 51 -95.499l-155 -55c-13.333 42 -36.666 75 -69.999 99s-72.666 36 -117.999 36c-29.333 0 -56.5 -5.33301 -81.5 -16s-46.5 -25.5 -64.5 -44.5s-32 -42 -42 -69
s-15 -57.167 -15 -90.5c0 -32.667 5 -62.5 15 -89.5s24 -50.167 42 -69.5s39.5 -34.166 64.5 -44.499s52.167 -15.5 81.5 -15.5c45.333 0 84.666 12 117.999 36s56.666 57 69.999 99l155 -55c-12 -35.333 -29 -67.166 -51 -95.499s-47.833 -52.5 -77.5 -72.5
s-62.5 -35.5 -98.5 -46.5s-74.667 -16.5 -116 -16.5z" />
    <glyph glyph-name="cacute" unicode="&#x107;" horiz-adv-x="603" 
d="M236 571l87 142h168l-117 -142h-138zM314 -10c-41.333 0 -79.165 6.50098 -113.498 19.501s-63.833 31.167 -88.5 54.5s-43.834 51.333 -57.501 84s-20.5 68.667 -20.5 108s6.83301 75.166 20.5 107.499s32.834 60.166 57.501 83.499s54.167 41.5 88.5 54.5
s72.166 19.5 113.499 19.5c68.667 0 125.667 -16.833 171 -50.5s73.666 -81.834 84.999 -144.501l-145 -14c-7.33301 30 -20.5 51.667 -39.5 65s-43.167 20 -72.5 20c-38 0 -67.667 -13 -89 -39s-32 -60 -32 -102s10.667 -76.333 32 -103s51 -40 89 -40
c29.333 0 53.5 7 72.5 21s32.167 35.667 39.5 65l145 -14c-5.33301 -31.333 -15.5 -59.166 -30.5 -83.499s-33.667 -44.666 -56 -60.999s-47.833 -28.833 -76.5 -37.5s-59.667 -13 -93 -13z" />
    <glyph glyph-name="Cdotaccent" unicode="&#x10a;" horiz-adv-x="769" 
d="M401 748c-24.667 0 -45.667 8.66699 -63 26s-26 38.333 -26 63c0 24 8.66699 44.667 26 62s38.333 26 63 26c24 0 44.667 -8.66699 62 -26s26 -38 26 -62c0 -24.667 -8.66699 -45.667 -26 -63s-38 -26 -62 -26zM401 -14c-54 0 -103.5 8.99707 -148.5 26.9971
s-83.667 43.167 -116 75.5s-57.666 71.333 -75.999 117s-27.5 95.834 -27.5 150.501c0 55.333 9.16699 105.666 27.5 150.999s43.666 84.333 75.999 117s71 58 116 76s94.5 27 148.5 27c41.333 0 80 -5.5 116 -16.5s68.833 -26.5 98.5 -46.5s55.5 -44.167 77.5 -72.5
s39 -60.166 51 -95.499l-155 -55c-13.333 42 -36.666 75 -69.999 99s-72.666 36 -117.999 36c-29.333 0 -56.5 -5.33301 -81.5 -16s-46.5 -25.5 -64.5 -44.5s-32 -42 -42 -69s-15 -57.167 -15 -90.5c0 -32.667 5 -62.5 15 -89.5s24 -50.167 42 -69.5
s39.5 -34.166 64.5 -44.499s52.167 -15.5 81.5 -15.5c45.333 0 84.666 12 117.999 36s56.666 57 69.999 99l155 -55c-12 -35.333 -29 -67.166 -51 -95.499s-47.833 -52.5 -77.5 -72.5s-62.5 -35.5 -98.5 -46.5s-74.667 -16.5 -116 -16.5z" />
    <glyph glyph-name="cdotaccent" unicode="&#x10b;" horiz-adv-x="603" 
d="M307 574c-24.667 0 -45.667 8.66699 -63 26s-26 38.333 -26 63c0 24 8.66699 44.667 26 62s38.333 26 63 26c24 0 44.667 -8.66699 62 -26s26 -38 26 -62c0 -24.667 -8.66699 -45.667 -26 -63s-38 -26 -62 -26zM314 -10c-41.333 0 -79.165 6.50098 -113.498 19.501
s-63.833 31.167 -88.5 54.5s-43.834 51.333 -57.501 84s-20.5 68.667 -20.5 108s6.83301 75.166 20.5 107.499s32.834 60.166 57.501 83.499s54.167 41.5 88.5 54.5s72.166 19.5 113.499 19.5c68.667 0 125.667 -16.833 171 -50.5s73.666 -81.834 84.999 -144.501l-145 -14
c-7.33301 30 -20.5 51.667 -39.5 65s-43.167 20 -72.5 20c-38 0 -67.667 -13 -89 -39s-32 -60 -32 -102s10.667 -76.333 32 -103s51 -40 89 -40c29.333 0 53.5 7 72.5 21s32.167 35.667 39.5 65l145 -14c-5.33301 -31.333 -15.5 -59.166 -30.5 -83.499
s-33.667 -44.666 -56 -60.999s-47.833 -28.833 -76.5 -37.5s-59.667 -13 -93 -13z" />
    <glyph glyph-name="Ccaron" unicode="&#x10c;" horiz-adv-x="769" 
d="M311 745l-96 136h130l56 -65l55 65h130l-96 -136h-179zM401 -14c-54 0 -103.5 8.99707 -148.5 26.9971s-83.667 43.167 -116 75.5s-57.666 71.333 -75.999 117s-27.5 95.834 -27.5 150.501c0 55.333 9.16699 105.666 27.5 150.999s43.666 84.333 75.999 117s71 58 116 76
s94.5 27 148.5 27c41.333 0 80 -5.5 116 -16.5s68.833 -26.5 98.5 -46.5s55.5 -44.167 77.5 -72.5s39 -60.166 51 -95.499l-155 -55c-13.333 42 -36.666 75 -69.999 99s-72.666 36 -117.999 36c-29.333 0 -56.5 -5.33301 -81.5 -16s-46.5 -25.5 -64.5 -44.5s-32 -42 -42 -69
s-15 -57.167 -15 -90.5c0 -32.667 5 -62.5 15 -89.5s24 -50.167 42 -69.5s39.5 -34.166 64.5 -44.499s52.167 -15.5 81.5 -15.5c45.333 0 84.666 12 117.999 36s56.666 57 69.999 99l155 -55c-12 -35.333 -29 -67.166 -51 -95.499s-47.833 -52.5 -77.5 -72.5
s-62.5 -35.5 -98.5 -46.5s-74.667 -16.5 -116 -16.5z" />
    <glyph glyph-name="ccaron" unicode="&#x10d;" horiz-adv-x="603" 
d="M218 571l-96 142h130l55 -70l55 70h130l-96 -142h-178zM314 -10c-41.333 0 -79.165 6.50098 -113.498 19.501s-63.833 31.167 -88.5 54.5s-43.834 51.333 -57.501 84s-20.5 68.667 -20.5 108s6.83301 75.166 20.5 107.499s32.834 60.166 57.501 83.499
s54.167 41.5 88.5 54.5s72.166 19.5 113.499 19.5c68.667 0 125.667 -16.833 171 -50.5s73.666 -81.834 84.999 -144.501l-145 -14c-7.33301 30 -20.5 51.667 -39.5 65s-43.167 20 -72.5 20c-38 0 -67.667 -13 -89 -39s-32 -60 -32 -102s10.667 -76.333 32 -103
s51 -40 89 -40c29.333 0 53.5 7 72.5 21s32.167 35.667 39.5 65l145 -14c-5.33301 -31.333 -15.5 -59.166 -30.5 -83.499s-33.667 -44.666 -56 -60.999s-47.833 -28.833 -76.5 -37.5s-59.667 -13 -93 -13z" />
    <glyph glyph-name="Dcaron" unicode="&#x10e;" horiz-adv-x="711" 
d="M205 745l-96 136h130l56 -65l55 65h130l-96 -136h-179zM64 0v713.002h226c60 0 110.5 -5.5 151.5 -16.5s76.5 -27.167 106.5 -48.5c42.667 -30.667 74.5 -70.834 95.5 -120.501s31.5 -106.834 31.5 -171.501s-10.5 -121.667 -31.5 -171s-52.833 -89.333 -95.5 -120
c-30 -21.333 -65.5 -37.5 -106.5 -48.5s-91.5 -16.5 -151.5 -16.5h-226zM229 144.002h59.999c30.667 0 57.834 3.33301 81.501 10s44.167 16 61.5 28c26 17.333 45.5 40.833 58.5 70.5s19.5 64.167 19.5 103.5c0 40 -6.5 74.833 -19.5 104.5s-32.5 53.167 -58.5 70.5
c-36 24.667 -83.667 37 -143 37h-60v-424z" />
    <glyph glyph-name="dcaron" unicode="&#x10f;" horiz-adv-x="812" 
d="M435 750l158 -0.000976562v-750h-149l-4 58c-14 -22.667 -35 -39.667 -63 -51s-59 -17 -93 -17s-66.167 5.83301 -96.5 17.5s-56.833 28.834 -79.5 51.501s-40.5 50.334 -53.5 83.001s-19.5 70 -19.5 112s6.5 79.5 19.5 112.5s30.833 61 53.5 84s49.167 40.5 79.5 52.5
s62.5 18 96.5 18c32 0 61.333 -5.33301 88 -16s47.667 -26.334 63 -47.001v292zM716 712.999h161l-110 -326h-113zM318 119.999c35.333 0 64.833 11.667 88.5 35s35.5 56.333 35.5 99s-11.833 76 -35.5 100s-53.167 36 -88.5 36c-36 0 -65.833 -12 -89.5 -36
s-35.5 -57.333 -35.5 -100s11.833 -75.667 35.5 -99s53.5 -35 89.5 -35z" />
    <glyph glyph-name="Dcroat" unicode="&#x110;" horiz-adv-x="711" 
d="M548 648c42.667 -30.667 74.5 -70.832 95.5 -120.499s31.5 -106.834 31.5 -171.501s-10.5 -121.667 -31.5 -171s-52.833 -89.333 -95.5 -120c-30 -21.333 -65.5 -37.5 -106.5 -48.5s-91.5 -16.5 -151.5 -16.5h-226v309h-74v95h74v309h226c60 0 110.5 -5.5 151.5 -16.5
s76.5 -27.167 106.5 -48.5zM432 182.002c26 17.333 45.499 40.833 58.499 70.5s19.5 64.167 19.5 103.5c0 40 -6.5 74.833 -19.5 104.5s-32.5 53.167 -58.5 70.5c-36 24.667 -83.667 37 -143 37h-60v-164h113v-95h-113v-165h60c30.667 0 57.834 3.33301 81.501 10
s44.167 16 61.5 28z" />
    <glyph glyph-name="dcroat" unicode="&#x111;" horiz-adv-x="652" 
d="M657 677l-0.000976562 -95.001h-64v-582h-149l-6 55c-14.667 -21.333 -35.667 -37.5 -63 -48.5s-57.666 -16.5 -90.999 -16.5c-34 0 -66.167 5.83301 -96.5 17.5s-56.833 28.834 -79.5 51.501s-40.5 50.334 -53.5 83.001s-19.5 70 -19.5 112s6.5 79.5 19.5 112.5
s30.833 61 53.5 84s49.167 40.5 79.5 52.5s62.5 18 96.5 18c32 0 61.333 -5.33301 88 -16s47.667 -26.334 63 -47.001v124h-130v95h130v73h158v-73h64zM317.999 119.999c35.333 0 64.833 11.667 88.5 35s35.5 56.333 35.5 99s-11.833 76 -35.5 100s-53.167 36 -88.5 36
c-36 0 -65.833 -12 -89.5 -36s-35.5 -57.333 -35.5 -100s11.833 -75.667 35.5 -99s53.5 -35 89.5 -35z" />
    <glyph glyph-name="Emacron" unicode="&#x112;" horiz-adv-x="533" 
d="M445 877v-99h-327v99h327zM488 568h-259v-140h231v-143h-231v-141h259v-144h-424v713h424v-145z" />
    <glyph glyph-name="emacron" unicode="&#x113;" horiz-adv-x="604" 
d="M456 690v-99h-287v99h287zM566 224l-375.994 0.000976562c3.33301 -36.667 16.5 -64.334 39.5 -83.001s50.5 -28 82.5 -28c24.667 0 45.667 5.16699 63 15.5s30.333 26.166 39 47.499l146 -20c-16.667 -53.333 -46.834 -94.333 -90.501 -123s-95.834 -43 -156.501 -43
c-42.667 0 -81.334 6 -116.001 18s-64.167 29.333 -88.5 52s-43 50.5 -56 83.5s-19.5 70.167 -19.5 111.5c0 42 6.66699 79.333 20 112s32.166 60.5 56.499 83.5s53.333 40.5 87 52.5s70.834 18 111.501 18c37.333 0 71.666 -5.16699 102.999 -15.5
s58.666 -26.166 81.999 -47.499s41.666 -48.333 54.999 -81s20 -71.667 20 -117zM309.006 404.001c-31.333 0 -56.665 -6.66699 -75.998 -20s-32.333 -34.666 -39 -63.999h218c-4.66699 27.333 -16.334 48.166 -35.001 62.499s-41.334 21.5 -68.001 21.5z" />
    <glyph glyph-name="Ebreve" unicode="&#x114;" horiz-adv-x="533" 
d="M281 744c-26.667 0 -51.166 2 -73.499 6s-41.5 11.167 -57.5 21.5s-28.333 24.333 -37 42s-13.334 40.167 -14.001 67.5h99c0.666992 -21.333 7.5 -36.5 20.5 -45.5s33.833 -13.5 62.5 -13.5s49.5 4.5 62.5 13.5s20.167 24.167 21.5 45.5h99
c-0.666992 -27.333 -5.5 -49.833 -14.5 -67.5s-21.5 -31.667 -37.5 -42s-35 -17.5 -57 -21.5s-46.667 -6 -74 -6zM488.001 568h-259v-140h231v-143h-231v-141h259v-144h-424v713h424v-145z" />
    <glyph glyph-name="ebreve" unicode="&#x115;" horiz-adv-x="604" 
d="M312 562c-27.333 0 -52.166 2.66699 -74.499 8s-41.5 14 -57.5 26s-28.333 27.667 -37 47s-13 43 -13 71h112c0 -22 5.66699 -39.333 17 -52s29 -19 53 -19c25.333 0 43.666 6.33301 54.999 19s17 30 17 52h112c0 -28 -4.5 -51.667 -13.5 -71s-21.5 -35 -37.5 -47
s-35.333 -20.667 -58 -26s-47.667 -8 -75 -8zM566 224l-375.994 0.000976562c3.33301 -36.667 16.5 -64.334 39.5 -83.001s50.5 -28 82.5 -28c24.667 0 45.667 5.16699 63 15.5s30.333 26.166 39 47.499l146 -20c-16.667 -53.333 -46.834 -94.333 -90.501 -123
s-95.834 -43 -156.501 -43c-42.667 0 -81.334 6 -116.001 18s-64.167 29.333 -88.5 52s-43 50.5 -56 83.5s-19.5 70.167 -19.5 111.5c0 42 6.66699 79.333 20 112s32.166 60.5 56.499 83.5s53.333 40.5 87 52.5s70.834 18 111.501 18
c37.333 0 71.666 -5.16699 102.999 -15.5s58.666 -26.166 81.999 -47.499s41.666 -48.333 54.999 -81s20 -71.667 20 -117zM309.006 404.001c-31.333 0 -56.665 -6.66699 -75.998 -20s-32.333 -34.666 -39 -63.999h218c-4.66699 27.333 -16.334 48.166 -35.001 62.499
s-41.334 21.5 -68.001 21.5z" />
    <glyph glyph-name="Edotaccent" unicode="&#x116;" horiz-adv-x="533" 
d="M282 748c-24.667 0 -45.667 8.66699 -63 26s-26 38.333 -26 63c0 24 8.66699 44.667 26 62s38.333 26 63 26c24 0 44.667 -8.66699 62 -26s26 -38 26 -62c0 -24.667 -8.66699 -45.667 -26 -63s-38 -26 -62 -26zM488 568h-259v-140h231v-143h-231v-141h259v-144h-424v713
h424v-145z" />
    <glyph glyph-name="edotaccent" unicode="&#x117;" horiz-adv-x="604" 
d="M313 575c-24.667 0 -45.667 8.66699 -63 26s-26 38.333 -26 63c0 24 8.66699 44.667 26 62s38.333 26 63 26c24 0 44.667 -8.66699 62 -26s26 -38 26 -62c0 -24.667 -8.66699 -45.667 -26 -63s-38 -26 -62 -26zM566 224l-375.994 0.000976562
c3.33301 -36.667 16.5 -64.334 39.5 -83.001s50.5 -28 82.5 -28c24.667 0 45.667 5.16699 63 15.5s30.333 26.166 39 47.499l146 -20c-16.667 -53.333 -46.834 -94.333 -90.501 -123s-95.834 -43 -156.501 -43c-42.667 0 -81.334 6 -116.001 18s-64.167 29.333 -88.5 52
s-43 50.5 -56 83.5s-19.5 70.167 -19.5 111.5c0 42 6.66699 79.333 20 112s32.166 60.5 56.499 83.5s53.333 40.5 87 52.5s70.834 18 111.501 18c37.333 0 71.666 -5.16699 102.999 -15.5s58.666 -26.166 81.999 -47.499s41.666 -48.333 54.999 -81s20 -71.667 20 -117z
M309.006 404.001c-31.333 0 -56.665 -6.66699 -75.998 -20s-32.333 -34.666 -39 -63.999h218c-4.66699 27.333 -16.334 48.166 -35.001 62.499s-41.334 21.5 -68.001 21.5z" />
    <glyph glyph-name="Eogonek" unicode="&#x118;" horiz-adv-x="533" 
d="M488 568l-258.999 -0.00195312v-140h231v-143h-231v-141h259v-144c-22.667 -17.333 -40.834 -34.833 -54.501 -52.5s-20.5 -33.167 -20.5 -46.5c0 -7.33301 3.16699 -13.166 9.5 -17.499s14.166 -6.5 23.499 -6.5c15.333 0 29.333 5.33301 42 16v-96
c-11.333 -5.33301 -23.666 -9.16602 -36.999 -11.499s-27 -3.5 -41 -3.5c-26 0 -49 5.16699 -69 15.5s-30 27.833 -30 52.5s10.833 49.5 32.5 74.5s48.167 50.167 79.5 75.5h-359v713h424v-145z" />
    <glyph glyph-name="eogonek" unicode="&#x119;" horiz-adv-x="604" 
d="M566 224l-375.997 -0.00195312c3.33301 -36.667 16.5 -64.334 39.5 -83.001s50.5 -28 82.5 -28c24.667 0 45.667 5.16699 63 15.5s30.333 26.166 39 47.499l146 -20c-12.667 -41.333 -33.667 -75.166 -63 -101.499s-64.666 -44.833 -105.999 -55.5
c-22 -17.333 -39.833 -34.666 -53.5 -51.999s-20.5 -32.666 -20.5 -45.999c0 -7.33301 3.16699 -13.166 9.5 -17.499s14.166 -6.5 23.499 -6.5c15.333 0 29.333 5.33301 42 16v-96c-11.333 -5.33301 -23.666 -9.16602 -36.999 -11.499s-27 -3.5 -41 -3.5
c-26 0 -49 5.16699 -69 15.5s-30 27.833 -30 52.5c0 23.333 9.66699 46.666 29 69.999s43 46.666 71 69.999h-2c-42.667 0 -81.334 6 -116.001 18s-64.167 29.333 -88.5 52s-43 50.5 -56 83.5s-19.5 70.167 -19.5 111.5c0 42 6.66699 79.333 20 112s32.166 60.5 56.499 83.5
s53.333 40.5 87 52.5s70.834 18 111.501 18c37.333 0 71.666 -5.16699 102.999 -15.5s58.666 -26.166 81.999 -47.499s41.666 -48.333 54.999 -81s20 -71.667 20 -117zM309.003 403.998c-31.333 0 -56.665 -6.66699 -75.998 -20s-32.333 -34.666 -39 -63.999h218
c-4.66699 27.333 -16.334 48.166 -35.001 62.499s-41.334 21.5 -68.001 21.5z" />
    <glyph glyph-name="Ecaron" unicode="&#x11a;" horiz-adv-x="533" 
d="M371 745h-179l-96 136h130l56 -65l55 65h130zM488 568h-259v-140h231v-143h-231v-141h259v-144h-424v713h424v-145z" />
    <glyph glyph-name="ecaron" unicode="&#x11b;" horiz-adv-x="604" 
d="M401 572h-178l-96 142h130l55 -70l55 70h130zM566 224l-375.994 0.000976562c3.33301 -36.667 16.5 -64.334 39.5 -83.001s50.5 -28 82.5 -28c24.667 0 45.667 5.16699 63 15.5s30.333 26.166 39 47.499l146 -20c-16.667 -53.333 -46.834 -94.333 -90.501 -123
s-95.834 -43 -156.501 -43c-42.667 0 -81.334 6 -116.001 18s-64.167 29.333 -88.5 52s-43 50.5 -56 83.5s-19.5 70.167 -19.5 111.5c0 42 6.66699 79.333 20 112s32.166 60.5 56.499 83.5s53.333 40.5 87 52.5s70.834 18 111.501 18
c37.333 0 71.666 -5.16699 102.999 -15.5s58.666 -26.166 81.999 -47.499s41.666 -48.333 54.999 -81s20 -71.667 20 -117zM309.006 404.001c-31.333 0 -56.665 -6.66699 -75.998 -20s-32.333 -34.666 -39 -63.999h218c-4.66699 27.333 -16.334 48.166 -35.001 62.499
s-41.334 21.5 -68.001 21.5z" />
    <glyph glyph-name="Gcircumflex" unicode="&#x11c;" horiz-adv-x="791" 
d="M214 745l96 136h179l96 -136h-130l-55 65l-56 -65h-130zM391 -14c-52 0 -99.9971 9.00098 -143.997 27.001s-81.833 43.167 -113.5 75.5s-56.334 71.333 -74.001 117s-26.5 95.834 -26.5 150.501c0 55.333 9.16699 105.666 27.5 150.999s43.666 84.333 75.999 117
s71 58 116 76s94.5 27 148.5 27c70.667 0 133.5 -15.333 188.5 -46s97.833 -73 128.5 -127l-144 -78c-17.333 32 -41 56.667 -71 74s-64 26 -102 26c-29.333 0 -56.5 -5.33301 -81.5 -16s-46.5 -25.5 -64.5 -44.5s-32 -42 -42 -69s-15 -57.167 -15 -90.5
c0 -32.667 4.66699 -62.334 14 -89.001s22.833 -49.667 40.5 -69s39 -34.333 64 -45s53.167 -16 84.5 -16c40 0 77 10.167 111 30.5s57.667 52.5 71 96.5h-175v132h336v-396h-128v92c-22.667 -31.333 -52.334 -56.833 -89.001 -76.5s-82 -29.5 -136 -29.5z" />
    <glyph glyph-name="gcircumflex" unicode="&#x11d;" horiz-adv-x="633" 
d="M324 640l-55 -69h-130l96 142h178l96 -142h-130zM426 511h150v-495c0 -48 -6.33301 -88.833 -19 -122.5s-30.667 -61.167 -54 -82.5s-51.833 -36.833 -85.5 -46.5s-71.167 -14.5 -112.5 -14.5c-76 0 -135.167 14.667 -177.5 44s-72.166 68 -89.499 116l131 53
c14.667 -31.333 32 -54.5 52 -69.5s46 -22.5 78 -22.5c43.333 0 73.833 12.167 91.5 36.5s26.5 56.5 26.5 96.5v74c-14.667 -18 -35.167 -32.833 -61.5 -44.5s-55.833 -17.5 -88.5 -17.5c-32 0 -62 6 -90 18s-52.667 29 -74 51s-38.166 48.667 -50.499 80
s-18.5 66.333 -18.5 105s6.16699 73.5 18.5 104.5s29.166 57.333 50.499 79s46.333 38.334 75 50.001s59 17.5 91 17.5c34.667 0 65.167 -6.33301 91.5 -19s46.166 -29.334 59.499 -50.001zM306 143c35.333 0 64.333 11.999 87 35.999s34 54.333 34 91
s-11.167 66.834 -33.5 90.501s-51.5 35.5 -87.5 35.5c-34.667 0 -63.334 -11.833 -86.001 -35.5s-34 -53.834 -34 -90.501c0 -18 3 -34.833 9 -50.5s14.5 -29.167 25.5 -40.5s23.833 -20.166 38.5 -26.499s30.334 -9.5 47.001 -9.5z" />
    <glyph glyph-name="Gbreve" unicode="&#x11e;" horiz-adv-x="791" 
d="M399 744c-26.667 0 -51.166 2 -73.499 6s-41.5 11.167 -57.5 21.5s-28.333 24.333 -37 42s-13.334 40.167 -14.001 67.5h99c0.666992 -21.333 7.5 -36.5 20.5 -45.5s33.833 -13.5 62.5 -13.5s49.5 4.5 62.5 13.5s20.167 24.167 21.5 45.5h99
c-0.666992 -27.333 -5.5 -49.833 -14.5 -67.5s-21.5 -31.667 -37.5 -42s-35 -17.5 -57 -21.5s-46.667 -6 -74 -6zM391.001 -14c-52 0 -99.9971 9.00098 -143.997 27.001s-81.833 43.167 -113.5 75.5s-56.334 71.333 -74.001 117s-26.5 95.834 -26.5 150.501
c0 55.333 9.16699 105.666 27.5 150.999s43.666 84.333 75.999 117s71 58 116 76s94.5 27 148.5 27c70.667 0 133.5 -15.333 188.5 -46s97.833 -73 128.5 -127l-144 -78c-17.333 32 -41 56.667 -71 74s-64 26 -102 26c-29.333 0 -56.5 -5.33301 -81.5 -16
s-46.5 -25.5 -64.5 -44.5s-32 -42 -42 -69s-15 -57.167 -15 -90.5c0 -32.667 4.66699 -62.334 14 -89.001s22.833 -49.667 40.5 -69s39 -34.333 64 -45s53.167 -16 84.5 -16c40 0 77 10.167 111 30.5s57.667 52.5 71 96.5h-175v132h336v-396h-128v92
c-22.667 -31.333 -52.334 -56.833 -89.001 -76.5s-82 -29.5 -136 -29.5z" />
    <glyph glyph-name="gbreve" unicode="&#x11f;" horiz-adv-x="633" 
d="M324 561c-27.333 0 -52.166 2.66699 -74.499 8s-41.5 14 -57.5 26s-28.333 27.667 -37 47s-13 43 -13 71h112c0 -22 5.66699 -39.333 17 -52s29 -19 53 -19c25.333 0 43.666 6.33301 54.999 19s17 30 17 52h112c0 -28 -4.5 -51.667 -13.5 -71s-21.5 -35 -37.5 -47
s-35.333 -20.667 -58 -26s-47.667 -8 -75 -8zM426 511h150v-495c0 -48 -6.33301 -88.833 -19 -122.5s-30.667 -61.167 -54 -82.5s-51.833 -36.833 -85.5 -46.5s-71.167 -14.5 -112.5 -14.5c-76 0 -135.167 14.667 -177.5 44s-72.166 68 -89.499 116l131 53
c14.667 -31.333 32 -54.5 52 -69.5s46 -22.5 78 -22.5c43.333 0 73.833 12.167 91.5 36.5s26.5 56.5 26.5 96.5v74c-14.667 -18 -35.167 -32.833 -61.5 -44.5s-55.833 -17.5 -88.5 -17.5c-32 0 -62 6 -90 18s-52.667 29 -74 51s-38.166 48.667 -50.499 80
s-18.5 66.333 -18.5 105s6.16699 73.5 18.5 104.5s29.166 57.333 50.499 79s46.333 38.334 75 50.001s59 17.5 91 17.5c34.667 0 65.167 -6.33301 91.5 -19s46.166 -29.334 59.499 -50.001zM306 143c35.333 0 64.333 11.999 87 35.999s34 54.333 34 91
s-11.167 66.834 -33.5 90.501s-51.5 35.5 -87.5 35.5c-34.667 0 -63.334 -11.833 -86.001 -35.5s-34 -53.834 -34 -90.501c0 -18 3 -34.833 9 -50.5s14.5 -29.167 25.5 -40.5s23.833 -20.166 38.5 -26.499s30.334 -9.5 47.001 -9.5z" />
    <glyph glyph-name="Gdotaccent" unicode="&#x120;" horiz-adv-x="791" 
d="M401 748c-24.667 0 -45.667 8.66699 -63 26s-26 38.333 -26 63c0 24 8.66699 44.667 26 62s38.333 26 63 26c24 0 44.667 -8.66699 62 -26s26 -38 26 -62c0 -24.667 -8.66699 -45.667 -26 -63s-38 -26 -62 -26zM391 -14c-52 0 -99.9971 9.00098 -143.997 27.001
s-81.833 43.167 -113.5 75.5s-56.334 71.333 -74.001 117s-26.5 95.834 -26.5 150.501c0 55.333 9.16699 105.666 27.5 150.999s43.666 84.333 75.999 117s71 58 116 76s94.5 27 148.5 27c70.667 0 133.5 -15.333 188.5 -46s97.833 -73 128.5 -127l-144 -78
c-17.333 32 -41 56.667 -71 74s-64 26 -102 26c-29.333 0 -56.5 -5.33301 -81.5 -16s-46.5 -25.5 -64.5 -44.5s-32 -42 -42 -69s-15 -57.167 -15 -90.5c0 -32.667 4.66699 -62.334 14 -89.001s22.833 -49.667 40.5 -69s39 -34.333 64 -45s53.167 -16 84.5 -16
c40 0 77 10.167 111 30.5s57.667 52.5 71 96.5h-175v132h336v-396h-128v92c-22.667 -31.333 -52.334 -56.833 -89.001 -76.5s-82 -29.5 -136 -29.5z" />
    <glyph glyph-name="gdotaccent" unicode="&#x121;" horiz-adv-x="633" 
d="M325 574c-24.667 0 -45.667 8.66699 -63 26s-26 38.333 -26 63c0 24 8.66699 44.667 26 62s38.333 26 63 26c24 0 44.667 -8.66699 62 -26s26 -38 26 -62c0 -24.667 -8.66699 -45.667 -26 -63s-38 -26 -62 -26zM426 511h150v-495c0 -48 -6.33301 -88.833 -19 -122.5
s-30.667 -61.167 -54 -82.5s-51.833 -36.833 -85.5 -46.5s-71.167 -14.5 -112.5 -14.5c-76 0 -135.167 14.667 -177.5 44s-72.166 68 -89.499 116l131 53c14.667 -31.333 32 -54.5 52 -69.5s46 -22.5 78 -22.5c43.333 0 73.833 12.167 91.5 36.5s26.5 56.5 26.5 96.5v74
c-14.667 -18 -35.167 -32.833 -61.5 -44.5s-55.833 -17.5 -88.5 -17.5c-32 0 -62 6 -90 18s-52.667 29 -74 51s-38.166 48.667 -50.499 80s-18.5 66.333 -18.5 105s6.16699 73.5 18.5 104.5s29.166 57.333 50.499 79s46.333 38.334 75 50.001s59 17.5 91 17.5
c34.667 0 65.167 -6.33301 91.5 -19s46.166 -29.334 59.499 -50.001zM306 143c35.333 0 64.333 11.999 87 35.999s34 54.333 34 91s-11.167 66.834 -33.5 90.501s-51.5 35.5 -87.5 35.5c-34.667 0 -63.334 -11.833 -86.001 -35.5s-34 -53.834 -34 -90.501
c0 -18 3 -34.833 9 -50.5s14.5 -29.167 25.5 -40.5s23.833 -20.166 38.5 -26.499s30.334 -9.5 47.001 -9.5z" />
    <glyph glyph-name="uni0122" unicode="&#x122;" horiz-adv-x="791" 
d="M391 -14c-52 0 -99.9971 9.00098 -143.997 27.001s-81.833 43.167 -113.5 75.5s-56.334 71.333 -74.001 117s-26.5 95.834 -26.5 150.501c0 55.333 9.16699 105.666 27.5 150.999s43.666 84.333 75.999 117s71 58 116 76s94.5 27 148.5 27
c70.667 0 133.5 -15.333 188.5 -46s97.833 -73 128.5 -127l-144 -78c-17.333 32 -41 56.667 -71 74s-64 26 -102 26c-29.333 0 -56.5 -5.33301 -81.5 -16s-46.5 -25.5 -64.5 -44.5s-32 -42 -42 -69s-15 -57.167 -15 -90.5c0 -32.667 4.66699 -62.334 14 -89.001
s22.833 -49.667 40.5 -69s39 -34.333 64 -45s53.167 -16 84.5 -16c40 0 77 10.167 111 30.5s57.667 52.5 71 96.5h-175v132h336v-396h-128v92c-22.667 -31.333 -52.334 -56.833 -89.001 -76.5s-82 -29.5 -136 -29.5zM236.003 -171.999l96 142h132l-116 -142h-112z" />
    <glyph glyph-name="uni0123" unicode="&#x123;" horiz-adv-x="633" 
d="M486 713l-96 -142h-132l116 142h112zM426 511h150v-495c0 -48 -6.33301 -88.833 -19 -122.5s-30.667 -61.167 -54 -82.5s-51.833 -36.833 -85.5 -46.5s-71.167 -14.5 -112.5 -14.5c-76 0 -135.167 14.667 -177.5 44s-72.166 68 -89.499 116l131 53
c14.667 -31.333 32 -54.5 52 -69.5s46 -22.5 78 -22.5c43.333 0 73.833 12.167 91.5 36.5s26.5 56.5 26.5 96.5v74c-14.667 -18 -35.167 -32.833 -61.5 -44.5s-55.833 -17.5 -88.5 -17.5c-32 0 -62 6 -90 18s-52.667 29 -74 51s-38.166 48.667 -50.499 80
s-18.5 66.333 -18.5 105s6.16699 73.5 18.5 104.5s29.166 57.333 50.499 79s46.333 38.334 75 50.001s59 17.5 91 17.5c34.667 0 65.167 -6.33301 91.5 -19s46.166 -29.334 59.499 -50.001zM306 143c35.333 0 64.333 11.999 87 35.999s34 54.333 34 91
s-11.167 66.834 -33.5 90.501s-51.5 35.5 -87.5 35.5c-34.667 0 -63.334 -11.833 -86.001 -35.5s-34 -53.834 -34 -90.501c0 -18 3 -34.833 9 -50.5s14.5 -29.167 25.5 -40.5s23.833 -20.166 38.5 -26.499s30.334 -9.5 47.001 -9.5z" />
    <glyph glyph-name="Hcircumflex" unicode="&#x124;" horiz-adv-x="745" 
d="M187 745l96 136h179l96 -136h-130l-55 65l-56 -65h-130zM64 0v713h165v-284h287v284h165v-713h-165v286h-287v-286h-165z" />
    <glyph glyph-name="hcircumflex" unicode="&#x125;" horiz-adv-x="628" 
d="M315 847l-56 -65h-130l96 136h179l96 -136h-130zM387 521c61.333 0 108.001 -16.333 140.001 -49s48 -81.667 48 -147v-325h-158v300c0 36 -8.66699 61 -26 75s-39 21 -65 21c-12.667 0 -25.5 -1.83301 -38.5 -5.5s-24.667 -10.167 -35 -19.5s-19 -22 -26 -38
s-10.5 -36.333 -10.5 -61v-272h-158v750h158v-300c19.333 22 43.166 39.333 71.499 52s61.5 19 99.5 19z" />
    <glyph glyph-name="Hbar" unicode="&#x126;" horiz-adv-x="745" 
d="M743 593v-60h-62v-533h-165v286h-287v-286h-165v533h-61v60h61v120h165v-120h287v120h165v-120h62zM516 429v104h-287v-104h287z" />
    <glyph glyph-name="hbar" unicode="&#x127;" horiz-adv-x="628" 
d="M387 521c61.333 0 108.001 -16.333 140.001 -49s48 -81.667 48 -147v-325h-158v300c0 36 -8.66699 61 -26 75s-39 21 -65 21c-12.667 0 -25.5 -1.83301 -38.5 -5.5s-24.667 -10.167 -35 -19.5s-19 -22 -26 -38s-10.5 -36.333 -10.5 -61v-272h-158v582h-58v95h58v73h158
v-73h136v-95h-136v-132c19.333 22 43.166 39.333 71.499 52s61.5 19 99.5 19z" />
    <glyph glyph-name="Itilde" unicode="&#x128;" horiz-adv-x="293" 
d="M203 743c-24 0 -42.333 4.66797 -55 14.001s-23 19 -31 29c-6 6.66699 -11.833 12.5 -17.5 17.5s-12.834 7.5 -21.501 7.5c-10 0 -16.833 -6.16699 -20.5 -18.5s-5.5 -26.833 -5.5 -43.5h-75c0 42.667 9.66699 77.667 29 105s46.333 41 81 41
c23.333 0 41.333 -4.66699 54 -14s23.334 -19 32.001 -29c6 -7.33301 12 -13.333 18 -18s13 -7 21 -7c10 0 16.5 6 19.5 18s4.5 26.667 4.5 44h76c0 -20.667 -2.33301 -39.834 -7 -57.501s-11.5 -33 -20.5 -46s-20.333 -23.333 -34 -31s-29.5 -11.5 -47.5 -11.5z
M64 0.000976562v713h165v-713h-165z" />
    <glyph glyph-name="itilde" unicode="&#x129;" horiz-adv-x="272" 
d="M194 563c-24 0 -42.333 4.83398 -55 14.501s-23 19.167 -31 28.5c-6 7.33301 -11.833 13.333 -17.5 18s-12.834 7 -21.501 7c-10 0 -16.833 -6.16699 -20.5 -18.5s-5.5 -26.5 -5.5 -42.5h-75c0 42 9.66699 76.833 29 104.5s46.333 41.5 81 41.5
c23.333 0 41.333 -4.83301 54 -14.5s23.334 -19.5 32.001 -29.5c6 -7.33301 12 -13.333 18 -18s13 -7 21 -7c10 0 16.5 6 19.5 18s4.5 26.667 4.5 44h76c0 -20.667 -2.33301 -39.834 -7 -57.501s-11.5 -33 -20.5 -46s-20.333 -23.333 -34 -31s-29.5 -11.5 -47.5 -11.5z
M57 0.000976562v511h158v-511h-158z" />
    <glyph glyph-name="Imacron" unicode="&#x12a;" horiz-adv-x="293" 
d="M-18 778v99h327v-99h-327zM64 0v713h165v-713h-165z" />
    <glyph glyph-name="imacron" unicode="&#x12b;" horiz-adv-x="272" 
d="M-8 590v99h287v-99h-287zM57 0v511h158v-511h-158z" />
    <glyph glyph-name="Ibreve" unicode="&#x12c;" horiz-adv-x="293" 
d="M145 744c-26.667 0 -51.167 2 -73.5 6s-41.5 11.167 -57.5 21.5s-28.5 24.333 -37.5 42s-13.5 40.167 -13.5 67.5h99c0.666992 -21.333 7.5 -36.5 20.5 -45.5s33.833 -13.5 62.5 -13.5s49.5 4.5 62.5 13.5s20.167 24.167 21.5 45.5h99
c-0.666992 -27.333 -5.5 -49.833 -14.5 -67.5s-21.5 -31.667 -37.5 -42s-35 -17.5 -57 -21.5s-46.667 -6 -74 -6zM64 0v713h165v-713h-165z" />
    <glyph glyph-name="ibreve" unicode="&#x12d;" horiz-adv-x="272" 
d="M135 561c-27.333 0 -52.166 2.66699 -74.499 8s-41.5 14 -57.5 26s-28.333 27.667 -37 47s-13 43 -13 71h112c0 -22 5.66699 -39.333 17 -52s29 -19 53 -19c25.333 0 43.666 6.33301 54.999 19s17 30 17 52h112c0 -28 -4.5 -51.667 -13.5 -71s-21.5 -35 -37.5 -47
s-35.333 -20.667 -58 -26s-47.667 -8 -75 -8zM57 0v511h158v-511h-158z" />
    <glyph glyph-name="Iogonek" unicode="&#x12e;" horiz-adv-x="293" 
d="M229 0c-22.667 -17.333 -40.833 -34.835 -54.5 -52.502s-20.5 -33.167 -20.5 -46.5c0 -7.33301 3.16699 -13.166 9.5 -17.499s14.166 -6.5 23.499 -6.5c15.333 0 29.333 5.33301 42 16v-96c-11.333 -5.33301 -23.666 -9.16602 -36.999 -11.499s-27 -3.5 -41 -3.5
c-26 0 -49 5.16699 -69 15.5s-30 27.833 -30 52.5s10.833 49.5 32.5 74.5s48.167 50.167 79.5 75.5h-100v713h165v-713z" />
    <glyph glyph-name="iogonek" unicode="&#x12f;" horiz-adv-x="272" 
d="M136 574c-24.667 0 -45.667 8.66699 -63 26s-26 38.333 -26 63c0 24 8.66699 44.667 26 62s38.333 26 63 26c24 0 44.667 -8.66699 62 -26s26 -38 26 -62c0 -24.667 -8.66699 -45.667 -26 -63s-38 -26 -62 -26zM57 0l0.000976562 510.998h158v-511
c-22.667 -17.333 -40.834 -34.833 -54.501 -52.5s-20.5 -33.167 -20.5 -46.5c0 -7.33301 3.16699 -13.166 9.5 -17.499s14.166 -6.5 23.499 -6.5c15.333 0 29.333 5.33301 42 16v-96c-11.333 -5.33301 -23.666 -9.16602 -36.999 -11.499s-27 -3.5 -41 -3.5
c-26 0 -49 5.16699 -69 15.5s-30 27.833 -30 52.5s10.833 49.5 32.5 74.5s48.167 50.167 79.5 75.5h-93z" />
    <glyph glyph-name="Idotaccent" unicode="&#x130;" horiz-adv-x="293" 
d="M146 748c-24.667 0 -45.667 8.66699 -63 26s-26 38.333 -26 63c0 24 8.66699 44.667 26 62s38.333 26 63 26c24 0 44.667 -8.66699 62 -26s26 -38 26 -62c0 -24.667 -8.66699 -45.667 -26 -63s-38 -26 -62 -26zM64 0v713h165v-713h-165z" />
    <glyph glyph-name="dotlessi" unicode="&#x131;" horiz-adv-x="272" 
d="M57 0v511h158v-511h-158z" />
    <glyph glyph-name="IJ" unicode="&#x132;" horiz-adv-x="772" 
d="M64 0v713h165v-713h-165zM496 -14c-32.667 0 -65 4.00195 -97 12.002s-66 22.667 -102 44l69 135c18 -12.667 35.5 -22.334 52.5 -29.001s35.5 -10 55.5 -10c25.333 0 44 7.83301 56 23.5s18 43.5 18 83.5v468h165v-499c0 -36.667 -5.33301 -69.334 -16 -98.001
s-25.5 -52.5 -44.5 -71.5s-41.833 -33.5 -68.5 -43.5s-56 -15 -88 -15z" />
    <glyph glyph-name="ij" unicode="&#x133;" horiz-adv-x="542" 
d="M136 574c-24.667 0 -45.667 8.66699 -63 26s-26 38.333 -26 63c0 24 8.66699 44.667 26 62s38.333 26 63 26c24 0 44.667 -8.66699 62 -26s26 -38 26 -62c0 -24.667 -8.66699 -45.667 -26 -63s-38 -26 -62 -26zM405 574c-24.667 0 -45.667 8.66699 -63 26
s-26 38.333 -26 63c0 24 8.66699 44.667 26 62s38.333 26 63 26c24 0 44.667 -8.66699 62 -26s26 -38 26 -62c0 -24.667 -8.66699 -45.667 -26 -63s-38 -26 -62 -26zM57 0v511h158v-511h-158zM220 -122c22 0 39.8301 2.66895 53.4971 8.00195s24.334 13.666 32.001 24.999
s12.834 25.666 15.501 42.999s4 38.333 4 63v494h159v-494c0 -86.667 -20.167 -151.667 -60.5 -195s-108.166 -65 -203.499 -65v121z" />
    <glyph glyph-name="Jcircumflex" unicode="&#x134;" horiz-adv-x="479" 
d="M152 745l96 136h179l96 -136h-130l-55 65l-56 -65h-130zM203 -14c-32.667 0 -65 4.00195 -97 12.002s-66 22.667 -102 44l69 135c18 -12.667 35.5 -22.334 52.5 -29.001s35.5 -10 55.5 -10c25.333 0 44 7.83301 56 23.5s18 43.5 18 83.5v468h165v-499
c0 -36.667 -5.33301 -69.334 -16 -98.001s-25.5 -52.5 -44.5 -71.5s-41.833 -33.5 -68.5 -43.5s-56 -15 -88 -15z" />
    <glyph glyph-name="jcircumflex" unicode="&#x135;" horiz-adv-x="270" 
d="M-52 571l96 142h178l96 -142h-130l-55 69l-55 -69h-130zM-52 -122c22 0 39.8301 2.66895 53.4971 8.00195s24.334 13.666 32.001 24.999s12.834 25.666 15.501 42.999s4 38.333 4 63v494h159v-494c0 -86.667 -20.167 -151.667 -60.5 -195s-108.166 -65 -203.499 -65v121z
" />
    <glyph glyph-name="uni0136" unicode="&#x136;" horiz-adv-x="711" 
d="M420 372l285 -372h-207l-219 296h-50v-296h-165v713h165v-275h49l220 275h201zM180 -172l96 142h132l-116 -142h-112z" />
    <glyph glyph-name="uni0137" unicode="&#x137;" horiz-adv-x="602" 
d="M372 271l220 -271h-190l-161 207h-25v-207h-158v750h158v-435h22l162 196h177zM127 -172l96 142h132l-116 -142h-112z" />
    <glyph glyph-name="kgreenlandic" unicode="&#x138;" horiz-adv-x="602" 
d="M372 271l220 -271h-190l-161 207h-25v-207h-158v511h158v-196h23l162 196h177z" />
    <glyph glyph-name="Lacute" unicode="&#x139;" horiz-adv-x="457" 
d="M77 743l85 138h167l-114 -138h-138zM64 0v713h165v-569h219v-144h-384z" />
    <glyph glyph-name="lacute" unicode="&#x13a;" horiz-adv-x="273" 
d="M67 811l87 142h168l-117 -142h-138zM58 0v750h158v-750h-158z" />
    <glyph glyph-name="uni013B" unicode="&#x13b;" horiz-adv-x="457" 
d="M64 0v713h165v-569h219v-144h-384zM90 -172l96 142h132l-116 -142h-112z" />
    <glyph glyph-name="uni013C" unicode="&#x13c;" horiz-adv-x="273" 
d="M58 0v750h158v-750h-158zM-26 -172l96 142h132l-116 -142h-112z" />
    <glyph glyph-name="Lcaron" unicode="&#x13d;" horiz-adv-x="446" 
d="M64 0v713h165v-569h219v-144h-384zM301 387l62 326h161l-110 -326h-113z" />
    <glyph glyph-name="lcaron" unicode="&#x13e;" horiz-adv-x="435" 
d="M58 0v750h158v-750h-158zM277 387l61 326h162l-110 -326h-113z" />
    <glyph glyph-name="Ldot" unicode="&#x13f;" horiz-adv-x="529" 
d="M64 0v713h165v-569h219v-144h-384zM428 266c-24 0 -45 8.66797 -63 26.001s-27 38.666 -27 63.999c0 12 2.5 23.5 7.5 34.5s11.5 20.667 19.5 29s17.5 15 28.5 20s22.5 7.5 34.5 7.5s23.333 -2.5 34 -7.5s20.334 -11.667 29.001 -20s15.5 -18 20.5 -29
s7.5 -22.5 7.5 -34.5c0 -12.667 -2.5 -24.5 -7.5 -35.5s-11.833 -20.5 -20.5 -28.5s-18.334 -14.333 -29.001 -19s-22 -7 -34 -7z" />
    <glyph glyph-name="ldot" unicode="&#x140;" horiz-adv-x="453" 
d="M58 0v750h158v-750h-158zM376 285c-24 0 -45 8.66797 -63 26.001s-27 38.666 -27 63.999c0 12 2.5 23.5 7.5 34.5s11.5 20.5 19.5 28.5s17.5 14.5 28.5 19.5s22.5 7.5 34.5 7.5s23.333 -2.5 34 -7.5s20.167 -11.5 28.5 -19.5s15 -17.5 20 -28.5s7.5 -22.5 7.5 -34.5
c0 -12.667 -2.5 -24.5 -7.5 -35.5s-11.667 -20.5 -20 -28.5s-17.833 -14.333 -28.5 -19s-22 -7 -34 -7z" />
    <glyph glyph-name="Lslash" unicode="&#x141;" horiz-adv-x="457" 
d="M229 144h219v-144h-384v201l-62 -46v131l62 46v381h165v-259l100 74v-132l-100 -74v-178z" />
    <glyph glyph-name="lslash" unicode="&#x142;" horiz-adv-x="273" 
d="M299 527v-132l-83 -61v-334h-158v217l-86 -63v131l86 64v401h158v-284z" />
    <glyph glyph-name="Nacute" unicode="&#x143;" horiz-adv-x="785" 
d="M577 881l-114 -138h-138l85 138h167zM556 713h165v-713h-198l-294 480v-480h-165v713h195l297 -479v479z" />
    <glyph glyph-name="nacute" unicode="&#x144;" horiz-adv-x="628" 
d="M494 713l-117 -142h-138l87 142h168zM378 521c66 0 115.165 -15.668 147.498 -47.001s48.5 -75.333 48.5 -132v-342h-158v309c0 31.333 -8.66699 53.666 -26 66.999s-38.333 20 -63 20c-13.333 0 -26.166 -1.66699 -38.499 -5s-23.5 -9.16602 -33.5 -17.499
s-18.5 -19.166 -25.5 -32.499s-11.5 -30 -13.5 -50v-291h-158v511h149l6 -58c18.667 21.333 41.834 38 69.501 50s59.5 18 95.5 18z" />
    <glyph glyph-name="uni0145" unicode="&#x145;" horiz-adv-x="785" 
d="M556 713h165v-713h-198l-294 480v-480h-165v713h195l297 -479v479zM232 -172l96 142h132l-116 -142h-112z" />
    <glyph glyph-name="uni0146" unicode="&#x146;" horiz-adv-x="628" 
d="M378 521c66 0 115.165 -15.668 147.498 -47.001s48.5 -75.333 48.5 -132v-342h-158v309c0 31.333 -8.66699 53.666 -26 66.999s-38.333 20 -63 20c-13.333 0 -26.166 -1.66699 -38.499 -5s-23.5 -9.16602 -33.5 -17.499s-18.5 -19.166 -25.5 -32.499s-11.5 -30 -13.5 -50
v-291h-158v511h149l6 -58c18.667 21.333 41.834 38 69.501 50s59.5 18 95.5 18zM146.998 -172.001l96 142h132l-116 -142h-112z" />
    <glyph glyph-name="Ncaron" unicode="&#x147;" horiz-adv-x="785" 
d="M483 745h-179l-96 136h130l56 -65l55 65h130zM556 713h165v-713h-198l-294 480v-480h-165v713h195l297 -479v479z" />
    <glyph glyph-name="ncaron" unicode="&#x148;" horiz-adv-x="628" 
d="M398 571h-178l-96 142h130l55 -70l55 70h130zM378 521c66 0 115.165 -15.668 147.498 -47.001s48.5 -75.333 48.5 -132v-342h-158v309c0 31.333 -8.66699 53.666 -26 66.999s-38.333 20 -63 20c-13.333 0 -26.166 -1.66699 -38.499 -5s-23.5 -9.16602 -33.5 -17.499
s-18.5 -19.166 -25.5 -32.499s-11.5 -30 -13.5 -50v-291h-158v511h149l6 -58c18.667 21.333 41.834 38 69.501 50s59.5 18 95.5 18z" />
    <glyph glyph-name="napostrophe" unicode="&#x149;" horiz-adv-x="819" 
d="M109 713h162l-110 -326h-113zM570 521c66 0 115.166 -15.668 147.499 -47.001s48.5 -75.333 48.5 -132v-342h-158v309c0 31.333 -8.66699 53.666 -26 66.999s-38.333 20 -63 20c-13.333 0 -26.333 -1.66699 -39 -5s-24 -9.16602 -34 -17.499s-18.333 -19.166 -25 -32.499
s-11 -30 -13 -50v-291h-159v511h150l6 -58c18.667 21.333 41.834 38 69.501 50s59.5 18 95.5 18z" />
    <glyph glyph-name="Eng" unicode="&#x14a;" horiz-adv-x="785" 
d="M556 713l165 -0.000976562v-718c0 -73.333 -22 -129.666 -66 -168.999s-104.333 -59 -181 -59v121c19.333 0 35 5.16699 47 15.5s18 26.833 18 49.5c0 14 -5.33301 29.667 -16 47l-294 481v-481h-165v713h195l297 -477v477z" />
    <glyph glyph-name="eng" unicode="&#x14b;" horiz-adv-x="628" 
d="M378 521c66 0 115.163 -15.666 147.496 -46.999s48.5 -75.333 48.5 -132v-325c0 -86.667 -20.167 -151.667 -60.5 -195s-107.833 -65 -202.5 -65v121c22 0 39.833 2.66699 53.5 8s24.334 13.666 32.001 24.999s12.834 25.666 15.501 42.999s4 38.333 4 63v292
c0 31.333 -8.66699 53.666 -26 66.999s-38.333 20 -63 20c-13.333 0 -26.166 -1.66699 -38.499 -5s-23.5 -9.16602 -33.5 -17.499s-18.5 -19.166 -25.5 -32.499s-11.5 -30 -13.5 -50v-291h-158v511h149l6 -58c18.667 21.333 41.834 38 69.501 50s59.5 18 95.5 18z" />
    <glyph glyph-name="Omacron" unicode="&#x14c;" horiz-adv-x="801" 
d="M237 778v99h327v-99h-327zM401 -14c-54 0 -103.5 9 -148.5 27s-83.667 43.167 -116 75.5s-57.666 71.333 -75.999 117s-27.5 95.834 -27.5 150.501c0 55.333 9.16699 105.666 27.5 150.999s43.666 84.333 75.999 117s71 58 116 76s94.5 27 148.5 27
c53.333 0 102.5 -9 147.5 -27s83.833 -43.333 116.5 -76s58 -71.667 76 -117s27 -95.666 27 -150.999c0 -54.667 -9 -104.834 -27 -150.501s-43.333 -84.667 -76 -117s-71.5 -57.5 -116.5 -75.5s-94.167 -27 -147.5 -27zM401 137c29.333 0 56.333 5.16699 81 15.5
s46 25.166 64 44.499s32 42.5 42 69.5s15 56.833 15 89.5c0 33.333 -5 63.5 -15 90.5s-24 50 -42 69s-39.333 33.833 -64 44.5s-51.667 16 -81 16s-56.5 -5.33301 -81.5 -16s-46.5 -25.5 -64.5 -44.5s-32 -42 -42 -69s-15 -57.167 -15 -90.5c0 -32.667 5 -62.5 15 -89.5
s24 -50.167 42 -69.5s39.5 -34.166 64.5 -44.499s52.167 -15.5 81.5 -15.5z" />
    <glyph glyph-name="omacron" unicode="&#x14d;" horiz-adv-x="639" 
d="M178 590v99h287v-99h-287zM320 -10c-42 0 -80.667 6.16699 -116 18.5s-65.5 29.833 -90.5 52.5s-44.5 50.334 -58.5 83.001s-21 70 -21 112c0 41.333 7 78.333 21 111s33.5 60.334 58.5 83.001s55.167 40.167 90.5 52.5s74 18.5 116 18.5s80.5 -6.16699 115.5 -18.5
s65 -29.833 90 -52.5s44.5 -50.334 58.5 -83.001s21 -69.667 21 -111c0 -42 -7 -79.333 -21 -112s-33.5 -60.334 -58.5 -83.001s-55 -40.167 -90 -52.5s-73.5 -18.5 -115.5 -18.5zM320 115c38.667 0 69.5 13 92.5 39s34.5 60 34.5 102c0 41.333 -11.5 75 -34.5 101
s-53.833 39 -92.5 39c-39.333 0 -70.5 -13 -93.5 -39s-34.5 -59.667 -34.5 -101c0 -42 11.5 -76 34.5 -102s54.167 -39 93.5 -39z" />
    <glyph glyph-name="Obreve" unicode="&#x14e;" horiz-adv-x="801" 
d="M400 744c-26.667 0 -51.166 2 -73.499 6s-41.5 11.167 -57.5 21.5s-28.333 24.333 -37 42s-13.334 40.167 -14.001 67.5h99c0.666992 -21.333 7.5 -36.5 20.5 -45.5s33.833 -13.5 62.5 -13.5s49.5 4.5 62.5 13.5s20.167 24.167 21.5 45.5h99
c-0.666992 -27.333 -5.5 -49.833 -14.5 -67.5s-21.5 -31.667 -37.5 -42s-35 -17.5 -57 -21.5s-46.667 -6 -74 -6zM401.001 -14c-54 0 -103.5 9 -148.5 27s-83.667 43.167 -116 75.5s-57.666 71.333 -75.999 117s-27.5 95.834 -27.5 150.501
c0 55.333 9.16699 105.666 27.5 150.999s43.666 84.333 75.999 117s71 58 116 76s94.5 27 148.5 27c53.333 0 102.5 -9 147.5 -27s83.833 -43.333 116.5 -76s58 -71.667 76 -117s27 -95.666 27 -150.999c0 -54.667 -9 -104.834 -27 -150.501s-43.333 -84.667 -76 -117
s-71.5 -57.5 -116.5 -75.5s-94.167 -27 -147.5 -27zM401.001 137c29.333 0 56.333 5.16699 81 15.5s46 25.166 64 44.499s32 42.5 42 69.5s15 56.833 15 89.5c0 33.333 -5 63.5 -15 90.5s-24 50 -42 69s-39.333 33.833 -64 44.5s-51.667 16 -81 16s-56.5 -5.33301 -81.5 -16
s-46.5 -25.5 -64.5 -44.5s-32 -42 -42 -69s-15 -57.167 -15 -90.5c0 -32.667 5 -62.5 15 -89.5s24 -50.167 42 -69.5s39.5 -34.166 64.5 -44.499s52.167 -15.5 81.5 -15.5z" />
    <glyph glyph-name="obreve" unicode="&#x14f;" horiz-adv-x="639" 
d="M321 561c-27.333 0 -52.166 2.66699 -74.499 8s-41.5 14 -57.5 26s-28.333 27.667 -37 47s-13 43 -13 71h112c0 -22 5.66699 -39.333 17 -52s29 -19 53 -19c25.333 0 43.666 6.33301 54.999 19s17 30 17 52h112c0 -28 -4.5 -51.667 -13.5 -71s-21.5 -35 -37.5 -47
s-35.333 -20.667 -58 -26s-47.667 -8 -75 -8zM320 -10c-42 0 -80.667 6.16699 -116 18.5s-65.5 29.833 -90.5 52.5s-44.5 50.334 -58.5 83.001s-21 70 -21 112c0 41.333 7 78.333 21 111s33.5 60.334 58.5 83.001s55.167 40.167 90.5 52.5s74 18.5 116 18.5
s80.5 -6.16699 115.5 -18.5s65 -29.833 90 -52.5s44.5 -50.334 58.5 -83.001s21 -69.667 21 -111c0 -42 -7 -79.333 -21 -112s-33.5 -60.334 -58.5 -83.001s-55 -40.167 -90 -52.5s-73.5 -18.5 -115.5 -18.5zM320 115c38.667 0 69.5 13 92.5 39s34.5 60 34.5 102
c0 41.333 -11.5 75 -34.5 101s-53.833 39 -92.5 39c-39.333 0 -70.5 -13 -93.5 -39s-34.5 -59.667 -34.5 -101c0 -42 11.5 -76 34.5 -102s54.167 -39 93.5 -39z" />
    <glyph glyph-name="Ohungarumlaut" unicode="&#x150;" horiz-adv-x="801" 
d="M228 743l93 138h159l-114 -138h-138zM435 743l94 138h158l-114 -138h-138zM401 -14c-54 0 -103.5 9 -148.5 27s-83.667 43.167 -116 75.5s-57.666 71.333 -75.999 117s-27.5 95.834 -27.5 150.501c0 55.333 9.16699 105.666 27.5 150.999s43.666 84.333 75.999 117
s71 58 116 76s94.5 27 148.5 27c53.333 0 102.5 -9 147.5 -27s83.833 -43.333 116.5 -76s58 -71.667 76 -117s27 -95.666 27 -150.999c0 -54.667 -9 -104.834 -27 -150.501s-43.333 -84.667 -76 -117s-71.5 -57.5 -116.5 -75.5s-94.167 -27 -147.5 -27zM401 137
c29.333 0 56.333 5.16699 81 15.5s46 25.166 64 44.499s32 42.5 42 69.5s15 56.833 15 89.5c0 33.333 -5 63.5 -15 90.5s-24 50 -42 69s-39.333 33.833 -64 44.5s-51.667 16 -81 16s-56.5 -5.33301 -81.5 -16s-46.5 -25.5 -64.5 -44.5s-32 -42 -42 -69
s-15 -57.167 -15 -90.5c0 -32.667 5 -62.5 15 -89.5s24 -50.167 42 -69.5s39.5 -34.166 64.5 -44.499s52.167 -15.5 81.5 -15.5z" />
    <glyph glyph-name="ohungarumlaut" unicode="&#x151;" horiz-adv-x="639" 
d="M149 571l96 142h159l-117 -142h-138zM356 571l96 142h159l-117 -142h-138zM320 -10c-42 0 -80.667 6.16699 -116 18.5s-65.5 29.833 -90.5 52.5s-44.5 50.334 -58.5 83.001s-21 70 -21 112c0 41.333 7 78.333 21 111s33.5 60.334 58.5 83.001s55.167 40.167 90.5 52.5
s74 18.5 116 18.5s80.5 -6.16699 115.5 -18.5s65 -29.833 90 -52.5s44.5 -50.334 58.5 -83.001s21 -69.667 21 -111c0 -42 -7 -79.333 -21 -112s-33.5 -60.334 -58.5 -83.001s-55 -40.167 -90 -52.5s-73.5 -18.5 -115.5 -18.5zM320 115c38.667 0 69.5 13 92.5 39
s34.5 60 34.5 102c0 41.333 -11.5 75 -34.5 101s-53.833 39 -92.5 39c-39.333 0 -70.5 -13 -93.5 -39s-34.5 -59.667 -34.5 -101c0 -42 11.5 -76 34.5 -102s54.167 -39 93.5 -39z" />
    <glyph glyph-name="OE" unicode="&#x152;" horiz-adv-x="948" 
d="M418 0c-60 0 -110.5 5.49805 -151.5 16.498s-76.5 27.167 -106.5 48.5c-42 30.667 -73.667 70.667 -95 120s-32 106.333 -32 171s10.667 121.834 32 171.501s53 89.834 95 120.501c30 21.333 65.5 37.5 106.5 48.5s91.5 16.5 151.5 16.5h485v-145h-258v-140h230v-143
h-230v-141h258v-144h-485zM479 143.998l-0.000976562 424h-60c-59.333 0 -107 -12.333 -143 -37c-26 -17.333 -45.5 -40.833 -58.5 -70.5s-19.5 -64.5 -19.5 -104.5c0 -39.333 6.5 -73.833 19.5 -103.5s32.5 -53.167 58.5 -70.5c17.333 -12 37.833 -21.333 61.5 -28
s50.834 -10 81.501 -10h60z" />
    <glyph glyph-name="oe" unicode="&#x153;" horiz-adv-x="1021" 
d="M982 224l-376.997 -0.000976562c3.33301 -36.667 16.5 -64.334 39.5 -83.001s50.5 -28 82.5 -28c24.667 0 45.667 5.16699 63 15.5s30.333 26.166 39 47.499l146 -20c-16 -53.333 -46 -94.333 -90 -123s-96.333 -43 -157 -43c-43.333 0 -82 6 -116 18
s-63.333 29.333 -88 52c-25.333 -22.667 -55.166 -40 -89.499 -52s-72.5 -18 -114.5 -18s-80.667 6.16699 -116 18.5s-65.5 29.833 -90.5 52.5s-44.5 50.334 -58.5 83.001s-21 70 -21 112c0 41.333 7 78.333 21 111s33.5 60.334 58.5 83.001s55.167 40.167 90.5 52.5
s74 18.5 116 18.5s80.333 -6 115 -18s64.667 -29.333 90 -52c24 22.667 52.667 40 86 52s70.666 18 111.999 18c37.333 0 71.666 -5.16699 102.999 -15.5s58.666 -26.166 81.999 -47.499s41.666 -48.333 54.999 -81s20 -71.667 20 -117zM724.003 403.999
c-30.667 0 -55.666 -6.66699 -74.999 -20s-32.666 -34.666 -39.999 -63.999h218c-4.66699 27.333 -16.334 48.166 -35.001 62.499s-41.334 21.5 -68.001 21.5zM320.004 114.999c38.667 0 69.5 13 92.5 39s34.5 60 34.5 102c0 41.333 -11.5 75 -34.5 101s-53.833 39 -92.5 39
c-39.333 0 -70.5 -13 -93.5 -39s-34.5 -59.667 -34.5 -101c0 -42 11.5 -76 34.5 -102s54.167 -39 93.5 -39z" />
    <glyph glyph-name="Racute" unicode="&#x154;" horiz-adv-x="650" 
d="M490 881l-114 -138h-138l85 138h167zM436 0l-176.001 269.998h-31v-270h-165v713h239c52 0 94.833 -4.83301 128.5 -14.5s62.167 -24.167 85.5 -43.5c20.667 -17.333 36.834 -39.666 48.501 -66.999s17.5 -60.333 17.5 -99c0 -42.667 -8.66699 -82.167 -26 -118.5
s-44.333 -64.166 -81 -83.499c-10.667 -5.33301 -20 -9.33301 -28 -12l190 -275h-202zM228.999 574.998l-0.000976562 -190.999h51c8 0 16.833 0.166992 26.5 0.5s19.334 1.16602 29.001 2.49902s19 3.33301 28 6s16.833 6.66699 23.5 12c20.667 14.667 31 39.334 31 74.001
c0 18.667 -2.83301 34.167 -8.5 46.5s-13.5 22.166 -23.5 29.499c-14 9.33301 -30.833 15 -50.5 17s-38.167 3 -55.5 3h-51z" />
    <glyph glyph-name="racute" unicode="&#x155;" horiz-adv-x="401" 
d="M375 713l-117 -142h-138l87 142h168zM216 444c15.333 23.333 37.5 42 66.5 56s62.5 21 100.5 21v-147c-29.333 0 -54.5 -2.16699 -75.5 -6.5s-38.333 -12 -52 -23s-23.667 -25.667 -30 -44s-9.5 -41.5 -9.5 -69.5v-231h-158v511h158v-67z" />
    <glyph glyph-name="uni0156" unicode="&#x156;" horiz-adv-x="650" 
d="M638 0l-202.001 -0.00195312l-176 270h-31v-270h-165v713h239c52 0 94.833 -4.83301 128.5 -14.5s62.167 -24.167 85.5 -43.5c20.667 -17.333 36.834 -39.666 48.501 -66.999s17.5 -60.333 17.5 -99c0 -42.667 -8.66699 -82.167 -26 -118.5s-44.333 -64.166 -81 -83.499
c-10.667 -5.33301 -20 -9.33301 -28 -12zM228.999 574.998l-0.000976562 -190.999h51c8 0 16.833 0.166992 26.5 0.5s19.334 1.16602 29.001 2.49902s19 3.33301 28 6s16.833 6.66699 23.5 12c20.667 14.667 31 39.334 31 74.001c0 18.667 -2.83301 34.167 -8.5 46.5
s-13.5 22.166 -23.5 29.499c-14 9.33301 -30.833 15 -50.5 17s-38.167 3 -55.5 3h-51zM144.998 -172.001l96 142h132l-116 -142h-112z" />
    <glyph glyph-name="uni0157" unicode="&#x157;" horiz-adv-x="401" 
d="M216 444c15.333 23.333 37.5 42 66.5 56s62.5 21 100.5 21v-147c-29.333 0 -54.5 -2.16699 -75.5 -6.5s-38.333 -12 -52 -23s-23.667 -25.667 -30 -44s-9.5 -41.5 -9.5 -69.5v-231h-158v511h158v-67zM-24 -172l96 142h132l-116 -142h-112z" />
    <glyph glyph-name="Rcaron" unicode="&#x158;" horiz-adv-x="650" 
d="M397 745h-179l-96 136h130l56 -65l55 65h130zM436 0l-176.001 269.998h-31v-270h-165v713h239c52 0 94.833 -4.83301 128.5 -14.5s62.167 -24.167 85.5 -43.5c20.667 -17.333 36.834 -39.666 48.501 -66.999s17.5 -60.333 17.5 -99
c0 -42.667 -8.66699 -82.167 -26 -118.5s-44.333 -64.166 -81 -83.499c-10.667 -5.33301 -20 -9.33301 -28 -12l190 -275h-202zM228.999 574.998l-0.000976562 -190.999h51c8 0 16.833 0.166992 26.5 0.5s19.334 1.16602 29.001 2.49902s19 3.33301 28 6
s16.833 6.66699 23.5 12c20.667 14.667 31 39.334 31 74.001c0 18.667 -2.83301 34.167 -8.5 46.5s-13.5 22.166 -23.5 29.499c-14 9.33301 -30.833 15 -50.5 17s-38.167 3 -55.5 3h-51z" />
    <glyph glyph-name="rcaron" unicode="&#x159;" horiz-adv-x="401" 
d="M279 571h-178l-96 142h130l55 -70l55 70h130zM216 444c15.333 23.333 37.5 42 66.5 56s62.5 21 100.5 21v-147c-29.333 0 -54.5 -2.16699 -75.5 -6.5s-38.333 -12 -52 -23s-23.667 -25.667 -30 -44s-9.5 -41.5 -9.5 -69.5v-231h-158v511h158v-67z" />
    <glyph glyph-name="Sacute" unicode="&#x15a;" horiz-adv-x="615" 
d="M231 743l85 138h167l-114 -138h-138zM307 -14c-38.667 0 -75.0049 4.83008 -109.005 14.4971s-64.333 23.667 -91 42s-48.667 41 -66 68s-28.666 57.833 -33.999 92.5l163 35c10.667 -42 27.834 -72.167 51.501 -90.5s52.834 -27.5 87.501 -27.5
c31.333 0 55.333 6.5 72 19.5s25 31.167 25 54.5c0 14 -3.83301 26 -11.5 36s-18 18.667 -31 26s-28 14 -45 20s-35.167 12 -54.5 18c-26 8 -52.667 17 -80 27s-52.166 23.167 -74.499 39.5s-40.666 36.666 -54.999 60.999s-21.5 54.833 -21.5 91.5
c0 32 6.33301 61.167 19 87.5s30.167 48.833 52.5 67.5s49.333 33.167 81 43.5s66.5 15.5 104.5 15.5c31.333 0 62.5 -3.5 93.5 -10.5s59.5 -18.333 85.5 -34s48.333 -36 67 -61s32 -55.5 40 -91.5l-149 -34c-11.333 34 -27 58.5 -47 73.5s-46.667 22.5 -80 22.5
c-30 0 -54.167 -6.16699 -72.5 -18.5s-27.5 -29.5 -27.5 -51.5c0 -12 3.5 -22.167 10.5 -30.5s16.5 -15.666 28.5 -21.999s25.833 -11.833 41.5 -16.5l50.5 -15c27.333 -8 55.5 -17 84.5 -27s55.5 -23.5 79.5 -40.5s43.833 -38.5 59.5 -64.5s23.5 -59 23.5 -99
c0 -33.333 -6.5 -63.666 -19.5 -90.999s-31.333 -50.666 -55 -69.999s-52.167 -34.166 -85.5 -44.499s-70.333 -15.5 -111 -15.5z" />
    <glyph glyph-name="sacute" unicode="&#x15b;" horiz-adv-x="524" 
d="M189 571l87 142h168l-117 -142h-138zM274 -10c-30 0 -58.501 2.82617 -85.501 8.49316s-51.167 14.334 -72.5 26.001s-39.166 26.5 -53.499 44.5s-24.166 39.333 -29.499 64l132 37c8.66699 -27.333 21.5 -46.166 38.5 -56.499s37.167 -15.5 60.5 -15.5
c17.333 0 33.5 3.16699 48.5 9.5s22.5 17.833 22.5 34.5c0 10 -3 18.333 -9 25s-13.833 12.334 -23.5 17.001s-20.834 8.5 -33.501 11.5s-26 5.83301 -40 8.5c-28 5.33301 -53.333 11.833 -76 19.5s-42 17.334 -58 29.001s-28.167 26 -36.5 43s-12.5 37.5 -12.5 61.5
c0 52 19 92.333 57 121s89.333 43 154 43c24.667 0 48.834 -2.5 72.501 -7.5s45.167 -12.667 64.5 -23s36.333 -23.833 51 -40.5s25.334 -37 32.001 -61l-139 -30c-8 21.333 -19.167 36.333 -33.5 45s-31.833 13 -52.5 13c-18.667 0 -33.834 -3.33301 -45.501 -10
s-17.5 -16.667 -17.5 -30c0 -15.333 10.167 -26.666 30.5 -33.999s44.833 -14 73.5 -20c31.333 -6.66699 59 -14.167 83 -22.5s44.167 -18.666 60.5 -30.999s28.833 -27.166 37.5 -44.499s13 -39 13 -65c0 -30.667 -6 -56.667 -18 -78s-27.833 -38.833 -47.5 -52.5
s-42.334 -23.667 -68.001 -30s-52.167 -9.5 -79.5 -9.5z" />
    <glyph glyph-name="Scedilla" unicode="&#x15e;" horiz-adv-x="615" 
d="M578 207c0 -32 -5.83789 -60.998 -17.5049 -86.998s-28.167 -48.5 -49.5 -67.5s-47.166 -34.167 -77.499 -45.5s-64.166 -18 -101.499 -20l-26 -38c10 2 19 3 27 3c28 0 50.333 -8.5 67 -25.5s25 -39.167 25 -66.5c0 -30 -10.667 -55.5 -32 -76.5
s-49.666 -31.5 -84.999 -31.5c-38 0 -67.333 7.16699 -88 21.5s-34.334 32.166 -41.001 53.499l86 23c3.33301 -9.33301 8.66602 -16.333 15.999 -21s15.333 -7 24 -7c10.667 0 20 3.33301 28 10s12 16 12 28c0 13.333 -4 23.166 -12 29.499s-17.333 9.5 -28 9.5
c-15.333 0 -27 -5.66699 -35 -17l-73 31l47 78c-31.333 4.66699 -60.5 12.667 -87.5 24s-50.833 26 -71.5 44s-37.667 39 -51 63s-22.333 51 -27 81l163 35c10.667 -42 27.834 -72.167 51.501 -90.5s52.834 -27.5 87.501 -27.5c31.333 0 55.333 6.5 72 19.5
s25 31.167 25 54.5c0 14 -3.83301 26 -11.5 36s-18 18.667 -31 26s-28 14 -45 20s-35.167 12 -54.5 18c-26 8 -52.667 17 -80 27s-52.166 23.167 -74.499 39.5s-40.666 36.666 -54.999 60.999s-21.5 54.833 -21.5 91.5c0 32 6.33301 61.167 19 87.5s30.167 48.833 52.5 67.5
s49.333 33.167 81 43.5s66.5 15.5 104.5 15.5c31.333 0 62.5 -3.5 93.5 -10.5s59.5 -18.333 85.5 -34s48.333 -36 67 -61s32 -55.5 40 -91.5l-149 -34c-11.333 34 -27 58.5 -47 73.5s-46.667 22.5 -80 22.5c-30 0 -54.167 -6.16699 -72.5 -18.5s-27.5 -29.5 -27.5 -51.5
c0 -12 3.5 -22.167 10.5 -30.5s16.5 -15.666 28.5 -21.999s25.833 -11.833 41.5 -16.5l50.5 -15c27.333 -8 55.5 -17 84.5 -27s55.5 -23.5 79.5 -40.5s43.833 -38.5 59.5 -64.5s23.5 -59 23.5 -99z" />
    <glyph glyph-name="scedilla" unicode="&#x15f;" horiz-adv-x="524" 
d="M487 160c0 -27.333 -4.83203 -51.1699 -14.499 -71.5029s-22.834 -37.333 -39.501 -51s-36 -24.334 -58 -32.001s-45 -12.5 -69 -14.5l-29 -42c10 2 19 3 27 3c28 0 50.333 -8.5 67 -25.5s25 -39.167 25 -66.5c0 -30 -10.667 -55.5 -32 -76.5
s-49.666 -31.5 -84.999 -31.5c-38 0 -67.333 7.16699 -88 21.5s-34.334 32.166 -41.001 53.499l86 23c3.33301 -9.33301 8.66602 -16.333 15.999 -21s15.333 -7 24 -7c10.667 0 20 3.33301 28 10s12 16 12 28c0 13.333 -4 23.166 -12 29.499s-17.333 9.5 -28 9.5
c-15.333 0 -27 -5.66699 -35 -17l-73 31l49 81c-47.333 6 -87.666 20.333 -120.999 43s-54.333 54.667 -63 96l132 37c8.66699 -27.333 21.5 -46.166 38.5 -56.499s37.167 -15.5 60.5 -15.5c17.333 0 33.5 3.16699 48.5 9.5s22.5 17.833 22.5 34.5c0 10 -3 18.333 -9 25
s-13.833 12.334 -23.5 17.001s-20.834 8.5 -33.501 11.5s-26 5.83301 -40 8.5c-28 5.33301 -53.333 11.833 -76 19.5s-42 17.334 -58 29.001s-28.167 26 -36.5 43s-12.5 37.5 -12.5 61.5c0 52 19 92.333 57 121s89.333 43 154 43c24.667 0 48.834 -2.5 72.501 -7.5
s45.167 -12.667 64.5 -23s36.333 -23.833 51 -40.5s25.334 -37 32.001 -61l-139 -30c-8 21.333 -19.167 36.333 -33.5 45s-31.833 13 -52.5 13c-18.667 0 -33.834 -3.33301 -45.501 -10s-17.5 -16.667 -17.5 -30c0 -15.333 10.167 -26.666 30.5 -33.999s44.833 -14 73.5 -20
c31.333 -6.66699 59 -14.167 83 -22.5s44.167 -18.666 60.5 -30.999s28.833 -27.166 37.5 -44.499s13 -39 13 -65z" />
    <glyph glyph-name="Scaron" unicode="&#x160;" horiz-adv-x="615" 
d="M211 745l-96 136h130l56 -65l55 65h130l-96 -136h-179zM307 -14c-38.667 0 -75.0049 4.83008 -109.005 14.4971s-64.333 23.667 -91 42s-48.667 41 -66 68s-28.666 57.833 -33.999 92.5l163 35c10.667 -42 27.834 -72.167 51.501 -90.5s52.834 -27.5 87.501 -27.5
c31.333 0 55.333 6.5 72 19.5s25 31.167 25 54.5c0 14 -3.83301 26 -11.5 36s-18 18.667 -31 26s-28 14 -45 20s-35.167 12 -54.5 18c-26 8 -52.667 17 -80 27s-52.166 23.167 -74.499 39.5s-40.666 36.666 -54.999 60.999s-21.5 54.833 -21.5 91.5
c0 32 6.33301 61.167 19 87.5s30.167 48.833 52.5 67.5s49.333 33.167 81 43.5s66.5 15.5 104.5 15.5c31.333 0 62.5 -3.5 93.5 -10.5s59.5 -18.333 85.5 -34s48.333 -36 67 -61s32 -55.5 40 -91.5l-149 -34c-11.333 34 -27 58.5 -47 73.5s-46.667 22.5 -80 22.5
c-30 0 -54.167 -6.16699 -72.5 -18.5s-27.5 -29.5 -27.5 -51.5c0 -12 3.5 -22.167 10.5 -30.5s16.5 -15.666 28.5 -21.999s25.833 -11.833 41.5 -16.5l50.5 -15c27.333 -8 55.5 -17 84.5 -27s55.5 -23.5 79.5 -40.5s43.833 -38.5 59.5 -64.5s23.5 -59 23.5 -99
c0 -33.333 -6.5 -63.666 -19.5 -90.999s-31.333 -50.666 -55 -69.999s-52.167 -34.166 -85.5 -44.499s-70.333 -15.5 -111 -15.5z" />
    <glyph glyph-name="scaron" unicode="&#x161;" horiz-adv-x="524" 
d="M170 571l-96 142h130l55 -70l55 70h130l-96 -142h-178zM274 -10c-30 0 -58.501 2.82617 -85.501 8.49316s-51.167 14.334 -72.5 26.001s-39.166 26.5 -53.499 44.5s-24.166 39.333 -29.499 64l132 37c8.66699 -27.333 21.5 -46.166 38.5 -56.499s37.167 -15.5 60.5 -15.5
c17.333 0 33.5 3.16699 48.5 9.5s22.5 17.833 22.5 34.5c0 10 -3 18.333 -9 25s-13.833 12.334 -23.5 17.001s-20.834 8.5 -33.501 11.5s-26 5.83301 -40 8.5c-28 5.33301 -53.333 11.833 -76 19.5s-42 17.334 -58 29.001s-28.167 26 -36.5 43s-12.5 37.5 -12.5 61.5
c0 52 19 92.333 57 121s89.333 43 154 43c24.667 0 48.834 -2.5 72.501 -7.5s45.167 -12.667 64.5 -23s36.333 -23.833 51 -40.5s25.334 -37 32.001 -61l-139 -30c-8 21.333 -19.167 36.333 -33.5 45s-31.833 13 -52.5 13c-18.667 0 -33.834 -3.33301 -45.501 -10
s-17.5 -16.667 -17.5 -30c0 -15.333 10.167 -26.666 30.5 -33.999s44.833 -14 73.5 -20c31.333 -6.66699 59 -14.167 83 -22.5s44.167 -18.666 60.5 -30.999s28.833 -27.166 37.5 -44.499s13 -39 13 -65c0 -30.667 -6 -56.667 -18 -78s-27.833 -38.833 -47.5 -52.5
s-42.334 -23.667 -68.001 -30s-52.167 -9.5 -79.5 -9.5z" />
    <glyph glyph-name="uni0162" unicode="&#x162;" horiz-adv-x="516" 
d="M341 0l-40.999 0.00195312l-35 -51c10 2 19 3 27 3c28 0 50.333 -8.5 67 -25.5s25 -39.167 25 -66.5c0 -30 -10.667 -55.5 -32 -76.5s-49.666 -31.5 -84.999 -31.5c-38 0 -67.333 7.16699 -88 21.5s-34.334 32.166 -41.001 53.499l86 23
c3.33301 -9.33301 8.66602 -16.333 15.999 -21s15.333 -7 24 -7c10.667 0 20 3.33301 28 10s12 16 12 28c0 13.333 -4 23.166 -12 29.499s-17.333 9.5 -28 9.5c-15.333 0 -27 -5.66699 -35 -17l-73 31l53 87h-33v568h-166v145h497v-145h-166v-568z" />
    <glyph glyph-name="uni0163" unicode="&#x163;" horiz-adv-x="417" 
d="M380 390l-105.997 0.00195312v-200c0 -23.333 5.33301 -40 16 -50s25.667 -15 45 -15h45v-125h-94l-35 -51c10 2 19 3 27 3c28 0 50.333 -8.5 67 -25.5s25 -39.167 25 -66.5c0 -30 -10.667 -55.5 -32 -76.5s-49.666 -31.5 -84.999 -31.5c-38 0 -67.333 7.16699 -88 21.5
s-34.334 32.166 -41.001 53.499l86 23c3.33301 -9.33301 8.66602 -16.333 15.999 -21s15.333 -7 24 -7c10.667 0 20 3.33301 28 10s12 16 12 28c0 13.333 -4 23.166 -12 29.499s-17.333 9.5 -28 9.5c-15.333 0 -27 -5.66699 -35 -17l-73 31l61 101
c-28.667 11.333 -50.334 30 -65.001 56s-22 58 -22 96v224h-99v121h34c12.667 0 24.167 1.33301 34.5 4s19.166 7.66699 26.499 15s13 17.5 17 30.5s6 29.833 6 50.5v62h139v-162h106v-121z" />
    <glyph glyph-name="Tcaron" unicode="&#x164;" horiz-adv-x="516" 
d="M348 745h-179l-96 136h130l56 -65l55 65h130zM507 713v-145h-166v-568h-165v568h-166v145h497z" />
    <glyph glyph-name="tcaron" unicode="&#x165;" horiz-adv-x="411" 
d="M320 566l61 326h162l-111 -326h-112zM279 0c-52.667 0 -92.999 14.5 -120.999 43.5s-42 69.833 -42 122.5v224h-99v121h34c12.667 0 24.167 1.33301 34.5 4s19.166 7.66699 26.499 15s13 17.5 17 30.5s6 29.833 6 50.5v62h139v-162h106v-121h-106v-200
c0 -23.333 5.33301 -40 16 -50s25.667 -15 45 -15h45v-125h-101z" />
    <glyph glyph-name="Tbar" unicode="&#x166;" horiz-adv-x="516" 
d="M507 568h-166v-164h94v-95h-94v-309h-165v309h-93v95h93v164h-166v145h497v-145z" />
    <glyph glyph-name="tbar" unicode="&#x167;" horiz-adv-x="417" 
d="M381 209h-106.999v-19c0 -23.333 5.33301 -40 16 -50s25.667 -15 45 -15h45v-125h-101c-52.667 0 -93 14.5 -121 43.5s-42 69.833 -42 122.5v43h-99v95h99v86h-99v121h34c12.667 0 24.167 1.33301 34.5 4s19.166 7.66699 26.499 15s13 17.5 17 30.5s6 29.833 6 50.5v62
h139v-162h106v-121h-106v-86h107v-95z" />
    <glyph glyph-name="Utilde" unicode="&#x168;" horiz-adv-x="688" 
d="M401 743c-24 0 -42.333 4.66797 -55 14.001s-23 19 -31 29c-6 6.66699 -11.833 12.5 -17.5 17.5s-12.834 7.5 -21.501 7.5c-10 0 -16.833 -6.16699 -20.5 -18.5s-5.5 -26.833 -5.5 -43.5h-75c0 42.667 9.66699 77.667 29 105s46.333 41 81 41
c23.333 0 41.333 -4.66699 54 -14s23.334 -19 32.001 -29c6 -7.33301 12 -13.333 18 -18s13 -7 21 -7c10 0 16.5 6 19.5 18s4.5 26.667 4.5 44h76c0 -20.667 -2.33301 -39.834 -7 -57.501s-11.5 -33 -20.5 -46s-20.333 -23.333 -34 -31s-29.5 -11.5 -47.5 -11.5z
M344 -13.999c-40.667 0 -78.5 5.33301 -113.5 16s-65.5 27 -91.5 49s-46.333 50 -61 84s-22 74.333 -22 121v457h165v-436c0 -26 3.16699 -48.167 9.5 -66.5s15 -33 26 -44s24 -19 39 -24s31.167 -7.5 48.5 -7.5s33.5 2.5 48.5 7.5s28 13 39 24s19.667 25.667 26 44
s9.5 40.5 9.5 66.5v436h165v-457c0 -46.667 -7.33301 -87 -22 -121s-35 -62 -61 -84s-56.5 -38.333 -91.5 -49s-72.833 -16 -113.5 -16z" />
    <glyph glyph-name="utilde" unicode="&#x169;" horiz-adv-x="628" 
d="M244 631c-10 0 -16.833 -6.16602 -20.5 -18.499s-5.5 -26.5 -5.5 -42.5h-75c0 42 9.66699 76.833 29 104.5s46.333 41.5 81 41.5c23.333 0 41.333 -4.83301 54 -14.5s23.334 -19.5 32.001 -29.5c6 -7.33301 12 -13.333 18 -18s13 -7 21 -7c10 0 16.5 6 19.5 18
s4.5 26.667 4.5 44h76c0 -20.667 -2.33301 -39.834 -7 -57.501s-11.5 -33 -20.5 -46s-20.333 -23.333 -34 -31s-29.5 -11.5 -47.5 -11.5c-24 0 -42.333 4.83301 -55 14.5s-23 19.167 -31 28.5c-6 7.33301 -11.833 13.333 -17.5 18s-12.834 7 -21.501 7zM412 511.001h158.001
v-511h-150l-6 59c-18.667 -22 -41.834 -39 -69.501 -51s-59.5 -18 -95.5 -18c-66 0 -115.333 15.5 -148 46.5s-49 74.833 -49 131.5v343h159v-310c0 -31.333 8.5 -53.333 25.5 -66s38.167 -19 63.5 -19c14 0 27.667 2 41 6s25.333 10.667 36 20s19.167 21.833 25.5 37.5
s9.5 35.5 9.5 59.5v272z" />
    <glyph glyph-name="Umacron" unicode="&#x16a;" horiz-adv-x="688" 
d="M179 778v99h327v-99h-327zM344 -14c-40.667 0 -78.5 5.33301 -113.5 16s-65.5 27 -91.5 49s-46.333 50 -61 84s-22 74.333 -22 121v457h165v-436c0 -26 3.16699 -48.167 9.5 -66.5s15 -33 26 -44s24 -19 39 -24s31.167 -7.5 48.5 -7.5s33.5 2.5 48.5 7.5s28 13 39 24
s19.667 25.667 26 44s9.5 40.5 9.5 66.5v436h165v-457c0 -46.667 -7.33301 -87 -22 -121s-35 -62 -61 -84s-56.5 -38.333 -91.5 -49s-72.833 -16 -113.5 -16z" />
    <glyph glyph-name="umacron" unicode="&#x16b;" horiz-adv-x="628" 
d="M455 689v-99h-287v99h287zM412 511h158.001v-511h-150l-6 59c-18.667 -22 -41.834 -39 -69.501 -51s-59.5 -18 -95.5 -18c-66 0 -115.333 15.5 -148 46.5s-49 74.833 -49 131.5v343h159v-310c0 -31.333 8.5 -53.333 25.5 -66s38.167 -19 63.5 -19c14 0 27.667 2 41 6
s25.333 10.667 36 20s19.167 21.833 25.5 37.5s9.5 35.5 9.5 59.5v272z" />
    <glyph glyph-name="Uring" unicode="&#x16e;" horiz-adv-x="688" 
d="M343 741c-18.667 0 -36.334 3.16699 -53.001 9.5s-31.167 15.166 -43.5 26.499s-22 25 -29 41s-10.5 34 -10.5 54s3.5 38 10.5 54s16.667 29.833 29 41.5s26.833 20.5 43.5 26.5s34.334 9 53.001 9s36.167 -3 52.5 -9s30.666 -14.833 42.999 -26.5s22 -25.5 29 -41.5
s10.5 -34 10.5 -54s-3.5 -38 -10.5 -54s-16.667 -29.667 -29 -41s-26.666 -20.166 -42.999 -26.499s-33.833 -9.5 -52.5 -9.5zM343 813c17.333 0 31.666 5.5 42.999 16.5s17 25.167 17 42.5c0 18 -5.66699 32.5 -17 43.5s-25.666 16.5 -42.999 16.5s-31.333 -5.5 -42 -16.5
s-16 -25.5 -16 -43.5c0 -17.333 5.33301 -31.5 16 -42.5s24.667 -16.5 42 -16.5zM344 -14c-40.667 0 -78.5 5.33301 -113.5 16s-65.5 27 -91.5 49s-46.333 50 -61 84s-22 74.333 -22 121v457h165v-436c0 -26 3.16699 -48.167 9.5 -66.5s15 -33 26 -44s24 -19 39 -24
s31.167 -7.5 48.5 -7.5s33.5 2.5 48.5 7.5s28 13 39 24s19.667 25.667 26 44s9.5 40.5 9.5 66.5v436h165v-457c0 -46.667 -7.33301 -87 -22 -121s-35 -62 -61 -84s-56.5 -38.333 -91.5 -49s-72.833 -16 -113.5 -16z" />
    <glyph glyph-name="uring" unicode="&#x16f;" horiz-adv-x="628" 
d="M311 562c-39.333 0 -70.334 12 -93.001 36s-34 53.333 -34 88c0 16.667 2.83301 32.334 8.5 47.001s14 27.5 25 38.5s24.333 19.833 40 26.5s33.5 10 53.5 10c19.333 0 36.833 -3.33301 52.5 -10s29 -15.5 40 -26.5s19.333 -23.833 25 -38.5s8.5 -30.334 8.5 -47.001
c0 -34.667 -11.167 -64 -33.5 -88s-53.166 -36 -92.499 -36zM310.999 734c-13.333 0 -24.833 -4.16699 -34.5 -12.5s-14.5 -20.166 -14.5 -35.499s4.83301 -27.333 14.5 -36s21.167 -13 34.5 -13c14 0 25.833 4.33301 35.5 13s14.5 20.667 14.5 36
s-4.83301 27.166 -14.5 35.499s-21.5 12.5 -35.5 12.5zM411.999 511h158.001v-511h-150l-6 59c-18.667 -22 -41.834 -39 -69.501 -51s-59.5 -18 -95.5 -18c-66 0 -115.333 15.5 -148 46.5s-49 74.833 -49 131.5v343h159v-310c0 -31.333 8.5 -53.333 25.5 -66
s38.167 -19 63.5 -19c14 0 27.667 2 41 6s25.333 10.667 36 20s19.167 21.833 25.5 37.5s9.5 35.5 9.5 59.5v272z" />
    <glyph glyph-name="Uhungarumlaut" unicode="&#x170;" horiz-adv-x="688" 
d="M170 743l93 138h159l-114 -138h-138zM377 743l94 138h158l-114 -138h-138zM344 -14c-40.667 0 -78.5 5.33301 -113.5 16s-65.5 27 -91.5 49s-46.333 50 -61 84s-22 74.333 -22 121v457h165v-436c0 -26 3.16699 -48.167 9.5 -66.5s15 -33 26 -44s24 -19 39 -24
s31.167 -7.5 48.5 -7.5s33.5 2.5 48.5 7.5s28 13 39 24s19.667 25.667 26 44s9.5 40.5 9.5 66.5v436h165v-457c0 -46.667 -7.33301 -87 -22 -121s-35 -62 -61 -84s-56.5 -38.333 -91.5 -49s-72.833 -16 -113.5 -16z" />
    <glyph glyph-name="uhungarumlaut" unicode="&#x171;" horiz-adv-x="628" 
d="M394 713l-117 -142h-138l96 142h159zM484 571h-138l96 142h159zM412 511h158.001v-511h-150l-6 59c-18.667 -22 -41.834 -39 -69.501 -51s-59.5 -18 -95.5 -18c-66 0 -115.333 15.5 -148 46.5s-49 74.833 -49 131.5v343h159v-310c0 -31.333 8.5 -53.333 25.5 -66
s38.167 -19 63.5 -19c14 0 27.667 2 41 6s25.333 10.667 36 20s19.167 21.833 25.5 37.5s9.5 35.5 9.5 59.5v272z" />
    <glyph glyph-name="Uogonek" unicode="&#x172;" horiz-adv-x="688" 
d="M467 713l165 -0.00390625v-457c0 -36.667 -4.66699 -69.5 -14 -98.5s-22.333 -54.167 -39 -75.5s-36.667 -39 -60 -53s-49 -24.667 -77 -32c-22 -16.667 -39.5 -33.667 -52.5 -51s-19.5 -32.333 -19.5 -45c0 -7.33301 3.16699 -13.166 9.5 -17.499
s14.166 -6.5 23.499 -6.5c15.333 0 29.333 5.33301 42 16v-96c-11.333 -5.33301 -23.666 -9.16602 -36.999 -11.499s-27 -3.5 -41 -3.5c-26 0 -49 5.16699 -69 15.5s-30 27.833 -30 52.5c0 22.667 9.16699 45.334 27.5 68.001s40.833 45.334 67.5 68.001h-19
c-40.667 0 -78.5 5.33301 -113.5 16s-65.5 27 -91.5 49s-46.333 50 -61 84s-22 74.333 -22 121v457h165v-436c0 -26 3.16699 -48.167 9.5 -66.5s15 -33 26 -44s24 -19 39 -24s31.167 -7.5 48.5 -7.5s33.5 2.5 48.5 7.5s28 13 39 24s19.667 25.667 26 44s9.5 40.5 9.5 66.5
v436z" />
    <glyph glyph-name="uogonek" unicode="&#x173;" horiz-adv-x="628" 
d="M570 0c-22.667 -17.333 -40.832 -34.835 -54.499 -52.502s-20.5 -33.167 -20.5 -46.5c0 -7.33301 3.16699 -13.166 9.5 -17.499s14.166 -6.5 23.499 -6.5c15.333 0 29.333 5.33301 42 16v-96c-11.333 -5.33301 -23.666 -9.16602 -36.999 -11.499s-27 -3.5 -41 -3.5
c-26 0 -49 5.16699 -69 15.5s-30 27.833 -30 52.5s10.833 49.5 32.5 74.5s48.167 50.167 79.5 75.5h-85l-6 59c-18.667 -22 -41.834 -39 -69.501 -51s-59.5 -18 -95.5 -18c-66 0 -115.333 15.5 -148 46.5s-49 74.833 -49 131.5v343h159v-310c0 -31.333 8.5 -53.333 25.5 -66
s38.167 -19 63.5 -19c14 0 27.667 2 41 6s25.333 10.667 36 20s19.167 21.833 25.5 37.5s9.5 35.5 9.5 59.5v272h158v-511z" />
    <glyph glyph-name="Wcircumflex" unicode="&#x174;" horiz-adv-x="1077" 
d="M539 810l-56 -65h-130l96 136h179l96 -136h-130zM894 713h171l-180 -713h-219l-128 409l-127 -409h-219l-180 713h171l131 -534l155 534h139l154 -534z" />
    <glyph glyph-name="wcircumflex" unicode="&#x175;" horiz-adv-x="910" 
d="M455 640l-55 -69h-130l96 142h178l96 -142h-130zM729 511h168l-177 -511h-161l-104 312l-104 -312h-161l-177 511h168l98 -318l114 318h125l113 -317z" />
    <glyph glyph-name="Ycircumflex" unicode="&#x176;" horiz-adv-x="636" 
d="M319 810l-56 -65h-130l96 136h179l96 -136h-130zM637 713l-236 -373v-340h-165v335l-239 378h182l139 -230l139 230h180z" />
    <glyph glyph-name="ycircumflex" unicode="&#x177;" horiz-adv-x="600" 
d="M305 640l-55 -69h-130l96 142h178l96 -142h-130zM417 511h172l-321 -754h-172l121 272l-207 482h172l117 -319z" />
    <glyph glyph-name="Ydieresis" unicode="&#x178;" horiz-adv-x="636" 
d="M209 748c-24.667 0 -45.667 8.66699 -63 26s-26 38.333 -26 63c0 24 8.66699 44.667 26 62s38.333 26 63 26c24 0 44.667 -8.66699 62 -26s26 -38 26 -62c0 -24.667 -8.66699 -45.667 -26 -63s-38 -26 -62 -26zM427 748c-24.667 0 -45.667 8.66699 -63 26
s-26 38.333 -26 63c0 24 8.66699 44.667 26 62s38.333 26 63 26c24 0 44.667 -8.66699 62 -26s26 -38 26 -62c0 -24.667 -8.66699 -45.667 -26 -63s-38 -26 -62 -26zM637 713l-236 -373v-340h-165v335l-239 378h182l139 -230l139 230h180z" />
    <glyph glyph-name="Zacute" unicode="&#x179;" horiz-adv-x="582" 
d="M488 881l-114 -138h-138l85 138h167zM228 144h320v-144h-515v130l318 438h-317v145h512v-130z" />
    <glyph glyph-name="zacute" unicode="&#x17a;" horiz-adv-x="496" 
d="M435 713l-117 -142h-138l87 142h168zM472 511l-216 -390h205v-121h-440l215 390h-195v121h431z" />
    <glyph glyph-name="Zdotaccent" unicode="&#x17b;" horiz-adv-x="582" 
d="M306 748c-24.667 0 -45.667 8.66699 -63 26s-26 38.333 -26 63c0 24 8.66699 44.667 26 62s38.333 26 63 26c24 0 44.667 -8.66699 62 -26s26 -38 26 -62c0 -24.667 -8.66699 -45.667 -26 -63s-38 -26 -62 -26zM228 144h320v-144h-515v130l318 438h-317v145h512v-130z
" />
    <glyph glyph-name="zdotaccent" unicode="&#x17c;" horiz-adv-x="496" 
d="M251 574c-24.667 0 -45.667 8.66699 -63 26s-26 38.333 -26 63c0 24 8.66699 44.667 26 62s38.333 26 63 26c24 0 44.667 -8.66699 62 -26s26 -38 26 -62c0 -24.667 -8.66699 -45.667 -26 -63s-38 -26 -62 -26zM472 511l-216 -390h205v-121h-440l215 390h-195v121h431z
" />
    <glyph glyph-name="Zcaron" unicode="&#x17d;" horiz-adv-x="582" 
d="M395 745h-179l-96 136h130l56 -65l55 65h130zM228 144h320v-144h-515v130l318 438h-317v145h512v-130z" />
    <glyph glyph-name="zcaron" unicode="&#x17e;" horiz-adv-x="496" 
d="M339 571h-178l-96 142h130l55 -70l55 70h130zM472 511l-216 -390h205v-121h-440l215 390h-195v121h431z" />
    <glyph glyph-name="florin" unicode="&#x192;" horiz-adv-x="452" 
d="M405 625c-6.66699 0 -14.668 -0.501953 -24.001 -1.50195s-18.166 -4 -26.499 -9s-15.333 -12.833 -21 -23.5s-8.5 -25.334 -8.5 -44.001v-36h109v-121h-109v-390c0 -43.333 -5.83301 -78.333 -17.5 -105s-28 -47.167 -49 -61.5s-46 -24 -75 -29s-60.833 -7.5 -95.5 -7.5
h-29v125h29c6.66699 0 14.5 0.5 23.5 1.5s17.667 4 26 9s15.333 12.833 21 23.5s8.5 25.334 8.5 44.001v390h-101v121h101v36c0 43.333 5.83301 78.333 17.5 105s28 47.334 49 62.001s46.167 24.334 75.5 29.001s61.333 7 96 7h29v-125h-29z" />
    <glyph glyph-name="Ohorn" unicode="&#x1a0;" horiz-adv-x="801" 
d="M694 770h106.001v-85c0 -20 -2.66699 -36.833 -8 -50.5s-12.5 -25 -21.5 -34s-18.833 -15.667 -29.5 -20s-21.667 -7.5 -33 -9.5c19.333 -30 34.166 -62.833 44.499 -98.5s15.5 -74.5 15.5 -116.5c0 -54.667 -9 -104.834 -27 -150.501s-43.333 -84.667 -76 -117
s-71.5 -57.5 -116.5 -75.5s-94.167 -27 -147.5 -27c-54 0 -103.5 9 -148.5 27s-83.667 43.167 -116 75.5s-57.666 71.333 -75.999 117s-27.5 95.834 -27.5 150.501c0 55.333 9.16699 105.666 27.5 150.999s43.666 84.333 75.999 117s71 58 116 76s94.5 27 148.5 27
c50 0 96 -7.66699 138 -23s79 -37.333 111 -66c17.333 0.666992 29 5.33398 35 14.001s9 25.667 9 51v67zM401.001 137c29.333 0 56.333 5.16699 81 15.5s46 25.166 64 44.499s32 42.5 42 69.5s15 56.833 15 89.5c0 33.333 -5 63.5 -15 90.5s-24 50 -42 69
s-39.333 33.833 -64 44.5s-51.667 16 -81 16s-56.5 -5.33301 -81.5 -16s-46.5 -25.5 -64.5 -44.5s-32 -42 -42 -69s-15 -57.167 -15 -90.5c0 -32.667 5 -62.5 15 -89.5s24 -50.167 42 -69.5s39.5 -34.166 64.5 -44.499s52.167 -15.5 81.5 -15.5z" />
    <glyph glyph-name="ohorn" unicode="&#x1a1;" horiz-adv-x="639" 
d="M548 602h106v-85c0 -19.333 -2.66699 -35.833 -8 -49.5s-12.166 -24.834 -20.499 -33.501s-17.833 -15.5 -28.5 -20.5s-21.334 -8.5 -32.001 -10.5c26.667 -41.333 40 -90.333 40 -147c0 -42 -7 -79.333 -21 -112s-33.5 -60.334 -58.5 -83.001s-55 -40.167 -90 -52.5
s-73.5 -18.5 -115.5 -18.5s-80.667 6.16699 -116 18.5s-65.5 29.833 -90.5 52.5s-44.5 50.334 -58.5 83.001s-21 70 -21 112c0 41.333 7 78.333 21 111s33.5 60.334 58.5 83.001s55.167 40.167 90.5 52.5s74 18.5 116 18.5c70.667 0 130.667 -17 180 -51h1
c18.667 0 31.167 4.33301 37.5 13s9.5 26 9.5 52v67zM320 115c38.667 0 69.5 13 92.5 39s34.5 60 34.5 102c0 41.333 -11.5 75 -34.5 101s-53.833 39 -92.5 39c-39.333 0 -70.5 -13 -93.5 -39s-34.5 -59.667 -34.5 -101c0 -42 11.5 -76 34.5 -102s54.167 -39 93.5 -39z" />
    <glyph glyph-name="Uhorn" unicode="&#x1af;" horiz-adv-x="688" 
d="M705 806l106.002 -0.00195312v-85c0 -25.333 -4.33301 -45.666 -13 -60.999s-19.334 -27.166 -32.001 -35.499s-26.334 -13.833 -41.001 -16.5s-28 -4 -40 -4c-7.33301 0 -15.666 0.833008 -24.999 2.5s-18.666 4.16699 -27.999 7.5v-358
c0 -46.667 -7.33301 -87 -22 -121s-35 -62 -61 -84s-56.5 -38.333 -91.5 -49s-72.833 -16 -113.5 -16s-78.5 5.33301 -113.5 16s-65.5 27 -91.5 49s-46.333 50 -61 84s-22 74.333 -22 121v457h165v-436c0 -26 3.16699 -48.167 9.5 -66.5s15 -33 26 -44s24 -19 39 -24
s31.167 -7.5 48.5 -7.5s33.5 2.5 48.5 7.5s28 13 39 24s19.667 25.667 26 44s9.5 40.5 9.5 66.5v436h165v-34c5.33301 -2 10.166 -3.33301 14.499 -4s8.16602 -1 11.499 -1c18.667 0 31.167 4.33301 37.5 13s9.5 26 9.5 52v67z" />
    <glyph glyph-name="uhorn" unicode="&#x1b0;" horiz-adv-x="628" 
d="M630 604l106.004 -0.00195312v-85c0 -25.333 -4.33301 -45.666 -13 -60.999s-19.334 -27.166 -32.001 -35.499s-26.334 -13.833 -41.001 -16.5s-28 -4 -40 -4c-12.667 0 -26 2 -40 6v-408h-150l-6 59c-18.667 -22 -41.834 -39 -69.501 -51s-59.5 -18 -95.5 -18
c-66 0 -115.333 15.5 -148 46.5s-49 74.833 -49 131.5v343h159v-310c0 -31.333 8.5 -53.333 25.5 -66s38.167 -19 63.5 -19c14 0 27.667 2 41 6s25.333 10.667 36 20s19.167 21.833 25.5 37.5s9.5 35.5 9.5 59.5v272h158v-38c3.33301 -0.666992 7.66602 -1 12.999 -1
c18.667 0 31.167 4.33301 37.5 13s9.5 26 9.5 52v67z" />
    <glyph glyph-name="uni01CD" unicode="&#x1cd;" horiz-adv-x="742" 
d="M461 745h-179l-96 136h130l56 -65l55 65h130zM561 0l-49 140h-283l-49 -140h-175l264 713h204l264 -713h-176zM278 277h186l-93 265z" />
    <glyph glyph-name="uni01CE" unicode="&#x1ce;" horiz-adv-x="579" 
d="M382 571h-178l-96 142h130l55 -70l55 70h130zM522 91c0 -14.667 0.498047 -28.3311 1.49805 -40.998s4.16699 -24.667 9.5 -36v-14h-157l-6 61c-18 -25.333 -42.333 -43.5 -73 -54.5s-62 -16.5 -94 -16.5c-20 0 -40 2.33301 -60 7s-38.167 12.5 -54.5 23.5
s-29.5 25.5 -39.5 43.5s-15 40 -15 66c0 29.333 6 53.666 18 72.999s27.5 35.333 46.5 48s39.833 22.667 62.5 30s44.667 13.333 66 18l88 20c13.333 3.33301 24.833 7.5 34.5 12.5s14.5 13.833 14.5 26.5c0 19.333 -8.16699 32.666 -24.5 39.999s-34.166 11 -53.499 11
c-26 0 -47.5 -5.83301 -64.5 -17.5s-28.167 -29.5 -33.5 -53.5l-151 23c11.333 55.333 39.5 95.833 84.5 121.5s100.5 38.5 166.5 38.5c76.667 0 134.834 -16 174.501 -48s59.5 -79 59.5 -141v-241zM249.998 98.0029c14 0 28.332 2.99902 42.999 8.99902s28 14.833 40 26.5
s21.667 26.334 29 44.001s11 38.167 11 61.5l-121 -34c-13.333 -3.33301 -26.5 -9 -39.5 -17s-19.5 -21.667 -19.5 -41c0 -16.667 5.33301 -29 16 -37s24.334 -12 41.001 -12z" />
    <glyph glyph-name="uni01CF" unicode="&#x1cf;" horiz-adv-x="293" 
d="M56 745l-96 136h130l56 -65l55 65h130l-96 -136h-179zM64 0v713h165v-713h-165z" />
    <glyph glyph-name="uni01D0" unicode="&#x1d0;" horiz-adv-x="272" 
d="M47 571l-96 142h130l55 -70l55 70h130l-96 -142h-178zM57 0v511h158v-511h-158z" />
    <glyph glyph-name="uni01D1" unicode="&#x1d1;" horiz-adv-x="801" 
d="M311 745l-96 136h130l56 -65l55 65h130l-96 -136h-179zM401 -14c-54 0 -103.5 9 -148.5 27s-83.667 43.167 -116 75.5s-57.666 71.333 -75.999 117s-27.5 95.834 -27.5 150.501c0 55.333 9.16699 105.666 27.5 150.999s43.666 84.333 75.999 117s71 58 116 76
s94.5 27 148.5 27c53.333 0 102.5 -9 147.5 -27s83.833 -43.333 116.5 -76s58 -71.667 76 -117s27 -95.666 27 -150.999c0 -54.667 -9 -104.834 -27 -150.501s-43.333 -84.667 -76 -117s-71.5 -57.5 -116.5 -75.5s-94.167 -27 -147.5 -27zM401 137
c29.333 0 56.333 5.16699 81 15.5s46 25.166 64 44.499s32 42.5 42 69.5s15 56.833 15 89.5c0 33.333 -5 63.5 -15 90.5s-24 50 -42 69s-39.333 33.833 -64 44.5s-51.667 16 -81 16s-56.5 -5.33301 -81.5 -16s-46.5 -25.5 -64.5 -44.5s-32 -42 -42 -69
s-15 -57.167 -15 -90.5c0 -32.667 5 -62.5 15 -89.5s24 -50.167 42 -69.5s39.5 -34.166 64.5 -44.499s52.167 -15.5 81.5 -15.5z" />
    <glyph glyph-name="uni01D2" unicode="&#x1d2;" horiz-adv-x="639" 
d="M232 571l-96 142h130l55 -70l55 70h130l-96 -142h-178zM320 -10c-42 0 -80.667 6.16699 -116 18.5s-65.5 29.833 -90.5 52.5s-44.5 50.334 -58.5 83.001s-21 70 -21 112c0 41.333 7 78.333 21 111s33.5 60.334 58.5 83.001s55.167 40.167 90.5 52.5s74 18.5 116 18.5
s80.5 -6.16699 115.5 -18.5s65 -29.833 90 -52.5s44.5 -50.334 58.5 -83.001s21 -69.667 21 -111c0 -42 -7 -79.333 -21 -112s-33.5 -60.334 -58.5 -83.001s-55 -40.167 -90 -52.5s-73.5 -18.5 -115.5 -18.5zM320 115c38.667 0 69.5 13 92.5 39s34.5 60 34.5 102
c0 41.333 -11.5 75 -34.5 101s-53.833 39 -92.5 39c-39.333 0 -70.5 -13 -93.5 -39s-34.5 -59.667 -34.5 -101c0 -42 11.5 -76 34.5 -102s54.167 -39 93.5 -39z" />
    <glyph glyph-name="uni01D3" unicode="&#x1d3;" horiz-adv-x="688" 
d="M253 745l-96 136h130l56 -65l55 65h130l-96 -136h-179zM344 -14c-40.667 0 -78.5 5.33301 -113.5 16s-65.5 27 -91.5 49s-46.333 50 -61 84s-22 74.333 -22 121v457h165v-436c0 -26 3.16699 -48.167 9.5 -66.5s15 -33 26 -44s24 -19 39 -24s31.167 -7.5 48.5 -7.5
s33.5 2.5 48.5 7.5s28 13 39 24s19.667 25.667 26 44s9.5 40.5 9.5 66.5v436h165v-457c0 -46.667 -7.33301 -87 -22 -121s-35 -62 -61 -84s-56.5 -38.333 -91.5 -49s-72.833 -16 -113.5 -16z" />
    <glyph glyph-name="uni01D4" unicode="&#x1d4;" horiz-adv-x="628" 
d="M400 571h-178l-96 142h130l55 -70l55 70h130zM412 511h158.001v-511h-150l-6 59c-18.667 -22 -41.834 -39 -69.501 -51s-59.5 -18 -95.5 -18c-66 0 -115.333 15.5 -148 46.5s-49 74.833 -49 131.5v343h159v-310c0 -31.333 8.5 -53.333 25.5 -66s38.167 -19 63.5 -19
c14 0 27.667 2 41 6s25.333 10.667 36 20s19.167 21.833 25.5 37.5s9.5 35.5 9.5 59.5v272z" />
    <glyph glyph-name="uni01D5" unicode="&#x1d5;" horiz-adv-x="688" 
d="M179 990v99h327v-99h-327zM234 748c-24.667 0 -45.667 8.66699 -63 26s-26 38.333 -26 63c0 24 8.66699 44.667 26 62s38.333 26 63 26c24 0 44.667 -8.66699 62 -26s26 -38 26 -62c0 -24.667 -8.66699 -45.667 -26 -63s-38 -26 -62 -26zM452 748
c-24.667 0 -45.667 8.66699 -63 26s-26 38.333 -26 63c0 24 8.66699 44.667 26 62s38.333 26 63 26c24 0 44.667 -8.66699 62 -26s26 -38 26 -62c0 -24.667 -8.66699 -45.667 -26 -63s-38 -26 -62 -26zM344 -14c-40.667 0 -78.5 5.33301 -113.5 16s-65.5 27 -91.5 49
s-46.333 50 -61 84s-22 74.333 -22 121v457h165v-436c0 -26 3.16699 -48.167 9.5 -66.5s15 -33 26 -44s24 -19 39 -24s31.167 -7.5 48.5 -7.5s33.5 2.5 48.5 7.5s28 13 39 24s19.667 25.667 26 44s9.5 40.5 9.5 66.5v436h165v-457c0 -46.667 -7.33301 -87 -22 -121
s-35 -62 -61 -84s-56.5 -38.333 -91.5 -49s-72.833 -16 -113.5 -16z" />
    <glyph glyph-name="uni01D6" unicode="&#x1d6;" horiz-adv-x="628" 
d="M455 919v-99h-287v99h287zM202 574c-24.667 0 -45.667 8.66699 -63 26s-26 38.333 -26 63c0 24 8.66699 44.667 26 62s38.333 26 63 26c24 0 44.667 -8.66699 62 -26s26 -38 26 -62c0 -24.667 -8.66699 -45.667 -26 -63s-38 -26 -62 -26zM331 663
c0 24 8.66699 44.667 26 62s38.333 26 63 26c24 0 44.667 -8.66699 62 -26s26 -38 26 -62c0 -24.667 -8.66699 -45.667 -26 -63s-38 -26 -62 -26c-24.667 0 -45.667 8.66699 -63 26s-26 38.333 -26 63zM412 511h158.001v-511h-150l-6 59
c-18.667 -22 -41.834 -39 -69.501 -51s-59.5 -18 -95.5 -18c-66 0 -115.333 15.5 -148 46.5s-49 74.833 -49 131.5v343h159v-310c0 -31.333 8.5 -53.333 25.5 -66s38.167 -19 63.5 -19c14 0 27.667 2 41 6s25.333 10.667 36 20s19.167 21.833 25.5 37.5s9.5 35.5 9.5 59.5
v272z" />
    <glyph glyph-name="uni01D7" unicode="&#x1d7;" horiz-adv-x="688" 
d="M274 955l85 138h167l-114 -138h-138zM234 748c-24.667 0 -45.667 8.66699 -63 26s-26 38.333 -26 63c0 24 8.66699 44.667 26 62s38.333 26 63 26c24 0 44.667 -8.66699 62 -26s26 -38 26 -62c0 -24.667 -8.66699 -45.667 -26 -63s-38 -26 -62 -26zM452 748
c-24.667 0 -45.667 8.66699 -63 26s-26 38.333 -26 63c0 24 8.66699 44.667 26 62s38.333 26 63 26c24 0 44.667 -8.66699 62 -26s26 -38 26 -62c0 -24.667 -8.66699 -45.667 -26 -63s-38 -26 -62 -26zM344 -14c-40.667 0 -78.5 5.33301 -113.5 16s-65.5 27 -91.5 49
s-46.333 50 -61 84s-22 74.333 -22 121v457h165v-436c0 -26 3.16699 -48.167 9.5 -66.5s15 -33 26 -44s24 -19 39 -24s31.167 -7.5 48.5 -7.5s33.5 2.5 48.5 7.5s28 13 39 24s19.667 25.667 26 44s9.5 40.5 9.5 66.5v436h165v-457c0 -46.667 -7.33301 -87 -22 -121
s-35 -62 -61 -84s-56.5 -38.333 -91.5 -49s-72.833 -16 -113.5 -16z" />
    <glyph glyph-name="uni01D8" unicode="&#x1d8;" horiz-adv-x="628" 
d="M496 943l-117 -142h-138l87 142h168zM202 574c-24.667 0 -45.667 8.66699 -63 26s-26 38.333 -26 63c0 24 8.66699 44.667 26 62s38.333 26 63 26c24 0 44.667 -8.66699 62 -26s26 -38 26 -62c0 -24.667 -8.66699 -45.667 -26 -63s-38 -26 -62 -26zM420 751
c24 0 44.667 -8.66699 62 -26s26 -38 26 -62c0 -24.667 -8.66699 -45.667 -26 -63s-38 -26 -62 -26c-24.667 0 -45.667 8.66699 -63 26s-26 38.333 -26 63c0 24 8.66699 44.667 26 62s38.333 26 63 26zM412 511h158.001v-511h-150l-6 59
c-18.667 -22 -41.834 -39 -69.501 -51s-59.5 -18 -95.5 -18c-66 0 -115.333 15.5 -148 46.5s-49 74.833 -49 131.5v343h159v-310c0 -31.333 8.5 -53.333 25.5 -66s38.167 -19 63.5 -19c14 0 27.667 2 41 6s25.333 10.667 36 20s19.167 21.833 25.5 37.5s9.5 35.5 9.5 59.5
v272z" />
    <glyph glyph-name="uni01D9" unicode="&#x1d9;" horiz-adv-x="688" 
d="M253 957l-96 136h130l56 -65l55 65h130l-96 -136h-179zM234 748c-24.667 0 -45.667 8.66699 -63 26s-26 38.333 -26 63c0 24 8.66699 44.667 26 62s38.333 26 63 26c24 0 44.667 -8.66699 62 -26s26 -38 26 -62c0 -24.667 -8.66699 -45.667 -26 -63s-38 -26 -62 -26z
M452 748c-24.667 0 -45.667 8.66699 -63 26s-26 38.333 -26 63c0 24 8.66699 44.667 26 62s38.333 26 63 26c24 0 44.667 -8.66699 62 -26s26 -38 26 -62c0 -24.667 -8.66699 -45.667 -26 -63s-38 -26 -62 -26zM344 -14c-40.667 0 -78.5 5.33301 -113.5 16
s-65.5 27 -91.5 49s-46.333 50 -61 84s-22 74.333 -22 121v457h165v-436c0 -26 3.16699 -48.167 9.5 -66.5s15 -33 26 -44s24 -19 39 -24s31.167 -7.5 48.5 -7.5s33.5 2.5 48.5 7.5s28 13 39 24s19.667 25.667 26 44s9.5 40.5 9.5 66.5v436h165v-457
c0 -46.667 -7.33301 -87 -22 -121s-35 -62 -61 -84s-56.5 -38.333 -91.5 -49s-72.833 -16 -113.5 -16z" />
    <glyph glyph-name="uni01DA" unicode="&#x1da;" horiz-adv-x="628" 
d="M400 801h-178l-96 142h130l55 -70l55 70h130zM202 574c-24.667 0 -45.667 8.66699 -63 26s-26 38.333 -26 63c0 24 8.66699 44.667 26 62s38.333 26 63 26c24 0 44.667 -8.66699 62 -26s26 -38 26 -62c0 -24.667 -8.66699 -45.667 -26 -63s-38 -26 -62 -26zM420 751
c24 0 44.667 -8.66699 62 -26s26 -38 26 -62c0 -24.667 -8.66699 -45.667 -26 -63s-38 -26 -62 -26c-24.667 0 -45.667 8.66699 -63 26s-26 38.333 -26 63c0 24 8.66699 44.667 26 62s38.333 26 63 26zM412 511h158.001v-511h-150l-6 59
c-18.667 -22 -41.834 -39 -69.501 -51s-59.5 -18 -95.5 -18c-66 0 -115.333 15.5 -148 46.5s-49 74.833 -49 131.5v343h159v-310c0 -31.333 8.5 -53.333 25.5 -66s38.167 -19 63.5 -19c14 0 27.667 2 41 6s25.333 10.667 36 20s19.167 21.833 25.5 37.5s9.5 35.5 9.5 59.5
v272z" />
    <glyph glyph-name="uni01DB" unicode="&#x1db;" horiz-adv-x="688" 
d="M274 955l-114 138h167l85 -138h-138zM234 748c-24.667 0 -45.667 8.66699 -63 26s-26 38.333 -26 63c0 24 8.66699 44.667 26 62s38.333 26 63 26c24 0 44.667 -8.66699 62 -26s26 -38 26 -62c0 -24.667 -8.66699 -45.667 -26 -63s-38 -26 -62 -26zM452 748
c-24.667 0 -45.667 8.66699 -63 26s-26 38.333 -26 63c0 24 8.66699 44.667 26 62s38.333 26 63 26c24 0 44.667 -8.66699 62 -26s26 -38 26 -62c0 -24.667 -8.66699 -45.667 -26 -63s-38 -26 -62 -26zM344 -14c-40.667 0 -78.5 5.33301 -113.5 16s-65.5 27 -91.5 49
s-46.333 50 -61 84s-22 74.333 -22 121v457h165v-436c0 -26 3.16699 -48.167 9.5 -66.5s15 -33 26 -44s24 -19 39 -24s31.167 -7.5 48.5 -7.5s33.5 2.5 48.5 7.5s28 13 39 24s19.667 25.667 26 44s9.5 40.5 9.5 66.5v436h165v-457c0 -46.667 -7.33301 -87 -22 -121
s-35 -62 -61 -84s-56.5 -38.333 -91.5 -49s-72.833 -16 -113.5 -16z" />
    <glyph glyph-name="uni01DC" unicode="&#x1dc;" horiz-adv-x="628" 
d="M382 801h-139l-116 142h167zM202 574c-24.667 0 -45.667 8.66699 -63 26s-26 38.333 -26 63c0 24 8.66699 44.667 26 62s38.333 26 63 26c24 0 44.667 -8.66699 62 -26s26 -38 26 -62c0 -24.667 -8.66699 -45.667 -26 -63s-38 -26 -62 -26zM331 663
c0 24 8.66699 44.667 26 62s38.333 26 63 26c24 0 44.667 -8.66699 62 -26s26 -38 26 -62c0 -24.667 -8.66699 -45.667 -26 -63s-38 -26 -62 -26c-24.667 0 -45.667 8.66699 -63 26s-26 38.333 -26 63zM412 511h158.001v-511h-150l-6 59
c-18.667 -22 -41.834 -39 -69.501 -51s-59.5 -18 -95.5 -18c-66 0 -115.333 15.5 -148 46.5s-49 74.833 -49 131.5v343h159v-310c0 -31.333 8.5 -53.333 25.5 -66s38.167 -19 63.5 -19c14 0 27.667 2 41 6s25.333 10.667 36 20s19.167 21.833 25.5 37.5s9.5 35.5 9.5 59.5
v272z" />
    <glyph glyph-name="Gcaron" unicode="&#x1e6;" horiz-adv-x="791" 
d="M310 745l-96 136h130l56 -65l55 65h130l-96 -136h-179zM391 -14c-52 0 -99.9971 9.00098 -143.997 27.001s-81.833 43.167 -113.5 75.5s-56.334 71.333 -74.001 117s-26.5 95.834 -26.5 150.501c0 55.333 9.16699 105.666 27.5 150.999s43.666 84.333 75.999 117
s71 58 116 76s94.5 27 148.5 27c70.667 0 133.5 -15.333 188.5 -46s97.833 -73 128.5 -127l-144 -78c-17.333 32 -41 56.667 -71 74s-64 26 -102 26c-29.333 0 -56.5 -5.33301 -81.5 -16s-46.5 -25.5 -64.5 -44.5s-32 -42 -42 -69s-15 -57.167 -15 -90.5
c0 -32.667 4.66699 -62.334 14 -89.001s22.833 -49.667 40.5 -69s39 -34.333 64 -45s53.167 -16 84.5 -16c40 0 77 10.167 111 30.5s57.667 52.5 71 96.5h-175v132h336v-396h-128v92c-22.667 -31.333 -52.334 -56.833 -89.001 -76.5s-82 -29.5 -136 -29.5z" />
    <glyph glyph-name="gcaron" unicode="&#x1e7;" horiz-adv-x="633" 
d="M413 571h-178l-96 142h130l55 -70l55 70h130zM426 511h150v-495c0 -48 -6.33301 -88.833 -19 -122.5s-30.667 -61.167 -54 -82.5s-51.833 -36.833 -85.5 -46.5s-71.167 -14.5 -112.5 -14.5c-76 0 -135.167 14.667 -177.5 44s-72.166 68 -89.499 116l131 53
c14.667 -31.333 32 -54.5 52 -69.5s46 -22.5 78 -22.5c43.333 0 73.833 12.167 91.5 36.5s26.5 56.5 26.5 96.5v74c-14.667 -18 -35.167 -32.833 -61.5 -44.5s-55.833 -17.5 -88.5 -17.5c-32 0 -62 6 -90 18s-52.667 29 -74 51s-38.166 48.667 -50.499 80
s-18.5 66.333 -18.5 105s6.16699 73.5 18.5 104.5s29.166 57.333 50.499 79s46.333 38.334 75 50.001s59 17.5 91 17.5c34.667 0 65.167 -6.33301 91.5 -19s46.166 -29.334 59.499 -50.001zM306 143c35.333 0 64.333 11.999 87 35.999s34 54.333 34 91
s-11.167 66.834 -33.5 90.501s-51.5 35.5 -87.5 35.5c-34.667 0 -63.334 -11.833 -86.001 -35.5s-34 -53.834 -34 -90.501c0 -18 3 -34.833 9 -50.5s14.5 -29.167 25.5 -40.5s23.833 -20.166 38.5 -26.499s30.334 -9.5 47.001 -9.5z" />
    <glyph glyph-name="uni01EA" unicode="&#x1ea;" horiz-adv-x="801" 
d="M504 -1c-22 -17.333 -39.666 -34.6719 -52.999 -52.0049s-20 -32.666 -20 -45.999c0 -7.33301 3.16699 -13.166 9.5 -17.499s14.166 -6.5 23.499 -6.5c15.333 0 29.333 5.33301 42 16v-96c-11.333 -5.33301 -23.666 -9.16602 -36.999 -11.499s-27 -3.5 -41 -3.5
c-26 0 -49 5.16699 -69 15.5s-30 27.833 -30 52.5c0 22.667 9.16699 45.334 27.5 68.001s41.166 45.667 68.499 69c-4 -0.666992 -8 -1 -12 -1h-12c-54 0 -103.5 9 -148.5 27s-83.667 43.167 -116 75.5s-57.666 71.333 -75.999 117s-27.5 95.834 -27.5 150.501
c0 55.333 9.16699 105.666 27.5 150.999s43.666 84.333 75.999 117s71 58 116 76s94.5 27 148.5 27c53.333 0 102.5 -9 147.5 -27s83.833 -43.333 116.5 -76s58 -71.667 76 -117s27 -95.666 27 -150.999c0 -46 -6.33301 -88.5 -19 -127.5s-30.5 -73.833 -53.5 -104.5
s-50.833 -56.667 -83.5 -78s-68.667 -37 -108 -47zM198.001 355.994c0 -32.667 5 -62.5 15 -89.5s24 -50.167 42 -69.5s39.5 -34.166 64.5 -44.499s52.167 -15.5 81.5 -15.5s56.333 5.16699 81 15.5s46 25.166 64 44.499s32 42.5 42 69.5s15 56.833 15 89.5
c0 33.333 -5 63.5 -15 90.5s-24 50 -42 69s-39.333 33.833 -64 44.5s-51.667 16 -81 16s-56.5 -5.33301 -81.5 -16s-46.5 -25.5 -64.5 -44.5s-32 -42 -42 -69s-15 -57.167 -15 -90.5z" />
    <glyph glyph-name="uni01EB" unicode="&#x1eb;" horiz-adv-x="639" 
d="M404 0c-22 -17.333 -39.834 -34.834 -53.501 -52.501s-20.5 -33.167 -20.5 -46.5c0 -7.33301 3.16699 -13.166 9.5 -17.499s14.166 -6.5 23.499 -6.5c15.333 0 29.333 5.33301 42 16v-96c-11.333 -5.33301 -23.666 -9.16602 -36.999 -11.499s-27 -3.5 -41 -3.5
c-26 0 -49 5.16699 -69 15.5s-30 27.833 -30 52.5c0 23.333 9.66699 46.666 29 69.999s43 46.666 71 69.999h-8c-42 0 -80.667 6.16699 -116 18.5s-65.5 29.833 -90.5 52.5s-44.5 50.334 -58.5 83.001s-21 70 -21 112c0 41.333 7 78.333 21 111s33.5 60.334 58.5 83.001
s55.167 40.167 90.5 52.5s74 18.5 116 18.5s80.5 -6.16699 115.5 -18.5s65 -29.833 90 -52.5s44.5 -50.334 58.5 -83.001s21 -69.667 21 -111c0 -68.667 -18.167 -125 -54.5 -169s-85.166 -73 -146.499 -87zM191.999 255.999c0 -42 11.5 -76 34.5 -102s54.167 -39 93.5 -39
c38.667 0 69.5 13 92.5 39s34.5 60 34.5 102c0 41.333 -11.5 75 -34.5 101s-53.833 39 -92.5 39c-39.333 0 -70.5 -13 -93.5 -39s-34.5 -59.667 -34.5 -101z" />
    <glyph glyph-name="Aringacute" unicode="&#x1fa;" horiz-adv-x="742" 
d="M371 741c-18.667 0 -36.335 3.16699 -53.002 9.5s-31.167 15.166 -43.5 26.499s-22 25 -29 41s-10.5 34 -10.5 54s3.5 38 10.5 54s16.667 29.833 29 41.5s26.833 20.5 43.5 26.5s34.334 9 53.001 9h4l46 74h167l-105 -128c7.33301 -10 13 -21.5 17 -34.5
s6 -27.167 6 -42.5c0 -20 -3.5 -38 -10.5 -54s-16.667 -29.667 -29 -41s-26.666 -20.166 -42.999 -26.499s-33.833 -9.5 -52.5 -9.5zM370.999 932c-17.333 0 -31.333 -5.5 -42 -16.5s-16 -25.5 -16 -43.5c0 -17.333 5.33301 -31.5 16 -42.5s24.667 -16.5 42 -16.5
s31.666 5.5 42.999 16.5s17 25.167 17 42.5c0 18 -5.66699 32.5 -17 43.5s-25.666 16.5 -42.999 16.5zM560.999 0l-49 140h-283l-49 -140h-175l264 713h204l264 -713h-176zM277.999 277h186l-93 265z" />
    <glyph glyph-name="aringacute" unicode="&#x1fb;" horiz-adv-x="579" 
d="M293 562c-39.333 0 -70.334 11.999 -93.001 35.999s-34 53.333 -34 88c0 16.667 2.83301 32.334 8.5 47.001s14 27.5 25 38.5s24.333 19.833 40 26.5s33.5 10 53.5 10h11l46 75h168l-113 -138c9.33301 -17.333 14 -37 14 -59c0 -34.667 -11.167 -64 -33.5 -88
s-53.166 -36 -92.499 -36zM292.999 733.999c-13.333 0 -24.833 -4.16699 -34.5 -12.5s-14.5 -20.166 -14.5 -35.499s4.83301 -27.333 14.5 -36s21.167 -13 34.5 -13c14 0 25.833 4.33301 35.5 13s14.5 20.667 14.5 36s-4.83301 27.166 -14.5 35.499s-21.5 12.5 -35.5 12.5z
M521.999 90.999c0 -14.667 0.498047 -28.3311 1.49805 -40.998s4.16699 -24.667 9.5 -36v-14h-157l-6 61c-18 -25.333 -42.333 -43.5 -73 -54.5s-62 -16.5 -94 -16.5c-20 0 -40 2.33301 -60 7s-38.167 12.5 -54.5 23.5s-29.5 25.5 -39.5 43.5s-15 40 -15 66
c0 29.333 6 53.666 18 72.999s27.5 35.333 46.5 48s39.833 22.667 62.5 30s44.667 13.333 66 18l88 20c13.333 3.33301 24.833 7.5 34.5 12.5s14.5 13.833 14.5 26.5c0 19.333 -8.16699 32.666 -24.5 39.999s-34.166 11 -53.499 11c-26 0 -47.5 -5.83301 -64.5 -17.5
s-28.167 -29.5 -33.5 -53.5l-151 23c11.333 55.333 39.5 95.833 84.5 121.5s100.5 38.5 166.5 38.5c76.667 0 134.834 -16 174.501 -48s59.5 -79 59.5 -141v-241zM249.997 98.002c14 0 28.332 2.99902 42.999 8.99902s28 14.833 40 26.5s21.667 26.334 29 44.001
s11 38.167 11 61.5l-121 -34c-13.333 -3.33301 -26.5 -9 -39.5 -17s-19.5 -21.667 -19.5 -41c0 -16.667 5.33301 -29 16 -37s24.334 -12 41.001 -12z" />
    <glyph glyph-name="AEacute" unicode="&#x1fc;" horiz-adv-x="922" 
d="M394 743l85 138h167l-114 -138h-138zM5 0l264 713h608v-145h-268v-140h231v-144h-231v-139h268v-145h-433v140h-214l-50 -140h-175zM277 277h167v291h-64z" />
    <glyph glyph-name="aeacute" unicode="&#x1fd;" horiz-adv-x="919" 
d="M644 713l-117 -142h-138l87 142h168zM879 224l-376.002 0.00292969c3.33301 -36.667 16.5 -64.334 39.5 -83.001s50.5 -28 82.5 -28c24 0 44.667 5.16699 62 15.5s30.666 26.166 39.999 47.499l146 -20c-16.667 -53.333 -47 -94.333 -91 -123s-96 -43 -156 -43
c-46.667 0 -88.334 7 -125.001 21s-67 34.333 -91 61c-27.333 -27.333 -58.5 -47.833 -93.5 -61.5s-72.5 -20.5 -112.5 -20.5c-22.667 0 -44.167 2.5 -64.5 7.5s-38 13 -53 24s-27 25.167 -36 42.5s-13.5 38.666 -13.5 63.999c0 28.667 5.66699 52.5 17 71.5
s26.333 34.667 45 47s40 22.166 64 29.499s48.333 13.666 73 18.999l72 16c19.333 4 32.333 9.33301 39 16s10 15.334 10 26.001c0 23.333 -8.5 39.333 -25.5 48s-35.833 13 -56.5 13c-25.333 0 -46.666 -6 -63.999 -18s-27.666 -34 -30.999 -66l-140 21
c10.667 59.333 35.834 102.333 75.501 129s96.834 40 171.501 40c30 0 59.333 -3 88 -9s53.334 -18.667 74.001 -38c47.333 32 104.333 48 171 48c37.333 0 71.833 -5.16699 103.5 -15.5s59.167 -26.166 82.5 -47.499s41.666 -48.333 54.999 -81s20 -71.667 20 -117z
M620.998 404.003c-30.667 0 -55.666 -6.66699 -74.999 -20s-32.333 -34.666 -39 -63.999h218c-4.66699 27.333 -16.334 48.166 -35.001 62.499s-41.667 21.5 -69 21.5zM248.999 112.003c19.333 0 39.5 4.66895 60.5 14.002s36.5 24.333 46.5 45
c-4 17.333 -7 34.666 -9 51.999l-88 -21c-22 -5.33301 -38.833 -11.833 -50.5 -19.5s-17.5 -17.834 -17.5 -30.501c0 -13.333 5.33301 -23.333 16 -30s24.667 -10 42 -10z" />
    <glyph glyph-name="Oslashacute" unicode="&#x1fe;" horiz-adv-x="801" 
d="M584 881l-114 -138h-138l85 138h167zM643 644c39.333 -33.333 70 -74.332 92 -122.999s33 -103.667 33 -165c0 -54.667 -9 -104.834 -27 -150.501s-43.333 -84.667 -76 -117s-71.5 -57.5 -116.5 -75.5s-94.167 -27 -147.5 -27c-34.667 0 -67.5 3.83301 -98.5 11.5
s-60.167 18.5 -87.5 32.5l-56 -81l-60 35l59 85c-39.333 32.667 -70 73.334 -92 122.001s-33 103.667 -33 165c0 55.333 9.16699 105.666 27.5 150.999s43.666 84.333 75.999 117s71 58 116 76s94.5 27 148.5 27c34.667 0 67.334 -3.83301 98.001 -11.5
s59.667 -18.5 87 -32.5l56 81l60 -35zM198 356.001c0 -32 4.5 -60.833 13.5 -86.5s22.167 -48.167 39.5 -67.5l245 352c-29.333 14.667 -61 22 -95 22c-29.333 0 -56.5 -5.33301 -81.5 -16s-46.5 -25.5 -64.5 -44.5s-32 -42 -42 -69s-15 -57.167 -15 -90.5zM401 137.001
c29.333 0 56.333 5.16797 81 15.501s46 25.166 64 44.499s32 42.5 42 69.5s15 56.833 15 89.5c0 32 -4.66699 61 -14 87s-22.333 48.667 -39 68l-245 -352c29.333 -14.667 61.333 -22 96 -22z" />
    <glyph glyph-name="oslashacute" unicode="&#x1ff;" horiz-adv-x="639" 
d="M506 713l-117 -142h-138l87 142h168zM508 464c30.667 -22.667 54.498 -51.499 71.498 -86.499s25.5 -75.5 25.5 -121.5c0 -42 -7 -79.333 -21 -112s-33.5 -60.334 -58.5 -83.001s-55 -40.167 -90 -52.5s-73.5 -18.5 -115.5 -18.5c-45.333 0 -87.333 7.33301 -126 22
l-40 -57l-60 35l39 55c-31.333 23.333 -55.666 52.666 -72.999 87.999s-26 76.333 -26 123c0 41.333 7 78.333 21 111s33.5 60.334 58.5 83.001s55.167 40.167 90.5 52.5s74 18.5 116 18.5c46.667 0 89.334 -7.66699 128.001 -23l39 56l59 -35zM191.998 256.001
c0 -34.667 8.33398 -64.667 25.001 -90l153 221c-14.667 6 -31.334 9 -50.001 9c-39.333 0 -70.5 -13 -93.5 -39s-34.5 -59.667 -34.5 -101zM319.999 115.001c38.667 0 69.501 12.999 92.501 38.999s34.5 60 34.5 102c0 34.667 -8 63.334 -24 86.001l-152 -218
c15.333 -6 31.666 -9 48.999 -9z" />
    </font>
</defs>
</svg>
