<?xml version="1.0" standalone="no"?>
<!DOCTYPE svg PUBLIC "-//W3C//DTD SVG 1.1//EN" "http://www.w3.org/Graphics/SVG/1.1/DTD/svg11.dtd" >
<svg>
<metadata>
Created by FontForge 20090914 at Thu Jun 23 11:54:57 2022
 By www-data
Copyright &#194;&#169; 2020 Cerebri Sans Pro&#226;&#132;&#162; Version &#226;&#128;&#148; 2020 Edition by Alfredo Marco Pradil. All rights reserved.
</metadata>
<defs>
<font id="CerebriSansPro-Light" horiz-adv-x="0" >
  <font-face 
    font-family="Cerebri Sans Pro Light"
    font-weight="300"
    font-stretch="normal"
    units-per-em="1000"
    panose-1="0 0 4 0 0 0 0 0 0 0"
    ascent="750"
    descent="-250"
    x-height="478"
    cap-height="686"
    bbox="-796 -250.001 1206 1010"
    underline-thickness="50"
    underline-position="-90"
    unicode-range="U+000D-U+FB02"
  />
<missing-glyph horiz-adv-x="532" 
d="M61 0v686h409v-686h-409zM110 49h312v588h-312v-588z" />
    <glyph glyph-name="fi" unicode="fi" horiz-adv-x="556" 
d="M305 710c-38.667 0 -68.167 -10.5 -88.5 -31.5s-30.5 -52.833 -30.5 -95.5v-105h124v-49h-124v-429h-59v429h-100v49h100v105c0 58 15.5 102 46.5 132s75.5 45 133.5 45c51.333 0 91 -12.5 119 -37.5s46 -58.833 54 -101.5l-58 -15
c-4.66699 34 -16.167 59.833 -34.5 77.5s-45.833 26.5 -82.5 26.5zM422 478h59v-478h-59v478z" />
    <glyph glyph-name="fl" unicode="fl" horiz-adv-x="558" 
d="M305 760c56.667 0 100.5 -15 131.5 -45s46.5 -74 46.5 -132v-583h-60v580c0 86.667 -39.333 130 -118 130c-38.667 0 -68.167 -10.5 -88.5 -31.5s-30.5 -52.833 -30.5 -95.5v-105h124v-49h-124v-429h-59v429h-100v49h100v105c0 58 15.5 102 46.5 132s74.833 45 131.5 45z
" />
    <glyph glyph-name="f_f" unicode="ff" horiz-adv-x="636" 
d="M585 700c-30 0 -54.3311 -8.83105 -72.998 -26.498s-28 -47.834 -28 -90.501v-105h124v-49h-124v-429h-59v429h-239v-429h-59v429h-100v49h100v105c0 58 15.5 102 46.5 132s75.5 45 133.5 45c35.333 0 64.666 -6.16699 87.999 -18.5s41.666 -29.5 54.999 -51.5
c13.333 21.333 31.333 36.666 54 45.999s49.667 14 81 14h23v-50h-23zM186.002 478.002l239 0.000976562v105c0 6 0.166992 11.667 0.5 17s0.833008 10.666 1.5 15.999c-6.66699 30 -19.667 53.167 -39 69.5s-47 24.5 -83 24.5c-42 0 -72.333 -11.167 -91 -33.5
s-28 -53.5 -28 -93.5v-105z" />
    <glyph glyph-name="f_f_i" unicode="ffi" horiz-adv-x="852" 
d="M603 760c51.333 0 91.001 -12.5 119.001 -37.5s46 -58.833 54 -101.5l-59 -15c-4 34 -15.167 59.833 -33.5 77.5s-46.166 26.5 -83.499 26.5c-78.667 0 -118 -42.333 -118 -127v-105h124v-49h-124v-429h-59v429h-237v-429h-59v429h-100v49h100v105
c0 58 15.5 102 46.5 132s75.5 45 133.5 45c35.333 0 64.666 -6.16699 87.999 -18.5s41.666 -29.5 54.999 -51.5c29.333 46.667 80.333 70 153 70zM423.001 478l-0.000976562 104.999c0 14 1 26.333 3 37c-7.33301 28.667 -20.666 50.834 -39.999 66.501
s-46.333 23.5 -81 23.5c-42 0 -72.333 -11.167 -91 -33.5s-28 -53.5 -28 -93.5v-105h237zM718 477.999h59v-478h-59v478z" />
    <glyph glyph-name="f_f_l" unicode="ffl" horiz-adv-x="854" 
d="M601 760c56.667 0 100.503 -15 131.503 -45s46.5 -74 46.5 -132v-583h-60v580c0 86.667 -39.667 130 -119 130c-38.667 0 -68 -10.833 -88 -32.5s-30 -53.167 -30 -94.5v-105h124v-49h-124v-429h-59v429h-237v-429h-59v429h-100v49h100v105c0 58 15.5 102 46.5 132
s75.5 45 133.5 45c35.333 0 64.666 -6.16699 87.999 -18.5s41.666 -29.5 54.999 -51.5c29.333 46.667 79.666 70 150.999 70zM423.003 478l-0.000976562 104.999c0 14 1 26.333 3 37c-7.33301 28.667 -20.666 50.834 -39.999 66.501s-46.333 23.5 -81 23.5
c-42 0 -72.333 -11.167 -91 -33.5s-28 -53.5 -28 -93.5v-105h237z" />
    <glyph glyph-name="h_d_c_o.liga" unicode="hdco" horiz-adv-x="860" 
d="M430 0c-52 0 -101.167 10 -147.5 30s-86.666 47.167 -120.999 81.5s-61.5 74.666 -81.5 120.999s-30 95.5 -30 147.5c0 52.667 10 102 30 148s47.167 86.167 81.5 120.5s74.666 61.5 120.999 81.5s95.5 30 147.5 30c52.667 0 102 -10 148 -30s86.167 -47.167 120.5 -81.5
s61.5 -74.5 81.5 -120.5s30 -95.333 30 -148c0 -52 -10 -101.167 -30 -147.5s-47.167 -86.666 -81.5 -120.999s-74.5 -61.5 -120.5 -81.5s-95.333 -30 -148 -30zM430 36c47.333 0 92 9 134 27s78.5 42.667 109.5 74s55.5 67.833 73.5 109.5s27 86.167 27 133.5
s-9 92 -27 134s-42.5 78.5 -73.5 109.5s-67.5 55.5 -109.5 73.5s-86.667 27 -134 27s-91.833 -9 -133.5 -27s-78.167 -42.5 -109.5 -73.5s-56 -67.5 -74 -109.5s-27 -86.667 -27 -134s9 -91.833 27 -133.5s42.667 -78.167 74 -109.5s67.833 -56 109.5 -74
s86.167 -27 133.5 -27zM629 217c-4.66699 0 -8.66699 1.99805 -12 5.99805l-145 144c-8 9.33301 -8 18 0 26l145 145c8.66699 8.66699 17 8.66699 25 0c3.33301 -3.33301 5 -7.66602 5 -12.999s-1.66699 -9.66602 -5 -12.999l-132 -132l132 -132
c8.66699 -8 8.66699 -16.333 0 -25c-2.66699 -4 -7 -6 -13 -6zM231 216.998c-5.33301 0 -9.66602 1.66699 -12.999 5s-5 7.66602 -5 12.999v290c0 5.33301 1.66699 9.66602 5 12.999s7.66602 5 12.999 5s9.66602 -1.66699 12.999 -5s5 -7.66602 5 -12.999v-290
c0 -5.33301 -1.66699 -9.66602 -5 -12.999s-7.66602 -5 -12.999 -5zM430 216.998c-5.33301 0 -9.66602 1.66699 -12.999 5s-5 7.66602 -5 12.999v290c0 5.33301 1.66699 9.66602 5 12.999s7.66602 5 12.999 5s9.66602 -1.66699 12.999 -5s5 -7.66602 5 -12.999v-290
c0 -5.33301 -1.66699 -9.66602 -5 -12.999s-7.66602 -5 -12.999 -5zM285 361.998c-5.33301 0 -9.66602 1.66699 -12.999 5s-5 7.66602 -5 12.999s1.66699 9.66602 5 12.999s7.66602 5 12.999 5h91c5.33301 0 9.66602 -1.66699 12.999 -5s5 -7.66602 5 -12.999
s-1.66699 -9.66602 -5 -12.999s-7.66602 -5 -12.999 -5h-91z" />
    <glyph glyph-name="hyphen_greater.liga" unicode="&#x2d;&#x3e;" horiz-adv-x="687" 
d="M503 56h-55l132 160h-580v48h580l-132 160h55l152 -184z" />
    <glyph glyph-name="less_hyphen.liga" unicode="&#x3c;&#x2d;" horiz-adv-x="687" 
d="M185 56l-152 184l152 184h54l-132 -160h580v-48h-580l132 -160h-54z" />
    <glyph glyph-name="parenleft_greater_parenright.liga" unicode="&#x28;&#x3e;&#x29;" horiz-adv-x="811" 
d="M406 -10c-48.667 0 -94.499 9.33301 -137.499 28s-80.5 44 -112.5 76s-57.333 69.333 -76 112s-28 88.334 -28 137.001s9.33301 94.334 28 137.001s44 80 76 112s69.5 57.333 112.5 76s88.833 28 137.5 28c48 0 93.333 -9.33301 136 -28s80 -44 112 -76
s57.333 -69.333 76 -112s28 -88.334 28 -137.001s-9.16699 -94.334 -27.5 -137.001s-43.5 -80 -75.5 -112s-69.333 -57.333 -112 -76s-88.334 -28 -137.001 -28zM406.001 28c43.333 0 84.167 8.33301 122.5 25s71.833 39.167 100.5 67.5s51.167 61.666 67.5 99.999
s24.5 79.166 24.5 122.499s-8.16699 84.166 -24.5 122.499s-38.833 71.833 -67.5 100.5s-62.167 51.167 -100.5 67.5s-79.166 24.5 -122.499 24.5s-84.166 -8.16699 -122.499 -24.5s-71.833 -38.833 -100.5 -67.5s-51.334 -62.167 -68.001 -100.5s-25 -79.166 -25 -122.499
s8.33301 -84.166 25 -122.499s39.167 -71.666 67.5 -99.999s61.666 -50.833 99.999 -67.5s79.5 -25 123.5 -25zM312.002 144v398l291 -199z" />
    <glyph glyph-name=".notdef" horiz-adv-x="532" 
d="M61 0v686h409v-686h-409zM110 49h312v588h-312v-588z" />
    <glyph glyph-name=".null" 
 />
    <glyph glyph-name=".null" 
 />
    <glyph glyph-name="nonmarkingreturn" unicode="&#xd;" horiz-adv-x="250" 
 />
    <glyph glyph-name="space" unicode=" " horiz-adv-x="260" 
 />
    <glyph glyph-name="exclam" unicode="!" horiz-adv-x="229" 
d="M89 193l-5 493h60l-5 -493h-50zM114 -10c-12.667 0 -23.667 4.5 -33 13.5s-14 20.167 -14 33.5c0 12.667 4.66699 23.5 14 32.5s20.333 13.5 33 13.5s23.667 -4.5 33 -13.5s14 -19.833 14 -32.5c0 -13.333 -4.66699 -24.5 -14 -33.5s-20.333 -13.5 -33 -13.5z" />
    <glyph glyph-name="quotedbl" unicode="&#x22;" horiz-adv-x="350" 
d="M61 372l-6 314h57l-5 -314h-46zM243 372l-5 314h57l-6 -314h-46z" />
    <glyph glyph-name="numbersign" unicode="#" horiz-adv-x="695" 
d="M150 0l26 177h-140l6 45h140l36 243h-141l8 45h139l25 176h46l-25 -176h199l25 176h46l-25 -176h145l-7 -45h-145l-35 -243h145l-6 -45h-145l-26 -177h-45l25 177h-200l-25 -177h-46zM228 222h200l35 243h-200z" />
    <glyph glyph-name="dollar" unicode="$" horiz-adv-x="602" 
d="M550 185c0 -58.667 -20.168 -105.332 -60.501 -139.999s-95.833 -53.334 -166.5 -56.001v-61h-30v61c-66.667 2.66699 -122.334 19.5 -167.001 50.5s-73 74.5 -85 130.5l61 12c11.333 -43.333 33.333 -76.833 66 -100.5s74.334 -36.834 125.001 -39.501v281
c-1.33301 0 -2.33301 0.166992 -3 0.5s-1.66699 0.5 -3 0.5c-27.333 6 -54.333 13 -81 21s-50.667 18.5 -72 31.5s-38.666 30 -51.999 51s-20 47.5 -20 79.5c0 28.667 5.33301 54.667 16 78s26 43.333 46 60s43.833 29.5 71.5 38.5s58.5 13.5 92.5 13.5h5v63h30v-64
c54 -4.66699 99.5 -20.167 136.5 -46.5s63.167 -65.5 78.5 -117.5l-55 -14c-13.333 39.333 -32.833 69 -58.5 89s-59.5 32 -101.5 36v-270c27.333 -6 54.5 -13 81.5 -21s51.333 -18.833 73 -32.5s39.167 -31.167 52.5 -52.5s20 -48.666 20 -81.999zM123.999 509.002
c0 -21.333 4.49902 -39.168 13.499 -53.501s21.167 -26.166 36.5 -35.499s33.333 -17 54 -23s42.334 -11.667 65.001 -17v264h-2c-50.667 0 -91.167 -12 -121.5 -36s-45.5 -57 -45.5 -99zM322.998 42c51.333 2 91.5 15.168 120.5 39.501s43.5 57.5 43.5 99.5
c0 22 -4.33301 40.5 -13 55.5s-20.5 27.5 -35.5 37.5s-32.5 18.167 -52.5 24.5s-41 12.166 -63 17.499v-274z" />
    <glyph glyph-name="percent" unicode="%" horiz-adv-x="710" 
d="M194 416c-19.333 0 -37.501 3.66699 -54.501 11s-31.667 17.333 -44 30s-22.166 27.5 -29.499 44.5s-11 35.167 -11 54.5s3.66699 37.5 11 54.5s17.333 31.833 30 44.5s27.5 22.667 44.5 30s34.833 11 53.5 11c19.333 0 37.5 -3.66699 54.5 -11s31.667 -17.333 44 -30
s22.166 -27.5 29.499 -44.5s11 -35.167 11 -54.5s-3.66699 -37.5 -11 -54.5s-17.166 -31.833 -29.499 -44.5s-27 -22.667 -44 -30s-35.167 -11 -54.5 -11zM142.999 0l365 686h53l-364 -686h-54zM193.999 460c26.667 0 49.167 9.16504 67.5 27.498s27.5 41.166 27.5 68.499
c0 26.667 -9.33301 49.334 -28 68.001s-41 28 -67 28s-48.333 -9.16699 -67 -27.5s-28 -41.166 -28 -68.499s9.33301 -50.166 28 -68.499s41 -27.5 67 -27.5zM516.999 -10.002c-19.333 0 -37.6689 3.66797 -55.002 11.001s-32.333 17.333 -45 30s-22.667 27.667 -30 45
s-11 35.666 -11 54.999s3.66699 37.5 11 54.5s17.333 31.833 30 44.5s27.667 22.667 45 30s35.666 11 54.999 11c18.667 0 36.334 -3.66699 53.001 -11s31.334 -17.333 44.001 -30s22.667 -27.5 30 -44.5s11 -35.167 11 -54.5s-3.66699 -37.5 -11 -54.5
s-17.166 -32 -29.499 -45s-26.833 -23.167 -43.5 -30.5s-34.667 -11 -54 -11zM516.996 34.999c26 0 48.335 9.33301 67.002 28s28 41.334 28 68.001c0 13.333 -2.5 25.833 -7.5 37.5s-11.833 21.834 -20.5 30.501s-18.834 15.5 -30.501 20.5s-23.834 7.5 -36.501 7.5
c-27.333 0 -50.333 -9.33301 -69 -28s-28 -41.334 -28 -68.001s9.33301 -49.334 28 -68.001s41.667 -28 69 -28z" />
    <glyph glyph-name="ampersand" unicode="&#x26;" horiz-adv-x="691" 
d="M634 387c0 -54.667 -8.66602 -104.5 -25.999 -149.5s-40.333 -84.5 -69 -118.5l91 -119h-69l-61 79c-33.333 -29.333 -69.833 -51.666 -109.5 -66.999s-79.834 -23 -120.501 -23c-68 0 -121.333 15.833 -160 47.5s-58 76.5 -58 134.5c0 29.333 5.5 55.166 16.5 77.499
s25.5 42.666 43.5 60.999s38.833 35.166 62.5 50.499l72.5 47l-13 17c-14.667 19.333 -28.5 40.5 -41.5 63.5s-19.5 47.833 -19.5 74.5c0 20 3.66699 38.167 11 54.5s17.5 30.5 30.5 42.5s28.5 21.333 46.5 28s37.667 10 59 10c45.333 0 81.333 -12.333 108 -37
s40 -56 40 -94c0 -18.667 -3.16699 -35.5 -9.5 -50.5s-15.5 -29 -27.5 -42s-26.833 -25.667 -44.5 -38s-38.167 -25.166 -61.5 -38.499l180 -235c22.667 28.667 40.667 61.834 54 99.501s20 79.5 20 125.5h55zM230.001 564c0 -20.667 5.83496 -40.834 17.502 -60.501
s23.5 -37.167 35.5 -52.5l14 -18c20 12.667 37.167 24.334 51.5 35.001s26.166 21.167 35.499 31.5s16.166 21 20.499 32s6.5 23.5 6.5 37.5c0 24 -8.16699 44 -24.5 60s-37.5 24 -63.5 24c-28 0 -50.5 -8.5 -67.5 -25.5s-25.5 -38.167 -25.5 -63.5zM274.003 41
c33.333 0 66.832 6.83398 100.499 20.501s64.834 33.5 93.501 59.5l-191 247l-62 -40c-20 -12.667 -37.667 -26.334 -53 -41.001s-27.5 -31 -36.5 -49s-13.5 -39 -13.5 -63c0 -44 14 -77.333 42 -100s68 -34 120 -34z" />
    <glyph glyph-name="quotesingle" unicode="'" horiz-adv-x="167" 
d="M60 372l-5 314h57l-6 -314h-46z" />
    <glyph glyph-name="parenleft" unicode="(" horiz-adv-x="296" 
d="M214 -250c-50 52 -88.667 122.667 -116 212s-41 190.333 -41 303s13.667 213.667 41 303s66 160 116 212h65c-26.667 -24 -50.334 -53.333 -71.001 -88s-38.167 -74 -52.5 -118s-25.333 -92 -33 -144s-11.5 -107 -11.5 -165s3.83301 -112.833 11.5 -164.5
s18.667 -99.667 33 -144s31.833 -83.833 52.5 -118.5s44.334 -64 71.001 -88h-65z" />
    <glyph glyph-name="parenright" unicode=")" horiz-adv-x="296" 
d="M17 -250c26.667 24 50.334 53.333 71.001 88s38.167 74.167 52.5 118.5s25.333 92.333 33 144s11.5 106.5 11.5 164.5s-3.83301 113 -11.5 165s-18.667 100 -33 144s-31.833 83.333 -52.5 118s-44.334 64 -71.001 88h65c50 -52 88.667 -122.667 116 -212
s41 -190.333 41 -303s-13.667 -213.667 -41 -303s-66 -160 -116 -212h-65z" />
    <glyph glyph-name="asterisk" unicode="*" horiz-adv-x="361" 
d="M115 461l-33.998 20.999l70 98c4.66699 6 6 11 4 15s-6.66699 5.66699 -14 5l-123 -8v39l123 -9c7.33301 -0.666992 12.166 1 14.499 5s1.16602 9 -3.50098 15l-71 100l34 19l55 -108c2.66699 -6.66699 6 -10 10 -10s7.66699 3.33301 11 10l54 108l33 -19l-70 -100
c-4 -6 -5 -11.167 -3 -15.5s6.66699 -6.16602 14 -5.49902l123 10v-39l-123 8c-7.33301 0.666992 -12 -1 -14 -5s-1 -9 3 -15l70 -98l-33 -21l-54 109c-2.66699 6 -6 9.16699 -10 9.5s-7.66699 -3.16699 -11 -10.5z" />
    <glyph glyph-name="plus" unicode="+" horiz-adv-x="569" 
d="M261 8v208h-207v48h207v206h48v-206h207v-48h-207v-208h-48z" />
    <glyph glyph-name="comma" unicode="," horiz-adv-x="282" 
d="M82 -176l60 302h61l-74 -302h-47z" />
    <glyph glyph-name="hyphen" unicode="-" horiz-adv-x="384" 
d="M17 216v48h350v-48h-350z" />
    <glyph glyph-name="period" unicode="." horiz-adv-x="294" 
d="M147 -10c-12.667 0 -23.667 4.5 -33 13.5s-14 20.167 -14 33.5c0 12.667 4.66699 23.5 14 32.5s20.333 13.5 33 13.5s23.667 -4.5 33 -13.5s14 -19.833 14 -32.5c0 -13.333 -4.66699 -24.5 -14 -33.5s-20.333 -13.5 -33 -13.5z" />
    <glyph glyph-name="slash" unicode="/" horiz-adv-x="539" 
d="M-2 -180l484 930h59l-484 -930h-59z" />
    <glyph glyph-name="zero" unicode="0" horiz-adv-x="560" 
d="M280 -11c-72.667 0 -127.834 29.498 -165.501 88.498s-56.5 147.5 -56.5 265.5c0 118.667 18.833 207.334 56.5 266.001s92.834 88 165.501 88s127.834 -29.5 165.501 -88.5s56.5 -147.5 56.5 -265.5c0 -117.333 -18.833 -205.666 -56.5 -264.999
s-92.834 -89 -165.501 -89zM280 43.998c52.667 0 93 24.667 121 74s42 124.333 42 225c0 102 -13.667 177.333 -41 226s-68 73 -122 73s-94.667 -24.333 -122 -73s-41 -124 -41 -226c0 -101.333 14 -176.5 42 -225.5s68.333 -73.5 121 -73.5z" />
    <glyph glyph-name="one" unicode="1" horiz-adv-x="560" 
d="M306 686h59v-686h-59v616l-170 -139v69z" />
    <glyph glyph-name="two" unicode="2" horiz-adv-x="560" 
d="M132 54l374 0.000976562v-54h-445v64l282 286c30.667 32 52.667 60.167 66 84.5s20 50.166 20 77.499c0 40.667 -13.167 72.667 -39.5 96s-62.5 35 -108.5 35c-52 0 -91.833 -13.5 -119.5 -40.5s-41.5 -66.167 -41.5 -117.5v-35l-59 7v32c0 66 19.167 117.167 57.5 153.5
s91.833 54.5 160.5 54.5c31.333 0 59.833 -4.33301 85.5 -13s47.667 -21 66 -37s32.5 -35.333 42.5 -58s15 -48 15 -76c0 -14.667 -1.5 -29.5 -4.5 -44.5s-8.33301 -30.5 -16 -46.5s-18 -32.667 -31 -50s-29.5 -36.333 -49.5 -57z" />
    <glyph glyph-name="three" unicode="3" horiz-adv-x="560" 
d="M285 -11c-74 0 -131.499 19.833 -172.499 59.5s-61.5 95.5 -61.5 167.5h60c0.666992 -53.333 15.5 -95.5 44.5 -126.5s71.833 -46.5 128.5 -46.5c24 0 46 3.83301 66 11.5s37 18.167 51 31.5s25 29.333 33 48s12 39 12 61c0 25.333 -4.5 47.5 -13.5 66.5
s-21.333 35 -37 48s-34.5 22.667 -56.5 29s-46 9.5 -72 9.5h-23v48h23c44 0 78.833 12 104.5 36s38.5 55 38.5 93c0 35.333 -12.167 63.833 -36.5 85.5s-55.833 32.5 -94.5 32.5c-43.333 0 -78.166 -13.667 -104.499 -41s-39.5 -63 -39.5 -107v-4l-60 6
c0 30 4.83301 57.333 14.5 82s23.5 45.834 41.5 63.501s39.333 31.167 64 40.5s52 14 82 14c28 0 53.5 -4.16699 76.5 -12.5s43 -20 60 -35s30.167 -32.833 39.5 -53.5s14 -43 14 -67c0 -38.667 -10.5 -71 -31.5 -97s-47.5 -44.333 -79.5 -55
c45.333 -10.667 81.666 -31.334 108.999 -62.001s41 -71.667 41 -123c0 -29.333 -5.33301 -56.5 -16 -81.5s-25.834 -46.5 -45.501 -64.5s-43 -32 -70 -42s-56.833 -15 -89.5 -15z" />
    <glyph glyph-name="four" unicode="4" horiz-adv-x="560" 
d="M528 212v-54h-84v-158h-59v158h-350v55l325 473h84v-474h84zM98 212h287v426z" />
    <glyph glyph-name="five" unicode="5" horiz-adv-x="560" 
d="M244 431c89.333 0 155.831 -17.333 199.498 -52s65.5 -89.334 65.5 -164.001c0 -34 -5.5 -64.833 -16.5 -92.5s-26.167 -51.334 -45.5 -71.001s-42.666 -35 -69.999 -46s-57.666 -16.5 -90.999 -16.5c-72.667 0 -129.667 19.167 -171 57.5s-62 91.833 -62 160.5
c0 4.66699 0.166992 9 0.5 13s0.833008 8.33301 1.5 13h58c-0.666992 -4 -1 -7.83301 -1 -11.5v-10.5c0 -53.333 15 -94.666 45 -123.999s73.333 -44 130 -44c24.667 0 47 4.16699 67 12.5s37 20 51 35s24.833 32.833 32.5 53.5s11.5 43.334 11.5 68.001
c0 62 -19 105.333 -57 130s-92.333 37 -163 37h-151l43 307h358v-54h-307l-29 -201h101z" />
    <glyph glyph-name="six" unicode="6" horiz-adv-x="560" 
d="M290 461c32 0 61.6689 -5.83398 89.002 -17.501s51 -28 71 -49s35.833 -45.833 47.5 -74.5s17.5 -59.667 17.5 -93s-6 -64.5 -18 -93.5s-28.667 -54.167 -50 -75.5s-46.333 -38.166 -75 -50.499s-59.667 -18.5 -93 -18.5s-64.333 6.16699 -93 18.5
s-53.334 29.333 -74.001 51s-36.834 47 -48.501 76s-17.5 60.167 -17.5 93.5c0 62.667 20.667 118.667 62 168l246 290h73l-199 -233c21.333 5.33301 42 8 62 8zM278.002 42.999c26 0 49.832 4.83008 71.499 14.4971s40.5 22.834 56.5 39.501s28.333 36.167 37 58.5
s13 46.5 13 72.5s-4.16699 50.333 -12.5 73s-20.333 42.334 -36 59.001s-34.5 29.834 -56.5 39.501s-46 14.5 -72 14.5s-49.833 -4.66699 -71.5 -14s-40.167 -22.333 -55.5 -39s-27.5 -36.167 -36.5 -58.5s-13.5 -46.5 -13.5 -72.5s4.16699 -50.333 12.5 -73
s20.333 -42.5 36 -59.5s34.334 -30.333 56.001 -40s45.5 -14.5 71.5 -14.5z" />
    <glyph glyph-name="seven" unicode="7" horiz-adv-x="560" 
d="M47 686h467v-54l-360 -632h-68l363 632h-402v54z" />
    <glyph glyph-name="eight" unicode="8" horiz-adv-x="560" 
d="M281 -11c-32 0 -61.668 4.82812 -89.001 14.4951s-51 23.334 -71 41.001s-35.5 38.834 -46.5 63.501s-16.5 51.667 -16.5 81c0 42.667 11.667 79.834 35 111.501s55 54.167 95 67.5c-31.333 13.333 -56.5 33.333 -75.5 60s-28.5 58 -28.5 94c0 25.333 5 48.666 15 69.999
s23.833 39.833 41.5 55.5s38.5 27.834 62.5 36.501s50 13 78 13s53.833 -4.5 77.5 -13.5s44.167 -21.167 61.5 -36.5s31 -33.666 41 -54.999s15 -44.666 15 -69.999c0 -35.333 -9.5 -66.5 -28.5 -93.5s-43.5 -47.167 -73.5 -60.5
c38.667 -13.333 69.834 -35.666 93.501 -66.999s35.5 -68.666 35.5 -111.999c0 -29.333 -5.66699 -56.333 -17 -81s-26.833 -45.834 -46.5 -63.501s-43 -31.334 -70 -41.001s-56.5 -14.5 -88.5 -14.5zM280.999 386.995c20 0 38.501 3.33301 55.501 10s31.667 16 44 28
s22.166 26.167 29.499 42.5s11 33.833 11 52.5s-3.66699 35.834 -11 51.501s-17.333 29.334 -30 41.001s-27.5 20.834 -44.5 27.501s-35.167 10 -54.5 10c-20 0 -38.667 -3.33301 -56 -10s-32.166 -15.834 -44.499 -27.501s-22.166 -25.334 -29.499 -41.001
s-11 -32.834 -11 -51.501s3.66699 -36.167 11 -52.5s17.166 -30.5 29.499 -42.5s27.166 -21.333 44.499 -28s36 -10 56 -10zM281 42.9951c23.333 0 45.001 3.66699 65.001 11s37.167 17.833 51.5 31.5s25.5 29.667 33.5 48s12 38.5 12 60.5s-4 42.167 -12 60.5
s-19.167 34 -33.5 47s-31.333 23.167 -51 30.5s-41.5 11 -65.5 11s-46 -3.66699 -66 -11s-37.333 -17.5 -52 -30.5s-26 -28.667 -34 -47s-12 -38.5 -12 -60.5s4.16699 -42.167 12.5 -60.5s19.666 -34.333 33.999 -48s31.5 -24.167 51.5 -31.5s42 -11 66 -11z" />
    <glyph glyph-name="nine" unicode="9" horiz-adv-x="560" 
d="M281 697c33.333 0 64.333 -6.16602 93 -18.499s53.5 -29.333 74.5 -51s37.333 -47 49 -76s17.5 -60.167 17.5 -93.5c0 -31.333 -5.33301 -61 -16 -89s-26 -54.333 -46 -79l-246 -290h-74l200 233c-21.333 -5.33301 -42.333 -8 -63 -8c-32 0 -61.667 5.83301 -89 17.5
s-51 28 -71 49s-35.667 45.833 -47 74.5s-17 59.667 -17 93s6 64.5 18 93.5s28.5 54.167 49.5 75.5s45.833 38.166 74.5 50.499s59.667 18.5 93 18.5zM281 272.001c26 0 49.833 4.66992 71.5 14.0029s40.167 22.333 55.5 39s27.5 36.167 36.5 58.5s13.5 46.5 13.5 72.5
s-4.16699 50.333 -12.5 73s-20.166 42.5 -35.499 59.5s-34 30.333 -56 40s-46 14.5 -72 14.5s-49.833 -4.83301 -71.5 -14.5s-40.334 -22.834 -56.001 -39.501s-28 -36.167 -37 -58.5s-13.5 -46.5 -13.5 -72.5s4.33301 -50.333 13 -73s20.667 -42.334 36 -59.001
s34 -29.834 56 -39.501s46 -14.5 72 -14.5z" />
    <glyph glyph-name="colon" unicode=":" horiz-adv-x="282" 
d="M141 376c-12.667 0 -23.667 4.33301 -33 13s-14 19.667 -14 33c0 12.667 4.66699 23.667 14 33s20.333 14 33 14s23.667 -4.66699 33 -14s14 -20.333 14 -33c0 -13.333 -4.66699 -24.333 -14 -33s-20.333 -13 -33 -13zM141 -10c-12.667 0 -23.667 4.5 -33 13.5
s-14 20.167 -14 33.5c0 12.667 4.66699 23.5 14 32.5s20.333 13.5 33 13.5s23.667 -4.5 33 -13.5s14 -19.833 14 -32.5c0 -13.333 -4.66699 -24.5 -14 -33.5s-20.333 -13.5 -33 -13.5z" />
    <glyph glyph-name="semicolon" unicode=";" horiz-adv-x="284" 
d="M155 376c-12.667 0 -23.5 4.33301 -32.5 13s-13.5 19.667 -13.5 33c0 12.667 4.5 23.667 13.5 33s19.833 14 32.5 14c13.333 0 24.5 -4.66699 33.5 -14s13.5 -20.333 13.5 -33c0 -13.333 -4.5 -24.333 -13.5 -33s-20.167 -13 -33.5 -13zM70 -176l60 302h60l-74 -302h-46z
" />
    <glyph glyph-name="less" unicode="&#x3c;" horiz-adv-x="481" 
d="M428 454v-52l-325 -162l325 -164v-52l-374 189v54z" />
    <glyph glyph-name="equal" unicode="=" horiz-adv-x="557" 
d="M54 315v48h450v-48h-450zM54 116v48h450v-48h-450z" />
    <glyph glyph-name="greater" unicode="&#x3e;" horiz-adv-x="481" 
d="M54 454l374 -187v-54l-374 -189v52l324 164l-324 162v52z" />
    <glyph glyph-name="question" unicode="?" horiz-adv-x="490" 
d="M218 190l0.00195312 30.9961c0 30 6.66699 54.333 20 73s33.333 37.334 60 56.001c10.667 7.33301 21.667 15.333 33 24s21.5 18.834 30.5 30.501s16.333 25.334 22 41.001s8.5 34.5 8.5 56.5c0 44.667 -13.5 79.834 -40.5 105.501s-63.5 38.5 -109.5 38.5
c-46.667 0 -83.834 -13.667 -111.501 -41s-41.5 -63.666 -41.5 -108.999c0 -15.333 1.33301 -28.666 4 -39.999h-54c-2 13.333 -3 27.333 -3 42c0 29.333 5 56.333 15 81s24 45.667 42 63s39.667 30.833 65 40.5s53.333 14.5 84 14.5c31.333 0 59.666 -4.5 84.999 -13.5
s47 -21.833 65 -38.5s31.833 -36.667 41.5 -60s14.5 -49.666 14.5 -78.999c0 -28.667 -3.83301 -53.334 -11.5 -74.001s-17.167 -38.334 -28.5 -53.001s-23.833 -27 -37.5 -37l-37.5 -27c-23.333 -17.333 -39.833 -33.333 -49.5 -48s-14.5 -32.334 -14.5 -53.001v-24h-51z
M244.002 -10.0039c-13.333 0 -24.5 4.5 -33.5 13.5s-13.5 20.167 -13.5 33.5c0 12.667 4.66699 23.5 14 32.5s20.333 13.5 33 13.5s23.5 -4.5 32.5 -13.5s13.5 -19.833 13.5 -32.5c0 -13.333 -4.5 -24.5 -13.5 -33.5s-19.833 -13.5 -32.5 -13.5z" />
    <glyph glyph-name="at" unicode="@" horiz-adv-x="873" 
d="M438 -103c-50.667 0 -98.332 9.49902 -142.999 28.499s-83.667 45 -117 78s-59.666 71.833 -78.999 116.5s-29 92.334 -29 143.001c0 51.333 9.5 99.5 28.5 144.5s45.167 84.167 78.5 117.5s72.333 59.666 117 78.999s92.667 29 144 29c52 0 100.333 -9.66699 145 -29
s83.5 -45.5 116.5 -78.5s58.833 -71.667 77.5 -116s28 -91.166 28 -140.499c0 -64.667 -13.167 -114.667 -39.5 -150s-63.833 -53 -112.5 -53c-61.333 0 -99 26.667 -113 80h-3c-26.667 -54.667 -71 -82 -133 -82c-36 0 -65.833 9.16699 -89.5 27.5s-35.5 43.5 -35.5 75.5
c0 34 11.667 60.167 35 78.5s54 31.166 92 38.499l124 24v31c0 27.333 -8.5 48.5 -25.5 63.5s-40.167 22.5 -69.5 22.5c-48.667 0 -81.334 -23.333 -98.001 -70l-41 13c10 28.667 26.667 51.167 50 67.5s53 24.5 89 24.5c39.333 0 72.333 -10.667 99 -32s40 -53 40 -95v-147
c0 -55.333 27.333 -83 82 -83c36 0 63.333 13.833 82 41.5s28 68.167 28 121.5c0 45.333 -8.33301 87.833 -25 127.5s-39.667 74.334 -69 104.001s-64 53 -104 70s-83.333 25.5 -130 25.5c-46 0 -89 -8.5 -129 -25.5s-74.667 -40.333 -104 -70s-52.5 -64.5 -69.5 -104.5
s-25.5 -83.333 -25.5 -130c0 -45.333 8.5 -87.833 25.5 -127.5s40.333 -74.167 70 -103.5s64.5 -52.5 104.5 -69.5s82.667 -25.5 128 -25.5c59.333 0 114 14.333 164 43l18 -34c-26.667 -15.333 -55.334 -27.333 -86.001 -36s-62.667 -13 -96 -13zM411.002 99.999
c38 0 67.332 13 87.999 39s31 63 31 111v27l-110 -23c-34 -7.33301 -58.5 -17.833 -73.5 -31.5s-22.5 -31.167 -22.5 -52.5s7.83301 -38.333 23.5 -51s36.834 -19 63.501 -19z" />
    <glyph glyph-name="A" unicode="A" horiz-adv-x="655" 
d="M568 0l-68 177h-345l-68 -177h-65l266 686h79l266 -686h-65zM175 230h305l-152 395z" />
    <glyph glyph-name="B" unicode="B" horiz-adv-x="602" 
d="M412 359c44 -9.33301 77.667 -28.334 101 -57.001s35 -68 35 -118c0 -34 -5.83301 -62.833 -17.5 -86.5s-27.167 -42.667 -46.5 -57s-41.5 -24.666 -66.5 -30.999s-50.5 -9.5 -76.5 -9.5h-258v686h215c139.333 0 209 -58 209 -174c0 -78.667 -31.667 -129.667 -95 -153z
M445 503.999c0 86 -49.333 129 -148 129h-153v-258h153c98.667 0 148 43 148 129zM342 53.999c96.667 0 145 45.333 145 136c0 90 -48.333 135 -145 135h-198v-271h198z" />
    <glyph glyph-name="C" unicode="C" horiz-adv-x="736" 
d="M393 -11c-50 0 -96 8.66699 -138 26s-78 41.5 -108 72.5s-53.333 68.167 -70 111.5s-25 91.333 -25 144s8.33301 100.667 25 144s40 80.5 70 111.5s66 55.167 108 72.5s88 26 138 26c70 0 131.167 -16.167 183.5 -48.5s92.166 -76.833 119.499 -133.5l-58 -22
c-22 46 -54.167 82 -96.5 108s-91.833 39 -148.5 39c-41.333 0 -79.166 -7.16699 -113.499 -21.5s-63.666 -34.5 -87.999 -60.5s-43.333 -57.333 -57 -94s-20.5 -77 -20.5 -121s6.83301 -84.333 20.5 -121s32.667 -68 57 -94s53.666 -46.167 87.999 -60.5
s72.166 -21.5 113.499 -21.5c56.667 0 106.167 13 148.5 39s74.5 62 96.5 108l58 -22c-27.333 -56.667 -67.166 -101.167 -119.499 -133.5s-113.5 -48.5 -183.5 -48.5z" />
    <glyph glyph-name="D" unicode="D" horiz-adv-x="671" 
d="M82 0v686h164c60.667 0 112.167 -5.83301 154.5 -17.5s78.166 -29.167 107.499 -52.5c72.667 -56.667 109 -147.667 109 -273s-36.333 -216.333 -109 -273c-29.333 -23.333 -65.166 -40.833 -107.499 -52.5s-93.833 -17.5 -154.5 -17.5h-164zM143 56h103
c98.667 0 172 19.667 220 59c59.333 45.333 89 121.333 89 228s-29.667 182.667 -89 228c-48 39.333 -121.333 59 -220 59h-103v-574z" />
    <glyph glyph-name="E" unicode="E" horiz-adv-x="490" 
d="M448 630h-304v-260h270v-55h-270v-259h304v-56h-365v686h365v-56z" />
    <glyph glyph-name="F" unicode="F" horiz-adv-x="481" 
d="M451 630h-307v-260h270v-55h-270v-315h-61v686h368v-56z" />
    <glyph glyph-name="G" unicode="G" horiz-adv-x="775" 
d="M390 -11c-50 0 -95.668 8.66602 -137.001 25.999s-76.833 41.5 -106.5 72.5s-52.834 68.167 -69.501 111.5s-25 91.333 -25 144s8.33301 100.667 25 144s40 80.5 70 111.5s66 55.167 108 72.5s88 26 138 26c66.667 0 125.334 -14.5 176.001 -43.5
s90.334 -69.5 119.001 -121.5l-54 -29c-23.333 42.667 -55.833 76.167 -97.5 100.5s-89.5 36.5 -143.5 36.5c-41.333 0 -79.166 -7.16699 -113.499 -21.5s-63.666 -34.5 -87.999 -60.5s-43.333 -57.333 -57 -94s-20.5 -77 -20.5 -121s6.66699 -84.333 20 -121
s32.166 -68 56.499 -94s53.666 -46.167 87.999 -60.5s72.5 -21.5 114.5 -21.5c37.333 0 71 5.83301 101 17.5s56 28.334 78 50.001s39.667 48 53 79s22 65.5 26 103.5h-256v52h316v-348h-51v168c-21.333 -54.667 -54.5 -98.167 -99.5 -130.5s-101.833 -48.5 -170.5 -48.5z
" />
    <glyph glyph-name="H" unicode="H" horiz-adv-x="682" 
d="M83 0v686h61v-315h395v315h61v-686h-61v316h-395v-316h-61z" />
    <glyph glyph-name="I" unicode="I" horiz-adv-x="227" 
d="M83 0v686h61v-686h-61z" />
    <glyph glyph-name="J" unicode="J" horiz-adv-x="411" 
d="M157 -11c-23.333 0 -46.999 3.33301 -70.999 10s-47 17 -69 31l27 50c33.333 -22 68.666 -33 105.999 -33c38 0 67.667 12.5 89 37.5s32 60.5 32 106.5v495h61v-504c0 -60 -16.167 -107.167 -48.5 -141.5s-74.5 -51.5 -126.5 -51.5z" />
    <glyph glyph-name="K" unicode="K" horiz-adv-x="603" 
d="M503 0l-286 330h-73v-330h-61v686h61v-301h73l273 301h77l-298 -327l313 -359h-79z" />
    <glyph glyph-name="L" unicode="L" horiz-adv-x="424" 
d="M83 0v686h61v-630h261v-56h-322z" />
    <glyph glyph-name="M" unicode="M" horiz-adv-x="868" 
d="M806 0h-62l-46 636l-241 -636h-47l-240 633l-47 -633h-62l51 686h97l225 -580l224 580h97z" />
    <glyph glyph-name="N" unicode="N" horiz-adv-x="707" 
d="M563 686h62v-686h-80l-401 610v-610h-61v686h78l402 -609v609z" />
    <glyph glyph-name="O" unicode="O" horiz-adv-x="787" 
d="M393 -11c-50 0 -96 8.66699 -138 26s-78 41.5 -108 72.5s-53.333 68.167 -70 111.5s-25 91.333 -25 144s8.33301 100.667 25 144s40 80.5 70 111.5s66 55.167 108 72.5s88 26 138 26s96 -8.66699 138 -26s78 -41.5 108 -72.5s53.333 -68.167 70 -111.5
s25 -91.333 25 -144s-8.33301 -100.667 -25 -144s-40 -80.5 -70 -111.5s-66 -55.167 -108 -72.5s-88 -26 -138 -26zM393 46c41.333 0 79.166 7.16699 113.499 21.5s63.833 34.5 88.5 60.5s43.667 57.333 57 94s20 77 20 121s-6.66699 84.333 -20 121s-32.333 68 -57 94
s-54.167 46.167 -88.5 60.5s-72.166 21.5 -113.499 21.5s-79.166 -7.16699 -113.499 -21.5s-63.666 -34.5 -87.999 -60.5s-43.333 -57.333 -57 -94s-20.5 -77 -20.5 -121s6.83301 -84.333 20.5 -121s32.667 -68 57 -94s53.666 -46.167 87.999 -60.5
s72.166 -21.5 113.499 -21.5z" />
    <glyph glyph-name="P" unicode="P" horiz-adv-x="579" 
d="M467 642c22.667 -17.333 40.001 -39.999 52.001 -67.999s18 -60.333 18 -97c0 -42.667 -8.16699 -80.334 -24.5 -113.001s-40.5 -57.667 -72.5 -75c-20.667 -10.667 -43.334 -17.667 -68.001 -21s-52 -5 -82 -5h-147v-263h-61v686h208c42 0 77 -3.5 105 -10.5
s52 -18.167 72 -33.5zM408.001 338.001c45.333 26 68 71.333 68 136c0 58.667 -18.333 101.334 -55 128.001c-15.333 11.333 -34.333 19.166 -57 23.499s-49.667 6.5 -81 6.5h-140v-316h140c28 0 52.167 1.5 72.5 4.5s37.833 8.83301 52.5 17.5z" />
    <glyph glyph-name="Q" unicode="Q" horiz-adv-x="790" 
d="M745 -39l-57.001 -20l-98 105c-55.333 -38 -121 -57 -197 -57c-50 0 -96 8.66699 -138 26s-78 41.5 -108 72.5s-53.333 68.167 -70 111.5s-25 91.333 -25 144s8.33301 100.667 25 144s40 80.5 70 111.5s66 55.167 108 72.5s88 26 138 26s96 -8.66699 138 -26
s78 -41.5 108 -72.5s53.333 -68.167 70 -111.5s25 -91.333 25 -144c0 -54 -8.66699 -102.833 -26 -146.5s-41.666 -81.5 -72.999 -113.5zM113.999 343c0 -44 6.83301 -84.333 20.5 -121s32.667 -68 57 -94s53.666 -46.167 87.999 -60.5s72.166 -21.5 113.499 -21.5
s79.166 7.16699 113.499 21.5s63.833 34.5 88.5 60.5s43.667 57.333 57 94s20 77 20 121s-6.66699 84.333 -20 121s-32.333 68 -57 94s-54.167 46.167 -88.5 60.5s-72.166 21.5 -113.499 21.5s-79.166 -7.16699 -113.499 -21.5s-63.666 -34.5 -87.999 -60.5
s-43.333 -57.333 -57 -94s-20.5 -77 -20.5 -121z" />
    <glyph glyph-name="R" unicode="R" horiz-adv-x="608" 
d="M563 0l-76 0.000976562l-179 263h-18h-146v-263h-61v686h207c42.667 0 78 -3.5 106 -10.5s52 -18.167 72 -33.5c22.667 -17.333 40 -40 52 -68s18 -60.333 18 -97c0 -42.667 -8.16699 -80.334 -24.5 -113.001s-40.5 -57.667 -72.5 -75
c-9.33301 -5.33301 -19.333 -9.5 -30 -12.5s-21.667 -5.5 -33 -7.5zM284 316.001c27.333 0 51.3311 1.5 71.998 4.5s38.334 8.83301 53.001 17.5c45.333 26 68 71.333 68 136c0 58.667 -18.333 101.334 -55 128.001c-16 11.333 -35.167 19.166 -57.5 23.499
s-49.166 6.5 -80.499 6.5h-140v-316h140z" />
    <glyph glyph-name="S" unicode="S" horiz-adv-x="602" 
d="M309 -11c-70.667 0 -129.832 15.6719 -177.499 47.0049s-77.834 76 -90.501 134l61 12c11.333 -46 35 -80.833 71 -104.5s81.667 -35.5 137 -35.5s98.666 12.333 129.999 37s47 58.667 47 102c0 24 -5.5 43.833 -16.5 59.5s-25.5 28.5 -43.5 38.5
s-38.833 18.167 -62.5 24.5s-48.167 12.166 -73.5 17.499c-27.333 6 -54.666 13 -81.999 21s-51.833 18.667 -73.5 32s-39.334 30.666 -53.001 51.999s-20.5 48.333 -20.5 81c0 28.667 5.33301 54.667 16 78s26 43.333 46 60s43.833 29.5 71.5 38.5s58.5 13.5 92.5 13.5
c63.333 0 116.666 -13 159.999 -39s73.333 -68 90 -126l-55 -14c-15.333 44 -38.166 76 -68.499 96s-71.5 30 -123.5 30c-50.667 0 -91.167 -12 -121.5 -36s-45.5 -57 -45.5 -99c0 -22.667 5.16699 -41.334 15.5 -56.001s24.333 -26.834 42 -36.501
s37.834 -17.334 60.501 -23.001s46.334 -11.167 71.001 -16.5c28 -6 56 -13 84 -21s53.333 -18.833 76 -32.5s41.167 -31.5 55.5 -53.5s21.5 -50.333 21.5 -85c0 -30 -5.66699 -57 -17 -81s-27.333 -44.5 -48 -61.5s-45.834 -30.167 -75.501 -39.5s-63.167 -14 -100.5 -14z
" />
    <glyph glyph-name="T" unicode="T" horiz-adv-x="473" 
d="M454 686v-56h-187v-630h-62v630h-187v56h436z" />
    <glyph glyph-name="U" unicode="U" horiz-adv-x="655" 
d="M328 -11c-36.667 0 -70.501 5.5 -101.501 16.5s-57.833 27 -80.5 48s-40.167 46.667 -52.5 77s-18.5 64.5 -18.5 102.5v453h61v-447c0 -30 4.66699 -57 14 -81s22.5 -44.333 39.5 -61s37.167 -29.334 60.5 -38.001s49.333 -13 78 -13c28 0 53.833 4.33301 77.5 13
s43.834 21.334 60.501 38.001s29.667 37 39 61s14 51 14 81v447h62v-453c0 -38 -6.33301 -72.167 -19 -102.5s-30.167 -56 -52.5 -77s-49 -37 -80 -48s-64.833 -16.5 -101.5 -16.5z" />
    <glyph glyph-name="V" unicode="V" horiz-adv-x="655" 
d="M568 686h65l-266 -686h-79l-266 686h65l241 -625z" />
    <glyph glyph-name="W" unicode="W" horiz-adv-x="977" 
d="M884 686h65l-200 -686h-86l-175 588l-175 -588h-85l-200 686h64l182 -626l183 626h63l182 -628z" />
    <glyph glyph-name="X" unicode="X" horiz-adv-x="666" 
d="M22 0l274 353l-263 333h76l224 -287l224 287h75l-262 -333l273 -353h-77l-233 303l-234 -303h-77z" />
    <glyph glyph-name="Y" unicode="Y" horiz-adv-x="568" 
d="M552 686l-237 -366v-320h-62v319l-238 367h68l201 -312l200 312h68z" />
    <glyph glyph-name="Z" unicode="Z" horiz-adv-x="570" 
d="M106 56h429v-56h-500v55l423 575h-422v56h494v-55z" />
    <glyph glyph-name="bracketleft" unicode="[" horiz-adv-x="295" 
d="M75 -250v1030h199v-46h-145v-938h145v-46h-199z" />
    <glyph glyph-name="backslash" unicode="\" horiz-adv-x="539" 
d="M482 -180l-484 930h59l484 -930h-59z" />
    <glyph glyph-name="bracketright" unicode="]" horiz-adv-x="295" 
d="M220 -250h-199v46h145v938h-145v46h199v-1030z" />
    <glyph glyph-name="asciicircum" unicode="^" horiz-adv-x="654" 
d="M608 137h-54l-227 494l-227 -494h-53l252 549h57z" />
    <glyph glyph-name="underscore" unicode="_" horiz-adv-x="500" 
d="M0 -78v48h500v-48h-500z" />
    <glyph glyph-name="grave" unicode="`" horiz-adv-x="324" 
d="M191 540l-108 146h65l94 -146h-51z" />
    <glyph glyph-name="a" unicode="a" horiz-adv-x="506" 
d="M491 50l-0.000976562 -49.998h-32c-23.333 0 -41.5 5.66699 -54.5 17s-19.5 29.666 -19.5 54.999v28h-4c-15.333 -35.333 -38.5 -62.5 -69.5 -81.5s-68.5 -28.5 -112.5 -28.5c-42.667 0 -77.5 10.667 -104.5 32s-40.5 53 -40.5 95c0 46 16 80.833 48 104.5
s76 40.167 132 49.5l106 18c9.33301 1.33301 17.333 4.5 24 9.5s10 12.167 10 21.5c0 40 -10.833 70.333 -32.5 91s-52.167 31 -91.5 31c-76.667 0 -119.334 -35 -128.001 -105l-59 8c7.33301 48 26.833 83.833 58.5 107.5s74.834 35.5 129.501 35.5
c58.667 0 103.834 -14.833 135.501 -44.5s47.5 -72.834 47.5 -129.501v-214c0 -18.667 2.83301 -31.667 8.5 -39s16.167 -11 31.5 -11h17zM211.999 39.002c52 0 92.5 18.333 121.5 55s43.5 89.334 43.5 158.001l-139 -26c-82.667 -12.667 -124 -47.334 -124 -104.001
c0 -26.667 8.5 -47.167 25.5 -61.5s41.167 -21.5 72.5 -21.5z" />
    <glyph glyph-name="b" unicode="b" horiz-adv-x="604" 
d="M322 488c32.667 0 63 -6 91 -18s52.167 -29 72.5 -51s36.333 -48.167 48 -78.5s17.5 -64.166 17.5 -101.499s-5.83301 -71.333 -17.5 -102s-27.667 -56.834 -48 -78.501s-44.5 -38.5 -72.5 -50.5s-58.333 -18 -91 -18c-42 0 -79.5 10 -112.5 30s-57.5 47.667 -73.5 83
v-103h-60v750h60v-375c16 35.333 40.5 63 73.5 83s70.5 30 112.5 30zM313 42c26 0 49.833 4.83301 71.5 14.5s40.5 23.167 56.5 40.5s28.5 38 37.5 62s13.5 50.667 13.5 80s-4.5 56.166 -13.5 80.499s-21.5 45.166 -37.5 62.499s-34.833 30.833 -56.5 40.5
s-45.5 14.5 -71.5 14.5s-50 -4.83301 -72 -14.5s-40.833 -23.167 -56.5 -40.5s-28 -38.166 -37 -62.499s-13.5 -51.166 -13.5 -80.499s4.5 -56 13.5 -80s21.333 -44.667 37 -62s34.5 -30.833 56.5 -40.5s46 -14.5 72 -14.5z" />
    <glyph glyph-name="c" unicode="c" horiz-adv-x="555" 
d="M291 -10c-34.667 0 -66.665 6.16309 -95.998 18.4961s-54.5 29.5 -75.5 51.5s-37.333 48.333 -49 79s-17.5 64.334 -17.5 101.001c0 36 5.83301 69.167 17.5 99.5s28 56.5 49 78.5s46.167 39.167 75.5 51.5s61.333 18.5 96 18.5c53.333 0 99.166 -14 137.499 -42
s64.5 -66.333 78.5 -115l-55 -7c-12 36 -32.167 64.167 -60.5 84.5s-62.166 30.5 -101.499 30.5c-26 0 -50 -5 -72 -15s-40.833 -23.667 -56.5 -41s-27.834 -38.166 -36.501 -62.499s-13 -51.166 -13 -80.499s4.33301 -56.166 13 -80.499s20.834 -45.333 36.501 -63
s34.5 -31.5 56.5 -41.5s46 -15 72 -15c39.333 0 73.166 10.167 101.499 30.5s48.5 48.5 60.5 84.5l55 -8c-14 -48.667 -40.333 -87 -79 -115s-84.334 -42 -137.001 -42z" />
    <glyph glyph-name="d" unicode="d" horiz-adv-x="604" 
d="M469 750h59v-750h-59v105c-16 -36 -40.333 -64.167 -73 -84.5s-70.667 -30.5 -114 -30.5c-32.667 0 -63 6 -91 18s-52.167 28.833 -72.5 50.5s-36.333 47.834 -48 78.501s-17.5 64.667 -17.5 102s5.83301 71.166 17.5 101.499s27.667 56.5 48 78.5s44.5 39 72.5 51
s58.333 18 91 18c43.333 0 81.333 -10.167 114 -30.5s57 -48.5 73 -84.5v377zM292 42c26 0 49.833 4.83301 71.5 14.5s40.5 23.167 56.5 40.5s28.5 38 37.5 62s13.5 50.667 13.5 80s-4.5 56.166 -13.5 80.499s-21.5 45.166 -37.5 62.499s-34.833 30.833 -56.5 40.5
s-45.5 14.5 -71.5 14.5s-50 -4.83301 -72 -14.5s-41 -23.167 -57 -40.5s-28.5 -38.166 -37.5 -62.499s-13.5 -51.166 -13.5 -80.499s4.5 -56 13.5 -80s21.5 -44.667 37.5 -62s35 -30.833 57 -40.5s46 -14.5 72 -14.5z" />
    <glyph glyph-name="e" unicode="e" horiz-adv-x="572" 
d="M521 227l-409.002 -0.000976562c1.33301 -28 6.5 -53.5 15.5 -76.5s21.5 -42.667 37.5 -59s34.667 -29 56 -38s44.333 -13.5 69 -13.5c36 0 67.5 8.66699 94.5 26s47.833 41.666 62.5 72.999l55 -11c-17.333 -43.333 -44.666 -77.166 -81.999 -101.499
s-80.333 -36.5 -129 -36.5c-35.333 0 -67.5 6 -96.5 18s-54 29 -75 51s-37.333 48.333 -49 79s-17.5 64.334 -17.5 101.001c0 37.333 5.83301 71.166 17.5 101.499s28 56.5 49 78.5s45.833 39 74.5 51s60.334 18 95.001 18c33.333 0 64.166 -5.83301 92.499 -17.5
s52.833 -28.167 73.5 -49.5s36.834 -47.166 48.501 -77.499s17.5 -64.5 17.5 -102.5v-14zM288.998 438.999c-48 0 -88 -14.501 -120 -43.501s-50.667 -69.5 -56 -121.5h348c-4 50.667 -21.833 90.834 -53.5 120.501s-71.167 44.5 -118.5 44.5z" />
    <glyph glyph-name="f" unicode="f" horiz-adv-x="338" 
d="M288 700c-30 0 -54.5 -8.83203 -73.5 -26.499s-28.5 -47.834 -28.5 -90.501v-105h124v-49h-124v-429h-59v429h-100v49h100v105c0 60 14.167 102.833 42.5 128.5s67.833 38.5 118.5 38.5h22v-50h-22z" />
    <glyph glyph-name="g" unicode="g" horiz-adv-x="599" 
d="M464 478l58.999 -0.00195312v-479c0 -81.333 -20.667 -143.166 -62 -185.499s-97.666 -63.5 -168.999 -63.5c-58 0 -105.833 13.5 -143.5 40.5s-65.167 62.833 -82.5 107.5l50 23c14.667 -38 36.667 -67.833 66 -89.5s65.333 -32.5 108 -32.5
c56.667 0 99.834 17.333 129.501 52s44.5 83 44.5 145v118c-15.333 -35.333 -39.333 -63.666 -72 -84.999s-71 -32 -115 -32c-32 0 -61.667 6 -89 18s-51 29 -71 51s-35.667 48.167 -47 78.5s-17 63.5 -17 99.5s5.66699 69 17 99s27 55.667 47 77s43.833 38 71.5 50
s57.5 18 89.5 18c44 0 82.167 -10.667 114.5 -32s56.166 -49.333 71.499 -84v106zM287.999 47.998c26 0 49.833 4.83301 71.5 14.5s40.5 23.167 56.5 40.5s28.333 38 37 62s13 50.333 13 79c0 28 -4.33301 54 -13 78s-21 44.5 -37 61.5s-34.833 30.333 -56.5 40
s-45.5 14.5 -71.5 14.5s-49.833 -4.83301 -71.5 -14.5s-40.334 -23 -56.001 -40s-28 -37.5 -37 -61.5s-13.5 -50 -13.5 -78c0 -28.667 4.5 -55 13.5 -79s21.333 -44.667 37 -62s34.334 -30.833 56.001 -40.5s45.5 -14.5 71.5 -14.5z" />
    <glyph glyph-name="h" unicode="h" horiz-adv-x="530" 
d="M289 488c54 0 95.834 -15.333 125.501 -46s44.5 -75 44.5 -133v-309h-59v302c0 45.333 -11.333 79.333 -34 102s-54.334 34 -95.001 34c-39.333 0 -71.833 -13.333 -97.5 -40s-38.5 -65.667 -38.5 -117v-281h-60v750h60v-345c15.333 26 36 46.333 62 61s56.667 22 92 22z
" />
    <glyph glyph-name="i" unicode="i" horiz-adv-x="209" 
d="M105 611c-13.333 0 -24.5 4.5 -33.5 13.5s-13.5 19.833 -13.5 32.5c0 13.333 4.5 24.5 13.5 33.5s20.167 13.5 33.5 13.5c12.667 0 23.5 -4.5 32.5 -13.5s13.5 -20.167 13.5 -33.5c0 -12.667 -4.5 -23.5 -13.5 -32.5s-19.833 -13.5 -32.5 -13.5zM75 0v478h59v-478h-59z
" />
    <glyph glyph-name="j" unicode="j" horiz-adv-x="206" 
d="M101 611c-13.333 0 -24.5 4.5 -33.5 13.5s-13.5 19.833 -13.5 32.5c0 13.333 4.5 24.5 13.5 33.5s20.167 13.5 33.5 13.5c12.667 0 23.5 -4.5 32.5 -13.5s13.5 -20.167 13.5 -33.5c0 -12.667 -4.5 -23.5 -13.5 -32.5s-19.833 -13.5 -32.5 -13.5zM-62 -194
c26 0 47.5 2.83301 64.5 8.5s30.5 15.167 40.5 28.5s17 31 21 53s6 49.667 6 83v499h60v-499c0 -40 -3.33301 -74.167 -10 -102.5s-17.5 -51.333 -32.5 -69s-34.667 -30.5 -59 -38.5s-54.5 -12 -90.5 -12v49z" />
    <glyph glyph-name="k" unicode="k" horiz-adv-x="501" 
d="M226 253l246 -253h-74l-223 229h-40v-229h-60v750h60v-476h40l207 204h72z" />
    <glyph glyph-name="l" unicode="l" horiz-adv-x="210" 
d="M75 0v750h60v-750h-60z" />
    <glyph glyph-name="m" unicode="m" horiz-adv-x="779" 
d="M556 488c46.667 0 83.667 -13.1689 111 -39.502s41 -62.5 41 -108.5v-340h-60v324c0 36.667 -9.83301 64.834 -29.5 84.501s-46.167 29.5 -79.5 29.5c-34.667 0 -62.834 -11.333 -84.501 -34s-32.5 -56.667 -32.5 -102v-302h-60v324c0 36 -10 64 -30 84
s-46.667 30 -80 30c-34.667 0 -62.834 -11.5 -84.501 -34.5s-32.5 -56.833 -32.5 -101.5v-302h-59v478h59v-62c13.333 22.667 31.333 40.334 54 53.001s49.334 19 80.001 19c36 0 66.167 -7.83301 90.5 -23.5s41.833 -37.5 52.5 -65.5c12.667 28 31.334 49.833 56.001 65.5
s54 23.5 88 23.5z" />
    <glyph glyph-name="n" unicode="n" horiz-adv-x="531" 
d="M287 488c56 0 98.833 -15.167 128.5 -45.5s44.5 -73.166 44.5 -128.499v-314h-60v305c0 44 -11.333 77.167 -34 99.5s-54 33.5 -94 33.5s-72.833 -13.5 -98.5 -40.5s-38.5 -65.833 -38.5 -116.5v-281h-59v478h59v-71c15.333 25.333 36 45.166 62 59.499s56 21.5 90 21.5z
" />
    <glyph glyph-name="o" unicode="o" horiz-adv-x="585" 
d="M292 -10c-34.667 0 -66.667 6 -96 18s-54.5 29 -75.5 51s-37.5 48.333 -49.5 79s-18 64.667 -18 102c0 36.667 6 70.167 18 100.5s28.5 56.5 49.5 78.5s46.167 39 75.5 51s61.333 18 96 18c35.333 0 67.666 -6 96.999 -18s54.5 -29 75.5 -51s37.5 -48.167 49.5 -78.5
s18 -63.833 18 -100.5c0 -37.333 -6 -71.333 -18 -102s-28.5 -57 -49.5 -79s-46.167 -39 -75.5 -51s-61.666 -18 -96.999 -18zM292 40c26.667 0 51 5 73 15s41 23.833 57 41.5s28.333 38.667 37 63s13 51.166 13 80.499c0 28.667 -4.33301 55.167 -13 79.5
s-21 45.166 -37 62.499s-35 31 -57 41s-46.333 15 -73 15s-51 -5 -73 -15s-41 -23.667 -57 -41s-28.333 -38.166 -37 -62.499s-13 -50.833 -13 -79.5c0 -29.333 4.33301 -56.166 13 -80.499s21 -45.333 37 -63s35 -31.5 57 -41.5s46.333 -15 73 -15z" />
    <glyph glyph-name="p" unicode="p" horiz-adv-x="604" 
d="M321 488c32.667 0 63 -5.99805 91 -17.998s52.167 -28.833 72.5 -50.5s36.333 -47.834 48 -78.501s17.5 -64.667 17.5 -102c0 -36.667 -5.83301 -70.334 -17.5 -101.001s-27.667 -57 -48 -79s-44.5 -39 -72.5 -51s-58.333 -18 -91 -18c-42 0 -79.5 10 -112.5 30
s-57.5 47.667 -73.5 83v-346h-60v721h60v-103c16 36 40.5 63.833 73.5 83.5s70.5 29.5 112.5 29.5zM312 42.002c26 0 49.833 4.83301 71.5 14.5s40.5 23.167 56.5 40.5s28.5 38.166 37.5 62.499s13.5 50.833 13.5 79.5c0 29.333 -4.5 56.166 -13.5 80.499
s-21.5 45.166 -37.5 62.499s-34.833 30.833 -56.5 40.5s-45.5 14.5 -71.5 14.5s-50 -4.83301 -72 -14.5s-40.833 -23.167 -56.5 -40.5s-28 -38.166 -37 -62.499s-13.5 -51.166 -13.5 -80.499c0 -28.667 4.5 -55.167 13.5 -79.5s21.333 -45.166 37 -62.499
s34.5 -30.833 56.5 -40.5s46 -14.5 72 -14.5z" />
    <glyph glyph-name="q" unicode="q" horiz-adv-x="604" 
d="M470 478l59 -0.00195312v-721h-59v348c-16 -36 -40.333 -64.167 -73 -84.5s-70.667 -30.5 -114 -30.5c-32.667 0 -63 6 -91 18s-52.167 29 -72.5 51s-36.333 48.333 -48 79s-17.5 64.334 -17.5 101.001c0 37.333 5.83301 71.333 17.5 102s27.667 56.834 48 78.501
s44.5 38.5 72.5 50.5s58.333 18 91 18c43.333 0 81.333 -10.167 114 -30.5s57 -48.5 73 -84.5v105zM293 41.998c26 0 49.833 4.83301 71.5 14.5s40.5 23.167 56.5 40.5s28.5 38.166 37.5 62.499s13.5 50.833 13.5 79.5c0 29.333 -4.5 56.166 -13.5 80.499
s-21.5 45.166 -37.5 62.499s-34.833 30.833 -56.5 40.5s-45.5 14.5 -71.5 14.5s-50 -4.83301 -72 -14.5s-41 -23.167 -57 -40.5s-28.5 -38.166 -37.5 -62.499s-13.5 -51.166 -13.5 -80.499c0 -28.667 4.5 -55.167 13.5 -79.5s21.5 -45.166 37.5 -62.499s35 -30.833 57 -40.5
s46 -14.5 72 -14.5z" />
    <glyph glyph-name="r" unicode="r" horiz-adv-x="353" 
d="M135 379c15.333 35.333 39.332 62.333 71.999 81s72.334 28 119.001 28v-56c-64.667 0 -112.667 -16.5 -144 -49.5s-47 -84.5 -47 -154.5v-228h-60v478h60v-99z" />
    <glyph glyph-name="s" unicode="s" horiz-adv-x="466" 
d="M241 -10c-50.667 0 -93.333 12.668 -128 38.001s-55.667 59 -63 101l52 13c6.66699 -32 22.167 -57.5 46.5 -76.5s54.5 -28.5 90.5 -28.5c34.667 0 62.5 8.16699 83.5 24.5s31.5 38.5 31.5 66.5c0 16.667 -3.5 30.334 -10.5 41.001s-16.5 19.5 -28.5 26.5
s-25.667 12.5 -41 16.5s-31.666 7.66699 -48.999 11c-21.333 4 -41.666 8.83301 -60.999 14.5s-36.5 13.334 -51.5 23.001s-27 22 -36 37s-13.5 33.833 -13.5 56.5c0 42 15.333 74.833 46 98.5s70.667 35.5 120 35.5c44.667 0 83.167 -10.667 115.5 -32
s52.166 -52 59.499 -92l-54 -10c-5.33301 28 -18.833 49.667 -40.5 65s-48.834 23 -81.501 23s-59.167 -7.5 -79.5 -22.5s-30.5 -35.5 -30.5 -61.5c0 -14.667 3.5 -26.834 10.5 -36.501s16.333 -17.667 28 -24s25.167 -11.5 40.5 -15.5s31.333 -7.66699 48 -11
c22 -4.66699 43.167 -10 63.5 -16s38 -14 53 -24s27 -22.833 36 -38.5s13.5 -35.834 13.5 -60.501c0 -22.667 -4.33301 -42.834 -13 -60.501s-20.5 -32.5 -35.5 -44.5s-33 -21.167 -54 -27.5s-43.5 -9.5 -67.5 -9.5z" />
    <glyph glyph-name="t" unicode="t" horiz-adv-x="348" 
d="M251 0c-38 0 -68.333 11.333 -91 34s-34 54 -34 94v301h-99v49h59c14 0 25.167 3.66699 33.5 11s12.5 20.333 12.5 39v110h54v-160h123v-49h-123v-294c0 -28 7.5 -49.167 22.5 -63.5s34.5 -21.5 58.5 -21.5h42v-50h-58z" />
    <glyph glyph-name="u" unicode="u" horiz-adv-x="530" 
d="M394 478l60 -0.000976562v-478h-60v72c-15.333 -25.333 -35.833 -45.333 -61.5 -60s-55.5 -22 -89.5 -22c-56 0 -99 15.333 -129 46s-45 73.334 -45 128.001v314h60v-305c0 -44 11.333 -77.167 34 -99.5s54 -33.5 94 -33.5s72.833 13.5 98.5 40.5s38.5 65.833 38.5 116.5
v281z" />
    <glyph glyph-name="v" unicode="v" horiz-adv-x="513" 
d="M420 478h64l-200 -478h-56l-199 478h64l164 -406z" />
    <glyph glyph-name="w" unicode="w" horiz-adv-x="810" 
d="M716 478h63l-171 -478h-70l-133 412l-132 -412h-71l-172 478h63l146 -415l136 415h60l136 -416z" />
    <glyph glyph-name="x" unicode="x" horiz-adv-x="533" 
d="M32 0l198 240l-198 238h75l160 -198l159 198h75l-198 -239l198 -239h-75l-159 198l-160 -198h-75z" />
    <glyph glyph-name="y" unicode="y" horiz-adv-x="513" 
d="M420 478h64l-300 -721h-65l107 252l-197 469h64l163 -408z" />
    <glyph glyph-name="z" unicode="z" horiz-adv-x="465" 
d="M431 478l-301 -429h295v-49h-392l301 429h-279v49h376z" />
    <glyph glyph-name="braceleft" unicode="{" horiz-adv-x="286" 
d="M223 -250c-36 0 -64.833 11.4961 -86.5 34.4961s-32.5 52.167 -32.5 87.5v219c0 21.333 -0.666992 40.5 -2 57.5s-4.5 31.833 -9.5 44.5s-12 23.167 -21 31.5s-21.167 13.833 -36.5 16.5v48c15.333 3.33301 27.5 9 36.5 17s16 18.5 21 31.5s8.16699 28 9.5 45
s2 36.167 2 57.5v218c0 35.333 10.833 64.5 32.5 87.5s50.5 34.5 86.5 34.5h42v-46h-33c-20.667 0 -37.667 -7.33301 -51 -22s-20 -34.667 -20 -60v-211c0 -19.333 -0.833008 -38.166 -2.5 -56.499s-5 -35.166 -10 -50.499s-12.167 -29 -21.5 -41s-22 -21.333 -38 -28
c16 -6.66699 28.667 -16 38 -28s16.5 -25.667 21.5 -41s8.33301 -32.166 10 -50.499s2.5 -37.166 2.5 -56.499v-211c0 -25.333 6.66699 -45.333 20 -60s30.333 -22 51 -22h33v-46h-42z" />
    <glyph glyph-name="bar" unicode="|" horiz-adv-x="300" 
d="M120 -150v900h60v-900h-60z" />
    <glyph glyph-name="braceright" unicode="}" horiz-adv-x="286" 
d="M21 -250l-0.000976562 46.0039h33c21.333 0 38.666 7.33301 51.999 22s20 34.667 20 60v211c0 19.333 0.666992 38.166 2 56.499s4.5 35.166 9.5 50.499s12.167 29 21.5 41s22 21.333 38 28c-15.333 6.66699 -27.666 16 -36.999 28s-16.5 25.667 -21.5 41
s-8.33301 32.166 -10 50.499s-2.5 37.166 -2.5 56.499v211c0 25.333 -6.66699 45.333 -20 60s-30.666 22 -51.999 22h-33v46h42c36 0 64.833 -11.5 86.5 -34.5s32.5 -52.167 32.5 -87.5v-218c0 -21.333 0.666992 -40.5 2 -57.5s4.5 -32 9.5 -45s12 -23.5 21 -31.5
s21.167 -13.667 36.5 -17v-48c-15.333 -2.66699 -27.5 -8.16699 -36.5 -16.5s-16 -18.833 -21 -31.5s-8.16699 -27.5 -9.5 -44.5s-2 -36.167 -2 -57.5v-219c0 -35.333 -10.833 -64.5 -32.5 -87.5s-50.5 -34.5 -86.5 -34.5h-42z" />
    <glyph glyph-name="asciitilde" unicode="~" horiz-adv-x="598" 
d="M407 150c-16 0 -30.167 2.50098 -42.5 7.50098s-23.666 11.333 -33.999 19s-19.5 16 -27.5 25l-22 25.5c-13.333 15.333 -26.333 28.333 -39 39s-28 16 -46 16c-30 0 -53.5 -11.5 -70.5 -34.5s-25.833 -52.5 -26.5 -88.5h-45c0 50 12.667 90.667 38 122s60.333 47 105 47
c29.333 0 53 -7.5 71 -22.5s35 -32.5 51 -52.5c11.333 -15.333 23.5 -28.833 36.5 -40.5s29.167 -17.5 48.5 -17.5c28 0 51.167 11.167 69.5 33.5s27.166 52.166 26.499 89.499h45c0 -24 -3.33301 -46.333 -10 -67s-16 -38.5 -28 -53.5s-26.5 -26.667 -43.5 -35
s-35.833 -12.5 -56.5 -12.5z" />
    <glyph glyph-name="exclamdown" unicode="&#xa1;" horiz-adv-x="229" 
d="M114 488c12.667 0 23.667 -4.33301 33 -13s14 -19.667 14 -33s-4.66699 -24.5 -14 -33.5s-20.333 -13.5 -33 -13.5s-23.667 4.5 -33 13.5s-14 20.167 -14 33.5s4.66699 24.333 14 33s20.333 13 33 13zM89 286h50l5 -494h-60z" />
    <glyph glyph-name="cent" unicode="&#xa2;" horiz-adv-x="555" 
d="M290 142c39.333 0 73.165 10.1621 101.498 30.4951s48.5 48.5 60.5 84.5l55 -8c-13.333 -46 -37.5 -82.667 -72.5 -110s-76.5 -42.666 -124.5 -45.999v-93h-40v93c-32 2.66699 -61.333 10.5 -88 23.5s-49.5 30.5 -68.5 52.5s-33.833 47.667 -44.5 77s-16 61.333 -16 96
s5.33301 66.5 16 95.5s25.5 54.333 44.5 76s41.833 39 68.5 52s56 20.833 88 23.5v97h40v-97c48.667 -3.33301 90.334 -18.666 125.001 -45.999s58.667 -64 72 -110l-55 -7c-12 36 -32.167 64.167 -60.5 84.5s-62.166 30.5 -101.499 30.5c-26 0 -50 -5 -72 -15
s-40.833 -23.667 -56.5 -41s-27.834 -38.166 -36.501 -62.499s-13 -51.166 -13 -80.499s4.33301 -56.166 13 -80.499s20.834 -45.333 36.501 -63s34.5 -31.5 56.5 -41.5s46 -15 72 -15z" />
    <glyph glyph-name="sterling" unicode="&#xa3;" horiz-adv-x="633" 
d="M203 53h356.001v-53h-487v41l42 2c22 2 33 15 33 39v230h-75v46h75v103c0 74 19.167 131.667 57.5 173s91.166 62 158.499 62c27.333 0 52.666 -3.83301 75.999 -11.5s43.5 -19 60.5 -34s30.167 -33.5 39.5 -55.5s14 -47.333 14 -76c0 -5.33301 -0.166992 -11 -0.5 -17
s-0.833008 -11.667 -1.5 -17l-52 -1c1.33301 5.33301 2 10.5 2 15.5v14.5c0 42 -12.167 74.333 -36.5 97s-58.5 34 -102.5 34c-51.333 0 -90.666 -15.5 -117.999 -46.5s-41 -76.833 -41 -137.5v-103h184v-46h-184v-259z" />
    <glyph glyph-name="currency" unicode="&#xa4;" horiz-adv-x="662" 
d="M112 91l-34.998 35l93 92c-15.333 18 -26.666 37.833 -33.999 59.5s-11 43.834 -11 66.501c0 23.333 3.66699 45.833 11 67.5s18.666 41.5 33.999 59.5l-92 91l34 36l92 -92c18.667 14.667 38.834 25.667 60.501 33s44.167 11 67.5 11c22 0 43.833 -3.66699 65.5 -11
s41.834 -18.333 60.501 -33l92 92l34 -35l-92 -92c15.333 -18 26.5 -37.833 33.5 -59.5s10.5 -44.167 10.5 -67.5c0 -22.667 -3.5 -44.834 -10.5 -66.501s-18.167 -41.5 -33.5 -59.5l92 -92l-34 -35l-92 92c-18.667 -14.667 -38.834 -25.667 -60.501 -33
s-43.834 -11 -66.501 -11s-44.834 3.66699 -66.501 11s-41.834 18.333 -60.501 33zM331.002 187c22 0 42.667 4.16699 62 12.5s36 19.666 50 33.999s25.167 31 33.5 50s12.5 39.5 12.5 61.5s-4.16699 42.5 -12.5 61.5s-19.666 35.5 -33.999 49.5s-31 25.167 -50 33.5
s-39.5 12.5 -61.5 12.5s-42.5 -4.16699 -61.5 -12.5s-35.5 -19.666 -49.5 -33.999s-25.167 -31 -33.5 -50s-12.5 -39.5 -12.5 -61.5s4.16699 -42.667 12.5 -62s19.666 -36 33.999 -50s31 -25 50 -33s39.167 -12 60.5 -12z" />
    <glyph glyph-name="yen" unicode="&#xa5;" horiz-adv-x="568" 
d="M552 686l-213 -323h175v-48h-199v-151h199v-48h-199v-116h-62v116h-199v48h199v151h-199v48h175l-214 323h68l201 -305l200 305h68z" />
    <glyph glyph-name="brokenbar" unicode="&#xa6;" horiz-adv-x="300" 
d="M120 390v360h60v-360h-60zM120 -150v360h60v-360h-60z" />
    <glyph glyph-name="section" unicode="&#xa7;" horiz-adv-x="631" 
d="M333 -211c-62 0 -113.836 12.498 -155.503 37.498s-70.167 65.167 -85.5 120.5l49 13c13.333 -44 35.333 -76 66 -96s72 -30 124 -30c50.667 0 91.334 12.333 122.001 37s46 58.334 46 101.001c0 23.333 -5.33301 42.5 -16 57.5s-24.834 27.333 -42.501 37
s-38.167 17.5 -61.5 23.5s-47.666 11.667 -72.999 17c-26.667 6 -53.667 12.667 -81 20s-51.666 17.5 -72.999 30.5s-38.833 29.833 -52.5 50.5s-20.5 47.334 -20.5 80.001c0 48.667 14.333 88.334 43 119.001c-13.333 11.333 -23.833 25.666 -31.5 42.999
s-11.5 37.666 -11.5 60.999c0 28 5.33301 53.333 16 76s25.5 41.834 44.5 57.501s42 27.834 69 36.501s56.833 13 89.5 13c62 0 113.667 -12.333 155 -37s70 -64.667 86 -120l-49 -14c-13.333 44 -35.333 76 -66 96s-72 30 -124 30
c-50.667 0 -91.334 -12.167 -122.001 -36.5s-46 -57.833 -46 -100.5c0 -23.333 5.33301 -42.5 16 -57.5s24.834 -27.333 42.501 -37s38 -17.5 61 -23.5s47.167 -11.667 72.5 -17c27.333 -6 54.5 -12.833 81.5 -20.5s51.333 -18 73 -31s39.334 -29.833 53.001 -50.5
s20.5 -47 20.5 -79c0 -48.667 -14.333 -88.334 -43 -119.001c13.333 -12 23.833 -26.5 31.5 -43.5s11.5 -37.167 11.5 -60.5c0 -28 -5.33301 -53.333 -16 -76s-25.5 -42 -44.5 -58s-42 -28.333 -69 -37s-56.833 -13 -89.5 -13zM465.997 102.998
c21.333 24.667 31.999 55.002 31.999 91.002c0 24.667 -5.5 44.834 -16.5 60.501s-25.667 28.5 -44 38.5s-39.5 18.167 -63.5 24.5s-49 12.166 -75 17.499c-24 5.33301 -48 11.166 -72 17.499s-44.667 15.5 -62 27.5c-22 -22.667 -33 -52.667 -33 -90
c0 -24.667 5.5 -44.834 16.5 -60.501s25.833 -28.5 44.5 -38.5s39.834 -18.167 63.501 -24.5s48.5 -12.5 74.5 -18.5c24.667 -4.66699 49 -10.167 73 -16.5s44.667 -15.833 62 -28.5z" />
    <glyph glyph-name="dieresis" unicode="&#xa8;" horiz-adv-x="421" 
d="M130 611c-13.333 0 -24.5 4.5 -33.5 13.5s-13.5 19.833 -13.5 32.5c0 13.333 4.5 24.5 13.5 33.5s20.167 13.5 33.5 13.5c12.667 0 23.5 -4.5 32.5 -13.5s13.5 -20.167 13.5 -33.5c0 -12.667 -4.5 -23.5 -13.5 -32.5s-19.833 -13.5 -32.5 -13.5zM292 611
c-13.333 0 -24.5 4.5 -33.5 13.5s-13.5 19.833 -13.5 32.5c0 13.333 4.5 24.5 13.5 33.5s20.167 13.5 33.5 13.5c12.667 0 23.5 -4.5 32.5 -13.5s13.5 -20.167 13.5 -33.5c0 -12.667 -4.5 -23.5 -13.5 -32.5s-19.833 -13.5 -32.5 -13.5z" />
    <glyph glyph-name="copyright" unicode="&#xa9;" horiz-adv-x="847" 
d="M424 -10c-48.667 0 -94.333 9.33301 -137 28s-80 44 -112 76s-57.333 69.333 -76 112s-28 88.334 -28 137.001s9.33301 94.334 28 137.001s44 80 76 112s69.333 57.333 112 76s88.334 28 137.001 28c48 0 93.5 -9.33301 136.5 -28s80.5 -44 112.5 -76
s57.333 -69.333 76 -112s28 -88.334 28 -137.001s-9.33301 -94.334 -28 -137.001s-44 -80 -76 -112s-69.333 -57.333 -112 -76s-88.334 -28 -137.001 -28zM424.001 28c43.333 0 84.167 8.33301 122.5 25s71.833 39.167 100.5 67.5s51.167 61.666 67.5 99.999
s24.5 79.166 24.5 122.499s-8.16699 84.166 -24.5 122.499s-38.833 71.833 -67.5 100.5s-62.167 51.167 -100.5 67.5s-79.166 24.5 -122.499 24.5s-84.166 -8.16699 -122.499 -24.5s-71.833 -38.833 -100.5 -67.5s-51.334 -62.167 -68.001 -100.5s-25 -79.166 -25 -122.499
s8.33301 -84.166 25 -122.499s39.167 -71.666 67.5 -99.999s61.666 -50.833 99.999 -67.5s79.5 -25 123.5 -25zM423.002 140c-28 0 -54.167 5.33496 -78.5 16.002s-45.666 25.167 -63.999 43.5s-32.833 39.833 -43.5 64.5s-16 51 -16 79s5.33301 54.167 16 78.5
s25.167 45.666 43.5 63.999s39.666 32.833 63.999 43.5s50.5 16 78.5 16c34 0 65 -7.33301 93 -22s51.333 -34.667 70 -60l-30 -22c-14.667 20.667 -33.5 37 -56.5 49s-48.5 18 -76.5 18c-22.667 0 -44 -4.33301 -64 -13s-37.5 -20.5 -52.5 -35.5s-26.833 -32.5 -35.5 -52.5
s-13 -41.333 -13 -64s4.33301 -44.167 13 -64.5s20.5 -37.833 35.5 -52.5s32.5 -26.334 52.5 -35.001s41.333 -13 64 -13c28 0 53.5 6 76.5 18s41.833 28 56.5 48l30 -21c-18.667 -25.333 -42 -45.5 -70 -60.5s-59 -22.5 -93 -22.5z" />
    <glyph glyph-name="ordfeminine" unicode="&#xaa;" horiz-adv-x="462" 
d="M337 686h39v-300h-39v60c-13.333 -20 -30.333 -36 -51 -48s-44 -18 -70 -18c-20.667 0 -40.167 4 -58.5 12s-34.333 19 -48 33s-24.5 30.5 -32.5 49.5s-12 39.5 -12 61.5c0 21.333 4 41.5 12 60.5s18.833 35.5 32.5 49.5s29.667 25.167 48 33.5s37.833 12.5 58.5 12.5
c26 0 49.333 -6 70 -18s37.667 -28.333 51 -49v61zM220 415c16 0 31.167 3.16699 45.5 9.5s26.666 15 36.999 26s18.666 23.833 24.999 38.5s9.5 30.334 9.5 47.001c0 16 -3.16699 31.333 -9.5 46s-14.666 27.334 -24.999 38.001s-22.666 19.167 -36.999 25.5
s-29.5 9.5 -45.5 9.5s-31 -3.16699 -45 -9.5s-26.333 -14.833 -37 -25.5s-19 -23.334 -25 -38.001s-9 -30 -9 -46c0 -16.667 3 -32.334 9 -47.001s14.333 -27.5 25 -38.5s23 -19.667 37 -26s29 -9.5 45 -9.5z" />
    <glyph glyph-name="guillemotleft" unicode="&#xab;" horiz-adv-x="473" 
d="M185 56l-152 184l152 184h54l-152 -184l152 -184h-54zM382 56l-152 184l152 184h55l-152 -184l152 -184h-55z" />
    <glyph glyph-name="logicalnot" unicode="&#xac;" horiz-adv-x="691" 
d="M587 111v206h-533v51h583v-257h-50z" />
    <glyph glyph-name="uni00AD" unicode="&#xad;" horiz-adv-x="384" 
d="M17 216v48h350v-48h-350z" />
    <glyph glyph-name="registered" unicode="&#xae;" horiz-adv-x="423" 
d="M211 309c-26.667 0 -51.6689 5.16699 -75.002 15.5s-43.666 24.166 -60.999 41.499s-31.166 37.833 -41.499 61.5s-15.5 48.5 -15.5 74.5c0 26.667 5 51.834 15 75.501s23.833 44.167 41.5 61.5s38.167 31.166 61.5 41.499s48.333 15.5 75 15.5s51.667 -5.16699 75 -15.5
s43.833 -24.166 61.5 -41.499s31.5 -37.833 41.5 -61.5s15 -48.834 15 -75.501c0 -26 -5 -50.833 -15 -74.5s-23.833 -44.167 -41.5 -61.5s-38.167 -31.166 -61.5 -41.499s-48.333 -15.5 -75 -15.5zM210.998 337c22.667 0 44.001 4.33301 64.001 13s37.5 20.5 52.5 35.5
s26.833 32.5 35.5 52.5s13 41.333 13 64c0 23.333 -4.33301 45 -13 65s-20.334 37.5 -35.001 52.5s-32 26.833 -52 35.5s-41.667 13 -65 13c-22.667 0 -44.167 -4.33301 -64.5 -13s-38 -20.5 -53 -35.5s-26.833 -32.5 -35.5 -52.5s-13 -41.667 -13 -65
c0 -22.667 4.33301 -44 13 -64s20.5 -37.5 35.5 -52.5s32.667 -26.833 53 -35.5s41.833 -13 64.5 -13zM139.999 393v217.998h91c18.667 0 34 -6 46 -18s18 -27.333 18 -46c0 -13.333 -3.33301 -24.666 -10 -33.999s-15.667 -16.666 -27 -21.999l42 -98h-31l-39 93h-61v-93
h-29zM168.999 511.998h59c11.333 0 20.5 3.33301 27.5 10s10.5 15 10.5 25c0 11.333 -3.5 20.333 -10.5 27s-16.167 10 -27.5 10h-59v-72z" />
    <glyph glyph-name="macron" unicode="&#xaf;" horiz-adv-x="390" 
d="M83 583v43h225v-43h-225z" />
    <glyph glyph-name="degree" unicode="&#xb0;" horiz-adv-x="457" 
d="M228 420c-18.667 0 -36.5 3.66699 -53.5 11s-31.667 17.166 -44 29.499s-22.166 27 -29.499 44s-11 34.833 -11 53.5c0 19.333 3.66699 37.333 11 54s17.166 31.167 29.499 43.5s27 22.166 44 29.499s34.833 11 53.5 11c19.333 0 37.333 -3.66699 54 -11
s31.167 -17.166 43.5 -29.499s22.166 -26.833 29.499 -43.5s11 -34.667 11 -54c0 -18.667 -3.66699 -36.5 -11 -53.5s-17.166 -31.667 -29.499 -44s-26.833 -22.166 -43.5 -29.499s-34.667 -11 -54 -11zM228 459c28 0 51.5 9.5 70.5 28.5s28.5 42.5 28.5 70.5
s-9.5 51.5 -28.5 70.5s-42.5 28.5 -70.5 28.5s-51.5 -9.5 -70.5 -28.5s-28.5 -42.5 -28.5 -70.5s9.5 -51.5 28.5 -70.5s42.5 -28.5 70.5 -28.5z" />
    <glyph glyph-name="plusminus" unicode="&#xb1;" horiz-adv-x="569" 
d="M261 125v193h-207v48h207v191h48v-191h207v-48h-207v-193h-48zM54 17v48h462v-48h-462z" />
    <glyph glyph-name="uni00B2" unicode="&#xb2;" horiz-adv-x="317" 
d="M72 427h223v-33h-266v38l169 172c18 19.333 31 36.333 39 51s12 30 12 46c0 24.667 -7.83301 44 -23.5 58s-37.167 21 -64.5 21c-32 0 -56.167 -8.16699 -72.5 -24.5s-24.5 -39.833 -24.5 -70.5v-21l-36 4v20c0 39.333 11.5 69.833 34.5 91.5s55.167 32.5 96.5 32.5
c38 0 68.333 -9.83301 91 -29.5s34 -46.5 34 -80.5c0 -18 -4 -36.167 -12 -54.5s-24 -39.833 -48 -64.5z" />
    <glyph glyph-name="uni00B3" unicode="&#xb3;" horiz-adv-x="331" 
d="M166 388c-44 0 -78.502 11.834 -103.502 35.501s-37.5 57.167 -37.5 100.5h37c0 -32 8.83301 -57.333 26.5 -76s43.5 -28 77.5 -28c28.667 0 52 8.5 70 25.5s27 38.833 27 65.5c0 30.667 -10 53.667 -30 69s-46 23 -78 23h-13v29h13c26.667 0 47.667 7.16699 63 21.5
s23 32.833 23 55.5c0 21.333 -7.33301 38.5 -22 51.5s-33.667 19.5 -57 19.5c-25.333 0 -46 -8.16699 -62 -24.5s-24 -37.833 -24 -64.5v-2l-36 4c0 36 11.167 64.833 33.5 86.5s51.5 32.5 87.5 32.5c34 0 61.5 -9.5 82.5 -28.5s31.5 -42.833 31.5 -71.5
c0 -23.333 -6.16699 -42.833 -18.5 -58.5s-28.166 -26.834 -47.499 -33.501c26.667 -6 48.334 -18.167 65.001 -36.5s25 -42.833 25 -73.5c0 -36 -12.333 -65.333 -37 -88s-56.667 -34 -96 -34z" />
    <glyph glyph-name="acute" unicode="&#xb4;" horiz-adv-x="324" 
d="M83 540l93 146h66l-108 -146h-51z" />
    <glyph glyph-name="uni00B5" unicode="&#xb5;" horiz-adv-x="529" 
d="M394 478h59v-478h-57l-1 73c-15.333 -26 -36 -46.333 -62 -61s-56.333 -22 -91 -22c-47.333 0 -85 11 -113 33v-266h-60v721h60v-305c0 -44 11.333 -77.167 34 -99.5s54 -33.5 94 -33.5s72.833 13.5 98.5 40.5s38.5 65.833 38.5 116.5v281z" />
    <glyph glyph-name="paragraph" unicode="&#xb6;" horiz-adv-x="565" 
d="M269 -150v500.999h-37c-55.333 0 -98.833 14.333 -130.5 43s-47.5 70.334 -47.5 125.001s15.833 96.167 47.5 124.5s75.167 42.5 130.5 42.5h74v-836h-37zM408 -150.001v836h37v-836h-37z" />
    <glyph glyph-name="periodcentered" unicode="&#xb7;" horiz-adv-x="307" 
d="M156 296c-12.667 0 -23.667 4.5 -33 13.5s-14 20.167 -14 33.5s4.66699 24.666 14 33.999s20.333 14 33 14s23.834 -4.66699 33.501 -14s14.5 -20.666 14.5 -33.999s-4.83301 -24.5 -14.5 -33.5s-20.834 -13.5 -33.501 -13.5z" />
    <glyph glyph-name="cedilla" unicode="&#xb8;" horiz-adv-x="339" 
d="M178 -79c24 0 43.1631 -6.66699 57.4961 -20s21.5 -31.333 21.5 -54c0 -24 -8.16699 -43.667 -24.5 -59s-37.5 -23 -63.5 -23c-21.333 0 -39.166 4 -53.499 12s-25.166 18.667 -32.499 32l36 15c4.66699 -8.66699 11.334 -15 20.001 -19s18.334 -6 29.001 -6
c15.333 0 27.666 4.16699 36.999 12.5s14 20.166 14 35.499c0 14.667 -4.33301 25.834 -13 33.501s-20.667 11.5 -36 11.5c-14.667 0 -27.667 -4 -39 -12l-33 16l64 123l35 -13l-48 -89c5.33301 1.33301 10.333 2.33301 15 3s9.33398 1 14.001 1z" />
    <glyph glyph-name="uni00B9" unicode="&#xb9;" horiz-adv-x="203" 
d="M103 806h35v-412h-35v370l-102 -84v42z" />
    <glyph glyph-name="ordmasculine" unicode="&#xba;" horiz-adv-x="427" 
d="M213 384c-22 0 -42.833 4 -62.5 12s-36.834 19 -51.501 33s-26.334 30.5 -35.001 49.5s-13 39.5 -13 61.5c0 21.333 4.33301 41.5 13 60.5s20.334 35.5 35.001 49.5s31.834 25.167 51.501 33.5s40.5 12.5 62.5 12.5c22.667 0 43.834 -4.16699 63.501 -12.5
s36.834 -19.5 51.501 -33.5s26.167 -30.5 34.5 -49.5s12.5 -39.167 12.5 -60.5c0 -22 -4.16699 -42.5 -12.5 -61.5s-19.833 -35.5 -34.5 -49.5s-31.834 -25 -51.501 -33s-40.834 -12 -63.501 -12zM213 417c16.667 0 32.5 3.16699 47.5 9.5s28 15.166 39 26.499
s19.667 24.5 26 39.5s9.5 30.833 9.5 47.5s-3.16699 32.334 -9.5 47.001s-15 27.5 -26 38.5s-24 19.667 -39 26s-30.833 9.5 -47.5 9.5c-17.333 0 -33.333 -3.16699 -48 -9.5s-27.5 -15 -38.5 -26s-19.667 -23.833 -26 -38.5s-9.5 -30.334 -9.5 -47.001
s3.16699 -32.5 9.5 -47.5s15 -28.167 26 -39.5s23.833 -20.166 38.5 -26.499s30.667 -9.5 48 -9.5z" />
    <glyph glyph-name="guillemotright" unicode="&#xbb;" horiz-adv-x="473" 
d="M91 56h-54l152 184l-152 184h54l152 -184zM288 56h-54l152 184l-152 184h54l152 -184z" />
    <glyph glyph-name="onequarter" unicode="&#xbc;" horiz-adv-x="670" 
d="M103 274v370l-102 -84v42l102 84h35v-412h-35zM456 686h38l-387 -686h-38zM647 127v-32h-51v-95h-35v95h-210v33l195 283h50v-284h51zM388 127h173v256z" />
    <glyph glyph-name="onehalf" unicode="&#xbd;" horiz-adv-x="676" 
d="M103 274v370l-102 -84v42l102 84h35v-412h-35zM456 686h38l-387 -686h-38zM431 33h223v-33h-266v38l169 172c18 19.333 31 36.333 39 51s12 30 12 46c0 24.667 -7.83301 44 -23.5 58s-37.167 21 -64.5 21c-32 0 -56.167 -8.16699 -72.5 -24.5s-24.5 -39.833 -24.5 -70.5
v-21l-36 4v20c0 39.333 11.5 69.833 34.5 91.5s55.167 32.5 96.5 32.5c38 0 68.333 -9.83301 91 -29.5s34 -46.5 34 -80.5c0 -18 -4 -36.167 -12 -54.5s-24 -39.833 -48 -64.5z" />
    <glyph glyph-name="threequarters" unicode="&#xbe;" horiz-adv-x="798" 
d="M299 390c0 -36 -12.335 -65.332 -37.002 -87.999s-56.667 -34 -96 -34c-44 0 -78.5 11.833 -103.5 35.5s-37.5 57.167 -37.5 100.5h37c0 -32 8.83301 -57.333 26.5 -76s43.5 -28 77.5 -28c28.667 0 52 8.5 70 25.5s27 38.833 27 65.5c0 30.667 -10 53.667 -30 69
s-46 23 -78 23h-13v29h13c26.667 0 47.667 7.16699 63 21.5s23 32.833 23 55.5c0 21.333 -7.33301 38.5 -22 51.5s-33.667 19.5 -57 19.5c-25.333 0 -46 -8.16699 -62 -24.5s-24 -37.833 -24 -64.5v-2l-36 4c0 36 11.167 64.833 33.5 86.5s51.5 32.5 87.5 32.5
c34 0 61.5 -9.5 82.5 -28.5s31.5 -42.833 31.5 -71.5c0 -23.333 -6.16699 -42.833 -18.5 -58.5s-28.166 -26.834 -47.499 -33.501c26.667 -6 48.334 -18.167 65.001 -36.5s25 -42.833 25 -73.5zM583.998 686.001h38l-387 -686h-38zM774.998 127.001v-32h-51v-95h-35v95h-210
v33l195 283h50v-284h51zM515.998 127.001h173v256z" />
    <glyph glyph-name="questiondown" unicode="&#xbf;" horiz-adv-x="490" 
d="M240 488c13.333 0 24.5 -4.33301 33.5 -13s13.5 -19.667 13.5 -33s-4.66699 -24.5 -14 -33.5s-20.333 -13.5 -33 -13.5s-23.5 4.5 -32.5 13.5s-13.5 20.167 -13.5 33.5s4.5 24.333 13.5 33s19.833 13 32.5 13zM266 288l-0.00292969 -30.9971
c0 -30 -6.66699 -54.333 -20 -73s-33.333 -37.334 -60 -56.001c-10.667 -7.33301 -21.667 -15.333 -33 -24s-21.5 -18.834 -30.5 -30.501s-16.333 -25.334 -22 -41.001s-8.5 -34.5 -8.5 -56.5c0 -44.667 13.5 -79.834 40.5 -105.501s63.5 -38.5 109.5 -38.5
c46.667 0 83.834 13.667 111.501 41s41.5 63.666 41.5 108.999c0 16 -1.33301 29.333 -4 40h54c2 -12 3 -26 3 -42c0 -29.333 -4.83301 -56.333 -14.5 -81s-23.5 -45.667 -41.5 -63s-39.667 -30.833 -65 -40.5s-53.666 -14.5 -84.999 -14.5c-30.667 0 -58.667 4.5 -84 13.5
s-47 21.833 -65 38.5s-32 36.667 -42 60s-15 49.666 -15 78.999c0 28.667 3.83301 53.334 11.5 74.001s17.334 38.334 29.001 53.001s24.167 27 37.5 37l37 27c23.333 17.333 39.833 33.333 49.5 48s14.5 32.334 14.5 53.001v24h51z" />
    <glyph glyph-name="Agrave" unicode="&#xc0;" horiz-adv-x="655" 
d="M353 716h-51l-92 124h64zM568 0l-68 177h-345l-68 -177h-65l266 686h79l266 -686h-65zM175 230h305l-152 395z" />
    <glyph glyph-name="Aacute" unicode="&#xc1;" horiz-adv-x="655" 
d="M446 840l-92 -124h-51l79 124h64zM568 0l-68 177h-345l-68 -177h-65l266 686h79l266 -686h-65zM175 230h305l-152 395z" />
    <glyph glyph-name="Acircumflex" unicode="&#xc2;" horiz-adv-x="655" 
d="M328 813l-86 -82h-48l96 109h75l97 -109h-49zM568 0l-68 177h-345l-68 -177h-65l266 686h79l266 -686h-65zM175 230h305l-152 395z" />
    <glyph glyph-name="Atilde" unicode="&#xc3;" horiz-adv-x="655" 
d="M255 803c-17.333 0 -30.998 -7.16797 -40.998 -21.501s-15 -33.166 -15 -56.499h-35c0 34 8.5 62 25.5 84s39.5 33 67.5 33c23.333 0 41.166 -5.5 53.499 -16.5s23.166 -22.167 32.499 -33.5c7.33301 -10 15.166 -18.833 23.499 -26.5s20.166 -11.5 35.499 -11.5
c16.667 0 29.834 7.33301 39.501 22s14.5 33.667 14.5 57h36c0 -34 -8.5 -62 -25.5 -84s-39.5 -33 -67.5 -33c-23.333 0 -41 5.33301 -53 16s-22.333 21.667 -31 33c-8 10.667 -16.167 19.667 -24.5 27s-20.166 11 -35.499 11zM568.002 -0.000976562l-68 177h-345l-68 -177
h-65l266 686h79l266 -686h-65zM175.002 229.999h305l-152 395z" />
    <glyph glyph-name="Adieresis" unicode="&#xc4;" horiz-adv-x="655" 
d="M247 739c-13.333 0 -24.5 4.5 -33.5 13.5s-13.5 20.167 -13.5 33.5s4.5 24.333 13.5 33s20.167 13 33.5 13c12.667 0 23.5 -4.33301 32.5 -13s13.5 -19.667 13.5 -33s-4.5 -24.5 -13.5 -33.5s-19.833 -13.5 -32.5 -13.5zM409 739c-13.333 0 -24.5 4.5 -33.5 13.5
s-13.5 20.167 -13.5 33.5s4.5 24.333 13.5 33s20.167 13 33.5 13c12.667 0 23.5 -4.33301 32.5 -13s13.5 -19.667 13.5 -33s-4.5 -24.5 -13.5 -33.5s-19.833 -13.5 -32.5 -13.5zM568 0l-68 177h-345l-68 -177h-65l266 686h79l266 -686h-65zM175 230h305l-152 395z" />
    <glyph glyph-name="Aring" unicode="&#xc5;" horiz-adv-x="655" 
d="M328 708c-15.333 0 -29.833 2.83301 -43.5 8.5s-25.667 13.5 -36 23.5s-18.5 21.833 -24.5 35.5s-9 28.167 -9 43.5c0 16 3 30.833 9 44.5s14 25.334 24 35.001s21.833 17.334 35.5 23.001s28.5 8.5 44.5 8.5c15.333 0 29.666 -2.83301 42.999 -8.5
s25 -13.334 35 -23.001s18 -21.334 24 -35.001s9 -28.5 9 -44.5c0 -15.333 -3 -29.833 -9 -43.5s-14 -25.5 -24 -35.5s-21.667 -17.833 -35 -23.5s-27.666 -8.5 -42.999 -8.5zM328 896c-21.333 0 -39.5 -7.5 -54.5 -22.5s-22.5 -33.167 -22.5 -54.5s7.5 -39.333 22.5 -54
s33.167 -22 54.5 -22c20.667 0 38.5 7.33301 53.5 22s22.5 32.667 22.5 54s-7.33301 39.5 -22 54.5s-32.667 22.5 -54 22.5zM568 0l-68 177h-345l-68 -177h-65l266 686h79l266 -686h-65zM175 230h305l-152 395z" />
    <glyph glyph-name="AE" unicode="&#xc6;" horiz-adv-x="836" 
d="M22 0l266 686h506v-56h-306v-260h270v-55h-270v-259h306v-56h-368v177h-270l-69 -177h-65zM174 230h252v400h-97z" />
    <glyph glyph-name="Ccedilla" unicode="&#xc7;" horiz-adv-x="736" 
d="M393 46c56.667 0 106.167 13 148.5 39s74.5 62 96.5 108l58 -22c-26 -54.667 -63.833 -98 -113.5 -130s-107.834 -49.333 -174.501 -52l-39 -72c5.33301 1.33301 10.333 2.33301 15 3s9.33398 1 14.001 1c24 0 43.167 -6.66699 57.5 -20s21.5 -31.333 21.5 -54
c0 -24 -8.16699 -43.667 -24.5 -59s-37.5 -23 -63.5 -23c-21.333 0 -39.166 4 -53.499 12s-25.166 18.667 -32.499 32l36 15c4.66699 -8.66699 11.334 -15 20.001 -19s18.334 -6 29.001 -6c15.333 0 27.666 4.16699 36.999 12.5s14 20.166 14 35.499
c0 14.667 -4.33301 25.834 -13 33.501s-20.667 11.5 -36 11.5c-14.667 0 -27.667 -4 -39 -12l-33 16l49 94c-46.667 2.66699 -89.334 13.167 -128.001 31.5s-71.834 43 -99.501 74s-49.167 67.5 -64.5 109.5s-23 88 -23 138c0 52.667 8.33301 100.667 25 144
s40 80.5 70 111.5s66 55.167 108 72.5s88 26 138 26c70 0 131.167 -16.167 183.5 -48.5s92.166 -76.833 119.499 -133.5l-58 -22c-22 46 -54.167 82 -96.5 108s-91.833 39 -148.5 39c-41.333 0 -79.166 -7.16699 -113.499 -21.5s-63.666 -34.5 -87.999 -60.5
s-43.333 -57.333 -57 -94s-20.5 -77 -20.5 -121s6.83301 -84.333 20.5 -121s32.667 -68 57 -94s53.666 -46.167 87.999 -60.5s72.166 -21.5 113.499 -21.5z" />
    <glyph glyph-name="Egrave" unicode="&#xc8;" horiz-adv-x="490" 
d="M297 716h-51l-92 124h64zM448 630h-304v-260h270v-55h-270v-259h304v-56h-365v686h365v-56z" />
    <glyph glyph-name="Eacute" unicode="&#xc9;" horiz-adv-x="490" 
d="M390 840l-92 -124h-51l79 124h64zM448 630h-304v-260h270v-55h-270v-259h304v-56h-365v686h365v-56z" />
    <glyph glyph-name="Ecircumflex" unicode="&#xca;" horiz-adv-x="490" 
d="M272 813l-86 -82h-48l96 109h75l97 -109h-49zM448 630h-304v-260h270v-55h-270v-259h304v-56h-365v686h365v-56z" />
    <glyph glyph-name="Edieresis" unicode="&#xcb;" horiz-adv-x="490" 
d="M191 739c-13.333 0 -24.5 4.5 -33.5 13.5s-13.5 20.167 -13.5 33.5s4.5 24.333 13.5 33s20.167 13 33.5 13c12.667 0 23.5 -4.33301 32.5 -13s13.5 -19.667 13.5 -33s-4.5 -24.5 -13.5 -33.5s-19.833 -13.5 -32.5 -13.5zM353 739c-13.333 0 -24.5 4.5 -33.5 13.5
s-13.5 20.167 -13.5 33.5s4.5 24.333 13.5 33s20.167 13 33.5 13c12.667 0 23.5 -4.33301 32.5 -13s13.5 -19.667 13.5 -33s-4.5 -24.5 -13.5 -33.5s-19.833 -13.5 -32.5 -13.5zM448 630h-304v-260h270v-55h-270v-259h304v-56h-365v686h365v-56z" />
    <glyph glyph-name="Igrave" unicode="&#xcc;" horiz-adv-x="227" 
d="M87 716l-93 124h65l79 -124h-51zM83 0v686h61v-686h-61z" />
    <glyph glyph-name="Iacute" unicode="&#xcd;" horiz-adv-x="227" 
d="M88 716l79 124h64l-92 -124h-51zM83 0v686h61v-686h-61z" />
    <glyph glyph-name="Icircumflex" unicode="&#xce;" horiz-adv-x="227" 
d="M-22 731l97 109h75l97 -109h-49l-85 82l-86 -82h-49zM83 0v686h61v-686h-61z" />
    <glyph glyph-name="Idieresis" unicode="&#xcf;" horiz-adv-x="227" 
d="M32 739c-13.333 0 -24.666 4.5 -33.999 13.5s-14 20.167 -14 33.5s4.66699 24.333 14 33s20.666 13 33.999 13c12.667 0 23.5 -4.33301 32.5 -13s13.5 -19.667 13.5 -33s-4.5 -24.5 -13.5 -33.5s-19.833 -13.5 -32.5 -13.5zM194 739c-13.333 0 -24.5 4.5 -33.5 13.5
s-13.5 20.167 -13.5 33.5s4.5 24.333 13.5 33s20.167 13 33.5 13c12.667 0 23.5 -4.33301 32.5 -13s13.5 -19.667 13.5 -33s-4.5 -24.5 -13.5 -33.5s-19.833 -13.5 -32.5 -13.5zM83 0v686h61v-686h-61z" />
    <glyph glyph-name="Eth" unicode="&#xd0;" horiz-adv-x="671" 
d="M508 616c72.667 -56.667 109 -147.667 109 -273s-36.333 -216.333 -109 -273c-29.333 -23.333 -65.166 -40.833 -107.499 -52.5s-93.833 -17.5 -154.5 -17.5h-164v323h-80v42h80v321h164c60.667 0 112.167 -5.83301 154.5 -17.5s78.166 -29.167 107.499 -52.5zM466 115
c59.333 45.333 89 121.333 89 228s-29.667 182.667 -89 228c-48 39.333 -121.333 59 -220 59h-103v-265h151v-42h-151v-267h103c98.667 0 172 19.667 220 59z" />
    <glyph glyph-name="Ntilde" unicode="&#xd1;" horiz-adv-x="707" 
d="M285 803c-17.333 0 -30.998 -7.16797 -40.998 -21.501s-15 -33.166 -15 -56.499h-35c0 34 8.5 62 25.5 84s39.5 33 67.5 33c23.333 0 41.166 -5.5 53.499 -16.5s23.166 -22.167 32.499 -33.5c7.33301 -10 15.166 -18.833 23.499 -26.5s20.166 -11.5 35.499 -11.5
c16.667 0 29.834 7.33301 39.501 22s14.5 33.667 14.5 57h36c0 -34 -8.5 -62 -25.5 -84s-39.5 -33 -67.5 -33c-23.333 0 -41 5.33301 -53 16s-22.333 21.667 -31 33c-8 10.667 -16.167 19.667 -24.5 27s-20.166 11 -35.499 11zM563.002 685.999h62v-686h-80l-401 610v-610
h-61v686h78l402 -609v609z" />
    <glyph glyph-name="Ograve" unicode="&#xd2;" horiz-adv-x="787" 
d="M368 716l-92 124h64l79 -124h-51zM393 -11c-50 0 -96 8.66699 -138 26s-78 41.5 -108 72.5s-53.333 68.167 -70 111.5s-25 91.333 -25 144s8.33301 100.667 25 144s40 80.5 70 111.5s66 55.167 108 72.5s88 26 138 26s96 -8.66699 138 -26s78 -41.5 108 -72.5
s53.333 -68.167 70 -111.5s25 -91.333 25 -144s-8.33301 -100.667 -25 -144s-40 -80.5 -70 -111.5s-66 -55.167 -108 -72.5s-88 -26 -138 -26zM393 46c41.333 0 79.166 7.16699 113.499 21.5s63.833 34.5 88.5 60.5s43.667 57.333 57 94s20 77 20 121
s-6.66699 84.333 -20 121s-32.333 68 -57 94s-54.167 46.167 -88.5 60.5s-72.166 21.5 -113.499 21.5s-79.166 -7.16699 -113.499 -21.5s-63.666 -34.5 -87.999 -60.5s-43.333 -57.333 -57 -94s-20.5 -77 -20.5 -121s6.83301 -84.333 20.5 -121s32.667 -68 57 -94
s53.666 -46.167 87.999 -60.5s72.166 -21.5 113.499 -21.5z" />
    <glyph glyph-name="Oacute" unicode="&#xd3;" horiz-adv-x="787" 
d="M368 716l79 124h64l-92 -124h-51zM393 -11c-50 0 -96 8.66699 -138 26s-78 41.5 -108 72.5s-53.333 68.167 -70 111.5s-25 91.333 -25 144s8.33301 100.667 25 144s40 80.5 70 111.5s66 55.167 108 72.5s88 26 138 26s96 -8.66699 138 -26s78 -41.5 108 -72.5
s53.333 -68.167 70 -111.5s25 -91.333 25 -144s-8.33301 -100.667 -25 -144s-40 -80.5 -70 -111.5s-66 -55.167 -108 -72.5s-88 -26 -138 -26zM393 46c41.333 0 79.166 7.16699 113.499 21.5s63.833 34.5 88.5 60.5s43.667 57.333 57 94s20 77 20 121
s-6.66699 84.333 -20 121s-32.333 68 -57 94s-54.167 46.167 -88.5 60.5s-72.166 21.5 -113.499 21.5s-79.166 -7.16699 -113.499 -21.5s-63.666 -34.5 -87.999 -60.5s-43.333 -57.333 -57 -94s-20.5 -77 -20.5 -121s6.83301 -84.333 20.5 -121s32.667 -68 57 -94
s53.666 -46.167 87.999 -60.5s72.166 -21.5 113.499 -21.5z" />
    <glyph glyph-name="Ocircumflex" unicode="&#xd4;" horiz-adv-x="787" 
d="M259 731l96 109h75l97 -109h-49l-85 82l-86 -82h-48zM393 -11c-50 0 -96 8.66699 -138 26s-78 41.5 -108 72.5s-53.333 68.167 -70 111.5s-25 91.333 -25 144s8.33301 100.667 25 144s40 80.5 70 111.5s66 55.167 108 72.5s88 26 138 26s96 -8.66699 138 -26
s78 -41.5 108 -72.5s53.333 -68.167 70 -111.5s25 -91.333 25 -144s-8.33301 -100.667 -25 -144s-40 -80.5 -70 -111.5s-66 -55.167 -108 -72.5s-88 -26 -138 -26zM393 46c41.333 0 79.166 7.16699 113.499 21.5s63.833 34.5 88.5 60.5s43.667 57.333 57 94s20 77 20 121
s-6.66699 84.333 -20 121s-32.333 68 -57 94s-54.167 46.167 -88.5 60.5s-72.166 21.5 -113.499 21.5s-79.166 -7.16699 -113.499 -21.5s-63.666 -34.5 -87.999 -60.5s-43.333 -57.333 -57 -94s-20.5 -77 -20.5 -121s6.83301 -84.333 20.5 -121s32.667 -68 57 -94
s53.666 -46.167 87.999 -60.5s72.166 -21.5 113.499 -21.5z" />
    <glyph glyph-name="Otilde" unicode="&#xd5;" horiz-adv-x="787" 
d="M464 716c-23.333 0 -40.998 5.33203 -52.998 15.999s-22.333 21.667 -31 33c-8 10.667 -16.167 19.667 -24.5 27s-20.166 11 -35.499 11c-17.333 0 -31 -7.16699 -41 -21.5s-15 -33.166 -15 -56.499h-35c0 34 8.5 62 25.5 84s39.5 33 67.5 33
c23.333 0 41.166 -5.5 53.499 -16.5s23.166 -22.167 32.499 -33.5c7.33301 -10 15.166 -18.833 23.499 -26.5s20.166 -11.5 35.499 -11.5c16.667 0 29.834 7.33301 39.501 22s14.5 33.667 14.5 57h36c0 -34 -8.5 -62 -25.5 -84s-39.5 -33 -67.5 -33zM393.002 -11.001
c-50 0 -96 8.66699 -138 26s-78 41.5 -108 72.5s-53.333 68.167 -70 111.5s-25 91.333 -25 144s8.33301 100.667 25 144s40 80.5 70 111.5s66 55.167 108 72.5s88 26 138 26s96 -8.66699 138 -26s78 -41.5 108 -72.5s53.333 -68.167 70 -111.5s25 -91.333 25 -144
s-8.33301 -100.667 -25 -144s-40 -80.5 -70 -111.5s-66 -55.167 -108 -72.5s-88 -26 -138 -26zM393.002 45.999c41.333 0 79.166 7.16699 113.499 21.5s63.833 34.5 88.5 60.5s43.667 57.333 57 94s20 77 20 121s-6.66699 84.333 -20 121s-32.333 68 -57 94
s-54.167 46.167 -88.5 60.5s-72.166 21.5 -113.499 21.5s-79.166 -7.16699 -113.499 -21.5s-63.666 -34.5 -87.999 -60.5s-43.333 -57.333 -57 -94s-20.5 -77 -20.5 -121s6.83301 -84.333 20.5 -121s32.667 -68 57 -94s53.666 -46.167 87.999 -60.5
s72.166 -21.5 113.499 -21.5z" />
    <glyph glyph-name="Odieresis" unicode="&#xd6;" horiz-adv-x="787" 
d="M313 739c-13.333 0 -24.5 4.5 -33.5 13.5s-13.5 20.167 -13.5 33.5s4.5 24.333 13.5 33s20.167 13 33.5 13c12.667 0 23.5 -4.33301 32.5 -13s13.5 -19.667 13.5 -33s-4.5 -24.5 -13.5 -33.5s-19.833 -13.5 -32.5 -13.5zM475 739c-13.333 0 -24.5 4.5 -33.5 13.5
s-13.5 20.167 -13.5 33.5s4.5 24.333 13.5 33s20.167 13 33.5 13c12.667 0 23.5 -4.33301 32.5 -13s13.5 -19.667 13.5 -33s-4.5 -24.5 -13.5 -33.5s-19.833 -13.5 -32.5 -13.5zM393 -11c-50 0 -96 8.66699 -138 26s-78 41.5 -108 72.5s-53.333 68.167 -70 111.5
s-25 91.333 -25 144s8.33301 100.667 25 144s40 80.5 70 111.5s66 55.167 108 72.5s88 26 138 26s96 -8.66699 138 -26s78 -41.5 108 -72.5s53.333 -68.167 70 -111.5s25 -91.333 25 -144s-8.33301 -100.667 -25 -144s-40 -80.5 -70 -111.5s-66 -55.167 -108 -72.5
s-88 -26 -138 -26zM393 46c41.333 0 79.166 7.16699 113.499 21.5s63.833 34.5 88.5 60.5s43.667 57.333 57 94s20 77 20 121s-6.66699 84.333 -20 121s-32.333 68 -57 94s-54.167 46.167 -88.5 60.5s-72.166 21.5 -113.499 21.5s-79.166 -7.16699 -113.499 -21.5
s-63.666 -34.5 -87.999 -60.5s-43.333 -57.333 -57 -94s-20.5 -77 -20.5 -121s6.83301 -84.333 20.5 -121s32.667 -68 57 -94s53.666 -46.167 87.999 -60.5s72.166 -21.5 113.499 -21.5z" />
    <glyph glyph-name="multiply" unicode="&#xd7;" horiz-adv-x="468" 
d="M87 59l-33 34l147 147l-147 146l33 34l147 -146l147 146l33 -34l-146 -146l146 -147l-33 -34l-147 146z" />
    <glyph glyph-name="Oslash" unicode="&#xd8;" horiz-adv-x="787" 
d="M610 625c39.333 -31.333 69.833 -71 91.5 -119s32.5 -102.333 32.5 -163c0 -52.667 -8.33301 -100.667 -25 -144s-40 -80.5 -70 -111.5s-66 -55.167 -108 -72.5s-88 -26 -138 -26c-36 0 -70 4.5 -102 13.5s-61 21.833 -87 38.5l-66 -94l-28 19l66 95
c-39.333 31.333 -69.833 71 -91.5 119s-32.5 102.333 -32.5 163c0 52.667 8.33301 100.667 25 144s40 80.5 70 111.5s66 55.167 108 72.5s88 26 138 26c36 0 70 -4.5 102 -13.5s61 -21.833 87 -38.5l66 94l28 -19zM114 343c0 -50 8.49707 -94.833 25.4971 -134.5
s40.5 -72.5 70.5 -98.5l339 486c-21.333 14 -45.166 24.833 -71.499 32.5s-54.5 11.5 -84.5 11.5c-41.333 0 -79.166 -7.16699 -113.499 -21.5s-63.666 -34.5 -87.999 -60.5s-43.333 -57.333 -57 -94s-20.5 -77 -20.5 -121zM392.997 46
c41.333 0 79.168 7.16699 113.501 21.5s63.833 34.5 88.5 60.5s43.667 57.333 57 94s20 77 20 121c0 50 -8.5 94.833 -25.5 134.5s-40.5 72.5 -70.5 98.5l-339 -486c21.333 -14 45.166 -24.833 71.499 -32.5s54.5 -11.5 84.5 -11.5z" />
    <glyph glyph-name="Ugrave" unicode="&#xd9;" horiz-adv-x="655" 
d="M302 716l-92 124h64l79 -124h-51zM328 -11c-36.667 0 -70.501 5.5 -101.501 16.5s-57.833 27 -80.5 48s-40.167 46.667 -52.5 77s-18.5 64.5 -18.5 102.5v453h61v-447c0 -30 4.66699 -57 14 -81s22.5 -44.333 39.5 -61s37.167 -29.334 60.5 -38.001s49.333 -13 78 -13
c28 0 53.833 4.33301 77.5 13s43.834 21.334 60.501 38.001s29.667 37 39 61s14 51 14 81v447h62v-453c0 -38 -6.33301 -72.167 -19 -102.5s-30.167 -56 -52.5 -77s-49 -37 -80 -48s-64.833 -16.5 -101.5 -16.5z" />
    <glyph glyph-name="Uacute" unicode="&#xda;" horiz-adv-x="655" 
d="M302 716l79 124h64l-92 -124h-51zM328 -11c-36.667 0 -70.501 5.5 -101.501 16.5s-57.833 27 -80.5 48s-40.167 46.667 -52.5 77s-18.5 64.5 -18.5 102.5v453h61v-447c0 -30 4.66699 -57 14 -81s22.5 -44.333 39.5 -61s37.167 -29.334 60.5 -38.001s49.333 -13 78 -13
c28 0 53.833 4.33301 77.5 13s43.834 21.334 60.501 38.001s29.667 37 39 61s14 51 14 81v447h62v-453c0 -38 -6.33301 -72.167 -19 -102.5s-30.167 -56 -52.5 -77s-49 -37 -80 -48s-64.833 -16.5 -101.5 -16.5z" />
    <glyph glyph-name="Ucircumflex" unicode="&#xdb;" horiz-adv-x="655" 
d="M193 731l96 109h75l97 -109h-49l-85 82l-86 -82h-48zM328 -11c-36.667 0 -70.501 5.5 -101.501 16.5s-57.833 27 -80.5 48s-40.167 46.667 -52.5 77s-18.5 64.5 -18.5 102.5v453h61v-447c0 -30 4.66699 -57 14 -81s22.5 -44.333 39.5 -61s37.167 -29.334 60.5 -38.001
s49.333 -13 78 -13c28 0 53.833 4.33301 77.5 13s43.834 21.334 60.501 38.001s29.667 37 39 61s14 51 14 81v447h62v-453c0 -38 -6.33301 -72.167 -19 -102.5s-30.167 -56 -52.5 -77s-49 -37 -80 -48s-64.833 -16.5 -101.5 -16.5z" />
    <glyph glyph-name="Udieresis" unicode="&#xdc;" horiz-adv-x="655" 
d="M247 739c-13.333 0 -24.5 4.5 -33.5 13.5s-13.5 20.167 -13.5 33.5s4.5 24.333 13.5 33s20.167 13 33.5 13c12.667 0 23.5 -4.33301 32.5 -13s13.5 -19.667 13.5 -33s-4.5 -24.5 -13.5 -33.5s-19.833 -13.5 -32.5 -13.5zM409 739c-13.333 0 -24.5 4.5 -33.5 13.5
s-13.5 20.167 -13.5 33.5s4.5 24.333 13.5 33s20.167 13 33.5 13c12.667 0 23.5 -4.33301 32.5 -13s13.5 -19.667 13.5 -33s-4.5 -24.5 -13.5 -33.5s-19.833 -13.5 -32.5 -13.5zM328 -11c-36.667 0 -70.501 5.5 -101.501 16.5s-57.833 27 -80.5 48s-40.167 46.667 -52.5 77
s-18.5 64.5 -18.5 102.5v453h61v-447c0 -30 4.66699 -57 14 -81s22.5 -44.333 39.5 -61s37.167 -29.334 60.5 -38.001s49.333 -13 78 -13c28 0 53.833 4.33301 77.5 13s43.834 21.334 60.501 38.001s29.667 37 39 61s14 51 14 81v447h62v-453
c0 -38 -6.33301 -72.167 -19 -102.5s-30.167 -56 -52.5 -77s-49 -37 -80 -48s-64.833 -16.5 -101.5 -16.5z" />
    <glyph glyph-name="Yacute" unicode="&#xdd;" horiz-adv-x="568" 
d="M402 840l-92 -124h-51l79 124h64zM552 686l-237 -366v-320h-62v319l-238 367h68l201 -312l200 312h68z" />
    <glyph glyph-name="Thorn" unicode="&#xde;" horiz-adv-x="579" 
d="M467 550c22.667 -17.333 40.002 -39.999 52.002 -67.999s18 -60.667 18 -98c0 -42.667 -8.16699 -80.334 -24.5 -113.001s-40.5 -57.667 -72.5 -75c-20.667 -10.667 -43.334 -17.667 -68.001 -21s-52 -5 -82 -5h-147v-170h-61v686h61v-93h147
c41.333 0 76.166 -3.33301 104.499 -10s52.5 -17.667 72.5 -33zM408.002 245.001c45.333 26 68 71.668 68 137.001c0 58 -18.333 100.667 -55 128c-15.333 11.333 -34.333 19.166 -57 23.499s-49.667 6.5 -81 6.5h-140v-316h140c28 0 52.167 1.5 72.5 4.5
s37.833 8.5 52.5 16.5z" />
    <glyph glyph-name="germandbls" unicode="&#xdf;" horiz-adv-x="618" 
d="M397 -10c-52 0 -96 12.0039 -132 36.0039s-57.667 57.667 -65 101l51 14c6.66699 -34 22.667 -60.167 48 -78.5s57 -27.5 95 -27.5c37.333 0 67.166 8.5 89.499 25.5s33.5 41.167 33.5 72.5c0 18 -3.66699 33 -11 45s-17.166 21.667 -29.499 29
s-26.333 13.166 -42 17.499s-31.834 8.5 -48.501 12.5c-18.667 4 -36.334 8.66699 -53.001 14s-31.334 12.166 -44.001 20.499s-22.667 18.666 -30 30.999s-11 27.833 -11 46.5c0 18 3.33301 33.5 10 46.5s15.334 24.5 26.001 34.5s22.834 18.833 36.501 26.5l40.5 22.5
l39 23.5c12.667 7.66699 23.834 16.334 33.501 26.001s17.5 20.334 23.5 32.001s9 25.5 9 41.5c0 35.333 -12.167 62.166 -36.5 80.499s-60.5 27.5 -108.5 27.5c-36 0 -66 -5 -90 -15s-43 -24.667 -57 -44s-24 -43.166 -30 -71.499s-9 -60.833 -9 -97.5v-482h-60v489
c0 96.667 21 166 63 208s103 63 183 63c64.667 0 114.5 -14.333 149.5 -43s52.5 -68.334 52.5 -119.001c0 -22.667 -4 -42.167 -12 -58.5s-18.167 -30.5 -30.5 -42.5s-26.166 -22.5 -41.499 -31.5s-30.333 -17.167 -45 -24.5c-23.333 -12.667 -43.5 -25.334 -60.5 -38.001
s-25.5 -29 -25.5 -49c0 -11.333 2.5 -20.666 7.5 -27.999s12 -13.5 21 -18.5s19.667 -9.16699 32 -12.5s25.5 -6.66602 39.5 -9.99902c21.333 -4.66699 42 -10.334 62 -17.001s37.833 -15.334 53.5 -26.001s28.167 -24.334 37.5 -41.001s14 -37.667 14 -63
c0 -24 -4.5 -45.167 -13.5 -63.5s-21.333 -33.833 -37 -46.5s-34.334 -22.167 -56.001 -28.5s-45.5 -9.5 -71.5 -9.5z" />
    <glyph glyph-name="agrave" unicode="&#xe0;" horiz-adv-x="506" 
d="M281 540h-51l-108 146h65zM491 50l-0.000976562 -49.998h-32c-23.333 0 -41.5 5.66699 -54.5 17s-19.5 29.666 -19.5 54.999v28h-4c-15.333 -35.333 -38.5 -62.5 -69.5 -81.5s-68.5 -28.5 -112.5 -28.5c-42.667 0 -77.5 10.667 -104.5 32s-40.5 53 -40.5 95
c0 46 16 80.833 48 104.5s76 40.167 132 49.5l106 18c9.33301 1.33301 17.333 4.5 24 9.5s10 12.167 10 21.5c0 40 -10.833 70.333 -32.5 91s-52.167 31 -91.5 31c-76.667 0 -119.334 -35 -128.001 -105l-59 8c7.33301 48 26.833 83.833 58.5 107.5
s74.834 35.5 129.501 35.5c58.667 0 103.834 -14.833 135.501 -44.5s47.5 -72.834 47.5 -129.501v-214c0 -18.667 2.83301 -31.667 8.5 -39s16.167 -11 31.5 -11h17zM211.999 39.002c52 0 92.5 18.333 121.5 55s43.5 89.334 43.5 158.001l-139 -26
c-82.667 -12.667 -124 -47.334 -124 -104.001c0 -26.667 8.5 -47.167 25.5 -61.5s41.167 -21.5 72.5 -21.5z" />
    <glyph glyph-name="aacute" unicode="&#xe1;" horiz-adv-x="506" 
d="M377 686l-108 -146h-51l93 146h66zM491 50l-0.000976562 -49.998h-32c-23.333 0 -41.5 5.66699 -54.5 17s-19.5 29.666 -19.5 54.999v28h-4c-15.333 -35.333 -38.5 -62.5 -69.5 -81.5s-68.5 -28.5 -112.5 -28.5c-42.667 0 -77.5 10.667 -104.5 32s-40.5 53 -40.5 95
c0 46 16 80.833 48 104.5s76 40.167 132 49.5l106 18c9.33301 1.33301 17.333 4.5 24 9.5s10 12.167 10 21.5c0 40 -10.833 70.333 -32.5 91s-52.167 31 -91.5 31c-76.667 0 -119.334 -35 -128.001 -105l-59 8c7.33301 48 26.833 83.833 58.5 107.5
s74.834 35.5 129.501 35.5c58.667 0 103.834 -14.833 135.501 -44.5s47.5 -72.834 47.5 -129.501v-214c0 -18.667 2.83301 -31.667 8.5 -39s16.167 -11 31.5 -11h17zM211.999 39.002c52 0 92.5 18.333 121.5 55s43.5 89.334 43.5 158.001l-139 -26
c-82.667 -12.667 -124 -47.334 -124 -104.001c0 -26.667 8.5 -47.167 25.5 -61.5s41.167 -21.5 72.5 -21.5z" />
    <glyph glyph-name="acircumflex" unicode="&#xe2;" horiz-adv-x="506" 
d="M249 652l-82 -112h-48l96 146h68l96 -146h-48zM491 50l-0.000976562 -49.998h-32c-23.333 0 -41.5 5.66699 -54.5 17s-19.5 29.666 -19.5 54.999v28h-4c-15.333 -35.333 -38.5 -62.5 -69.5 -81.5s-68.5 -28.5 -112.5 -28.5c-42.667 0 -77.5 10.667 -104.5 32
s-40.5 53 -40.5 95c0 46 16 80.833 48 104.5s76 40.167 132 49.5l106 18c9.33301 1.33301 17.333 4.5 24 9.5s10 12.167 10 21.5c0 40 -10.833 70.333 -32.5 91s-52.167 31 -91.5 31c-76.667 0 -119.334 -35 -128.001 -105l-59 8c7.33301 48 26.833 83.833 58.5 107.5
s74.834 35.5 129.501 35.5c58.667 0 103.834 -14.833 135.501 -44.5s47.5 -72.834 47.5 -129.501v-214c0 -18.667 2.83301 -31.667 8.5 -39s16.167 -11 31.5 -11h17zM211.999 39.002c52 0 92.5 18.333 121.5 55s43.5 89.334 43.5 158.001l-139 -26
c-82.667 -12.667 -124 -47.334 -124 -104.001c0 -26.667 8.5 -47.167 25.5 -61.5s41.167 -21.5 72.5 -21.5z" />
    <glyph glyph-name="atilde" unicode="&#xe3;" horiz-adv-x="506" 
d="M176 625c-17.333 0 -30.998 -7.16797 -40.998 -21.501s-15 -33.166 -15 -56.499h-35c0 34 8.5 62 25.5 84s39.5 33 67.5 33c23.333 0 41.166 -5.5 53.499 -16.5s23.166 -22.167 32.499 -33.5c7.33301 -10 15.166 -18.833 23.499 -26.5s20.166 -11.5 35.499 -11.5
c16.667 0 29.834 7.33301 39.501 22s14.5 33.667 14.5 57h36c0 -34 -8.5 -62 -25.5 -84s-39.5 -33 -67.5 -33c-23.333 0 -41 5.33301 -53 16s-22.333 21.667 -31 33c-8 10.667 -16.167 19.667 -24.5 27s-20.166 11 -35.499 11zM491.002 49.999l-0.000976562 -49.998h-32
c-23.333 0 -41.5 5.66699 -54.5 17s-19.5 29.666 -19.5 54.999v28h-4c-15.333 -35.333 -38.5 -62.5 -69.5 -81.5s-68.5 -28.5 -112.5 -28.5c-42.667 0 -77.5 10.667 -104.5 32s-40.5 53 -40.5 95c0 46 16 80.833 48 104.5s76 40.167 132 49.5l106 18
c9.33301 1.33301 17.333 4.5 24 9.5s10 12.167 10 21.5c0 40 -10.833 70.333 -32.5 91s-52.167 31 -91.5 31c-76.667 0 -119.334 -35 -128.001 -105l-59 8c7.33301 48 26.833 83.833 58.5 107.5s74.834 35.5 129.501 35.5c58.667 0 103.834 -14.833 135.501 -44.5
s47.5 -72.834 47.5 -129.501v-214c0 -18.667 2.83301 -31.667 8.5 -39s16.167 -11 31.5 -11h17zM212.001 39.001c52 0 92.5 18.333 121.5 55s43.5 89.334 43.5 158.001l-139 -26c-82.667 -12.667 -124 -47.334 -124 -104.001c0 -26.667 8.5 -47.167 25.5 -61.5
s41.167 -21.5 72.5 -21.5z" />
    <glyph glyph-name="adieresis" unicode="&#xe4;" horiz-adv-x="506" 
d="M169 611c-13.333 0 -24.5 4.5 -33.5 13.5s-13.5 19.833 -13.5 32.5c0 13.333 4.5 24.5 13.5 33.5s20.167 13.5 33.5 13.5c12.667 0 23.5 -4.5 32.5 -13.5s13.5 -20.167 13.5 -33.5c0 -12.667 -4.5 -23.5 -13.5 -32.5s-19.833 -13.5 -32.5 -13.5zM331 611
c-13.333 0 -24.5 4.5 -33.5 13.5s-13.5 19.833 -13.5 32.5c0 13.333 4.5 24.5 13.5 33.5s20.167 13.5 33.5 13.5c12.667 0 23.5 -4.5 32.5 -13.5s13.5 -20.167 13.5 -33.5c0 -12.667 -4.5 -23.5 -13.5 -32.5s-19.833 -13.5 -32.5 -13.5zM491 50l-0.000976562 -49.998h-32
c-23.333 0 -41.5 5.66699 -54.5 17s-19.5 29.666 -19.5 54.999v28h-4c-15.333 -35.333 -38.5 -62.5 -69.5 -81.5s-68.5 -28.5 -112.5 -28.5c-42.667 0 -77.5 10.667 -104.5 32s-40.5 53 -40.5 95c0 46 16 80.833 48 104.5s76 40.167 132 49.5l106 18
c9.33301 1.33301 17.333 4.5 24 9.5s10 12.167 10 21.5c0 40 -10.833 70.333 -32.5 91s-52.167 31 -91.5 31c-76.667 0 -119.334 -35 -128.001 -105l-59 8c7.33301 48 26.833 83.833 58.5 107.5s74.834 35.5 129.501 35.5c58.667 0 103.834 -14.833 135.501 -44.5
s47.5 -72.834 47.5 -129.501v-214c0 -18.667 2.83301 -31.667 8.5 -39s16.167 -11 31.5 -11h17zM211.999 39.002c52 0 92.5 18.333 121.5 55s43.5 89.334 43.5 158.001l-139 -26c-82.667 -12.667 -124 -47.334 -124 -104.001c0 -26.667 8.5 -47.167 25.5 -61.5
s41.167 -21.5 72.5 -21.5z" />
    <glyph glyph-name="aring" unicode="&#xe5;" horiz-adv-x="506" 
d="M250 544c-16 0 -30.666 2.83301 -43.999 8.5s-24.833 13.5 -34.5 23.5s-17.334 21.667 -23.001 35s-8.5 27.333 -8.5 42c0 15.333 2.66699 29.5 8 42.5s13 24.5 23 34.5s21.667 17.833 35 23.5s28 8.5 44 8.5s30.667 -2.83301 44 -8.5s24.833 -13.5 34.5 -23.5
s17.167 -21.5 22.5 -34.5s8 -27.167 8 -42.5c0 -14.667 -2.83301 -28.667 -8.5 -42s-13.334 -25 -23.001 -35s-21.167 -17.833 -34.5 -23.5s-27.666 -8.5 -42.999 -8.5zM250.001 726c-20.667 0 -38.167 -6.83301 -52.5 -20.5s-21.5 -31.167 -21.5 -52.5
c0 -20 7.33301 -37.167 22 -51.5s32 -21.5 52 -21.5s37.167 7.16699 51.5 21.5s21.5 31.5 21.5 51.5c0 21.333 -7.16699 38.833 -21.5 52.5s-31.5 20.5 -51.5 20.5zM491.001 50l-0.000976562 -49.998h-32c-23.333 0 -41.5 5.66699 -54.5 17s-19.5 29.666 -19.5 54.999v28h-4
c-15.333 -35.333 -38.5 -62.5 -69.5 -81.5s-68.5 -28.5 -112.5 -28.5c-42.667 0 -77.5 10.667 -104.5 32s-40.5 53 -40.5 95c0 46 16 80.833 48 104.5s76 40.167 132 49.5l106 18c9.33301 1.33301 17.333 4.5 24 9.5s10 12.167 10 21.5c0 40 -10.833 70.333 -32.5 91
s-52.167 31 -91.5 31c-76.667 0 -119.334 -35 -128.001 -105l-59 8c7.33301 48 26.833 83.833 58.5 107.5s74.834 35.5 129.501 35.5c58.667 0 103.834 -14.833 135.501 -44.5s47.5 -72.834 47.5 -129.501v-214c0 -18.667 2.83301 -31.667 8.5 -39s16.167 -11 31.5 -11h17z
M212 39.002c52 0 92.5 18.333 121.5 55s43.5 89.334 43.5 158.001l-139 -26c-82.667 -12.667 -124 -47.334 -124 -104.001c0 -26.667 8.5 -47.167 25.5 -61.5s41.167 -21.5 72.5 -21.5z" />
    <glyph glyph-name="ae" unicode="&#xe6;" horiz-adv-x="893" 
d="M842 227l-409.004 0.000976562c1.33301 -28 6.5 -53.5 15.5 -76.5s21.5 -42.667 37.5 -59s34.667 -29 56 -38s44.333 -13.5 69 -13.5c36 0 67.5 8.66699 94.5 26s47.5 41.666 61.5 72.999l56 -11c-17.333 -43.333 -44.666 -77.166 -81.999 -101.499
s-80.666 -36.5 -129.999 -36.5c-50 0 -93.667 12 -131 36s-65.333 57 -84 99c-10 -24.667 -22.167 -45.667 -36.5 -63s-30.166 -31.333 -47.499 -42s-35.5 -18.334 -54.5 -23.001s-37.833 -7 -56.5 -7c-44 0 -79.5 10.667 -106.5 32s-40.5 53 -40.5 95
c0 46 16 80.833 48 104.5s76 40.167 132 49.5l106 18c22.667 4 34 14.333 34 31c0 41.333 -11.167 72.166 -33.5 92.499s-53.5 30.5 -93.5 30.5c-38 0 -67.833 -8.33301 -89.5 -25s-35.167 -43.667 -40.5 -81l-54 8c14.667 95.333 77.334 143 188.001 143
c40 0 74.5 -7.83301 103.5 -23.5s49.833 -40.5 62.5 -74.5c20.667 30.667 47.5 54.667 80.5 72s70.5 26 112.5 26c33.333 0 64.166 -5.83301 92.499 -17.5s52.833 -28.167 73.5 -49.5s36.834 -47.166 48.501 -77.499s17.5 -64.5 17.5 -102.5v-14zM609.996 439.001
c-48 0 -88 -14.501 -120 -43.501s-50.667 -69.5 -56 -121.5h348c-4 50.667 -21.833 90.834 -53.5 120.501s-71.167 44.5 -118.5 44.5zM377.996 191c-2.66699 13.333 -3.99805 29.333 -3.99805 48v16l-131 -24c-86.667 -14 -130 -49.667 -130 -107
c0 -27.333 8.83301 -48.333 26.5 -63s42.5 -22 74.5 -22c16 0 32.667 2.66699 50 8s33.666 14 48.999 26s28.666 27.667 39.999 47s19.333 43.333 24 72z" />
    <glyph glyph-name="ccedilla" unicode="&#xe7;" horiz-adv-x="555" 
d="M290 40c39.333 0 73.1621 10.165 101.495 30.498s48.5 48.5 60.5 84.5l55 -8c-13.333 -46.667 -38 -83.834 -74 -111.501s-78.667 -42.834 -128 -45.501l-40 -73c5.33301 1.33301 10.333 2.33301 15 3s9.33398 1 14.001 1c24 0 43.167 -6.66699 57.5 -20
s21.5 -31.333 21.5 -54c0 -24 -8.16699 -43.667 -24.5 -59s-37.5 -23 -63.5 -23c-21.333 0 -39.166 4 -53.499 12s-25.166 18.667 -32.499 32l36 15c4.66699 -8.66699 11.334 -15 20.001 -19s18.334 -6 29.001 -6c15.333 0 27.666 4.16699 36.999 12.5s14 20.166 14 35.499
c0 14.667 -4.33301 25.834 -13 33.501s-20.667 11.5 -36 11.5c-14.667 0 -27.667 -4 -39 -12l-33 16l50 95c-31.333 3.33301 -60 11.833 -86 25.5s-48.167 31.334 -66.5 53.001s-32.666 47 -42.999 76s-15.5 60.5 -15.5 94.5c0 36 5.83301 69.167 17.5 99.5s28 56.5 49 78.5
s46.167 39.167 75.5 51.5s61.333 18.5 96 18.5c53.333 0 99.166 -14 137.499 -42s64.5 -66.333 78.5 -115l-55 -7c-12 36 -32.167 64.167 -60.5 84.5s-62.166 30.5 -101.499 30.5c-26 0 -50 -5 -72 -15s-40.833 -23.667 -56.5 -41s-27.834 -38.166 -36.501 -62.499
s-13 -51.166 -13 -80.499s4.33301 -56.166 13 -80.499s20.834 -45.333 36.501 -63s34.5 -31.5 56.5 -41.5s46 -15 72 -15z" />
    <glyph glyph-name="egrave" unicode="&#xe8;" horiz-adv-x="572" 
d="M319 540h-51l-108 146h65zM521 227l-409.002 -0.000976562c1.33301 -28 6.5 -53.5 15.5 -76.5s21.5 -42.667 37.5 -59s34.667 -29 56 -38s44.333 -13.5 69 -13.5c36 0 67.5 8.66699 94.5 26s47.833 41.666 62.5 72.999l55 -11
c-17.333 -43.333 -44.666 -77.166 -81.999 -101.499s-80.333 -36.5 -129 -36.5c-35.333 0 -67.5 6 -96.5 18s-54 29 -75 51s-37.333 48.333 -49 79s-17.5 64.334 -17.5 101.001c0 37.333 5.83301 71.166 17.5 101.499s28 56.5 49 78.5s45.833 39 74.5 51
s60.334 18 95.001 18c33.333 0 64.166 -5.83301 92.499 -17.5s52.833 -28.167 73.5 -49.5s36.834 -47.166 48.501 -77.499s17.5 -64.5 17.5 -102.5v-14zM288.998 438.999c-48 0 -88 -14.501 -120 -43.501s-50.667 -69.5 -56 -121.5h348
c-4 50.667 -21.833 90.834 -53.5 120.501s-71.167 44.5 -118.5 44.5z" />
    <glyph glyph-name="eacute" unicode="&#xe9;" horiz-adv-x="572" 
d="M415 686l-108 -146h-51l93 146h66zM521 227l-409.002 -0.000976562c1.33301 -28 6.5 -53.5 15.5 -76.5s21.5 -42.667 37.5 -59s34.667 -29 56 -38s44.333 -13.5 69 -13.5c36 0 67.5 8.66699 94.5 26s47.833 41.666 62.5 72.999l55 -11
c-17.333 -43.333 -44.666 -77.166 -81.999 -101.499s-80.333 -36.5 -129 -36.5c-35.333 0 -67.5 6 -96.5 18s-54 29 -75 51s-37.333 48.333 -49 79s-17.5 64.334 -17.5 101.001c0 37.333 5.83301 71.166 17.5 101.499s28 56.5 49 78.5s45.833 39 74.5 51
s60.334 18 95.001 18c33.333 0 64.166 -5.83301 92.499 -17.5s52.833 -28.167 73.5 -49.5s36.834 -47.166 48.501 -77.499s17.5 -64.5 17.5 -102.5v-14zM288.998 438.999c-48 0 -88 -14.501 -120 -43.501s-50.667 -69.5 -56 -121.5h348
c-4 50.667 -21.833 90.834 -53.5 120.501s-71.167 44.5 -118.5 44.5z" />
    <glyph glyph-name="ecircumflex" unicode="&#xea;" horiz-adv-x="572" 
d="M287 652l-82 -112h-48l96 146h68l96 -146h-48zM521 227l-409.002 -0.000976562c1.33301 -28 6.5 -53.5 15.5 -76.5s21.5 -42.667 37.5 -59s34.667 -29 56 -38s44.333 -13.5 69 -13.5c36 0 67.5 8.66699 94.5 26s47.833 41.666 62.5 72.999l55 -11
c-17.333 -43.333 -44.666 -77.166 -81.999 -101.499s-80.333 -36.5 -129 -36.5c-35.333 0 -67.5 6 -96.5 18s-54 29 -75 51s-37.333 48.333 -49 79s-17.5 64.334 -17.5 101.001c0 37.333 5.83301 71.166 17.5 101.499s28 56.5 49 78.5s45.833 39 74.5 51
s60.334 18 95.001 18c33.333 0 64.166 -5.83301 92.499 -17.5s52.833 -28.167 73.5 -49.5s36.834 -47.166 48.501 -77.499s17.5 -64.5 17.5 -102.5v-14zM288.998 438.999c-48 0 -88 -14.501 -120 -43.501s-50.667 -69.5 -56 -121.5h348
c-4 50.667 -21.833 90.834 -53.5 120.501s-71.167 44.5 -118.5 44.5z" />
    <glyph glyph-name="edieresis" unicode="&#xeb;" horiz-adv-x="572" 
d="M207 611c-13.333 0 -24.5 4.5 -33.5 13.5s-13.5 19.833 -13.5 32.5c0 13.333 4.5 24.5 13.5 33.5s20.167 13.5 33.5 13.5c12.667 0 23.5 -4.5 32.5 -13.5s13.5 -20.167 13.5 -33.5c0 -12.667 -4.5 -23.5 -13.5 -32.5s-19.833 -13.5 -32.5 -13.5zM369 611
c-13.333 0 -24.5 4.5 -33.5 13.5s-13.5 19.833 -13.5 32.5c0 13.333 4.5 24.5 13.5 33.5s20.167 13.5 33.5 13.5c12.667 0 23.5 -4.5 32.5 -13.5s13.5 -20.167 13.5 -33.5c0 -12.667 -4.5 -23.5 -13.5 -32.5s-19.833 -13.5 -32.5 -13.5zM521 227l-409.002 -0.000976562
c1.33301 -28 6.5 -53.5 15.5 -76.5s21.5 -42.667 37.5 -59s34.667 -29 56 -38s44.333 -13.5 69 -13.5c36 0 67.5 8.66699 94.5 26s47.833 41.666 62.5 72.999l55 -11c-17.333 -43.333 -44.666 -77.166 -81.999 -101.499s-80.333 -36.5 -129 -36.5
c-35.333 0 -67.5 6 -96.5 18s-54 29 -75 51s-37.333 48.333 -49 79s-17.5 64.334 -17.5 101.001c0 37.333 5.83301 71.166 17.5 101.499s28 56.5 49 78.5s45.833 39 74.5 51s60.334 18 95.001 18c33.333 0 64.166 -5.83301 92.499 -17.5s52.833 -28.167 73.5 -49.5
s36.834 -47.166 48.501 -77.499s17.5 -64.5 17.5 -102.5v-14zM288.998 438.999c-48 0 -88 -14.501 -120 -43.501s-50.667 -69.5 -56 -121.5h348c-4 50.667 -21.833 90.834 -53.5 120.501s-71.167 44.5 -118.5 44.5z" />
    <glyph glyph-name="igrave" unicode="&#xec;" horiz-adv-x="209" 
d="M85 540l-109 146h66l94 -146h-51zM75 0v478h59v-478h-59z" />
    <glyph glyph-name="iacute" unicode="&#xed;" horiz-adv-x="209" 
d="M73 540l93 146h66l-108 -146h-51zM75 0v478h59v-478h-59z" />
    <glyph glyph-name="icircumflex" unicode="&#xee;" horiz-adv-x="209" 
d="M-27 540l97 146h68l96 -146h-48l-82 112l-82 -112h-49zM75 0v478h59v-478h-59z" />
    <glyph glyph-name="idieresis" unicode="&#xef;" horiz-adv-x="209" 
d="M24 611c-13.333 0 -24.666 4.5 -33.999 13.5s-14 19.833 -14 32.5c0 13.333 4.66699 24.5 14 33.5s20.666 13.5 33.999 13.5c12.667 0 23.5 -4.5 32.5 -13.5s13.5 -20.167 13.5 -33.5c0 -12.667 -4.5 -23.5 -13.5 -32.5s-19.833 -13.5 -32.5 -13.5zM186 611
c-13.333 0 -24.5 4.5 -33.5 13.5s-13.5 19.833 -13.5 32.5c0 13.333 4.5 24.5 13.5 33.5s20.167 13.5 33.5 13.5c12.667 0 23.5 -4.5 32.5 -13.5s13.5 -20.167 13.5 -33.5c0 -12.667 -4.5 -23.5 -13.5 -32.5s-19.833 -13.5 -32.5 -13.5zM75 0v478h59v-478h-59z" />
    <glyph glyph-name="eth" unicode="&#xf0;" horiz-adv-x="652" 
d="M507 407c16.667 -22 30.166 -46.833 40.499 -74.5s15.5 -58.5 15.5 -92.5c0 -37.333 -6 -71.333 -18 -102s-28.5 -57 -49.5 -79s-46.167 -39 -75.5 -51s-61.333 -18 -96 -18s-66.834 6 -96.501 18s-55 29 -76 51s-37.5 48.333 -49.5 79s-18 64.667 -18 102
c0 36.667 6 70.167 18 100.5s28.5 56.5 49.5 78.5s46.333 39 76 51s61.834 18 96.501 18c22.667 0 43.334 -3 62.001 -9l-103 138l-142 -37l-7 25l132 34l-83 111h68l72 -96l135 35l7 -25l-126 -33zM323.999 40c26 0 50.001 4.99902 72.001 14.999s41 23.833 57 41.5
s28.5 38.667 37.5 63s13.5 51.166 13.5 80.499c0 28 -4.33301 54 -13 78s-20.834 45 -36.501 63s-34.5 32 -56.5 42s-46.667 15 -74 15c-26.667 0 -51 -5 -73 -15s-41 -23.667 -57 -41s-28.5 -38.166 -37.5 -62.499s-13.5 -50.833 -13.5 -79.5
c0 -29.333 4.5 -56.166 13.5 -80.499s21.5 -45.333 37.5 -63s35 -31.5 57 -41.5s46.333 -15 73 -15z" />
    <glyph glyph-name="ntilde" unicode="&#xf1;" horiz-adv-x="531" 
d="M190 625c-17.333 0 -30.998 -7.16797 -40.998 -21.501s-15 -33.166 -15 -56.499h-35c0 34 8.5 62 25.5 84s39.5 33 67.5 33c23.333 0 41.166 -5.5 53.499 -16.5s23.166 -22.167 32.499 -33.5c7.33301 -10 15.166 -18.833 23.499 -26.5s20.166 -11.5 35.499 -11.5
c16.667 0 29.834 7.33301 39.501 22s14.5 33.667 14.5 57h36c0 -34 -8.5 -62 -25.5 -84s-39.5 -33 -67.5 -33c-23.333 0 -41 5.33301 -53 16s-22.333 21.667 -31 33c-8 10.667 -16.167 19.667 -24.5 27s-20.166 11 -35.499 11zM287.002 487.999
c56 0 98.833 -15.167 128.5 -45.5s44.5 -73.166 44.5 -128.499v-314h-60v305c0 44 -11.333 77.167 -34 99.5s-54 33.5 -94 33.5s-72.833 -13.5 -98.5 -40.5s-38.5 -65.833 -38.5 -116.5v-281h-59v478h59v-71c15.333 25.333 36 45.166 62 59.499s56 21.5 90 21.5z" />
    <glyph glyph-name="ograve" unicode="&#xf2;" horiz-adv-x="585" 
d="M273 540l-108 146h65l94 -146h-51zM292 -10c-34.667 0 -66.667 6 -96 18s-54.5 29 -75.5 51s-37.5 48.333 -49.5 79s-18 64.667 -18 102c0 36.667 6 70.167 18 100.5s28.5 56.5 49.5 78.5s46.167 39 75.5 51s61.333 18 96 18c35.333 0 67.666 -6 96.999 -18
s54.5 -29 75.5 -51s37.5 -48.167 49.5 -78.5s18 -63.833 18 -100.5c0 -37.333 -6 -71.333 -18 -102s-28.5 -57 -49.5 -79s-46.167 -39 -75.5 -51s-61.666 -18 -96.999 -18zM292 40c26.667 0 51 5 73 15s41 23.833 57 41.5s28.333 38.667 37 63s13 51.166 13 80.499
c0 28.667 -4.33301 55.167 -13 79.5s-21 45.166 -37 62.499s-35 31 -57 41s-46.333 15 -73 15s-51 -5 -73 -15s-41 -23.667 -57 -41s-28.333 -38.166 -37 -62.499s-13 -50.833 -13 -79.5c0 -29.333 4.33301 -56.166 13 -80.499s21 -45.333 37 -63s35 -31.5 57 -41.5
s46.333 -15 73 -15z" />
    <glyph glyph-name="oacute" unicode="&#xf3;" horiz-adv-x="585" 
d="M262 540l93 146h66l-108 -146h-51zM292 -10c-34.667 0 -66.667 6 -96 18s-54.5 29 -75.5 51s-37.5 48.333 -49.5 79s-18 64.667 -18 102c0 36.667 6 70.167 18 100.5s28.5 56.5 49.5 78.5s46.167 39 75.5 51s61.333 18 96 18c35.333 0 67.666 -6 96.999 -18
s54.5 -29 75.5 -51s37.5 -48.167 49.5 -78.5s18 -63.833 18 -100.5c0 -37.333 -6 -71.333 -18 -102s-28.5 -57 -49.5 -79s-46.167 -39 -75.5 -51s-61.666 -18 -96.999 -18zM292 40c26.667 0 51 5 73 15s41 23.833 57 41.5s28.333 38.667 37 63s13 51.166 13 80.499
c0 28.667 -4.33301 55.167 -13 79.5s-21 45.166 -37 62.499s-35 31 -57 41s-46.333 15 -73 15s-51 -5 -73 -15s-41 -23.667 -57 -41s-28.333 -38.166 -37 -62.499s-13 -50.833 -13 -79.5c0 -29.333 4.33301 -56.166 13 -80.499s21 -45.333 37 -63s35 -31.5 57 -41.5
s46.333 -15 73 -15z" />
    <glyph glyph-name="ocircumflex" unicode="&#xf4;" horiz-adv-x="585" 
d="M162 540l96 146h68l96 -146h-48l-82 112l-82 -112h-48zM292 -10c-34.667 0 -66.667 6 -96 18s-54.5 29 -75.5 51s-37.5 48.333 -49.5 79s-18 64.667 -18 102c0 36.667 6 70.167 18 100.5s28.5 56.5 49.5 78.5s46.167 39 75.5 51s61.333 18 96 18
c35.333 0 67.666 -6 96.999 -18s54.5 -29 75.5 -51s37.5 -48.167 49.5 -78.5s18 -63.833 18 -100.5c0 -37.333 -6 -71.333 -18 -102s-28.5 -57 -49.5 -79s-46.167 -39 -75.5 -51s-61.666 -18 -96.999 -18zM292 40c26.667 0 51 5 73 15s41 23.833 57 41.5
s28.333 38.667 37 63s13 51.166 13 80.499c0 28.667 -4.33301 55.167 -13 79.5s-21 45.166 -37 62.499s-35 31 -57 41s-46.333 15 -73 15s-51 -5 -73 -15s-41 -23.667 -57 -41s-28.333 -38.166 -37 -62.499s-13 -50.833 -13 -79.5c0 -29.333 4.33301 -56.166 13 -80.499
s21 -45.333 37 -63s35 -31.5 57 -41.5s46.333 -15 73 -15z" />
    <glyph glyph-name="otilde" unicode="&#xf5;" horiz-adv-x="585" 
d="M364 538c-23.333 0 -40.998 5.33203 -52.998 15.999s-22.333 21.667 -31 33c-8 10.667 -16.167 19.667 -24.5 27s-20.166 11 -35.499 11c-17.333 0 -31 -7.16699 -41 -21.5s-15 -33.166 -15 -56.499h-35c0 34 8.5 62 25.5 84s39.5 33 67.5 33
c23.333 0 41.166 -5.5 53.499 -16.5s23.166 -22.167 32.499 -33.5c7.33301 -10 15.166 -18.833 23.499 -26.5s20.166 -11.5 35.499 -11.5c16.667 0 29.834 7.33301 39.501 22s14.5 33.667 14.5 57h36c0 -34 -8.5 -62 -25.5 -84s-39.5 -33 -67.5 -33zM292.002 -10.001
c-34.667 0 -66.667 6 -96 18s-54.5 29 -75.5 51s-37.5 48.333 -49.5 79s-18 64.667 -18 102c0 36.667 6 70.167 18 100.5s28.5 56.5 49.5 78.5s46.167 39 75.5 51s61.333 18 96 18c35.333 0 67.666 -6 96.999 -18s54.5 -29 75.5 -51s37.5 -48.167 49.5 -78.5
s18 -63.833 18 -100.5c0 -37.333 -6 -71.333 -18 -102s-28.5 -57 -49.5 -79s-46.167 -39 -75.5 -51s-61.666 -18 -96.999 -18zM292.002 39.999c26.667 0 51 5 73 15s41 23.833 57 41.5s28.333 38.667 37 63s13 51.166 13 80.499c0 28.667 -4.33301 55.167 -13 79.5
s-21 45.166 -37 62.499s-35 31 -57 41s-46.333 15 -73 15s-51 -5 -73 -15s-41 -23.667 -57 -41s-28.333 -38.166 -37 -62.499s-13 -50.833 -13 -79.5c0 -29.333 4.33301 -56.166 13 -80.499s21 -45.333 37 -63s35 -31.5 57 -41.5s46.333 -15 73 -15z" />
    <glyph glyph-name="odieresis" unicode="&#xf6;" horiz-adv-x="585" 
d="M212 611c-13.333 0 -24.5 4.5 -33.5 13.5s-13.5 19.833 -13.5 32.5c0 13.333 4.5 24.5 13.5 33.5s20.167 13.5 33.5 13.5c12.667 0 23.5 -4.5 32.5 -13.5s13.5 -20.167 13.5 -33.5c0 -12.667 -4.5 -23.5 -13.5 -32.5s-19.833 -13.5 -32.5 -13.5zM374 611
c-13.333 0 -24.5 4.5 -33.5 13.5s-13.5 19.833 -13.5 32.5c0 13.333 4.5 24.5 13.5 33.5s20.167 13.5 33.5 13.5c12.667 0 23.5 -4.5 32.5 -13.5s13.5 -20.167 13.5 -33.5c0 -12.667 -4.5 -23.5 -13.5 -32.5s-19.833 -13.5 -32.5 -13.5zM292 -10c-34.667 0 -66.667 6 -96 18
s-54.5 29 -75.5 51s-37.5 48.333 -49.5 79s-18 64.667 -18 102c0 36.667 6 70.167 18 100.5s28.5 56.5 49.5 78.5s46.167 39 75.5 51s61.333 18 96 18c35.333 0 67.666 -6 96.999 -18s54.5 -29 75.5 -51s37.5 -48.167 49.5 -78.5s18 -63.833 18 -100.5
c0 -37.333 -6 -71.333 -18 -102s-28.5 -57 -49.5 -79s-46.167 -39 -75.5 -51s-61.666 -18 -96.999 -18zM292 40c26.667 0 51 5 73 15s41 23.833 57 41.5s28.333 38.667 37 63s13 51.166 13 80.499c0 28.667 -4.33301 55.167 -13 79.5s-21 45.166 -37 62.499s-35 31 -57 41
s-46.333 15 -73 15s-51 -5 -73 -15s-41 -23.667 -57 -41s-28.333 -38.166 -37 -62.499s-13 -50.833 -13 -79.5c0 -29.333 4.33301 -56.166 13 -80.499s21 -45.333 37 -63s35 -31.5 57 -41.5s46.333 -15 73 -15z" />
    <glyph glyph-name="divide" unicode="&#xf7;" horiz-adv-x="607" 
d="M302 381c-11.333 0 -21.333 4.16699 -30 12.5s-13 18.833 -13 31.5c0 11.333 4.33301 21.5 13 30.5s18.667 13.5 30 13.5c12 0 22.333 -4.5 31 -13.5s13 -19.167 13 -30.5c0 -12.667 -4.33301 -23.167 -13 -31.5s-19 -12.5 -31 -12.5zM54 216v48h500v-48h-500zM302 10
c-11.333 0 -21.333 4.16699 -30 12.5s-13 18.833 -13 31.5c0 11.333 4.33301 21.5 13 30.5s18.667 13.5 30 13.5c12 0 22.333 -4.5 31 -13.5s13 -19.167 13 -30.5c0 -12.667 -4.33301 -23.167 -13 -31.5s-19 -12.5 -31 -12.5z" />
    <glyph glyph-name="oslash" unicode="&#xf8;" horiz-adv-x="585" 
d="M449 434c26 -22 46.332 -49.5 60.999 -82.5s22 -70.167 22 -111.5c0 -37.333 -6 -71.333 -18 -102s-28.5 -57 -49.5 -79s-46.167 -39 -75.5 -51s-61.666 -18 -96.999 -18c-48.667 0 -91.667 11.667 -129 35l-55 -80l-28 19l56 80c-26 22 -46.333 49.667 -61 83
s-22 71 -22 113c0 36.667 6 70.167 18 100.5s28.5 56.5 49.5 78.5s46.167 39 75.5 51s61.333 18 96 18c48 0 91 -11.333 129 -34l55 79l29 -19zM111.999 240c0 -31.333 5 -59.668 15 -85.001s23.667 -47 41 -65l222 319c-27.333 19.333 -60 29 -98 29
c-26.667 0 -51 -5 -73 -15s-41 -23.667 -57 -41s-28.333 -38.166 -37 -62.499s-13 -50.833 -13 -79.5zM291.999 39.998c26.667 0 51 5.00195 73 15.002s41 23.833 57 41.5s28.333 38.667 37 63s13 51.166 13 80.499c0 30 -4.83301 57.667 -14.5 83
s-23.167 46.666 -40.5 63.999l-223 -319c29.333 -18.667 62 -28 98 -28z" />
    <glyph glyph-name="ugrave" unicode="&#xf9;" horiz-adv-x="530" 
d="M294 540h-51l-108 146h65zM394 478l60 -0.000976562v-478h-60v72c-15.333 -25.333 -35.833 -45.333 -61.5 -60s-55.5 -22 -89.5 -22c-56 0 -99 15.333 -129 46s-45 73.334 -45 128.001v314h60v-305c0 -44 11.333 -77.167 34 -99.5s54 -33.5 94 -33.5
s72.833 13.5 98.5 40.5s38.5 65.833 38.5 116.5v281z" />
    <glyph glyph-name="uacute" unicode="&#xfa;" horiz-adv-x="530" 
d="M390 686l-108 -146h-51l93 146h66zM394 478l60 -0.000976562v-478h-60v72c-15.333 -25.333 -35.833 -45.333 -61.5 -60s-55.5 -22 -89.5 -22c-56 0 -99 15.333 -129 46s-45 73.334 -45 128.001v314h60v-305c0 -44 11.333 -77.167 34 -99.5s54 -33.5 94 -33.5
s72.833 13.5 98.5 40.5s38.5 65.833 38.5 116.5v281z" />
    <glyph glyph-name="ucircumflex" unicode="&#xfb;" horiz-adv-x="530" 
d="M262 652l-82 -112h-48l96 146h68l96 -146h-48zM394 478l60 -0.000976562v-478h-60v72c-15.333 -25.333 -35.833 -45.333 -61.5 -60s-55.5 -22 -89.5 -22c-56 0 -99 15.333 -129 46s-45 73.334 -45 128.001v314h60v-305c0 -44 11.333 -77.167 34 -99.5s54 -33.5 94 -33.5
s72.833 13.5 98.5 40.5s38.5 65.833 38.5 116.5v281z" />
    <glyph glyph-name="udieresis" unicode="&#xfc;" horiz-adv-x="530" 
d="M181 611c-13.333 0 -24.5 4.5 -33.5 13.5s-13.5 19.833 -13.5 32.5c0 13.333 4.5 24.5 13.5 33.5s20.167 13.5 33.5 13.5c12.667 0 23.5 -4.5 32.5 -13.5s13.5 -20.167 13.5 -33.5c0 -12.667 -4.5 -23.5 -13.5 -32.5s-19.833 -13.5 -32.5 -13.5zM343 611
c-13.333 0 -24.5 4.5 -33.5 13.5s-13.5 19.833 -13.5 32.5c0 13.333 4.5 24.5 13.5 33.5s20.167 13.5 33.5 13.5c12.667 0 23.5 -4.5 32.5 -13.5s13.5 -20.167 13.5 -33.5c0 -12.667 -4.5 -23.5 -13.5 -32.5s-19.833 -13.5 -32.5 -13.5zM394 478l60 -0.000976562v-478h-60
v72c-15.333 -25.333 -35.833 -45.333 -61.5 -60s-55.5 -22 -89.5 -22c-56 0 -99 15.333 -129 46s-45 73.334 -45 128.001v314h60v-305c0 -44 11.333 -77.167 34 -99.5s54 -33.5 94 -33.5s72.833 13.5 98.5 40.5s38.5 65.833 38.5 116.5v281z" />
    <glyph glyph-name="yacute" unicode="&#xfd;" horiz-adv-x="513" 
d="M386 686l-108 -146h-51l93 146h66zM420 478h64l-300 -721h-65l107 252l-197 469h64l163 -408z" />
    <glyph glyph-name="thorn" unicode="&#xfe;" horiz-adv-x="604" 
d="M321 488c32.667 0 63 -5.99902 91 -17.999s52.167 -29 72.5 -51s36.333 -48.333 48 -79s17.5 -64.667 17.5 -102c0 -36.667 -5.83301 -70.334 -17.5 -101.001s-27.667 -57 -48 -79s-44.5 -39 -72.5 -51s-58.333 -18 -91 -18c-42 0 -79.5 10.167 -112.5 30.5
s-57.5 47.833 -73.5 82.5v-345h-60v993h60v-375c16 35.333 40.5 63 73.5 83s70.5 30 112.5 30zM312 41.001c26 0 50 4.83301 72 14.5s40.833 23.167 56.5 40.5s28 38.166 37 62.499s13.5 50.833 13.5 79.5c0 29.333 -4.5 56.333 -13.5 81s-21.333 45.667 -37 63
s-34.5 30.833 -56.5 40.5s-46 14.5 -72 14.5s-50 -4.83301 -72 -14.5s-40.833 -23.167 -56.5 -40.5s-28 -38.333 -37 -63s-13.5 -51.667 -13.5 -81c0 -28.667 4.5 -55.167 13.5 -79.5s21.333 -45.166 37 -62.499s34.5 -30.833 56.5 -40.5s46 -14.5 72 -14.5z" />
    <glyph glyph-name="ydieresis" unicode="&#xff;" horiz-adv-x="513" 
d="M177 611c-13.333 0 -24.5 4.5 -33.5 13.5s-13.5 19.833 -13.5 32.5c0 13.333 4.5 24.5 13.5 33.5s20.167 13.5 33.5 13.5c12.667 0 23.5 -4.5 32.5 -13.5s13.5 -20.167 13.5 -33.5c0 -12.667 -4.5 -23.5 -13.5 -32.5s-19.833 -13.5 -32.5 -13.5zM339 611
c-13.333 0 -24.5 4.5 -33.5 13.5s-13.5 19.833 -13.5 32.5c0 13.333 4.5 24.5 13.5 33.5s20.167 13.5 33.5 13.5c12.667 0 23.5 -4.5 32.5 -13.5s13.5 -20.167 13.5 -33.5c0 -12.667 -4.5 -23.5 -13.5 -32.5s-19.833 -13.5 -32.5 -13.5zM420 478h64l-300 -721h-65l107 252
l-197 469h64l163 -408z" />
    <glyph glyph-name="Amacron" unicode="&#x100;" horiz-adv-x="655" 
d="M486 809v-43h-315v43h315zM568 0l-68 177h-345l-68 -177h-65l266 686h79l266 -686h-65zM175 230h305l-152 395z" />
    <glyph glyph-name="amacron" unicode="&#x101;" horiz-adv-x="506" 
d="M362 626v-43h-225v43h225zM491 50l-0.000976562 -49.998h-32c-23.333 0 -41.5 5.66699 -54.5 17s-19.5 29.666 -19.5 54.999v28h-4c-15.333 -35.333 -38.5 -62.5 -69.5 -81.5s-68.5 -28.5 -112.5 -28.5c-42.667 0 -77.5 10.667 -104.5 32s-40.5 53 -40.5 95
c0 46 16 80.833 48 104.5s76 40.167 132 49.5l106 18c9.33301 1.33301 17.333 4.5 24 9.5s10 12.167 10 21.5c0 40 -10.833 70.333 -32.5 91s-52.167 31 -91.5 31c-76.667 0 -119.334 -35 -128.001 -105l-59 8c7.33301 48 26.833 83.833 58.5 107.5
s74.834 35.5 129.501 35.5c58.667 0 103.834 -14.833 135.501 -44.5s47.5 -72.834 47.5 -129.501v-214c0 -18.667 2.83301 -31.667 8.5 -39s16.167 -11 31.5 -11h17zM211.999 39.002c52 0 92.5 18.333 121.5 55s43.5 89.334 43.5 158.001l-139 -26
c-82.667 -12.667 -124 -47.334 -124 -104.001c0 -26.667 8.5 -47.167 25.5 -61.5s41.167 -21.5 72.5 -21.5z" />
    <glyph glyph-name="Abreve" unicode="&#x102;" horiz-adv-x="655" 
d="M327 723c-45.333 0 -82.167 9 -110.5 27s-45.166 48 -50.499 90h42c5.33301 -28.667 18 -49.167 38 -61.5s47 -18.5 81 -18.5s61.167 6.16699 81.5 18.5s33.166 32.833 38.499 61.5h42c-5.33301 -42 -22.333 -72 -51 -90s-65.667 -27 -111 -27zM567.999 0l-68 177h-345
l-68 -177h-65l266 686h79l266 -686h-65zM174.999 230h305l-152 395z" />
    <glyph glyph-name="abreve" unicode="&#x103;" horiz-adv-x="506" 
d="M249 530c-50.667 0 -90.666 13.167 -119.999 39.5s-44 65.166 -44 116.499h46c0 -37.333 10.167 -66.5 30.5 -87.5s49.5 -31.5 87.5 -31.5s67.333 10.333 88 31s31 50 31 88h46c0 -51.333 -14.833 -90.166 -44.5 -116.499s-69.834 -39.5 -120.501 -39.5zM491.001 50
l-0.000976562 -49.998h-32c-23.333 0 -41.5 5.66699 -54.5 17s-19.5 29.666 -19.5 54.999v28h-4c-15.333 -35.333 -38.5 -62.5 -69.5 -81.5s-68.5 -28.5 -112.5 -28.5c-42.667 0 -77.5 10.667 -104.5 32s-40.5 53 -40.5 95c0 46 16 80.833 48 104.5s76 40.167 132 49.5
l106 18c9.33301 1.33301 17.333 4.5 24 9.5s10 12.167 10 21.5c0 40 -10.833 70.333 -32.5 91s-52.167 31 -91.5 31c-76.667 0 -119.334 -35 -128.001 -105l-59 8c7.33301 48 26.833 83.833 58.5 107.5s74.834 35.5 129.501 35.5c58.667 0 103.834 -14.833 135.501 -44.5
s47.5 -72.834 47.5 -129.501v-214c0 -18.667 2.83301 -31.667 8.5 -39s16.167 -11 31.5 -11h17zM212 39.002c52 0 92.5 18.333 121.5 55s43.5 89.334 43.5 158.001l-139 -26c-82.667 -12.667 -124 -47.334 -124 -104.001c0 -26.667 8.5 -47.167 25.5 -61.5
s41.167 -21.5 72.5 -21.5z" />
    <glyph glyph-name="Aogonek" unicode="&#x104;" horiz-adv-x="655" 
d="M522 -126c0 -12.667 5.66797 -22.666 17.001 -29.999s26.666 -11 45.999 -11c16 0 32 3 48 9v-42c-18.667 -6 -38 -9 -58 -9c-28 0 -51 6 -69 18s-27 29 -27 51c0 23.333 10 47.5 30 72.5s45.333 47.5 76 67.5h-17l-68 177h-345l-68 -177h-65l266 686h79l266 -686
c-32 -16.667 -58.5 -36.834 -79.5 -60.501s-31.5 -45.5 -31.5 -65.5zM175.001 230.001h305l-152 395z" />
    <glyph glyph-name="aogonek" unicode="&#x105;" horiz-adv-x="506" 
d="M381 -126c0 -12.667 5.66602 -22.665 16.999 -29.998s26.666 -11 45.999 -11c16 0 32 3 48 9v-42c-18.667 -6 -38 -9 -58 -9c-28 0 -51 6 -69 18s-27 29 -27 51c0 23.333 10 47.5 30 72.5s45.667 47.833 77 68.5c-19.333 2 -34.166 8.66699 -44.499 20
s-15.5 28.333 -15.5 51v28h-4c-15.333 -35.333 -38.5 -62.5 -69.5 -81.5s-68.5 -28.5 -112.5 -28.5c-42.667 0 -77.5 10.667 -104.5 32s-40.5 53 -40.5 95c0 46 16 80.833 48 104.5s76 40.167 132 49.5l106 18c9.33301 1.33301 17.333 4.5 24 9.5s10 12.167 10 21.5
c0 40 -10.833 70.333 -32.5 91s-52.167 31 -91.5 31c-76.667 0 -119.334 -35 -128.001 -105l-59 8c7.33301 48 26.833 83.833 58.5 107.5s74.834 35.5 129.501 35.5c58.667 0 103.834 -14.833 135.501 -44.5s47.5 -72.834 47.5 -129.501v-214
c0 -18.667 2.83301 -31.667 8.5 -39s16.167 -11 31.5 -11h17v-49l1 -1c-32 -16.667 -58.5 -36.834 -79.5 -60.501s-31.5 -45.5 -31.5 -65.5zM211.999 39.002c52 0 92.5 18.333 121.5 55s43.5 89.334 43.5 158.001l-139 -26c-82.667 -12.667 -124 -47.334 -124 -104.001
c0 -26.667 8.5 -47.167 25.5 -61.5s41.167 -21.5 72.5 -21.5z" />
    <glyph glyph-name="Cacute" unicode="&#x106;" horiz-adv-x="736" 
d="M368 716l79 124h64l-92 -124h-51zM393 -11c-50 0 -96 8.66699 -138 26s-78 41.5 -108 72.5s-53.333 68.167 -70 111.5s-25 91.333 -25 144s8.33301 100.667 25 144s40 80.5 70 111.5s66 55.167 108 72.5s88 26 138 26c70 0 131.167 -16.167 183.5 -48.5
s92.166 -76.833 119.499 -133.5l-58 -22c-22 46 -54.167 82 -96.5 108s-91.833 39 -148.5 39c-41.333 0 -79.166 -7.16699 -113.499 -21.5s-63.666 -34.5 -87.999 -60.5s-43.333 -57.333 -57 -94s-20.5 -77 -20.5 -121s6.83301 -84.333 20.5 -121s32.667 -68 57 -94
s53.666 -46.167 87.999 -60.5s72.166 -21.5 113.499 -21.5c56.667 0 106.167 13 148.5 39s74.5 62 96.5 108l58 -22c-27.333 -56.667 -67.166 -101.167 -119.499 -133.5s-113.5 -48.5 -183.5 -48.5z" />
    <glyph glyph-name="cacute" unicode="&#x107;" horiz-adv-x="555" 
d="M257 540l93 146h66l-108 -146h-51zM291 -10c-34.667 0 -66.665 6.16309 -95.998 18.4961s-54.5 29.5 -75.5 51.5s-37.333 48.333 -49 79s-17.5 64.334 -17.5 101.001c0 36 5.83301 69.167 17.5 99.5s28 56.5 49 78.5s46.167 39.167 75.5 51.5s61.333 18.5 96 18.5
c53.333 0 99.166 -14 137.499 -42s64.5 -66.333 78.5 -115l-55 -7c-12 36 -32.167 64.167 -60.5 84.5s-62.166 30.5 -101.499 30.5c-26 0 -50 -5 -72 -15s-40.833 -23.667 -56.5 -41s-27.834 -38.166 -36.501 -62.499s-13 -51.166 -13 -80.499s4.33301 -56.166 13 -80.499
s20.834 -45.333 36.501 -63s34.5 -31.5 56.5 -41.5s46 -15 72 -15c39.333 0 73.166 10.167 101.499 30.5s48.5 48.5 60.5 84.5l55 -8c-14 -48.667 -40.333 -87 -79 -115s-84.334 -42 -137.001 -42z" />
    <glyph glyph-name="Cdotaccent" unicode="&#x10a;" horiz-adv-x="736" 
d="M394 739c-13.333 0 -24.5 4.5 -33.5 13.5s-13.5 20.167 -13.5 33.5s4.5 24.333 13.5 33s20.167 13 33.5 13c12.667 0 23.5 -4.33301 32.5 -13s13.5 -19.667 13.5 -33s-4.5 -24.5 -13.5 -33.5s-19.833 -13.5 -32.5 -13.5zM393 -11c-50 0 -96 8.66699 -138 26
s-78 41.5 -108 72.5s-53.333 68.167 -70 111.5s-25 91.333 -25 144s8.33301 100.667 25 144s40 80.5 70 111.5s66 55.167 108 72.5s88 26 138 26c70 0 131.167 -16.167 183.5 -48.5s92.166 -76.833 119.499 -133.5l-58 -22c-22 46 -54.167 82 -96.5 108
s-91.833 39 -148.5 39c-41.333 0 -79.166 -7.16699 -113.499 -21.5s-63.666 -34.5 -87.999 -60.5s-43.333 -57.333 -57 -94s-20.5 -77 -20.5 -121s6.83301 -84.333 20.5 -121s32.667 -68 57 -94s53.666 -46.167 87.999 -60.5s72.166 -21.5 113.499 -21.5
c56.667 0 106.167 13 148.5 39s74.5 62 96.5 108l58 -22c-27.333 -56.667 -67.166 -101.167 -119.499 -133.5s-113.5 -48.5 -183.5 -48.5z" />
    <glyph glyph-name="cdotaccent" unicode="&#x10b;" horiz-adv-x="555" 
d="M289 611c-13.333 0 -24.5 4.5 -33.5 13.5s-13.5 19.833 -13.5 32.5c0 13.333 4.5 24.5 13.5 33.5s20.167 13.5 33.5 13.5c12.667 0 23.5 -4.5 32.5 -13.5s13.5 -20.167 13.5 -33.5c0 -12.667 -4.5 -23.5 -13.5 -32.5s-19.833 -13.5 -32.5 -13.5zM291 -10
c-34.667 0 -66.665 6.16309 -95.998 18.4961s-54.5 29.5 -75.5 51.5s-37.333 48.333 -49 79s-17.5 64.334 -17.5 101.001c0 36 5.83301 69.167 17.5 99.5s28 56.5 49 78.5s46.167 39.167 75.5 51.5s61.333 18.5 96 18.5c53.333 0 99.166 -14 137.499 -42
s64.5 -66.333 78.5 -115l-55 -7c-12 36 -32.167 64.167 -60.5 84.5s-62.166 30.5 -101.499 30.5c-26 0 -50 -5 -72 -15s-40.833 -23.667 -56.5 -41s-27.834 -38.166 -36.501 -62.499s-13 -51.166 -13 -80.499s4.33301 -56.166 13 -80.499s20.834 -45.333 36.501 -63
s34.5 -31.5 56.5 -41.5s46 -15 72 -15c39.333 0 73.166 10.167 101.499 30.5s48.5 48.5 60.5 84.5l55 -8c-14 -48.667 -40.333 -87 -79 -115s-84.334 -42 -137.001 -42z" />
    <glyph glyph-name="Ccaron" unicode="&#x10c;" horiz-adv-x="736" 
d="M355 731l-96 109h48l86 -82l85 82h49l-97 -109h-75zM393 -11c-50 0 -96 8.66699 -138 26s-78 41.5 -108 72.5s-53.333 68.167 -70 111.5s-25 91.333 -25 144s8.33301 100.667 25 144s40 80.5 70 111.5s66 55.167 108 72.5s88 26 138 26c70 0 131.167 -16.167 183.5 -48.5
s92.166 -76.833 119.499 -133.5l-58 -22c-22 46 -54.167 82 -96.5 108s-91.833 39 -148.5 39c-41.333 0 -79.166 -7.16699 -113.499 -21.5s-63.666 -34.5 -87.999 -60.5s-43.333 -57.333 -57 -94s-20.5 -77 -20.5 -121s6.83301 -84.333 20.5 -121s32.667 -68 57 -94
s53.666 -46.167 87.999 -60.5s72.166 -21.5 113.499 -21.5c56.667 0 106.167 13 148.5 39s74.5 62 96.5 108l58 -22c-27.333 -56.667 -67.166 -101.167 -119.499 -133.5s-113.5 -48.5 -183.5 -48.5z" />
    <glyph glyph-name="ccaron" unicode="&#x10d;" horiz-adv-x="555" 
d="M254 540l-96 146h48l82 -113l82 113h48l-96 -146h-68zM291 -10c-34.667 0 -66.665 6.16309 -95.998 18.4961s-54.5 29.5 -75.5 51.5s-37.333 48.333 -49 79s-17.5 64.334 -17.5 101.001c0 36 5.83301 69.167 17.5 99.5s28 56.5 49 78.5s46.167 39.167 75.5 51.5
s61.333 18.5 96 18.5c53.333 0 99.166 -14 137.499 -42s64.5 -66.333 78.5 -115l-55 -7c-12 36 -32.167 64.167 -60.5 84.5s-62.166 30.5 -101.499 30.5c-26 0 -50 -5 -72 -15s-40.833 -23.667 -56.5 -41s-27.834 -38.166 -36.501 -62.499s-13 -51.166 -13 -80.499
s4.33301 -56.166 13 -80.499s20.834 -45.333 36.501 -63s34.5 -31.5 56.5 -41.5s46 -15 72 -15c39.333 0 73.166 10.167 101.499 30.5s48.5 48.5 60.5 84.5l55 -8c-14 -48.667 -40.333 -87 -79 -115s-84.334 -42 -137.001 -42z" />
    <glyph glyph-name="Dcaron" unicode="&#x10e;" horiz-adv-x="671" 
d="M228 731l-96 109h48l86 -82l85 82h49l-97 -109h-75zM82 0v686h164c60.667 0 112.167 -5.83301 154.5 -17.5s78.166 -29.167 107.499 -52.5c72.667 -56.667 109 -147.667 109 -273s-36.333 -216.333 -109 -273c-29.333 -23.333 -65.166 -40.833 -107.499 -52.5
s-93.833 -17.5 -154.5 -17.5h-164zM143 56h103c98.667 0 172 19.667 220 59c59.333 45.333 89 121.333 89 228s-29.667 182.667 -89 228c-48 39.333 -121.333 59 -220 59h-103v-574z" />
    <glyph glyph-name="dcaron" unicode="&#x10f;" horiz-adv-x="739" 
d="M469 750h59v-750h-57l-1 106c-16 -36 -40.5 -64.333 -73.5 -85s-71.167 -31 -114.5 -31c-32.667 0 -63 6 -91 18s-52.167 28.833 -72.5 50.5s-36.333 47.834 -48 78.501s-17.5 64.667 -17.5 102s5.83301 71.166 17.5 101.499s27.667 56.5 48 78.5s44.5 39 72.5 51
s58.333 18 91 18c43.333 0 81.333 -10.167 114 -30.5s57 -48.5 73 -84.5v377zM679 686h60l-73 -302h-47zM292 42c26 0 49.833 4.83301 71.5 14.5s40.5 23.167 56.5 40.5s28.5 38 37.5 62s13.5 50.667 13.5 80s-4.5 56.166 -13.5 80.499s-21.5 45.166 -37.5 62.499
s-34.833 30.833 -56.5 40.5s-45.5 14.5 -71.5 14.5s-50 -4.83301 -72 -14.5s-41 -23.167 -57 -40.5s-28.5 -38.166 -37.5 -62.499s-13.5 -51.166 -13.5 -80.499s4.5 -56 13.5 -80s21.5 -44.667 37.5 -62s35 -30.833 57 -40.5s46 -14.5 72 -14.5z" />
    <glyph glyph-name="Dcroat" unicode="&#x110;" horiz-adv-x="671" 
d="M508 616c72.667 -56.667 109 -147.667 109 -273s-36.333 -216.333 -109 -273c-29.333 -23.333 -65.166 -40.833 -107.499 -52.5s-93.833 -17.5 -154.5 -17.5h-164v323h-80v42h80v321h164c60.667 0 112.167 -5.83301 154.5 -17.5s78.166 -29.167 107.499 -52.5zM466 115
c59.333 45.333 89 121.333 89 228s-29.667 182.667 -89 228c-48 39.333 -121.333 59 -220 59h-103v-265h151v-42h-151v-267h103c98.667 0 172 19.667 220 59z" />
    <glyph glyph-name="dcroat" unicode="&#x111;" horiz-adv-x="604" 
d="M613 629v-42h-85v-587h-59v105c-16 -36 -40.333 -64.167 -73 -84.5s-70.667 -30.5 -114 -30.5c-32.667 0 -63 6 -91 18s-52.167 28.833 -72.5 50.5s-36.333 47.834 -48 78.501s-17.5 64.667 -17.5 102s5.83301 71.166 17.5 101.499s27.667 56.5 48 78.5s44.5 39 72.5 51
s58.333 18 91 18c43.333 0 81.333 -10.167 114 -30.5s57 -48.5 73 -84.5v214h-148v42h148v121h59v-121h85zM292 42c26 0 49.833 4.83301 71.5 14.5s40.5 23.167 56.5 40.5s28.5 38 37.5 62s13.5 50.667 13.5 80s-4.5 56.166 -13.5 80.499s-21.5 45.166 -37.5 62.499
s-34.833 30.833 -56.5 40.5s-45.5 14.5 -71.5 14.5s-50 -4.83301 -72 -14.5s-41 -23.167 -57 -40.5s-28.5 -38.166 -37.5 -62.499s-13.5 -51.166 -13.5 -80.499s4.5 -56 13.5 -80s21.5 -44.667 37.5 -62s35 -30.833 57 -40.5s46 -14.5 72 -14.5z" />
    <glyph glyph-name="Emacron" unicode="&#x112;" horiz-adv-x="490" 
d="M430 809v-43h-315v43h315zM448 630h-304v-260h270v-55h-270v-259h304v-56h-365v686h365v-56z" />
    <glyph glyph-name="emacron" unicode="&#x113;" horiz-adv-x="572" 
d="M400 626v-43h-225v43h225zM521 227l-409.002 -0.000976562c1.33301 -28 6.5 -53.5 15.5 -76.5s21.5 -42.667 37.5 -59s34.667 -29 56 -38s44.333 -13.5 69 -13.5c36 0 67.5 8.66699 94.5 26s47.833 41.666 62.5 72.999l55 -11
c-17.333 -43.333 -44.666 -77.166 -81.999 -101.499s-80.333 -36.5 -129 -36.5c-35.333 0 -67.5 6 -96.5 18s-54 29 -75 51s-37.333 48.333 -49 79s-17.5 64.334 -17.5 101.001c0 37.333 5.83301 71.166 17.5 101.499s28 56.5 49 78.5s45.833 39 74.5 51
s60.334 18 95.001 18c33.333 0 64.166 -5.83301 92.499 -17.5s52.833 -28.167 73.5 -49.5s36.834 -47.166 48.501 -77.499s17.5 -64.5 17.5 -102.5v-14zM288.998 438.999c-48 0 -88 -14.501 -120 -43.501s-50.667 -69.5 -56 -121.5h348
c-4 50.667 -21.833 90.834 -53.5 120.501s-71.167 44.5 -118.5 44.5z" />
    <glyph glyph-name="Ebreve" unicode="&#x114;" horiz-adv-x="490" 
d="M271 723c-45.333 0 -82.167 9 -110.5 27s-45.166 48 -50.499 90h42c5.33301 -28.667 18 -49.167 38 -61.5s47 -18.5 81 -18.5s61.167 6.16699 81.5 18.5s33.166 32.833 38.499 61.5h42c-5.33301 -42 -22.333 -72 -51 -90s-65.667 -27 -111 -27zM447.999 630h-304v-260
h270v-55h-270v-259h304v-56h-365v686h365v-56z" />
    <glyph glyph-name="ebreve" unicode="&#x115;" horiz-adv-x="572" 
d="M287 530c-50.667 0 -90.666 13.167 -119.999 39.5s-44 65.166 -44 116.499h46c0 -37.333 10.167 -66.5 30.5 -87.5s49.5 -31.5 87.5 -31.5s67.333 10.333 88 31s31 50 31 88h46c0 -51.333 -14.833 -90.166 -44.5 -116.499s-69.834 -39.5 -120.501 -39.5zM521.001 227
l-409.002 -0.000976562c1.33301 -28 6.5 -53.5 15.5 -76.5s21.5 -42.667 37.5 -59s34.667 -29 56 -38s44.333 -13.5 69 -13.5c36 0 67.5 8.66699 94.5 26s47.833 41.666 62.5 72.999l55 -11c-17.333 -43.333 -44.666 -77.166 -81.999 -101.499s-80.333 -36.5 -129 -36.5
c-35.333 0 -67.5 6 -96.5 18s-54 29 -75 51s-37.333 48.333 -49 79s-17.5 64.334 -17.5 101.001c0 37.333 5.83301 71.166 17.5 101.499s28 56.5 49 78.5s45.833 39 74.5 51s60.334 18 95.001 18c33.333 0 64.166 -5.83301 92.499 -17.5s52.833 -28.167 73.5 -49.5
s36.834 -47.166 48.501 -77.499s17.5 -64.5 17.5 -102.5v-14zM288.999 438.999c-48 0 -88 -14.501 -120 -43.501s-50.667 -69.5 -56 -121.5h348c-4 50.667 -21.833 90.834 -53.5 120.501s-71.167 44.5 -118.5 44.5z" />
    <glyph glyph-name="Edotaccent" unicode="&#x116;" horiz-adv-x="490" 
d="M273 739c-13.333 0 -24.5 4.5 -33.5 13.5s-13.5 20.167 -13.5 33.5s4.5 24.333 13.5 33s20.167 13 33.5 13c12.667 0 23.5 -4.33301 32.5 -13s13.5 -19.667 13.5 -33s-4.5 -24.5 -13.5 -33.5s-19.833 -13.5 -32.5 -13.5zM448 630h-304v-260h270v-55h-270v-259h304v-56
h-365v686h365v-56z" />
    <glyph glyph-name="edotaccent" unicode="&#x117;" horiz-adv-x="572" 
d="M288 611c-13.333 0 -24.5 4.5 -33.5 13.5s-13.5 19.833 -13.5 32.5c0 13.333 4.5 24.5 13.5 33.5s20.167 13.5 33.5 13.5c12.667 0 23.5 -4.5 32.5 -13.5s13.5 -20.167 13.5 -33.5c0 -12.667 -4.5 -23.5 -13.5 -32.5s-19.833 -13.5 -32.5 -13.5zM521 227
l-409.002 -0.000976562c1.33301 -28 6.5 -53.5 15.5 -76.5s21.5 -42.667 37.5 -59s34.667 -29 56 -38s44.333 -13.5 69 -13.5c36 0 67.5 8.66699 94.5 26s47.833 41.666 62.5 72.999l55 -11c-17.333 -43.333 -44.666 -77.166 -81.999 -101.499s-80.333 -36.5 -129 -36.5
c-35.333 0 -67.5 6 -96.5 18s-54 29 -75 51s-37.333 48.333 -49 79s-17.5 64.334 -17.5 101.001c0 37.333 5.83301 71.166 17.5 101.499s28 56.5 49 78.5s45.833 39 74.5 51s60.334 18 95.001 18c33.333 0 64.166 -5.83301 92.499 -17.5s52.833 -28.167 73.5 -49.5
s36.834 -47.166 48.501 -77.499s17.5 -64.5 17.5 -102.5v-14zM288.998 438.999c-48 0 -88 -14.501 -120 -43.501s-50.667 -69.5 -56 -121.5h348c-4 50.667 -21.833 90.834 -53.5 120.501s-71.167 44.5 -118.5 44.5z" />
    <glyph glyph-name="Eogonek" unicode="&#x118;" horiz-adv-x="490" 
d="M448 630l-303.999 0.000976562v-260h270v-55h-270v-259h304v-56c-32 -16.667 -58.5 -36.834 -79.5 -60.501s-31.5 -45.5 -31.5 -65.5c0 -12.667 5.66699 -22.667 17 -30s26.666 -11 45.999 -11c16 0 32 3 48 9v-42c-18.667 -6 -38 -9 -58 -9c-28 0 -51 6 -69 18
s-27 29 -27 51c0 23.333 10 47.5 30 72.5s45.333 47.5 76 67.5h-317v686h365v-56z" />
    <glyph glyph-name="eogonek" unicode="&#x119;" horiz-adv-x="572" 
d="M521 227l-409.001 -0.000976562c1.33301 -28 6.5 -53.5 15.5 -76.5s21.5 -42.667 37.5 -59s34.667 -29 56 -38s44.333 -13.5 69 -13.5c36 0 67.5 8.66699 94.5 26s47.833 41.666 62.5 72.999l55 -11c-13.333 -32 -32.166 -59.167 -56.499 -81.5
s-52.833 -38.166 -85.5 -47.499c-32 -16.667 -58.333 -36.667 -79 -60s-31 -45 -31 -65c0 -12.667 5.66699 -22.667 17 -30s26.666 -11 45.999 -11c16 0 32 3 48 9v-42c-18.667 -6 -38 -9 -58 -9c-28 0 -51 6 -69 18s-27 29 -27 51c0 21.333 8.5 43.5 25.5 66.5
s39.167 44.167 66.5 63.5h-8c-35.333 0 -67.5 6 -96.5 18s-54 29 -75 51s-37.333 48.333 -49 79s-17.5 64.334 -17.5 101.001c0 37.333 5.83301 71.166 17.5 101.499s28 56.5 49 78.5s45.833 39 74.5 51s60.334 18 95.001 18c33.333 0 64.166 -5.83301 92.499 -17.5
s52.833 -28.167 73.5 -49.5s36.834 -47.166 48.501 -77.499s17.5 -64.5 17.5 -102.5v-14zM288.999 438.999c-48 0 -88 -14.501 -120 -43.501s-50.667 -69.5 -56 -121.5h348c-4 50.667 -21.833 90.834 -53.5 120.501s-71.167 44.5 -118.5 44.5z" />
    <glyph glyph-name="Ecaron" unicode="&#x11a;" horiz-adv-x="490" 
d="M309 731h-75l-96 109h48l86 -82l85 82h49zM448 630h-304v-260h270v-55h-270v-259h304v-56h-365v686h365v-56z" />
    <glyph glyph-name="ecaron" unicode="&#x11b;" horiz-adv-x="572" 
d="M321 540h-68l-96 146h48l82 -113l82 113h48zM521 227l-409.002 -0.000976562c1.33301 -28 6.5 -53.5 15.5 -76.5s21.5 -42.667 37.5 -59s34.667 -29 56 -38s44.333 -13.5 69 -13.5c36 0 67.5 8.66699 94.5 26s47.833 41.666 62.5 72.999l55 -11
c-17.333 -43.333 -44.666 -77.166 -81.999 -101.499s-80.333 -36.5 -129 -36.5c-35.333 0 -67.5 6 -96.5 18s-54 29 -75 51s-37.333 48.333 -49 79s-17.5 64.334 -17.5 101.001c0 37.333 5.83301 71.166 17.5 101.499s28 56.5 49 78.5s45.833 39 74.5 51
s60.334 18 95.001 18c33.333 0 64.166 -5.83301 92.499 -17.5s52.833 -28.167 73.5 -49.5s36.834 -47.166 48.501 -77.499s17.5 -64.5 17.5 -102.5v-14zM288.998 438.999c-48 0 -88 -14.501 -120 -43.501s-50.667 -69.5 -56 -121.5h348
c-4 50.667 -21.833 90.834 -53.5 120.501s-71.167 44.5 -118.5 44.5z" />
    <glyph glyph-name="Gcircumflex" unicode="&#x11c;" horiz-adv-x="775" 
d="M255 731l96 109h75l97 -109h-49l-85 82l-86 -82h-48zM390 -11c-50 0 -95.668 8.66602 -137.001 25.999s-76.833 41.5 -106.5 72.5s-52.834 68.167 -69.501 111.5s-25 91.333 -25 144s8.33301 100.667 25 144s40 80.5 70 111.5s66 55.167 108 72.5s88 26 138 26
c66.667 0 125.334 -14.5 176.001 -43.5s90.334 -69.5 119.001 -121.5l-54 -29c-23.333 42.667 -55.833 76.167 -97.5 100.5s-89.5 36.5 -143.5 36.5c-41.333 0 -79.166 -7.16699 -113.499 -21.5s-63.666 -34.5 -87.999 -60.5s-43.333 -57.333 -57 -94s-20.5 -77 -20.5 -121
s6.66699 -84.333 20 -121s32.166 -68 56.499 -94s53.666 -46.167 87.999 -60.5s72.5 -21.5 114.5 -21.5c37.333 0 71 5.83301 101 17.5s56 28.334 78 50.001s39.667 48 53 79s22 65.5 26 103.5h-256v52h316v-348h-51v168c-21.333 -54.667 -54.5 -98.167 -99.5 -130.5
s-101.833 -48.5 -170.5 -48.5z" />
    <glyph glyph-name="gcircumflex" unicode="&#x11d;" horiz-adv-x="599" 
d="M293 652l-82 -112h-48l96 146h68l96 -146h-48zM464 478l58.999 -0.00195312v-479c0 -81.333 -20.667 -143.166 -62 -185.499s-97.666 -63.5 -168.999 -63.5c-58 0 -105.833 13.5 -143.5 40.5s-65.167 62.833 -82.5 107.5l50 23c14.667 -38 36.667 -67.833 66 -89.5
s65.333 -32.5 108 -32.5c56.667 0 99.834 17.333 129.501 52s44.5 83 44.5 145v118c-15.333 -35.333 -39.333 -63.666 -72 -84.999s-71 -32 -115 -32c-32 0 -61.667 6 -89 18s-51 29 -71 51s-35.667 48.167 -47 78.5s-17 63.5 -17 99.5s5.66699 69 17 99s27 55.667 47 77
s43.833 38 71.5 50s57.5 18 89.5 18c44 0 82.167 -10.667 114.5 -32s56.166 -49.333 71.499 -84v106zM287.999 47.998c26 0 49.833 4.83301 71.5 14.5s40.5 23.167 56.5 40.5s28.333 38 37 62s13 50.333 13 79c0 28 -4.33301 54 -13 78s-21 44.5 -37 61.5
s-34.833 30.333 -56.5 40s-45.5 14.5 -71.5 14.5s-49.833 -4.83301 -71.5 -14.5s-40.334 -23 -56.001 -40s-28 -37.5 -37 -61.5s-13.5 -50 -13.5 -78c0 -28.667 4.5 -55 13.5 -79s21.333 -44.667 37 -62s34.334 -30.833 56.001 -40.5s45.5 -14.5 71.5 -14.5z" />
    <glyph glyph-name="Gbreve" unicode="&#x11e;" horiz-adv-x="775" 
d="M389 723c-45.333 0 -82.167 9 -110.5 27s-45.166 48 -50.499 90h42c5.33301 -28.667 18 -49.167 38 -61.5s47 -18.5 81 -18.5s61.167 6.16699 81.5 18.5s33.166 32.833 38.499 61.5h42c-5.33301 -42 -22.333 -72 -51 -90s-65.667 -27 -111 -27zM389.999 -11
c-50 0 -95.668 8.66602 -137.001 25.999s-76.833 41.5 -106.5 72.5s-52.834 68.167 -69.501 111.5s-25 91.333 -25 144s8.33301 100.667 25 144s40 80.5 70 111.5s66 55.167 108 72.5s88 26 138 26c66.667 0 125.334 -14.5 176.001 -43.5s90.334 -69.5 119.001 -121.5
l-54 -29c-23.333 42.667 -55.833 76.167 -97.5 100.5s-89.5 36.5 -143.5 36.5c-41.333 0 -79.166 -7.16699 -113.499 -21.5s-63.666 -34.5 -87.999 -60.5s-43.333 -57.333 -57 -94s-20.5 -77 -20.5 -121s6.66699 -84.333 20 -121s32.166 -68 56.499 -94
s53.666 -46.167 87.999 -60.5s72.5 -21.5 114.5 -21.5c37.333 0 71 5.83301 101 17.5s56 28.334 78 50.001s39.667 48 53 79s22 65.5 26 103.5h-256v52h316v-348h-51v168c-21.333 -54.667 -54.5 -98.167 -99.5 -130.5s-101.833 -48.5 -170.5 -48.5z" />
    <glyph glyph-name="gbreve" unicode="&#x11f;" horiz-adv-x="599" 
d="M293 530c-50.667 0 -90.666 13.167 -119.999 39.5s-44 65.166 -44 116.499h46c0 -37.333 10.167 -66.5 30.5 -87.5s49.5 -31.5 87.5 -31.5s67.333 10.333 88 31s31 50 31 88h46c0 -51.333 -14.833 -90.166 -44.5 -116.499s-69.834 -39.5 -120.501 -39.5zM464.001 478
l58.999 -0.00195312v-479c0 -81.333 -20.667 -143.166 -62 -185.499s-97.666 -63.5 -168.999 -63.5c-58 0 -105.833 13.5 -143.5 40.5s-65.167 62.833 -82.5 107.5l50 23c14.667 -38 36.667 -67.833 66 -89.5s65.333 -32.5 108 -32.5c56.667 0 99.834 17.333 129.501 52
s44.5 83 44.5 145v118c-15.333 -35.333 -39.333 -63.666 -72 -84.999s-71 -32 -115 -32c-32 0 -61.667 6 -89 18s-51 29 -71 51s-35.667 48.167 -47 78.5s-17 63.5 -17 99.5s5.66699 69 17 99s27 55.667 47 77s43.833 38 71.5 50s57.5 18 89.5 18
c44 0 82.167 -10.667 114.5 -32s56.166 -49.333 71.499 -84v106zM288 47.998c26 0 49.833 4.83301 71.5 14.5s40.5 23.167 56.5 40.5s28.333 38 37 62s13 50.333 13 79c0 28 -4.33301 54 -13 78s-21 44.5 -37 61.5s-34.833 30.333 -56.5 40s-45.5 14.5 -71.5 14.5
s-49.833 -4.83301 -71.5 -14.5s-40.334 -23 -56.001 -40s-28 -37.5 -37 -61.5s-13.5 -50 -13.5 -78c0 -28.667 4.5 -55 13.5 -79s21.333 -44.667 37 -62s34.334 -30.833 56.001 -40.5s45.5 -14.5 71.5 -14.5z" />
    <glyph glyph-name="Gdotaccent" unicode="&#x120;" horiz-adv-x="775" 
d="M390 739c-13.333 0 -24.5 4.5 -33.5 13.5s-13.5 20.167 -13.5 33.5s4.5 24.333 13.5 33s20.167 13 33.5 13c12.667 0 23.5 -4.33301 32.5 -13s13.5 -19.667 13.5 -33s-4.5 -24.5 -13.5 -33.5s-19.833 -13.5 -32.5 -13.5zM390 -11c-50 0 -95.668 8.66602 -137.001 25.999
s-76.833 41.5 -106.5 72.5s-52.834 68.167 -69.501 111.5s-25 91.333 -25 144s8.33301 100.667 25 144s40 80.5 70 111.5s66 55.167 108 72.5s88 26 138 26c66.667 0 125.334 -14.5 176.001 -43.5s90.334 -69.5 119.001 -121.5l-54 -29
c-23.333 42.667 -55.833 76.167 -97.5 100.5s-89.5 36.5 -143.5 36.5c-41.333 0 -79.166 -7.16699 -113.499 -21.5s-63.666 -34.5 -87.999 -60.5s-43.333 -57.333 -57 -94s-20.5 -77 -20.5 -121s6.66699 -84.333 20 -121s32.166 -68 56.499 -94s53.666 -46.167 87.999 -60.5
s72.5 -21.5 114.5 -21.5c37.333 0 71 5.83301 101 17.5s56 28.334 78 50.001s39.667 48 53 79s22 65.5 26 103.5h-256v52h316v-348h-51v168c-21.333 -54.667 -54.5 -98.167 -99.5 -130.5s-101.833 -48.5 -170.5 -48.5z" />
    <glyph glyph-name="gdotaccent" unicode="&#x121;" horiz-adv-x="599" 
d="M294 611c-13.333 0 -24.5 4.5 -33.5 13.5s-13.5 19.833 -13.5 32.5c0 13.333 4.5 24.5 13.5 33.5s20.167 13.5 33.5 13.5c12.667 0 23.5 -4.5 32.5 -13.5s13.5 -20.167 13.5 -33.5c0 -12.667 -4.5 -23.5 -13.5 -32.5s-19.833 -13.5 -32.5 -13.5zM464 478
l58.999 -0.00195312v-479c0 -81.333 -20.667 -143.166 -62 -185.499s-97.666 -63.5 -168.999 -63.5c-58 0 -105.833 13.5 -143.5 40.5s-65.167 62.833 -82.5 107.5l50 23c14.667 -38 36.667 -67.833 66 -89.5s65.333 -32.5 108 -32.5c56.667 0 99.834 17.333 129.501 52
s44.5 83 44.5 145v118c-15.333 -35.333 -39.333 -63.666 -72 -84.999s-71 -32 -115 -32c-32 0 -61.667 6 -89 18s-51 29 -71 51s-35.667 48.167 -47 78.5s-17 63.5 -17 99.5s5.66699 69 17 99s27 55.667 47 77s43.833 38 71.5 50s57.5 18 89.5 18
c44 0 82.167 -10.667 114.5 -32s56.166 -49.333 71.499 -84v106zM287.999 47.998c26 0 49.833 4.83301 71.5 14.5s40.5 23.167 56.5 40.5s28.333 38 37 62s13 50.333 13 79c0 28 -4.33301 54 -13 78s-21 44.5 -37 61.5s-34.833 30.333 -56.5 40s-45.5 14.5 -71.5 14.5
s-49.833 -4.83301 -71.5 -14.5s-40.334 -23 -56.001 -40s-28 -37.5 -37 -61.5s-13.5 -50 -13.5 -78c0 -28.667 4.5 -55 13.5 -79s21.333 -44.667 37 -62s34.334 -30.833 56.001 -40.5s45.5 -14.5 71.5 -14.5z" />
    <glyph glyph-name="uni0122" unicode="&#x122;" horiz-adv-x="775" 
d="M390 -11c-50 0 -95.668 8.66602 -137.001 25.999s-76.833 41.5 -106.5 72.5s-52.834 68.167 -69.501 111.5s-25 91.333 -25 144s8.33301 100.667 25 144s40 80.5 70 111.5s66 55.167 108 72.5s88 26 138 26c66.667 0 125.334 -14.5 176.001 -43.5
s90.334 -69.5 119.001 -121.5l-54 -29c-23.333 42.667 -55.833 76.167 -97.5 100.5s-89.5 36.5 -143.5 36.5c-41.333 0 -79.166 -7.16699 -113.499 -21.5s-63.666 -34.5 -87.999 -60.5s-43.333 -57.333 -57 -94s-20.5 -77 -20.5 -121s6.66699 -84.333 20 -121
s32.166 -68 56.499 -94s53.666 -46.167 87.999 -60.5s72.5 -21.5 114.5 -21.5c37.333 0 71 5.83301 101 17.5s56 28.334 78 50.001s39.667 48 53 79s22 65.5 26 103.5h-256v52h316v-348h-51v168c-21.333 -54.667 -54.5 -98.167 -99.5 -130.5s-101.833 -48.5 -170.5 -48.5z
M264.999 -176.001l96 146h55l-108 -146h-43z" />
    <glyph glyph-name="uni0123" unicode="&#x123;" horiz-adv-x="599" 
d="M417 686l-96 -146h-55l108 146h43zM464 478l58.999 -0.00195312v-479c0 -81.333 -20.667 -143.166 -62 -185.499s-97.666 -63.5 -168.999 -63.5c-58 0 -105.833 13.5 -143.5 40.5s-65.167 62.833 -82.5 107.5l50 23c14.667 -38 36.667 -67.833 66 -89.5
s65.333 -32.5 108 -32.5c56.667 0 99.834 17.333 129.501 52s44.5 83 44.5 145v118c-15.333 -35.333 -39.333 -63.666 -72 -84.999s-71 -32 -115 -32c-32 0 -61.667 6 -89 18s-51 29 -71 51s-35.667 48.167 -47 78.5s-17 63.5 -17 99.5s5.66699 69 17 99s27 55.667 47 77
s43.833 38 71.5 50s57.5 18 89.5 18c44 0 82.167 -10.667 114.5 -32s56.166 -49.333 71.499 -84v106zM287.999 47.998c26 0 49.833 4.83301 71.5 14.5s40.5 23.167 56.5 40.5s28.333 38 37 62s13 50.333 13 79c0 28 -4.33301 54 -13 78s-21 44.5 -37 61.5
s-34.833 30.333 -56.5 40s-45.5 14.5 -71.5 14.5s-49.833 -4.83301 -71.5 -14.5s-40.334 -23 -56.001 -40s-28 -37.5 -37 -61.5s-13.5 -50 -13.5 -78c0 -28.667 4.5 -55 13.5 -79s21.333 -44.667 37 -62s34.334 -30.833 56.001 -40.5s45.5 -14.5 71.5 -14.5z" />
    <glyph glyph-name="Hcircumflex" unicode="&#x124;" horiz-adv-x="682" 
d="M208 731l96 109h75l97 -109h-49l-85 82l-86 -82h-48zM83 0v686h61v-315h395v315h61v-686h-61v316h-395v-316h-61z" />
    <glyph glyph-name="hcircumflex" unicode="&#x125;" horiz-adv-x="530" 
d="M266 877l-86 -82h-48l96 109h75l97 -109h-49zM289 488c54 0 95.834 -15.333 125.501 -46s44.5 -75 44.5 -133v-309h-59v302c0 45.333 -11.333 79.333 -34 102s-54.334 34 -95.001 34c-39.333 0 -71.833 -13.333 -97.5 -40s-38.5 -65.667 -38.5 -117v-281h-60v750h60v-345
c15.333 26 36 46.333 62 61s56.667 22 92 22z" />
    <glyph glyph-name="Hbar" unicode="&#x126;" horiz-adv-x="682" 
d="M669 551v-32h-69v-519h-61v316h-395v-316h-61v519h-70v32h70v135h61v-135h395v135h61v-135h69zM539 371v148h-395v-148h395z" />
    <glyph glyph-name="hbar" unicode="&#x127;" horiz-adv-x="530" 
d="M289 488c54 0 95.834 -15.333 125.501 -46s44.5 -75 44.5 -133v-309h-59v302c0 45.333 -11.333 79.333 -34 102s-54.334 34 -95.001 34c-39.333 0 -71.833 -13.333 -97.5 -40s-38.5 -65.667 -38.5 -117v-281h-60v588h-66v42h66v120h60v-120h166v-42h-166v-183
c15.333 26 36 46.333 62 61s56.667 22 92 22z" />
    <glyph glyph-name="Itilde" unicode="&#x128;" horiz-adv-x="227" 
d="M184 716c-23.333 0 -40.998 5.33203 -52.998 15.999s-22.333 21.667 -31 33c-8 10.667 -16.167 19.667 -24.5 27s-20.166 11 -35.499 11c-17.333 0 -31 -7.16699 -41 -21.5s-15 -33.166 -15 -56.499h-36c0 34 8.66699 62 26 84s40 33 68 33
c23.333 0 41.166 -5.5 53.499 -16.5s23.166 -22.167 32.499 -33.5c7.33301 -10 15.166 -18.833 23.499 -26.5s20.166 -11.5 35.499 -11.5c16.667 0 29.834 7.33301 39.501 22s14.5 33.667 14.5 57h36c0 -34 -8.5 -62 -25.5 -84s-39.5 -33 -67.5 -33zM83.002 -0.000976562
v686h61v-686h-61z" />
    <glyph glyph-name="itilde" unicode="&#x129;" horiz-adv-x="209" 
d="M175 538c-23.333 0 -40.998 5.33203 -52.998 15.999s-22.333 21.667 -31 33c-8 10.667 -16.167 19.667 -24.5 27s-20.166 11 -35.499 11c-17.333 0 -31 -7.16699 -41 -21.5s-15 -33.166 -15 -56.499h-36c0 34 8.66699 62 26 84s40 33 68 33
c23.333 0 41.166 -5.5 53.499 -16.5s23.166 -22.167 32.499 -33.5c7.33301 -10 15.166 -18.833 23.499 -26.5s20.166 -11.5 35.499 -11.5c16.667 0 29.834 7.33301 39.501 22s14.5 33.667 14.5 57h36c0 -34 -8.5 -62 -25.5 -84s-39.5 -33 -67.5 -33zM75.002 -0.000976562
v478h59v-478h-59z" />
    <glyph glyph-name="Imacron" unicode="&#x12a;" horiz-adv-x="227" 
d="M-45 766v43h316v-43h-316zM83 0v686h61v-686h-61z" />
    <glyph glyph-name="imacron" unicode="&#x12b;" horiz-adv-x="209" 
d="M-9 583v43h226v-43h-226zM75 0v478h59v-478h-59z" />
    <glyph glyph-name="Ibreve" unicode="&#x12c;" horiz-adv-x="227" 
d="M112 723c-45.333 0 -82.332 9 -110.999 27s-45.667 48 -51 90h43c5.33301 -28.667 18 -49.167 38 -61.5s47 -18.5 81 -18.5s61.167 6.16699 81.5 18.5s33.166 32.833 38.499 61.5h42c-5.33301 -42 -22.333 -72 -51 -90s-65.667 -27 -111 -27zM83.001 0v686h61v-686h-61z
" />
    <glyph glyph-name="ibreve" unicode="&#x12d;" horiz-adv-x="209" 
d="M104 530c-50.667 0 -90.832 13.167 -120.499 39.5s-44.5 65.166 -44.5 116.499h47c0 -37.333 10.167 -66.5 30.5 -87.5s49.5 -31.5 87.5 -31.5s67.333 10.333 88 31s31 50 31 88h46c0 -51.333 -14.833 -90.166 -44.5 -116.499s-69.834 -39.5 -120.501 -39.5zM75.002 0
v478h59v-478h-59z" />
    <glyph glyph-name="Iogonek" unicode="&#x12e;" horiz-adv-x="227" 
d="M144 0c-32 -16.667 -58.499 -36.833 -79.499 -60.5s-31.5 -45.5 -31.5 -65.5c0 -12.667 5.66699 -22.667 17 -30s26.666 -11 45.999 -11c16 0 32 3 48 9v-42c-18.667 -6 -38 -9 -58 -9c-28 0 -51.167 6 -69.5 18s-27.5 29 -27.5 51c0 23.333 10 47.5 30 72.5
s45.667 47.5 77 67.5h-13v686h61v-686z" />
    <glyph glyph-name="iogonek" unicode="&#x12f;" horiz-adv-x="209" 
d="M105 704c12.667 0 23.5 -4.5 32.5 -13.5s13.5 -20.167 13.5 -33.5c0 -12.667 -4.5 -23.5 -13.5 -32.5s-19.833 -13.5 -32.5 -13.5c-13.333 0 -24.5 4.5 -33.5 13.5s-13.5 19.833 -13.5 32.5c0 13.333 4.5 24.5 13.5 33.5s20.167 13.5 33.5 13.5zM75 0
l0.000976562 478.001h59v-478c-32 -16.667 -58.5 -36.834 -79.5 -60.501s-31.5 -45.5 -31.5 -65.5c0 -12.667 5.66699 -22.667 17 -30s26.666 -11 45.999 -11c16 0 32 3 48 9v-42c-18.667 -6 -38 -9 -58 -9c-28 0 -51.167 6 -69.5 18s-27.5 29 -27.5 51
c0 23.333 10 47.5 30 72.5s45.667 47.5 77 67.5h-11z" />
    <glyph glyph-name="Idotaccent" unicode="&#x130;" horiz-adv-x="227" 
d="M114 739c-13.333 0 -24.5 4.5 -33.5 13.5s-13.5 20.167 -13.5 33.5s4.5 24.333 13.5 33s20.167 13 33.5 13c12.667 0 23.5 -4.33301 32.5 -13s13.5 -19.667 13.5 -33s-4.5 -24.5 -13.5 -33.5s-19.833 -13.5 -32.5 -13.5zM83 0v686h61v-686h-61z" />
    <glyph glyph-name="dotlessi" unicode="&#x131;" horiz-adv-x="209" 
d="M75 0v478h59v-478h-59z" />
    <glyph glyph-name="IJ" unicode="&#x132;" horiz-adv-x="638" 
d="M83 0v686h61v-686h-61zM384 -11c-23.333 0 -46.999 3.33301 -70.999 10s-47 17 -69 31l27 50c33.333 -22 68.666 -33 105.999 -33c38 0 67.667 12.5 89 37.5s32 60.5 32 106.5v495h61v-504c0 -60 -16.167 -107.167 -48.5 -141.5s-74.5 -51.5 -126.5 -51.5z" />
    <glyph glyph-name="ij" unicode="&#x133;" horiz-adv-x="415" 
d="M105 611c-13.333 0 -24.5 4.5 -33.5 13.5s-13.5 19.833 -13.5 32.5c0 13.333 4.5 24.5 13.5 33.5s20.167 13.5 33.5 13.5c12.667 0 23.5 -4.5 32.5 -13.5s13.5 -20.167 13.5 -33.5c0 -12.667 -4.5 -23.5 -13.5 -32.5s-19.833 -13.5 -32.5 -13.5zM309 611
c-12.667 0 -23.667 4.5 -33 13.5s-14 19.833 -14 32.5c0 13.333 4.66699 24.5 14 33.5s20.333 13.5 33 13.5s23.667 -4.5 33 -13.5s14 -20.167 14 -33.5c0 -12.667 -4.66699 -23.5 -14 -32.5s-20.333 -13.5 -33 -13.5zM75 0v478h59v-478h-59zM147 -194
c26 0 47.5 2.83301 64.5 8.5s30.5 15.167 40.5 28.5s17 31 21 53s6 49.667 6 83v499h60v-499c0 -40 -3.33301 -74.167 -10 -102.5s-17.5 -51.333 -32.5 -69s-34.667 -30.5 -59 -38.5s-54.5 -12 -90.5 -12v49z" />
    <glyph glyph-name="Jcircumflex" unicode="&#x134;" horiz-adv-x="411" 
d="M168 731l96 109h75l97 -109h-49l-85 82l-86 -82h-48zM157 -11c-23.333 0 -46.999 3.33301 -70.999 10s-47 17 -69 31l27 50c33.333 -22 68.666 -33 105.999 -33c38 0 67.667 12.5 89 37.5s32 60.5 32 106.5v495h61v-504c0 -60 -16.167 -107.167 -48.5 -141.5
s-74.5 -51.5 -126.5 -51.5z" />
    <glyph glyph-name="jcircumflex" unicode="&#x135;" horiz-adv-x="206" 
d="M-31 540l97 146h68l96 -146h-48l-82 112l-82 -112h-49zM-62 -194c26 0 47.5 2.83301 64.5 8.5s30.5 15.167 40.5 28.5s17 31 21 53s6 49.667 6 83v499h60v-499c0 -40 -3.33301 -74.167 -10 -102.5s-17.5 -51.333 -32.5 -69s-34.667 -30.5 -59 -38.5s-54.5 -12 -90.5 -12
v49z" />
    <glyph glyph-name="uni0136" unicode="&#x136;" horiz-adv-x="603" 
d="M269 359l313 -359h-79l-286 330h-73v-330h-61v686h61v-301h73l273 301h77zM173 -176l96 146h55l-108 -146h-43z" />
    <glyph glyph-name="uni0137" unicode="&#x137;" horiz-adv-x="501" 
d="M226 253l246 -253h-74l-223 229h-40v-229h-60v750h60v-476h40l207 204h72zM122 -176l96 146h55l-108 -146h-43z" />
    <glyph glyph-name="kgreenlandic" unicode="&#x138;" horiz-adv-x="501" 
d="M226 253l247 -253h-74l-224 229h-40v-229h-59v478h59v-204h41l207 204h72z" />
    <glyph glyph-name="Lacute" unicode="&#x139;" horiz-adv-x="424" 
d="M88 716l79 124h64l-92 -124h-51zM83 0v686h61v-630h261v-56h-322z" />
    <glyph glyph-name="lacute" unicode="&#x13a;" horiz-adv-x="210" 
d="M74 812l93 146h66l-108 -146h-51zM75 0v750h60v-750h-60z" />
    <glyph glyph-name="uni013B" unicode="&#x13b;" horiz-adv-x="424" 
d="M83 0v686h61v-630h261v-56h-322zM95 -176l96 146h55l-108 -146h-43z" />
    <glyph glyph-name="uni013C" unicode="&#x13c;" horiz-adv-x="210" 
d="M75 0v750h60v-750h-60zM-21 -176l97 146h55l-108 -146h-44z" />
    <glyph glyph-name="Lcaron" unicode="&#x13d;" horiz-adv-x="475" 
d="M83 0v686h61v-630h261v-56h-322zM301 384l60 302h60l-73 -302h-47z" />
    <glyph glyph-name="lcaron" unicode="&#x13e;" horiz-adv-x="350" 
d="M75 0v750h60v-750h-60zM231 384l59 302h61l-74 -302h-46z" />
    <glyph glyph-name="Ldot" unicode="&#x13f;" horiz-adv-x="463" 
d="M83 0v686h61v-630h261v-56h-322zM384 295c-12.667 0 -23.667 4.66699 -33 14s-14 20.666 -14 33.999c0 12.667 4.66699 23.667 14 33s20.333 14 33 14s23.667 -4.66699 33 -14s14 -20.333 14 -33c0 -13.333 -4.66699 -24.666 -14 -33.999s-20.333 -14 -33 -14z" />
    <glyph glyph-name="ldot" unicode="&#x140;" horiz-adv-x="329" 
d="M75 0v750h60v-750h-60zM286 328c-12.667 0 -23.667 4.5 -33 13.5s-14 20.167 -14 33.5c0 12.667 4.66699 23.667 14 33s20.333 14 33 14s23.667 -4.66699 33 -14s14 -20.333 14 -33c0 -13.333 -4.66699 -24.5 -14 -33.5s-20.333 -13.5 -33 -13.5z" />
    <glyph glyph-name="Lslash" unicode="&#x141;" horiz-adv-x="424" 
d="M144 56h261v-56h-322v298l-74 -56v55l74 56v333h61v-288l125 94v-55l-125 -94v-287z" />
    <glyph glyph-name="lslash" unicode="&#x142;" horiz-adv-x="210" 
d="M234 493v-55l-99 -74v-364h-60v319l-102 -76v55l102 76v376h60v-331z" />
    <glyph glyph-name="Nacute" unicode="&#x143;" horiz-adv-x="707" 
d="M476 840l-92 -124h-51l79 124h64zM563 686h62v-686h-80l-401 610v-610h-61v686h78l402 -609v609z" />
    <glyph glyph-name="nacute" unicode="&#x144;" horiz-adv-x="531" 
d="M391 686l-108 -146h-51l93 146h66zM287 488c56 0 98.833 -15.167 128.5 -45.5s44.5 -73.166 44.5 -128.499v-314h-60v305c0 44 -11.333 77.167 -34 99.5s-54 33.5 -94 33.5s-72.833 -13.5 -98.5 -40.5s-38.5 -65.833 -38.5 -116.5v-281h-59v478h59v-71
c15.333 25.333 36 45.166 62 59.499s56 21.5 90 21.5z" />
    <glyph glyph-name="uni0145" unicode="&#x145;" horiz-adv-x="707" 
d="M563 686h62v-686h-80l-401 610v-610h-61v686h78l402 -609v609zM235 -176l96 146h55l-108 -146h-43z" />
    <glyph glyph-name="uni0146" unicode="&#x146;" horiz-adv-x="531" 
d="M287 488c56 0 98.833 -15.167 128.5 -45.5s44.5 -73.166 44.5 -128.499v-314h-60v305c0 44 -11.333 77.167 -34 99.5s-54 33.5 -94 33.5s-72.833 -13.5 -98.5 -40.5s-38.5 -65.833 -38.5 -116.5v-281h-59v478h59v-71c15.333 25.333 36 45.166 62 59.499s56 21.5 90 21.5z
M139 -176l96 146h55l-108 -146h-43z" />
    <glyph glyph-name="Ncaron" unicode="&#x147;" horiz-adv-x="707" 
d="M395 731h-75l-96 109h48l86 -82l85 82h49zM563 686h62v-686h-80l-401 610v-610h-61v686h78l402 -609v609z" />
    <glyph glyph-name="ncaron" unicode="&#x148;" horiz-adv-x="531" 
d="M296 540h-68l-96 146h48l82 -113l82 113h48zM287 488c56 0 98.833 -15.167 128.5 -45.5s44.5 -73.166 44.5 -128.499v-314h-60v305c0 44 -11.333 77.167 -34 99.5s-54 33.5 -94 33.5s-72.833 -13.5 -98.5 -40.5s-38.5 -65.833 -38.5 -116.5v-281h-59v478h59v-71
c15.333 25.333 36 45.166 62 59.499s56 21.5 90 21.5z" />
    <glyph glyph-name="napostrophe" unicode="&#x149;" horiz-adv-x="666" 
d="M67 384l59 302h61l-74 -302h-46zM422 488c56 0 98.833 -15.167 128.5 -45.5s44.5 -73.166 44.5 -128.499v-314h-59v305c0 44 -11.333 77.167 -34 99.5s-54 33.5 -94 33.5s-72.833 -13.5 -98.5 -40.5s-38.5 -65.833 -38.5 -116.5v-281h-60v478h60v-71
c15.333 25.333 35.833 45.166 61.5 59.499s55.5 21.5 89.5 21.5z" />
    <glyph glyph-name="Eng" unicode="&#x14a;" horiz-adv-x="707" 
d="M563 686l62.001 0.00195312v-713c0 -76.667 -14.667 -131.334 -44 -164.001s-77 -49 -143 -49v49c22.667 0 41.667 2.5 57 7.5s27.666 13.333 36.999 25s16 27.167 20 46.5s6 43.666 6 72.999c0 12.667 -4.33301 25.667 -13 39l-401 609v-609h-61v686h78l402 -607v607z
" />
    <glyph glyph-name="eng" unicode="&#x14b;" horiz-adv-x="531" 
d="M287 488c56 0 98.833 -15.167 128.5 -45.5s44.5 -73.166 44.5 -128.499v-335c0 -40 -3.33301 -74.167 -10 -102.5s-17.5 -51.333 -32.5 -69s-34.667 -30.5 -59 -38.5s-54.5 -12 -90.5 -12v49c26 0 47.5 2.83301 64.5 8.5s30.5 15.167 40.5 28.5s17 31 21 53
s6 49.667 6 83v326c0 44 -11.333 77.167 -34 99.5s-54 33.5 -94 33.5s-72.833 -13.5 -98.5 -40.5s-38.5 -65.833 -38.5 -116.5v-281h-59v478h59v-71c15.333 25.333 36 45.166 62 59.499s56 21.5 90 21.5z" />
    <glyph glyph-name="Omacron" unicode="&#x14c;" horiz-adv-x="787" 
d="M236 766v43h315v-43h-315zM393 -11c-50 0 -96 8.66699 -138 26s-78 41.5 -108 72.5s-53.333 68.167 -70 111.5s-25 91.333 -25 144s8.33301 100.667 25 144s40 80.5 70 111.5s66 55.167 108 72.5s88 26 138 26s96 -8.66699 138 -26s78 -41.5 108 -72.5
s53.333 -68.167 70 -111.5s25 -91.333 25 -144s-8.33301 -100.667 -25 -144s-40 -80.5 -70 -111.5s-66 -55.167 -108 -72.5s-88 -26 -138 -26zM393 46c41.333 0 79.166 7.16699 113.499 21.5s63.833 34.5 88.5 60.5s43.667 57.333 57 94s20 77 20 121
s-6.66699 84.333 -20 121s-32.333 68 -57 94s-54.167 46.167 -88.5 60.5s-72.166 21.5 -113.499 21.5s-79.166 -7.16699 -113.499 -21.5s-63.666 -34.5 -87.999 -60.5s-43.333 -57.333 -57 -94s-20.5 -77 -20.5 -121s6.83301 -84.333 20.5 -121s32.667 -68 57 -94
s53.666 -46.167 87.999 -60.5s72.166 -21.5 113.499 -21.5z" />
    <glyph glyph-name="omacron" unicode="&#x14d;" horiz-adv-x="585" 
d="M181 583v43h225v-43h-225zM292 -10c-34.667 0 -66.667 6 -96 18s-54.5 29 -75.5 51s-37.5 48.333 -49.5 79s-18 64.667 -18 102c0 36.667 6 70.167 18 100.5s28.5 56.5 49.5 78.5s46.167 39 75.5 51s61.333 18 96 18c35.333 0 67.666 -6 96.999 -18s54.5 -29 75.5 -51
s37.5 -48.167 49.5 -78.5s18 -63.833 18 -100.5c0 -37.333 -6 -71.333 -18 -102s-28.5 -57 -49.5 -79s-46.167 -39 -75.5 -51s-61.666 -18 -96.999 -18zM292 40c26.667 0 51 5 73 15s41 23.833 57 41.5s28.333 38.667 37 63s13 51.166 13 80.499
c0 28.667 -4.33301 55.167 -13 79.5s-21 45.166 -37 62.499s-35 31 -57 41s-46.333 15 -73 15s-51 -5 -73 -15s-41 -23.667 -57 -41s-28.333 -38.166 -37 -62.499s-13 -50.833 -13 -79.5c0 -29.333 4.33301 -56.166 13 -80.499s21 -45.333 37 -63s35 -31.5 57 -41.5
s46.333 -15 73 -15z" />
    <glyph glyph-name="Obreve" unicode="&#x14e;" horiz-adv-x="787" 
d="M392 723c-45.333 0 -82.167 9 -110.5 27s-45.166 48 -50.499 90h42c5.33301 -28.667 18 -49.167 38 -61.5s47 -18.5 81 -18.5s61.167 6.16699 81.5 18.5s33.166 32.833 38.499 61.5h42c-5.33301 -42 -22.333 -72 -51 -90s-65.667 -27 -111 -27zM392.999 -11
c-50 0 -96 8.66699 -138 26s-78 41.5 -108 72.5s-53.333 68.167 -70 111.5s-25 91.333 -25 144s8.33301 100.667 25 144s40 80.5 70 111.5s66 55.167 108 72.5s88 26 138 26s96 -8.66699 138 -26s78 -41.5 108 -72.5s53.333 -68.167 70 -111.5s25 -91.333 25 -144
s-8.33301 -100.667 -25 -144s-40 -80.5 -70 -111.5s-66 -55.167 -108 -72.5s-88 -26 -138 -26zM392.999 46c41.333 0 79.166 7.16699 113.499 21.5s63.833 34.5 88.5 60.5s43.667 57.333 57 94s20 77 20 121s-6.66699 84.333 -20 121s-32.333 68 -57 94
s-54.167 46.167 -88.5 60.5s-72.166 21.5 -113.499 21.5s-79.166 -7.16699 -113.499 -21.5s-63.666 -34.5 -87.999 -60.5s-43.333 -57.333 -57 -94s-20.5 -77 -20.5 -121s6.83301 -84.333 20.5 -121s32.667 -68 57 -94s53.666 -46.167 87.999 -60.5
s72.166 -21.5 113.499 -21.5z" />
    <glyph glyph-name="obreve" unicode="&#x14f;" horiz-adv-x="585" 
d="M292 530c-50.667 0 -90.666 13.167 -119.999 39.5s-44 65.166 -44 116.499h46c0 -37.333 10.167 -66.5 30.5 -87.5s49.5 -31.5 87.5 -31.5s67.333 10.333 88 31s31 50 31 88h46c0 -51.333 -14.833 -90.166 -44.5 -116.499s-69.834 -39.5 -120.501 -39.5zM292.001 -10
c-34.667 0 -66.667 6 -96 18s-54.5 29 -75.5 51s-37.5 48.333 -49.5 79s-18 64.667 -18 102c0 36.667 6 70.167 18 100.5s28.5 56.5 49.5 78.5s46.167 39 75.5 51s61.333 18 96 18c35.333 0 67.666 -6 96.999 -18s54.5 -29 75.5 -51s37.5 -48.167 49.5 -78.5
s18 -63.833 18 -100.5c0 -37.333 -6 -71.333 -18 -102s-28.5 -57 -49.5 -79s-46.167 -39 -75.5 -51s-61.666 -18 -96.999 -18zM292.001 40c26.667 0 51 5 73 15s41 23.833 57 41.5s28.333 38.667 37 63s13 51.166 13 80.499c0 28.667 -4.33301 55.167 -13 79.5
s-21 45.166 -37 62.499s-35 31 -57 41s-46.333 15 -73 15s-51 -5 -73 -15s-41 -23.667 -57 -41s-28.333 -38.166 -37 -62.499s-13 -50.833 -13 -79.5c0 -29.333 4.33301 -56.166 13 -80.499s21 -45.333 37 -63s35 -31.5 57 -41.5s46.333 -15 73 -15z" />
    <glyph glyph-name="Ohungarumlaut" unicode="&#x150;" horiz-adv-x="787" 
d="M296 716l81 124h62l-92 -124h-51zM438 716l82 124h62l-93 -124h-51zM393 -11c-50 0 -96 8.66699 -138 26s-78 41.5 -108 72.5s-53.333 68.167 -70 111.5s-25 91.333 -25 144s8.33301 100.667 25 144s40 80.5 70 111.5s66 55.167 108 72.5s88 26 138 26
s96 -8.66699 138 -26s78 -41.5 108 -72.5s53.333 -68.167 70 -111.5s25 -91.333 25 -144s-8.33301 -100.667 -25 -144s-40 -80.5 -70 -111.5s-66 -55.167 -108 -72.5s-88 -26 -138 -26zM393 46c41.333 0 79.166 7.16699 113.499 21.5s63.833 34.5 88.5 60.5
s43.667 57.333 57 94s20 77 20 121s-6.66699 84.333 -20 121s-32.333 68 -57 94s-54.167 46.167 -88.5 60.5s-72.166 21.5 -113.499 21.5s-79.166 -7.16699 -113.499 -21.5s-63.666 -34.5 -87.999 -60.5s-43.333 -57.333 -57 -94s-20.5 -77 -20.5 -121
s6.83301 -84.333 20.5 -121s32.667 -68 57 -94s53.666 -46.167 87.999 -60.5s72.166 -21.5 113.499 -21.5z" />
    <glyph glyph-name="ohungarumlaut" unicode="&#x151;" horiz-adv-x="585" 
d="M197 540l96 146h63l-108 -146h-51zM339 540l96 146h63l-108 -146h-51zM292 -10c-34.667 0 -66.667 6 -96 18s-54.5 29 -75.5 51s-37.5 48.333 -49.5 79s-18 64.667 -18 102c0 36.667 6 70.167 18 100.5s28.5 56.5 49.5 78.5s46.167 39 75.5 51s61.333 18 96 18
c35.333 0 67.666 -6 96.999 -18s54.5 -29 75.5 -51s37.5 -48.167 49.5 -78.5s18 -63.833 18 -100.5c0 -37.333 -6 -71.333 -18 -102s-28.5 -57 -49.5 -79s-46.167 -39 -75.5 -51s-61.666 -18 -96.999 -18zM292 40c26.667 0 51 5 73 15s41 23.833 57 41.5
s28.333 38.667 37 63s13 51.166 13 80.499c0 28.667 -4.33301 55.167 -13 79.5s-21 45.166 -37 62.499s-35 31 -57 41s-46.333 15 -73 15s-51 -5 -73 -15s-41 -23.667 -57 -41s-28.333 -38.166 -37 -62.499s-13 -50.833 -13 -79.5c0 -29.333 4.33301 -56.166 13 -80.499
s21 -45.333 37 -63s35 -31.5 57 -41.5s46.333 -15 73 -15z" />
    <glyph glyph-name="OE" unicode="&#x152;" horiz-adv-x="933" 
d="M423 0c-60.667 0 -112.167 5.83301 -154.5 17.5s-78.166 29.167 -107.499 52.5c-72.667 56.667 -109 147.667 -109 273s36.333 216.333 109 273c29.333 23.333 65.166 40.833 107.499 52.5s93.833 17.5 154.5 17.5h468v-56h-304v-260h270v-55h-270v-259h304v-56h-468z
M526 56v574h-103c-98.667 0 -172 -19.667 -220 -59c-59.333 -45.333 -89 -121.333 -89 -228s29.667 -182.667 89 -228c48 -39.333 121.333 -59 220 -59h103z" />
    <glyph glyph-name="oe" unicode="&#x153;" horiz-adv-x="993" 
d="M942 227l-409.002 -0.000976562c1.33301 -28 6.5 -53.5 15.5 -76.5s21.5 -42.667 37.5 -59s34.667 -29 56 -38s44.333 -13.5 69 -13.5c36 0 67.5 8.66699 94.5 26s47.5 41.666 61.5 72.999l56 -11c-17.333 -43.333 -44.666 -77.166 -81.999 -101.499
s-80.666 -36.5 -129.999 -36.5c-48 0 -89.833 10.833 -125.5 32.5s-63.167 51.5 -82.5 89.5c-20 -38 -48.167 -67.833 -84.5 -89.5s-78.5 -32.5 -126.5 -32.5c-34.667 0 -66.667 6 -96 18s-54.5 29 -75.5 51s-37.5 48.333 -49.5 79s-18 64.667 -18 102
c0 36.667 6 70.167 18 100.5s28.5 56.5 49.5 78.5s46.167 39 75.5 51s61.333 18 96 18c48 0 90.167 -10.833 126.5 -32.5s64.5 -51.5 84.5 -89.5c19.333 38 47 67.833 83 89.5s77.333 32.5 124 32.5c33.333 0 64.166 -5.83301 92.499 -17.5s52.833 -28.167 73.5 -49.5
s36.834 -47.166 48.501 -77.499s17.5 -64.5 17.5 -102.5v-14zM709.998 438.999c-48 0 -88 -14.501 -120 -43.501s-50.667 -69.5 -56 -121.5h348c-4 50.667 -21.833 90.834 -53.5 120.501s-71.167 44.5 -118.5 44.5zM291.998 39.998c26.667 0 51 5 73 15s41 23.833 57 41.5
s28.333 38.667 37 63s13 51.166 13 80.499c0 28.667 -4.33301 55.167 -13 79.5s-21 45.166 -37 62.499s-35 31 -57 41s-46.333 15 -73 15s-51 -5 -73 -15s-41 -23.667 -57 -41s-28.333 -38.166 -37 -62.499s-13 -50.833 -13 -79.5c0 -29.333 4.33301 -56.166 13 -80.499
s21 -45.333 37 -63s35 -31.5 57 -41.5s46.333 -15 73 -15z" />
    <glyph glyph-name="Racute" unicode="&#x154;" horiz-adv-x="608" 
d="M412 840l-92 -124h-51l79 124h64zM563 0l-76 0.000976562l-179 263h-18h-146v-263h-61v686h207c42.667 0 78 -3.5 106 -10.5s52 -18.167 72 -33.5c22.667 -17.333 40 -40 52 -68s18 -60.333 18 -97c0 -42.667 -8.16699 -80.334 -24.5 -113.001s-40.5 -57.667 -72.5 -75
c-9.33301 -5.33301 -19.333 -9.5 -30 -12.5s-21.667 -5.5 -33 -7.5zM284 316.001c27.333 0 51.3311 1.5 71.998 4.5s38.334 8.83301 53.001 17.5c45.333 26 68 71.333 68 136c0 58.667 -18.333 101.334 -55 128.001c-16 11.333 -35.167 19.166 -57.5 23.499
s-49.166 6.5 -80.499 6.5h-140v-316h140z" />
    <glyph glyph-name="racute" unicode="&#x155;" horiz-adv-x="353" 
d="M288 686l-108 -146h-51l93 146h66zM135 379c15.333 35.333 39.332 62.333 71.999 81s72.334 28 119.001 28v-56c-64.667 0 -112.667 -16.5 -144 -49.5s-47 -84.5 -47 -154.5v-228h-60v478h60v-99z" />
    <glyph glyph-name="uni0156" unicode="&#x156;" horiz-adv-x="608" 
d="M563 0l-76 0.000976562l-179 263h-18h-146v-263h-61v686h207c42.667 0 78 -3.5 106 -10.5s52 -18.167 72 -33.5c22.667 -17.333 40 -40 52 -68s18 -60.333 18 -97c0 -42.667 -8.16699 -80.334 -24.5 -113.001s-40.5 -57.667 -72.5 -75
c-9.33301 -5.33301 -19.333 -9.5 -30 -12.5s-21.667 -5.5 -33 -7.5zM284 316.001c27.333 0 51.3311 1.5 71.998 4.5s38.334 8.83301 53.001 17.5c45.333 26 68 71.333 68 136c0 58.667 -18.333 101.334 -55 128.001c-16 11.333 -35.167 19.166 -57.5 23.499
s-49.166 6.5 -80.499 6.5h-140v-316h140zM170.998 -175.999l96 146h55l-108 -146h-43z" />
    <glyph glyph-name="uni0157" unicode="&#x157;" horiz-adv-x="353" 
d="M135 379c15.333 35.333 39.332 62.333 71.999 81s72.334 28 119.001 28v-56c-64.667 0 -112.667 -16.5 -144 -49.5s-47 -84.5 -47 -154.5v-228h-60v478h60v-99zM-10.001 -176l97 146h55l-108 -146h-44z" />
    <glyph glyph-name="Rcaron" unicode="&#x158;" horiz-adv-x="608" 
d="M331 731h-75l-96 109h48l86 -82l85 82h49zM563 0l-76 0.000976562l-179 263h-18h-146v-263h-61v686h207c42.667 0 78 -3.5 106 -10.5s52 -18.167 72 -33.5c22.667 -17.333 40 -40 52 -68s18 -60.333 18 -97c0 -42.667 -8.16699 -80.334 -24.5 -113.001
s-40.5 -57.667 -72.5 -75c-9.33301 -5.33301 -19.333 -9.5 -30 -12.5s-21.667 -5.5 -33 -7.5zM284 316.001c27.333 0 51.3311 1.5 71.998 4.5s38.334 8.83301 53.001 17.5c45.333 26 68 71.333 68 136c0 58.667 -18.333 101.334 -55 128.001
c-16 11.333 -35.167 19.166 -57.5 23.499s-49.166 6.5 -80.499 6.5h-140v-316h140z" />
    <glyph glyph-name="rcaron" unicode="&#x159;" horiz-adv-x="353" 
d="M194 540h-68l-96 146h48l82 -113l82 113h48zM135 379c15.333 35.333 39.332 62.333 71.999 81s72.334 28 119.001 28v-56c-64.667 0 -112.667 -16.5 -144 -49.5s-47 -84.5 -47 -154.5v-228h-60v478h60v-99z" />
    <glyph glyph-name="Sacute" unicode="&#x15a;" horiz-adv-x="602" 
d="M275 716l79 124h64l-92 -124h-51zM309 -11c-70.667 0 -129.832 15.6719 -177.499 47.0049s-77.834 76 -90.501 134l61 12c11.333 -46 35 -80.833 71 -104.5s81.667 -35.5 137 -35.5s98.666 12.333 129.999 37s47 58.667 47 102c0 24 -5.5 43.833 -16.5 59.5
s-25.5 28.5 -43.5 38.5s-38.833 18.167 -62.5 24.5s-48.167 12.166 -73.5 17.499c-27.333 6 -54.666 13 -81.999 21s-51.833 18.667 -73.5 32s-39.334 30.666 -53.001 51.999s-20.5 48.333 -20.5 81c0 28.667 5.33301 54.667 16 78s26 43.333 46 60s43.833 29.5 71.5 38.5
s58.5 13.5 92.5 13.5c63.333 0 116.666 -13 159.999 -39s73.333 -68 90 -126l-55 -14c-15.333 44 -38.166 76 -68.499 96s-71.5 30 -123.5 30c-50.667 0 -91.167 -12 -121.5 -36s-45.5 -57 -45.5 -99c0 -22.667 5.16699 -41.334 15.5 -56.001s24.333 -26.834 42 -36.501
s37.834 -17.334 60.501 -23.001s46.334 -11.167 71.001 -16.5c28 -6 56 -13 84 -21s53.333 -18.833 76 -32.5s41.167 -31.5 55.5 -53.5s21.5 -50.333 21.5 -85c0 -30 -5.66699 -57 -17 -81s-27.333 -44.5 -48 -61.5s-45.834 -30.167 -75.501 -39.5s-63.167 -14 -100.5 -14z
" />
    <glyph glyph-name="sacute" unicode="&#x15b;" horiz-adv-x="466" 
d="M202 540l93 146h66l-108 -146h-51zM241 -10c-50.667 0 -93.333 12.668 -128 38.001s-55.667 59 -63 101l52 13c6.66699 -32 22.167 -57.5 46.5 -76.5s54.5 -28.5 90.5 -28.5c34.667 0 62.5 8.16699 83.5 24.5s31.5 38.5 31.5 66.5c0 16.667 -3.5 30.334 -10.5 41.001
s-16.5 19.5 -28.5 26.5s-25.667 12.5 -41 16.5s-31.666 7.66699 -48.999 11c-21.333 4 -41.666 8.83301 -60.999 14.5s-36.5 13.334 -51.5 23.001s-27 22 -36 37s-13.5 33.833 -13.5 56.5c0 42 15.333 74.833 46 98.5s70.667 35.5 120 35.5
c44.667 0 83.167 -10.667 115.5 -32s52.166 -52 59.499 -92l-54 -10c-5.33301 28 -18.833 49.667 -40.5 65s-48.834 23 -81.501 23s-59.167 -7.5 -79.5 -22.5s-30.5 -35.5 -30.5 -61.5c0 -14.667 3.5 -26.834 10.5 -36.501s16.333 -17.667 28 -24s25.167 -11.5 40.5 -15.5
s31.333 -7.66699 48 -11c22 -4.66699 43.167 -10 63.5 -16s38 -14 53 -24s27 -22.833 36 -38.5s13.5 -35.834 13.5 -60.501c0 -22.667 -4.33301 -42.834 -13 -60.501s-20.5 -32.5 -35.5 -44.5s-33 -21.167 -54 -27.5s-43.5 -9.5 -67.5 -9.5z" />
    <glyph glyph-name="Scedilla" unicode="&#x15e;" horiz-adv-x="602" 
d="M550 185c0 -29.333 -5.50684 -55.9951 -16.5068 -79.9951s-26.667 -44.5 -47 -61.5s-45 -30.167 -74 -39.5s-61.5 -14.333 -97.5 -15l-39 -72c5.33301 1.33301 10.333 2.33301 15 3s9.33398 1 14.001 1c24 0 43.167 -6.66699 57.5 -20s21.5 -31.333 21.5 -54
c0 -24 -8.16699 -43.667 -24.5 -59s-37.5 -23 -63.5 -23c-21.333 0 -39.166 4 -53.499 12s-25.166 18.667 -32.499 32l36 15c4.66699 -8.66699 11.334 -15 20.001 -19s18.334 -6 29.001 -6c15.333 0 27.666 4.16699 36.999 12.5s14 20.166 14 35.499
c0 14.667 -4.33301 25.834 -13 33.501s-20.667 11.5 -36 11.5c-14.667 0 -27.667 -4 -39 -12l-33 16l49 94c-61.333 5.33301 -112.666 23.5 -153.999 54.5s-67.666 72.833 -78.999 125.5l61 12c11.333 -46 35 -80.833 71 -104.5s81.667 -35.5 137 -35.5
s98.666 12.333 129.999 37s47 58.667 47 102c0 24 -5.5 43.833 -16.5 59.5s-25.5 28.5 -43.5 38.5s-38.833 18.167 -62.5 24.5s-48.167 12.166 -73.5 17.499c-27.333 6 -54.666 13 -81.999 21s-51.833 18.667 -73.5 32s-39.334 30.666 -53.001 51.999s-20.5 48.333 -20.5 81
c0 28.667 5.33301 54.667 16 78s26 43.333 46 60s43.833 29.5 71.5 38.5s58.5 13.5 92.5 13.5c63.333 0 116.666 -13 159.999 -39s73.333 -68 90 -126l-55 -14c-15.333 44 -38.166 76 -68.499 96s-71.5 30 -123.5 30c-50.667 0 -91.167 -12 -121.5 -36s-45.5 -57 -45.5 -99
c0 -22.667 5.16699 -41.334 15.5 -56.001s24.333 -26.834 42 -36.501s37.834 -17.334 60.501 -23.001s46.334 -11.167 71.001 -16.5c28 -6 56 -13 84 -21s53.333 -18.833 76 -32.5s41.167 -31.5 55.5 -53.5s21.5 -50.333 21.5 -85z" />
    <glyph glyph-name="scedilla" unicode="&#x15f;" horiz-adv-x="466" 
d="M411 132c0 -22 -4.00488 -41.5 -12.0049 -58.5s-19.167 -31.5 -33.5 -43.5s-31.166 -21.5 -50.499 -28.5s-40.666 -10.833 -63.999 -11.5l-39 -73c5.33301 1.33301 10.333 2.33301 15 3s9.33398 1 14.001 1c24 0 43.167 -6.66699 57.5 -20s21.5 -31.333 21.5 -54
c0 -24 -8.16699 -43.667 -24.5 -59s-37.5 -23 -63.5 -23c-21.333 0 -39.166 4 -53.499 12s-25.166 18.667 -32.499 32l36 15c4.66699 -8.66699 11.334 -15 20.001 -19s18.334 -6 29.001 -6c15.333 0 27.666 4.16699 36.999 12.5s14 20.166 14 35.499
c0 14.667 -4.33301 25.834 -13 33.501s-20.667 11.5 -36 11.5c-14.667 0 -27.667 -4 -39 -12l-33 16l50 96c-43.333 5.33301 -79.333 20 -108 44s-46.334 55 -53.001 93l52 13c6.66699 -32 22.167 -57.5 46.5 -76.5s54.5 -28.5 90.5 -28.5c34.667 0 62.5 8.16699 83.5 24.5
s31.5 38.5 31.5 66.5c0 16.667 -3.5 30.334 -10.5 41.001s-16.5 19.5 -28.5 26.5s-25.667 12.5 -41 16.5s-31.666 7.66699 -48.999 11c-21.333 4 -41.666 8.83301 -60.999 14.5s-36.5 13.334 -51.5 23.001s-27 22 -36 37s-13.5 33.833 -13.5 56.5
c0 42 15.333 74.833 46 98.5s70.667 35.5 120 35.5c44.667 0 83.167 -10.667 115.5 -32s52.166 -52 59.499 -92l-54 -10c-5.33301 28 -18.833 49.667 -40.5 65s-48.834 23 -81.501 23s-59.167 -7.5 -79.5 -22.5s-30.5 -35.5 -30.5 -61.5c0 -14.667 3.5 -26.834 10.5 -36.501
s16.333 -17.667 28 -24s25.167 -11.5 40.5 -15.5s31.333 -7.66699 48 -11c22 -4.66699 43.167 -10 63.5 -16s38 -14 53 -24s27 -22.833 36 -38.5s13.5 -35.834 13.5 -60.501z" />
    <glyph glyph-name="Scaron" unicode="&#x160;" horiz-adv-x="602" 
d="M262 731l-96 109h48l86 -82l85 82h49l-97 -109h-75zM309 -11c-70.667 0 -129.832 15.6719 -177.499 47.0049s-77.834 76 -90.501 134l61 12c11.333 -46 35 -80.833 71 -104.5s81.667 -35.5 137 -35.5s98.666 12.333 129.999 37s47 58.667 47 102
c0 24 -5.5 43.833 -16.5 59.5s-25.5 28.5 -43.5 38.5s-38.833 18.167 -62.5 24.5s-48.167 12.166 -73.5 17.499c-27.333 6 -54.666 13 -81.999 21s-51.833 18.667 -73.5 32s-39.334 30.666 -53.001 51.999s-20.5 48.333 -20.5 81c0 28.667 5.33301 54.667 16 78
s26 43.333 46 60s43.833 29.5 71.5 38.5s58.5 13.5 92.5 13.5c63.333 0 116.666 -13 159.999 -39s73.333 -68 90 -126l-55 -14c-15.333 44 -38.166 76 -68.499 96s-71.5 30 -123.5 30c-50.667 0 -91.167 -12 -121.5 -36s-45.5 -57 -45.5 -99
c0 -22.667 5.16699 -41.334 15.5 -56.001s24.333 -26.834 42 -36.501s37.834 -17.334 60.501 -23.001s46.334 -11.167 71.001 -16.5c28 -6 56 -13 84 -21s53.333 -18.833 76 -32.5s41.167 -31.5 55.5 -53.5s21.5 -50.333 21.5 -85c0 -30 -5.66699 -57 -17 -81
s-27.333 -44.5 -48 -61.5s-45.834 -30.167 -75.501 -39.5s-63.167 -14 -100.5 -14z" />
    <glyph glyph-name="scaron" unicode="&#x161;" horiz-adv-x="466" 
d="M198 540l-96 146h48l82 -113l82 113h48l-96 -146h-68zM241 -10c-50.667 0 -93.333 12.668 -128 38.001s-55.667 59 -63 101l52 13c6.66699 -32 22.167 -57.5 46.5 -76.5s54.5 -28.5 90.5 -28.5c34.667 0 62.5 8.16699 83.5 24.5s31.5 38.5 31.5 66.5
c0 16.667 -3.5 30.334 -10.5 41.001s-16.5 19.5 -28.5 26.5s-25.667 12.5 -41 16.5s-31.666 7.66699 -48.999 11c-21.333 4 -41.666 8.83301 -60.999 14.5s-36.5 13.334 -51.5 23.001s-27 22 -36 37s-13.5 33.833 -13.5 56.5c0 42 15.333 74.833 46 98.5
s70.667 35.5 120 35.5c44.667 0 83.167 -10.667 115.5 -32s52.166 -52 59.499 -92l-54 -10c-5.33301 28 -18.833 49.667 -40.5 65s-48.834 23 -81.501 23s-59.167 -7.5 -79.5 -22.5s-30.5 -35.5 -30.5 -61.5c0 -14.667 3.5 -26.834 10.5 -36.501s16.333 -17.667 28 -24
s25.167 -11.5 40.5 -15.5s31.333 -7.66699 48 -11c22 -4.66699 43.167 -10 63.5 -16s38 -14 53 -24s27 -22.833 36 -38.5s13.5 -35.834 13.5 -60.501c0 -22.667 -4.33301 -42.834 -13 -60.501s-20.5 -32.5 -35.5 -44.5s-33 -21.167 -54 -27.5s-43.5 -9.5 -67.5 -9.5z" />
    <glyph glyph-name="uni0162" unicode="&#x162;" horiz-adv-x="473" 
d="M267 0h-10.0039l-45 -83c5.33301 1.33301 10.333 2.33301 15 3s9.33398 1 14.001 1c24 0 43.167 -6.66699 57.5 -20s21.5 -31.333 21.5 -54c0 -24 -8.16699 -43.667 -24.5 -59s-37.5 -23 -63.5 -23c-21.333 0 -39.166 4 -53.499 12s-25.166 18.667 -32.499 32l36 15
c4.66699 -8.66699 11.334 -15 20.001 -19s18.334 -6 29.001 -6c15.333 0 27.666 4.16699 36.999 12.5s14 20.166 14 35.499c0 14.667 -4.33301 25.834 -13 33.501s-20.667 11.5 -36 11.5c-14.667 0 -27.667 -4 -39 -12l-33 16l54 104h-10v630h-187v56h436v-56h-187v-630z
" />
    <glyph glyph-name="uni0163" unicode="&#x163;" horiz-adv-x="348" 
d="M309 429h-123.004v-294c0 -28 7.5 -49.167 22.5 -63.5s34.5 -21.5 58.5 -21.5h42v-50h-58h-7l-45 -83c5.33301 1.33301 10.333 2.33301 15 3s9.33398 1 14.001 1c24 0 43.167 -6.66699 57.5 -20s21.5 -31.333 21.5 -54c0 -24 -8.16699 -43.667 -24.5 -59
s-37.5 -23 -63.5 -23c-21.333 0 -39.166 4 -53.499 12s-25.166 18.667 -32.499 32l36 15c4.66699 -8.66699 11.334 -15 20.001 -19s18.334 -6 29.001 -6c15.333 0 27.666 4.16699 36.999 12.5s14 20.166 14 35.499c0 14.667 -4.33301 25.834 -13 33.501
s-20.667 11.5 -36 11.5c-14.667 0 -27.667 -4 -39 -12l-33 16l58 111c-25.333 8 -45 22.333 -59 43s-21 46.667 -21 78v301h-99v49h59c14 0 25.167 3.66699 33.5 11s12.5 20.333 12.5 39v110h54v-160h123v-49z" />
    <glyph glyph-name="Tcaron" unicode="&#x164;" horiz-adv-x="473" 
d="M273 731h-75l-96 109h48l86 -82l85 82h49zM454 686v-56h-187v-630h-62v630h-187v56h436z" />
    <glyph glyph-name="tcaron" unicode="&#x165;" horiz-adv-x="323" 
d="M272 548l60 302h60l-73 -302h-47zM251 0c-38 0 -68.333 11.333 -91 34s-34 54 -34 94v301h-99v49h59c14 0 25.167 3.66699 33.5 11s12.5 20.333 12.5 39v110h54v-160h123v-49h-123v-294c0 -28 7.5 -49.167 22.5 -63.5s34.5 -21.5 58.5 -21.5h42v-50h-58z" />
    <glyph glyph-name="Tbar" unicode="&#x166;" horiz-adv-x="473" 
d="M454 630h-187v-265h116v-42h-116v-323h-62v323h-114v42h114v265h-187v56h436v-56z" />
    <glyph glyph-name="tbar" unicode="&#x167;" horiz-adv-x="348" 
d="M312 219h-126v-84c0 -28 7.5 -49.167 22.5 -63.5s34.5 -21.5 58.5 -21.5h42v-50h-58c-38 -0 -68.333 11.333 -91 34s-34 54 -34 94v91h-103v42h103v168h-99v49h59c14 0 25.167 3.66699 33.5 11s12.5 20.333 12.5 39v110h54v-160h123v-49h-123v-168h126v-42z" />
    <glyph glyph-name="Utilde" unicode="&#x168;" horiz-adv-x="655" 
d="M398 716c-23.333 0 -40.998 5.33203 -52.998 15.999s-22.333 21.667 -31 33c-8 10.667 -16.167 19.667 -24.5 27s-20.166 11 -35.499 11c-17.333 0 -31 -7.16699 -41 -21.5s-15 -33.166 -15 -56.499h-35c0 34 8.5 62 25.5 84s39.5 33 67.5 33
c23.333 0 41.166 -5.5 53.499 -16.5s23.166 -22.167 32.499 -33.5c7.33301 -10 15.166 -18.833 23.499 -26.5s20.166 -11.5 35.499 -11.5c16.667 0 29.834 7.33301 39.501 22s14.5 33.667 14.5 57h36c0 -34 -8.5 -62 -25.5 -84s-39.5 -33 -67.5 -33zM328.002 -11.001
c-36.667 0 -70.501 5.5 -101.501 16.5s-57.833 27 -80.5 48s-40.167 46.667 -52.5 77s-18.5 64.5 -18.5 102.5v453h61v-447c0 -30 4.66699 -57 14 -81s22.5 -44.333 39.5 -61s37.167 -29.334 60.5 -38.001s49.333 -13 78 -13c28 0 53.833 4.33301 77.5 13
s43.834 21.334 60.501 38.001s29.667 37 39 61s14 51 14 81v447h62v-453c0 -38 -6.33301 -72.167 -19 -102.5s-30.167 -56 -52.5 -77s-49 -37 -80 -48s-64.833 -16.5 -101.5 -16.5z" />
    <glyph glyph-name="utilde" unicode="&#x169;" horiz-adv-x="530" 
d="M189 625c-17.333 0 -30.998 -7.16797 -40.998 -21.501s-15 -33.166 -15 -56.499h-35c0 34 8.5 62 25.5 84s39.5 33 67.5 33c23.333 0 41.166 -5.5 53.499 -16.5s23.166 -22.167 32.499 -33.5c7.33301 -10 15.166 -18.833 23.499 -26.5s20.166 -11.5 35.499 -11.5
c16.667 0 29.834 7.33301 39.501 22s14.5 33.667 14.5 57h36c0 -34 -8.5 -62 -25.5 -84s-39.5 -33 -67.5 -33c-23.333 0 -41 5.33301 -53 16s-22.333 21.667 -31 33c-8 10.667 -16.167 19.667 -24.5 27s-20.166 11 -35.499 11zM394.002 477.999l60 -0.000976562v-478h-60v72
c-15.333 -25.333 -35.833 -45.333 -61.5 -60s-55.5 -22 -89.5 -22c-56 0 -99 15.333 -129 46s-45 73.334 -45 128.001v314h60v-305c0 -44 11.333 -77.167 34 -99.5s54 -33.5 94 -33.5s72.833 13.5 98.5 40.5s38.5 65.833 38.5 116.5v281z" />
    <glyph glyph-name="Umacron" unicode="&#x16a;" horiz-adv-x="655" 
d="M170 766v43h315v-43h-315zM328 -11c-36.667 0 -70.501 5.5 -101.501 16.5s-57.833 27 -80.5 48s-40.167 46.667 -52.5 77s-18.5 64.5 -18.5 102.5v453h61v-447c0 -30 4.66699 -57 14 -81s22.5 -44.333 39.5 -61s37.167 -29.334 60.5 -38.001s49.333 -13 78 -13
c28 0 53.833 4.33301 77.5 13s43.834 21.334 60.501 38.001s29.667 37 39 61s14 51 14 81v447h62v-453c0 -38 -6.33301 -72.167 -19 -102.5s-30.167 -56 -52.5 -77s-49 -37 -80 -48s-64.833 -16.5 -101.5 -16.5z" />
    <glyph glyph-name="umacron" unicode="&#x16b;" horiz-adv-x="530" 
d="M375 626v-43h-225v43h225zM394 478l60 -0.000976562v-478h-60v72c-15.333 -25.333 -35.833 -45.333 -61.5 -60s-55.5 -22 -89.5 -22c-56 0 -99 15.333 -129 46s-45 73.334 -45 128.001v314h60v-305c0 -44 11.333 -77.167 34 -99.5s54 -33.5 94 -33.5
s72.833 13.5 98.5 40.5s38.5 65.833 38.5 116.5v281z" />
    <glyph glyph-name="Uring" unicode="&#x16e;" horiz-adv-x="655" 
d="M328 708c-15.333 0 -29.833 2.83301 -43.5 8.5s-25.667 13.5 -36 23.5s-18.5 21.833 -24.5 35.5s-9 28.167 -9 43.5c0 16 3 30.833 9 44.5s14 25.334 24 35.001s21.833 17.334 35.5 23.001s28.5 8.5 44.5 8.5c15.333 0 29.666 -2.83301 42.999 -8.5
s25 -13.334 35 -23.001s18 -21.334 24 -35.001s9 -28.5 9 -44.5c0 -15.333 -3 -29.833 -9 -43.5s-14 -25.5 -24 -35.5s-21.667 -17.833 -35 -23.5s-27.666 -8.5 -42.999 -8.5zM328 743c20.667 0 38.5 7.33301 53.5 22s22.5 32.667 22.5 54s-7.33301 39.5 -22 54.5
s-32.667 22.5 -54 22.5s-39.5 -7.5 -54.5 -22.5s-22.5 -33.167 -22.5 -54.5s7.5 -39.333 22.5 -54s33.167 -22 54.5 -22zM328 -11c-36.667 0 -70.501 5.5 -101.501 16.5s-57.833 27 -80.5 48s-40.167 46.667 -52.5 77s-18.5 64.5 -18.5 102.5v453h61v-447
c0 -30 4.66699 -57 14 -81s22.5 -44.333 39.5 -61s37.167 -29.334 60.5 -38.001s49.333 -13 78 -13c28 0 53.833 4.33301 77.5 13s43.834 21.334 60.501 38.001s29.667 37 39 61s14 51 14 81v447h62v-453c0 -38 -6.33301 -72.167 -19 -102.5s-30.167 -56 -52.5 -77
s-49 -37 -80 -48s-64.833 -16.5 -101.5 -16.5z" />
    <glyph glyph-name="uring" unicode="&#x16f;" horiz-adv-x="530" 
d="M262 544c-16 0 -30.666 2.83301 -43.999 8.5s-24.833 13.5 -34.5 23.5s-17.334 21.667 -23.001 35s-8.5 27.333 -8.5 42c0 15.333 2.66699 29.5 8 42.5s13 24.5 23 34.5s21.667 17.833 35 23.5s28 8.5 44 8.5s30.667 -2.83301 44 -8.5s24.833 -13.5 34.5 -23.5
s17.167 -21.5 22.5 -34.5s8 -27.167 8 -42.5c0 -14.667 -2.83301 -28.667 -8.5 -42s-13.334 -25 -23.001 -35s-21.167 -17.833 -34.5 -23.5s-27.666 -8.5 -42.999 -8.5zM262.001 726c-20.667 0 -38.167 -6.83301 -52.5 -20.5s-21.5 -31.167 -21.5 -52.5
c0 -20 7.33301 -37.167 22 -51.5s32 -21.5 52 -21.5s37.167 7.16699 51.5 21.5s21.5 31.5 21.5 51.5c0 21.333 -7.16699 38.833 -21.5 52.5s-31.5 20.5 -51.5 20.5zM394.001 478l60 -0.000976562v-478h-60v72c-15.333 -25.333 -35.833 -45.333 -61.5 -60
s-55.5 -22 -89.5 -22c-56 0 -99 15.333 -129 46s-45 73.334 -45 128.001v314h60v-305c0 -44 11.333 -77.167 34 -99.5s54 -33.5 94 -33.5s72.833 13.5 98.5 40.5s38.5 65.833 38.5 116.5v281z" />
    <glyph glyph-name="Uhungarumlaut" unicode="&#x170;" horiz-adv-x="655" 
d="M231 716l81 124h62l-92 -124h-51zM373 716l82 124h62l-93 -124h-51zM328 -11c-36.667 0 -70.501 5.5 -101.501 16.5s-57.833 27 -80.5 48s-40.167 46.667 -52.5 77s-18.5 64.5 -18.5 102.5v453h61v-447c0 -30 4.66699 -57 14 -81s22.5 -44.333 39.5 -61
s37.167 -29.334 60.5 -38.001s49.333 -13 78 -13c28 0 53.833 4.33301 77.5 13s43.834 21.334 60.501 38.001s29.667 37 39 61s14 51 14 81v447h62v-453c0 -38 -6.33301 -72.167 -19 -102.5s-30.167 -56 -52.5 -77s-49 -37 -80 -48s-64.833 -16.5 -101.5 -16.5z" />
    <glyph glyph-name="uhungarumlaut" unicode="&#x171;" horiz-adv-x="530" 
d="M325 686l-108 -146h-51l96 146h63zM359 540h-51l96 146h63zM394 478l60 -0.000976562v-478h-60v72c-15.333 -25.333 -35.833 -45.333 -61.5 -60s-55.5 -22 -89.5 -22c-56 0 -99 15.333 -129 46s-45 73.334 -45 128.001v314h60v-305c0 -44 11.333 -77.167 34 -99.5
s54 -33.5 94 -33.5s72.833 13.5 98.5 40.5s38.5 65.833 38.5 116.5v281z" />
    <glyph glyph-name="Uogonek" unicode="&#x172;" horiz-adv-x="655" 
d="M519 686h62v-453c0 -64 -16.667 -116.167 -50 -156.5s-77.333 -66.833 -132 -79.5c-30.667 -16.667 -55.834 -36.5 -75.501 -59.5s-29.5 -44.167 -29.5 -63.5c0 -12.667 5.66699 -22.667 17 -30s26.666 -11 45.999 -11c16 0 32 3 48 9v-42c-18.667 -6 -38 -9 -58 -9
c-28 0 -51 6 -69 18s-27 29 -27 51c0 21.333 8.33301 43.333 25 66s38.334 43.667 65.001 63h-13c-36.667 0 -70.5 5.5 -101.5 16.5s-57.833 27 -80.5 48s-40.167 46.667 -52.5 77s-18.5 64.5 -18.5 102.5v453h61v-447c0 -30 4.66699 -57 14 -81s22.5 -44.333 39.5 -61
s37.167 -29.334 60.5 -38.001s49.333 -13 78 -13c28 0 53.833 4.33301 77.5 13s43.834 21.334 60.501 38.001s29.667 37 39 61s14 51 14 81v447z" />
    <glyph glyph-name="uogonek" unicode="&#x173;" horiz-adv-x="530" 
d="M454 0c-32 -16.667 -58.499 -36.834 -79.499 -60.501s-31.5 -45.5 -31.5 -65.5c0 -12.667 5.66699 -22.667 17 -30s26.666 -11 45.999 -11c16 0 32 3 48 9v-42c-18.667 -6 -38 -9 -58 -9c-28 0 -51 6 -69 18s-27 29 -27 51c0 23.333 10 47.5 30 72.5s45.333 47.5 76 67.5
h-12v72c-15.333 -25.333 -35.833 -45.333 -61.5 -60s-55.5 -22 -89.5 -22c-56 0 -99 15.333 -129 46s-45 73.334 -45 128.001v314h60v-305c0 -44 11.333 -77.167 34 -99.5s54 -33.5 94 -33.5s72.833 13.5 98.5 40.5s38.5 65.833 38.5 116.5v281h60v-478z" />
    <glyph glyph-name="Wcircumflex" unicode="&#x174;" horiz-adv-x="977" 
d="M488 813l-86 -82h-48l96 109h75l97 -109h-49zM884 686h65l-200 -686h-86l-175 588l-175 -588h-85l-200 686h64l182 -626l183 626h63l182 -628z" />
    <glyph glyph-name="wcircumflex" unicode="&#x175;" horiz-adv-x="810" 
d="M405 652l-82 -112h-48l96 146h68l96 -146h-48zM716 478h63l-171 -478h-70l-133 412l-132 -412h-71l-172 478h63l146 -415l136 415h60l136 -416z" />
    <glyph glyph-name="Ycircumflex" unicode="&#x176;" horiz-adv-x="568" 
d="M284 813l-86 -82h-48l96 109h75l97 -109h-49zM552 686l-237 -366v-320h-62v319l-238 367h68l201 -312l200 312h68z" />
    <glyph glyph-name="ycircumflex" unicode="&#x177;" horiz-adv-x="513" 
d="M258 652l-82 -112h-48l96 146h68l96 -146h-48zM420 478h64l-300 -721h-65l107 252l-197 469h64l163 -408z" />
    <glyph glyph-name="Ydieresis" unicode="&#x178;" horiz-adv-x="568" 
d="M203 739c-13.333 0 -24.5 4.5 -33.5 13.5s-13.5 20.167 -13.5 33.5s4.5 24.333 13.5 33s20.167 13 33.5 13c12.667 0 23.5 -4.33301 32.5 -13s13.5 -19.667 13.5 -33s-4.5 -24.5 -13.5 -33.5s-19.833 -13.5 -32.5 -13.5zM365 739c-13.333 0 -24.5 4.5 -33.5 13.5
s-13.5 20.167 -13.5 33.5s4.5 24.333 13.5 33s20.167 13 33.5 13c12.667 0 23.5 -4.33301 32.5 -13s13.5 -19.667 13.5 -33s-4.5 -24.5 -13.5 -33.5s-19.833 -13.5 -32.5 -13.5zM552 686l-237 -366v-320h-62v319l-238 367h68l201 -312l200 312h68z" />
    <glyph glyph-name="Zacute" unicode="&#x179;" horiz-adv-x="570" 
d="M410 840l-92 -124h-51l79 124h64zM106 56h429v-56h-500v55l423 575h-422v56h494v-55z" />
    <glyph glyph-name="zacute" unicode="&#x17a;" horiz-adv-x="465" 
d="M363 686l-108 -146h-51l93 146h66zM431 478l-301 -429h295v-49h-392l301 429h-279v49h376z" />
    <glyph glyph-name="Zdotaccent" unicode="&#x17b;" horiz-adv-x="570" 
d="M293 739c-13.333 0 -24.5 4.5 -33.5 13.5s-13.5 20.167 -13.5 33.5s4.5 24.333 13.5 33s20.167 13 33.5 13c12.667 0 23.5 -4.33301 32.5 -13s13.5 -19.667 13.5 -33s-4.5 -24.5 -13.5 -33.5s-19.833 -13.5 -32.5 -13.5zM106 56h429v-56h-500v55l423 575h-422v56h494v-55
z" />
    <glyph glyph-name="zdotaccent" unicode="&#x17c;" horiz-adv-x="465" 
d="M236 611c-13.333 0 -24.5 4.5 -33.5 13.5s-13.5 19.833 -13.5 32.5c0 13.333 4.5 24.5 13.5 33.5s20.167 13.5 33.5 13.5c12.667 0 23.5 -4.5 32.5 -13.5s13.5 -20.167 13.5 -33.5c0 -12.667 -4.5 -23.5 -13.5 -32.5s-19.833 -13.5 -32.5 -13.5zM431 478l-301 -429h295
v-49h-392l301 429h-279v49h376z" />
    <glyph glyph-name="Zcaron" unicode="&#x17d;" horiz-adv-x="570" 
d="M329 731h-75l-96 109h48l86 -82l85 82h49zM106 56h429v-56h-500v55l423 575h-422v56h494v-55z" />
    <glyph glyph-name="zcaron" unicode="&#x17e;" horiz-adv-x="465" 
d="M269 540h-68l-96 146h48l82 -113l82 113h48zM431 478l-301 -429h295v-49h-392l301 429h-279v49h376z" />
    <glyph glyph-name="florin" unicode="&#x192;" horiz-adv-x="389" 
d="M339 700c-30 0 -54.5 -8.83301 -73.5 -26.5s-28.5 -47.834 -28.5 -90.501v-105h124v-49h-124v-429c0 -60 -14.167 -102.833 -42.5 -128.5s-67.5 -38.5 -117.5 -38.5h-23v50h23c30 0 54.333 8.83301 73 26.5s28 47.834 28 90.501v429h-100v49h100v105
c0 60 14.167 102.833 42.5 128.5s67.833 38.5 118.5 38.5h22v-50h-22z" />
    <glyph glyph-name="Ohorn" unicode="&#x1a0;" horiz-adv-x="787" 
d="M728 692l45.001 -0.000976562v-55c0 -32.667 -7 -56.667 -21 -72s-32.333 -23 -55 -23c-6.66699 0 -11.667 0.333008 -15 1c16.667 -28 29.5 -58.667 38.5 -92s13.5 -69.333 13.5 -108c0 -52.667 -8.33301 -100.667 -25 -144s-40 -80.5 -70 -111.5
s-66 -55.167 -108 -72.5s-88 -26 -138 -26s-96 8.66699 -138 26s-78 41.5 -108 72.5s-53.333 68.167 -70 111.5s-25 91.333 -25 144s8.33301 100.667 25 144s40 80.5 70 111.5s66 55.167 108 72.5s88 26 138 26c54 0 102.833 -9.66699 146.5 -29s80.5 -46.666 110.5 -81.999
c14 -6 27 -9 39 -9c17.333 0 28.166 5.5 32.499 16.5s6.5 27.167 6.5 48.5v50zM393.001 45.999c41.333 0 79.166 7.16699 113.499 21.5s63.833 34.5 88.5 60.5s43.667 57.333 57 94s20 77 20 121s-6.66699 84.333 -20 121s-32.333 68 -57 94s-54.167 46.167 -88.5 60.5
s-72.166 21.5 -113.499 21.5s-79.166 -7.16699 -113.499 -21.5s-63.666 -34.5 -87.999 -60.5s-43.333 -57.333 -57 -94s-20.5 -77 -20.5 -121s6.83301 -84.333 20.5 -121s32.667 -68 57 -94s53.666 -46.167 87.999 -60.5s72.166 -21.5 113.499 -21.5z" />
    <glyph glyph-name="ohorn" unicode="&#x1a1;" horiz-adv-x="585" 
d="M536 530h45.001v-55c0 -32.667 -7 -56.667 -21 -72s-32.333 -23 -55 -23c-4.66699 0 -8 0.333008 -10 1c24.667 -40 37 -87 37 -141c0 -37.333 -6 -71.333 -18 -102s-28.5 -57 -49.5 -79s-46.167 -39 -75.5 -51s-61.666 -18 -96.999 -18c-34.667 0 -66.667 6 -96 18
s-54.5 29 -75.5 51s-37.5 48.333 -49.5 79s-18 64.667 -18 102c0 36.667 6 70.167 18 100.5s28.5 56.5 49.5 78.5s46.167 39 75.5 51s61.333 18 96 18c34 0 65.167 -5.66699 93.5 -17s53.166 -27.333 74.499 -48c14 -5.33301 26.333 -8 37 -8
c17.333 0 28.166 5.5 32.499 16.5s6.5 27.167 6.5 48.5v50zM292.001 40c26.667 0 51 5 73 15s41 23.833 57 41.5s28.333 38.667 37 63s13 51.166 13 80.499c0 28.667 -4.33301 55.167 -13 79.5s-21 45.166 -37 62.499s-35 31 -57 41s-46.333 15 -73 15s-51 -5 -73 -15
s-41 -23.667 -57 -41s-28.333 -38.166 -37 -62.499s-13 -50.833 -13 -79.5c0 -29.333 4.33301 -56.166 13 -80.499s21 -45.333 37 -63s35 -31.5 57 -41.5s46.333 -15 73 -15z" />
    <glyph glyph-name="Uhorn" unicode="&#x1af;" horiz-adv-x="655" 
d="M668 750h45v-55c0 -32.667 -7 -56.667 -21 -72s-32.333 -23 -55 -23c-17.333 0 -36 4.66699 -56 14v-381c0 -38 -6.33301 -72.167 -19 -102.5s-30.167 -56 -52.5 -77s-49 -37 -80 -48s-64.833 -16.5 -101.5 -16.5s-70.5 5.5 -101.5 16.5s-57.833 27 -80.5 48
s-40.167 46.667 -52.5 77s-18.5 64.5 -18.5 102.5v453h61v-447c0 -30 4.66699 -57 14 -81s22.5 -44.333 39.5 -61s37.167 -29.334 60.5 -38.001s49.333 -13 78 -13c28 0 53.833 4.33301 77.5 13s43.834 21.334 60.501 38.001s29.667 37 39 61s14 51 14 81v447h62v-37
c17.333 -9.33301 33.333 -14 48 -14c17.333 0 28.166 5.5 32.499 16.5s6.5 27.167 6.5 48.5v50z" />
    <glyph glyph-name="uhorn" unicode="&#x1b0;" horiz-adv-x="530" 
d="M537 542l45.001 -0.000976562v-55c0 -32.667 -7 -56.667 -21 -72s-32.333 -23 -55 -23c-16.667 0 -34 4 -52 12v-404h-60v72c-15.333 -25.333 -35.833 -45.333 -61.5 -60s-55.5 -22 -89.5 -22c-56 0 -99 15.333 -129 46s-45 73.334 -45 128.001v314h60v-305
c0 -44 11.333 -77.167 34 -99.5s54 -33.5 94 -33.5s72.833 13.5 98.5 40.5s38.5 65.833 38.5 116.5v281h60v-39c16 -8 30.667 -12 44 -12c17.333 0 28.166 5.5 32.499 16.5s6.5 27.167 6.5 48.5v50z" />
    <glyph glyph-name="uni01CD" unicode="&#x1cd;" horiz-adv-x="655" 
d="M365 731h-75l-96 109h48l86 -82l85 82h49zM568 0l-68 177h-345l-68 -177h-65l266 686h79l266 -686h-65zM175 230h305l-152 395z" />
    <glyph glyph-name="uni01CE" unicode="&#x1ce;" horiz-adv-x="506" 
d="M283 540h-68l-96 146h48l82 -113l82 113h48zM491 50l-0.000976562 -49.998h-32c-23.333 0 -41.5 5.66699 -54.5 17s-19.5 29.666 -19.5 54.999v28h-4c-15.333 -35.333 -38.5 -62.5 -69.5 -81.5s-68.5 -28.5 -112.5 -28.5c-42.667 0 -77.5 10.667 -104.5 32
s-40.5 53 -40.5 95c0 46 16 80.833 48 104.5s76 40.167 132 49.5l106 18c9.33301 1.33301 17.333 4.5 24 9.5s10 12.167 10 21.5c0 40 -10.833 70.333 -32.5 91s-52.167 31 -91.5 31c-76.667 0 -119.334 -35 -128.001 -105l-59 8c7.33301 48 26.833 83.833 58.5 107.5
s74.834 35.5 129.501 35.5c58.667 0 103.834 -14.833 135.501 -44.5s47.5 -72.834 47.5 -129.501v-214c0 -18.667 2.83301 -31.667 8.5 -39s16.167 -11 31.5 -11h17zM211.999 39.002c52 0 92.5 18.333 121.5 55s43.5 89.334 43.5 158.001l-139 -26
c-82.667 -12.667 -124 -47.334 -124 -104.001c0 -26.667 8.5 -47.167 25.5 -61.5s41.167 -21.5 72.5 -21.5z" />
    <glyph glyph-name="uni01CF" unicode="&#x1cf;" horiz-adv-x="227" 
d="M75 731l-97 109h49l86 -82l85 82h49l-97 -109h-75zM83 0v686h61v-686h-61z" />
    <glyph glyph-name="uni01D0" unicode="&#x1d0;" horiz-adv-x="209" 
d="M70 540l-97 146h49l82 -113l82 113h48l-96 -146h-68zM75 0v478h59v-478h-59z" />
    <glyph glyph-name="uni01D1" unicode="&#x1d1;" horiz-adv-x="787" 
d="M355 731l-96 109h48l86 -82l85 82h49l-97 -109h-75zM393 -11c-50 0 -96 8.66699 -138 26s-78 41.5 -108 72.5s-53.333 68.167 -70 111.5s-25 91.333 -25 144s8.33301 100.667 25 144s40 80.5 70 111.5s66 55.167 108 72.5s88 26 138 26s96 -8.66699 138 -26
s78 -41.5 108 -72.5s53.333 -68.167 70 -111.5s25 -91.333 25 -144s-8.33301 -100.667 -25 -144s-40 -80.5 -70 -111.5s-66 -55.167 -108 -72.5s-88 -26 -138 -26zM393 46c41.333 0 79.166 7.16699 113.499 21.5s63.833 34.5 88.5 60.5s43.667 57.333 57 94s20 77 20 121
s-6.66699 84.333 -20 121s-32.333 68 -57 94s-54.167 46.167 -88.5 60.5s-72.166 21.5 -113.499 21.5s-79.166 -7.16699 -113.499 -21.5s-63.666 -34.5 -87.999 -60.5s-43.333 -57.333 -57 -94s-20.5 -77 -20.5 -121s6.83301 -84.333 20.5 -121s32.667 -68 57 -94
s53.666 -46.167 87.999 -60.5s72.166 -21.5 113.499 -21.5z" />
    <glyph glyph-name="uni01D2" unicode="&#x1d2;" horiz-adv-x="585" 
d="M258 540l-96 146h48l82 -113l82 113h48l-96 -146h-68zM292 -10c-34.667 0 -66.667 6 -96 18s-54.5 29 -75.5 51s-37.5 48.333 -49.5 79s-18 64.667 -18 102c0 36.667 6 70.167 18 100.5s28.5 56.5 49.5 78.5s46.167 39 75.5 51s61.333 18 96 18
c35.333 0 67.666 -6 96.999 -18s54.5 -29 75.5 -51s37.5 -48.167 49.5 -78.5s18 -63.833 18 -100.5c0 -37.333 -6 -71.333 -18 -102s-28.5 -57 -49.5 -79s-46.167 -39 -75.5 -51s-61.666 -18 -96.999 -18zM292 40c26.667 0 51 5 73 15s41 23.833 57 41.5
s28.333 38.667 37 63s13 51.166 13 80.499c0 28.667 -4.33301 55.167 -13 79.5s-21 45.166 -37 62.499s-35 31 -57 41s-46.333 15 -73 15s-51 -5 -73 -15s-41 -23.667 -57 -41s-28.333 -38.166 -37 -62.499s-13 -50.833 -13 -79.5c0 -29.333 4.33301 -56.166 13 -80.499
s21 -45.333 37 -63s35 -31.5 57 -41.5s46.333 -15 73 -15z" />
    <glyph glyph-name="uni01D3" unicode="&#x1d3;" horiz-adv-x="655" 
d="M289 731l-96 109h48l86 -82l85 82h49l-97 -109h-75zM328 -11c-36.667 0 -70.501 5.5 -101.501 16.5s-57.833 27 -80.5 48s-40.167 46.667 -52.5 77s-18.5 64.5 -18.5 102.5v453h61v-447c0 -30 4.66699 -57 14 -81s22.5 -44.333 39.5 -61s37.167 -29.334 60.5 -38.001
s49.333 -13 78 -13c28 0 53.833 4.33301 77.5 13s43.834 21.334 60.501 38.001s29.667 37 39 61s14 51 14 81v447h62v-453c0 -38 -6.33301 -72.167 -19 -102.5s-30.167 -56 -52.5 -77s-49 -37 -80 -48s-64.833 -16.5 -101.5 -16.5z" />
    <glyph glyph-name="uni01D4" unicode="&#x1d4;" horiz-adv-x="530" 
d="M296 540h-68l-96 146h48l82 -113l82 113h48zM394 478l60 -0.000976562v-478h-60v72c-15.333 -25.333 -35.833 -45.333 -61.5 -60s-55.5 -22 -89.5 -22c-56 0 -99 15.333 -129 46s-45 73.334 -45 128.001v314h60v-305c0 -44 11.333 -77.167 34 -99.5s54 -33.5 94 -33.5
s72.833 13.5 98.5 40.5s38.5 65.833 38.5 116.5v281z" />
    <glyph glyph-name="uni01D5" unicode="&#x1d5;" horiz-adv-x="655" 
d="M170 912v43h315v-43h-315zM247 739c-13.333 0 -24.5 4.5 -33.5 13.5s-13.5 20.167 -13.5 33.5s4.5 24.333 13.5 33s20.167 13 33.5 13c12.667 0 23.5 -4.33301 32.5 -13s13.5 -19.667 13.5 -33s-4.5 -24.5 -13.5 -33.5s-19.833 -13.5 -32.5 -13.5zM409 739
c-13.333 0 -24.5 4.5 -33.5 13.5s-13.5 20.167 -13.5 33.5s4.5 24.333 13.5 33s20.167 13 33.5 13c12.667 0 23.5 -4.33301 32.5 -13s13.5 -19.667 13.5 -33s-4.5 -24.5 -13.5 -33.5s-19.833 -13.5 -32.5 -13.5zM328 -11c-36.667 0 -70.501 5.5 -101.501 16.5
s-57.833 27 -80.5 48s-40.167 46.667 -52.5 77s-18.5 64.5 -18.5 102.5v453h61v-447c0 -30 4.66699 -57 14 -81s22.5 -44.333 39.5 -61s37.167 -29.334 60.5 -38.001s49.333 -13 78 -13c28 0 53.833 4.33301 77.5 13s43.834 21.334 60.501 38.001s29.667 37 39 61
s14 51 14 81v447h62v-453c0 -38 -6.33301 -72.167 -19 -102.5s-30.167 -56 -52.5 -77s-49 -37 -80 -48s-64.833 -16.5 -101.5 -16.5z" />
    <glyph glyph-name="uni01D6" unicode="&#x1d6;" horiz-adv-x="530" 
d="M375 842v-43h-225v43h225zM181 611c-13.333 0 -24.5 4.5 -33.5 13.5s-13.5 19.833 -13.5 32.5c0 13.333 4.5 24.5 13.5 33.5s20.167 13.5 33.5 13.5c12.667 0 23.5 -4.5 32.5 -13.5s13.5 -20.167 13.5 -33.5c0 -12.667 -4.5 -23.5 -13.5 -32.5s-19.833 -13.5 -32.5 -13.5
zM343 704c12.667 0 23.5 -4.5 32.5 -13.5s13.5 -20.167 13.5 -33.5c0 -12.667 -4.5 -23.5 -13.5 -32.5s-19.833 -13.5 -32.5 -13.5c-13.333 0 -24.5 4.5 -33.5 13.5s-13.5 19.833 -13.5 32.5c0 13.333 4.5 24.5 13.5 33.5s20.167 13.5 33.5 13.5zM394 478l60 -0.000976562
v-478h-60v72c-15.333 -25.333 -35.833 -45.333 -61.5 -60s-55.5 -22 -89.5 -22c-56 0 -99 15.333 -129 46s-45 73.334 -45 128.001v314h60v-305c0 -44 11.333 -77.167 34 -99.5s54 -33.5 94 -33.5s72.833 13.5 98.5 40.5s38.5 65.833 38.5 116.5v281z" />
    <glyph glyph-name="uni01D7" unicode="&#x1d7;" horiz-adv-x="655" 
d="M302 862l79 124h64l-92 -124h-51zM247 739c-13.333 0 -24.5 4.5 -33.5 13.5s-13.5 20.167 -13.5 33.5s4.5 24.333 13.5 33s20.167 13 33.5 13c12.667 0 23.5 -4.33301 32.5 -13s13.5 -19.667 13.5 -33s-4.5 -24.5 -13.5 -33.5s-19.833 -13.5 -32.5 -13.5zM409 739
c-13.333 0 -24.5 4.5 -33.5 13.5s-13.5 20.167 -13.5 33.5s4.5 24.333 13.5 33s20.167 13 33.5 13c12.667 0 23.5 -4.33301 32.5 -13s13.5 -19.667 13.5 -33s-4.5 -24.5 -13.5 -33.5s-19.833 -13.5 -32.5 -13.5zM328 -11c-36.667 0 -70.501 5.5 -101.501 16.5
s-57.833 27 -80.5 48s-40.167 46.667 -52.5 77s-18.5 64.5 -18.5 102.5v453h61v-447c0 -30 4.66699 -57 14 -81s22.5 -44.333 39.5 -61s37.167 -29.334 60.5 -38.001s49.333 -13 78 -13c28 0 53.833 4.33301 77.5 13s43.834 21.334 60.501 38.001s29.667 37 39 61
s14 51 14 81v447h62v-453c0 -38 -6.33301 -72.167 -19 -102.5s-30.167 -56 -52.5 -77s-49 -37 -80 -48s-64.833 -16.5 -101.5 -16.5z" />
    <glyph glyph-name="uni01D8" unicode="&#x1d8;" horiz-adv-x="530" 
d="M390 902l-108 -146h-51l93 146h66zM181 611c-13.333 0 -24.5 4.5 -33.5 13.5s-13.5 19.833 -13.5 32.5c0 13.333 4.5 24.5 13.5 33.5s20.167 13.5 33.5 13.5c12.667 0 23.5 -4.5 32.5 -13.5s13.5 -20.167 13.5 -33.5c0 -12.667 -4.5 -23.5 -13.5 -32.5
s-19.833 -13.5 -32.5 -13.5zM296 657c0 13.333 4.5 24.5 13.5 33.5s20.167 13.5 33.5 13.5c12.667 0 23.5 -4.5 32.5 -13.5s13.5 -20.167 13.5 -33.5c0 -12.667 -4.5 -23.5 -13.5 -32.5s-19.833 -13.5 -32.5 -13.5c-13.333 0 -24.5 4.5 -33.5 13.5s-13.5 19.833 -13.5 32.5z
M394 478l60 -0.000976562v-478h-60v72c-15.333 -25.333 -35.833 -45.333 -61.5 -60s-55.5 -22 -89.5 -22c-56 0 -99 15.333 -129 46s-45 73.334 -45 128.001v314h60v-305c0 -44 11.333 -77.167 34 -99.5s54 -33.5 94 -33.5s72.833 13.5 98.5 40.5s38.5 65.833 38.5 116.5
v281z" />
    <glyph glyph-name="uni01D9" unicode="&#x1d9;" horiz-adv-x="655" 
d="M289 877l-96 109h48l86 -82l85 82h49l-97 -109h-75zM247 739c-13.333 0 -24.5 4.5 -33.5 13.5s-13.5 20.167 -13.5 33.5s4.5 24.333 13.5 33s20.167 13 33.5 13c12.667 0 23.5 -4.33301 32.5 -13s13.5 -19.667 13.5 -33s-4.5 -24.5 -13.5 -33.5
s-19.833 -13.5 -32.5 -13.5zM409 739c-13.333 0 -24.5 4.5 -33.5 13.5s-13.5 20.167 -13.5 33.5s4.5 24.333 13.5 33s20.167 13 33.5 13c12.667 0 23.5 -4.33301 32.5 -13s13.5 -19.667 13.5 -33s-4.5 -24.5 -13.5 -33.5s-19.833 -13.5 -32.5 -13.5zM328 -11
c-36.667 0 -70.501 5.5 -101.501 16.5s-57.833 27 -80.5 48s-40.167 46.667 -52.5 77s-18.5 64.5 -18.5 102.5v453h61v-447c0 -30 4.66699 -57 14 -81s22.5 -44.333 39.5 -61s37.167 -29.334 60.5 -38.001s49.333 -13 78 -13c28 0 53.833 4.33301 77.5 13
s43.834 21.334 60.501 38.001s29.667 37 39 61s14 51 14 81v447h62v-453c0 -38 -6.33301 -72.167 -19 -102.5s-30.167 -56 -52.5 -77s-49 -37 -80 -48s-64.833 -16.5 -101.5 -16.5z" />
    <glyph glyph-name="uni01DA" unicode="&#x1da;" horiz-adv-x="530" 
d="M296 756h-68l-96 146h48l82 -113l82 113h48zM134 657c0 13.333 4.5 24.5 13.5 33.5s20.167 13.5 33.5 13.5c12.667 0 23.5 -4.5 32.5 -13.5s13.5 -20.167 13.5 -33.5c0 -12.667 -4.5 -23.5 -13.5 -32.5s-19.833 -13.5 -32.5 -13.5c-13.333 0 -24.5 4.5 -33.5 13.5
s-13.5 19.833 -13.5 32.5zM296 657c0 13.333 4.5 24.5 13.5 33.5s20.167 13.5 33.5 13.5c12.667 0 23.5 -4.5 32.5 -13.5s13.5 -20.167 13.5 -33.5c0 -12.667 -4.5 -23.5 -13.5 -32.5s-19.833 -13.5 -32.5 -13.5c-13.333 0 -24.5 4.5 -33.5 13.5s-13.5 19.833 -13.5 32.5z
M394 478l60 -0.000976562v-478h-60v72c-15.333 -25.333 -35.833 -45.333 -61.5 -60s-55.5 -22 -89.5 -22c-56 0 -99 15.333 -129 46s-45 73.334 -45 128.001v314h60v-305c0 -44 11.333 -77.167 34 -99.5s54 -33.5 94 -33.5s72.833 13.5 98.5 40.5s38.5 65.833 38.5 116.5
v281z" />
    <glyph glyph-name="uni01DB" unicode="&#x1db;" horiz-adv-x="655" 
d="M302 862l-92 124h64l79 -124h-51zM247 739c-13.333 0 -24.5 4.5 -33.5 13.5s-13.5 20.167 -13.5 33.5s4.5 24.333 13.5 33s20.167 13 33.5 13c12.667 0 23.5 -4.33301 32.5 -13s13.5 -19.667 13.5 -33s-4.5 -24.5 -13.5 -33.5s-19.833 -13.5 -32.5 -13.5zM409 739
c-13.333 0 -24.5 4.5 -33.5 13.5s-13.5 20.167 -13.5 33.5s4.5 24.333 13.5 33s20.167 13 33.5 13c12.667 0 23.5 -4.33301 32.5 -13s13.5 -19.667 13.5 -33s-4.5 -24.5 -13.5 -33.5s-19.833 -13.5 -32.5 -13.5zM328 -11c-36.667 0 -70.501 5.5 -101.501 16.5
s-57.833 27 -80.5 48s-40.167 46.667 -52.5 77s-18.5 64.5 -18.5 102.5v453h61v-447c0 -30 4.66699 -57 14 -81s22.5 -44.333 39.5 -61s37.167 -29.334 60.5 -38.001s49.333 -13 78 -13c28 0 53.833 4.33301 77.5 13s43.834 21.334 60.501 38.001s29.667 37 39 61
s14 51 14 81v447h62v-453c0 -38 -6.33301 -72.167 -19 -102.5s-30.167 -56 -52.5 -77s-49 -37 -80 -48s-64.833 -16.5 -101.5 -16.5z" />
    <glyph glyph-name="uni01DC" unicode="&#x1dc;" horiz-adv-x="530" 
d="M294 756h-51l-108 146h65zM181 611c-13.333 0 -24.5 4.5 -33.5 13.5s-13.5 19.833 -13.5 32.5c0 13.333 4.5 24.5 13.5 33.5s20.167 13.5 33.5 13.5c12.667 0 23.5 -4.5 32.5 -13.5s13.5 -20.167 13.5 -33.5c0 -12.667 -4.5 -23.5 -13.5 -32.5s-19.833 -13.5 -32.5 -13.5
zM343 611c-13.333 0 -24.5 4.5 -33.5 13.5s-13.5 19.833 -13.5 32.5c0 13.333 4.5 24.5 13.5 33.5s20.167 13.5 33.5 13.5c12.667 0 23.5 -4.5 32.5 -13.5s13.5 -20.167 13.5 -33.5c0 -12.667 -4.5 -23.5 -13.5 -32.5s-19.833 -13.5 -32.5 -13.5zM394 478l60 -0.000976562
v-478h-60v72c-15.333 -25.333 -35.833 -45.333 -61.5 -60s-55.5 -22 -89.5 -22c-56 0 -99 15.333 -129 46s-45 73.334 -45 128.001v314h60v-305c0 -44 11.333 -77.167 34 -99.5s54 -33.5 94 -33.5s72.833 13.5 98.5 40.5s38.5 65.833 38.5 116.5v281z" />
    <glyph glyph-name="Gcaron" unicode="&#x1e6;" horiz-adv-x="775" 
d="M351 731l-96 109h48l86 -82l85 82h49l-97 -109h-75zM390 -11c-50 0 -95.668 8.66602 -137.001 25.999s-76.833 41.5 -106.5 72.5s-52.834 68.167 -69.501 111.5s-25 91.333 -25 144s8.33301 100.667 25 144s40 80.5 70 111.5s66 55.167 108 72.5s88 26 138 26
c66.667 0 125.334 -14.5 176.001 -43.5s90.334 -69.5 119.001 -121.5l-54 -29c-23.333 42.667 -55.833 76.167 -97.5 100.5s-89.5 36.5 -143.5 36.5c-41.333 0 -79.166 -7.16699 -113.499 -21.5s-63.666 -34.5 -87.999 -60.5s-43.333 -57.333 -57 -94s-20.5 -77 -20.5 -121
s6.66699 -84.333 20 -121s32.166 -68 56.499 -94s53.666 -46.167 87.999 -60.5s72.5 -21.5 114.5 -21.5c37.333 0 71 5.83301 101 17.5s56 28.334 78 50.001s39.667 48 53 79s22 65.5 26 103.5h-256v52h316v-348h-51v168c-21.333 -54.667 -54.5 -98.167 -99.5 -130.5
s-101.833 -48.5 -170.5 -48.5z" />
    <glyph glyph-name="gcaron" unicode="&#x1e7;" horiz-adv-x="599" 
d="M327 540h-68l-96 146h48l82 -113l82 113h48zM464 478l58.999 -0.00195312v-479c0 -81.333 -20.667 -143.166 -62 -185.499s-97.666 -63.5 -168.999 -63.5c-58 0 -105.833 13.5 -143.5 40.5s-65.167 62.833 -82.5 107.5l50 23c14.667 -38 36.667 -67.833 66 -89.5
s65.333 -32.5 108 -32.5c56.667 0 99.834 17.333 129.501 52s44.5 83 44.5 145v118c-15.333 -35.333 -39.333 -63.666 -72 -84.999s-71 -32 -115 -32c-32 0 -61.667 6 -89 18s-51 29 -71 51s-35.667 48.167 -47 78.5s-17 63.5 -17 99.5s5.66699 69 17 99s27 55.667 47 77
s43.833 38 71.5 50s57.5 18 89.5 18c44 0 82.167 -10.667 114.5 -32s56.166 -49.333 71.499 -84v106zM287.999 47.998c26 0 49.833 4.83301 71.5 14.5s40.5 23.167 56.5 40.5s28.333 38 37 62s13 50.333 13 79c0 28 -4.33301 54 -13 78s-21 44.5 -37 61.5
s-34.833 30.333 -56.5 40s-45.5 14.5 -71.5 14.5s-49.833 -4.83301 -71.5 -14.5s-40.334 -23 -56.001 -40s-28 -37.5 -37 -61.5s-13.5 -50 -13.5 -78c0 -28.667 4.5 -55 13.5 -79s21.333 -44.667 37 -62s34.334 -30.833 56.001 -40.5s45.5 -14.5 71.5 -14.5z" />
    <glyph glyph-name="uni01EA" unicode="&#x1ea;" horiz-adv-x="787" 
d="M483 -1c-32 -16.667 -58.332 -36.668 -78.999 -60.001s-31 -45 -31 -65c0 -12.667 5.66699 -22.667 17 -30s26.666 -11 45.999 -11c16 0 32 3 48 9v-42c-18.667 -6 -38 -9 -58 -9c-28 0 -51 6 -69 18s-27 29 -27 51c0 21.333 8.5 43.5 25.5 66.5s38.833 44.167 65.5 63.5
c-4.66699 -0.666992 -9.16699 -1 -13.5 -1h-14.5c-50 0 -96 8.66699 -138 26s-78 41.5 -108 72.5s-53.333 68.167 -70 111.5s-25 91.333 -25 144s8.33301 100.667 25 144s40 80.5 70 111.5s66 55.167 108 72.5s88 26 138 26s96 -8.66699 138 -26s78 -41.5 108 -72.5
s53.333 -68.167 70 -111.5s25 -91.333 25 -144c0 -44 -6 -85 -18 -123s-29 -71.833 -51 -101.5s-48.333 -54.667 -79 -75s-65 -35.166 -103 -44.499zM114.001 342.999c0 -44 6.83301 -84.333 20.5 -121s32.667 -68 57 -94s53.666 -46.167 87.999 -60.5
s72.166 -21.5 113.499 -21.5s79.166 7.16699 113.499 21.5s63.833 34.5 88.5 60.5s43.667 57.333 57 94s20 77 20 121s-6.66699 84.333 -20 121s-32.333 68 -57 94s-54.167 46.167 -88.5 60.5s-72.166 21.5 -113.499 21.5s-79.166 -7.16699 -113.499 -21.5
s-63.666 -34.5 -87.999 -60.5s-43.333 -57.333 -57 -94s-20.5 -77 -20.5 -121z" />
    <glyph glyph-name="uni01EB" unicode="&#x1eb;" horiz-adv-x="585" 
d="M361 -1c-32 -16.667 -58.165 -36.667 -78.498 -60s-30.5 -45 -30.5 -65c0 -12.667 5.66699 -22.667 17 -30s26.666 -11 45.999 -11c16 0 32 3 48 9v-42c-18.667 -6 -38 -9 -58 -9c-28 0 -51 6 -69 18s-27 29 -27 51c0 21.333 8.5 43.5 25.5 66.5s39.167 44.167 66.5 63.5
h-9c-34.667 0 -66.667 6 -96 18s-54.5 29 -75.5 51s-37.5 48.333 -49.5 79s-18 64.667 -18 102c0 36.667 6 70.167 18 100.5s28.5 56.5 49.5 78.5s46.167 39 75.5 51s61.333 18 96 18c35.333 0 67.666 -6 96.999 -18s54.5 -29 75.5 -51s37.5 -48.167 49.5 -78.5
s18 -63.833 18 -100.5c0 -62 -15.5 -114.333 -46.5 -157s-72.5 -70.667 -124.5 -84zM112.002 240c0 -29.333 4.33301 -56.166 13 -80.499s21 -45.333 37 -63s35 -31.5 57 -41.5s46.333 -15 73 -15s51 5 73 15s41 23.833 57 41.5s28.333 38.667 37 63s13 51.166 13 80.499
c0 28.667 -4.33301 55.167 -13 79.5s-21 45.166 -37 62.499s-35 31 -57 41s-46.333 15 -73 15s-51 -5 -73 -15s-41 -23.667 -57 -41s-28.333 -38.166 -37 -62.499s-13 -50.833 -13 -79.5z" />
    <glyph glyph-name="Aringacute" unicode="&#x1fa;" horiz-adv-x="655" 
d="M328 708c-15.333 0 -29.834 2.83105 -43.501 8.49805s-25.667 13.5 -36 23.5s-18.5 21.833 -24.5 35.5s-9 28.167 -9 43.5c0 16 3 30.833 9 44.5s14 25.334 24 35.001s21.833 17.334 35.5 23.001s28.5 8.5 44.5 8.5c17.333 0 34 -3.66699 50 -11l58 91h64l-88 -118
c18 -20 27 -44.333 27 -73c0 -15.333 -3 -29.833 -9 -43.5s-14 -25.5 -24 -35.5s-21.667 -17.833 -35 -23.5s-27.666 -8.5 -42.999 -8.5zM327.999 895.998c-21.333 0 -39.5 -7.50195 -54.5 -22.502s-22.5 -33.167 -22.5 -54.5s7.5 -39.333 22.5 -54s33.167 -22 54.5 -22
c20.667 0 38.5 7.33301 53.5 22s22.5 32.667 22.5 54c0 14.667 -3.5 27.834 -10.5 39.501s-16.167 20.834 -27.5 27.501h-9l2 3c-8.66699 4.66699 -19 7 -31 7zM567.999 -0.00390625l-68 177h-345l-68 -177h-65l266 686h79l266 -686h-65zM174.999 229.996h305l-152 395z" />
    <glyph glyph-name="aringacute" unicode="&#x1fb;" horiz-adv-x="506" 
d="M250 544c-16 0 -30.666 2.83398 -43.999 8.50098s-24.833 13.5 -34.5 23.5s-17.334 21.667 -23.001 35s-8.5 27.333 -8.5 42c0 15.333 2.66699 29.5 8 42.5s13 24.5 23 34.5s21.667 17.833 35 23.5s28 8.5 44 8.5c14 0 28 -2.66699 42 -8l72 113h66l-102 -137
c20.667 -20.667 31 -46.334 31 -77.001c0 -14.667 -2.83301 -28.667 -8.5 -42s-13.334 -25 -23.001 -35s-21.167 -17.833 -34.5 -23.5s-27.666 -8.5 -42.999 -8.5zM250.001 726.001c-20.667 0 -38.167 -6.83301 -52.5 -20.5s-21.5 -31.167 -21.5 -52.5
c0 -20 7.33301 -37.167 22 -51.5s32 -21.5 52 -21.5s37.167 7.16699 51.5 21.5s21.5 31.5 21.5 51.5c0 16 -4.33301 30 -13 42s-19.667 20.667 -33 26h-6l1 2c-6.66699 2 -14 3 -22 3zM491.001 50.001l-0.000976562 -49.998h-32c-23.333 0 -41.5 5.66699 -54.5 17
s-19.5 29.666 -19.5 54.999v28h-4c-15.333 -35.333 -38.5 -62.5 -69.5 -81.5s-68.5 -28.5 -112.5 -28.5c-42.667 0 -77.5 10.667 -104.5 32s-40.5 53 -40.5 95c0 46 16 80.833 48 104.5s76 40.167 132 49.5l106 18c9.33301 1.33301 17.333 4.5 24 9.5s10 12.167 10 21.5
c0 40 -10.833 70.333 -32.5 91s-52.167 31 -91.5 31c-76.667 0 -119.334 -35 -128.001 -105l-59 8c7.33301 48 26.833 83.833 58.5 107.5s74.834 35.5 129.501 35.5c58.667 0 103.834 -14.833 135.501 -44.5s47.5 -72.834 47.5 -129.501v-214
c0 -18.667 2.83301 -31.667 8.5 -39s16.167 -11 31.5 -11h17zM212 39.0029c52 0 92.5 18.333 121.5 55s43.5 89.334 43.5 158.001l-139 -26c-82.667 -12.667 -124 -47.334 -124 -104.001c0 -26.667 8.5 -47.167 25.5 -61.5s41.167 -21.5 72.5 -21.5z" />
    <glyph glyph-name="AEacute" unicode="&#x1fc;" horiz-adv-x="836" 
d="M400 716l79 124h64l-92 -124h-51zM22 0l266 686h506v-56h-306v-260h270v-55h-270v-259h306v-56h-368v177h-270l-69 -177h-65zM174 230h252v400h-97z" />
    <glyph glyph-name="aeacute" unicode="&#x1fd;" horiz-adv-x="893" 
d="M571 686l-108 -146h-51l93 146h66zM842 227l-409.004 0.000976562c1.33301 -28 6.5 -53.5 15.5 -76.5s21.5 -42.667 37.5 -59s34.667 -29 56 -38s44.333 -13.5 69 -13.5c36 0 67.5 8.66699 94.5 26s47.5 41.666 61.5 72.999l56 -11
c-17.333 -43.333 -44.666 -77.166 -81.999 -101.499s-80.666 -36.5 -129.999 -36.5c-50 0 -93.667 12 -131 36s-65.333 57 -84 99c-10 -24.667 -22.167 -45.667 -36.5 -63s-30.166 -31.333 -47.499 -42s-35.5 -18.334 -54.5 -23.001s-37.833 -7 -56.5 -7
c-44 0 -79.5 10.667 -106.5 32s-40.5 53 -40.5 95c0 46 16 80.833 48 104.5s76 40.167 132 49.5l106 18c22.667 4 34 14.333 34 31c0 41.333 -11.167 72.166 -33.5 92.499s-53.5 30.5 -93.5 30.5c-38 0 -67.833 -8.33301 -89.5 -25s-35.167 -43.667 -40.5 -81l-54 8
c14.667 95.333 77.334 143 188.001 143c40 0 74.5 -7.83301 103.5 -23.5s49.833 -40.5 62.5 -74.5c20.667 30.667 47.5 54.667 80.5 72s70.5 26 112.5 26c33.333 0 64.166 -5.83301 92.499 -17.5s52.833 -28.167 73.5 -49.5s36.834 -47.166 48.501 -77.499
s17.5 -64.5 17.5 -102.5v-14zM609.996 439.001c-48 0 -88 -14.501 -120 -43.501s-50.667 -69.5 -56 -121.5h348c-4 50.667 -21.833 90.834 -53.5 120.501s-71.167 44.5 -118.5 44.5zM377.996 191c-2.66699 13.333 -3.99805 29.333 -3.99805 48v16l-131 -24
c-86.667 -14 -130 -49.667 -130 -107c0 -27.333 8.83301 -48.333 26.5 -63s42.5 -22 74.5 -22c16 0 32.667 2.66699 50 8s33.666 14 48.999 26s28.666 27.667 39.999 47s19.333 43.333 24 72z" />
    <glyph glyph-name="Oslashacute" unicode="&#x1fe;" horiz-adv-x="787" 
d="M511 840l-92 -124h-51l79 124h64zM610 625c39.333 -31.333 69.833 -71 91.5 -119s32.5 -102.333 32.5 -163c0 -52.667 -8.33301 -100.667 -25 -144s-40 -80.5 -70 -111.5s-66 -55.167 -108 -72.5s-88 -26 -138 -26c-36 0 -70 4.5 -102 13.5s-61 21.833 -87 38.5l-66 -94
l-28 19l66 95c-39.333 31.333 -69.833 71 -91.5 119s-32.5 102.333 -32.5 163c0 52.667 8.33301 100.667 25 144s40 80.5 70 111.5s66 55.167 108 72.5s88 26 138 26c36 0 70 -4.5 102 -13.5s61 -21.833 87 -38.5l66 94l28 -19zM114 343
c0 -50 8.49707 -94.833 25.4971 -134.5s40.5 -72.5 70.5 -98.5l339 486c-21.333 14 -45.166 24.833 -71.499 32.5s-54.5 11.5 -84.5 11.5c-41.333 0 -79.166 -7.16699 -113.499 -21.5s-63.666 -34.5 -87.999 -60.5s-43.333 -57.333 -57 -94s-20.5 -77 -20.5 -121z
M392.997 46c41.333 0 79.168 7.16699 113.501 21.5s63.833 34.5 88.5 60.5s43.667 57.333 57 94s20 77 20 121c0 50 -8.5 94.833 -25.5 134.5s-40.5 72.5 -70.5 98.5l-339 -486c21.333 -14 45.166 -24.833 71.499 -32.5s54.5 -11.5 84.5 -11.5z" />
    <glyph glyph-name="oslashacute" unicode="&#x1ff;" horiz-adv-x="585" 
d="M421 686l-108 -146h-51l93 146h66zM449 434c26 -22 46.332 -49.5 60.999 -82.5s22 -70.167 22 -111.5c0 -37.333 -6 -71.333 -18 -102s-28.5 -57 -49.5 -79s-46.167 -39 -75.5 -51s-61.666 -18 -96.999 -18c-48.667 0 -91.667 11.667 -129 35l-55 -80l-28 19l56 80
c-26 22 -46.333 49.667 -61 83s-22 71 -22 113c0 36.667 6 70.167 18 100.5s28.5 56.5 49.5 78.5s46.167 39 75.5 51s61.333 18 96 18c48 0 91 -11.333 129 -34l55 79l29 -19zM111.999 240c0 -31.333 5 -59.668 15 -85.001s23.667 -47 41 -65l222 319
c-27.333 19.333 -60 29 -98 29c-26.667 0 -51 -5 -73 -15s-41 -23.667 -57 -41s-28.333 -38.166 -37 -62.499s-13 -50.833 -13 -79.5zM291.999 39.998c26.667 0 51 5.00195 73 15.002s41 23.833 57 41.5s28.333 38.667 37 63s13 51.166 13 80.499
c0 30 -4.83301 57.667 -14.5 83s-23.167 46.666 -40.5 63.999l-223 -319c29.333 -18.667 62 -28 98 -28z" />
    <glyph glyph-name="uni0218" unicode="&#x218;" horiz-adv-x="602" 
d="M309 -11c-70.667 0 -129.832 15.6719 -177.499 47.0049s-77.834 76 -90.501 134l61 12c11.333 -46 35 -80.833 71 -104.5s81.667 -35.5 137 -35.5s98.666 12.333 129.999 37s47 58.667 47 102c0 24 -5.5 43.833 -16.5 59.5s-25.5 28.5 -43.5 38.5
s-38.833 18.167 -62.5 24.5s-48.167 12.166 -73.5 17.499c-27.333 6 -54.666 13 -81.999 21s-51.833 18.667 -73.5 32s-39.334 30.666 -53.001 51.999s-20.5 48.333 -20.5 81c0 28.667 5.33301 54.667 16 78s26 43.333 46 60s43.833 29.5 71.5 38.5s58.5 13.5 92.5 13.5
c63.333 0 116.666 -13 159.999 -39s73.333 -68 90 -126l-55 -14c-15.333 44 -38.166 76 -68.499 96s-71.5 30 -123.5 30c-50.667 0 -91.167 -12 -121.5 -36s-45.5 -57 -45.5 -99c0 -22.667 5.16699 -41.334 15.5 -56.001s24.333 -26.834 42 -36.501
s37.834 -17.334 60.501 -23.001s46.334 -11.167 71.001 -16.5c28 -6 56 -13 84 -21s53.333 -18.833 76 -32.5s41.167 -31.5 55.5 -53.5s21.5 -50.333 21.5 -85c0 -30 -5.66699 -57 -17 -81s-27.333 -44.5 -48 -61.5s-45.834 -30.167 -75.501 -39.5s-63.167 -14 -100.5 -14z
M176.002 -175.995l96 146h55l-108 -146h-43z" />
    <glyph glyph-name="uni0219" unicode="&#x219;" horiz-adv-x="466" 
d="M241 -10c-50.667 0 -93.333 12.668 -128 38.001s-55.667 59 -63 101l52 13c6.66699 -32 22.167 -57.5 46.5 -76.5s54.5 -28.5 90.5 -28.5c34.667 0 62.5 8.16699 83.5 24.5s31.5 38.5 31.5 66.5c0 16.667 -3.5 30.334 -10.5 41.001s-16.5 19.5 -28.5 26.5
s-25.667 12.5 -41 16.5s-31.666 7.66699 -48.999 11c-21.333 4 -41.666 8.83301 -60.999 14.5s-36.5 13.334 -51.5 23.001s-27 22 -36 37s-13.5 33.833 -13.5 56.5c0 42 15.333 74.833 46 98.5s70.667 35.5 120 35.5c44.667 0 83.167 -10.667 115.5 -32
s52.166 -52 59.499 -92l-54 -10c-5.33301 28 -18.833 49.667 -40.5 65s-48.834 23 -81.501 23s-59.167 -7.5 -79.5 -22.5s-30.5 -35.5 -30.5 -61.5c0 -14.667 3.5 -26.834 10.5 -36.501s16.333 -17.667 28 -24s25.167 -11.5 40.5 -15.5s31.333 -7.66699 48 -11
c22 -4.66699 43.167 -10 63.5 -16s38 -14 53 -24s27 -22.833 36 -38.5s13.5 -35.834 13.5 -60.501c0 -22.667 -4.33301 -42.834 -13 -60.501s-20.5 -32.5 -35.5 -44.5s-33 -21.167 -54 -27.5s-43.5 -9.5 -67.5 -9.5zM112.001 -175.999l96 146h55l-108 -146h-43z" />
    <glyph glyph-name="uni021A" unicode="&#x21a;" horiz-adv-x="473" 
d="M454 686v-56h-187v-630h-62v630h-187v56h436zM112 -176l96 146h55l-108 -146h-43z" />
    </font>
</defs>
</svg>
