<?xml version="1.0" standalone="no"?>
<!DOCTYPE svg PUBLIC "-//W3C//DTD SVG 1.1//EN" "http://www.w3.org/Graphics/SVG/1.1/DTD/svg11.dtd" >
<svg>
<metadata>
Created by FontForge 20090914 at Thu Jun 23 11:55:12 2022
 By www-data
Copyright &#194;&#169; 2020 Cerebri Sans Pro&#226;&#132;&#162; Version &#226;&#128;&#148; 2020 Edition by Alfredo Marco Pradil. All rights reserved.
</metadata>
<defs>
<font id="CerebriSansPro-SemiBold" horiz-adv-x="0" >
  <font-face 
    font-family="Cerebri Sans Pro SemiBold"
    font-weight="600"
    font-stretch="normal"
    units-per-em="1000"
    panose-1="0 0 7 0 0 0 0 0 0 0"
    ascent="750"
    descent="-250"
    x-height="498"
    cap-height="702"
    bbox="-807 -250.005 1295 1050"
    underline-thickness="65"
    underline-position="-76"
    unicode-range="U+000D-U+FB02"
  />
<missing-glyph horiz-adv-x="541" 
d="M48 0v702h445v-702h-445zM139 91h262v520h-262v-520z" />
    <glyph glyph-name="fi" unicode="fi" horiz-adv-x="629" 
d="M343 664c-14 0 -27.1699 -1.66699 -39.5029 -5s-23.166 -9 -32.499 -17s-16.666 -18.5 -21.999 -31.5s-8 -29.5 -8 -49.5v-63h114v-92h-114v-406h-119v406h-101v92h101v63c0 35.333 5.66699 65.5 17 90.5s27.166 45.5 47.499 61.5s44.333 27.833 72 35.5
s57.834 11.5 90.501 11.5c58.667 0 105.334 -13.333 140.001 -40s58.334 -62.667 71.001 -108l-115 -30c-6.66699 28.667 -17.834 49.5 -33.501 62.5s-38.5 19.5 -68.5 19.5zM444.997 498h119v-498h-119v498z" />
    <glyph glyph-name="fl" unicode="fl" horiz-adv-x="629" 
d="M343 760c31.333 0 60.498 -3.83301 87.498 -11.5s50.5 -19.5 70.5 -35.5s35.667 -36.5 47 -61.5s17 -55.167 17 -90.5v-561h-119v555c0 40 -9.33301 68.167 -28 84.5s-43.667 24.5 -75 24.5c-14 0 -27.167 -1.66699 -39.5 -5s-23.166 -9 -32.499 -17
s-16.666 -18.5 -21.999 -31.5s-8 -29.5 -8 -49.5v-63h114v-92h-114v-406h-119v406h-101v92h101v63c0 35.333 5.66699 65.5 17 90.5s26.833 45.5 46.5 61.5s43 27.833 70 35.5s56.167 11.5 87.5 11.5z" />
    <glyph glyph-name="f_f" unicode="ff" horiz-adv-x="706" 
d="M658 655c-10 0 -20.334 -1.16797 -31.001 -3.50098s-20.167 -7 -28.5 -14s-15.166 -16.5 -20.499 -28.5s-8 -28 -8 -48v-63h114v-92h-114v-406h-119v406h-210v-406h-119v406h-101v92h101v63c0 35.333 5.66699 65.5 17 90.5s27.166 45.5 47.499 61.5
s44.333 27.833 72 35.5s57.834 11.5 90.501 11.5c34 0 63.333 -4.66699 88 -14s45.667 -22.666 63 -39.999c18 17.333 40.333 29 67 35s57 9 91 9h26v-95h-26zM240.999 497.999h210.001v63c0 7.33301 0.166992 14.5 0.5 21.5s0.833008 13.833 1.5 20.5
c-20.667 40.667 -57.334 61 -110.001 61c-36 0 -62 -8.66699 -78 -26s-24 -43 -24 -77v-63z" />
    <glyph glyph-name="f_f_i" unicode="ffi" horiz-adv-x="953" 
d="M667 664c-14 0 -27.167 -1.66699 -39.5 -5s-23.166 -9 -32.499 -17s-16.666 -18.5 -21.999 -31.5s-8 -29.5 -8 -49.5v-63h114v-92h-114v-406h-119v406h-205v-406h-119v406h-101v92h101v63c0 35.333 5.66699 65.5 17 90.5s27.166 45.5 47.499 61.5s44.333 27.833 72 35.5
s57.834 11.5 90.501 11.5c34 0 63.5 -4.83301 88.5 -14.5s46.167 -23.167 63.5 -40.5c20 19.333 44.667 33.333 74 42s62 13 98 13c58.667 0 105.167 -13.333 139.5 -40s58.166 -62.667 71.499 -108l-115 -30c-6.66699 28.667 -17.834 49.5 -33.501 62.5
s-38.5 19.5 -68.5 19.5zM446 498l0.000976562 63c0 18.667 1.33301 34.667 4 48c-20.667 36.667 -56.334 55 -107.001 55c-36 0 -62 -8.66699 -78 -26s-24 -43 -24 -77v-63h205zM769.001 498h119v-498h-119v498z" />
    <glyph glyph-name="f_f_l" unicode="ffl" horiz-adv-x="953" 
d="M667 760c31.333 0 60.499 -3.83301 87.499 -11.5s50.5 -19.5 70.5 -35.5s35.667 -36.5 47 -61.5s17 -55.167 17 -90.5v-561h-119v555c0 40 -9.33301 68.167 -28 84.5s-43.667 24.5 -75 24.5c-27.333 0 -51.166 -8 -71.499 -24s-30.5 -42.333 -30.5 -79v-63h114v-92h-114
v-406h-119v406h-205v-406h-119v406h-101v92h101v63c0 35.333 5.66699 65.5 17 90.5s27.166 45.5 47.499 61.5s44.333 27.833 72 35.5s57.834 11.5 90.501 11.5c34 0 63.5 -4.83301 88.5 -14.5s45.833 -23.167 62.5 -40.5c20 19.333 44.333 33.333 73 42s60 13 94 13z
M445.999 498l0.000976562 63c0 18.667 1.33301 34.667 4 48c-20.667 36.667 -56.334 55 -107.001 55c-36 0 -62 -8.66699 -78 -26s-24 -43 -24 -77v-63h205z" />
    <glyph glyph-name="h_d_c_o.liga" unicode="hdco" horiz-adv-x="821" 
d="M411 0c-52 0 -101.167 10 -147.5 30s-86.666 47.167 -120.999 81.5s-61.5 74.666 -81.5 120.999s-30 95.5 -30 147.5c0 52.667 10 102 30 148s47.167 86.167 81.5 120.5s74.666 61.5 120.999 81.5s95.5 30 147.5 30c52.667 0 102 -10 148 -30s86.167 -47.167 120.5 -81.5
s61.5 -74.5 81.5 -120.5s30 -95.333 30 -148c0 -52 -10 -101.167 -30 -147.5s-47.167 -86.666 -81.5 -120.999s-74.5 -61.5 -120.5 -81.5s-95.333 -30 -148 -30zM411 36c47.333 0 92 9 134 27s78.5 42.667 109.5 74s55.5 67.833 73.5 109.5s27 86.167 27 133.5
s-9 92 -27 134s-42.5 78.5 -73.5 109.5s-67.5 55.5 -109.5 73.5s-86.667 27 -134 27s-91.833 -9 -133.5 -27s-78.167 -42.5 -109.5 -73.5s-56 -67.5 -74 -109.5s-27 -86.667 -27 -134s9 -91.833 27 -133.5s42.667 -78.167 74 -109.5s67.833 -56 109.5 -74
s86.167 -27 133.5 -27zM610 217c-4.66699 0 -8.66699 1.99805 -12 5.99805l-145 144c-8 9.33301 -8 18 0 26l145 145c8.66699 8.66699 17 8.66699 25 0c3.33301 -3.33301 5 -7.66602 5 -12.999s-1.66699 -9.66602 -5 -12.999l-132 -132l132 -132
c3.33301 -3.33301 5 -7.33301 5 -12s-1.66699 -9 -5 -13c-2.66699 -4 -7 -6 -13 -6zM212 216.998c-5.33301 0 -9.66602 1.66699 -12.999 5s-5 7.66602 -5 12.999v290c0 5.33301 1.66699 9.66602 5 12.999s7.66602 5 12.999 5s9.66602 -1.66699 12.999 -5
s5 -7.66602 5 -12.999v-290c0 -5.33301 -1.66699 -9.66602 -5 -12.999s-7.66602 -5 -12.999 -5zM411 216.998c-5.33301 0 -9.66602 1.66699 -12.999 5s-5 7.66602 -5 12.999v290c0 5.33301 1.66699 9.66602 5 12.999s7.66602 5 12.999 5s9.66602 -1.66699 12.999 -5
s5 -7.66602 5 -12.999v-290c0 -5.33301 -1.66699 -9.66602 -5 -12.999s-7.66602 -5 -12.999 -5zM266 361.998c-5.33301 0 -9.66602 1.66699 -12.999 5s-5 7.66602 -5 12.999s1.66699 9.66602 5 12.999s7.66602 5 12.999 5h91c5.33301 0 9.66602 -1.66699 12.999 -5
s5 -7.66602 5 -12.999s-1.66699 -9.66602 -5 -12.999s-7.66602 -5 -12.999 -5h-91z" />
    <glyph glyph-name="hyphen_greater.liga" unicode="&#x2d;&#x3e;" horiz-adv-x="727" 
d="M545 65h-97l115 139h-563v90h563l-115 139h97l152 -184z" />
    <glyph glyph-name="less_hyphen.liga" unicode="&#x3c;&#x2d;" horiz-adv-x="727" 
d="M181 65l-152 184l152 184h98l-115 -139h563v-90h-563l115 -139h-98z" />
    <glyph glyph-name="parenleft_greater_parenright.liga" unicode="&#x28;&#x3e;&#x29;" horiz-adv-x="804" 
d="M402 -10c-50 0 -96.833 9.49902 -140.5 28.499s-81.834 44.833 -114.501 77.5s-58.5 71 -77.5 115s-28.5 90.667 -28.5 140c0 50 9.5 96.833 28.5 140.5s44.833 81.834 77.5 114.501s70.834 58.5 114.501 77.5s90.5 28.5 140.5 28.5c49.333 0 96 -9.5 140 -28.5
s82.333 -44.833 115 -77.5s58.5 -71 77.5 -115s28.5 -90.667 28.5 -140s-9.5 -96 -28.5 -140s-44.833 -82.333 -77.5 -115s-71 -58.5 -115 -77.5s-90.667 -28.5 -140 -28.5zM402 53.999c41.333 0 80.001 7.66699 116.001 23s67.5 36.5 94.5 63.5s48.167 58.5 63.5 94.5
s23 74.667 23 116s-7.66699 80 -23 116s-36.5 67.5 -63.5 94.5s-58.5 48.167 -94.5 63.5s-74.667 23 -116 23s-80 -7.66699 -116 -23s-67.5 -36.5 -94.5 -63.5s-48.333 -58.5 -64 -94.5s-23.5 -74.667 -23.5 -116s7.66699 -80 23 -116s36.5 -67.5 63.5 -94.5
s58.667 -48.167 95 -63.5s75.166 -23 116.499 -23zM313.001 151.999v398l291 -199z" />
    <glyph glyph-name=".notdef" horiz-adv-x="541" 
d="M48 0v702h445v-702h-445zM139 91h262v520h-262v-520z" />
    <glyph glyph-name=".null" 
 />
    <glyph glyph-name=".null" 
 />
    <glyph glyph-name="nonmarkingreturn" unicode="&#xd;" horiz-adv-x="250" 
 />
    <glyph glyph-name="space" unicode=" " horiz-adv-x="260" 
 />
    <glyph glyph-name="exclam" unicode="!" horiz-adv-x="261" 
d="M82 219l-12 483h120l-13 -483h-95zM130 -10c-19.333 0 -36 7 -50 21s-21 30.667 -21 50c0 20 7 37 21 51s30.667 21 50 21c20 0 37 -7 51 -21s21 -31 21 -51c0 -19.333 -7 -36 -21 -50s-31 -21 -51 -21z" />
    <glyph glyph-name="quotedbl" unicode="&#x22;" horiz-adv-x="410" 
d="M62 384l-17 318h114l-13 -318h-84zM265 384l-13 318h113l-16 -318h-84z" />
    <glyph glyph-name="numbersign" unicode="#" horiz-adv-x="746" 
d="M151 0l23 165h-138l11 83h139l30 204h-140l14 83h137l24 167h83l-23 -167h175l24 167h83l-24 -167h142l-13 -83h-140l-29 -204h140l-12 -83h-140l-25 -165h-82l24 165h-178l-22 -165h-83zM269 248h176l29 204h-176z" />
    <glyph glyph-name="dollar" unicode="$" horiz-adv-x="610" 
d="M567 198c0 -30 -5.50293 -57.5029 -16.5029 -82.5029s-26.833 -46.667 -47.5 -65s-45.334 -32.833 -74.001 -43.5s-61 -17 -97 -19v-65h-45v64c-34.667 2 -67 7.83301 -97 17.5s-56.667 23 -80 40s-42.666 37.833 -57.999 62.5s-25.666 52.334 -30.999 83.001l122 26
c9.33301 -40 26.5 -70.167 51.5 -90.5s55.833 -32.166 92.5 -35.499v217l-23 6c-26 7.33301 -52.167 15.5 -78.5 24.5s-50 20.833 -71 35.5s-38 33 -51 55s-19.5 49.333 -19.5 82c0 30.667 5.83301 58.5 17.5 83.5s28.334 46.5 50.001 64.5s47.334 32 77.001 42
s62.5 15 98.5 15v59h45v-61c27.333 -2.66699 53.166 -8.16699 77.499 -16.5s46.666 -19.833 66.999 -34.5s37.833 -32.834 52.5 -54.501s25.334 -47.167 32.001 -76.5l-112 -26c-20.667 61.333 -59.667 96.333 -117 105v-202c0.666992 0 1.16699 -0.166992 1.5 -0.5
s0.833008 -0.5 1.5 -0.5c26.667 -7.33301 53.834 -15.833 81.501 -25.5s52.667 -22.167 75 -37.5s40.5 -34.666 54.5 -57.999s21 -52.666 21 -87.999zM168.997 516.997c0 -14 3 -26.1689 9 -36.502s14.333 -19.166 25 -26.499s23.167 -13.666 37.5 -18.999
s29.833 -10.333 46.5 -15v193c-36 -1.33301 -64.667 -10.5 -86 -27.5s-32 -39.833 -32 -68.5zM331.997 89.9951c34 3.33301 60.167 13.668 78.5 31.001s27.5 40 27.5 68c0 29.333 -10 51.666 -30 66.999s-45.333 28 -76 38v-204z" />
    <glyph glyph-name="percent" unicode="%" horiz-adv-x="816" 
d="M211 392c-22 0 -42.834 4.16797 -62.501 12.501s-36.667 19.666 -51 33.999s-25.666 31.333 -33.999 51s-12.5 40.5 -12.5 62.5s4.16699 42.667 12.5 62s19.833 36.333 34.5 51s31.667 26.167 51 34.5s40 12.5 62 12.5s42.667 -4.16699 62 -12.5
s36.166 -19.833 50.499 -34.5s25.666 -31.667 33.999 -51s12.5 -40 12.5 -62s-4.16699 -42.667 -12.5 -62s-19.666 -36.333 -33.999 -51s-31.166 -26.167 -50.499 -34.5s-40 -12.5 -62 -12.5zM171.999 0.000976562l368 702h99l-368 -702h-99zM210.999 471.001
c22.667 0 41.667 7.83398 57 23.501s23 34.834 23 57.501c0 22 -8 41 -24 57s-34.667 24 -56 24c-22.667 0 -41.667 -7.83301 -57 -23.5s-23 -34.834 -23 -57.501s7.66699 -41.834 23 -57.501s34.333 -23.5 57 -23.5zM605.999 -8.99805
c-22.667 0 -43.6699 4.16699 -63.0029 12.5s-36.333 19.833 -51 34.5s-26.167 31.667 -34.5 51s-12.5 40 -12.5 62s4.16699 42.833 12.5 62.5s19.833 36.834 34.5 51.501s31.834 26.167 51.501 34.5s40.5 12.5 62.5 12.5s42.5 -4.16699 61.5 -12.5
s35.833 -19.833 50.5 -34.5s26.167 -31.834 34.5 -51.501s12.5 -40.5 12.5 -62.5s-4.16699 -42.667 -12.5 -62s-19.666 -36.333 -33.999 -51s-31.166 -26.167 -50.499 -34.5s-40 -12.5 -62 -12.5zM605.996 71.002c22 0 40.833 7.83203 56.5 23.499s23.5 34.5 23.5 56.5
s-8 41 -24 57s-34.667 24 -56 24c-22.667 0 -42 -7.66699 -58 -23s-24 -34.666 -24 -57.999c0 -22 8 -40.833 24 -56.5s35.333 -23.5 58 -23.5z" />
    <glyph glyph-name="ampersand" unicode="&#x26;" horiz-adv-x="740" 
d="M695 0l-134.998 -0.00195312l-46 57c-32 -22 -67 -39.167 -105 -51.5s-78 -18.5 -120 -18.5c-37.333 0 -71.333 4.66699 -102 14s-56.834 22.666 -78.501 39.999s-38.334 38.333 -50.001 63s-17.5 52.334 -17.5 83.001c0 27.333 4.33301 51.5 13 72.5s21 40.5 37 58.5
s35.167 35 57.5 51s46.833 32.333 73.5 49l-15 19c-14 17.333 -26 37 -36 59s-15 44.667 -15 68s4.66699 44.333 14 63s22 34.5 38 47.5s34.833 23 56.5 30s44.834 10.5 69.501 10.5c30 0 56.5 -3.83301 79.5 -11.5s42.333 -18 58 -31s27.5 -28.5 35.5 -46.5
s12 -37.667 12 -59c0 -37.333 -12.333 -68.833 -37 -94.5s-60 -50.167 -106 -73.5l147 -184c17.333 26 31.166 55.5 41.499 88.5s15.5 68.833 15.5 107.5h107c0 -55.333 -8.5 -106.666 -25.5 -153.999s-40.5 -89.666 -70.5 -126.999zM340.002 634.998
c-22 0 -39.5 -5.99902 -52.5 -17.999s-19.5 -27.667 -19.5 -47c0 -14.667 3.83301 -29.167 11.5 -43.5s16.5 -27.833 26.5 -40.5l14 -18c31.333 18 54 35.167 68 51.5s21 34.166 21 53.499c0 18 -6.5 32.833 -19.5 44.5s-29.5 17.5 -49.5 17.5zM300.002 87.999
c26.667 0 52.668 4.33301 78.001 13s49 20.667 71 36l-168 209c-17.333 -10.667 -33.333 -21 -48 -31s-27.334 -20.667 -38.001 -32s-19 -23.833 -25 -37.5s-9 -29.5 -9 -47.5c0 -36 12.167 -63.333 36.5 -82s58.5 -28 102.5 -28z" />
    <glyph glyph-name="quotesingle" unicode="'" horiz-adv-x="205" 
d="M59 384l-13 318h113l-16 -318h-84z" />
    <glyph glyph-name="parenleft" unicode="(" horiz-adv-x="340" 
d="M206 -250c-50 58.667 -88.667 134.503 -116 227.503s-41 196.5 -41 310.5c0 113.333 13.667 216.5 41 309.5s66 168.833 116 227.5h116c-26.667 -26.667 -50.334 -58.834 -71.001 -96.501s-38.167 -79.334 -52.5 -125.001s-25.333 -95.167 -33 -148.5
s-11.5 -109 -11.5 -167c0 -58.667 3.83301 -114.5 11.5 -167.5s18.667 -102.5 33 -148.5s31.833 -87.833 52.5 -125.5s44.334 -69.834 71.001 -96.501h-116z" />
    <glyph glyph-name="parenright" unicode=")" horiz-adv-x="340" 
d="M18 -250c26.667 26.667 50.334 58.8311 71.001 96.498s38.167 79.5 52.5 125.5s25.333 95.5 33 148.5s11.5 108.833 11.5 167.5c0 58 -3.83301 113.667 -11.5 167s-18.667 102.833 -33 148.5s-31.833 87.334 -52.5 125.001s-44.334 69.834 -71.001 96.501h116
c50 -58.667 88.667 -134.5 116 -227.5s41 -196.167 41 -309.5c0 -114 -13.667 -217.5 -41 -310.5s-66 -168.833 -116 -227.5h-116z" />
    <glyph glyph-name="asterisk" unicode="*" horiz-adv-x="394" 
d="M134 412l-58.001 34.001l76 97c6.66699 8.66699 8.33398 15.667 5.00098 21s-10 7.33301 -20 6l-124 -16v67l124 -16c10 -1.33301 16.833 0.666992 20.5 6s1.83398 12.333 -5.49902 21l-76 97l58 34l48 -114c3.33301 -10 8.33301 -15 15 -15s12 5 16 15l47 114l59 -34
l-77 -97c-6.66699 -8 -8.33398 -15 -5.00098 -21s10 -8 20 -6l124 16v-67l-124 16c-10 1.33301 -16.667 -0.666992 -20 -6s-1.33301 -12.333 6 -21l76 -97l-59 -34l-47 114c-3.33301 9.33301 -8.33301 14.166 -15 14.499s-12 -4.5 -16 -14.5z" />
    <glyph glyph-name="plus" unicode="+" horiz-adv-x="588" 
d="M249 10v194h-195v90h195v195h90v-195h194v-90h-194v-194h-90z" />
    <glyph glyph-name="comma" unicode="," horiz-adv-x="311" 
d="M69 -179l61 316h121l-96 -316h-86z" />
    <glyph glyph-name="hyphen" unicode="-" horiz-adv-x="392" 
d="M21 204v90h350v-90h-350z" />
    <glyph glyph-name="period" unicode="." horiz-adv-x="312" 
d="M155 -10c-19.333 0 -36 7 -50 21s-21 30.667 -21 50s7 36.166 21 50.499s30.667 21.5 50 21.5c20 0 37 -7.16699 51 -21.5s21 -31.166 21 -50.499s-7 -36 -21 -50s-31 -21 -51 -21z" />
    <glyph glyph-name="slash" unicode="/" horiz-adv-x="601" 
d="M1 -195l486 945h113l-486 -945h-113z" />
    <glyph glyph-name="zero" unicode="0" horiz-adv-x="590" 
d="M295 -13c-80.667 0 -142.167 30 -184.5 90s-63.5 151.333 -63.5 274c0 124 21.167 215.667 63.5 275s103.833 89 184.5 89c80 0 141.333 -29.667 184 -89s64 -151 64 -275c0 -122.667 -21.333 -214 -64 -274s-104 -90 -184 -90zM295 94c40.667 0 72.334 20.5 95.001 61.5
s34 106.167 34 195.5s-11.167 154.5 -33.5 195.5s-54.166 61.5 -95.499 61.5c-40.667 0 -72.334 -20.5 -95.001 -61.5s-34 -106.167 -34 -195.5s11.167 -154.5 33.5 -195.5s54.166 -61.5 95.499 -61.5z" />
    <glyph glyph-name="one" unicode="1" horiz-adv-x="590" 
d="M295 702h115v-702h-119v563l-165 -134v136z" />
    <glyph glyph-name="two" unicode="2" horiz-adv-x="590" 
d="M220 106l318.002 -0.000976562v-106h-482v99l283 287c23.333 23.333 40.333 44.833 51 64.5s16 40.167 16 61.5c0 31.333 -9.66699 55.333 -29 72s-46 25 -80 25c-82.667 0 -124 -42.667 -124 -128v-34l-119 12v32c0 70.667 21.167 125.667 63.5 165s100.5 59 174.5 59
c34 0 65.167 -4.5 93.5 -13.5s52.666 -22 72.999 -39s36.166 -37.833 47.499 -62.5s17 -52.334 17 -83.001c0 -35.333 -7 -68.166 -21 -98.499s-38.667 -63.166 -74 -98.499z" />
    <glyph glyph-name="three" unicode="3" horiz-adv-x="590" 
d="M301 -13c-82.667 0 -145.996 21.166 -189.996 63.499s-66 103.5 -66 183.5h122c0.666992 -42 11.167 -76 31.5 -102s53.5 -39 99.5 -39c39.333 0 69.833 11.167 91.5 33.5s32.5 50.833 32.5 85.5c0 22 -4.16699 40.5 -12.5 55.5s-18.833 26.833 -31.5 35.5
s-26.834 14.834 -42.501 18.501s-30.834 5.5 -45.501 5.5h-23v92h21c32 0 58 9.33301 78 28s30 43 30 73c0 27.333 -9.16699 49.166 -27.5 65.499s-42.5 24.5 -72.5 24.5c-34 0 -61 -11 -81 -33s-30 -52 -30 -90v-6l-120 12c0 34.667 5.5 65.834 16.5 93.501
s26.5 51 46.5 70s44 33.5 72 43.5s59 15 93 15c31.333 0 60 -4.83301 86 -14.5s48.5 -22.834 67.5 -39.501s33.667 -36.167 44 -58.5s15.5 -46.166 15.5 -71.499c0 -20 -2.83301 -38.167 -8.5 -54.5s-13.167 -30.666 -22.5 -42.999s-19.666 -22.833 -30.999 -31.5
s-23 -15.334 -35 -20.001c17.333 -4.66699 34.166 -11.5 50.499 -20.5s30.666 -20.833 42.999 -35.5s22.166 -32 29.499 -52s11 -43 11 -69c0 -32 -5.83301 -61.5 -17.5 -88.5s-28 -50 -49 -69s-46.5 -33.833 -76.5 -44.5s-63 -16 -99 -16z" />
    <glyph glyph-name="four" unicode="4" horiz-adv-x="590" 
d="M562 250v-105h-77v-145h-119v145h-336v106l275 451h180v-452h77zM144 250h222v374z" />
    <glyph glyph-name="five" unicode="5" horiz-adv-x="590" 
d="M284 449c85.333 0 150.003 -17.8369 194.003 -53.5039s66 -91.167 66 -166.5c0 -36.667 -5.83301 -70 -17.5 -100s-28.167 -55.5 -49.5 -76.5s-47 -37.167 -77 -48.5s-63.667 -17 -101 -17c-38 0 -72.167 5.33301 -102.5 16s-56.333 25.834 -78 45.501
s-38.334 43.5 -50.001 71.5s-17.5 59.667 -17.5 95v14c0 4.66699 0.333008 9.33398 1 14.001h117c-0.666992 -3.33301 -1 -6.33301 -1 -9v-9c0 -41.333 11.5 -73.666 34.5 -96.999s55.833 -35 98.5 -35c40 0 70.667 12.167 92 36.5s32 54.833 32 91.5
c0 27.333 -4.83301 49.333 -14.5 66s-22.834 29.834 -39.501 39.501s-35.834 16.167 -57.501 19.5s-44.5 5 -68.5 5h-171l31 351h406v-106h-299l-14 -147h86z" />
    <glyph glyph-name="six" unicode="6" horiz-adv-x="590" 
d="M319 469c32 0 62 -5.82812 90 -17.4951s52.5 -27.834 73.5 -48.501s37.5 -45.334 49.5 -74.001s18 -60.334 18 -95.001s-6.83301 -67 -20.5 -97s-32.167 -56.167 -55.5 -78.5s-50.5 -39.833 -81.5 -52.5s-64.167 -19 -99.5 -19c-36 0 -69.5 6.66699 -100.5 20
s-57.667 31.166 -80 53.499s-40 48.666 -53 78.999s-19.5 62.5 -19.5 96.5c0 30 5 59 15 87s26.333 56.667 49 86l229 293h143l-188 -235c5.33301 0.666992 10.5 1.16699 15.5 1.5s10.167 0.5 15.5 0.5zM434 236.005c0 20.667 -3.16406 39.834 -9.49707 57.501
s-15.833 33.167 -28.5 46.5s-27.667 23.833 -45 31.5s-37 11.5 -59 11.5c-20.667 0 -39.5 -3.66699 -56.5 -11s-31.667 -17.5 -44 -30.5s-22 -28.167 -29 -45.5s-10.5 -36.333 -10.5 -57c-0.666992 -19.333 2.16602 -37.833 8.49902 -55.5s15.5 -33.167 27.5 -46.5
s26.667 -24 44 -32s36.666 -12 57.999 -12s40.666 3.83301 57.999 11.5s32.333 18 45 31s22.5 28.167 29.5 45.5s10.833 35.666 11.5 54.999z" />
    <glyph glyph-name="seven" unicode="7" horiz-adv-x="590" 
d="M50 702h492v-106l-332 -596h-137l339 596h-362v106z" />
    <glyph glyph-name="eight" unicode="8" horiz-adv-x="590" 
d="M295 -13c-35.333 0 -68.166 5.16992 -98.499 15.5029s-56.5 24.833 -78.5 43.5s-39.167 41.167 -51.5 67.5s-18.5 55.833 -18.5 88.5c0 42 10.333 78.333 31 109s48.667 54.334 84 71.001c-26.667 15.333 -47.834 35.5 -63.501 60.5s-23.5 53.5 -23.5 85.5
c0 27.333 5.5 52.5 16.5 75.5s26.167 42.667 45.5 59s42.333 29.166 69 38.499s56 14 88 14c31.333 0 60.5 -4.66699 87.5 -14s50.167 -22.333 69.5 -39s34.5 -36.334 45.5 -59.001s16.5 -47.667 16.5 -75c0 -32 -8 -60.5 -24 -85.5s-36.667 -45.167 -62 -60.5
c35.333 -16.667 63.166 -40.334 83.499 -71.001s30.5 -67 30.5 -109c0 -32 -6.16699 -61.333 -18.5 -88s-29.5 -49.334 -51.5 -68.001s-48.167 -33.167 -78.5 -43.5s-63.166 -15.5 -98.499 -15.5zM295 416.003c15.333 0 29.667 2.66797 43 8.00098s25 12.833 35 22.5
s17.833 21.167 23.5 34.5s8.5 27.666 8.5 42.999c0 30 -10.667 54.667 -32 74s-47.333 29 -78 29c-31.333 0 -57.5 -9.66699 -78.5 -29s-31.5 -44 -31.5 -74c0 -32 10.5 -58 31.5 -78s47.167 -30 78.5 -30zM295.001 93.0039c37.333 0 68.166 11.5 92.499 34.5
s36.5 52.5 36.5 88.5c0 36.667 -12.167 65.834 -36.5 87.501s-55.166 32.5 -92.499 32.5c-38 0 -68.833 -10.833 -92.5 -32.5s-35.5 -50.834 -35.5 -87.501c0 -36 12 -65.5 36 -88.5s54.667 -34.5 92 -34.5z" />
    <glyph glyph-name="nine" unicode="9" horiz-adv-x="590" 
d="M297 715c36 0 69.501 -6.67188 100.501 -20.0049s57.667 -31.166 80 -53.499s40 -48.666 53 -78.999s19.5 -62.5 19.5 -96.5c0 -30 -5 -59 -15 -87s-26.333 -56.667 -49 -86l-229 -293h-143l188 235c-5.33301 -0.666992 -10.5 -1.16699 -15.5 -1.5
s-10.167 -0.5 -15.5 -0.5c-32 0 -62 5.83301 -90 17.5s-52.5 27.834 -73.5 48.501s-37.5 45.334 -49.5 74.001s-18 60.334 -18 95.001s6.83301 67 20.5 97s32.167 56.167 55.5 78.5s50.666 39.833 81.999 52.5s64.333 19 99 19zM439.001 462.995
c0 19.333 -3.16699 37.833 -9.5 55.5s-15.5 33.167 -27.5 46.5s-26.667 24 -44 32s-36.666 12 -57.999 12c-20.667 0 -39.834 -3.83301 -57.501 -11.5s-32.667 -18 -45 -31s-22.166 -28.167 -29.499 -45.5s-11 -35.666 -11 -54.999
c-0.666992 -20.667 2.33301 -39.834 9 -57.501s16.167 -33.167 28.5 -46.5s27.166 -23.833 44.499 -31.5s37 -11.5 59 -11.5c20.667 0 39.5 3.66699 56.5 11s31.667 17.5 44 30.5s22 28.167 29 45.5s10.833 36.333 11.5 57z" />
    <glyph glyph-name="colon" unicode=":" horiz-adv-x="296" 
d="M148 346c-19.333 0 -36 7.16699 -50 21.5s-21 31.166 -21 50.499s7 36 21 50s30.667 21 50 21s36.166 -7 50.499 -21s21.5 -30.667 21.5 -50s-7.16699 -36.166 -21.5 -50.499s-31.166 -21.5 -50.499 -21.5zM148 -10c-19.333 0 -36 7 -50 21s-21 30.667 -21 50
s7 36.166 21 50.499s30.667 21.5 50 21.5s36.166 -7.16699 50.499 -21.5s21.5 -31.166 21.5 -50.499s-7.16699 -36 -21.5 -50s-31.166 -21 -50.499 -21z" />
    <glyph glyph-name="semicolon" unicode=";" horiz-adv-x="310" 
d="M169 346c-19.333 0 -36 7.16699 -50 21.5s-21 31.166 -21 50.499s7 36 21 50s30.667 21 50 21s36.166 -7 50.499 -21s21.5 -30.667 21.5 -50s-7.16699 -36.166 -21.5 -50.499s-31.166 -21.5 -50.499 -21.5zM56 -179l61 316h121l-96 -316h-86z" />
    <glyph glyph-name="less" unicode="&#x3c;" horiz-adv-x="489" 
d="M435 481v-97l-268 -134l268 -136v-97l-380 192v82z" />
    <glyph glyph-name="equal" unicode="=" horiz-adv-x="559" 
d="M54 310v90h450v-90h-450zM54 99v90h450v-90h-450z" />
    <glyph glyph-name="greater" unicode="&#x3e;" horiz-adv-x="489" 
d="M54 481l380 -190v-82l-380 -192v97l268 136l-268 134v97z" />
    <glyph glyph-name="question" unicode="?" horiz-adv-x="521" 
d="M208 213l0.000976562 39.0029c0 32.667 7.5 57.667 22.5 75s34.167 33.333 57.5 48c10 6 20 12.667 30 20s18.833 15.833 26.5 25.5s14 21.167 19 34.5s7.5 29.333 7.5 48c0 36 -10.833 63.833 -32.5 83.5s-49.834 29.5 -84.501 29.5c-36.667 0 -65.667 -10.667 -87 -32
s-32 -49 -32 -83c0 -11.333 1 -22.666 3 -33.999l-106 6c-0.666992 5.33301 -1.16699 10.666 -1.5 15.999s-0.5 11.333 -0.5 18c0 30.667 5.33301 58.667 16 84s25.834 47.166 45.501 65.499s43.334 32.666 71.001 42.999s58.167 15.5 91.5 15.5c34 0 65 -4.83301 93 -14.5
s52.167 -23.334 72.5 -41.001s36 -39 47 -64s16.5 -53.167 16.5 -84.5c0 -32 -4.33301 -58.833 -13 -80.5s-19.334 -40 -32.001 -55s-26.334 -27.5 -41.001 -37.5l-40 -27c-17.333 -12.667 -30.5 -24.667 -39.5 -36s-13.5 -25.333 -13.5 -42v-20h-96zM257.001 -9.99707
c-20 0 -36.999 7 -50.999 21s-21 30.667 -21 50c0 20 7.16699 37 21.5 51s31.166 21 50.499 21s36 -7 50 -21s21 -31 21 -51c0 -19.333 -7 -36 -21 -50s-30.667 -21 -50 -21z" />
    <glyph glyph-name="at" unicode="@" horiz-adv-x="880" 
d="M441 -108c-52 0 -100.999 9.49609 -146.999 28.4961s-86.167 45.333 -120.5 79s-61.333 73.167 -81 118.5s-29.5 94.333 -29.5 147c0 55.333 9.66699 106.333 29 153s45.833 87.334 79.5 122.001s73.5 61.667 119.5 81s96 29 150 29c55.333 0 106.333 -10 153 -30
s86.667 -47 120 -81s59.333 -73.333 78 -118s28 -91.667 28 -141c0 -64.667 -13.833 -114.667 -41.5 -150s-67.834 -53 -120.501 -53c-30.667 0 -55.667 5.5 -75 16.5s-34.666 28.833 -45.999 53.5h-6c-12.667 -23.333 -30 -41.5 -52 -54.5s-47.333 -19.5 -76 -19.5
c-17.333 0 -33.666 2.33301 -48.999 7s-28.833 11.5 -40.5 20.5s-21 19.833 -28 32.5s-10.5 27.334 -10.5 44.001c0 18 3.66699 33.333 11 46s17 23.5 29 32.5s25.667 16.5 41 22.5s30.666 10.667 45.999 14l112 25v22c0 22 -6.5 38.667 -19.5 50s-30.5 17 -52.5 17
c-21.333 0 -38.5 -5 -51.5 -15s-22.5 -26.333 -28.5 -49l-78 19c9.33301 31.333 27.333 56.166 54 74.499s61.334 27.5 104.001 27.5c19.333 0 38.333 -2.5 57 -7.5s35.167 -12.833 49.5 -23.5s25.833 -24.667 34.5 -42s13 -38.666 13 -63.999v-111
c0 -50.667 23.333 -76 70 -76c57.333 0 86 44.667 86 134c0 42.667 -7.5 82.667 -22.5 120s-36.167 70 -63.5 98s-60 50 -98 66s-80 24 -126 24c-44.667 0 -86 -7.83301 -124 -23.5s-70.833 -37.5 -98.5 -65.5s-49.334 -61.333 -65.001 -100s-23.5 -80.667 -23.5 -126
c0 -43.333 8.16699 -83.666 24.5 -120.999s38.5 -69.666 66.5 -96.999s61 -48.833 99 -64.5s78.333 -23.5 121 -23.5c30 0 58.667 4 86 12s53.666 19.667 78.999 35l31 -60c-28.667 -17.333 -59.667 -30.833 -93 -40.5s-68 -14.5 -104 -14.5zM420.001 131.996
c28.667 0 51.5 10.167 68.5 30.5s25.5 47.833 25.5 82.5v23l-83 -21c-28 -7.33301 -47.333 -16 -58 -26s-16 -22.667 -16 -38c0 -16 6 -28.5 18 -37.5s27 -13.5 45 -13.5z" />
    <glyph glyph-name="A" unicode="A" horiz-adv-x="707" 
d="M564 0l-57 155h-307l-57 -155h-131l264 702h155l264 -702h-131zM237 258h233l-116 319z" />
    <glyph glyph-name="B" unicode="B" horiz-adv-x="619" 
d="M443 373c42 -12 74.833 -32.165 98.5 -60.498s35.5 -67.5 35.5 -117.5c0 -42.667 -8.5 -76.834 -25.5 -102.501s-38 -45.334 -63 -59.001s-51.5 -22.667 -79.5 -27s-53 -6.5 -75 -6.5h-263v702h229c76.667 0 134.667 -15 174 -45s59 -74.667 59 -134
c0 -74.667 -30 -124.667 -90 -150zM410 503.002c0 64 -37.333 96 -112 96h-103v-192h103c74.667 0 112 32 112 96zM335 106.002c78.667 0 118 34.333 118 103s-39.333 103 -118 103h-140v-206h140z" />
    <glyph glyph-name="C" unicode="C" horiz-adv-x="756" 
d="M398 -13c-52.667 0 -100.834 8.83301 -144.501 26.5s-81.167 42.5 -112.5 74.5s-55.833 70.333 -73.5 115s-26.5 94 -26.5 148s8.83301 103.333 26.5 148s42.167 83 73.5 115s68.833 56.833 112.5 74.5s91.834 26.5 144.501 26.5c38.667 0 75 -5 109 -15
s65 -24.167 93 -42.5s52.667 -40.5 74 -66.5s38.333 -55 51 -87l-116 -42c-17.333 43.333 -44.333 77.333 -81 102s-80 37 -130 37c-34 0 -65.333 -6 -94 -18s-53.334 -29 -74.001 -51s-36.834 -48.333 -48.501 -79s-17.5 -64.667 -17.5 -102s5.83301 -71.333 17.5 -102
s27.834 -57 48.501 -79s45.334 -39 74.001 -51s60 -18 94 -18c50 0 93.333 12.333 130 37s63.667 58.667 81 102l116 -42c-12.667 -32 -29.667 -61 -51 -87s-46 -48.167 -74 -66.5s-59 -32.5 -93 -42.5s-70.333 -15 -109 -15z" />
    <glyph glyph-name="D" unicode="D" horiz-adv-x="695" 
d="M71 0v702h201c60.667 0 111.667 -5.66699 153 -17s77 -28 107 -50c40 -30 70 -68.833 90 -116.5s30 -103.5 30 -167.5s-10 -119.833 -30 -167.5s-50 -86.5 -90 -116.5c-30 -22 -65.667 -38.667 -107 -50s-92.333 -17 -153 -17h-201zM195 109h77
c38 0 71.333 3.83301 100 11.5s53.334 19.167 74.001 34.5c28 20 48.667 46.5 62 79.5s20 71.833 20 116.5s-6.66699 83.5 -20 116.5s-34 59.5 -62 79.5c-20.667 15.333 -45.334 26.833 -74.001 34.5s-62 11.5 -100 11.5h-77v-484z" />
    <glyph glyph-name="E" unicode="E" horiz-adv-x="516" 
d="M472 593h-277v-188h247v-108h-247v-188h277v-109h-401v702h401v-109z" />
    <glyph glyph-name="F" unicode="F" horiz-adv-x="506" 
d="M478 593h-283v-188h247v-108h-247v-297h-124v702h407v-109z" />
    <glyph glyph-name="G" unicode="G" horiz-adv-x="784" 
d="M391 -13c-51.333 0 -98.498 8.83398 -141.498 26.501s-80 42.5 -111 74.5s-55 70.333 -72 115s-25.5 94 -25.5 148s8.83301 103.333 26.5 148s42.167 83 73.5 115s68.833 56.833 112.5 74.5s91.834 26.5 144.501 26.5c68.667 0 129.667 -15 183 -45s95 -71.667 125 -125
l-108 -58c-19.333 36 -46.333 64 -81 84s-74.334 30 -119.001 30c-34 0 -65.333 -6 -94 -18s-53.334 -29 -74.001 -51s-36.834 -48.333 -48.501 -79s-17.5 -64.667 -17.5 -102s5.5 -71.333 16.5 -102s26.667 -57 47 -79s44.833 -39 73.5 -51s61 -18 97 -18
c54 0 100 15 138 45s62.667 73.667 74 131h-207v100h328v-377h-97v122c-22 -40.667 -53 -73.334 -93 -98.001s-90 -37 -150 -37z" />
    <glyph glyph-name="H" unicode="H" horiz-adv-x="720" 
d="M71 0v702h124v-296h330v296h124v-702h-124v298h-330v-298h-124z" />
    <glyph glyph-name="I" unicode="I" horiz-adv-x="266" 
d="M71 0v702h124v-702h-124z" />
    <glyph glyph-name="J" unicode="J" horiz-adv-x="452" 
d="M184 -13c-28.667 0 -57.498 3.83301 -86.498 11.5s-58.5 20.5 -88.5 38.5l52 101c17.333 -11.333 34.833 -20.333 52.5 -27s36.167 -10 55.5 -10c30 0 52.833 9.83301 68.5 29.5s23.5 50.5 23.5 92.5v479h124v-501c0 -34 -4.83301 -64.333 -14.5 -91
s-23.334 -49 -41.001 -67s-38.834 -31.833 -63.501 -41.5s-52 -14.5 -82 -14.5z" />
    <glyph glyph-name="K" unicode="K" horiz-adv-x="668" 
d="M500 0l-244 309h-61v-309h-124v702h124v-285h59l241 285h151l-286 -335l296 -367h-156z" />
    <glyph glyph-name="L" unicode="L" horiz-adv-x="444" 
d="M71 0v702h124v-593h236v-109h-360z" />
    <glyph glyph-name="M" unicode="M" horiz-adv-x="916" 
d="M868 0h-125l-46 576l-196 -576h-86l-197 578l-45 -578h-125l57 702h184l169 -477l169 477h184z" />
    <glyph glyph-name="N" unicode="N" horiz-adv-x="754" 
d="M559 702h123v-702h-150l-337 533v-533h-124v702h149l339 -533v533z" />
    <glyph glyph-name="O" unicode="O" horiz-adv-x="795" 
d="M398 -13c-52.667 0 -100.834 8.83301 -144.501 26.5s-81.167 42.5 -112.5 74.5s-55.833 70.333 -73.5 115s-26.5 94 -26.5 148s8.83301 103.333 26.5 148s42.167 83 73.5 115s68.833 56.833 112.5 74.5s91.834 26.5 144.501 26.5c52 0 99.833 -8.83301 143.5 -26.5
s81.334 -42.5 113.001 -74.5s56.167 -70.333 73.5 -115s26 -94 26 -148s-8.66699 -103.333 -26 -148s-41.833 -83 -73.5 -115s-69.334 -56.833 -113.001 -74.5s-91.5 -26.5 -143.5 -26.5zM398 101c34 0 65.333 6 94 18s53.167 29 73.5 51s36.333 48.333 48 79
s17.5 64.667 17.5 102s-5.83301 71.333 -17.5 102s-27.667 57 -48 79s-44.833 39 -73.5 51s-60 18 -94 18s-65.333 -6 -94 -18s-53.334 -29 -74.001 -51s-36.834 -48.333 -48.501 -79s-17.5 -64.667 -17.5 -102s5.83301 -71.333 17.5 -102s27.834 -57 48.501 -79
s45.334 -39 74.001 -51s60 -18 94 -18z" />
    <glyph glyph-name="P" unicode="P" horiz-adv-x="596" 
d="M497 650c21.333 -17.333 37.998 -39.833 49.998 -67.5s18 -60.5 18 -98.5c0 -44 -8.5 -83.833 -25.5 -119.5s-42.833 -63.167 -77.5 -82.5c-25.333 -13.333 -52.666 -21.5 -81.999 -24.5s-56.666 -4.5 -81.999 -4.5h-103v-253h-124v702h227c48 0 87.667 -4.33301 119 -13
s58 -21.667 80 -39zM394.998 378c30.667 18.667 46 51.6689 46 99.002c0 43.333 -13.667 75.666 -41 96.999c-14.667 10 -32.5 16.5 -53.5 19.5s-42.833 4.5 -65.5 4.5h-86v-241h86c20.667 0 41.5 1.16699 62.5 3.5s38.167 8.16602 51.5 17.499z" />
    <glyph glyph-name="Q" unicode="Q" horiz-adv-x="801" 
d="M773 -32l-108.001 -41l-92 101c-51.333 -27.333 -109.666 -41 -174.999 -41c-52.667 0 -100.834 8.83301 -144.501 26.5s-81.167 42.5 -112.5 74.5s-55.833 70.333 -73.5 115s-26.5 94 -26.5 148s8.83301 103.333 26.5 148s42.167 83 73.5 115s68.833 56.833 112.5 74.5
s91.834 26.5 144.501 26.5c52 0 99.833 -8.83301 143.5 -26.5s81.334 -42.5 113.001 -74.5s56.167 -70.333 73.5 -115s26 -94 26 -148c0 -52 -7.83301 -99.167 -23.5 -141.5s-37.834 -79.5 -66.501 -111.5zM163.999 351c0 -37.333 5.83301 -71.333 17.5 -102
s27.834 -57 48.501 -79s45.334 -39 74.001 -51s60 -18 94 -18s65.333 6 94 18s53.167 29 73.5 51s36.333 48.333 48 79s17.5 64.667 17.5 102s-5.83301 71.333 -17.5 102s-27.667 57 -48 79s-44.833 39 -73.5 51s-60 18 -94 18s-65.333 -6 -94 -18s-53.334 -29 -74.001 -51
s-36.834 -48.333 -48.501 -79s-17.5 -64.667 -17.5 -102z" />
    <glyph glyph-name="R" unicode="R" horiz-adv-x="644" 
d="M463 0l-176.999 253h-91v-253h-124v702h227c48.667 0 88.667 -4.33301 120 -13s57.666 -21.667 78.999 -39s38 -39.833 50 -67.5s18 -60.5 18 -98.5c0 -44 -8.5 -83.833 -25.5 -119.5s-42.833 -63.167 -77.5 -82.5c-11.333 -6 -24 -11 -38 -15l195 -267h-156z
M195.001 598l0.000976562 -240.999h86c20.667 0 41.5 1.16699 62.5 3.5s38.5 8.16602 52.5 17.499c30 18.667 45 51.667 45 99c0 44.667 -13.667 77 -41 97c-14.667 10 -32.334 16.5 -53.001 19.5s-42.667 4.5 -66 4.5h-86z" />
    <glyph glyph-name="S" unicode="S" horiz-adv-x="610" 
d="M308 -13c-37.333 0 -72.1689 4.49902 -104.502 13.499s-61.166 22.167 -86.499 39.5s-46.333 38.5 -63 63.5s-27.667 53.833 -33 86.5l122 26c10.667 -44 30.334 -76.167 59.001 -96.5s64.334 -30.5 107.001 -30.5c41.333 0 73.166 8.83301 95.499 26.5
s33.5 42.167 33.5 73.5c0 18 -4.33301 33 -13 45s-20.5 22.333 -35.5 31s-32.333 16 -52 22s-40.5 12 -62.5 18c-26.667 7.33301 -53.667 15.5 -81 24.5s-52.166 21 -74.499 36s-40.5 34.167 -54.5 57.5s-21 52.333 -21 87c0 31.333 6 59.5 18 84.5s28.667 46.5 50 64.5
s47.166 31.833 77.499 41.5s63.5 14.5 99.5 14.5c31.333 0 61.666 -3.33301 90.999 -10s56 -17.5 80 -32.5s44.833 -34 62.5 -57s30.5 -51.167 38.5 -84.5l-112 -26c-12.667 38 -31.167 65.5 -55.5 82.5s-56.833 25.5 -97.5 25.5c-38 0 -68.667 -8.5 -92 -25.5
s-35 -40.5 -35 -70.5c0 -16 4.16699 -29.5 12.5 -40.5s19.666 -20.333 33.999 -28s30.833 -14.167 49.5 -19.5s38.334 -10.666 59.001 -15.999c27.333 -6.66699 55.5 -14.667 84.5 -24s55.167 -21.833 78.5 -37.5s42.5 -35.667 57.5 -60s22.5 -55.5 22.5 -93.5
c0 -32 -6.16699 -61 -18.5 -87s-29.666 -48.167 -51.999 -66.5s-49.5 -32.5 -81.5 -42.5s-67.667 -15 -107 -15z" />
    <glyph glyph-name="T" unicode="T" horiz-adv-x="499" 
d="M486 702v-109h-175v-593h-123v593h-175v109h473z" />
    <glyph glyph-name="U" unicode="U" horiz-adv-x="675" 
d="M337 -13c-38.667 0 -74.832 5.33301 -108.499 16s-62.667 26.834 -87 48.501s-43.5 48.834 -57.5 81.501s-21 70.667 -21 114v455h124v-440c0 -56 14.167 -97.167 42.5 -123.5s64.166 -39.5 107.499 -39.5c44 0 80.167 13.167 108.5 39.5s42.5 67.5 42.5 123.5v440h123
v-455c0 -43.333 -6.83301 -81.333 -20.5 -114s-32.834 -59.834 -57.501 -81.501s-53.667 -37.834 -87 -48.501s-69.666 -16 -108.999 -16z" />
    <glyph glyph-name="V" unicode="V" horiz-adv-x="708" 
d="M564 702h131l-264 -702h-155l-264 702h131l211 -577z" />
    <glyph glyph-name="W" unicode="W" horiz-adv-x="1037" 
d="M890 702h128l-188 -702h-165l-147 480l-146 -480h-166l-188 702h129l151 -571l166 571h109l165 -571z" />
    <glyph glyph-name="X" unicode="X" horiz-adv-x="725" 
d="M12 0l277 364l-269 338h151l191 -247l192 247h151l-269 -338l277 -364h-155l-196 262l-195 -262h-155z" />
    <glyph glyph-name="Y" unicode="Y" horiz-adv-x="609" 
d="M603 702l-237 -371v-331h-123v329l-238 373h136l163 -264l164 264h135z" />
    <glyph glyph-name="Z" unicode="Z" horiz-adv-x="577" 
d="M179 109h364v-109h-509v100l360 493h-359v109h504v-100z" />
    <glyph glyph-name="bracketleft" unicode="[" horiz-adv-x="331" 
d="M65 -250v1075h241v-85h-136v-905h136v-85h-241z" />
    <glyph glyph-name="backslash" unicode="\" horiz-adv-x="601" 
d="M487 -195l-486 945h113l486 -945h-113z" />
    <glyph glyph-name="bracketright" unicode="]" horiz-adv-x="332" 
d="M267 -250h-242v85h137v905h-137v85h242v-1075z" />
    <glyph glyph-name="asciicircum" unicode="^" horiz-adv-x="697" 
d="M654 151h-101l-204 448l-205 -448h-101l251 551h109z" />
    <glyph glyph-name="underscore" unicode="_" horiz-adv-x="500" 
d="M0 -110v90h500v-90h-500z" />
    <glyph glyph-name="grave" unicode="`" horiz-adv-x="359" 
d="M184 558l-113 144h127l90 -144h-104z" />
    <glyph glyph-name="a" unicode="a" horiz-adv-x="545" 
d="M485 91c0 -15.333 0.333008 -30.001 1 -44.001s2.66699 -26 6 -36v-11h-117l-5 76c-17.333 -29.333 -41.333 -51 -72 -65s-63.667 -21 -99 -21c-20.667 0 -40.5 2.5 -59.5 7.5s-36 12.833 -51 23.5s-27 24.667 -36 42s-13.5 38 -13.5 62
c0 26.667 5.33301 49.334 16 68.001s24.834 34.167 42.501 46.5s37.667 22.333 60 30s45.166 13.834 68.499 18.501l97 20c12 3.33301 22.167 7.16602 30.5 11.499s12.5 12.166 12.5 23.499c0 28 -9.33301 48.167 -28 60.5s-41.667 18.5 -69 18.5
c-63.333 0 -100.333 -27.667 -111 -83l-114 17c10 52 35 90.333 75 115s90.333 37 151 37c70 0 123.333 -15.667 160 -47s55 -76.666 55 -135.999v-234zM233 72.999c18.667 0 36.498 3.66602 53.498 10.999s31.833 18.333 44.5 33s22.667 32.834 30 54.501s11 46.5 11 74.5
l-127 -30c-25.333 -4.66699 -46.166 -13 -62.499 -25s-24.5 -30 -24.5 -54c0 -21.333 6.83301 -37.333 20.5 -48s31.834 -16 54.501 -16z" />
    <glyph glyph-name="b" unicode="b" horiz-adv-x="633" 
d="M350 508c33.333 0 64.666 -6 93.999 -18s54.833 -29.333 76.5 -52s38.834 -50 51.501 -82s19 -68 19 -108s-6.33301 -76 -19 -108s-29.834 -59 -51.501 -81s-47.167 -39 -76.5 -51s-60.666 -18 -93.999 -18c-36.667 0 -69.5 7 -98.5 21s-51.167 34 -66.5 60v-71h-119v750
h119v-324c15.333 26 37.5 46.167 66.5 60.5s61.833 21.5 98.5 21.5zM326 89c42 0 76.833 14.167 104.5 42.5s41.5 67.166 41.5 116.499c0 24.667 -3.66699 46.834 -11 66.501s-17.5 36.5 -30.5 50.5s-28.333 24.833 -46 32.5s-37.167 11.5 -58.5 11.5
c-20.667 0 -40 -3.83301 -58 -11.5s-33.5 -18.5 -46.5 -32.5s-23.167 -30.833 -30.5 -50.5s-11 -41.834 -11 -66.501c0 -49.333 13.833 -88.166 41.5 -116.499s62.5 -42.5 104.5 -42.5z" />
    <glyph glyph-name="c" unicode="c" horiz-adv-x="584" 
d="M305 -10c-38.667 0 -74.334 6.3291 -107.001 18.9961s-60.5 30.334 -83.5 53.001s-41 50 -54 82s-19.5 67 -19.5 105s6.5 73 19.5 105s31 59.333 54 82s50.833 40.334 83.5 53.001s68.334 19 107.001 19c62.667 0 115.167 -15.667 157.5 -47
s69.833 -75.666 82.5 -132.999l-109 -11c-9.33301 32 -25.333 56.167 -48 72.5s-50.667 24.5 -84 24.5c-22 0 -41.833 -4 -59.5 -12s-32.667 -19.333 -45 -34s-22 -32.167 -29 -52.5s-10.5 -42.5 -10.5 -66.5s3.5 -46.167 10.5 -66.5s16.667 -37.833 29 -52.5
s27.333 -26 45 -34s37.5 -12 59.5 -12c33.333 0 61.333 8.16699 84 24.5s38.667 40.5 48 72.5l109 -11c-12.667 -57.333 -40.667 -101.666 -84 -132.999s-95.333 -47 -156 -47z" />
    <glyph glyph-name="d" unicode="d" horiz-adv-x="633" 
d="M448 750h119v-750h-119v69c-15.333 -25.333 -37.666 -44.833 -66.999 -58.5s-62 -20.5 -98 -20.5c-33.333 0 -64.666 6 -93.999 18s-54.833 29 -76.5 51s-38.834 49 -51.501 81s-19 68 -19 108s6.33301 76 19 108s29.834 59.333 51.501 82s47.167 40 76.5 52
s60.666 18 93.999 18c36 0 68.667 -7 98 -21s51.666 -34 66.999 -60v323zM307 89c42 0 76.833 14.167 104.5 42.5s41.5 67.166 41.5 116.499c0 24.667 -3.66699 46.834 -11 66.501s-17.5 36.5 -30.5 50.5s-28.333 24.833 -46 32.5s-37.167 11.5 -58.5 11.5
c-20.667 0 -40 -3.83301 -58 -11.5s-33.5 -18.5 -46.5 -32.5s-23.167 -30.833 -30.5 -50.5s-11 -41.834 -11 -66.501c0 -49.333 13.833 -88.166 41.5 -116.499s62.5 -42.5 104.5 -42.5z" />
    <glyph glyph-name="e" unicode="e" horiz-adv-x="585" 
d="M545 225h-389.001c3.33301 -44.667 18.333 -79.334 45 -104.001s59.667 -37 99 -37c29.333 0 54.5 6.5 75.5 19.5s37.167 32.167 48.5 57.5l110 -16c-17.333 -49.333 -46.5 -87.5 -87.5 -114.5s-89.5 -40.5 -145.5 -40.5c-40 0 -76.167 6 -108.5 18s-60 29.333 -83 52
s-40.667 49.834 -53 81.501s-18.5 67.5 -18.5 107.5s6.33301 75.833 19 107.5s30.334 58.834 53.001 81.501s50 40 82 52s67 18 105 18c36 0 69.167 -5.33301 99.5 -16s56.5 -26.834 78.5 -48.501s39.333 -48.5 52 -80.5s19 -69 19 -111zM297.999 419
c-38.667 0 -70.167 -10.167 -94.5 -30.5s-39.5 -50.166 -45.5 -89.499h270c-3.33301 37.333 -17 66.666 -41 87.999s-53.667 32 -89 32z" />
    <glyph glyph-name="f" unicode="f" horiz-adv-x="377" 
d="M329 655c-10 0 -20.335 -1.16699 -31.002 -3.5s-20.167 -7 -28.5 -14s-15.166 -16.5 -20.499 -28.5s-8 -28 -8 -48v-63h114v-92h-114v-406h-119v406h-101v92h101v63c0 38 5 69.333 15 94s24 44 42 58s39.833 23.667 65.5 29s53.834 8 84.501 8h26v-95h-26z" />
    <glyph glyph-name="g" unicode="g" horiz-adv-x="619" 
d="M436 498l118.998 -0.00390625v-489c0 -44.667 -6 -83.334 -18 -116.001s-29 -59.5 -51 -80.5s-48.667 -36.667 -80 -47s-66.666 -15.5 -105.999 -15.5c-68.667 0 -123.334 14.167 -164.001 42.5s-69.667 65.833 -87 112.5l99 41c14.667 -34 33.834 -59.833 57.501 -77.5
s53.5 -26.5 89.5 -26.5c48.667 0 84.334 14.333 107.001 43s34 67.334 34 116.001v89c-14.667 -24 -36.5 -43.5 -65.5 -58.5s-62.167 -22.5 -99.5 -22.5c-32 0 -61.833 6 -89.5 18s-52 28.833 -73 50.5s-37.5 47.834 -49.5 78.501s-18 65 -18 103s6 72.333 18 103
s28.5 56.834 49.5 78.501s45.5 38.334 73.5 50.001s58 17.5 90 17.5c38 0 71.167 -7.66699 99.5 -23s49.833 -35.666 64.5 -60.999v74zM298.998 104.996c20.667 0 39.833 3.83301 57.5 11.5s32.834 18.334 45.501 32.001s22.667 30 30 49s11 39.5 11 61.5
s-3.5 42.5 -10.5 61.5s-17 35.333 -30 49s-28.167 24.334 -45.5 32.001s-36.666 11.5 -57.999 11.5c-20.667 0 -39.834 -3.83301 -57.501 -11.5s-32.834 -18.334 -45.501 -32.001s-22.5 -30 -29.5 -49s-10.5 -39.5 -10.5 -61.5s3.66699 -42.5 11 -61.5
s17.333 -35.333 30 -49s27.667 -24.334 45 -32.001s36.333 -11.5 57 -11.5z" />
    <glyph glyph-name="h" unicode="h" horiz-adv-x="589" 
d="M348 508c58.667 0 103.498 -16 134.498 -48s46.5 -79 46.5 -141v-319h-119v301c0 39.333 -9.66699 67.833 -29 85.5s-45 26.5 -77 26.5c-15.333 0 -30.166 -2.5 -44.499 -7.5s-27.166 -12.833 -38.499 -23.5s-20.5 -24.667 -27.5 -42s-10.5 -38.666 -10.5 -63.999v-276
h-118v750h118v-317c17.333 23.333 40 41.666 68 54.999s60.333 20 97 20z" />
    <glyph glyph-name="i" unicode="i" horiz-adv-x="247" 
d="M124 589c-20 0 -37.167 7 -51.5 21s-21.5 31 -21.5 51c0 19.333 7.16699 36 21.5 50s31.5 21 51.5 21c19.333 0 36 -7 50 -21s21 -30.667 21 -50c0 -20 -7 -37 -21 -51s-30.667 -21 -50 -21zM64 0v498h119v-498h-119z" />
    <glyph glyph-name="j" unicode="j" horiz-adv-x="244" 
d="M120 589c-20 0 -37.167 7 -51.5 21s-21.5 31 -21.5 51c0 19.333 7.16699 36 21.5 50s31.5 21 51.5 21c19.333 0 36 -7 50 -21s21 -30.667 21 -50c0 -20 -7 -37 -21 -51s-30.667 -21 -50 -21zM-56 -151c24 0 43.501 2.66895 58.501 8.00195s26.667 14.166 35 26.499
s14.166 28.166 17.499 47.499s5 43 5 71v496h119v-496c0 -84 -17.833 -145.833 -53.5 -185.5s-96.167 -59.5 -181.5 -59.5v92z" />
    <glyph glyph-name="k" unicode="k" horiz-adv-x="561" 
d="M313 264l231 -264h-144l-186 216h-31v-216h-118v750h118v-452h30l180 200h135z" />
    <glyph glyph-name="l" unicode="l" horiz-adv-x="248" 
d="M65 0v750h118v-750h-118z" />
    <glyph glyph-name="m" unicode="m" horiz-adv-x="871" 
d="M642 508c52.667 0 94.001 -13.333 124.001 -40s45 -63.334 45 -110.001v-358h-119v320c0 30.667 -8.5 53.834 -25.5 69.501s-38.833 23.5 -65.5 23.5c-28.667 0 -53.167 -9.83301 -73.5 -29.5s-30.5 -53.167 -30.5 -100.5v-283h-118v320c0 30 -8.66699 53 -26 69
s-39.333 24 -66 24c-26 0 -48.833 -8.16699 -68.5 -24.5s-31.167 -43.833 -34.5 -82.5v-306h-119v498h119v-59c16 22 36.167 39 60.5 51s52.166 18 83.499 18c40 0 73.333 -7.5 100 -22.5s45.667 -36.5 57 -64.5c16 28 37.333 49.5 64 64.5s57.667 22.5 93 22.5z" />
    <glyph glyph-name="n" unicode="n" horiz-adv-x="589" 
d="M341 508c62 0 108.668 -15.501 140.001 -46.501s47 -74.5 47 -130.5v-331h-118v307c0 36 -9.83301 62.667 -29.5 80s-44.834 26 -75.501 26s-57.5 -9.16699 -80.5 -27.5s-36.5 -48.166 -40.5 -89.499v-296h-119v498h119v-60c17.333 22 39.333 39.167 66 51.5
s57 18.5 91 18.5z" />
    <glyph glyph-name="o" unicode="o" horiz-adv-x="617" 
d="M309 -10c-39.333 0 -75.333 6.16699 -108 18.5s-60.834 29.666 -84.501 51.999s-42.167 49.333 -55.5 81s-20 67.5 -20 107.5c0 39.333 6.66699 75 20 107s31.833 59.167 55.5 81.5s51.834 39.666 84.501 51.999s68.667 18.5 108 18.5s75.333 -6.16699 108 -18.5
s60.667 -29.666 84 -51.999s41.666 -49.5 54.999 -81.5s20 -67.667 20 -107c0 -40 -6.66699 -75.833 -20 -107.5s-31.666 -58.667 -54.999 -81s-51.333 -39.666 -84 -51.999s-68.667 -18.5 -108 -18.5zM309 85c22 0 42.167 4 60.5 12s34 19.167 47 33.5s23 31.666 30 51.999
s10.5 42.5 10.5 66.5s-3.5 46 -10.5 66s-17 37.333 -30 52s-28.667 26 -47 34s-38.5 12 -60.5 12s-42.167 -4 -60.5 -12s-34 -19.333 -47 -34s-23.167 -32 -30.5 -52s-11 -42 -11 -66s3.66699 -46.167 11 -66.5s17.5 -37.666 30.5 -51.999s28.667 -25.5 47 -33.5
s38.5 -12 60.5 -12z" />
    <glyph glyph-name="p" unicode="p" horiz-adv-x="633" 
d="M349 508c33.333 0 64.666 -6 93.999 -18s54.833 -29 76.5 -51s38.834 -49 51.501 -81s19 -68 19 -108s-6.33301 -76 -19 -108s-29.834 -59.333 -51.501 -82s-47.167 -40 -76.5 -52s-60.666 -18 -93.999 -18c-36.667 0 -69.667 7.16699 -99 21.5
s-51.666 34.5 -66.999 60.5v-315h-118v741h118v-71c15.333 26 37.666 46 66.999 60s62.333 21 99 21zM324 89c21.333 0 40.833 3.83008 58.5 11.4971s33.167 18.5 46.5 32.5s23.666 30.833 30.999 50.5s11 41.834 11 66.501s-3.66699 46.834 -11 66.501
s-17.666 36.334 -30.999 50.001s-28.833 24.167 -46.5 31.5s-37.167 11 -58.5 11c-42 0 -76.833 -14.167 -104.5 -42.5s-41.5 -67.166 -41.5 -116.499c0 -24.667 3.66699 -46.834 11 -66.501s17.5 -36.5 30.5 -50.5s28.5 -24.833 46.5 -32.5s37.333 -11.5 58 -11.5z" />
    <glyph glyph-name="q" unicode="q" horiz-adv-x="633" 
d="M450 498h119v-741h-119v315c-15.333 -26 -37.666 -46.167 -66.999 -60.5s-62.333 -21.5 -99 -21.5c-33.333 0 -64.666 6 -93.999 18s-54.833 29.333 -76.5 52s-38.834 50 -51.501 82s-19 68 -19 108s6.33301 76 19 108s29.834 59 51.501 81s47.167 39 76.5 51
s60.666 18 93.999 18c36.667 0 69.667 -7 99 -21s51.666 -34 66.999 -60v71zM309 89c21.333 0 40.833 3.83594 58.5 11.5029s33 18.5 46 32.5s23.167 30.833 30.5 50.5s11 41.834 11 66.501c0 49.333 -13.833 88.166 -41.5 116.499s-62.5 42.5 -104.5 42.5
c-20.667 0 -40 -3.66699 -58 -11s-33.667 -17.833 -47 -31.5s-23.666 -30.334 -30.999 -50.001s-11 -41.834 -11 -66.501s3.66699 -46.834 11 -66.501s17.666 -36.5 30.999 -50.5s29 -24.833 47 -32.5s37.333 -11.5 58 -11.5z" />
    <glyph glyph-name="r" unicode="r" horiz-adv-x="382" 
d="M183 418c15.333 28 38.168 50 68.501 66s66.5 24 108.5 24v-111c-60.667 0 -105.334 -12.5 -134.001 -37.5s-43 -68.167 -43 -129.5v-230h-118v498h118v-80z" />
    <glyph glyph-name="s" unicode="s" horiz-adv-x="501" 
d="M261 -10c-28 0 -54.5029 2.99805 -79.5029 8.99805s-47.167 15 -66.5 27s-35.5 26.833 -48.5 44.5s-21.833 37.834 -26.5 60.501l100 28c7.33301 -28.667 21.5 -49.5 42.5 -62.5s45.833 -19.5 74.5 -19.5c24.667 0 45 5.16699 61 15.5s24 25.166 24 44.499
c0 12.667 -3.16699 23 -9.5 31s-14.833 14.833 -25.5 20.5s-22.834 10.167 -36.501 13.5s-28.167 6.33301 -43.5 9c-25.333 5.33301 -48.666 11.333 -69.999 18s-39.666 15.5 -54.999 26.5s-27.333 24.667 -36 41s-13 36.166 -13 59.499c0 48 17.5 85.333 52.5 112
s81.833 40 140.5 40c24 0 46.833 -2.5 68.5 -7.5s41.5 -12.833 59.5 -23.5s33.333 -24.167 46 -40.5s22 -35.5 28 -57.5l-105 -23c-7.33301 22.667 -19.666 39.334 -36.999 50.001s-38.666 16 -63.999 16c-24 0 -43.5 -4.83301 -58.5 -14.5s-22.5 -23.167 -22.5 -40.5
c0 -10 3 -18.333 9 -25s14.167 -12.5 24.5 -17.5s22.333 -9.16699 36 -12.5s28.167 -6.66602 43.5 -9.99902c27.333 -6 52.333 -12.667 75 -20s42 -16.666 58 -27.999s28.333 -25.333 37 -42s13 -37.667 13 -63c0 -27.333 -5.33301 -51 -16 -71s-25 -36.5 -43 -49.5
s-38.833 -22.667 -62.5 -29s-48.5 -9.5 -74.5 -9.5z" />
    <glyph glyph-name="t" unicode="t" horiz-adv-x="389" 
d="M268 0c-47.333 0 -83.8311 13.167 -109.498 39.5s-38.5 63.5 -38.5 111.5v255h-99v92h44c21.333 0 38.166 5.33301 50.499 16s18.5 32 18.5 64v81h105v-161h112v-92h-112v-238c0 -25.333 6.16699 -43.833 18.5 -55.5s29.166 -17.5 50.499 -17.5h43v-95h-83z" />
    <glyph glyph-name="u" unicode="u" horiz-adv-x="589" 
d="M405 498h118v-498h-118v61c-17.333 -22 -39.5 -39.333 -66.5 -52s-57.833 -19 -92.5 -19c-62 0 -108.667 15.333 -140 46s-47 74 -47 130v332h119v-308c0 -36 9.66699 -62.333 29 -79s44.666 -25 75.999 -25c16.667 0 32.334 2.5 47.001 7.5s27.5 13 38.5 24
s19.833 25.167 26.5 42.5s10 38 10 62v276z" />
    <glyph glyph-name="v" unicode="v" horiz-adv-x="565" 
d="M418 498h129l-211 -498h-107l-212 498h129l136 -358z" />
    <glyph glyph-name="w" unicode="w" horiz-adv-x="870" 
d="M724 498h126l-175 -498h-125l-115 352l-115 -352h-125l-175 498h126l116 -357l124 357h99l123 -357z" />
    <glyph glyph-name="x" unicode="x" horiz-adv-x="601" 
d="M19 0l210 249l-210 249h150l131 -171l132 171h149l-210 -249l210 -249h-149l-131 169l-132 -169h-150z" />
    <glyph glyph-name="y" unicode="y" horiz-adv-x="565" 
d="M418 498h129l-313 -741h-129l115 263l-203 478h129l136 -357z" />
    <glyph glyph-name="z" unicode="z" horiz-adv-x="484" 
d="M456 498l-250 -406h240v-92h-420l249 406h-228v92h409z" />
    <glyph glyph-name="braceleft" unicode="{" horiz-adv-x="331" 
d="M249 -250c-23.333 0 -44.166 3.50293 -62.499 10.5029s-34 16.5 -47 28.5s-22.833 26.167 -29.5 42.5s-10 34.166 -10 53.499v233c0 23.333 -1 42.5 -3 57.5s-5.5 27.333 -10.5 37s-12.167 17.167 -21.5 22.5s-21.666 10 -36.999 14v78
c15.333 3.33301 27.666 7.66602 36.999 12.999s16.5 12.833 21.5 22.5s8.5 22.167 10.5 37.5s3 34.333 3 57v233c0 19.333 3.33301 37.166 10 53.499s16.5 30.5 29.5 42.5s28.667 21.5 47 28.5s39.166 10.5 62.499 10.5h57v-86h-36c-16 0 -29.667 -5.16699 -41 -15.5
s-17 -25.833 -17 -46.5v-217c0 -20.667 -1 -40 -3 -58s-6 -34.333 -12 -49s-14.333 -27.5 -25 -38.5s-24.667 -19.833 -42 -26.5c17.333 -6.66699 31.333 -15.5 42 -26.5s19 -24 25 -39s10 -31.5 12 -49.5s3 -37.333 3 -58v-217c0 -20.667 5.66699 -36.167 17 -46.5
s25 -15.5 41 -15.5h36v-86h-57z" />
    <glyph glyph-name="bar" unicode="|" horiz-adv-x="332" 
d="M107 -150v900h118v-900h-118z" />
    <glyph glyph-name="braceright" unicode="}" horiz-adv-x="331" 
d="M26 -250v85.9971h35c16 0 29.667 5.16699 41 15.5s17 25.833 17 46.5v217c0 20.667 1 40 3 58s6 34.5 12 49.5s14.5 28 25.5 39s25.167 19.833 42.5 26.5c-17.333 6.66699 -31.5 15.5 -42.5 26.5s-19.5 23.833 -25.5 38.5s-10 31 -12 49s-3 37.333 -3 58v217
c0 20.667 -5.66699 36.167 -17 46.5s-25 15.5 -41 15.5h-35v86h57c23.333 0 44.166 -3.5 62.499 -10.5s33.833 -16.5 46.5 -28.5s22.334 -26.167 29.001 -42.5s10 -34.166 10 -53.499v-233c0 -22.667 1 -41.667 3 -57s5.5 -27.833 10.5 -37.5s12.333 -17.167 22 -22.5
s21.834 -9.66602 36.501 -12.999v-78c-14.667 -4 -26.834 -8.66699 -36.501 -14s-17 -12.833 -22 -22.5s-8.5 -22 -10.5 -37s-3 -34.167 -3 -57.5v-233c0 -19.333 -3.33301 -37.166 -10 -53.499s-16.334 -30.5 -29.001 -42.5s-28.167 -21.5 -46.5 -28.5
s-39.166 -10.5 -62.499 -10.5h-57z" />
    <glyph glyph-name="asciitilde" unicode="~" horiz-adv-x="617" 
d="M412 151c-18.667 0 -35.167 2.83496 -49.5 8.50195s-27 12.5 -38 20.5s-20.667 16.5 -29 25.5l-21.5 22.5c-11.333 11.333 -21.333 20 -30 26s-18.667 9 -30 9c-25.333 0 -44.166 -10.5 -56.499 -31.5s-18.5 -45.5 -18.5 -73.5h-85c0 28 3.5 53.667 10.5 77
s17.5 43.333 31.5 60s31.167 29.667 51.5 39s43.5 14 69.5 14c30 0 54.333 -6.66699 73 -20s36.334 -31.333 53.001 -54c8 -10 16.667 -19.333 26 -28s21.666 -13 36.999 -13c21.333 0 39.166 9.33301 53.499 28s20.833 44 19.5 76h83
c0 -26.667 -3.33301 -51.334 -10 -74.001s-16.5 -42.334 -29.5 -59.001s-28.667 -29.667 -47 -39s-39.5 -14 -63.5 -14z" />
    <glyph glyph-name="exclamdown" unicode="&#xa1;" horiz-adv-x="261" 
d="M130 507c20 0 37 -7 51 -21s21 -31 21 -51c0 -19.333 -7 -36 -21 -50s-31 -21 -51 -21c-19.333 0 -36 7 -50 21s-21 30.667 -21 50c0 20 7 37 21 51s30.667 21 50 21zM82 278h95l13 -483h-120z" />
    <glyph glyph-name="cent" unicode="&#xa2;" horiz-adv-x="584" 
d="M304 188c33.333 0 61.335 8.16797 84.002 24.501s38.667 40.5 48 72.5l109 -11c-11.333 -52 -35.5 -93.333 -72.5 -124s-81.5 -48.667 -133.5 -54v-96h-71v96c-34 4 -65 13 -93 27s-51.833 32.167 -71.5 54.5s-35 48.333 -46 78s-16.5 62.167 -16.5 97.5
s5.5 67.666 16.5 96.999s26.333 55.166 46 77.499s43.5 40.5 71.5 54.5s59 23 93 27v93h71v-93c53.333 -5.33301 98.166 -23.166 134.499 -53.499s60.166 -71.5 71.499 -123.5l-109 -12c-9.33301 32 -25.333 56.167 -48 72.5s-50.667 24.5 -84 24.5
c-22 0 -41.833 -4 -59.5 -12s-32.667 -19.333 -45 -34s-22 -32 -29 -52s-10.5 -42 -10.5 -66s3.5 -46.167 10.5 -66.5s16.667 -37.833 29 -52.5s27.333 -26 45 -34s37.5 -12 59.5 -12z" />
    <glyph glyph-name="sterling" unicode="&#xa3;" horiz-adv-x="648" 
d="M476 491c0.666992 4.66699 1.16406 9.16602 1.49707 13.499s0.5 8.16602 0.5 11.499c0 33.333 -9.33301 58.333 -28 75s-44.667 25 -78 25c-38.667 0 -68.667 -11.833 -90 -35.5s-32 -60.5 -32 -110.5v-87h154v-86h-154v-196h320v-101h-502v72l35 5c26 6 39 23.333 39 52
v168h-74v86h74v87c0 36.667 5.5 70 16.5 100s26.667 55.5 47 76.5s44.833 37.333 73.5 49s60.334 17.5 95.001 17.5c26.667 0 52.334 -3.5 77.001 -10.5s46.334 -18 65.001 -33s33.667 -34.167 45 -57.5s17 -51 17 -83c0 -5.33301 -0.166992 -10.666 -0.5 -15.999
s-0.833008 -10.666 -1.5 -15.999z" />
    <glyph glyph-name="currency" unicode="&#xa4;" horiz-adv-x="673" 
d="M135 88l-63.001 67l73 73c-13.333 18.667 -23.166 38.667 -29.499 60s-9.5 43 -9.5 65c0 22.667 3.16699 44.667 9.5 66s16.166 41.333 29.499 60l-72 73l63 66l74 -74c38 26 80.333 39 127 39c22 0 43.667 -3.16699 65 -9.5s41.333 -16.166 60 -29.499l73 74l65 -65
l-73 -73c13.333 -18.667 23 -38.834 29 -60.501s9 -43.5 9 -65.5s-3 -43.833 -9 -65.5s-15.667 -42.167 -29 -61.5l73 -72l-64 -67l-74 75c-38.667 -26 -80.667 -39 -126 -39s-87.666 13 -126.999 39zM335.999 215c20 0 38.3291 3.66602 54.9961 10.999
s31.334 17.333 44.001 30s22.5 27.5 29.5 44.5s10.5 34.833 10.5 53.5c0 19.333 -3.66699 37.333 -11 54s-17.333 31.334 -30 44.001s-27.334 22.5 -44.001 29.5s-34.667 10.5 -54 10.5s-37.5 -3.66699 -54.5 -11s-31.667 -17.333 -44 -30s-22.166 -27.5 -29.499 -44.5
s-11 -35.167 -11 -54.5c0 -20 3.83301 -38.333 11.5 -55s17.834 -31 30.501 -43s27.334 -21.5 44.001 -28.5s34.334 -10.5 53.001 -10.5z" />
    <glyph glyph-name="yen" unicode="&#xa5;" horiz-adv-x="609" 
d="M603 702l-194 -302h132v-90h-175v-121h175v-90h-175v-99h-123v99h-177v90h177v121h-177v90h133l-194 302h136l163 -262l164 262h135z" />
    <glyph glyph-name="brokenbar" unicode="&#xa6;" horiz-adv-x="332" 
d="M107 390v360h118v-360h-118zM107 -150v360h118v-360h-118z" />
    <glyph glyph-name="section" unicode="&#xa7;" horiz-adv-x="625" 
d="M329 -187c-30 0 -58.501 3.00098 -85.501 9.00098s-51.5 15.667 -73.5 29s-40.833 30.333 -56.5 51s-27.167 46 -34.5 76l96 25c9.33301 -38 26.166 -65.5 50.499 -82.5s56.833 -25.5 97.5 -25.5c38 0 69.167 8.66699 93.5 26s36.5 42.666 36.5 75.999
c0 17.333 -4.5 31.666 -13.5 42.999s-21 21 -36 29s-32.333 14.833 -52 20.5s-40.167 11.167 -61.5 16.5c-25.333 6.66699 -51 14.167 -77 22.5s-49.5 19.5 -70.5 33.5s-38 31.667 -51 53s-19.5 48.333 -19.5 81c0 24.667 3.5 46.834 10.5 66.501s17.167 37.167 30.5 52.5
c-12.667 12.667 -22.667 27.5 -30 44.5s-11 37.167 -11 60.5c0 29.333 5.5 55.666 16.5 78.999s26.333 43 46 59s43.334 28.333 71.001 37s58.167 13 91.5 13c29.333 0 57.5 -3 84.5 -9s51.5 -15.667 73.5 -29s41 -30.5 57 -51.5s27.667 -46.5 35 -76.5l-97 -24
c-9.33301 38 -26.166 65.333 -50.499 82s-56.833 25 -97.5 25c-38 0 -69 -8.66699 -93 -26s-36 -42.666 -36 -75.999c0 -17.333 4.33301 -31.666 13 -42.999s20.5 -20.833 35.5 -28.5s32.333 -14.334 52 -20.001s40.167 -11.167 61.5 -16.5
c25.333 -6.66699 51 -14.334 77 -23.001s49.5 -20 70.5 -34s38.167 -31.667 51.5 -53s20 -48 20 -80c0 -48 -14 -87.667 -42 -119c13.333 -12.667 23.666 -27.667 30.999 -45s11 -37.666 11 -60.999c0 -29.333 -5.5 -55.5 -16.5 -78.5s-26.5 -42.5 -46.5 -58.5
s-43.667 -28.333 -71 -37s-57.666 -13 -90.999 -13zM426.999 153.001c16 18 23.999 40.332 23.999 66.999c0 19.333 -4.66699 35.333 -14 48s-22 23.334 -38 32.001s-34.333 16 -55 22l-65 18c-14.667 3.33301 -29 6.83301 -43 10.5s-26.667 9.16699 -38 16.5
c-15.333 -17.333 -23 -39.333 -23 -66c0 -19.333 4.66699 -35.333 14 -48s22 -23.5 38 -32.5s34.333 -16.5 55 -22.5l65 -18c14.667 -3.33301 28.834 -6.83301 42.501 -10.5s26.167 -9.16699 37.5 -16.5z" />
    <glyph glyph-name="dieresis" unicode="&#xa8;" horiz-adv-x="482" 
d="M144 589c-20 0 -37.167 7 -51.5 21s-21.5 31 -21.5 51c0 19.333 7.16699 36 21.5 50s31.5 21 51.5 21c19.333 0 36 -7 50 -21s21 -30.667 21 -50c0 -20 -7 -37 -21 -51s-30.667 -21 -50 -21zM339 589c-19.333 0 -36.166 7 -50.499 21s-21.5 31 -21.5 51
c0 19.333 7.16699 36 21.5 50s31.166 21 50.499 21s36.166 -7 50.499 -21s21.5 -30.667 21.5 -50c0 -20 -7.16699 -37 -21.5 -51s-31.166 -21 -50.499 -21z" />
    <glyph glyph-name="copyright" unicode="&#xa9;" horiz-adv-x="848" 
d="M424 -10c-49.333 0 -95.999 9.49902 -139.999 28.499s-82.333 44.833 -115 77.5s-58.5 71 -77.5 115s-28.5 90.667 -28.5 140c0 50 9.5 96.833 28.5 140.5s44.833 81.834 77.5 114.501s71 58.5 115 77.5s90.667 28.5 140 28.5s96 -9.5 140 -28.5
s82.333 -44.833 115 -77.5s58.5 -71 77.5 -115s28.5 -90.667 28.5 -140s-9.5 -96 -28.5 -140s-44.833 -82.333 -77.5 -115s-70.834 -58.5 -114.501 -77.5s-90.5 -28.5 -140.5 -28.5zM424.001 53.999c41.333 0 80 7.66699 116 23s67.5 36.5 94.5 63.5s48.167 58.5 63.5 94.5
s23 74.667 23 116s-7.66699 80 -23 116s-36.5 67.5 -63.5 94.5s-58.5 48.167 -94.5 63.5s-74.667 23 -116 23s-80 -7.66699 -116 -23s-67.5 -36.5 -94.5 -63.5s-48.167 -58.5 -63.5 -94.5s-23 -74.667 -23 -116s7.66699 -80 23 -116s36.5 -67.5 63.5 -94.5
s58.5 -48.167 94.5 -63.5s74.667 -23 116 -23zM424.001 159.999c-26.667 0 -51.667 5.00098 -75 15.001s-43.666 23.667 -60.999 41s-31 37.5 -41 60.5s-15 47.833 -15 74.5s5 51.5 15 74.5s23.667 43.167 41 60.5s37.666 31 60.999 41s48.333 15 75 15
c32 0 61.167 -7 87.5 -21s48.5 -32.667 66.5 -56l-52 -37c-11.333 15.333 -25.833 27.5 -43.5 36.5s-37.167 13.5 -58.5 13.5c-18 0 -34.833 -3.33301 -50.5 -10s-29.167 -15.667 -40.5 -27s-20.333 -24.666 -27 -39.999s-10 -32 -10 -50s3.33301 -34.667 10 -50
s15.667 -28.833 27 -40.5s24.833 -20.834 40.5 -27.501s32.5 -10 50.5 -10c21.333 0 40.833 4.66699 58.5 14s32.167 21.666 43.5 36.999l52 -37c-18 -23.333 -40.167 -42 -66.5 -56s-55.5 -21 -87.5 -21z" />
    <glyph glyph-name="ordfeminine" unicode="&#xaa;" horiz-adv-x="446" 
d="M303 702h69v-300h-69v46c-12.667 -16 -27.834 -28.667 -45.501 -38s-37.834 -14 -60.501 -14c-20.667 0 -40.167 4 -58.5 12s-34.166 19 -47.499 33s-24 30.5 -32 49.5s-12 39.5 -12 61.5s4 42.5 12 61.5s18.667 35.5 32 49.5s29.166 25 47.499 33s37.833 12 58.5 12
c22.667 0 42.834 -4.66699 60.501 -14s32.834 -22 45.501 -38v46zM209 456c12.667 0 24.667 2.5 36 7.5s21.333 11.833 30 20.5s15.5 18.834 20.5 30.501s7.5 24.167 7.5 37.5c0 26.667 -9.33301 49.167 -28 67.5s-40.667 27.5 -66 27.5s-47.333 -9.16699 -66 -27.5
s-28 -40.833 -28 -67.5c0 -13.333 2.5 -25.833 7.5 -37.5s11.833 -21.834 20.5 -30.501s18.667 -15.5 30 -20.5s23.333 -7.5 36 -7.5z" />
    <glyph glyph-name="guillemotleft" unicode="&#xab;" horiz-adv-x="535" 
d="M181 65l-152 184l152 184h98l-152 -184l152 -184h-98zM407 65l-152 184l152 184h98l-152 -184l152 -184h-98z" />
    <glyph glyph-name="logicalnot" unicode="&#xac;" horiz-adv-x="743" 
d="M592 85v231h-538v97h635v-328h-97z" />
    <glyph glyph-name="uni00AD" unicode="&#xad;" horiz-adv-x="392" 
d="M21 204v90h350v-90h-350z" />
    <glyph glyph-name="registered" unicode="&#xae;" horiz-adv-x="430" 
d="M214 308c-27.333 0 -53.168 5.33301 -77.501 16s-45.666 25.167 -63.999 43.5s-32.833 39.833 -43.5 64.5s-16 50.667 -16 78c0 28 5.33301 54.167 16 78.5s25 45.666 43 63.999s39.167 32.833 63.5 43.5s50.5 16 78.5 16s54.167 -5.33301 78.5 -16
s45.833 -25.167 64.5 -43.5s33.334 -39.666 44.001 -63.999s16 -50.5 16 -78.5c0 -27.333 -5.33301 -53.333 -16 -78s-25.334 -46.167 -44.001 -64.5s-40.167 -32.833 -64.5 -43.5s-50.5 -16 -78.5 -16zM213.998 348c22.667 0 43.8311 4.16992 63.498 12.5029
s36.834 19.833 51.501 34.5s26.334 31.834 35.001 51.501s13 40.834 13 63.501s-4.16699 44 -12.5 64s-19.833 37.333 -34.5 52s-32 26.167 -52 34.5s-41.333 12.5 -64 12.5s-43.834 -4.33301 -63.501 -13s-36.834 -20.334 -51.501 -35.001s-26.167 -31.834 -34.5 -51.501
s-12.5 -40.834 -12.5 -63.501s4.16699 -43.834 12.5 -63.501s19.833 -36.834 34.5 -51.501s31.834 -26.167 51.501 -34.5s40.834 -12.5 63.501 -12.5zM136.995 400.003v219.999h100c18.667 0 34.167 -6.16699 46.5 -18.5s18.5 -28.166 18.5 -47.499
c0 -13.333 -3.16699 -24.833 -9.5 -34.5s-14.833 -17.167 -25.5 -22.5l41 -97h-46l-36 91h-47v-91h-42zM178.995 526.002h49c10.667 0 18.667 2.66699 24 8s8 12 8 20c0 8.66699 -2.83301 15.667 -8.5 21s-13.5 8 -23.5 8h-49v-57z" />
    <glyph glyph-name="macron" unicode="&#xaf;" horiz-adv-x="405" 
d="M71 587v77h263v-77h-263z" />
    <glyph glyph-name="degree" unicode="&#xb0;" horiz-adv-x="450" 
d="M225 418c-20 0 -39 3.83301 -57 11.5s-33.667 18.167 -47 31.5s-23.833 28.833 -31.5 46.5s-11.5 36.834 -11.5 57.501c0 20 3.83301 39 11.5 57s18.167 33.667 31.5 47s29 23.833 47 31.5s37 11.5 57 11.5s39 -3.83301 57 -11.5s33.667 -18.167 47 -31.5
s23.833 -29 31.5 -47s11.5 -37 11.5 -57c0 -20.667 -3.83301 -39.834 -11.5 -57.501s-18.167 -33.167 -31.5 -46.5s-29 -23.833 -47 -31.5s-37 -11.5 -57 -11.5zM225 485c22.667 0 41.5 7.66699 56.5 23s22.5 34.333 22.5 57c0 22 -7.5 40.667 -22.5 56s-33.833 23 -56.5 23
c-22 0 -40.667 -7.66699 -56 -23s-23 -34 -23 -56c0 -22.667 7.66699 -41.667 23 -57s34 -23 56 -23z" />
    <glyph glyph-name="plusminus" unicode="&#xb1;" horiz-adv-x="588" 
d="M249 163v157h-195v90h195v157h90v-157h194v-90h-194v-157h-90zM54 14v90h479v-90h-479z" />
    <glyph glyph-name="uni00B2" unicode="&#xb2;" horiz-adv-x="339" 
d="M124 464l192.001 -0.000976562v-63h-290v59l170 172c14 14.667 24.167 27.667 30.5 39s9.5 23.666 9.5 36.999c0 18.667 -5.66699 33 -17 43s-27.333 15 -48 15c-24 0 -42.5 -6.5 -55.5 -19.5s-19.5 -32.167 -19.5 -57.5v-20l-70 7v19c0 42 12.667 75 38 99s60 36 104 36
c41.333 0 74.833 -10.667 100.5 -32s38.5 -50.333 38.5 -87c0 -21.333 -4.33301 -41.166 -13 -59.499s-23.334 -38.166 -44.001 -59.499z" />
    <glyph glyph-name="uni00B3" unicode="&#xb3;" horiz-adv-x="347" 
d="M175 393c-49.333 0 -87.166 12.666 -113.499 37.999s-39.5 62 -39.5 110h73c0.666992 -25.333 7 -45.666 19 -60.999s32 -23 60 -23c23.333 0 41.5 6.5 54.5 19.5s19.5 30.167 19.5 51.5c0 13.333 -2.5 24.333 -7.5 33s-11.333 15.667 -19 21
s-16.167 9.16602 -25.5 11.499s-18.333 3.5 -27 3.5h-14v55h13c19.333 0 34.833 5.66699 46.5 17s17.5 26 17.5 44c0 16 -5.5 29 -16.5 39s-25.5 15 -43.5 15c-20 0 -36 -6.66699 -48 -20s-18 -31.333 -18 -54v-4l-72 8c0 42 12.333 74.667 37 98s58 35 100 35
c38 0 68.833 -10.667 92.5 -32s35.5 -47.666 35.5 -78.999c0 -24 -6.16699 -43.5 -18.5 -58.5s-25.833 -25.167 -40.5 -30.5c21.333 -5.33301 40.166 -16.5 56.499 -33.5s24.5 -41.5 24.5 -73.5c0 -38.667 -13.333 -70 -40 -94s-62 -36 -106 -36z" />
    <glyph glyph-name="acute" unicode="&#xb4;" horiz-adv-x="359" 
d="M71 558l90 144h127l-113 -144h-104z" />
    <glyph glyph-name="uni00B5" unicode="&#xb5;" horiz-adv-x="588" 
d="M404 498h118.999v-498h-113l-4 63c-17.333 -23.333 -39.5 -41.333 -66.5 -54s-58.167 -19 -93.5 -19c-24 0 -46.667 2.66699 -68 8v-241h-119v741h119v-308c0 -36 9.66699 -62.333 29 -79s44.333 -25 75 -25c16.667 0 32.334 2.5 47.001 7.5s27.5 13 38.5 24
s19.833 25.167 26.5 42.5s10 38 10 62v276z" />
    <glyph glyph-name="paragraph" unicode="&#xb6;" horiz-adv-x="582" 
d="M252 -150v516.999h-24c-55.333 0 -98.833 14.333 -130.5 43s-47.5 70.334 -47.5 125.001s15.833 96.167 47.5 124.5s75.167 42.5 130.5 42.5h86v-852h-62zM412 -150.001v852h63v-852h-63z" />
    <glyph glyph-name="periodcentered" unicode="&#xb7;" horiz-adv-x="333" 
d="M167 278c-19.333 0 -36.333 7 -51 21s-22 31.333 -22 52c0 19.333 7.33301 36.333 22 51s31.667 22 51 22s36.333 -7.33301 51 -22s22 -31.667 22 -51c0 -20.667 -7.33301 -38 -22 -52s-31.667 -21 -51 -21z" />
    <glyph glyph-name="cedilla" unicode="&#xb8;" horiz-adv-x="360" 
d="M202 -60c26.667 0 47.8311 -7.83301 63.498 -23.5s23.5 -36.167 23.5 -61.5c0 -28 -9.66699 -51.333 -29 -70s-45 -28 -77 -28c-31.333 0 -56 6 -74 18s-30.667 27 -38 45l66 20c4 -9.33301 10 -16.166 18 -20.499s16.667 -6.5 26 -6.5
c12.667 0 23.334 3.66699 32.001 11s13 17.666 13 30.999s-4.33301 23.5 -13 30.5s-19 10.5 -31 10.5c-15.333 0 -27.666 -5 -36.999 -15l-57 25l73 127l59 -22l-45 -74c9.33301 2 18.333 3 27 3z" />
    <glyph glyph-name="uni00B9" unicode="&#xb9;" horiz-adv-x="235" 
d="M109 822h69v-421h-72v337l-99 -80v81z" />
    <glyph glyph-name="ordmasculine" unicode="&#xba;" horiz-adv-x="409" 
d="M204 400c-22.667 0 -44 4 -64 12s-37.5 19 -52.5 33s-26.667 30.5 -35 49.5s-12.5 39.5 -12.5 61.5s4.16699 42.5 12.5 61.5s20 35.5 35 49.5s32.5 25 52.5 33s41.333 12 64 12c23.333 0 45 -4 65 -12s37.5 -19 52.5 -33s26.833 -30.5 35.5 -49.5s13 -39.5 13 -61.5
s-4.33301 -42.5 -13 -61.5s-20.5 -35.5 -35.5 -49.5s-32.5 -25 -52.5 -33s-41.667 -12 -65 -12zM204 459c27.333 0 50.333 9.33301 69 28s28 41.667 28 69c0 26.667 -9.33301 49.334 -28 68.001s-41.667 28 -69 28c-26.667 0 -49.334 -9.33301 -68.001 -28
s-28 -41.334 -28 -68.001c0 -27.333 9.33301 -50.333 28 -69s41.334 -28 68.001 -28z" />
    <glyph glyph-name="guillemotright" unicode="&#xbb;" horiz-adv-x="536" 
d="M129 65h-98l152 184l-152 184h98l152 -184zM354 65h-97l152 184l-152 184h97l152 -184z" />
    <glyph glyph-name="onequarter" unicode="&#xbc;" horiz-adv-x="754" 
d="M106 281v337l-99 -80v81l102 83h69v-421h-72zM494 702h73l-396 -702h-73zM732 150v-63h-46v-87h-72v87h-201v63l165 271h108v-271h46zM482 150h132v222z" />
    <glyph glyph-name="onehalf" unicode="&#xbd;" horiz-adv-x="768" 
d="M106 281v337l-99 -80v81l102 83h69v-421h-72zM494 702h73l-396 -702h-73zM553 63l193.001 0.000976562v-63h-290v59l170 173c14 14 24.167 26.667 30.5 38s9.5 23.666 9.5 36.999c0 18.667 -5.66699 33 -17 43s-27.333 15 -48 15c-24 0 -42.5 -6.33301 -55.5 -19
s-19.5 -31.667 -19.5 -57v-21l-70 8v19c0 42 12.667 74.833 38 98.5s60 35.5 104 35.5c41.333 0 74.833 -10.5 100.5 -31.5s38.5 -50.167 38.5 -87.5c0 -21.333 -4.33301 -41 -13 -59s-23.334 -37.667 -44.001 -59z" />
    <glyph glyph-name="threequarters" unicode="&#xbe;" horiz-adv-x="866" 
d="M321 403c0 -38.667 -13.333 -70.001 -40 -94.001s-62 -36 -106 -36c-49.333 0 -87.166 12.667 -113.499 38s-39.5 62 -39.5 110h73c0.666992 -25.333 7 -45.666 19 -60.999s32 -23 60 -23c23.333 0 41.5 6.5 54.5 19.5s19.5 30.167 19.5 51.5
c0 13.333 -2.5 24.333 -7.5 33s-11.333 15.667 -19 21s-16.167 9.16602 -25.5 11.499s-18.333 3.5 -27 3.5h-14v55h13c19.333 0 34.833 5.66699 46.5 17s17.5 26 17.5 44c0 16 -5.5 29 -16.5 39s-25.5 15 -43.5 15c-20 0 -36 -6.66699 -48 -20s-18 -31.333 -18 -54v-4l-72 8
c0 42 12.333 74.667 37 98s58 35 100 35c38 0 68.833 -10.667 92.5 -32s35.5 -47.666 35.5 -78.999c0 -24 -6.16699 -43.5 -18.5 -58.5s-25.833 -25.167 -40.5 -30.5c21.333 -5.33301 40.166 -16.5 56.499 -33.5s24.5 -41.5 24.5 -73.5zM606 701.999h73l-396 -702h-73z
M844 149.999v-63h-46v-87h-72v87h-201v63l165 271h108v-271h46zM594 149.999h132v222z" />
    <glyph glyph-name="questiondown" unicode="&#xbf;" horiz-adv-x="521" 
d="M257 508c19.333 0 36 -7 50 -21s21 -31 21 -51c0 -19.333 -7 -36 -21 -50s-30.667 -21 -50 -21s-36 7 -50 21s-21 30.667 -21 50c0 20 6.83301 37 20.5 51s30.5 21 50.5 21zM305 285l0.00195312 -38.999c0 -32.667 -7.33301 -57.667 -22 -75s-33.667 -33.333 -57 -48
l-30 -20.5c-10 -7 -19 -15.333 -27 -25s-14.5 -21.167 -19.5 -34.5s-7.5 -29.333 -7.5 -48c0 -36.667 10.833 -64.834 32.5 -84.501s49.834 -29.5 84.501 -29.5c37.333 0 66.666 10.833 87.999 32.5s32 49.5 32 83.5c0 12 -1.33301 23 -4 33l106 -5
c0.666992 -5.33301 1.16699 -10.833 1.5 -16.5s0.5 -11.834 0.5 -18.501c0 -30 -5.33301 -57.833 -16 -83.5s-25.834 -47.667 -45.501 -66s-43.334 -32.666 -71.001 -42.999s-58.167 -15.5 -91.5 -15.5c-34 0 -65 4.83301 -93 14.5s-52.167 23.334 -72.5 41.001
s-36 39 -47 64s-16.5 53.167 -16.5 84.5c0 32 4.33301 59 13 81s19.5 40.5 32.5 55.5s26.667 27.5 41 37.5l39.5 27c18 12 31.5 23.667 40.5 35s13.5 25.666 13.5 42.999v20h95z" />
    <glyph glyph-name="Agrave" unicode="&#xc0;" horiz-adv-x="707" 
d="M406 732h-103l-106 132h126zM564 0l-57 155h-307l-57 -155h-131l264 702h155l264 -702h-131zM237 258h233l-116 319z" />
    <glyph glyph-name="Aacute" unicode="&#xc1;" horiz-adv-x="707" 
d="M511 864l-105 -132h-104l83 132h126zM564 0l-57 155h-307l-57 -155h-131l264 702h155l264 -702h-131zM237 258h233l-116 319z" />
    <glyph glyph-name="Acircumflex" unicode="&#xc2;" horiz-adv-x="707" 
d="M354 811l-68 -72h-98l97 125h137l96 -125h-97zM564 0l-57 155h-307l-57 -155h-131l264 702h155l264 -702h-131zM237 258h233l-116 319z" />
    <glyph glyph-name="Atilde" unicode="&#xc3;" horiz-adv-x="707" 
d="M284 808c-12.667 0 -22 -6.66602 -28 -19.999s-9 -29.666 -9 -48.999h-60c0 39.333 9.33301 71.666 28 96.999s44 38 76 38c23.333 0 41.166 -5 53.499 -15s23.166 -20.333 32.499 -31c6.66699 -8.66699 13.334 -15.834 20.001 -21.501s15.667 -8.5 27 -8.5
c12.667 0 21.834 6.5 27.501 19.5s8.5 29.167 8.5 48.5h60c0 -38 -8.83301 -69.833 -26.5 -95.5s-43.167 -38.5 -76.5 -38.5c-23.333 0 -41.333 5 -54 15s-23 20 -31 30c-7.33301 8.66699 -14.333 16 -21 22s-15.667 9 -27 9zM564 0.000976562l-57 155h-307l-57 -155h-131
l264 702h155l264 -702h-131zM237 258.001h233l-116 319z" />
    <glyph glyph-name="Adieresis" unicode="&#xc4;" horiz-adv-x="707" 
d="M257 744c-20 0 -37.167 7.16699 -51.5 21.5s-21.5 31.166 -21.5 50.499c0 20 7.16699 37 21.5 51s31.5 21 51.5 21c19.333 0 36 -7 50 -21s21 -31 21 -51c0 -19.333 -7 -36.166 -21 -50.499s-30.667 -21.5 -50 -21.5zM452 744c-19.333 0 -36.166 7.16699 -50.499 21.5
s-21.5 31.166 -21.5 50.499c0 20 7.16699 37 21.5 51s31.166 21 50.499 21s36.166 -7 50.499 -21s21.5 -31 21.5 -51c0 -19.333 -7.16699 -36.166 -21.5 -50.499s-31.166 -21.5 -50.499 -21.5zM564 0l-57 155h-307l-57 -155h-131l264 702h155l264 -702h-131zM237 258h233
l-116 319z" />
    <glyph glyph-name="Aring" unicode="&#xc5;" horiz-adv-x="707" 
d="M353 728c-17.333 0 -33.666 3 -48.999 9s-28.833 14.333 -40.5 25s-20.834 23.667 -27.501 39s-10 32 -10 50s3.33301 34.667 10 50s15.834 28.333 27.501 39s25.167 19 40.5 25s31.666 9 48.999 9s33.666 -3 48.999 -9s28.666 -14.333 39.999 -25s20.333 -23.667 27 -39
s10 -32 10 -50s-3.33301 -34.667 -10 -50s-15.667 -28.333 -27 -39s-24.666 -19 -39.999 -25s-31.666 -9 -48.999 -9zM353 917c-18.667 0 -34.167 -6.16699 -46.5 -18.5s-18.5 -28.166 -18.5 -47.499s6.16699 -35.166 18.5 -47.499s27.833 -18.5 46.5 -18.5
s34.5 6.16699 47.5 18.5s19.5 28.166 19.5 47.499s-6.5 35.166 -19.5 47.499s-28.833 18.5 -47.5 18.5zM564 0l-57 155h-307l-57 -155h-131l264 702h155l264 -702h-131zM237 258h233l-116 319z" />
    <glyph glyph-name="AE" unicode="&#xc6;" horiz-adv-x="888" 
d="M12 0l264 702h568v-109h-284v-188h247v-109h-247v-187h284v-109h-407v155h-237l-57 -155h-131zM236 258h201v335h-77z" />
    <glyph glyph-name="Ccedilla" unicode="&#xc7;" horiz-adv-x="756" 
d="M398 101c50 0 93.3271 12.332 129.994 36.999s63.667 58.667 81 102l116 -42c-24 -61.333 -62.333 -110.666 -115 -147.999s-114.667 -58 -186 -62l-31 -51c9.33301 2 18.333 3 27 3c26.667 0 47.834 -7.83301 63.501 -23.5s23.5 -36.167 23.5 -61.5
c0 -28 -9.66699 -51.333 -29 -70s-45 -28 -77 -28c-31.333 0 -56 6 -74 18s-30.667 27 -38 45l66 20c4 -9.33301 10 -16.166 18 -20.499s16.667 -6.5 26 -6.5c12.667 0 23.334 3.66699 32.001 11s13 17.666 13 30.999s-4.33301 23.5 -13 30.5s-19 10.5 -31 10.5
c-15.333 0 -27.666 -5 -36.999 -15l-57 25l48 83c-46.667 4.66699 -89.167 16.834 -127.5 36.501s-71.166 45.167 -98.499 76.5s-48.666 68.166 -63.999 110.499s-23 88.5 -23 138.5c0 54 8.83301 103.333 26.5 148s42.167 83 73.5 115s68.833 56.833 112.5 74.5
s91.834 26.5 144.501 26.5c38.667 0 75 -5 109 -15s65 -24.167 93 -42.5s52.667 -40.5 74 -66.5s38.333 -55 51 -87l-116 -42c-17.333 43.333 -44.333 77.333 -81 102s-80 37 -130 37c-34 0 -65.333 -6 -94 -18s-53.334 -29 -74.001 -51s-36.834 -48.333 -48.501 -79
s-17.5 -64.667 -17.5 -102s5.83301 -71.333 17.5 -102s27.834 -57 48.501 -79s45.334 -39 74.001 -51s60 -18 94 -18z" />
    <glyph glyph-name="Egrave" unicode="&#xc8;" horiz-adv-x="516" 
d="M329 732h-103l-106 132h126zM472 593h-277v-188h247v-108h-247v-188h277v-109h-401v702h401v-109z" />
    <glyph glyph-name="Eacute" unicode="&#xc9;" horiz-adv-x="516" 
d="M434 864l-105 -132h-104l83 132h126zM472 593h-277v-188h247v-108h-247v-188h277v-109h-401v702h401v-109z" />
    <glyph glyph-name="Ecircumflex" unicode="&#xca;" horiz-adv-x="516" 
d="M278 811l-68 -72h-98l97 125h137l96 -125h-97zM472 593h-277v-188h247v-108h-247v-188h277v-109h-401v702h401v-109z" />
    <glyph glyph-name="Edieresis" unicode="&#xcb;" horiz-adv-x="516" 
d="M180 744c-20 0 -37.167 7.16699 -51.5 21.5s-21.5 31.166 -21.5 50.499c0 20 7.16699 37 21.5 51s31.5 21 51.5 21c19.333 0 36 -7 50 -21s21 -31 21 -51c0 -19.333 -7 -36.166 -21 -50.499s-30.667 -21.5 -50 -21.5zM375 744c-19.333 0 -36.166 7.16699 -50.499 21.5
s-21.5 31.166 -21.5 50.499c0 20 7.16699 37 21.5 51s31.166 21 50.499 21s36.166 -7 50.499 -21s21.5 -31 21.5 -51c0 -19.333 -7.16699 -36.166 -21.5 -50.499s-31.166 -21.5 -50.499 -21.5zM472 593h-277v-188h247v-108h-247v-188h277v-109h-401v702h401v-109z" />
    <glyph glyph-name="Igrave" unicode="&#xcc;" horiz-adv-x="266" 
d="M81 732l-106 132h126l83 -132h-103zM71 0v702h124v-702h-124z" />
    <glyph glyph-name="Iacute" unicode="&#xcd;" horiz-adv-x="266" 
d="M81 732l83 132h126l-105 -132h-104zM71 0v702h124v-702h-124z" />
    <glyph glyph-name="Icircumflex" unicode="&#xce;" horiz-adv-x="266" 
d="M-33 739l97 125h137l96 -125h-97l-67 72l-68 -72h-98zM71 0v702h124v-702h-124z" />
    <glyph glyph-name="Idieresis" unicode="&#xcf;" horiz-adv-x="266" 
d="M35 744c-20 0 -37.167 7.16699 -51.5 21.5s-21.5 31.166 -21.5 50.499c0 20 7.16699 37 21.5 51s31.5 21 51.5 21c19.333 0 36 -7 50 -21s21 -31 21 -51c0 -19.333 -7 -36.166 -21 -50.499s-30.667 -21.5 -50 -21.5zM230 744c-19.333 0 -36.166 7.16699 -50.499 21.5
s-21.5 31.166 -21.5 50.499c0 20 7.16699 37 21.5 51s31.166 21 50.499 21s36.166 -7 50.499 -21s21.5 -31 21.5 -51c0 -19.333 -7.16699 -36.166 -21.5 -50.499s-31.166 -21.5 -50.499 -21.5zM71 0v702h124v-702h-124z" />
    <glyph glyph-name="Eth" unicode="&#xd0;" horiz-adv-x="695" 
d="M532 635c40 -30 70 -68.833 90 -116.5s30 -103.5 30 -167.5s-10 -119.833 -30 -167.5s-50 -86.5 -90 -116.5c-30 -22 -65.667 -38.667 -107 -50s-92.333 -17 -153 -17h-201v315h-77v73h77v314h201c60.667 0 111.667 -5.66699 153 -17s77 -28 107 -50zM446 155
c28 20 48.667 46.5 62 79.5s20 71.833 20 116.5s-6.66699 83.5 -20 116.5s-34 59.5 -62 79.5c-20.667 15.333 -45.334 26.833 -74.001 34.5s-62 11.5 -100 11.5h-77v-205h128v-73h-128v-206h77c38 0 71.333 3.83301 100 11.5s53.334 19.167 74.001 34.5z" />
    <glyph glyph-name="Ntilde" unicode="&#xd1;" horiz-adv-x="754" 
d="M310 808c-12.667 0 -22 -6.66602 -28 -19.999s-9 -29.666 -9 -48.999h-60c0 39.333 9.33301 71.666 28 96.999s44 38 76 38c23.333 0 41.166 -5 53.499 -15s23.166 -20.333 32.499 -31c6.66699 -8.66699 13.334 -15.834 20.001 -21.501s15.667 -8.5 27 -8.5
c12.667 0 21.834 6.5 27.501 19.5s8.5 29.167 8.5 48.5h60c0 -38 -8.83301 -69.833 -26.5 -95.5s-43.167 -38.5 -76.5 -38.5c-23.333 0 -41.333 5 -54 15s-23 20 -31 30c-7.33301 8.66699 -14.333 16 -21 22s-15.667 9 -27 9zM559 702.001h123v-702h-150l-337 533v-533h-124
v702h149l339 -533v533z" />
    <glyph glyph-name="Ograve" unicode="&#xd2;" horiz-adv-x="795" 
d="M346 732l-106 132h126l83 -132h-103zM398 -13c-52.667 0 -100.834 8.83301 -144.501 26.5s-81.167 42.5 -112.5 74.5s-55.833 70.333 -73.5 115s-26.5 94 -26.5 148s8.83301 103.333 26.5 148s42.167 83 73.5 115s68.833 56.833 112.5 74.5s91.834 26.5 144.501 26.5
c52 0 99.833 -8.83301 143.5 -26.5s81.334 -42.5 113.001 -74.5s56.167 -70.333 73.5 -115s26 -94 26 -148s-8.66699 -103.333 -26 -148s-41.833 -83 -73.5 -115s-69.334 -56.833 -113.001 -74.5s-91.5 -26.5 -143.5 -26.5zM398 101c34 0 65.333 6 94 18s53.167 29 73.5 51
s36.333 48.333 48 79s17.5 64.667 17.5 102s-5.83301 71.333 -17.5 102s-27.667 57 -48 79s-44.833 39 -73.5 51s-60 18 -94 18s-65.333 -6 -94 -18s-53.334 -29 -74.001 -51s-36.834 -48.333 -48.501 -79s-17.5 -64.667 -17.5 -102s5.83301 -71.333 17.5 -102
s27.834 -57 48.501 -79s45.334 -39 74.001 -51s60 -18 94 -18z" />
    <glyph glyph-name="Oacute" unicode="&#xd3;" horiz-adv-x="795" 
d="M346 732l83 132h126l-105 -132h-104zM398 -13c-52.667 0 -100.834 8.83301 -144.501 26.5s-81.167 42.5 -112.5 74.5s-55.833 70.333 -73.5 115s-26.5 94 -26.5 148s8.83301 103.333 26.5 148s42.167 83 73.5 115s68.833 56.833 112.5 74.5s91.834 26.5 144.501 26.5
c52 0 99.833 -8.83301 143.5 -26.5s81.334 -42.5 113.001 -74.5s56.167 -70.333 73.5 -115s26 -94 26 -148s-8.66699 -103.333 -26 -148s-41.833 -83 -73.5 -115s-69.334 -56.833 -113.001 -74.5s-91.5 -26.5 -143.5 -26.5zM398 101c34 0 65.333 6 94 18s53.167 29 73.5 51
s36.333 48.333 48 79s17.5 64.667 17.5 102s-5.83301 71.333 -17.5 102s-27.667 57 -48 79s-44.833 39 -73.5 51s-60 18 -94 18s-65.333 -6 -94 -18s-53.334 -29 -74.001 -51s-36.834 -48.333 -48.501 -79s-17.5 -64.667 -17.5 -102s5.83301 -71.333 17.5 -102
s27.834 -57 48.501 -79s45.334 -39 74.001 -51s60 -18 94 -18z" />
    <glyph glyph-name="Ocircumflex" unicode="&#xd4;" horiz-adv-x="795" 
d="M232 739l97 125h137l96 -125h-97l-67 72l-68 -72h-98zM398 -13c-52.667 0 -100.834 8.83301 -144.501 26.5s-81.167 42.5 -112.5 74.5s-55.833 70.333 -73.5 115s-26.5 94 -26.5 148s8.83301 103.333 26.5 148s42.167 83 73.5 115s68.833 56.833 112.5 74.5
s91.834 26.5 144.501 26.5c52 0 99.833 -8.83301 143.5 -26.5s81.334 -42.5 113.001 -74.5s56.167 -70.333 73.5 -115s26 -94 26 -148s-8.66699 -103.333 -26 -148s-41.833 -83 -73.5 -115s-69.334 -56.833 -113.001 -74.5s-91.5 -26.5 -143.5 -26.5zM398 101
c34 0 65.333 6 94 18s53.167 29 73.5 51s36.333 48.333 48 79s17.5 64.667 17.5 102s-5.83301 71.333 -17.5 102s-27.667 57 -48 79s-44.833 39 -73.5 51s-60 18 -94 18s-65.333 -6 -94 -18s-53.334 -29 -74.001 -51s-36.834 -48.333 -48.501 -79s-17.5 -64.667 -17.5 -102
s5.83301 -71.333 17.5 -102s27.834 -57 48.501 -79s45.334 -39 74.001 -51s60 -18 94 -18z" />
    <glyph glyph-name="Otilde" unicode="&#xd5;" horiz-adv-x="795" 
d="M461 732c-23.333 0 -41.333 5.00098 -54 15.001s-23 20 -31 30c-7.33301 8.66699 -14.333 16 -21 22s-15.667 9 -27 9c-12.667 0 -22 -6.66699 -28 -20s-9 -29.666 -9 -48.999h-60c0 39.333 9.33301 71.666 28 96.999s44 38 76 38c23.333 0 41.166 -5 53.499 -15
s23.166 -20.333 32.499 -31c6.66699 -8.66699 13.334 -15.834 20.001 -21.501s15.667 -8.5 27 -8.5c12.667 0 21.834 6.5 27.501 19.5s8.5 29.167 8.5 48.5h60c0 -38 -8.83301 -69.833 -26.5 -95.5s-43.167 -38.5 -76.5 -38.5zM398 -12.999
c-52.667 0 -100.834 8.83301 -144.501 26.5s-81.167 42.5 -112.5 74.5s-55.833 70.333 -73.5 115s-26.5 94 -26.5 148s8.83301 103.333 26.5 148s42.167 83 73.5 115s68.833 56.833 112.5 74.5s91.834 26.5 144.501 26.5c52 0 99.833 -8.83301 143.5 -26.5
s81.334 -42.5 113.001 -74.5s56.167 -70.333 73.5 -115s26 -94 26 -148s-8.66699 -103.333 -26 -148s-41.833 -83 -73.5 -115s-69.334 -56.833 -113.001 -74.5s-91.5 -26.5 -143.5 -26.5zM398 101.001c34 0 65.333 6 94 18s53.167 29 73.5 51s36.333 48.333 48 79
s17.5 64.667 17.5 102s-5.83301 71.333 -17.5 102s-27.667 57 -48 79s-44.833 39 -73.5 51s-60 18 -94 18s-65.333 -6 -94 -18s-53.334 -29 -74.001 -51s-36.834 -48.333 -48.501 -79s-17.5 -64.667 -17.5 -102s5.83301 -71.333 17.5 -102s27.834 -57 48.501 -79
s45.334 -39 74.001 -51s60 -18 94 -18z" />
    <glyph glyph-name="Odieresis" unicode="&#xd6;" horiz-adv-x="795" 
d="M300 744c-20 0 -37.167 7.16699 -51.5 21.5s-21.5 31.166 -21.5 50.499c0 20 7.16699 37 21.5 51s31.5 21 51.5 21c19.333 0 36 -7 50 -21s21 -31 21 -51c0 -19.333 -7 -36.166 -21 -50.499s-30.667 -21.5 -50 -21.5zM495 744c-19.333 0 -36.166 7.16699 -50.499 21.5
s-21.5 31.166 -21.5 50.499c0 20 7.16699 37 21.5 51s31.166 21 50.499 21s36.166 -7 50.499 -21s21.5 -31 21.5 -51c0 -19.333 -7.16699 -36.166 -21.5 -50.499s-31.166 -21.5 -50.499 -21.5zM398 -13c-52.667 0 -100.834 8.83301 -144.501 26.5s-81.167 42.5 -112.5 74.5
s-55.833 70.333 -73.5 115s-26.5 94 -26.5 148s8.83301 103.333 26.5 148s42.167 83 73.5 115s68.833 56.833 112.5 74.5s91.834 26.5 144.501 26.5c52 0 99.833 -8.83301 143.5 -26.5s81.334 -42.5 113.001 -74.5s56.167 -70.333 73.5 -115s26 -94 26 -148
s-8.66699 -103.333 -26 -148s-41.833 -83 -73.5 -115s-69.334 -56.833 -113.001 -74.5s-91.5 -26.5 -143.5 -26.5zM398 101c34 0 65.333 6 94 18s53.167 29 73.5 51s36.333 48.333 48 79s17.5 64.667 17.5 102s-5.83301 71.333 -17.5 102s-27.667 57 -48 79
s-44.833 39 -73.5 51s-60 18 -94 18s-65.333 -6 -94 -18s-53.334 -29 -74.001 -51s-36.834 -48.333 -48.501 -79s-17.5 -64.667 -17.5 -102s5.83301 -71.333 17.5 -102s27.834 -57 48.501 -79s45.334 -39 74.001 -51s60 -18 94 -18z" />
    <glyph glyph-name="multiply" unicode="&#xd7;" horiz-adv-x="511" 
d="M118 48l-64 64l138 137l-138 138l64 63l138 -137l137 137l64 -63l-138 -138l138 -137l-64 -64l-137 138z" />
    <glyph glyph-name="Oslash" unicode="&#xd8;" horiz-adv-x="795" 
d="M630 637c39.333 -32.667 69.833 -73.333 91.5 -122s32.5 -103.334 32.5 -164.001c0 -54 -8.66699 -103.333 -26 -148s-41.833 -83 -73.5 -115s-69.334 -56.833 -113.001 -74.5s-91.5 -26.5 -143.5 -26.5c-36 0 -69.5 4 -100.5 12s-60.167 19.667 -87.5 35l-59 -85l-48 28
l62 89c-39.333 32 -69.833 72.333 -91.5 121s-32.5 103.334 -32.5 164.001c0 54 8.83301 103.333 26.5 148s42.167 83 73.5 115s68.833 56.833 112.5 74.5s91.834 26.5 144.501 26.5c35.333 0 68.5 -4 99.5 -12s59.833 -19.667 86.5 -35l60 86l48 -28zM164 351.001
c0 -39.333 6.16895 -74.666 18.502 -105.999s29.5 -58 51.5 -80l283 406c-17.333 9.33301 -36 16.666 -56 21.999s-41 8 -63 8c-34 0 -65.333 -6 -94 -18s-53.334 -29 -74.001 -51s-36.834 -48.333 -48.501 -79s-17.5 -64.667 -17.5 -102zM398.002 101.001
c34 0 65.333 6.00098 94 18.001s53.167 29 73.5 51s36.333 48.333 48 79s17.5 64.667 17.5 102c0 39.333 -6.16699 74.666 -18.5 105.999s-29.5 58 -51.5 80l-283 -405c35.333 -20.667 75.333 -31 120 -31z" />
    <glyph glyph-name="Ugrave" unicode="&#xd9;" horiz-adv-x="675" 
d="M285 732l-106 132h126l83 -132h-103zM337 -13c-38.667 0 -74.832 5.33301 -108.499 16s-62.667 26.834 -87 48.501s-43.5 48.834 -57.5 81.501s-21 70.667 -21 114v455h124v-440c0 -56 14.167 -97.167 42.5 -123.5s64.166 -39.5 107.499 -39.5
c44 0 80.167 13.167 108.5 39.5s42.5 67.5 42.5 123.5v440h123v-455c0 -43.333 -6.83301 -81.333 -20.5 -114s-32.834 -59.834 -57.501 -81.501s-53.667 -37.834 -87 -48.501s-69.666 -16 -108.999 -16z" />
    <glyph glyph-name="Uacute" unicode="&#xda;" horiz-adv-x="675" 
d="M285 732l83 132h126l-105 -132h-104zM337 -13c-38.667 0 -74.832 5.33301 -108.499 16s-62.667 26.834 -87 48.501s-43.5 48.834 -57.5 81.501s-21 70.667 -21 114v455h124v-440c0 -56 14.167 -97.167 42.5 -123.5s64.166 -39.5 107.499 -39.5
c44 0 80.167 13.167 108.5 39.5s42.5 67.5 42.5 123.5v440h123v-455c0 -43.333 -6.83301 -81.333 -20.5 -114s-32.834 -59.834 -57.501 -81.501s-53.667 -37.834 -87 -48.501s-69.666 -16 -108.999 -16z" />
    <glyph glyph-name="Ucircumflex" unicode="&#xdb;" horiz-adv-x="675" 
d="M171 739l97 125h137l96 -125h-97l-67 72l-68 -72h-98zM337 -13c-38.667 0 -74.832 5.33301 -108.499 16s-62.667 26.834 -87 48.501s-43.5 48.834 -57.5 81.501s-21 70.667 -21 114v455h124v-440c0 -56 14.167 -97.167 42.5 -123.5s64.166 -39.5 107.499 -39.5
c44 0 80.167 13.167 108.5 39.5s42.5 67.5 42.5 123.5v440h123v-455c0 -43.333 -6.83301 -81.333 -20.5 -114s-32.834 -59.834 -57.501 -81.501s-53.667 -37.834 -87 -48.501s-69.666 -16 -108.999 -16z" />
    <glyph glyph-name="Udieresis" unicode="&#xdc;" horiz-adv-x="675" 
d="M239 744c-20 0 -37.167 7.16699 -51.5 21.5s-21.5 31.166 -21.5 50.499c0 20 7.16699 37 21.5 51s31.5 21 51.5 21c19.333 0 36 -7 50 -21s21 -31 21 -51c0 -19.333 -7 -36.166 -21 -50.499s-30.667 -21.5 -50 -21.5zM434 744c-19.333 0 -36.166 7.16699 -50.499 21.5
s-21.5 31.166 -21.5 50.499c0 20 7.16699 37 21.5 51s31.166 21 50.499 21s36.166 -7 50.499 -21s21.5 -31 21.5 -51c0 -19.333 -7.16699 -36.166 -21.5 -50.499s-31.166 -21.5 -50.499 -21.5zM337 -13c-38.667 0 -74.832 5.33301 -108.499 16s-62.667 26.834 -87 48.501
s-43.5 48.834 -57.5 81.501s-21 70.667 -21 114v455h124v-440c0 -56 14.167 -97.167 42.5 -123.5s64.166 -39.5 107.499 -39.5c44 0 80.167 13.167 108.5 39.5s42.5 67.5 42.5 123.5v440h123v-455c0 -43.333 -6.83301 -81.333 -20.5 -114s-32.834 -59.834 -57.501 -81.501
s-53.667 -37.834 -87 -48.501s-69.666 -16 -108.999 -16z" />
    <glyph glyph-name="Yacute" unicode="&#xdd;" horiz-adv-x="609" 
d="M461 864l-105 -132h-104l83 132h126zM603 702l-237 -371v-331h-123v329l-238 373h136l163 -264l164 264h135z" />
    <glyph glyph-name="Thorn" unicode="&#xde;" horiz-adv-x="596" 
d="M497 554c21.333 -17.333 37.999 -39.833 49.999 -67.5s18 -60.5 18 -98.5c0 -44 -8.5 -83.833 -25.5 -119.5s-42.833 -63.167 -77.5 -82.5c-25.333 -13.333 -52.666 -21.5 -81.999 -24.5s-56.666 -4.5 -81.999 -4.5h-103v-157h-124v702h124v-96h103
c89.333 0 155.666 -17.333 198.999 -52zM394.999 282c30.667 18.667 46 51.667 46 99c0 44 -13.667 76 -41 96c-14.667 10.667 -32.5 17.5 -53.5 20.5s-42.833 4.5 -65.5 4.5h-86v-242h86c20.667 0 41.5 1.33301 62.5 4s38.167 8.66699 51.5 18z" />
    <glyph glyph-name="germandbls" unicode="&#xdf;" horiz-adv-x="684" 
d="M452 -10c-28.667 0 -55.666 2.99414 -80.999 8.99414s-48 14.833 -68 26.5s-36.5 26.334 -49.5 44.001s-21.833 38.167 -26.5 61.5l100 27c7.33301 -30 21.166 -51.667 41.499 -65s45.5 -20 75.5 -20c26 0 48 5.33301 66 16s27 27.334 27 50.001
c0 13.333 -3.33301 24.5 -10 33.5s-15.334 16.333 -26.001 22s-22.834 10.334 -36.501 14.001s-27.5 6.83398 -41.5 9.50098c-24.667 5.33301 -47 11.333 -67 18s-37 15 -51 25s-24.667 22.333 -32 37s-11 33 -11 55c0 22.667 4 41.667 12 57s18.167 28.5 30.5 39.5
s26 20.167 41 27.5s29.833 14 44.5 20c24 11.333 45 23.333 63 36s27 30.334 27 53.001c0 24.667 -10.333 44 -31 58s-51.667 21 -93 21c-38 0 -68.333 -6 -91 -18s-40 -28 -52 -48s-20 -43.5 -24 -70.5s-6 -55.5 -6 -85.5v-443h-118v462c0 54.667 6.83301 101 20.5 139
s33.334 68.667 59.001 92s56.334 40.333 92.001 51s75.5 16 119.5 16c74.667 0 132.667 -16.833 174 -50.5s62 -78.167 62 -133.5c0 -24.667 -4.16699 -45.167 -12.5 -61.5s-19 -30 -32 -41s-27.333 -19.833 -43 -26.5l-46.5 -19c-21.333 -8.66699 -39.333 -17.5 -54 -26.5
s-22 -21.5 -22 -37.5c0 -17.333 8.33301 -29.5 25 -36.5s38 -13.5 64 -19.5c26.667 -6 51 -12.667 73 -20s41 -16.833 57 -28.5s28.333 -26.167 37 -43.5s13 -38.666 13 -63.999c0 -28 -5.33301 -52.333 -16 -73s-25.167 -37.5 -43.5 -50.5s-39.5 -22.667 -63.5 -29
s-49.333 -9.5 -76 -9.5z" />
    <glyph glyph-name="agrave" unicode="&#xe0;" horiz-adv-x="545" 
d="M334 558h-104l-113 144h127zM485 91c0 -15.333 0.333008 -30.001 1 -44.001s2.66699 -26 6 -36v-11h-117l-5 76c-17.333 -29.333 -41.333 -51 -72 -65s-63.667 -21 -99 -21c-20.667 0 -40.5 2.5 -59.5 7.5s-36 12.833 -51 23.5s-27 24.667 -36 42s-13.5 38 -13.5 62
c0 26.667 5.33301 49.334 16 68.001s24.834 34.167 42.501 46.5s37.667 22.333 60 30s45.166 13.834 68.499 18.501l97 20c12 3.33301 22.167 7.16602 30.5 11.499s12.5 12.166 12.5 23.499c0 28 -9.33301 48.167 -28 60.5s-41.667 18.5 -69 18.5
c-63.333 0 -100.333 -27.667 -111 -83l-114 17c10 52 35 90.333 75 115s90.333 37 151 37c70 0 123.333 -15.667 160 -47s55 -76.666 55 -135.999v-234zM233 72.999c18.667 0 36.498 3.66602 53.498 10.999s31.833 18.333 44.5 33s22.667 32.834 30 54.501s11 46.5 11 74.5
l-127 -30c-25.333 -4.66699 -46.166 -13 -62.499 -25s-24.5 -30 -24.5 -54c0 -21.333 6.83301 -37.333 20.5 -48s31.834 -16 54.501 -16z" />
    <glyph glyph-name="aacute" unicode="&#xe1;" horiz-adv-x="545" 
d="M441 702l-113 -144h-104l90 144h127zM485 91c0 -15.333 0.333008 -30.001 1 -44.001s2.66699 -26 6 -36v-11h-117l-5 76c-17.333 -29.333 -41.333 -51 -72 -65s-63.667 -21 -99 -21c-20.667 0 -40.5 2.5 -59.5 7.5s-36 12.833 -51 23.5s-27 24.667 -36 42
s-13.5 38 -13.5 62c0 26.667 5.33301 49.334 16 68.001s24.834 34.167 42.501 46.5s37.667 22.333 60 30s45.166 13.834 68.499 18.501l97 20c12 3.33301 22.167 7.16602 30.5 11.499s12.5 12.166 12.5 23.499c0 28 -9.33301 48.167 -28 60.5s-41.667 18.5 -69 18.5
c-63.333 0 -100.333 -27.667 -111 -83l-114 17c10 52 35 90.333 75 115s90.333 37 151 37c70 0 123.333 -15.667 160 -47s55 -76.666 55 -135.999v-234zM233 72.999c18.667 0 36.498 3.66602 53.498 10.999s31.833 18.333 44.5 33s22.667 32.834 30 54.501s11 46.5 11 74.5
l-127 -30c-25.333 -4.66699 -46.166 -13 -62.499 -25s-24.5 -30 -24.5 -54c0 -21.333 6.83301 -37.333 20.5 -48s31.834 -16 54.501 -16z" />
    <glyph glyph-name="acircumflex" unicode="&#xe2;" horiz-adv-x="545" 
d="M279 645l-66 -87h-98l96 144h135l96 -144h-98zM485 91c0 -15.333 0.333008 -30.001 1 -44.001s2.66699 -26 6 -36v-11h-117l-5 76c-17.333 -29.333 -41.333 -51 -72 -65s-63.667 -21 -99 -21c-20.667 0 -40.5 2.5 -59.5 7.5s-36 12.833 -51 23.5s-27 24.667 -36 42
s-13.5 38 -13.5 62c0 26.667 5.33301 49.334 16 68.001s24.834 34.167 42.501 46.5s37.667 22.333 60 30s45.166 13.834 68.499 18.501l97 20c12 3.33301 22.167 7.16602 30.5 11.499s12.5 12.166 12.5 23.499c0 28 -9.33301 48.167 -28 60.5s-41.667 18.5 -69 18.5
c-63.333 0 -100.333 -27.667 -111 -83l-114 17c10 52 35 90.333 75 115s90.333 37 151 37c70 0 123.333 -15.667 160 -47s55 -76.666 55 -135.999v-234zM233 72.999c18.667 0 36.498 3.66602 53.498 10.999s31.833 18.333 44.5 33s22.667 32.834 30 54.501s11 46.5 11 74.5
l-127 -30c-25.333 -4.66699 -46.166 -13 -62.499 -25s-24.5 -30 -24.5 -54c0 -21.333 6.83301 -37.333 20.5 -48s31.834 -16 54.501 -16z" />
    <glyph glyph-name="atilde" unicode="&#xe3;" horiz-adv-x="545" 
d="M209 629c-12.667 0 -22 -6.66602 -28 -19.999s-9 -29.333 -9 -48h-60c0 38.667 9.33301 70.667 28 96s44 38 76 38c23.333 0 41.166 -5 53.499 -15s23.166 -20.333 32.499 -31c6.66699 -8.66699 13.334 -15.834 20.001 -21.501s15.667 -8.5 27 -8.5
c12.667 0 21.834 6.5 27.501 19.5s8.5 29.167 8.5 48.5h60c0 -38 -8.83301 -69.833 -26.5 -95.5s-43.167 -38.5 -76.5 -38.5c-23.333 0 -41.333 5 -54 15s-23 20 -31 30c-7.33301 8.66699 -14.333 16 -21 22s-15.667 9 -27 9zM485 91.001
c0 -15.333 0.333008 -30.001 1 -44.001s2.66699 -26 6 -36v-11h-117l-5 76c-17.333 -29.333 -41.333 -51 -72 -65s-63.667 -21 -99 -21c-20.667 0 -40.5 2.5 -59.5 7.5s-36 12.833 -51 23.5s-27 24.667 -36 42s-13.5 38 -13.5 62c0 26.667 5.33301 49.334 16 68.001
s24.834 34.167 42.501 46.5s37.667 22.333 60 30s45.166 13.834 68.499 18.501l97 20c12 3.33301 22.167 7.16602 30.5 11.499s12.5 12.166 12.5 23.499c0 28 -9.33301 48.167 -28 60.5s-41.667 18.5 -69 18.5c-63.333 0 -100.333 -27.667 -111 -83l-114 17
c10 52 35 90.333 75 115s90.333 37 151 37c70 0 123.333 -15.667 160 -47s55 -76.666 55 -135.999v-234zM233 73c18.667 0 36.498 3.66602 53.498 10.999s31.833 18.333 44.5 33s22.667 32.834 30 54.501s11 46.5 11 74.5l-127 -30
c-25.333 -4.66699 -46.166 -13 -62.499 -25s-24.5 -30 -24.5 -54c0 -21.333 6.83301 -37.333 20.5 -48s31.834 -16 54.501 -16z" />
    <glyph glyph-name="adieresis" unicode="&#xe4;" horiz-adv-x="545" 
d="M181 589c-20 0 -37.167 7 -51.5 21s-21.5 31 -21.5 51c0 19.333 7.16699 36 21.5 50s31.5 21 51.5 21c19.333 0 36 -7 50 -21s21 -30.667 21 -50c0 -20 -7 -37 -21 -51s-30.667 -21 -50 -21zM376 589c-19.333 0 -36.166 7 -50.499 21s-21.5 31 -21.5 51
c0 19.333 7.16699 36 21.5 50s31.166 21 50.499 21s36.166 -7 50.499 -21s21.5 -30.667 21.5 -50c0 -20 -7.16699 -37 -21.5 -51s-31.166 -21 -50.499 -21zM485 91c0 -15.333 0.333008 -30.001 1 -44.001s2.66699 -26 6 -36v-11h-117l-5 76
c-17.333 -29.333 -41.333 -51 -72 -65s-63.667 -21 -99 -21c-20.667 0 -40.5 2.5 -59.5 7.5s-36 12.833 -51 23.5s-27 24.667 -36 42s-13.5 38 -13.5 62c0 26.667 5.33301 49.334 16 68.001s24.834 34.167 42.501 46.5s37.667 22.333 60 30s45.166 13.834 68.499 18.501
l97 20c12 3.33301 22.167 7.16602 30.5 11.499s12.5 12.166 12.5 23.499c0 28 -9.33301 48.167 -28 60.5s-41.667 18.5 -69 18.5c-63.333 0 -100.333 -27.667 -111 -83l-114 17c10 52 35 90.333 75 115s90.333 37 151 37c70 0 123.333 -15.667 160 -47
s55 -76.666 55 -135.999v-234zM233 72.999c18.667 0 36.498 3.66602 53.498 10.999s31.833 18.333 44.5 33s22.667 32.834 30 54.501s11 46.5 11 74.5l-127 -30c-25.333 -4.66699 -46.166 -13 -62.499 -25s-24.5 -30 -24.5 -54c0 -21.333 6.83301 -37.333 20.5 -48
s31.834 -16 54.501 -16z" />
    <glyph glyph-name="aring" unicode="&#xe5;" horiz-adv-x="545" 
d="M279 555c-18 0 -34.5 3.16699 -49.5 9.5s-27.667 14.833 -38 25.5s-18.5 23.167 -24.5 37.5s-9 29.5 -9 45.5s2.83301 31 8.5 45s13.834 26.167 24.501 36.5s23.5 18.666 38.5 24.999s31.5 9.5 49.5 9.5s34.333 -3.16699 49 -9.5s27.167 -14.666 37.5 -24.999
s18.333 -22.5 24 -36.5s8.5 -29 8.5 -45s-2.83301 -31.167 -8.5 -45.5s-13.834 -26.833 -24.501 -37.5s-23.167 -19.167 -37.5 -25.5s-30.5 -9.5 -48.5 -9.5zM279 731c-16.667 0 -30.667 -5.33301 -42 -16s-17 -24.667 -17 -42s5.66699 -31.5 17 -42.5
s25.333 -16.5 42 -16.5c16 0 29.833 5.5 41.5 16.5s17.5 25.167 17.5 42.5s-5.66699 31.333 -17 42s-25.333 16 -42 16zM485 91c0 -15.333 0.333008 -30.001 1 -44.001s2.66699 -26 6 -36v-11h-117l-5 76c-17.333 -29.333 -41.333 -51 -72 -65s-63.667 -21 -99 -21
c-20.667 0 -40.5 2.5 -59.5 7.5s-36 12.833 -51 23.5s-27 24.667 -36 42s-13.5 38 -13.5 62c0 26.667 5.33301 49.334 16 68.001s24.834 34.167 42.501 46.5s37.667 22.333 60 30s45.166 13.834 68.499 18.501l97 20c12 3.33301 22.167 7.16602 30.5 11.499
s12.5 12.166 12.5 23.499c0 28 -9.33301 48.167 -28 60.5s-41.667 18.5 -69 18.5c-63.333 0 -100.333 -27.667 -111 -83l-114 17c10 52 35 90.333 75 115s90.333 37 151 37c70 0 123.333 -15.667 160 -47s55 -76.666 55 -135.999v-234zM233 72.999
c18.667 0 36.498 3.66602 53.498 10.999s31.833 18.333 44.5 33s22.667 32.834 30 54.501s11 46.5 11 74.5l-127 -30c-25.333 -4.66699 -46.166 -13 -62.499 -25s-24.5 -30 -24.5 -54c0 -21.333 6.83301 -37.333 20.5 -48s31.834 -16 54.501 -16z" />
    <glyph glyph-name="ae" unicode="&#xe6;" horiz-adv-x="908" 
d="M861 225l-389.001 0.00292969c3.33301 -44.667 18.333 -79.334 45 -104.001s59.667 -37 99 -37c29.333 0 54.5 6.5 75.5 19.5s37.167 32.167 48.5 57.5l110 -16c-17.333 -49.333 -46.5 -87.5 -87.5 -114.5s-89.5 -40.5 -145.5 -40.5c-48 0 -90.333 8.5 -127 25.5
s-66.334 41.5 -89.001 73.5c-24 -34.667 -53.5 -59.834 -88.5 -75.501s-71.5 -23.5 -109.5 -23.5c-22.667 0 -43.667 2.5 -63 7.5s-36.166 13 -50.499 24s-25.5 25 -33.5 42s-12 37.167 -12 60.5c0 26 5 48 15 66s23.833 33.333 41.5 46s38 22.834 61 30.501
s47.5 13.834 73.5 18.501l86 17c16 3.33301 27.167 8.16602 33.5 14.499s9.5 14.166 9.5 23.499c0 30.667 -9.66699 52.667 -29 66s-43 20 -71 20c-30.667 0 -55.5 -7 -74.5 -21s-30.5 -38 -34.5 -72l-106 15c9.33301 55.333 32.166 95.666 68.499 120.999
s87.833 38 154.5 38c32.667 0 63.334 -4.16699 92.001 -12.5s52.334 -24.166 71.001 -47.499c22.667 19.333 49 34.333 79 45s63 16 99 16s69.167 -5.33301 99.5 -16s56.5 -26.834 78.5 -48.501s39.333 -48.5 52 -80.5s19 -69 19 -111zM613.999 419.003
c-38.667 0 -70.167 -10.167 -94.5 -30.5s-39.5 -50.166 -45.5 -89.499h270c-3.33301 37.333 -17 66.666 -41 87.999s-53.667 32 -89 32zM234.999 83.0029c12 0 24.499 1.66699 37.499 5s25.333 8.5 37 15.5s22.334 16 32.001 27s17.167 24.167 22.5 39.5
c-5.33301 20 -8.66602 42 -9.99902 66l-101 -22c-62 -12 -93 -36.333 -93 -73c0 -19.333 6.66699 -33.833 20 -43.5s31.666 -14.5 54.999 -14.5z" />
    <glyph glyph-name="ccedilla" unicode="&#xe7;" horiz-adv-x="584" 
d="M304 84c33.333 0 61.3271 8.16602 83.9941 24.499s38.667 40.5 48 72.5l109 -11c-11.333 -54 -36.666 -96.5 -75.999 -127.5s-86.666 -48.167 -141.999 -51.5l-33 -54c9.33301 2 18.333 3 27 3c26.667 0 47.834 -7.83301 63.501 -23.5s23.5 -36.167 23.5 -61.5
c0 -28 -9.66699 -51.333 -29 -70s-45 -28 -77 -28c-31.333 0 -56 6 -74 18s-30.667 27 -38 45l66 20c4 -9.33301 10 -16.166 18 -20.499s16.667 -6.5 26 -6.5c12.667 0 23.334 3.66699 32.001 11s13 17.666 13 30.999s-4.33301 23.5 -13 30.5s-19 10.5 -31 10.5
c-15.333 0 -27.666 -5 -36.999 -15l-57 25l50 87c-32.667 5.33301 -62.167 15.166 -88.5 29.499s-49 32.5 -68 54.5s-33.667 47.667 -44 77s-15.5 61 -15.5 95c0 38 6.5 73 19.5 105s31 59.333 54 82s50.833 40.334 83.5 53.001s68.334 19 107.001 19
c62.667 0 115.167 -15.667 157.5 -47s69.833 -75.666 82.5 -132.999l-109 -11c-9.33301 32 -25.333 56.167 -48 72.5s-50.667 24.5 -84 24.5c-22 0 -41.833 -4 -59.5 -12s-32.667 -19.333 -45 -34s-22 -32.167 -29 -52.5s-10.5 -42.5 -10.5 -66.5s3.5 -46.167 10.5 -66.5
s16.667 -37.833 29 -52.5s27.333 -26 45 -34s37.5 -12 59.5 -12z" />
    <glyph glyph-name="egrave" unicode="&#xe8;" horiz-adv-x="585" 
d="M355 559h-104l-113 144h127zM545 225h-389.001c3.33301 -44.667 18.333 -79.334 45 -104.001s59.667 -37 99 -37c29.333 0 54.5 6.5 75.5 19.5s37.167 32.167 48.5 57.5l110 -16c-17.333 -49.333 -46.5 -87.5 -87.5 -114.5s-89.5 -40.5 -145.5 -40.5
c-40 0 -76.167 6 -108.5 18s-60 29.333 -83 52s-40.667 49.834 -53 81.501s-18.5 67.5 -18.5 107.5s6.33301 75.833 19 107.5s30.334 58.834 53.001 81.501s50 40 82 52s67 18 105 18c36 0 69.167 -5.33301 99.5 -16s56.5 -26.834 78.5 -48.501s39.333 -48.5 52 -80.5
s19 -69 19 -111zM297.999 419c-38.667 0 -70.167 -10.167 -94.5 -30.5s-39.5 -50.166 -45.5 -89.499h270c-3.33301 37.333 -17 66.666 -41 87.999s-53.667 32 -89 32z" />
    <glyph glyph-name="eacute" unicode="&#xe9;" horiz-adv-x="585" 
d="M462 703l-113 -144h-104l90 144h127zM545 225h-389.001c3.33301 -44.667 18.333 -79.334 45 -104.001s59.667 -37 99 -37c29.333 0 54.5 6.5 75.5 19.5s37.167 32.167 48.5 57.5l110 -16c-17.333 -49.333 -46.5 -87.5 -87.5 -114.5s-89.5 -40.5 -145.5 -40.5
c-40 0 -76.167 6 -108.5 18s-60 29.333 -83 52s-40.667 49.834 -53 81.501s-18.5 67.5 -18.5 107.5s6.33301 75.833 19 107.5s30.334 58.834 53.001 81.501s50 40 82 52s67 18 105 18c36 0 69.167 -5.33301 99.5 -16s56.5 -26.834 78.5 -48.501s39.333 -48.5 52 -80.5
s19 -69 19 -111zM297.999 419c-38.667 0 -70.167 -10.167 -94.5 -30.5s-39.5 -50.166 -45.5 -89.499h270c-3.33301 37.333 -17 66.666 -41 87.999s-53.667 32 -89 32z" />
    <glyph glyph-name="ecircumflex" unicode="&#xea;" horiz-adv-x="585" 
d="M301 646l-66 -87h-98l96 144h135l96 -144h-98zM545 225h-389.001c3.33301 -44.667 18.333 -79.334 45 -104.001s59.667 -37 99 -37c29.333 0 54.5 6.5 75.5 19.5s37.167 32.167 48.5 57.5l110 -16c-17.333 -49.333 -46.5 -87.5 -87.5 -114.5s-89.5 -40.5 -145.5 -40.5
c-40 0 -76.167 6 -108.5 18s-60 29.333 -83 52s-40.667 49.834 -53 81.501s-18.5 67.5 -18.5 107.5s6.33301 75.833 19 107.5s30.334 58.834 53.001 81.501s50 40 82 52s67 18 105 18c36 0 69.167 -5.33301 99.5 -16s56.5 -26.834 78.5 -48.501s39.333 -48.5 52 -80.5
s19 -69 19 -111zM297.999 419c-38.667 0 -70.167 -10.167 -94.5 -30.5s-39.5 -50.166 -45.5 -89.499h270c-3.33301 37.333 -17 66.666 -41 87.999s-53.667 32 -89 32z" />
    <glyph glyph-name="edieresis" unicode="&#xeb;" horiz-adv-x="585" 
d="M203 590c-20 0 -37.167 7 -51.5 21s-21.5 31 -21.5 51c0 19.333 7.16699 36 21.5 50s31.5 21 51.5 21c19.333 0 36 -7 50 -21s21 -30.667 21 -50c0 -20 -7 -37 -21 -51s-30.667 -21 -50 -21zM398 590c-19.333 0 -36.166 7 -50.499 21s-21.5 31 -21.5 51
c0 19.333 7.16699 36 21.5 50s31.166 21 50.499 21s36.166 -7 50.499 -21s21.5 -30.667 21.5 -50c0 -20 -7.16699 -37 -21.5 -51s-31.166 -21 -50.499 -21zM545 225h-389.001c3.33301 -44.667 18.333 -79.334 45 -104.001s59.667 -37 99 -37c29.333 0 54.5 6.5 75.5 19.5
s37.167 32.167 48.5 57.5l110 -16c-17.333 -49.333 -46.5 -87.5 -87.5 -114.5s-89.5 -40.5 -145.5 -40.5c-40 0 -76.167 6 -108.5 18s-60 29.333 -83 52s-40.667 49.834 -53 81.501s-18.5 67.5 -18.5 107.5s6.33301 75.833 19 107.5s30.334 58.834 53.001 81.501
s50 40 82 52s67 18 105 18c36 0 69.167 -5.33301 99.5 -16s56.5 -26.834 78.5 -48.501s39.333 -48.5 52 -80.5s19 -69 19 -111zM297.999 419c-38.667 0 -70.167 -10.167 -94.5 -30.5s-39.5 -50.166 -45.5 -89.499h270c-3.33301 37.333 -17 66.666 -41 87.999
s-53.667 32 -89 32z" />
    <glyph glyph-name="igrave" unicode="&#xec;" horiz-adv-x="247" 
d="M74 558l-113 144h127l90 -144h-104zM64 0v498h119v-498h-119z" />
    <glyph glyph-name="iacute" unicode="&#xed;" horiz-adv-x="247" 
d="M68 558l90 144h127l-113 -144h-104zM64 0v498h119v-498h-119z" />
    <glyph glyph-name="icircumflex" unicode="&#xee;" horiz-adv-x="247" 
d="M-40 558l96 144h135l96 -144h-98l-65 87l-66 -87h-98zM64 0v498h119v-498h-119z" />
    <glyph glyph-name="idieresis" unicode="&#xef;" horiz-adv-x="247" 
d="M26 589c-20 0 -37.167 7 -51.5 21s-21.5 31 -21.5 51c0 19.333 7.16699 36 21.5 50s31.5 21 51.5 21c19.333 0 36 -7 50 -21s21 -30.667 21 -50c0 -20 -7 -37 -21 -51s-30.667 -21 -50 -21zM221 589c-19.333 0 -36.166 7 -50.499 21s-21.5 31 -21.5 51
c0 19.333 7.16699 36 21.5 50s31.166 21 50.499 21s36.166 -7 50.499 -21s21.5 -30.667 21.5 -50c0 -20 -7.16699 -37 -21.5 -51s-31.166 -21 -50.499 -21zM64 0v498h119v-498h-119z" />
    <glyph glyph-name="eth" unicode="&#xf0;" horiz-adv-x="621" 
d="M520 419c17.333 -22.667 31.167 -48.001 41.5 -76.001s15.5 -59.333 15.5 -94c0 -40 -6.66699 -75.833 -20 -107.5s-31.833 -58.667 -55.5 -81s-51.834 -39.666 -84.501 -51.999s-68.667 -18.5 -108 -18.5c-38.667 0 -74.5 6.16699 -107.5 18.5
s-61.167 29.666 -84.5 51.999s-41.666 49.333 -54.999 81s-20 67.5 -20 107.5s6.66699 75.833 20 107.5s31.833 58.834 55.5 81.501s52 40 85 52s69.167 18 108.5 18h10l-78 100l-129 -33l-10 35l115 30l-85 110h134l62 -82l109 28l10 -36l-94 -24zM309.001 83.999
c22 0 42.167 4 60.5 12s34 19.333 47 34s23.167 32.167 30.5 52.5s11 42.5 11 66.5c0 23.333 -3.5 45 -10.5 65s-17 37.333 -30 52s-28.667 26.167 -47 34.5s-38.833 12.5 -61.5 12.5c-22 0 -42.167 -4 -60.5 -12s-34 -19.333 -47 -34s-23.167 -32 -30.5 -52
s-11 -42 -11 -66s3.66699 -46.167 11 -66.5s17.5 -37.833 30.5 -52.5s28.667 -26 47 -34s38.5 -12 60.5 -12z" />
    <glyph glyph-name="ntilde" unicode="&#xf1;" horiz-adv-x="589" 
d="M220 629c-12.667 0 -22 -6.66602 -28 -19.999s-9 -29.333 -9 -48h-60c0 38.667 9.33301 70.667 28 96s44 38 76 38c23.333 0 41.166 -5 53.499 -15s23.166 -20.333 32.499 -31c6.66699 -8.66699 13.334 -15.834 20.001 -21.501s15.667 -8.5 27 -8.5
c12.667 0 21.834 6.5 27.501 19.5s8.5 29.167 8.5 48.5h60c0 -38 -8.83301 -69.833 -26.5 -95.5s-43.167 -38.5 -76.5 -38.5c-23.333 0 -41.333 5 -54 15s-23 20 -31 30c-7.33301 8.66699 -14.333 16 -21 22s-15.667 9 -27 9zM341 508.001
c62 0 108.668 -15.501 140.001 -46.501s47 -74.5 47 -130.5v-331h-118v307c0 36 -9.83301 62.667 -29.5 80s-44.834 26 -75.501 26s-57.5 -9.16699 -80.5 -27.5s-36.5 -48.166 -40.5 -89.499v-296h-119v498h119v-60c17.333 22 39.333 39.167 66 51.5s57 18.5 91 18.5z" />
    <glyph glyph-name="ograve" unicode="&#xf2;" horiz-adv-x="617" 
d="M261 558l-113 144h127l90 -144h-104zM309 -10c-39.333 0 -75.333 6.16699 -108 18.5s-60.834 29.666 -84.501 51.999s-42.167 49.333 -55.5 81s-20 67.5 -20 107.5c0 39.333 6.66699 75 20 107s31.833 59.167 55.5 81.5s51.834 39.666 84.501 51.999
s68.667 18.5 108 18.5s75.333 -6.16699 108 -18.5s60.667 -29.666 84 -51.999s41.666 -49.5 54.999 -81.5s20 -67.667 20 -107c0 -40 -6.66699 -75.833 -20 -107.5s-31.666 -58.667 -54.999 -81s-51.333 -39.666 -84 -51.999s-68.667 -18.5 -108 -18.5zM309 85
c22 0 42.167 4 60.5 12s34 19.167 47 33.5s23 31.666 30 51.999s10.5 42.5 10.5 66.5s-3.5 46 -10.5 66s-17 37.333 -30 52s-28.667 26 -47 34s-38.5 12 -60.5 12s-42.167 -4 -60.5 -12s-34 -19.333 -47 -34s-23.167 -32 -30.5 -52s-11 -42 -11 -66
s3.66699 -46.167 11 -66.5s17.5 -37.666 30.5 -51.999s28.667 -25.5 47 -33.5s38.5 -12 60.5 -12z" />
    <glyph glyph-name="oacute" unicode="&#xf3;" horiz-adv-x="617" 
d="M255 558l90 144h127l-113 -144h-104zM309 -10c-39.333 0 -75.333 6.16699 -108 18.5s-60.834 29.666 -84.501 51.999s-42.167 49.333 -55.5 81s-20 67.5 -20 107.5c0 39.333 6.66699 75 20 107s31.833 59.167 55.5 81.5s51.834 39.666 84.501 51.999
s68.667 18.5 108 18.5s75.333 -6.16699 108 -18.5s60.667 -29.666 84 -51.999s41.666 -49.5 54.999 -81.5s20 -67.667 20 -107c0 -40 -6.66699 -75.833 -20 -107.5s-31.666 -58.667 -54.999 -81s-51.333 -39.666 -84 -51.999s-68.667 -18.5 -108 -18.5zM309 85
c22 0 42.167 4 60.5 12s34 19.167 47 33.5s23 31.666 30 51.999s10.5 42.5 10.5 66.5s-3.5 46 -10.5 66s-17 37.333 -30 52s-28.667 26 -47 34s-38.5 12 -60.5 12s-42.167 -4 -60.5 -12s-34 -19.333 -47 -34s-23.167 -32 -30.5 -52s-11 -42 -11 -66
s3.66699 -46.167 11 -66.5s17.5 -37.666 30.5 -51.999s28.667 -25.5 47 -33.5s38.5 -12 60.5 -12z" />
    <glyph glyph-name="ocircumflex" unicode="&#xf4;" horiz-adv-x="617" 
d="M146 558l96 144h135l96 -144h-98l-65 87l-66 -87h-98zM309 -10c-39.333 0 -75.333 6.16699 -108 18.5s-60.834 29.666 -84.501 51.999s-42.167 49.333 -55.5 81s-20 67.5 -20 107.5c0 39.333 6.66699 75 20 107s31.833 59.167 55.5 81.5s51.834 39.666 84.501 51.999
s68.667 18.5 108 18.5s75.333 -6.16699 108 -18.5s60.667 -29.666 84 -51.999s41.666 -49.5 54.999 -81.5s20 -67.667 20 -107c0 -40 -6.66699 -75.833 -20 -107.5s-31.666 -58.667 -54.999 -81s-51.333 -39.666 -84 -51.999s-68.667 -18.5 -108 -18.5zM309 85
c22 0 42.167 4 60.5 12s34 19.167 47 33.5s23 31.666 30 51.999s10.5 42.5 10.5 66.5s-3.5 46 -10.5 66s-17 37.333 -30 52s-28.667 26 -47 34s-38.5 12 -60.5 12s-42.167 -4 -60.5 -12s-34 -19.333 -47 -34s-23.167 -32 -30.5 -52s-11 -42 -11 -66
s3.66699 -46.167 11 -66.5s17.5 -37.666 30.5 -51.999s28.667 -25.5 47 -33.5s38.5 -12 60.5 -12z" />
    <glyph glyph-name="otilde" unicode="&#xf5;" horiz-adv-x="617" 
d="M373 553c-23.333 0 -41.333 5.00098 -54 15.001s-23 20 -31 30c-7.33301 8.66699 -14.333 16 -21 22s-15.667 9 -27 9c-12.667 0 -22 -6.66699 -28 -20s-9 -29.333 -9 -48h-60c0 38.667 9.33301 70.667 28 96s44 38 76 38c23.333 0 41.166 -5 53.499 -15
s23.166 -20.333 32.499 -31c6.66699 -8.66699 13.334 -15.834 20.001 -21.501s15.667 -8.5 27 -8.5c12.667 0 21.834 6.5 27.501 19.5s8.5 29.167 8.5 48.5h60c0 -38 -8.83301 -69.833 -26.5 -95.5s-43.167 -38.5 -76.5 -38.5zM309 -9.99902
c-39.333 0 -75.333 6.16699 -108 18.5s-60.834 29.666 -84.501 51.999s-42.167 49.333 -55.5 81s-20 67.5 -20 107.5c0 39.333 6.66699 75 20 107s31.833 59.167 55.5 81.5s51.834 39.666 84.501 51.999s68.667 18.5 108 18.5s75.333 -6.16699 108 -18.5
s60.667 -29.666 84 -51.999s41.666 -49.5 54.999 -81.5s20 -67.667 20 -107c0 -40 -6.66699 -75.833 -20 -107.5s-31.666 -58.667 -54.999 -81s-51.333 -39.666 -84 -51.999s-68.667 -18.5 -108 -18.5zM309 85.001c22 0 42.167 4 60.5 12s34 19.167 47 33.5
s23 31.666 30 51.999s10.5 42.5 10.5 66.5s-3.5 46 -10.5 66s-17 37.333 -30 52s-28.667 26 -47 34s-38.5 12 -60.5 12s-42.167 -4 -60.5 -12s-34 -19.333 -47 -34s-23.167 -32 -30.5 -52s-11 -42 -11 -66s3.66699 -46.167 11 -66.5s17.5 -37.666 30.5 -51.999
s28.667 -25.5 47 -33.5s38.5 -12 60.5 -12z" />
    <glyph glyph-name="odieresis" unicode="&#xf6;" horiz-adv-x="617" 
d="M213 589c-20 0 -37.167 7 -51.5 21s-21.5 31 -21.5 51c0 19.333 7.16699 36 21.5 50s31.5 21 51.5 21c19.333 0 36 -7 50 -21s21 -30.667 21 -50c0 -20 -7 -37 -21 -51s-30.667 -21 -50 -21zM408 589c-19.333 0 -36.166 7 -50.499 21s-21.5 31 -21.5 51
c0 19.333 7.16699 36 21.5 50s31.166 21 50.499 21s36.166 -7 50.499 -21s21.5 -30.667 21.5 -50c0 -20 -7.16699 -37 -21.5 -51s-31.166 -21 -50.499 -21zM309 -10c-39.333 0 -75.333 6.16699 -108 18.5s-60.834 29.666 -84.501 51.999s-42.167 49.333 -55.5 81
s-20 67.5 -20 107.5c0 39.333 6.66699 75 20 107s31.833 59.167 55.5 81.5s51.834 39.666 84.501 51.999s68.667 18.5 108 18.5s75.333 -6.16699 108 -18.5s60.667 -29.666 84 -51.999s41.666 -49.5 54.999 -81.5s20 -67.667 20 -107c0 -40 -6.66699 -75.833 -20 -107.5
s-31.666 -58.667 -54.999 -81s-51.333 -39.666 -84 -51.999s-68.667 -18.5 -108 -18.5zM309 85c22 0 42.167 4 60.5 12s34 19.167 47 33.5s23 31.666 30 51.999s10.5 42.5 10.5 66.5s-3.5 46 -10.5 66s-17 37.333 -30 52s-28.667 26 -47 34s-38.5 12 -60.5 12
s-42.167 -4 -60.5 -12s-34 -19.333 -47 -34s-23.167 -32 -30.5 -52s-11 -42 -11 -66s3.66699 -46.167 11 -66.5s17.5 -37.666 30.5 -51.999s28.667 -25.5 47 -33.5s38.5 -12 60.5 -12z" />
    <glyph glyph-name="divide" unicode="&#xf7;" horiz-adv-x="609" 
d="M301 373c-17.333 0 -32.333 6.16699 -45 18.5s-19 27.5 -19 45.5c0 17.333 6.33301 32.333 19 45s27.667 19 45 19s32.5 -6.33301 45.5 -19s19.5 -27.667 19.5 -45c0 -18 -6.5 -33.167 -19.5 -45.5s-28.167 -18.5 -45.5 -18.5zM54 204v90h500v-90h-500zM301 -3
c-17.333 0 -32.333 6.16699 -45 18.5s-19 27.833 -19 46.5c0 17.333 6.33301 32.333 19 45s27.667 19 45 19s32.5 -6.33301 45.5 -19s19.5 -27.667 19.5 -45c0 -18.667 -6.5 -34.167 -19.5 -46.5s-28.167 -18.5 -45.5 -18.5z" />
    <glyph glyph-name="oslash" unicode="&#xf8;" horiz-adv-x="617" 
d="M484 452c29.333 -22.667 51.9971 -51.166 67.9971 -85.499s24 -73.5 24 -117.5c0 -40 -6.66699 -75.833 -20 -107.5s-31.666 -58.667 -54.999 -81s-51.333 -39.666 -84 -51.999s-68.667 -18.5 -108 -18.5c-46.667 0 -89 8.66699 -127 26l-46 -65l-48 29l46 65
c-29.333 22.667 -52.166 51.167 -68.499 85.5s-24.5 73.833 -24.5 118.5c0 39.333 6.66699 75 20 107s31.833 59.167 55.5 81.5s51.834 39.666 84.501 51.999s68.667 18.5 108 18.5c24 0 46.667 -2.33301 68 -7s41.333 -11.334 60 -20.001l46 65l47 -29zM159.997 249.001
c0 -46.667 12.332 -84.333 36.999 -113l182 260c-21.333 11.333 -44.666 17 -69.999 17c-22 0 -42.167 -4 -60.5 -12s-34 -19.333 -47 -34s-23.167 -32 -30.5 -52s-11 -42 -11 -66zM308.996 85.002c22 0 42.167 4.00098 60.5 12.001s34 19.167 47 33.5s23 31.666 30 51.999
s10.5 42.5 10.5 66.5c0 44.667 -12 82 -36 112l-181 -260c21.333 -10.667 44.333 -16 69 -16z" />
    <glyph glyph-name="ugrave" unicode="&#xf9;" horiz-adv-x="589" 
d="M346 558h-104l-113 144h127zM405 498h118v-498h-118v61c-17.333 -22 -39.5 -39.333 -66.5 -52s-57.833 -19 -92.5 -19c-62 0 -108.667 15.333 -140 46s-47 74 -47 130v332h119v-308c0 -36 9.66699 -62.333 29 -79s44.666 -25 75.999 -25c16.667 0 32.334 2.5 47.001 7.5
s27.5 13 38.5 24s19.833 25.167 26.5 42.5s10 38 10 62v276z" />
    <glyph glyph-name="uacute" unicode="&#xfa;" horiz-adv-x="589" 
d="M453 702l-113 -144h-104l90 144h127zM405 498h118v-498h-118v61c-17.333 -22 -39.5 -39.333 -66.5 -52s-57.833 -19 -92.5 -19c-62 0 -108.667 15.333 -140 46s-47 74 -47 130v332h119v-308c0 -36 9.66699 -62.333 29 -79s44.666 -25 75.999 -25
c16.667 0 32.334 2.5 47.001 7.5s27.5 13 38.5 24s19.833 25.167 26.5 42.5s10 38 10 62v276z" />
    <glyph glyph-name="ucircumflex" unicode="&#xfb;" horiz-adv-x="589" 
d="M292 645l-66 -87h-98l96 144h135l96 -144h-98zM405 498h118v-498h-118v61c-17.333 -22 -39.5 -39.333 -66.5 -52s-57.833 -19 -92.5 -19c-62 0 -108.667 15.333 -140 46s-47 74 -47 130v332h119v-308c0 -36 9.66699 -62.333 29 -79s44.666 -25 75.999 -25
c16.667 0 32.334 2.5 47.001 7.5s27.5 13 38.5 24s19.833 25.167 26.5 42.5s10 38 10 62v276z" />
    <glyph glyph-name="udieresis" unicode="&#xfc;" horiz-adv-x="589" 
d="M194 589c-20 0 -37.167 7 -51.5 21s-21.5 31 -21.5 51c0 19.333 7.16699 36 21.5 50s31.5 21 51.5 21c19.333 0 36 -7 50 -21s21 -30.667 21 -50c0 -20 -7 -37 -21 -51s-30.667 -21 -50 -21zM389 589c-19.333 0 -36.166 7 -50.499 21s-21.5 31 -21.5 51
c0 19.333 7.16699 36 21.5 50s31.166 21 50.499 21s36.166 -7 50.499 -21s21.5 -30.667 21.5 -50c0 -20 -7.16699 -37 -21.5 -51s-31.166 -21 -50.499 -21zM405 498h118v-498h-118v61c-17.333 -22 -39.5 -39.333 -66.5 -52s-57.833 -19 -92.5 -19
c-62 0 -108.667 15.333 -140 46s-47 74 -47 130v332h119v-308c0 -36 9.66699 -62.333 29 -79s44.666 -25 75.999 -25c16.667 0 32.334 2.5 47.001 7.5s27.5 13 38.5 24s19.833 25.167 26.5 42.5s10 38 10 62v276z" />
    <glyph glyph-name="yacute" unicode="&#xfd;" horiz-adv-x="565" 
d="M448 702l-113 -144h-104l90 144h127zM418 498h129l-313 -741h-129l115 263l-203 478h129l136 -357z" />
    <glyph glyph-name="thorn" unicode="&#xfe;" horiz-adv-x="633" 
d="M349 508c33.333 0 64.666 -6 93.999 -18s54.833 -29.333 76.5 -52s38.834 -50 51.501 -82s19 -68 19 -108s-6.33301 -76 -19 -108s-29.834 -59.333 -51.501 -82s-47.167 -40 -76.5 -52s-60.666 -18 -93.999 -18c-36.667 0 -69.667 7.16699 -99 21.5
s-51.666 34.833 -66.999 61.5v-314h-118v993h118v-325c15.333 26.667 37.666 47.167 66.999 61.5s62.333 21.5 99 21.5zM325 87c21.333 0 40.833 3.83301 58.5 11.5s33 18.5 46 32.5s23.167 30.833 30.5 50.5s11 41.834 11 66.501s-3.66699 46.834 -11 66.501
s-17.5 36.5 -30.5 50.5s-28.333 24.833 -46 32.5s-37.167 11.5 -58.5 11.5c-20.667 0 -40 -3.83301 -58 -11.5s-33.667 -18.5 -47 -32.5s-23.666 -30.833 -30.999 -50.5s-11 -41.834 -11 -66.501s3.66699 -46.834 11 -66.501s17.666 -36.5 30.999 -50.5s29 -24.833 47 -32.5
s37.333 -11.5 58 -11.5z" />
    <glyph glyph-name="ydieresis" unicode="&#xff;" horiz-adv-x="565" 
d="M189 589c-20 0 -37.167 7 -51.5 21s-21.5 31 -21.5 51c0 19.333 7.16699 36 21.5 50s31.5 21 51.5 21c19.333 0 36 -7 50 -21s21 -30.667 21 -50c0 -20 -7 -37 -21 -51s-30.667 -21 -50 -21zM384 589c-19.333 0 -36.166 7 -50.499 21s-21.5 31 -21.5 51
c0 19.333 7.16699 36 21.5 50s31.166 21 50.499 21s36.166 -7 50.499 -21s21.5 -30.667 21.5 -50c0 -20 -7.16699 -37 -21.5 -51s-31.166 -21 -50.499 -21zM418 498h129l-313 -741h-129l115 263l-203 478h129l136 -357z" />
    <glyph glyph-name="Amacron" unicode="&#x100;" horiz-adv-x="707" 
d="M515 850v-77h-323v77h323zM564 0l-57 155h-307l-57 -155h-131l264 702h155l264 -702h-131zM237 258h233l-116 319z" />
    <glyph glyph-name="amacron" unicode="&#x101;" horiz-adv-x="545" 
d="M410 664v-77h-263v77h263zM485 91c0 -15.333 0.333008 -30.001 1 -44.001s2.66699 -26 6 -36v-11h-117l-5 76c-17.333 -29.333 -41.333 -51 -72 -65s-63.667 -21 -99 -21c-20.667 0 -40.5 2.5 -59.5 7.5s-36 12.833 -51 23.5s-27 24.667 -36 42s-13.5 38 -13.5 62
c0 26.667 5.33301 49.334 16 68.001s24.834 34.167 42.501 46.5s37.667 22.333 60 30s45.166 13.834 68.499 18.501l97 20c12 3.33301 22.167 7.16602 30.5 11.499s12.5 12.166 12.5 23.499c0 28 -9.33301 48.167 -28 60.5s-41.667 18.5 -69 18.5
c-63.333 0 -100.333 -27.667 -111 -83l-114 17c10 52 35 90.333 75 115s90.333 37 151 37c70 0 123.333 -15.667 160 -47s55 -76.666 55 -135.999v-234zM233 72.999c18.667 0 36.498 3.66602 53.498 10.999s31.833 18.333 44.5 33s22.667 32.834 30 54.501s11 46.5 11 74.5
l-127 -30c-25.333 -4.66699 -46.166 -13 -62.499 -25s-24.5 -30 -24.5 -54c0 -21.333 6.83301 -37.333 20.5 -48s31.834 -16 54.501 -16z" />
    <glyph glyph-name="Abreve" unicode="&#x102;" horiz-adv-x="707" 
d="M353 736c-25.333 0 -48.3359 2 -69.0029 6s-38.5 11 -53.5 21s-27 23.167 -36 39.5s-14.167 36.833 -15.5 61.5h77c2.66699 -24 11.834 -41.167 27.501 -51.5s38.834 -15.5 69.501 -15.5c31.333 0 54.833 5.16699 70.5 15.5s24.834 27.5 27.501 51.5h77
c-1.33301 -24.667 -6.5 -45.167 -15.5 -61.5s-21.167 -29.5 -36.5 -39.5s-33.333 -17 -54 -21s-43.667 -6 -69 -6zM563.997 0l-57 155h-307l-57 -155h-131l264 702h155l264 -702h-131zM236.997 258h233l-116 319z" />
    <glyph glyph-name="abreve" unicode="&#x103;" horiz-adv-x="545" 
d="M278 548c-52.667 0 -95.001 12.167 -127.001 36.5s-48 63.5 -48 117.5h86c0 -28 7.33301 -50 22 -66s37 -24 67 -24c30.667 0 53.5 8 68.5 24s22.5 38 22.5 66h86c0 -54 -16.167 -93.167 -48.5 -117.5s-75.166 -36.5 -128.499 -36.5zM484.999 91
c0 -15.333 0.333008 -30.001 1 -44.001s2.66699 -26 6 -36v-11h-117l-5 76c-17.333 -29.333 -41.333 -51 -72 -65s-63.667 -21 -99 -21c-20.667 0 -40.5 2.5 -59.5 7.5s-36 12.833 -51 23.5s-27 24.667 -36 42s-13.5 38 -13.5 62c0 26.667 5.33301 49.334 16 68.001
s24.834 34.167 42.501 46.5s37.667 22.333 60 30s45.166 13.834 68.499 18.501l97 20c12 3.33301 22.167 7.16602 30.5 11.499s12.5 12.166 12.5 23.499c0 28 -9.33301 48.167 -28 60.5s-41.667 18.5 -69 18.5c-63.333 0 -100.333 -27.667 -111 -83l-114 17
c10 52 35 90.333 75 115s90.333 37 151 37c70 0 123.333 -15.667 160 -47s55 -76.666 55 -135.999v-234zM232.999 72.999c18.667 0 36.498 3.66602 53.498 10.999s31.833 18.333 44.5 33s22.667 32.834 30 54.501s11 46.5 11 74.5l-127 -30
c-25.333 -4.66699 -46.166 -13 -62.499 -25s-24.5 -30 -24.5 -54c0 -21.333 6.83301 -37.333 20.5 -48s31.834 -16 54.501 -16z" />
    <glyph glyph-name="Aogonek" unicode="&#x104;" horiz-adv-x="707" 
d="M606 -110c0 -9.33301 4.16797 -16.833 12.501 -22.5s19.166 -8.5 32.499 -8.5c16 0 30.667 4.66699 44 14v-75c-20 -8 -43.333 -12 -70 -12s-49.667 5.5 -69 16.5s-29 28.167 -29 51.5c0 24 10.5 48.5 31.5 73.5s47.167 49.167 78.5 72.5h-73l-57 155h-307l-57 -155h-131
l264 702h155l264 -702c-26 -16.667 -47.333 -35.167 -64 -55.5s-25 -38.5 -25 -54.5zM237.001 258h233l-116 319z" />
    <glyph glyph-name="aogonek" unicode="&#x105;" horiz-adv-x="545" 
d="M408 -110c0 -9.33301 4.16797 -16.834 12.501 -22.501s19.166 -8.5 32.499 -8.5c16 0 30.667 4.66699 44 14v-75c-20 -8 -43.333 -12 -70 -12s-49.667 5.5 -69 16.5s-29 28.167 -29 51.5c0 24 10.5 48.5 31.5 73.5s47.167 49.167 78.5 72.5h-64l-5 76
c-17.333 -29.333 -41.333 -51 -72 -65s-63.667 -21 -99 -21c-20.667 0 -40.5 2.5 -59.5 7.5s-36 12.833 -51 23.5s-27 24.667 -36 42s-13.5 38 -13.5 62c0 26.667 5.33301 49.334 16 68.001s24.834 34.167 42.501 46.5s37.667 22.333 60 30s45.166 13.834 68.499 18.501
l97 20c12 3.33301 22.167 7.16602 30.5 11.499s12.5 12.166 12.5 23.499c0 28 -9.33301 48.167 -28 60.5s-41.667 18.5 -69 18.5c-63.333 0 -100.333 -27.667 -111 -83l-114 17c10 52 35 90.333 75 115s90.333 37 151 37c70 0 123.333 -15.667 160 -47
s55 -76.666 55 -135.999v-234c0 -15.333 0.333008 -30 1 -44s2.66699 -26 6 -36v-8l5 -3c-26 -16.667 -47.333 -35.167 -64 -55.5s-25 -38.5 -25 -54.5zM233.001 72.999c18.667 0 36.498 3.66602 53.498 10.999s31.833 18.333 44.5 33s22.667 32.834 30 54.501
s11 46.5 11 74.5l-127 -30c-25.333 -4.66699 -46.166 -13 -62.499 -25s-24.5 -30 -24.5 -54c0 -21.333 6.83301 -37.333 20.5 -48s31.834 -16 54.501 -16z" />
    <glyph glyph-name="Cacute" unicode="&#x106;" horiz-adv-x="756" 
d="M346 732l83 132h126l-105 -132h-104zM398 -13c-52.667 0 -100.834 8.83301 -144.501 26.5s-81.167 42.5 -112.5 74.5s-55.833 70.333 -73.5 115s-26.5 94 -26.5 148s8.83301 103.333 26.5 148s42.167 83 73.5 115s68.833 56.833 112.5 74.5s91.834 26.5 144.501 26.5
c38.667 0 75 -5 109 -15s65 -24.167 93 -42.5s52.667 -40.5 74 -66.5s38.333 -55 51 -87l-116 -42c-17.333 43.333 -44.333 77.333 -81 102s-80 37 -130 37c-34 0 -65.333 -6 -94 -18s-53.334 -29 -74.001 -51s-36.834 -48.333 -48.501 -79s-17.5 -64.667 -17.5 -102
s5.83301 -71.333 17.5 -102s27.834 -57 48.501 -79s45.334 -39 74.001 -51s60 -18 94 -18c50 0 93.333 12.333 130 37s63.667 58.667 81 102l116 -42c-12.667 -32 -29.667 -61 -51 -87s-46 -48.167 -74 -66.5s-59 -32.5 -93 -42.5s-70.333 -15 -109 -15z" />
    <glyph glyph-name="cacute" unicode="&#x107;" horiz-adv-x="584" 
d="M244 558l90 144h127l-113 -144h-104zM305 -10c-38.667 0 -74.334 6.3291 -107.001 18.9961s-60.5 30.334 -83.5 53.001s-41 50 -54 82s-19.5 67 -19.5 105s6.5 73 19.5 105s31 59.333 54 82s50.833 40.334 83.5 53.001s68.334 19 107.001 19
c62.667 0 115.167 -15.667 157.5 -47s69.833 -75.666 82.5 -132.999l-109 -11c-9.33301 32 -25.333 56.167 -48 72.5s-50.667 24.5 -84 24.5c-22 0 -41.833 -4 -59.5 -12s-32.667 -19.333 -45 -34s-22 -32.167 -29 -52.5s-10.5 -42.5 -10.5 -66.5s3.5 -46.167 10.5 -66.5
s16.667 -37.833 29 -52.5s27.333 -26 45 -34s37.5 -12 59.5 -12c33.333 0 61.333 8.16699 84 24.5s38.667 40.5 48 72.5l109 -11c-12.667 -57.333 -40.667 -101.666 -84 -132.999s-95.333 -47 -156 -47z" />
    <glyph glyph-name="Cdotaccent" unicode="&#x10a;" horiz-adv-x="756" 
d="M398 744c-20 0 -37.167 7.16699 -51.5 21.5s-21.5 31.166 -21.5 50.499c0 20 7.16699 37 21.5 51s31.5 21 51.5 21c19.333 0 36 -7 50 -21s21 -31 21 -51c0 -19.333 -7 -36.166 -21 -50.499s-30.667 -21.5 -50 -21.5zM398 -13c-52.667 0 -100.834 8.83301 -144.501 26.5
s-81.167 42.5 -112.5 74.5s-55.833 70.333 -73.5 115s-26.5 94 -26.5 148s8.83301 103.333 26.5 148s42.167 83 73.5 115s68.833 56.833 112.5 74.5s91.834 26.5 144.501 26.5c38.667 0 75 -5 109 -15s65 -24.167 93 -42.5s52.667 -40.5 74 -66.5s38.333 -55 51 -87
l-116 -42c-17.333 43.333 -44.333 77.333 -81 102s-80 37 -130 37c-34 0 -65.333 -6 -94 -18s-53.334 -29 -74.001 -51s-36.834 -48.333 -48.501 -79s-17.5 -64.667 -17.5 -102s5.83301 -71.333 17.5 -102s27.834 -57 48.501 -79s45.334 -39 74.001 -51s60 -18 94 -18
c50 0 93.333 12.333 130 37s63.667 58.667 81 102l116 -42c-12.667 -32 -29.667 -61 -51 -87s-46 -48.167 -74 -66.5s-59 -32.5 -93 -42.5s-70.333 -15 -109 -15z" />
    <glyph glyph-name="cdotaccent" unicode="&#x10b;" horiz-adv-x="584" 
d="M300 589c-20 0 -37.167 7 -51.5 21s-21.5 31 -21.5 51c0 19.333 7.16699 36 21.5 50s31.5 21 51.5 21c19.333 0 36 -7 50 -21s21 -30.667 21 -50c0 -20 -7 -37 -21 -51s-30.667 -21 -50 -21zM305 -10c-38.667 0 -74.334 6.3291 -107.001 18.9961
s-60.5 30.334 -83.5 53.001s-41 50 -54 82s-19.5 67 -19.5 105s6.5 73 19.5 105s31 59.333 54 82s50.833 40.334 83.5 53.001s68.334 19 107.001 19c62.667 0 115.167 -15.667 157.5 -47s69.833 -75.666 82.5 -132.999l-109 -11c-9.33301 32 -25.333 56.167 -48 72.5
s-50.667 24.5 -84 24.5c-22 0 -41.833 -4 -59.5 -12s-32.667 -19.333 -45 -34s-22 -32.167 -29 -52.5s-10.5 -42.5 -10.5 -66.5s3.5 -46.167 10.5 -66.5s16.667 -37.833 29 -52.5s27.333 -26 45 -34s37.5 -12 59.5 -12c33.333 0 61.333 8.16699 84 24.5s38.667 40.5 48 72.5
l109 -11c-12.667 -57.333 -40.667 -101.666 -84 -132.999s-95.333 -47 -156 -47z" />
    <glyph glyph-name="Ccaron" unicode="&#x10c;" horiz-adv-x="756" 
d="M329 739l-97 125h98l68 -71l67 71h97l-96 -125h-137zM398 -13c-52.667 0 -100.834 8.83301 -144.501 26.5s-81.167 42.5 -112.5 74.5s-55.833 70.333 -73.5 115s-26.5 94 -26.5 148s8.83301 103.333 26.5 148s42.167 83 73.5 115s68.833 56.833 112.5 74.5
s91.834 26.5 144.501 26.5c38.667 0 75 -5 109 -15s65 -24.167 93 -42.5s52.667 -40.5 74 -66.5s38.333 -55 51 -87l-116 -42c-17.333 43.333 -44.333 77.333 -81 102s-80 37 -130 37c-34 0 -65.333 -6 -94 -18s-53.334 -29 -74.001 -51s-36.834 -48.333 -48.501 -79
s-17.5 -64.667 -17.5 -102s5.83301 -71.333 17.5 -102s27.834 -57 48.501 -79s45.334 -39 74.001 -51s60 -18 94 -18c50 0 93.333 12.333 130 37s63.667 58.667 81 102l116 -42c-12.667 -32 -29.667 -61 -51 -87s-46 -48.167 -74 -66.5s-59 -32.5 -93 -42.5
s-70.333 -15 -109 -15z" />
    <glyph glyph-name="ccaron" unicode="&#x10d;" horiz-adv-x="584" 
d="M232 558l-96 144h98l66 -87l65 87h98l-96 -144h-135zM305 -10c-38.667 0 -74.334 6.3291 -107.001 18.9961s-60.5 30.334 -83.5 53.001s-41 50 -54 82s-19.5 67 -19.5 105s6.5 73 19.5 105s31 59.333 54 82s50.833 40.334 83.5 53.001s68.334 19 107.001 19
c62.667 0 115.167 -15.667 157.5 -47s69.833 -75.666 82.5 -132.999l-109 -11c-9.33301 32 -25.333 56.167 -48 72.5s-50.667 24.5 -84 24.5c-22 0 -41.833 -4 -59.5 -12s-32.667 -19.333 -45 -34s-22 -32.167 -29 -52.5s-10.5 -42.5 -10.5 -66.5s3.5 -46.167 10.5 -66.5
s16.667 -37.833 29 -52.5s27.333 -26 45 -34s37.5 -12 59.5 -12c33.333 0 61.333 8.16699 84 24.5s38.667 40.5 48 72.5l109 -11c-12.667 -57.333 -40.667 -101.666 -84 -132.999s-95.333 -47 -156 -47z" />
    <glyph glyph-name="Dcaron" unicode="&#x10e;" horiz-adv-x="695" 
d="M215 739l-97 125h98l68 -71l67 71h97l-96 -125h-137zM71 0v702h201c60.667 0 111.667 -5.66699 153 -17s77 -28 107 -50c40 -30 70 -68.833 90 -116.5s30 -103.5 30 -167.5s-10 -119.833 -30 -167.5s-50 -86.5 -90 -116.5c-30 -22 -65.667 -38.667 -107 -50
s-92.333 -17 -153 -17h-201zM195 109h77c38 0 71.333 3.83301 100 11.5s53.334 19.167 74.001 34.5c28 20 48.667 46.5 62 79.5s20 71.833 20 116.5s-6.66699 83.5 -20 116.5s-34 59.5 -62 79.5c-20.667 15.333 -45.334 26.833 -74.001 34.5s-62 11.5 -100 11.5h-77v-484z
" />
    <glyph glyph-name="dcaron" unicode="&#x10f;" horiz-adv-x="783" 
d="M448 750h119.001v-750h-112l-4 75c-14.667 -28 -37 -49.167 -67 -63.5s-63.667 -21.5 -101 -21.5c-33.333 0 -64.666 6 -93.999 18s-54.833 29 -76.5 51s-38.834 49 -51.501 81s-19 68 -19 108s6.33301 76 19 108s29.834 59.333 51.501 82s47.167 40 76.5 52
s60.666 18 93.999 18c36 0 68.667 -7 98 -21s51.666 -34 66.999 -60v323zM701.001 702h121l-96 -316h-86zM307.001 89c42 0 76.833 14.167 104.5 42.5s41.5 67.166 41.5 116.499c0 24.667 -3.66699 46.834 -11 66.501s-17.5 36.5 -30.5 50.5s-28.333 24.833 -46 32.5
s-37.167 11.5 -58.5 11.5c-20.667 0 -40 -3.83301 -58 -11.5s-33.5 -18.5 -46.5 -32.5s-23.167 -30.833 -30.5 -50.5s-11 -41.834 -11 -66.501c0 -49.333 13.833 -88.166 41.5 -116.499s62.5 -42.5 104.5 -42.5z" />
    <glyph glyph-name="Dcroat" unicode="&#x110;" horiz-adv-x="695" 
d="M532 635c40 -30 70 -68.833 90 -116.5s30 -103.5 30 -167.5s-10 -119.833 -30 -167.5s-50 -86.5 -90 -116.5c-30 -22 -65.667 -38.667 -107 -50s-92.333 -17 -153 -17h-201v315h-77v73h77v314h201c60.667 0 111.667 -5.66699 153 -17s77 -28 107 -50zM446 155
c28 20 48.667 46.5 62 79.5s20 71.833 20 116.5s-6.66699 83.5 -20 116.5s-34 59.5 -62 79.5c-20.667 15.333 -45.334 26.833 -74.001 34.5s-62 11.5 -100 11.5h-77v-205h128v-73h-128v-206h77c38 0 71.333 3.83301 100 11.5s53.334 19.167 74.001 34.5z" />
    <glyph glyph-name="dcroat" unicode="&#x111;" horiz-adv-x="633" 
d="M640 657v-73h-73v-584h-119v69c-15.333 -25.333 -37.666 -44.833 -66.999 -58.5s-62 -20.5 -98 -20.5c-33.333 0 -64.666 6 -93.999 18s-54.833 29 -76.5 51s-38.834 49 -51.501 81s-19 68 -19 108s6.33301 76 19 108s29.834 59.333 51.501 82s47.167 40 76.5 52
s60.666 18 93.999 18c36 0 68.667 -7 98 -21s51.666 -34 66.999 -60v157h-137v73h137v93h119v-93h73zM307 89c42 0 76.833 14.167 104.5 42.5s41.5 67.166 41.5 116.499c0 24.667 -3.66699 46.834 -11 66.501s-17.5 36.5 -30.5 50.5s-28.333 24.833 -46 32.5
s-37.167 11.5 -58.5 11.5c-20.667 0 -40 -3.83301 -58 -11.5s-33.5 -18.5 -46.5 -32.5s-23.167 -30.833 -30.5 -50.5s-11 -41.834 -11 -66.501c0 -49.333 13.833 -88.166 41.5 -116.499s62.5 -42.5 104.5 -42.5z" />
    <glyph glyph-name="Emacron" unicode="&#x112;" horiz-adv-x="516" 
d="M439 850v-77h-323v77h323zM472 593h-277v-188h247v-108h-247v-188h277v-109h-401v702h401v-109z" />
    <glyph glyph-name="emacron" unicode="&#x113;" horiz-adv-x="585" 
d="M432 665v-77h-263v77h263zM545 225h-389.001c3.33301 -44.667 18.333 -79.334 45 -104.001s59.667 -37 99 -37c29.333 0 54.5 6.5 75.5 19.5s37.167 32.167 48.5 57.5l110 -16c-17.333 -49.333 -46.5 -87.5 -87.5 -114.5s-89.5 -40.5 -145.5 -40.5
c-40 0 -76.167 6 -108.5 18s-60 29.333 -83 52s-40.667 49.834 -53 81.501s-18.5 67.5 -18.5 107.5s6.33301 75.833 19 107.5s30.334 58.834 53.001 81.501s50 40 82 52s67 18 105 18c36 0 69.167 -5.33301 99.5 -16s56.5 -26.834 78.5 -48.501s39.333 -48.5 52 -80.5
s19 -69 19 -111zM297.999 419c-38.667 0 -70.167 -10.167 -94.5 -30.5s-39.5 -50.166 -45.5 -89.499h270c-3.33301 37.333 -17 66.666 -41 87.999s-53.667 32 -89 32z" />
    <glyph glyph-name="Ebreve" unicode="&#x114;" horiz-adv-x="516" 
d="M277 736c-25.333 0 -48.3359 2 -69.0029 6s-38.5 11 -53.5 21s-27 23.167 -36 39.5s-14.167 36.833 -15.5 61.5h77c2.66699 -24 11.834 -41.167 27.501 -51.5s38.834 -15.5 69.501 -15.5c31.333 0 54.833 5.16699 70.5 15.5s24.834 27.5 27.501 51.5h77
c-1.33301 -24.667 -6.5 -45.167 -15.5 -61.5s-21.167 -29.5 -36.5 -39.5s-33.333 -17 -54 -21s-43.667 -6 -69 -6zM471.997 593h-277v-188h247v-108h-247v-188h277v-109h-401v702h401v-109z" />
    <glyph glyph-name="ebreve" unicode="&#x115;" horiz-adv-x="585" 
d="M300 549c-52.667 0 -95.001 12.167 -127.001 36.5s-48 63.5 -48 117.5h86c0 -28 7.33301 -50 22 -66s37 -24 67 -24c30.667 0 53.5 8 68.5 24s22.5 38 22.5 66h86c0 -54 -16.167 -93.167 -48.5 -117.5s-75.166 -36.5 -128.499 -36.5zM544.999 225h-389.001
c3.33301 -44.667 18.333 -79.334 45 -104.001s59.667 -37 99 -37c29.333 0 54.5 6.5 75.5 19.5s37.167 32.167 48.5 57.5l110 -16c-17.333 -49.333 -46.5 -87.5 -87.5 -114.5s-89.5 -40.5 -145.5 -40.5c-40 0 -76.167 6 -108.5 18s-60 29.333 -83 52
s-40.667 49.834 -53 81.501s-18.5 67.5 -18.5 107.5s6.33301 75.833 19 107.5s30.334 58.834 53.001 81.501s50 40 82 52s67 18 105 18c36 0 69.167 -5.33301 99.5 -16s56.5 -26.834 78.5 -48.501s39.333 -48.5 52 -80.5s19 -69 19 -111zM297.998 419
c-38.667 0 -70.167 -10.167 -94.5 -30.5s-39.5 -50.166 -45.5 -89.499h270c-3.33301 37.333 -17 66.666 -41 87.999s-53.667 32 -89 32z" />
    <glyph glyph-name="Edotaccent" unicode="&#x116;" horiz-adv-x="516" 
d="M278 744c-20 0 -37.167 7.16699 -51.5 21.5s-21.5 31.166 -21.5 50.499c0 20 7.16699 37 21.5 51s31.5 21 51.5 21c19.333 0 36 -7 50 -21s21 -31 21 -51c0 -19.333 -7 -36.166 -21 -50.499s-30.667 -21.5 -50 -21.5zM472 593h-277v-188h247v-108h-247v-188h277v-109
h-401v702h401v-109z" />
    <glyph glyph-name="edotaccent" unicode="&#x117;" horiz-adv-x="585" 
d="M301 590c-20 0 -37.167 7 -51.5 21s-21.5 31 -21.5 51c0 19.333 7.16699 36 21.5 50s31.5 21 51.5 21c19.333 0 36 -7 50 -21s21 -30.667 21 -50c0 -20 -7 -37 -21 -51s-30.667 -21 -50 -21zM545 225h-389.001c3.33301 -44.667 18.333 -79.334 45 -104.001
s59.667 -37 99 -37c29.333 0 54.5 6.5 75.5 19.5s37.167 32.167 48.5 57.5l110 -16c-17.333 -49.333 -46.5 -87.5 -87.5 -114.5s-89.5 -40.5 -145.5 -40.5c-40 0 -76.167 6 -108.5 18s-60 29.333 -83 52s-40.667 49.834 -53 81.501s-18.5 67.5 -18.5 107.5
s6.33301 75.833 19 107.5s30.334 58.834 53.001 81.501s50 40 82 52s67 18 105 18c36 0 69.167 -5.33301 99.5 -16s56.5 -26.834 78.5 -48.501s39.333 -48.5 52 -80.5s19 -69 19 -111zM297.999 419c-38.667 0 -70.167 -10.167 -94.5 -30.5s-39.5 -50.166 -45.5 -89.499h270
c-3.33301 37.333 -17 66.666 -41 87.999s-53.667 32 -89 32z" />
    <glyph glyph-name="Eogonek" unicode="&#x118;" horiz-adv-x="516" 
d="M472 593h-276.999v-188h247v-108h-247v-188h277v-109c-26 -16.667 -47.333 -35.167 -64 -55.5s-25 -38.5 -25 -54.5c0 -9.33301 4.16699 -16.833 12.5 -22.5s19.166 -8.5 32.499 -8.5c16 0 30.667 4.66699 44 14v-75c-20 -8 -43.333 -12 -70 -12s-49.667 5.5 -69 16.5
s-29 28.167 -29 51.5c0 24 10.5 48.5 31.5 73.5s47.167 49.167 78.5 72.5h-343v702h401v-109z" />
    <glyph glyph-name="eogonek" unicode="&#x119;" horiz-adv-x="585" 
d="M545 225h-389.001c3.33301 -44.667 18.333 -79.334 45 -104.001s59.667 -37 99 -37c29.333 0 54.5 6.5 75.5 19.5s37.167 32.167 48.5 57.5l110 -16c-13.333 -38 -34 -69.5 -62 -94.5s-61 -42.167 -99 -51.5c-25.333 -16.667 -46.166 -35 -62.499 -55
s-24.5 -38 -24.5 -54c0 -9.33301 4.16699 -16.833 12.5 -22.5s19.166 -8.5 32.499 -8.5c16 0 30.667 4.66699 44 14v-75c-20 -8 -43.333 -12 -70 -12s-49.667 5.5 -69 16.5s-29 28.167 -29 51.5c0 22 9.16699 44.833 27.5 68.5s41.5 46.167 69.5 67.5h-3
c-40 0 -76.167 6 -108.5 18s-60 29.333 -83 52s-40.667 49.834 -53 81.501s-18.5 67.5 -18.5 107.5s6.33301 75.833 19 107.5s30.334 58.834 53.001 81.501s50 40 82 52s67 18 105 18c36 0 69.167 -5.33301 99.5 -16s56.5 -26.834 78.5 -48.501s39.333 -48.5 52 -80.5
s19 -69 19 -111zM297.999 419c-38.667 0 -70.167 -10.167 -94.5 -30.5s-39.5 -50.166 -45.5 -89.499h270c-3.33301 37.333 -17 66.666 -41 87.999s-53.667 32 -89 32z" />
    <glyph glyph-name="Ecaron" unicode="&#x11a;" horiz-adv-x="516" 
d="M346 739h-137l-97 125h98l68 -71l67 71h97zM472 593h-277v-188h247v-108h-247v-188h277v-109h-401v702h401v-109z" />
    <glyph glyph-name="ecaron" unicode="&#x11b;" horiz-adv-x="585" 
d="M368 559h-135l-96 144h98l66 -87l65 87h98zM545 225h-389.001c3.33301 -44.667 18.333 -79.334 45 -104.001s59.667 -37 99 -37c29.333 0 54.5 6.5 75.5 19.5s37.167 32.167 48.5 57.5l110 -16c-17.333 -49.333 -46.5 -87.5 -87.5 -114.5s-89.5 -40.5 -145.5 -40.5
c-40 0 -76.167 6 -108.5 18s-60 29.333 -83 52s-40.667 49.834 -53 81.501s-18.5 67.5 -18.5 107.5s6.33301 75.833 19 107.5s30.334 58.834 53.001 81.501s50 40 82 52s67 18 105 18c36 0 69.167 -5.33301 99.5 -16s56.5 -26.834 78.5 -48.501s39.333 -48.5 52 -80.5
s19 -69 19 -111zM297.999 419c-38.667 0 -70.167 -10.167 -94.5 -30.5s-39.5 -50.166 -45.5 -89.499h270c-3.33301 37.333 -17 66.666 -41 87.999s-53.667 32 -89 32z" />
    <glyph glyph-name="Gcircumflex" unicode="&#x11c;" horiz-adv-x="784" 
d="M230 739l97 125h137l96 -125h-97l-67 72l-68 -72h-98zM391 -13c-51.333 0 -98.498 8.83398 -141.498 26.501s-80 42.5 -111 74.5s-55 70.333 -72 115s-25.5 94 -25.5 148s8.83301 103.333 26.5 148s42.167 83 73.5 115s68.833 56.833 112.5 74.5
s91.834 26.5 144.501 26.5c68.667 0 129.667 -15 183 -45s95 -71.667 125 -125l-108 -58c-19.333 36 -46.333 64 -81 84s-74.334 30 -119.001 30c-34 0 -65.333 -6 -94 -18s-53.334 -29 -74.001 -51s-36.834 -48.333 -48.501 -79s-17.5 -64.667 -17.5 -102
s5.5 -71.333 16.5 -102s26.667 -57 47 -79s44.833 -39 73.5 -51s61 -18 97 -18c54 0 100 15 138 45s62.667 73.667 74 131h-207v100h328v-377h-97v122c-22 -40.667 -53 -73.334 -93 -98.001s-90 -37 -150 -37z" />
    <glyph glyph-name="gcircumflex" unicode="&#x11d;" horiz-adv-x="619" 
d="M312 645l-66 -87h-98l96 144h135l96 -144h-98zM436 498l118.998 -0.00390625v-489c0 -44.667 -6 -83.334 -18 -116.001s-29 -59.5 -51 -80.5s-48.667 -36.667 -80 -47s-66.666 -15.5 -105.999 -15.5c-68.667 0 -123.334 14.167 -164.001 42.5s-69.667 65.833 -87 112.5
l99 41c14.667 -34 33.834 -59.833 57.501 -77.5s53.5 -26.5 89.5 -26.5c48.667 0 84.334 14.333 107.001 43s34 67.334 34 116.001v89c-14.667 -24 -36.5 -43.5 -65.5 -58.5s-62.167 -22.5 -99.5 -22.5c-32 0 -61.833 6 -89.5 18s-52 28.833 -73 50.5
s-37.5 47.834 -49.5 78.501s-18 65 -18 103s6 72.333 18 103s28.5 56.834 49.5 78.501s45.5 38.334 73.5 50.001s58 17.5 90 17.5c38 0 71.167 -7.66699 99.5 -23s49.833 -35.666 64.5 -60.999v74zM298.998 104.996c20.667 0 39.833 3.83301 57.5 11.5
s32.834 18.334 45.501 32.001s22.667 30 30 49s11 39.5 11 61.5s-3.5 42.5 -10.5 61.5s-17 35.333 -30 49s-28.167 24.334 -45.5 32.001s-36.666 11.5 -57.999 11.5c-20.667 0 -39.834 -3.83301 -57.501 -11.5s-32.834 -18.334 -45.501 -32.001s-22.5 -30 -29.5 -49
s-10.5 -39.5 -10.5 -61.5s3.66699 -42.5 11 -61.5s17.333 -35.333 30 -49s27.667 -24.334 45 -32.001s36.333 -11.5 57 -11.5z" />
    <glyph glyph-name="Gbreve" unicode="&#x11e;" horiz-adv-x="784" 
d="M395 736c-25.333 0 -48.3359 2 -69.0029 6s-38.5 11 -53.5 21s-27 23.167 -36 39.5s-14.167 36.833 -15.5 61.5h77c2.66699 -24 11.834 -41.167 27.501 -51.5s38.834 -15.5 69.501 -15.5c31.333 0 54.833 5.16699 70.5 15.5s24.834 27.5 27.501 51.5h77
c-1.33301 -24.667 -6.5 -45.167 -15.5 -61.5s-21.167 -29.5 -36.5 -39.5s-33.333 -17 -54 -21s-43.667 -6 -69 -6zM390.997 -13c-51.333 0 -98.498 8.83398 -141.498 26.501s-80 42.5 -111 74.5s-55 70.333 -72 115s-25.5 94 -25.5 148s8.83301 103.333 26.5 148
s42.167 83 73.5 115s68.833 56.833 112.5 74.5s91.834 26.5 144.501 26.5c68.667 0 129.667 -15 183 -45s95 -71.667 125 -125l-108 -58c-19.333 36 -46.333 64 -81 84s-74.334 30 -119.001 30c-34 0 -65.333 -6 -94 -18s-53.334 -29 -74.001 -51
s-36.834 -48.333 -48.501 -79s-17.5 -64.667 -17.5 -102s5.5 -71.333 16.5 -102s26.667 -57 47 -79s44.833 -39 73.5 -51s61 -18 97 -18c54 0 100 15 138 45s62.667 73.667 74 131h-207v100h328v-377h-97v122c-22 -40.667 -53 -73.334 -93 -98.001s-90 -37 -150 -37z" />
    <glyph glyph-name="gbreve" unicode="&#x11f;" horiz-adv-x="619" 
d="M311 548c-52.667 0 -95.001 12.167 -127.001 36.5s-48 63.5 -48 117.5h86c0 -28 7.33301 -50 22 -66s37 -24 67 -24c30.667 0 53.5 8 68.5 24s22.5 38 22.5 66h86c0 -54 -16.167 -93.167 -48.5 -117.5s-75.166 -36.5 -128.499 -36.5zM435.999 498l118.998 -0.00390625
v-489c0 -44.667 -6 -83.334 -18 -116.001s-29 -59.5 -51 -80.5s-48.667 -36.667 -80 -47s-66.666 -15.5 -105.999 -15.5c-68.667 0 -123.334 14.167 -164.001 42.5s-69.667 65.833 -87 112.5l99 41c14.667 -34 33.834 -59.833 57.501 -77.5s53.5 -26.5 89.5 -26.5
c48.667 0 84.334 14.333 107.001 43s34 67.334 34 116.001v89c-14.667 -24 -36.5 -43.5 -65.5 -58.5s-62.167 -22.5 -99.5 -22.5c-32 0 -61.833 6 -89.5 18s-52 28.833 -73 50.5s-37.5 47.834 -49.5 78.501s-18 65 -18 103s6 72.333 18 103s28.5 56.834 49.5 78.501
s45.5 38.334 73.5 50.001s58 17.5 90 17.5c38 0 71.167 -7.66699 99.5 -23s49.833 -35.666 64.5 -60.999v74zM298.997 104.996c20.667 0 39.833 3.83301 57.5 11.5s32.834 18.334 45.501 32.001s22.667 30 30 49s11 39.5 11 61.5s-3.5 42.5 -10.5 61.5s-17 35.333 -30 49
s-28.167 24.334 -45.5 32.001s-36.666 11.5 -57.999 11.5c-20.667 0 -39.834 -3.83301 -57.501 -11.5s-32.834 -18.334 -45.501 -32.001s-22.5 -30 -29.5 -49s-10.5 -39.5 -10.5 -61.5s3.66699 -42.5 11 -61.5s17.333 -35.333 30 -49s27.667 -24.334 45 -32.001
s36.333 -11.5 57 -11.5z" />
    <glyph glyph-name="Gdotaccent" unicode="&#x120;" horiz-adv-x="784" 
d="M397 744c-20 0 -37.167 7.16699 -51.5 21.5s-21.5 31.166 -21.5 50.499c0 20 7.16699 37 21.5 51s31.5 21 51.5 21c19.333 0 36 -7 50 -21s21 -31 21 -51c0 -19.333 -7 -36.166 -21 -50.499s-30.667 -21.5 -50 -21.5zM391 -13c-51.333 0 -98.498 8.83398 -141.498 26.501
s-80 42.5 -111 74.5s-55 70.333 -72 115s-25.5 94 -25.5 148s8.83301 103.333 26.5 148s42.167 83 73.5 115s68.833 56.833 112.5 74.5s91.834 26.5 144.501 26.5c68.667 0 129.667 -15 183 -45s95 -71.667 125 -125l-108 -58c-19.333 36 -46.333 64 -81 84
s-74.334 30 -119.001 30c-34 0 -65.333 -6 -94 -18s-53.334 -29 -74.001 -51s-36.834 -48.333 -48.501 -79s-17.5 -64.667 -17.5 -102s5.5 -71.333 16.5 -102s26.667 -57 47 -79s44.833 -39 73.5 -51s61 -18 97 -18c54 0 100 15 138 45s62.667 73.667 74 131h-207v100h328
v-377h-97v122c-22 -40.667 -53 -73.334 -93 -98.001s-90 -37 -150 -37z" />
    <glyph glyph-name="gdotaccent" unicode="&#x121;" horiz-adv-x="619" 
d="M313 589c-20 0 -37.167 7 -51.5 21s-21.5 31 -21.5 51c0 19.333 7.16699 36 21.5 50s31.5 21 51.5 21c19.333 0 36 -7 50 -21s21 -30.667 21 -50c0 -20 -7 -37 -21 -51s-30.667 -21 -50 -21zM436 498l118.998 -0.00390625v-489c0 -44.667 -6 -83.334 -18 -116.001
s-29 -59.5 -51 -80.5s-48.667 -36.667 -80 -47s-66.666 -15.5 -105.999 -15.5c-68.667 0 -123.334 14.167 -164.001 42.5s-69.667 65.833 -87 112.5l99 41c14.667 -34 33.834 -59.833 57.501 -77.5s53.5 -26.5 89.5 -26.5c48.667 0 84.334 14.333 107.001 43
s34 67.334 34 116.001v89c-14.667 -24 -36.5 -43.5 -65.5 -58.5s-62.167 -22.5 -99.5 -22.5c-32 0 -61.833 6 -89.5 18s-52 28.833 -73 50.5s-37.5 47.834 -49.5 78.501s-18 65 -18 103s6 72.333 18 103s28.5 56.834 49.5 78.501s45.5 38.334 73.5 50.001s58 17.5 90 17.5
c38 0 71.167 -7.66699 99.5 -23s49.833 -35.666 64.5 -60.999v74zM298.998 104.996c20.667 0 39.833 3.83301 57.5 11.5s32.834 18.334 45.501 32.001s22.667 30 30 49s11 39.5 11 61.5s-3.5 42.5 -10.5 61.5s-17 35.333 -30 49s-28.167 24.334 -45.5 32.001
s-36.666 11.5 -57.999 11.5c-20.667 0 -39.834 -3.83301 -57.501 -11.5s-32.834 -18.334 -45.501 -32.001s-22.5 -30 -29.5 -49s-10.5 -39.5 -10.5 -61.5s3.66699 -42.5 11 -61.5s17.333 -35.333 30 -49s27.667 -24.334 45 -32.001s36.333 -11.5 57 -11.5z" />
    <glyph glyph-name="uni0122" unicode="&#x122;" horiz-adv-x="784" 
d="M391 -13c-51.333 0 -98.498 8.83398 -141.498 26.501s-80 42.5 -111 74.5s-55 70.333 -72 115s-25.5 94 -25.5 148s8.83301 103.333 26.5 148s42.167 83 73.5 115s68.833 56.833 112.5 74.5s91.834 26.5 144.501 26.5c68.667 0 129.667 -15 183 -45s95 -71.667 125 -125
l-108 -58c-19.333 36 -46.333 64 -81 84s-74.334 30 -119.001 30c-34 0 -65.333 -6 -94 -18s-53.334 -29 -74.001 -51s-36.834 -48.333 -48.501 -79s-17.5 -64.667 -17.5 -102s5.5 -71.333 16.5 -102s26.667 -57 47 -79s44.833 -39 73.5 -51s61 -18 97 -18
c54 0 100 15 138 45s62.667 73.667 74 131h-207v100h328v-377h-97v122c-22 -40.667 -53 -73.334 -93 -98.001s-90 -37 -150 -37zM247.002 -173.999l96 144h102l-113 -144h-85z" />
    <glyph glyph-name="uni0123" unicode="&#x123;" horiz-adv-x="619" 
d="M458 702l-96 -144h-102l113 144h85zM436 498l118.998 -0.00390625v-489c0 -44.667 -6 -83.334 -18 -116.001s-29 -59.5 -51 -80.5s-48.667 -36.667 -80 -47s-66.666 -15.5 -105.999 -15.5c-68.667 0 -123.334 14.167 -164.001 42.5s-69.667 65.833 -87 112.5l99 41
c14.667 -34 33.834 -59.833 57.501 -77.5s53.5 -26.5 89.5 -26.5c48.667 0 84.334 14.333 107.001 43s34 67.334 34 116.001v89c-14.667 -24 -36.5 -43.5 -65.5 -58.5s-62.167 -22.5 -99.5 -22.5c-32 0 -61.833 6 -89.5 18s-52 28.833 -73 50.5s-37.5 47.834 -49.5 78.501
s-18 65 -18 103s6 72.333 18 103s28.5 56.834 49.5 78.501s45.5 38.334 73.5 50.001s58 17.5 90 17.5c38 0 71.167 -7.66699 99.5 -23s49.833 -35.666 64.5 -60.999v74zM298.998 104.996c20.667 0 39.833 3.83301 57.5 11.5s32.834 18.334 45.501 32.001s22.667 30 30 49
s11 39.5 11 61.5s-3.5 42.5 -10.5 61.5s-17 35.333 -30 49s-28.167 24.334 -45.5 32.001s-36.666 11.5 -57.999 11.5c-20.667 0 -39.834 -3.83301 -57.501 -11.5s-32.834 -18.334 -45.501 -32.001s-22.5 -30 -29.5 -49s-10.5 -39.5 -10.5 -61.5s3.66699 -42.5 11 -61.5
s17.333 -35.333 30 -49s27.667 -24.334 45 -32.001s36.333 -11.5 57 -11.5z" />
    <glyph glyph-name="Hcircumflex" unicode="&#x124;" horiz-adv-x="720" 
d="M195 739l97 125h137l96 -125h-97l-67 72l-68 -72h-98zM71 0v702h124v-296h330v296h124v-702h-124v298h-330v-298h-124z" />
    <glyph glyph-name="hcircumflex" unicode="&#x125;" horiz-adv-x="589" 
d="M295 859l-68 -72h-98l97 125h137l96 -125h-97zM348 508c58.667 0 103.498 -16 134.498 -48s46.5 -79 46.5 -141v-319h-119v301c0 39.333 -9.66699 67.833 -29 85.5s-45 26.5 -77 26.5c-15.333 0 -30.166 -2.5 -44.499 -7.5s-27.166 -12.833 -38.499 -23.5
s-20.5 -24.667 -27.5 -42s-10.5 -38.666 -10.5 -63.999v-276h-118v750h118v-317c17.333 23.333 40 41.666 68 54.999s60.333 20 97 20z" />
    <glyph glyph-name="Hbar" unicode="&#x126;" horiz-adv-x="720" 
d="M713 576v-48h-64v-528h-124v298h-330v-298h-124v528h-64v48h64v126h124v-126h330v126h124v-126h64zM525 406v122h-330v-122h330z" />
    <glyph glyph-name="hbar" unicode="&#x127;" horiz-adv-x="589" 
d="M348 508c58.667 0 103.498 -16 134.498 -48s46.5 -79 46.5 -141v-319h-119v301c0 39.333 -9.66699 67.833 -29 85.5s-45 26.5 -77 26.5c-15.333 0 -30.166 -2.5 -44.499 -7.5s-27.166 -12.833 -38.499 -23.5s-20.5 -24.667 -27.5 -42s-10.5 -38.666 -10.5 -63.999v-276
h-118v584h-62v73h62v93h118v-93h149v-73h-149v-151c17.333 23.333 40 41.666 68 54.999s60.333 20 97 20z" />
    <glyph glyph-name="Itilde" unicode="&#x128;" horiz-adv-x="266" 
d="M195 732c-23.333 0 -41.333 5.00098 -54 15.001s-23 20 -31 30c-7.33301 8.66699 -14.333 16 -21 22s-15.667 9 -27 9c-12.667 0 -22 -6.66699 -28 -20s-9 -29.666 -9 -48.999h-60c0 39.333 9.33301 71.666 28 96.999s44 38 76 38c23.333 0 41.166 -5 53.499 -15
s23.166 -20.333 32.499 -31c6.66699 -8.66699 13.334 -15.834 20.001 -21.501s15.667 -8.5 27 -8.5c12.667 0 21.834 6.5 27.501 19.5s8.5 29.167 8.5 48.5h60c0 -38 -8.83301 -69.833 -26.5 -95.5s-43.167 -38.5 -76.5 -38.5zM71 0.000976562v702h124v-702h-124z" />
    <glyph glyph-name="itilde" unicode="&#x129;" horiz-adv-x="247" 
d="M186 553c-23.333 0 -41.333 5.00098 -54 15.001s-23 20 -31 30c-7.33301 8.66699 -14.333 16 -21 22s-15.667 9 -27 9c-12.667 0 -22 -6.66699 -28 -20s-9 -29.333 -9 -48h-60c0 38.667 9.33301 70.667 28 96s44 38 76 38c23.333 0 41.166 -5 53.499 -15
s23.166 -20.333 32.499 -31c6.66699 -8.66699 13.334 -15.834 20.001 -21.501s15.667 -8.5 27 -8.5c12.667 0 21.834 6.5 27.501 19.5s8.5 29.167 8.5 48.5h60c0 -38 -8.83301 -69.833 -26.5 -95.5s-43.167 -38.5 -76.5 -38.5zM64 0.000976562v498h119v-498h-119z" />
    <glyph glyph-name="Imacron" unicode="&#x12a;" horiz-adv-x="266" 
d="M-29 773v77h323v-77h-323zM71 0v702h124v-702h-124z" />
    <glyph glyph-name="imacron" unicode="&#x12b;" horiz-adv-x="247" 
d="M-8 587v77h263v-77h-263zM64 0v498h119v-498h-119z" />
    <glyph glyph-name="Ibreve" unicode="&#x12c;" horiz-adv-x="266" 
d="M132 736c-25.333 0 -48.3359 2 -69.0029 6s-38.667 11 -54 21s-27.333 23.167 -36 39.5s-13.667 36.833 -15 61.5h77c2.66699 -24 11.834 -41.167 27.501 -51.5s38.834 -15.5 69.501 -15.5c31.333 0 54.833 5.16699 70.5 15.5s24.834 27.5 27.501 51.5h77
c-1.33301 -24.667 -6.5 -45.167 -15.5 -61.5s-21.167 -29.5 -36.5 -39.5s-33.333 -17 -54 -21s-43.667 -6 -69 -6zM70.9971 0v702h124v-702h-124z" />
    <glyph glyph-name="ibreve" unicode="&#x12d;" horiz-adv-x="247" 
d="M122 548c-52.667 0 -95.001 12.167 -127.001 36.5s-48 63.5 -48 117.5h86c0 -28 7.33301 -50 22 -66s37 -24 67 -24c30.667 0 53.5 8 68.5 24s22.5 38 22.5 66h86c0 -54 -16.167 -93.167 -48.5 -117.5s-75.166 -36.5 -128.499 -36.5zM63.999 0v498h119v-498h-119z" />
    <glyph glyph-name="Iogonek" unicode="&#x12e;" horiz-adv-x="266" 
d="M195 0c-26 -16.667 -47.332 -35.167 -63.999 -55.5s-25 -38.5 -25 -54.5c0 -9.33301 4.16699 -16.833 12.5 -22.5s19.166 -8.5 32.499 -8.5c16 0 30.667 4.66699 44 14v-75c-20 -8 -43.333 -12 -70 -12s-49.667 5.5 -69 16.5s-29 28.167 -29 51.5
c0 24 10.5 48.5 31.5 73.5s47.167 49.167 78.5 72.5h-66v702h124v-702z" />
    <glyph glyph-name="iogonek" unicode="&#x12f;" horiz-adv-x="247" 
d="M124 589c-20 0 -37.167 7 -51.5 21s-21.5 31 -21.5 51c0 19.333 7.16699 36 21.5 50s31.5 21 51.5 21c19.333 0 36 -7 50 -21s21 -30.667 21 -50c0 -20 -7 -37 -21 -51s-30.667 -21 -50 -21zM64 0l0.000976562 498h119v-498h-1c-26 -16.667 -47.333 -35.167 -64 -55.5
s-25 -38.5 -25 -54.5c0 -9.33301 4.16699 -16.833 12.5 -22.5s19.166 -8.5 32.499 -8.5c16 0 30.667 4.66699 44 14v-75c-20 -8 -43.333 -12 -70 -12s-49.667 5.5 -69 16.5s-29 28.167 -29 51.5c0 24 10.5 48.5 31.5 73.5s47.167 49.167 78.5 72.5h-60z" />
    <glyph glyph-name="Idotaccent" unicode="&#x130;" horiz-adv-x="266" 
d="M133 744c-20 0 -37.167 7.16699 -51.5 21.5s-21.5 31.166 -21.5 50.499c0 20 7.16699 37 21.5 51s31.5 21 51.5 21c19.333 0 36 -7 50 -21s21 -31 21 -51c0 -19.333 -7 -36.166 -21 -50.499s-30.667 -21.5 -50 -21.5zM71 0v702h124v-702h-124z" />
    <glyph glyph-name="dotlessi" unicode="&#x131;" horiz-adv-x="247" 
d="M64 0v498h119v-498h-119z" />
    <glyph glyph-name="IJ" unicode="&#x132;" horiz-adv-x="718" 
d="M71 0v702h124v-702h-124zM450 -13c-28.667 0 -57.498 3.83301 -86.498 11.5s-58.5 20.5 -88.5 38.5l52 101c17.333 -11.333 34.833 -20.333 52.5 -27s36.167 -10 55.5 -10c30 0 52.833 9.83301 68.5 29.5s23.5 50.5 23.5 92.5v479h124v-501
c0 -34 -4.83301 -64.333 -14.5 -91s-23.334 -49 -41.001 -67s-38.834 -31.833 -63.501 -41.5s-52 -14.5 -82 -14.5z" />
    <glyph glyph-name="ij" unicode="&#x133;" horiz-adv-x="491" 
d="M124 589c-20 0 -37.167 7 -51.5 21s-21.5 31 -21.5 51c0 19.333 7.16699 36 21.5 50s31.5 21 51.5 21c19.333 0 36 -7 50 -21s21 -30.667 21 -50c0 -20 -7 -37 -21 -51s-30.667 -21 -50 -21zM367 589c-20 0 -37 7 -51 21s-21 31 -21 51c0 19.333 7 36 21 50s31 21 51 21
c19.333 0 36 -7 50 -21s21 -30.667 21 -50c0 -20 -7 -37 -21 -51s-30.667 -21 -50 -21zM64 0v498h119v-498h-119zM191 -151c24 0 43.501 2.66895 58.501 8.00195s26.667 14.166 35 26.499s14.166 28.166 17.499 47.499s5 43 5 71v496h119v-496
c0 -84 -17.833 -145.833 -53.5 -185.5s-96.167 -59.5 -181.5 -59.5v92z" />
    <glyph glyph-name="Jcircumflex" unicode="&#x134;" horiz-adv-x="452" 
d="M158 739l97 125h137l96 -125h-97l-67 72l-68 -72h-98zM184 -13c-28.667 0 -57.498 3.83301 -86.498 11.5s-58.5 20.5 -88.5 38.5l52 101c17.333 -11.333 34.833 -20.333 52.5 -27s36.167 -10 55.5 -10c30 0 52.833 9.83301 68.5 29.5s23.5 50.5 23.5 92.5v479h124v-501
c0 -34 -4.83301 -64.333 -14.5 -91s-23.334 -49 -41.001 -67s-38.834 -31.833 -63.501 -41.5s-52 -14.5 -82 -14.5z" />
    <glyph glyph-name="jcircumflex" unicode="&#x135;" horiz-adv-x="244" 
d="M-44 558l96 144h135l96 -144h-98l-65 87l-66 -87h-98zM-56 -151c24 0 43.501 2.66895 58.501 8.00195s26.667 14.166 35 26.499s14.166 28.166 17.499 47.499s5 43 5 71v496h119v-496c0 -84 -17.833 -145.833 -53.5 -185.5s-96.167 -59.5 -181.5 -59.5v92z" />
    <glyph glyph-name="uni0136" unicode="&#x136;" horiz-adv-x="668" 
d="M360 367l296 -367h-156l-244 309h-61v-309h-124v702h124v-285h59l241 285h151zM177 -174l96 144h102l-113 -144h-85z" />
    <glyph glyph-name="uni0137" unicode="&#x137;" horiz-adv-x="561" 
d="M313 264l231 -264h-144l-186 216h-31v-216h-118v750h118v-452h30l180 200h135zM124 -174l96 144h102l-113 -144h-85z" />
    <glyph glyph-name="kgreenlandic" unicode="&#x138;" horiz-adv-x="562" 
d="M314 264l230 -264h-143l-186 216h-31v-216h-119v498h119v-200h30l180 200h135z" />
    <glyph glyph-name="Lacute" unicode="&#x139;" horiz-adv-x="444" 
d="M81 732l83 132h126l-105 -132h-104zM71 0v702h124v-593h236v-109h-360z" />
    <glyph glyph-name="lacute" unicode="&#x13a;" horiz-adv-x="248" 
d="M69 811l90 144h127l-113 -144h-104zM65 0v750h118v-750h-118z" />
    <glyph glyph-name="uni013B" unicode="&#x13b;" horiz-adv-x="444" 
d="M71 0v702h124v-593h236v-109h-360zM91 -174l96 144h102l-113 -144h-85z" />
    <glyph glyph-name="uni013C" unicode="&#x13c;" horiz-adv-x="248" 
d="M65 0v750h118v-750h-118zM-24 -174l96 144h102l-113 -144h-85z" />
    <glyph glyph-name="Lcaron" unicode="&#x13d;" horiz-adv-x="458" 
d="M71 0v702h124v-593h236v-109h-360zM301 386l61 316h121l-96 -316h-86z" />
    <glyph glyph-name="lcaron" unicode="&#x13e;" horiz-adv-x="401" 
d="M65 0v750h118v-750h-118zM258 386l61 316h121l-95 -316h-87z" />
    <glyph glyph-name="Ldot" unicode="&#x13f;" horiz-adv-x="503" 
d="M71 0v702h124v-593h236v-109h-360zM410 278c-19.333 0 -36.333 6.83301 -51 20.5s-22 31.167 -22 52.5c0 19.333 7.33301 36.333 22 51s31.667 22 51 22s36.5 -7.33301 51.5 -22s22.5 -31.667 22.5 -51c0 -21.333 -7.5 -38.833 -22.5 -52.5s-32.167 -20.5 -51.5 -20.5z
" />
    <glyph glyph-name="ldot" unicode="&#x140;" horiz-adv-x="403" 
d="M65 0v750h118v-750h-118zM340 302c-19.333 0 -36.333 7 -51 21s-22 31.333 -22 52c0 19.333 7.33301 36.333 22 51s31.667 22 51 22s36.333 -7.33301 51 -22s22 -31.667 22 -51c0 -20.667 -7.33301 -38 -22 -52s-31.667 -21 -51 -21z" />
    <glyph glyph-name="Lslash" unicode="&#x141;" horiz-adv-x="444" 
d="M195 109h236v-109h-360v239l-67 -50v101l67 50v362h124v-270l110 81v-101l-110 -81v-222z" />
    <glyph glyph-name="lslash" unicode="&#x142;" horiz-adv-x="248" 
d="M273 513v-101l-90 -67v-345h-118v258l-93 -69v101l93 69v391h118v-304z" />
    <glyph glyph-name="Nacute" unicode="&#x143;" horiz-adv-x="754" 
d="M537 864l-105 -132h-104l83 132h126zM559 702h123v-702h-150l-337 533v-533h-124v702h149l339 -533v533z" />
    <glyph glyph-name="nacute" unicode="&#x144;" horiz-adv-x="589" 
d="M452 702l-113 -144h-104l90 144h127zM341 508c62 0 108.668 -15.501 140.001 -46.501s47 -74.5 47 -130.5v-331h-118v307c0 36 -9.83301 62.667 -29.5 80s-44.834 26 -75.501 26s-57.5 -9.16699 -80.5 -27.5s-36.5 -48.166 -40.5 -89.499v-296h-119v498h119v-60
c17.333 22 39.333 39.167 66 51.5s57 18.5 91 18.5z" />
    <glyph glyph-name="uni0145" unicode="&#x145;" horiz-adv-x="754" 
d="M559 702h123v-702h-150l-337 533v-533h-124v702h149l339 -533v533zM232 -174l96 144h102l-113 -144h-85z" />
    <glyph glyph-name="uni0146" unicode="&#x146;" horiz-adv-x="589" 
d="M341 508c62 0 108.668 -15.501 140.001 -46.501s47 -74.5 47 -130.5v-331h-118v307c0 36 -9.83301 62.667 -29.5 80s-44.834 26 -75.501 26s-57.5 -9.16699 -80.5 -27.5s-36.5 -48.166 -40.5 -89.499v-296h-119v498h119v-60c17.333 22 39.333 39.167 66 51.5
s57 18.5 91 18.5zM143.001 -174.001l96 144h102l-113 -144h-85z" />
    <glyph glyph-name="Ncaron" unicode="&#x147;" horiz-adv-x="754" 
d="M448 739h-137l-97 125h98l68 -71l67 71h97zM559 702h123v-702h-150l-337 533v-533h-124v702h149l339 -533v533z" />
    <glyph glyph-name="ncaron" unicode="&#x148;" horiz-adv-x="589" 
d="M358 558h-135l-96 144h98l66 -87l65 87h98zM341 508c62 0 108.668 -15.501 140.001 -46.501s47 -74.5 47 -130.5v-331h-118v307c0 36 -9.83301 62.667 -29.5 80s-44.834 26 -75.501 26s-57.5 -9.16699 -80.5 -27.5s-36.5 -48.166 -40.5 -89.499v-296h-119v498h119v-60
c17.333 22 39.333 39.167 66 51.5s57 18.5 91 18.5z" />
    <glyph glyph-name="napostrophe" unicode="&#x149;" horiz-adv-x="758" 
d="M116 702h121l-95 -316h-87zM511 508c62 0 108.666 -15.501 139.999 -46.501s47 -74.5 47 -130.5v-331h-119v307c0 36 -9.66699 62.667 -29 80s-44.666 26 -75.999 26c-30.667 0 -57.5 -9.16699 -80.5 -27.5s-36.5 -48.166 -40.5 -89.499v-296h-119v498h119v-60
c17.333 22 39.5 39.167 66.5 51.5s57.5 18.5 91.5 18.5z" />
    <glyph glyph-name="Eng" unicode="&#x14a;" horiz-adv-x="754" 
d="M559 702l123 0.000976562v-716c0 -74.667 -19 -130.334 -57 -167.001s-93.333 -55 -166 -55v92c30 0 52.167 7.5 66.5 22.5s21.5 40.833 21.5 77.5c0 13.333 -5 28 -15 44l-337 533v-533h-124v702h149l339 -530v530z" />
    <glyph glyph-name="eng" unicode="&#x14b;" horiz-adv-x="589" 
d="M341 508c62 0 108.667 -15.499 140 -46.499s47 -74.5 47 -130.5v-329c0 -84 -17.667 -145.833 -53 -185.5s-95.666 -59.5 -180.999 -59.5v92c23.333 0 42.5 2.66699 57.5 8s26.833 14.166 35.5 26.499s14.667 28.166 18 47.499s5 43 5 71v305
c0 36 -9.83301 62.667 -29.5 80s-44.834 26 -75.501 26s-57.5 -9.16699 -80.5 -27.5s-36.5 -48.166 -40.5 -89.499v-296h-119v498h119v-60c17.333 22 39.333 39.167 66 51.5s57 18.5 91 18.5z" />
    <glyph glyph-name="Omacron" unicode="&#x14c;" horiz-adv-x="795" 
d="M236 773v77h323v-77h-323zM398 -13c-52.667 0 -100.834 8.83301 -144.501 26.5s-81.167 42.5 -112.5 74.5s-55.833 70.333 -73.5 115s-26.5 94 -26.5 148s8.83301 103.333 26.5 148s42.167 83 73.5 115s68.833 56.833 112.5 74.5s91.834 26.5 144.501 26.5
c52 0 99.833 -8.83301 143.5 -26.5s81.334 -42.5 113.001 -74.5s56.167 -70.333 73.5 -115s26 -94 26 -148s-8.66699 -103.333 -26 -148s-41.833 -83 -73.5 -115s-69.334 -56.833 -113.001 -74.5s-91.5 -26.5 -143.5 -26.5zM398 101c34 0 65.333 6 94 18s53.167 29 73.5 51
s36.333 48.333 48 79s17.5 64.667 17.5 102s-5.83301 71.333 -17.5 102s-27.667 57 -48 79s-44.833 39 -73.5 51s-60 18 -94 18s-65.333 -6 -94 -18s-53.334 -29 -74.001 -51s-36.834 -48.333 -48.501 -79s-17.5 -64.667 -17.5 -102s5.83301 -71.333 17.5 -102
s27.834 -57 48.501 -79s45.334 -39 74.001 -51s60 -18 94 -18z" />
    <glyph glyph-name="omacron" unicode="&#x14d;" horiz-adv-x="617" 
d="M178 587v77h263v-77h-263zM309 -10c-39.333 0 -75.333 6.16699 -108 18.5s-60.834 29.666 -84.501 51.999s-42.167 49.333 -55.5 81s-20 67.5 -20 107.5c0 39.333 6.66699 75 20 107s31.833 59.167 55.5 81.5s51.834 39.666 84.501 51.999s68.667 18.5 108 18.5
s75.333 -6.16699 108 -18.5s60.667 -29.666 84 -51.999s41.666 -49.5 54.999 -81.5s20 -67.667 20 -107c0 -40 -6.66699 -75.833 -20 -107.5s-31.666 -58.667 -54.999 -81s-51.333 -39.666 -84 -51.999s-68.667 -18.5 -108 -18.5zM309 85c22 0 42.167 4 60.5 12
s34 19.167 47 33.5s23 31.666 30 51.999s10.5 42.5 10.5 66.5s-3.5 46 -10.5 66s-17 37.333 -30 52s-28.667 26 -47 34s-38.5 12 -60.5 12s-42.167 -4 -60.5 -12s-34 -19.333 -47 -34s-23.167 -32 -30.5 -52s-11 -42 -11 -66s3.66699 -46.167 11 -66.5
s17.5 -37.666 30.5 -51.999s28.667 -25.5 47 -33.5s38.5 -12 60.5 -12z" />
    <glyph glyph-name="Obreve" unicode="&#x14e;" horiz-adv-x="795" 
d="M397 736c-25.333 0 -48.3359 2 -69.0029 6s-38.5 11 -53.5 21s-27 23.167 -36 39.5s-14.167 36.833 -15.5 61.5h77c2.66699 -24 11.834 -41.167 27.501 -51.5s38.834 -15.5 69.501 -15.5c31.333 0 54.833 5.16699 70.5 15.5s24.834 27.5 27.501 51.5h77
c-1.33301 -24.667 -6.5 -45.167 -15.5 -61.5s-21.167 -29.5 -36.5 -39.5s-33.333 -17 -54 -21s-43.667 -6 -69 -6zM397.997 -13c-52.667 0 -100.834 8.83301 -144.501 26.5s-81.167 42.5 -112.5 74.5s-55.833 70.333 -73.5 115s-26.5 94 -26.5 148s8.83301 103.333 26.5 148
s42.167 83 73.5 115s68.833 56.833 112.5 74.5s91.834 26.5 144.501 26.5c52 0 99.833 -8.83301 143.5 -26.5s81.334 -42.5 113.001 -74.5s56.167 -70.333 73.5 -115s26 -94 26 -148s-8.66699 -103.333 -26 -148s-41.833 -83 -73.5 -115s-69.334 -56.833 -113.001 -74.5
s-91.5 -26.5 -143.5 -26.5zM397.997 101c34 0 65.333 6 94 18s53.167 29 73.5 51s36.333 48.333 48 79s17.5 64.667 17.5 102s-5.83301 71.333 -17.5 102s-27.667 57 -48 79s-44.833 39 -73.5 51s-60 18 -94 18s-65.333 -6 -94 -18s-53.334 -29 -74.001 -51
s-36.834 -48.333 -48.501 -79s-17.5 -64.667 -17.5 -102s5.83301 -71.333 17.5 -102s27.834 -57 48.501 -79s45.334 -39 74.001 -51s60 -18 94 -18z" />
    <glyph glyph-name="obreve" unicode="&#x14f;" horiz-adv-x="617" 
d="M309 548c-52.667 0 -95.001 12.167 -127.001 36.5s-48 63.5 -48 117.5h86c0 -28 7.33301 -50 22 -66s37 -24 67 -24c30.667 0 53.5 8 68.5 24s22.5 38 22.5 66h86c0 -54 -16.167 -93.167 -48.5 -117.5s-75.166 -36.5 -128.499 -36.5zM308.999 -10
c-39.333 0 -75.333 6.16699 -108 18.5s-60.834 29.666 -84.501 51.999s-42.167 49.333 -55.5 81s-20 67.5 -20 107.5c0 39.333 6.66699 75 20 107s31.833 59.167 55.5 81.5s51.834 39.666 84.501 51.999s68.667 18.5 108 18.5s75.333 -6.16699 108 -18.5
s60.667 -29.666 84 -51.999s41.666 -49.5 54.999 -81.5s20 -67.667 20 -107c0 -40 -6.66699 -75.833 -20 -107.5s-31.666 -58.667 -54.999 -81s-51.333 -39.666 -84 -51.999s-68.667 -18.5 -108 -18.5zM308.999 85c22 0 42.167 4 60.5 12s34 19.167 47 33.5
s23 31.666 30 51.999s10.5 42.5 10.5 66.5s-3.5 46 -10.5 66s-17 37.333 -30 52s-28.667 26 -47 34s-38.5 12 -60.5 12s-42.167 -4 -60.5 -12s-34 -19.333 -47 -34s-23.167 -32 -30.5 -52s-11 -42 -11 -66s3.66699 -46.167 11 -66.5s17.5 -37.666 30.5 -51.999
s28.667 -25.5 47 -33.5s38.5 -12 60.5 -12z" />
    <glyph glyph-name="Ohungarumlaut" unicode="&#x150;" horiz-adv-x="795" 
d="M255 732l89 132h120l-105 -132h-104zM437 732l89 132h119l-105 -132h-103zM398 -13c-52.667 0 -100.834 8.83301 -144.501 26.5s-81.167 42.5 -112.5 74.5s-55.833 70.333 -73.5 115s-26.5 94 -26.5 148s8.83301 103.333 26.5 148s42.167 83 73.5 115
s68.833 56.833 112.5 74.5s91.834 26.5 144.501 26.5c52 0 99.833 -8.83301 143.5 -26.5s81.334 -42.5 113.001 -74.5s56.167 -70.333 73.5 -115s26 -94 26 -148s-8.66699 -103.333 -26 -148s-41.833 -83 -73.5 -115s-69.334 -56.833 -113.001 -74.5
s-91.5 -26.5 -143.5 -26.5zM398 101c34 0 65.333 6 94 18s53.167 29 73.5 51s36.333 48.333 48 79s17.5 64.667 17.5 102s-5.83301 71.333 -17.5 102s-27.667 57 -48 79s-44.833 39 -73.5 51s-60 18 -94 18s-65.333 -6 -94 -18s-53.334 -29 -74.001 -51
s-36.834 -48.333 -48.501 -79s-17.5 -64.667 -17.5 -102s5.83301 -71.333 17.5 -102s27.834 -57 48.501 -79s45.334 -39 74.001 -51s60 -18 94 -18z" />
    <glyph glyph-name="ohungarumlaut" unicode="&#x151;" horiz-adv-x="617" 
d="M167 558l96 144h121l-113 -144h-104zM348 558l96 144h121l-113 -144h-104zM309 -10c-39.333 0 -75.333 6.16699 -108 18.5s-60.834 29.666 -84.501 51.999s-42.167 49.333 -55.5 81s-20 67.5 -20 107.5c0 39.333 6.66699 75 20 107s31.833 59.167 55.5 81.5
s51.834 39.666 84.501 51.999s68.667 18.5 108 18.5s75.333 -6.16699 108 -18.5s60.667 -29.666 84 -51.999s41.666 -49.5 54.999 -81.5s20 -67.667 20 -107c0 -40 -6.66699 -75.833 -20 -107.5s-31.666 -58.667 -54.999 -81s-51.333 -39.666 -84 -51.999
s-68.667 -18.5 -108 -18.5zM309 85c22 0 42.167 4 60.5 12s34 19.167 47 33.5s23 31.666 30 51.999s10.5 42.5 10.5 66.5s-3.5 46 -10.5 66s-17 37.333 -30 52s-28.667 26 -47 34s-38.5 12 -60.5 12s-42.167 -4 -60.5 -12s-34 -19.333 -47 -34s-23.167 -32 -30.5 -52
s-11 -42 -11 -66s3.66699 -46.167 11 -66.5s17.5 -37.666 30.5 -51.999s28.667 -25.5 47 -33.5s38.5 -12 60.5 -12z" />
    <glyph glyph-name="OE" unicode="&#x152;" horiz-adv-x="942" 
d="M420 0c-60 0 -110.833 5.66699 -152.5 17s-77.5 28 -107.5 50c-40 30 -69.833 68.833 -89.5 116.5s-29.5 103.5 -29.5 167.5s9.83301 119.833 29.5 167.5s49.5 86.5 89.5 116.5c30 22 65.833 38.667 107.5 50s92.5 17 152.5 17h478v-109h-276v-188h246v-108h-246v-188
h276v-109h-478zM498 109v484h-77c-38.667 0 -72.334 -3.83301 -101.001 -11.5s-53 -19.167 -73 -34.5c-55.333 -40 -83 -105.333 -83 -196s27.667 -156 83 -196c20 -15.333 44.333 -26.833 73 -34.5s62.334 -11.5 101.001 -11.5h77z" />
    <glyph glyph-name="oe" unicode="&#x153;" horiz-adv-x="1010" 
d="M963 225l-387.997 0.00390625c0 -4.66699 -0.333008 -8.33398 -1 -11.001c5.33301 -41.333 21.166 -73.333 47.499 -96s58.5 -34 96.5 -34c28.667 0 53.667 6.5 75 19.5s37.333 32.167 48 57.5l110 -16c-16.667 -49.333 -45.667 -87.5 -87 -114.5s-90 -40.5 -146 -40.5
c-44 0 -83.167 7.16699 -117.5 21.5s-63.166 35.166 -86.499 62.499c-23.333 -26.667 -52.5 -47.167 -87.5 -61.5s-74.167 -21.833 -117.5 -22.5c-39.333 0 -75.333 6.16699 -108 18.5s-60.834 29.666 -84.501 51.999s-42.167 49.333 -55.5 81s-20 67.5 -20 107.5
c0 39.333 6.66699 75 20 107s31.833 59.167 55.5 81.5s51.834 39.666 84.501 51.999s68.667 18.5 108 18.5c43.333 -0.666992 82.5 -8.16699 117.5 -22.5s64.167 -35.166 87.5 -62.499c23.333 28 52.166 49.167 86.499 63.5s72.5 21.5 114.5 21.5
c35.333 0 68.166 -5.33301 98.499 -16s56.666 -26.834 78.999 -48.501s39.833 -48.5 52.5 -80.5s19 -69 19 -111zM715.003 419.004c-38 0 -69.1689 -10.167 -93.502 -30.5s-39.5 -50.166 -45.5 -89.499h270c-3.33301 37.333 -17.166 66.666 -41.499 87.999
s-54.166 32 -89.499 32zM309.001 85.0039c42 0 76.167 13.499 102.5 40.499s41.166 62.5 44.499 106.5v17v17c-3.33301 44 -18.166 79.5 -44.499 106.5s-60.5 40.5 -102.5 40.5c-22 0 -42.167 -4 -60.5 -12s-34 -19.333 -47 -34s-23.167 -32 -30.5 -52s-11 -42 -11 -66
s3.66699 -46.167 11 -66.5s17.5 -37.666 30.5 -51.999s28.667 -25.5 47 -33.5s38.5 -12 60.5 -12z" />
    <glyph glyph-name="Racute" unicode="&#x154;" horiz-adv-x="644" 
d="M459 864l-105 -132h-104l83 132h126zM463 0l-176.999 253h-91v-253h-124v702h227c48.667 0 88.667 -4.33301 120 -13s57.666 -21.667 78.999 -39s38 -39.833 50 -67.5s18 -60.5 18 -98.5c0 -44 -8.5 -83.833 -25.5 -119.5s-42.833 -63.167 -77.5 -82.5
c-11.333 -6 -24 -11 -38 -15l195 -267h-156zM195.001 598l0.000976562 -240.999h86c20.667 0 41.5 1.16699 62.5 3.5s38.5 8.16602 52.5 17.499c30 18.667 45 51.667 45 99c0 44.667 -13.667 77 -41 97c-14.667 10 -32.334 16.5 -53.001 19.5s-42.667 4.5 -66 4.5h-86z" />
    <glyph glyph-name="racute" unicode="&#x155;" horiz-adv-x="382" 
d="M340 702l-113 -144h-104l90 144h127zM183 418c15.333 28 38.168 50 68.501 66s66.5 24 108.5 24v-111c-60.667 0 -105.334 -12.5 -134.001 -37.5s-43 -68.167 -43 -129.5v-230h-118v498h118v-80z" />
    <glyph glyph-name="uni0156" unicode="&#x156;" horiz-adv-x="644" 
d="M619 0h-155.999l-177 253h-91v-253h-124v702h227c48.667 0 88.667 -4.33301 120 -13s57.666 -21.667 78.999 -39s38 -39.833 50 -67.5s18 -60.5 18 -98.5c0 -44 -8.5 -83.833 -25.5 -119.5s-42.833 -63.167 -77.5 -82.5c-11.333 -6 -24 -11 -38 -15zM195.001 598
l0.000976562 -240.999h86c20.667 0 41.5 1.16699 62.5 3.5s38.5 8.16602 52.5 17.499c30 18.667 45 51.667 45 99c0 44.667 -13.667 77 -41 97c-14.667 10 -32.334 16.5 -53.001 19.5s-42.667 4.5 -66 4.5h-86zM155.002 -173.999l96 144h102l-113 -144h-85z" />
    <glyph glyph-name="uni0157" unicode="&#x157;" horiz-adv-x="382" 
d="M183 418c15.333 28 38.168 50 68.501 66s66.5 24 108.5 24v-111c-60.667 0 -105.334 -12.5 -134.001 -37.5s-43 -68.167 -43 -129.5v-230h-118v498h118v-80zM-17.998 -174l96 144h102l-113 -144h-85z" />
    <glyph glyph-name="Rcaron" unicode="&#x158;" horiz-adv-x="644" 
d="M371 739h-137l-97 125h98l68 -71l67 71h97zM463 0l-176.999 253h-91v-253h-124v702h227c48.667 0 88.667 -4.33301 120 -13s57.666 -21.667 78.999 -39s38 -39.833 50 -67.5s18 -60.5 18 -98.5c0 -44 -8.5 -83.833 -25.5 -119.5s-42.833 -63.167 -77.5 -82.5
c-11.333 -6 -24 -11 -38 -15l195 -267h-156zM195.001 598l0.000976562 -240.999h86c20.667 0 41.5 1.16699 62.5 3.5s38.5 8.16602 52.5 17.499c30 18.667 45 51.667 45 99c0 44.667 -13.667 77 -41 97c-14.667 10 -32.334 16.5 -53.001 19.5s-42.667 4.5 -66 4.5h-86z" />
    <glyph glyph-name="rcaron" unicode="&#x159;" horiz-adv-x="382" 
d="M245 558h-135l-96 144h98l66 -87l65 87h98zM183 418c15.333 28 38.168 50 68.501 66s66.5 24 108.5 24v-111c-60.667 0 -105.334 -12.5 -134.001 -37.5s-43 -68.167 -43 -129.5v-230h-118v498h118v-80z" />
    <glyph glyph-name="Sacute" unicode="&#x15a;" horiz-adv-x="610" 
d="M248 732l83 132h126l-105 -132h-104zM308 -13c-37.333 0 -72.1689 4.49902 -104.502 13.499s-61.166 22.167 -86.499 39.5s-46.333 38.5 -63 63.5s-27.667 53.833 -33 86.5l122 26c10.667 -44 30.334 -76.167 59.001 -96.5s64.334 -30.5 107.001 -30.5
c41.333 0 73.166 8.83301 95.499 26.5s33.5 42.167 33.5 73.5c0 18 -4.33301 33 -13 45s-20.5 22.333 -35.5 31s-32.333 16 -52 22s-40.5 12 -62.5 18c-26.667 7.33301 -53.667 15.5 -81 24.5s-52.166 21 -74.499 36s-40.5 34.167 -54.5 57.5s-21 52.333 -21 87
c0 31.333 6 59.5 18 84.5s28.667 46.5 50 64.5s47.166 31.833 77.499 41.5s63.5 14.5 99.5 14.5c31.333 0 61.666 -3.33301 90.999 -10s56 -17.5 80 -32.5s44.833 -34 62.5 -57s30.5 -51.167 38.5 -84.5l-112 -26c-12.667 38 -31.167 65.5 -55.5 82.5
s-56.833 25.5 -97.5 25.5c-38 0 -68.667 -8.5 -92 -25.5s-35 -40.5 -35 -70.5c0 -16 4.16699 -29.5 12.5 -40.5s19.666 -20.333 33.999 -28s30.833 -14.167 49.5 -19.5s38.334 -10.666 59.001 -15.999c27.333 -6.66699 55.5 -14.667 84.5 -24s55.167 -21.833 78.5 -37.5
s42.5 -35.667 57.5 -60s22.5 -55.5 22.5 -93.5c0 -32 -6.16699 -61 -18.5 -87s-29.666 -48.167 -51.999 -66.5s-49.5 -32.5 -81.5 -42.5s-67.667 -15 -107 -15z" />
    <glyph glyph-name="sacute" unicode="&#x15b;" horiz-adv-x="501" 
d="M193 558l90 144h127l-113 -144h-104zM261 -10c-28 0 -54.5029 2.99805 -79.5029 8.99805s-47.167 15 -66.5 27s-35.5 26.833 -48.5 44.5s-21.833 37.834 -26.5 60.501l100 28c7.33301 -28.667 21.5 -49.5 42.5 -62.5s45.833 -19.5 74.5 -19.5
c24.667 0 45 5.16699 61 15.5s24 25.166 24 44.499c0 12.667 -3.16699 23 -9.5 31s-14.833 14.833 -25.5 20.5s-22.834 10.167 -36.501 13.5s-28.167 6.33301 -43.5 9c-25.333 5.33301 -48.666 11.333 -69.999 18s-39.666 15.5 -54.999 26.5s-27.333 24.667 -36 41
s-13 36.166 -13 59.499c0 48 17.5 85.333 52.5 112s81.833 40 140.5 40c24 0 46.833 -2.5 68.5 -7.5s41.5 -12.833 59.5 -23.5s33.333 -24.167 46 -40.5s22 -35.5 28 -57.5l-105 -23c-7.33301 22.667 -19.666 39.334 -36.999 50.001s-38.666 16 -63.999 16
c-24 0 -43.5 -4.83301 -58.5 -14.5s-22.5 -23.167 -22.5 -40.5c0 -10 3 -18.333 9 -25s14.167 -12.5 24.5 -17.5s22.333 -9.16699 36 -12.5s28.167 -6.66602 43.5 -9.99902c27.333 -6 52.333 -12.667 75 -20s42 -16.666 58 -27.999s28.333 -25.333 37 -42s13 -37.667 13 -63
c0 -27.333 -5.33301 -51 -16 -71s-25 -36.5 -43 -49.5s-38.833 -22.667 -62.5 -29s-48.5 -9.5 -74.5 -9.5z" />
    <glyph glyph-name="Scedilla" unicode="&#x15e;" horiz-adv-x="610" 
d="M567 198c0 -30.667 -5.66895 -58.667 -17.002 -84s-27.5 -47.166 -48.5 -65.499s-46.333 -32.833 -76 -43.5s-62.834 -16.667 -99.501 -18l-31 -50c9.33301 2 18.333 3 27 3c26.667 0 47.834 -7.83301 63.501 -23.5s23.5 -36.167 23.5 -61.5
c0 -28 -9.66699 -51.333 -29 -70s-45 -28 -77 -28c-31.333 0 -56 6 -74 18s-30.667 27 -38 45l66 20c4 -9.33301 10 -16.166 18 -20.499s16.667 -6.5 26 -6.5c12.667 0 23.334 3.66699 32.001 11s13 17.666 13 30.999s-4.33301 23.5 -13 30.5s-19 10.5 -31 10.5
c-15.333 0 -27.666 -5 -36.999 -15l-57 25l48 84c-61.333 7.33301 -113.5 28.166 -156.5 62.499s-69.167 80.166 -78.5 137.499l122 26c10.667 -44 30.334 -76.167 59.001 -96.5s64.334 -30.5 107.001 -30.5c41.333 0 73.166 8.83301 95.499 26.5s33.5 42.167 33.5 73.5
c0 18 -4.33301 33 -13 45s-20.5 22.333 -35.5 31s-32.333 16 -52 22s-40.5 12 -62.5 18c-26.667 7.33301 -53.667 15.5 -81 24.5s-52.166 21 -74.499 36s-40.5 34.167 -54.5 57.5s-21 52.333 -21 87c0 31.333 6 59.5 18 84.5s28.667 46.5 50 64.5s47.166 31.833 77.499 41.5
s63.5 14.5 99.5 14.5c31.333 0 61.666 -3.33301 90.999 -10s56 -17.5 80 -32.5s44.833 -34 62.5 -57s30.5 -51.167 38.5 -84.5l-112 -26c-12.667 38 -31.167 65.5 -55.5 82.5s-56.833 25.5 -97.5 25.5c-38 0 -68.667 -8.5 -92 -25.5s-35 -40.5 -35 -70.5
c0 -16 4.16699 -29.5 12.5 -40.5s19.666 -20.333 33.999 -28s30.833 -14.167 49.5 -19.5s38.334 -10.666 59.001 -15.999c27.333 -6.66699 55.5 -14.667 84.5 -24s55.167 -21.833 78.5 -37.5s42.5 -35.667 57.5 -60s22.5 -55.5 22.5 -93.5z" />
    <glyph glyph-name="scedilla" unicode="&#x15f;" horiz-adv-x="501" 
d="M457 149c0 -25.333 -4.50586 -47.501 -13.5059 -66.501s-21.333 -35 -37 -48s-34 -23 -55 -30s-43.167 -11.5 -66.5 -13.5l-33 -54c9.33301 2 18.333 3 27 3c26.667 0 47.834 -7.83301 63.501 -23.5s23.5 -36.167 23.5 -61.5c0 -28 -9.66699 -51.333 -29 -70
s-45 -28 -77 -28c-31.333 0 -56 6 -74 18s-30.667 27 -38 45l66 20c4 -9.33301 10 -16.166 18 -20.499s16.667 -6.5 26 -6.5c12.667 0 23.334 3.66699 32.001 11s13 17.666 13 30.999s-4.33301 23.5 -13 30.5s-19 10.5 -31 10.5c-15.333 0 -27.666 -5 -36.999 -15l-57 25
l50 87c-46 6 -84.833 20.5 -116.5 43.5s-51.167 54.5 -58.5 94.5l100 28c7.33301 -28.667 21.5 -49.5 42.5 -62.5s45.833 -19.5 74.5 -19.5c24.667 0 45 5.16699 61 15.5s24 25.166 24 44.499c0 12.667 -3.16699 23 -9.5 31s-14.833 14.833 -25.5 20.5
s-22.834 10.167 -36.501 13.5s-28.167 6.33301 -43.5 9c-25.333 5.33301 -48.666 11.333 -69.999 18s-39.666 15.5 -54.999 26.5s-27.333 24.667 -36 41s-13 36.166 -13 59.499c0 48 17.5 85.333 52.5 112s81.833 40 140.5 40c24 0 46.833 -2.5 68.5 -7.5
s41.5 -12.833 59.5 -23.5s33.333 -24.167 46 -40.5s22 -35.5 28 -57.5l-105 -23c-7.33301 22.667 -19.666 39.334 -36.999 50.001s-38.666 16 -63.999 16c-24 0 -43.5 -4.83301 -58.5 -14.5s-22.5 -23.167 -22.5 -40.5c0 -10 3 -18.333 9 -25s14.167 -12.5 24.5 -17.5
s22.333 -9.16699 36 -12.5s28.167 -6.66602 43.5 -9.99902c27.333 -6 52.333 -12.667 75 -20s42 -16.666 58 -27.999s28.333 -25.333 37 -42s13 -37.667 13 -63z" />
    <glyph glyph-name="Scaron" unicode="&#x160;" horiz-adv-x="610" 
d="M232 739l-97 125h98l68 -71l67 71h97l-96 -125h-137zM308 -13c-37.333 0 -72.1689 4.49902 -104.502 13.499s-61.166 22.167 -86.499 39.5s-46.333 38.5 -63 63.5s-27.667 53.833 -33 86.5l122 26c10.667 -44 30.334 -76.167 59.001 -96.5s64.334 -30.5 107.001 -30.5
c41.333 0 73.166 8.83301 95.499 26.5s33.5 42.167 33.5 73.5c0 18 -4.33301 33 -13 45s-20.5 22.333 -35.5 31s-32.333 16 -52 22s-40.5 12 -62.5 18c-26.667 7.33301 -53.667 15.5 -81 24.5s-52.166 21 -74.499 36s-40.5 34.167 -54.5 57.5s-21 52.333 -21 87
c0 31.333 6 59.5 18 84.5s28.667 46.5 50 64.5s47.166 31.833 77.499 41.5s63.5 14.5 99.5 14.5c31.333 0 61.666 -3.33301 90.999 -10s56 -17.5 80 -32.5s44.833 -34 62.5 -57s30.5 -51.167 38.5 -84.5l-112 -26c-12.667 38 -31.167 65.5 -55.5 82.5
s-56.833 25.5 -97.5 25.5c-38 0 -68.667 -8.5 -92 -25.5s-35 -40.5 -35 -70.5c0 -16 4.16699 -29.5 12.5 -40.5s19.666 -20.333 33.999 -28s30.833 -14.167 49.5 -19.5s38.334 -10.666 59.001 -15.999c27.333 -6.66699 55.5 -14.667 84.5 -24s55.167 -21.833 78.5 -37.5
s42.5 -35.667 57.5 -60s22.5 -55.5 22.5 -93.5c0 -32 -6.16699 -61 -18.5 -87s-29.666 -48.167 -51.999 -66.5s-49.5 -32.5 -81.5 -42.5s-67.667 -15 -107 -15z" />
    <glyph glyph-name="scaron" unicode="&#x161;" horiz-adv-x="501" 
d="M181 558l-96 144h98l66 -87l65 87h98l-96 -144h-135zM261 -10c-28 0 -54.5029 2.99805 -79.5029 8.99805s-47.167 15 -66.5 27s-35.5 26.833 -48.5 44.5s-21.833 37.834 -26.5 60.501l100 28c7.33301 -28.667 21.5 -49.5 42.5 -62.5s45.833 -19.5 74.5 -19.5
c24.667 0 45 5.16699 61 15.5s24 25.166 24 44.499c0 12.667 -3.16699 23 -9.5 31s-14.833 14.833 -25.5 20.5s-22.834 10.167 -36.501 13.5s-28.167 6.33301 -43.5 9c-25.333 5.33301 -48.666 11.333 -69.999 18s-39.666 15.5 -54.999 26.5s-27.333 24.667 -36 41
s-13 36.166 -13 59.499c0 48 17.5 85.333 52.5 112s81.833 40 140.5 40c24 0 46.833 -2.5 68.5 -7.5s41.5 -12.833 59.5 -23.5s33.333 -24.167 46 -40.5s22 -35.5 28 -57.5l-105 -23c-7.33301 22.667 -19.666 39.334 -36.999 50.001s-38.666 16 -63.999 16
c-24 0 -43.5 -4.83301 -58.5 -14.5s-22.5 -23.167 -22.5 -40.5c0 -10 3 -18.333 9 -25s14.167 -12.5 24.5 -17.5s22.333 -9.16699 36 -12.5s28.167 -6.66602 43.5 -9.99902c27.333 -6 52.333 -12.667 75 -20s42 -16.666 58 -27.999s28.333 -25.333 37 -42s13 -37.667 13 -63
c0 -27.333 -5.33301 -51 -16 -71s-25 -36.5 -43 -49.5s-38.833 -22.667 -62.5 -29s-48.5 -9.5 -74.5 -9.5z" />
    <glyph glyph-name="uni0162" unicode="&#x162;" horiz-adv-x="499" 
d="M311 0h-28.0029l-38 -63c9.33301 2 18.333 3 27 3c26.667 0 47.834 -7.83301 63.501 -23.5s23.5 -36.167 23.5 -61.5c0 -28 -9.66699 -51.333 -29 -70s-45 -28 -77 -28c-31.333 0 -56 6 -74 18s-30.667 27 -38 45l66 20c4 -9.33301 10 -16.166 18 -20.499
s16.667 -6.5 26 -6.5c12.667 0 23.334 3.66699 32.001 11s13 17.666 13 30.999s-4.33301 23.5 -13 30.5s-19 10.5 -31 10.5c-15.333 0 -27.666 -5 -36.999 -15l-57 25l54 94h-24v593h-175v109h473v-109h-175v-593z" />
    <glyph glyph-name="uni0163" unicode="&#x163;" horiz-adv-x="389" 
d="M351 406h-112.002v-238c0 -25.333 6.16699 -43.833 18.5 -55.5s29.166 -17.5 50.499 -17.5h43v-95h-82l-38 -63c9.33301 2 18.333 3 27 3c26.667 0 47.834 -7.83301 63.501 -23.5s23.5 -36.167 23.5 -61.5c0 -28 -9.66699 -51.333 -29 -70s-45 -28 -77 -28
c-31.333 0 -56 6 -74 18s-30.667 27 -38 45l66 20c4 -9.33301 10 -16.166 18 -20.499s16.667 -6.5 26 -6.5c12.667 0 23.334 3.66699 32.001 11s13 17.666 13 30.999s-4.33301 23.5 -13 30.5s-19 10.5 -31 10.5c-15.333 0 -27.666 -5 -36.999 -15l-57 25l60 105
c-27.333 10 -48.166 26.833 -62.499 50.5s-21.5 53.5 -21.5 89.5v255h-99v92h44c21.333 0 38.166 5.33301 50.499 16s18.5 32 18.5 64v81h105v-161h112v-92z" />
    <glyph glyph-name="Tcaron" unicode="&#x164;" horiz-adv-x="499" 
d="M318 739h-137l-97 125h98l68 -71l67 71h97zM486 702v-109h-175v-593h-123v593h-175v109h473z" />
    <glyph glyph-name="tcaron" unicode="&#x165;" horiz-adv-x="376" 
d="M301 559l60 316h122l-96 -316h-86zM268 0c-47.333 0 -83.8311 13.167 -109.498 39.5s-38.5 63.5 -38.5 111.5v255h-99v92h44c21.333 0 38.166 5.33301 50.499 16s18.5 32 18.5 64v81h105v-161h112v-92h-112v-238c0 -25.333 6.16699 -43.833 18.5 -55.5
s29.166 -17.5 50.499 -17.5h43v-95h-83z" />
    <glyph glyph-name="Tbar" unicode="&#x166;" horiz-adv-x="499" 
d="M486 593h-175v-205h103v-73h-103v-315h-123v315h-103v73h103v205h-175v109h473v-109z" />
    <glyph glyph-name="tbar" unicode="&#x167;" horiz-adv-x="389" 
d="M353 213h-113.998v-45c0 -25.333 6.16699 -43.833 18.5 -55.5s29.166 -17.5 50.499 -17.5h43v-95h-83c-47.333 0 -83.833 13.167 -109.5 39.5s-38.5 63.5 -38.5 111.5v62h-101v73h101v120h-99v92h44c21.333 0 38.166 5.33301 50.499 16s18.5 32 18.5 64v81h105v-161h112
v-92h-112v-120h114v-73z" />
    <glyph glyph-name="Utilde" unicode="&#x168;" horiz-adv-x="675" 
d="M400 732c-23.333 0 -41.333 5.00098 -54 15.001s-23 20 -31 30c-7.33301 8.66699 -14.333 16 -21 22s-15.667 9 -27 9c-12.667 0 -22 -6.66699 -28 -20s-9 -29.666 -9 -48.999h-60c0 39.333 9.33301 71.666 28 96.999s44 38 76 38c23.333 0 41.166 -5 53.499 -15
s23.166 -20.333 32.499 -31c6.66699 -8.66699 13.334 -15.834 20.001 -21.501s15.667 -8.5 27 -8.5c12.667 0 21.834 6.5 27.501 19.5s8.5 29.167 8.5 48.5h60c0 -38 -8.83301 -69.833 -26.5 -95.5s-43.167 -38.5 -76.5 -38.5zM337 -12.999
c-38.667 0 -74.832 5.33301 -108.499 16s-62.667 26.834 -87 48.501s-43.5 48.834 -57.5 81.501s-21 70.667 -21 114v455h124v-440c0 -56 14.167 -97.167 42.5 -123.5s64.166 -39.5 107.499 -39.5c44 0 80.167 13.167 108.5 39.5s42.5 67.5 42.5 123.5v440h123v-455
c0 -43.333 -6.83301 -81.333 -20.5 -114s-32.834 -59.834 -57.501 -81.501s-53.667 -37.834 -87 -48.501s-69.666 -16 -108.999 -16z" />
    <glyph glyph-name="utilde" unicode="&#x169;" horiz-adv-x="589" 
d="M221 629c-12.667 0 -22 -6.66602 -28 -19.999s-9 -29.333 -9 -48h-60c0 38.667 9.33301 70.667 28 96s44 38 76 38c23.333 0 41.166 -5 53.499 -15s23.166 -20.333 32.499 -31c6.66699 -8.66699 13.334 -15.834 20.001 -21.501s15.667 -8.5 27 -8.5
c12.667 0 21.834 6.5 27.501 19.5s8.5 29.167 8.5 48.5h60c0 -38 -8.83301 -69.833 -26.5 -95.5s-43.167 -38.5 -76.5 -38.5c-23.333 0 -41.333 5 -54 15s-23 20 -31 30c-7.33301 8.66699 -14.333 16 -21 22s-15.667 9 -27 9zM405 498.001h118v-498h-118v61
c-17.333 -22 -39.5 -39.333 -66.5 -52s-57.833 -19 -92.5 -19c-62 0 -108.667 15.333 -140 46s-47 74 -47 130v332h119v-308c0 -36 9.66699 -62.333 29 -79s44.666 -25 75.999 -25c16.667 0 32.334 2.5 47.001 7.5s27.5 13 38.5 24s19.833 25.167 26.5 42.5s10 38 10 62v276
z" />
    <glyph glyph-name="Umacron" unicode="&#x16a;" horiz-adv-x="675" 
d="M175 773v77h323v-77h-323zM337 -13c-38.667 0 -74.832 5.33301 -108.499 16s-62.667 26.834 -87 48.501s-43.5 48.834 -57.5 81.501s-21 70.667 -21 114v455h124v-440c0 -56 14.167 -97.167 42.5 -123.5s64.166 -39.5 107.499 -39.5c44 0 80.167 13.167 108.5 39.5
s42.5 67.5 42.5 123.5v440h123v-455c0 -43.333 -6.83301 -81.333 -20.5 -114s-32.834 -59.834 -57.501 -81.501s-53.667 -37.834 -87 -48.501s-69.666 -16 -108.999 -16z" />
    <glyph glyph-name="umacron" unicode="&#x16b;" horiz-adv-x="589" 
d="M423 664v-77h-263v77h263zM405 498h118v-498h-118v61c-17.333 -22 -39.5 -39.333 -66.5 -52s-57.833 -19 -92.5 -19c-62 0 -108.667 15.333 -140 46s-47 74 -47 130v332h119v-308c0 -36 9.66699 -62.333 29 -79s44.666 -25 75.999 -25c16.667 0 32.334 2.5 47.001 7.5
s27.5 13 38.5 24s19.833 25.167 26.5 42.5s10 38 10 62v276z" />
    <glyph glyph-name="Uring" unicode="&#x16e;" horiz-adv-x="675" 
d="M336 728c-17.333 0 -33.666 3 -48.999 9s-28.833 14.333 -40.5 25s-20.834 23.667 -27.501 39s-10 32 -10 50s3.33301 34.667 10 50s15.834 28.333 27.501 39s25.167 19 40.5 25s31.666 9 48.999 9s33.666 -3 48.999 -9s28.666 -14.333 39.999 -25s20.333 -23.667 27 -39
s10 -32 10 -50s-3.33301 -34.667 -10 -50s-15.667 -28.333 -27 -39s-24.666 -19 -39.999 -25s-31.666 -9 -48.999 -9zM336 785c18.667 0 34.5 6.16699 47.5 18.5s19.5 28.166 19.5 47.499s-6.5 35.166 -19.5 47.499s-28.833 18.5 -47.5 18.5s-34.167 -6.16699 -46.5 -18.5
s-18.5 -28.166 -18.5 -47.499s6.16699 -35.166 18.5 -47.499s27.833 -18.5 46.5 -18.5zM337 -13c-38.667 0 -74.832 5.33301 -108.499 16s-62.667 26.834 -87 48.501s-43.5 48.834 -57.5 81.501s-21 70.667 -21 114v455h124v-440c0 -56 14.167 -97.167 42.5 -123.5
s64.166 -39.5 107.499 -39.5c44 0 80.167 13.167 108.5 39.5s42.5 67.5 42.5 123.5v440h123v-455c0 -43.333 -6.83301 -81.333 -20.5 -114s-32.834 -59.834 -57.501 -81.501s-53.667 -37.834 -87 -48.501s-69.666 -16 -108.999 -16z" />
    <glyph glyph-name="uring" unicode="&#x16f;" horiz-adv-x="589" 
d="M292 555c-18 0 -34.5 3.16699 -49.5 9.5s-27.667 14.833 -38 25.5s-18.5 23.167 -24.5 37.5s-9 29.5 -9 45.5s2.83301 31 8.5 45s13.834 26.167 24.501 36.5s23.5 18.666 38.5 24.999s31.5 9.5 49.5 9.5s34.333 -3.16699 49 -9.5s27.167 -14.666 37.5 -24.999
s18.333 -22.5 24 -36.5s8.5 -29 8.5 -45s-2.83301 -31.167 -8.5 -45.5s-13.834 -26.833 -24.501 -37.5s-23.167 -19.167 -37.5 -25.5s-30.5 -9.5 -48.5 -9.5zM292 731c-16.667 0 -30.667 -5.33301 -42 -16s-17 -24.667 -17 -42s5.66699 -31.5 17 -42.5
s25.333 -16.5 42 -16.5c16 0 29.833 5.5 41.5 16.5s17.5 25.167 17.5 42.5s-5.66699 31.333 -17 42s-25.333 16 -42 16zM405 498h118v-498h-118v61c-17.333 -22 -39.5 -39.333 -66.5 -52s-57.833 -19 -92.5 -19c-62 0 -108.667 15.333 -140 46s-47 74 -47 130v332h119v-308
c0 -36 9.66699 -62.333 29 -79s44.666 -25 75.999 -25c16.667 0 32.334 2.5 47.001 7.5s27.5 13 38.5 24s19.833 25.167 26.5 42.5s10 38 10 62v276z" />
    <glyph glyph-name="Uhungarumlaut" unicode="&#x170;" horiz-adv-x="675" 
d="M194 732l89 132h120l-105 -132h-104zM376 732l89 132h119l-105 -132h-103zM337 -13c-38.667 0 -74.832 5.33301 -108.499 16s-62.667 26.834 -87 48.501s-43.5 48.834 -57.5 81.501s-21 70.667 -21 114v455h124v-440c0 -56 14.167 -97.167 42.5 -123.5
s64.166 -39.5 107.499 -39.5c44 0 80.167 13.167 108.5 39.5s42.5 67.5 42.5 123.5v440h123v-455c0 -43.333 -6.83301 -81.333 -20.5 -114s-32.834 -59.834 -57.501 -81.501s-53.667 -37.834 -87 -48.501s-69.666 -16 -108.999 -16z" />
    <glyph glyph-name="uhungarumlaut" unicode="&#x171;" horiz-adv-x="589" 
d="M366 702l-113 -144h-104l96 144h121zM434 558h-104l96 144h121zM405 498h118v-498h-118v61c-17.333 -22 -39.5 -39.333 -66.5 -52s-57.833 -19 -92.5 -19c-62 0 -108.667 15.333 -140 46s-47 74 -47 130v332h119v-308c0 -36 9.66699 -62.333 29 -79
s44.666 -25 75.999 -25c16.667 0 32.334 2.5 47.001 7.5s27.5 13 38.5 24s19.833 25.167 26.5 42.5s10 38 10 62v276z" />
    <glyph glyph-name="Uogonek" unicode="&#x172;" horiz-adv-x="675" 
d="M488 702l123.003 -0.000976562v-455c0 -70 -17.333 -125.833 -52 -167.5s-79.667 -69.167 -135 -82.5c-24.667 -16.667 -44.834 -34.834 -60.501 -54.501s-23.5 -37.167 -23.5 -52.5c0 -9.33301 4.16699 -16.833 12.5 -22.5s19.166 -8.5 32.499 -8.5
c16 0 30.667 4.66699 44 14v-75c-20 -8 -43.333 -12 -70 -12s-49.667 5.5 -69 16.5s-29 28.167 -29 51.5c0 21.333 8.83301 43.5 26.5 66.5s39.834 45.167 66.501 66.5h-17c-38.667 0 -74.834 5.33301 -108.501 16s-62.667 26.834 -87 48.501s-43.5 48.834 -57.5 81.501
s-21 70.667 -21 114v455h124v-440c0 -56 14.167 -97.167 42.5 -123.5s64.166 -39.5 107.499 -39.5c44 0 80.167 13.167 108.5 39.5s42.5 67.5 42.5 123.5v440z" />
    <glyph glyph-name="uogonek" unicode="&#x173;" horiz-adv-x="589" 
d="M523 0c-26 -16.667 -47.332 -35.167 -63.999 -55.5s-25 -38.5 -25 -54.5c0 -9.33301 4.16699 -16.833 12.5 -22.5s19.166 -8.5 32.499 -8.5c16 0 30.667 4.66699 44 14v-75c-20 -8 -43.333 -12 -70 -12s-49.667 5.5 -69 16.5s-29 28.167 -29 51.5
c0 24 10.5 48.5 31.5 73.5s47.167 49.167 78.5 72.5h-60v61c-17.333 -22 -39.5 -39.333 -66.5 -52s-57.833 -19 -92.5 -19c-62 0 -108.667 15.333 -140 46s-47 74 -47 130v332h119v-308c0 -36 9.66699 -62.333 29 -79s44.666 -25 75.999 -25c16.667 0 32.334 2.5 47.001 7.5
s27.5 13 38.5 24s19.833 25.167 26.5 42.5s10 38 10 62v276h118v-498z" />
    <glyph glyph-name="Wcircumflex" unicode="&#x174;" horiz-adv-x="1037" 
d="M519 811l-68 -72h-98l97 125h137l96 -125h-97zM890 702h128l-188 -702h-165l-147 480l-146 -480h-166l-188 702h129l151 -571l166 571h109l165 -571z" />
    <glyph glyph-name="wcircumflex" unicode="&#x175;" horiz-adv-x="870" 
d="M435 645l-66 -87h-98l96 144h135l96 -144h-98zM724 498h126l-175 -498h-125l-115 352l-115 -352h-125l-175 498h126l116 -357l124 357h99l123 -357z" />
    <glyph glyph-name="Ycircumflex" unicode="&#x176;" horiz-adv-x="609" 
d="M305 811l-68 -72h-98l97 125h137l96 -125h-97zM603 702l-237 -371v-331h-123v329l-238 373h136l163 -264l164 264h135z" />
    <glyph glyph-name="ycircumflex" unicode="&#x177;" horiz-adv-x="565" 
d="M286 645l-66 -87h-98l96 144h135l96 -144h-98zM418 498h129l-313 -741h-129l115 263l-203 478h129l136 -357z" />
    <glyph glyph-name="Ydieresis" unicode="&#x178;" horiz-adv-x="609" 
d="M207 744c-20 0 -37.167 7.16699 -51.5 21.5s-21.5 31.166 -21.5 50.499c0 20 7.16699 37 21.5 51s31.5 21 51.5 21c19.333 0 36 -7 50 -21s21 -31 21 -51c0 -19.333 -7 -36.166 -21 -50.499s-30.667 -21.5 -50 -21.5zM402 744c-19.333 0 -36.166 7.16699 -50.499 21.5
s-21.5 31.166 -21.5 50.499c0 20 7.16699 37 21.5 51s31.166 21 50.499 21s36.166 -7 50.499 -21s21.5 -31 21.5 -51c0 -19.333 -7.16699 -36.166 -21.5 -50.499s-31.166 -21.5 -50.499 -21.5zM603 702l-237 -371v-331h-123v329l-238 373h136l163 -264l164 264h135z" />
    <glyph glyph-name="Zacute" unicode="&#x179;" horiz-adv-x="577" 
d="M457 864l-105 -132h-104l83 132h126zM179 109h364v-109h-509v100l360 493h-359v109h504v-100z" />
    <glyph glyph-name="zacute" unicode="&#x17a;" horiz-adv-x="484" 
d="M406 702l-113 -144h-104l90 144h127zM456 498l-250 -406h240v-92h-420l249 406h-228v92h409z" />
    <glyph glyph-name="Zdotaccent" unicode="&#x17b;" horiz-adv-x="577" 
d="M301 744c-20 0 -37.167 7.16699 -51.5 21.5s-21.5 31.166 -21.5 50.499c0 20 7.16699 37 21.5 51s31.5 21 51.5 21c19.333 0 36 -7 50 -21s21 -31 21 -51c0 -19.333 -7 -36.166 -21 -50.499s-30.667 -21.5 -50 -21.5zM179 109h364v-109h-509v100l360 493h-359v109h504
v-100z" />
    <glyph glyph-name="zdotaccent" unicode="&#x17c;" horiz-adv-x="484" 
d="M245 589c-20 0 -37.167 7 -51.5 21s-21.5 31 -21.5 51c0 19.333 7.16699 36 21.5 50s31.5 21 51.5 21c19.333 0 36 -7 50 -21s21 -30.667 21 -50c0 -20 -7 -37 -21 -51s-30.667 -21 -50 -21zM456 498l-250 -406h240v-92h-420l249 406h-228v92h409z" />
    <glyph glyph-name="Zcaron" unicode="&#x17d;" horiz-adv-x="577" 
d="M369 739h-137l-97 125h98l68 -71l67 71h97zM179 109h364v-109h-509v100l360 493h-359v109h504v-100z" />
    <glyph glyph-name="zcaron" unicode="&#x17e;" horiz-adv-x="484" 
d="M311 558h-135l-96 144h98l66 -87l65 87h98zM456 498l-250 -406h240v-92h-420l249 406h-228v92h409z" />
    <glyph glyph-name="florin" unicode="&#x192;" horiz-adv-x="427" 
d="M378 655c-10 0 -20.166 -1.16895 -30.499 -3.50195s-19.833 -7 -28.5 -14s-15.667 -16.5 -21 -28.5s-8 -28 -8 -48v-63h115v-92h-115v-406c0 -38 -5 -69.167 -15 -93.5s-24 -43.666 -42 -57.999s-39.667 -24.166 -65 -29.499s-53.666 -8 -84.999 -8h-26v95h26
c10 0 20.333 1.16699 31 3.5s20.167 7 28.5 14s15.166 16.5 20.499 28.5s8 28 8 48v406h-100v92h100v63c0 38 5 69.333 15 94s24.167 44 42.5 58s40.166 23.667 65.499 29s53.333 8 84 8h27v-95h-27z" />
    <glyph glyph-name="Ohorn" unicode="&#x1a0;" horiz-adv-x="795" 
d="M707 739h82.002v-73c0 -20 -2.66699 -36.5 -8 -49.5s-12.333 -23.667 -21 -32s-18.334 -14.333 -29.001 -18s-21.667 -6.16699 -33 -7.5c18 -29.333 31.833 -61.333 41.5 -96s14.5 -72 14.5 -112c0 -54 -8.66699 -103.333 -26 -148s-41.833 -83 -73.5 -115
s-69.334 -56.833 -113.001 -74.5s-91.5 -26.5 -143.5 -26.5c-52.667 0 -100.834 8.83301 -144.501 26.5s-81.167 42.5 -112.5 74.5s-55.833 70.333 -73.5 115s-26.5 94 -26.5 148s8.83301 103.333 26.5 148s42.167 83 73.5 115s68.833 56.833 112.5 74.5
s91.834 26.5 144.501 26.5s100.667 -8.83301 144 -26.5s81 -42.5 113 -74.5c2 -0.666992 4.66699 -1 8 -1c18 0 29.833 4.83301 35.5 14.5s8.5 26.5 8.5 50.5v61zM398.002 101c34 0 65.333 6 94 18s53.167 29 73.5 51s36.333 48.333 48 79s17.5 64.667 17.5 102
s-5.83301 71.333 -17.5 102s-27.667 57 -48 79s-44.833 39 -73.5 51s-60 18 -94 18s-65.333 -6 -94 -18s-53.334 -29 -74.001 -51s-36.834 -48.333 -48.501 -79s-17.5 -64.667 -17.5 -102s5.83301 -71.333 17.5 -102s27.834 -57 48.501 -79s45.334 -39 74.001 -51
s60 -18 94 -18z" />
    <glyph glyph-name="ohorn" unicode="&#x1a1;" horiz-adv-x="617" 
d="M543 574l81.998 0.000976562v-73c0 -19.333 -2.5 -35.5 -7.5 -48.5s-11.667 -23.667 -20 -32s-17.833 -14.5 -28.5 -18.5s-21.334 -6.66699 -32.001 -8c12.667 -20 22.334 -42.167 29.001 -66.5s10 -50.5 10 -78.5c0 -40 -6.66699 -75.833 -20 -107.5
s-31.666 -58.667 -54.999 -81s-51.333 -39.666 -84 -51.999s-68.667 -18.5 -108 -18.5s-75.333 6.16699 -108 18.5s-60.834 29.666 -84.501 51.999s-42.167 49.333 -55.5 81s-20 67.5 -20 107.5c0 39.333 6.66699 75 20 107s31.833 59.167 55.5 81.5
s51.834 39.666 84.501 51.999s68.667 18.5 108 18.5c36 0 69 -5 99 -15s56.667 -24.667 80 -44c2.66699 -0.666992 6.33398 -1 11.001 -1c18 0 29.833 4.83301 35.5 14.5s8.5 26.5 8.5 50.5v61zM308.998 85.001c22 0 42.167 4 60.5 12s34 19.167 47 33.5
s23 31.666 30 51.999s10.5 42.5 10.5 66.5s-3.5 46 -10.5 66s-17 37.333 -30 52s-28.667 26 -47 34s-38.5 12 -60.5 12s-42.167 -4 -60.5 -12s-34 -19.333 -47 -34s-23.167 -32 -30.5 -52s-11 -42 -11 -66s3.66699 -46.167 11 -66.5s17.5 -37.666 30.5 -51.999
s28.667 -25.5 47 -33.5s38.5 -12 60.5 -12z" />
    <glyph glyph-name="Uhorn" unicode="&#x1af;" horiz-adv-x="675" 
d="M690 784h82.001v-73c0 -22 -3.33301 -40 -10 -54s-15.167 -25 -25.5 -33s-21.666 -13.5 -33.999 -16.5s-24.5 -4.5 -36.5 -4.5c-16.667 0 -35 3.66699 -55 11v-367c0 -43.333 -6.83301 -81.333 -20.5 -114s-32.834 -59.834 -57.501 -81.501s-53.667 -37.834 -87 -48.501
s-69.666 -16 -108.999 -16c-38.667 0 -74.834 5.33301 -108.501 16s-62.667 26.834 -87 48.501s-43.5 48.834 -57.5 81.501s-21 70.667 -21 114v455h124v-440c0 -56 14.167 -97.167 42.5 -123.5s64.166 -39.5 107.499 -39.5c44 0 80.167 13.167 108.5 39.5
s42.5 67.5 42.5 123.5v440h123v-35c13.333 -6 25 -9 35 -9c18 0 29.833 4.83301 35.5 14.5s8.5 26.5 8.5 50.5v61z" />
    <glyph glyph-name="uhorn" unicode="&#x1b0;" horiz-adv-x="589" 
d="M592 580h81.999v-73c0 -22 -3.33301 -40 -10 -54s-15.167 -25 -25.5 -33s-21.666 -13.5 -33.999 -16.5s-24.5 -4.5 -36.5 -4.5c-15.333 0 -30.333 2.33301 -45 7v-406h-118v61c-17.333 -22 -39.5 -39.333 -66.5 -52s-57.833 -19 -92.5 -19c-62 0 -108.667 15.333 -140 46
s-47 74 -47 130v332h119v-308c0 -36 9.66699 -62.333 29 -79s44.666 -25 75.999 -25c16.667 0 32.334 2.5 47.001 7.5s27.5 13 38.5 24s19.833 25.167 26.5 42.5s10 38 10 62v276h118v-39c10 -3.33301 18.333 -5 25 -5c18 0 29.833 4.83301 35.5 14.5s8.5 26.5 8.5 50.5v61z
" />
    <glyph glyph-name="uni01CD" unicode="&#x1cd;" horiz-adv-x="707" 
d="M422 739h-137l-97 125h98l68 -71l67 71h97zM564 0l-57 155h-307l-57 -155h-131l264 702h155l264 -702h-131zM237 258h233l-116 319z" />
    <glyph glyph-name="uni01CE" unicode="&#x1ce;" horiz-adv-x="545" 
d="M346 558h-135l-96 144h98l66 -87l65 87h98zM485 91c0 -15.333 0.333008 -30.001 1 -44.001s2.66699 -26 6 -36v-11h-117l-5 76c-17.333 -29.333 -41.333 -51 -72 -65s-63.667 -21 -99 -21c-20.667 0 -40.5 2.5 -59.5 7.5s-36 12.833 -51 23.5s-27 24.667 -36 42
s-13.5 38 -13.5 62c0 26.667 5.33301 49.334 16 68.001s24.834 34.167 42.501 46.5s37.667 22.333 60 30s45.166 13.834 68.499 18.501l97 20c12 3.33301 22.167 7.16602 30.5 11.499s12.5 12.166 12.5 23.499c0 28 -9.33301 48.167 -28 60.5s-41.667 18.5 -69 18.5
c-63.333 0 -100.333 -27.667 -111 -83l-114 17c10 52 35 90.333 75 115s90.333 37 151 37c70 0 123.333 -15.667 160 -47s55 -76.666 55 -135.999v-234zM233 72.999c18.667 0 36.498 3.66602 53.498 10.999s31.833 18.333 44.5 33s22.667 32.834 30 54.501s11 46.5 11 74.5
l-127 -30c-25.333 -4.66699 -46.166 -13 -62.499 -25s-24.5 -30 -24.5 -54c0 -21.333 6.83301 -37.333 20.5 -48s31.834 -16 54.501 -16z" />
    <glyph glyph-name="uni01CF" unicode="&#x1cf;" horiz-adv-x="266" 
d="M64 739l-97 125h98l68 -71l67 71h97l-96 -125h-137zM71 0v702h124v-702h-124z" />
    <glyph glyph-name="uni01D0" unicode="&#x1d0;" horiz-adv-x="247" 
d="M56 558l-96 144h98l66 -87l65 87h98l-96 -144h-135zM64 0v498h119v-498h-119z" />
    <glyph glyph-name="uni01D1" unicode="&#x1d1;" horiz-adv-x="795" 
d="M329 739l-97 125h98l68 -71l67 71h97l-96 -125h-137zM398 -13c-52.667 0 -100.834 8.83301 -144.501 26.5s-81.167 42.5 -112.5 74.5s-55.833 70.333 -73.5 115s-26.5 94 -26.5 148s8.83301 103.333 26.5 148s42.167 83 73.5 115s68.833 56.833 112.5 74.5
s91.834 26.5 144.501 26.5c52 0 99.833 -8.83301 143.5 -26.5s81.334 -42.5 113.001 -74.5s56.167 -70.333 73.5 -115s26 -94 26 -148s-8.66699 -103.333 -26 -148s-41.833 -83 -73.5 -115s-69.334 -56.833 -113.001 -74.5s-91.5 -26.5 -143.5 -26.5zM398 101
c34 0 65.333 6 94 18s53.167 29 73.5 51s36.333 48.333 48 79s17.5 64.667 17.5 102s-5.83301 71.333 -17.5 102s-27.667 57 -48 79s-44.833 39 -73.5 51s-60 18 -94 18s-65.333 -6 -94 -18s-53.334 -29 -74.001 -51s-36.834 -48.333 -48.501 -79s-17.5 -64.667 -17.5 -102
s5.83301 -71.333 17.5 -102s27.834 -57 48.501 -79s45.334 -39 74.001 -51s60 -18 94 -18z" />
    <glyph glyph-name="uni01D2" unicode="&#x1d2;" horiz-adv-x="617" 
d="M242 558l-96 144h98l66 -87l65 87h98l-96 -144h-135zM309 -10c-39.333 0 -75.333 6.16699 -108 18.5s-60.834 29.666 -84.501 51.999s-42.167 49.333 -55.5 81s-20 67.5 -20 107.5c0 39.333 6.66699 75 20 107s31.833 59.167 55.5 81.5s51.834 39.666 84.501 51.999
s68.667 18.5 108 18.5s75.333 -6.16699 108 -18.5s60.667 -29.666 84 -51.999s41.666 -49.5 54.999 -81.5s20 -67.667 20 -107c0 -40 -6.66699 -75.833 -20 -107.5s-31.666 -58.667 -54.999 -81s-51.333 -39.666 -84 -51.999s-68.667 -18.5 -108 -18.5zM309 85
c22 0 42.167 4 60.5 12s34 19.167 47 33.5s23 31.666 30 51.999s10.5 42.5 10.5 66.5s-3.5 46 -10.5 66s-17 37.333 -30 52s-28.667 26 -47 34s-38.5 12 -60.5 12s-42.167 -4 -60.5 -12s-34 -19.333 -47 -34s-23.167 -32 -30.5 -52s-11 -42 -11 -66
s3.66699 -46.167 11 -66.5s17.5 -37.666 30.5 -51.999s28.667 -25.5 47 -33.5s38.5 -12 60.5 -12z" />
    <glyph glyph-name="uni01D3" unicode="&#x1d3;" horiz-adv-x="675" 
d="M268 739l-97 125h98l68 -71l67 71h97l-96 -125h-137zM337 -13c-38.667 0 -74.832 5.33301 -108.499 16s-62.667 26.834 -87 48.501s-43.5 48.834 -57.5 81.501s-21 70.667 -21 114v455h124v-440c0 -56 14.167 -97.167 42.5 -123.5s64.166 -39.5 107.499 -39.5
c44 0 80.167 13.167 108.5 39.5s42.5 67.5 42.5 123.5v440h123v-455c0 -43.333 -6.83301 -81.333 -20.5 -114s-32.834 -59.834 -57.501 -81.501s-53.667 -37.834 -87 -48.501s-69.666 -16 -108.999 -16z" />
    <glyph glyph-name="uni01D4" unicode="&#x1d4;" horiz-adv-x="589" 
d="M359 558h-135l-96 144h98l66 -87l65 87h98zM405 498h118v-498h-118v61c-17.333 -22 -39.5 -39.333 -66.5 -52s-57.833 -19 -92.5 -19c-62 0 -108.667 15.333 -140 46s-47 74 -47 130v332h119v-308c0 -36 9.66699 -62.333 29 -79s44.666 -25 75.999 -25
c16.667 0 32.334 2.5 47.001 7.5s27.5 13 38.5 24s19.833 25.167 26.5 42.5s10 38 10 62v276z" />
    <glyph glyph-name="uni01D5" unicode="&#x1d5;" horiz-adv-x="675" 
d="M175 959v77h323v-77h-323zM239 744c-20 0 -37.167 7.16699 -51.5 21.5s-21.5 31.166 -21.5 50.499c0 20 7.16699 37 21.5 51s31.5 21 51.5 21c19.333 0 36 -7 50 -21s21 -31 21 -51c0 -19.333 -7 -36.166 -21 -50.499s-30.667 -21.5 -50 -21.5zM434 744
c-19.333 0 -36.166 7.16699 -50.499 21.5s-21.5 31.166 -21.5 50.499c0 20 7.16699 37 21.5 51s31.166 21 50.499 21s36.166 -7 50.499 -21s21.5 -31 21.5 -51c0 -19.333 -7.16699 -36.166 -21.5 -50.499s-31.166 -21.5 -50.499 -21.5zM337 -13
c-38.667 0 -74.832 5.33301 -108.499 16s-62.667 26.834 -87 48.501s-43.5 48.834 -57.5 81.501s-21 70.667 -21 114v455h124v-440c0 -56 14.167 -97.167 42.5 -123.5s64.166 -39.5 107.499 -39.5c44 0 80.167 13.167 108.5 39.5s42.5 67.5 42.5 123.5v440h123v-455
c0 -43.333 -6.83301 -81.333 -20.5 -114s-32.834 -59.834 -57.501 -81.501s-53.667 -37.834 -87 -48.501s-69.666 -16 -108.999 -16z" />
    <glyph glyph-name="uni01D6" unicode="&#x1d6;" horiz-adv-x="589" 
d="M423 888v-77h-263v77h263zM194 589c-20 0 -37.167 7 -51.5 21s-21.5 31 -21.5 51c0 19.333 7.16699 36 21.5 50s31.5 21 51.5 21c19.333 0 36 -7 50 -21s21 -30.667 21 -50c0 -20 -7 -37 -21 -51s-30.667 -21 -50 -21zM317 661c0 19.333 7.16699 36 21.5 50
s31.166 21 50.499 21s36.166 -7 50.499 -21s21.5 -30.667 21.5 -50c0 -20 -7.16699 -37 -21.5 -51s-31.166 -21 -50.499 -21s-36.166 7 -50.499 21s-21.5 31 -21.5 51zM405 498h118v-498h-118v61c-17.333 -22 -39.5 -39.333 -66.5 -52s-57.833 -19 -92.5 -19
c-62 0 -108.667 15.333 -140 46s-47 74 -47 130v332h119v-308c0 -36 9.66699 -62.333 29 -79s44.666 -25 75.999 -25c16.667 0 32.334 2.5 47.001 7.5s27.5 13 38.5 24s19.833 25.167 26.5 42.5s10 38 10 62v276z" />
    <glyph glyph-name="uni01D7" unicode="&#x1d7;" horiz-adv-x="675" 
d="M285 918l83 132h126l-105 -132h-104zM239 744c-20 0 -37.167 7.16699 -51.5 21.5s-21.5 31.166 -21.5 50.499c0 20 7.16699 37 21.5 51s31.5 21 51.5 21c19.333 0 36 -7 50 -21s21 -31 21 -51c0 -19.333 -7 -36.166 -21 -50.499s-30.667 -21.5 -50 -21.5zM434 744
c-19.333 0 -36.166 7.16699 -50.499 21.5s-21.5 31.166 -21.5 50.499c0 20 7.16699 37 21.5 51s31.166 21 50.499 21s36.166 -7 50.499 -21s21.5 -31 21.5 -51c0 -19.333 -7.16699 -36.166 -21.5 -50.499s-31.166 -21.5 -50.499 -21.5zM337 -13
c-38.667 0 -74.832 5.33301 -108.499 16s-62.667 26.834 -87 48.501s-43.5 48.834 -57.5 81.501s-21 70.667 -21 114v455h124v-440c0 -56 14.167 -97.167 42.5 -123.5s64.166 -39.5 107.499 -39.5c44 0 80.167 13.167 108.5 39.5s42.5 67.5 42.5 123.5v440h123v-455
c0 -43.333 -6.83301 -81.333 -20.5 -114s-32.834 -59.834 -57.501 -81.501s-53.667 -37.834 -87 -48.501s-69.666 -16 -108.999 -16z" />
    <glyph glyph-name="uni01D8" unicode="&#x1d8;" horiz-adv-x="589" 
d="M453 926l-113 -144h-104l90 144h127zM194 589c-20 0 -37.167 7 -51.5 21s-21.5 31 -21.5 51c0 19.333 7.16699 36 21.5 50s31.5 21 51.5 21c19.333 0 36 -7 50 -21s21 -30.667 21 -50c0 -20 -7 -37 -21 -51s-30.667 -21 -50 -21zM389 732c19.333 0 36.166 -7 50.499 -21
s21.5 -30.667 21.5 -50c0 -20 -7.16699 -37 -21.5 -51s-31.166 -21 -50.499 -21s-36.166 7 -50.499 21s-21.5 31 -21.5 51c0 19.333 7.16699 36 21.5 50s31.166 21 50.499 21zM405 498h118v-498h-118v61c-17.333 -22 -39.5 -39.333 -66.5 -52s-57.833 -19 -92.5 -19
c-62 0 -108.667 15.333 -140 46s-47 74 -47 130v332h119v-308c0 -36 9.66699 -62.333 29 -79s44.666 -25 75.999 -25c16.667 0 32.334 2.5 47.001 7.5s27.5 13 38.5 24s19.833 25.167 26.5 42.5s10 38 10 62v276z" />
    <glyph glyph-name="uni01D9" unicode="&#x1d9;" horiz-adv-x="675" 
d="M268 925l-97 125h98l68 -71l67 71h97l-96 -125h-137zM239 744c-20 0 -37.167 7.16699 -51.5 21.5s-21.5 31.166 -21.5 50.499c0 20 7.16699 37 21.5 51s31.5 21 51.5 21c19.333 0 36 -7 50 -21s21 -31 21 -51c0 -19.333 -7 -36.166 -21 -50.499s-30.667 -21.5 -50 -21.5z
M434 744c-19.333 0 -36.166 7.16699 -50.499 21.5s-21.5 31.166 -21.5 50.499c0 20 7.16699 37 21.5 51s31.166 21 50.499 21s36.166 -7 50.499 -21s21.5 -31 21.5 -51c0 -19.333 -7.16699 -36.166 -21.5 -50.499s-31.166 -21.5 -50.499 -21.5zM337 -13
c-38.667 0 -74.832 5.33301 -108.499 16s-62.667 26.834 -87 48.501s-43.5 48.834 -57.5 81.501s-21 70.667 -21 114v455h124v-440c0 -56 14.167 -97.167 42.5 -123.5s64.166 -39.5 107.499 -39.5c44 0 80.167 13.167 108.5 39.5s42.5 67.5 42.5 123.5v440h123v-455
c0 -43.333 -6.83301 -81.333 -20.5 -114s-32.834 -59.834 -57.501 -81.501s-53.667 -37.834 -87 -48.501s-69.666 -16 -108.999 -16z" />
    <glyph glyph-name="uni01DA" unicode="&#x1da;" horiz-adv-x="589" 
d="M359 782h-135l-96 144h98l66 -87l65 87h98zM194 589c-20 0 -37.167 7 -51.5 21s-21.5 31 -21.5 51c0 19.333 7.16699 36 21.5 50s31.5 21 51.5 21c19.333 0 36 -7 50 -21s21 -30.667 21 -50c0 -20 -7 -37 -21 -51s-30.667 -21 -50 -21zM389 732
c19.333 0 36.166 -7 50.499 -21s21.5 -30.667 21.5 -50c0 -20 -7.16699 -37 -21.5 -51s-31.166 -21 -50.499 -21s-36.166 7 -50.499 21s-21.5 31 -21.5 51c0 19.333 7.16699 36 21.5 50s31.166 21 50.499 21zM405 498h118v-498h-118v61c-17.333 -22 -39.5 -39.333 -66.5 -52
s-57.833 -19 -92.5 -19c-62 0 -108.667 15.333 -140 46s-47 74 -47 130v332h119v-308c0 -36 9.66699 -62.333 29 -79s44.666 -25 75.999 -25c16.667 0 32.334 2.5 47.001 7.5s27.5 13 38.5 24s19.833 25.167 26.5 42.5s10 38 10 62v276z" />
    <glyph glyph-name="uni01DB" unicode="&#x1db;" horiz-adv-x="675" 
d="M285 918l-106 132h126l83 -132h-103zM239 744c-20 0 -37.167 7.16699 -51.5 21.5s-21.5 31.166 -21.5 50.499c0 20 7.16699 37 21.5 51s31.5 21 51.5 21c19.333 0 36 -7 50 -21s21 -31 21 -51c0 -19.333 -7 -36.166 -21 -50.499s-30.667 -21.5 -50 -21.5zM434 744
c-19.333 0 -36.166 7.16699 -50.499 21.5s-21.5 31.166 -21.5 50.499c0 20 7.16699 37 21.5 51s31.166 21 50.499 21s36.166 -7 50.499 -21s21.5 -31 21.5 -51c0 -19.333 -7.16699 -36.166 -21.5 -50.499s-31.166 -21.5 -50.499 -21.5zM337 -13
c-38.667 0 -74.832 5.33301 -108.499 16s-62.667 26.834 -87 48.501s-43.5 48.834 -57.5 81.501s-21 70.667 -21 114v455h124v-440c0 -56 14.167 -97.167 42.5 -123.5s64.166 -39.5 107.499 -39.5c44 0 80.167 13.167 108.5 39.5s42.5 67.5 42.5 123.5v440h123v-455
c0 -43.333 -6.83301 -81.333 -20.5 -114s-32.834 -59.834 -57.501 -81.501s-53.667 -37.834 -87 -48.501s-69.666 -16 -108.999 -16z" />
    <glyph glyph-name="uni01DC" unicode="&#x1dc;" horiz-adv-x="589" 
d="M346 782h-104l-113 144h127zM194 589c-20 0 -37.167 7 -51.5 21s-21.5 31 -21.5 51c0 19.333 7.16699 36 21.5 50s31.5 21 51.5 21c19.333 0 36 -7 50 -21s21 -30.667 21 -50c0 -20 -7 -37 -21 -51s-30.667 -21 -50 -21zM317 661c0 19.333 7.16699 36 21.5 50
s31.166 21 50.499 21s36.166 -7 50.499 -21s21.5 -30.667 21.5 -50c0 -20 -7.16699 -37 -21.5 -51s-31.166 -21 -50.499 -21s-36.166 7 -50.499 21s-21.5 31 -21.5 51zM405 498h118v-498h-118v61c-17.333 -22 -39.5 -39.333 -66.5 -52s-57.833 -19 -92.5 -19
c-62 0 -108.667 15.333 -140 46s-47 74 -47 130v332h119v-308c0 -36 9.66699 -62.333 29 -79s44.666 -25 75.999 -25c16.667 0 32.334 2.5 47.001 7.5s27.5 13 38.5 24s19.833 25.167 26.5 42.5s10 38 10 62v276z" />
    <glyph glyph-name="Gcaron" unicode="&#x1e6;" horiz-adv-x="784" 
d="M327 739l-97 125h98l68 -71l67 71h97l-96 -125h-137zM391 -13c-51.333 0 -98.498 8.83398 -141.498 26.501s-80 42.5 -111 74.5s-55 70.333 -72 115s-25.5 94 -25.5 148s8.83301 103.333 26.5 148s42.167 83 73.5 115s68.833 56.833 112.5 74.5s91.834 26.5 144.501 26.5
c68.667 0 129.667 -15 183 -45s95 -71.667 125 -125l-108 -58c-19.333 36 -46.333 64 -81 84s-74.334 30 -119.001 30c-34 0 -65.333 -6 -94 -18s-53.334 -29 -74.001 -51s-36.834 -48.333 -48.501 -79s-17.5 -64.667 -17.5 -102s5.5 -71.333 16.5 -102s26.667 -57 47 -79
s44.833 -39 73.5 -51s61 -18 97 -18c54 0 100 15 138 45s62.667 73.667 74 131h-207v100h328v-377h-97v122c-22 -40.667 -53 -73.334 -93 -98.001s-90 -37 -150 -37z" />
    <glyph glyph-name="gcaron" unicode="&#x1e7;" horiz-adv-x="619" 
d="M379 558h-135l-96 144h98l66 -87l65 87h98zM436 498l118.998 -0.00390625v-489c0 -44.667 -6 -83.334 -18 -116.001s-29 -59.5 -51 -80.5s-48.667 -36.667 -80 -47s-66.666 -15.5 -105.999 -15.5c-68.667 0 -123.334 14.167 -164.001 42.5s-69.667 65.833 -87 112.5
l99 41c14.667 -34 33.834 -59.833 57.501 -77.5s53.5 -26.5 89.5 -26.5c48.667 0 84.334 14.333 107.001 43s34 67.334 34 116.001v89c-14.667 -24 -36.5 -43.5 -65.5 -58.5s-62.167 -22.5 -99.5 -22.5c-32 0 -61.833 6 -89.5 18s-52 28.833 -73 50.5
s-37.5 47.834 -49.5 78.501s-18 65 -18 103s6 72.333 18 103s28.5 56.834 49.5 78.501s45.5 38.334 73.5 50.001s58 17.5 90 17.5c38 0 71.167 -7.66699 99.5 -23s49.833 -35.666 64.5 -60.999v74zM298.998 104.996c20.667 0 39.833 3.83301 57.5 11.5
s32.834 18.334 45.501 32.001s22.667 30 30 49s11 39.5 11 61.5s-3.5 42.5 -10.5 61.5s-17 35.333 -30 49s-28.167 24.334 -45.5 32.001s-36.666 11.5 -57.999 11.5c-20.667 0 -39.834 -3.83301 -57.501 -11.5s-32.834 -18.334 -45.501 -32.001s-22.5 -30 -29.5 -49
s-10.5 -39.5 -10.5 -61.5s3.66699 -42.5 11 -61.5s17.333 -35.333 30 -49s27.667 -24.334 45 -32.001s36.333 -11.5 57 -11.5z" />
    <glyph glyph-name="uni01EA" unicode="&#x1ea;" horiz-adv-x="795" 
d="M494 -2c-25.333 -16.667 -46 -34.998 -62 -54.998s-24 -37.667 -24 -53c0 -9.33301 4.16699 -16.833 12.5 -22.5s19.166 -8.5 32.499 -8.5c16 0 30.667 4.66699 44 14v-75c-20 -8 -43.333 -12 -70 -12s-49.667 5.5 -69 16.5s-29 28.167 -29 51.5
c0 21.333 8.83301 43.666 26.5 66.999s40.167 45.666 67.5 66.999c-4 -0.666992 -8.16699 -1 -12.5 -1h-12.5c-52.667 0 -100.834 8.83301 -144.501 26.5s-81.167 42.5 -112.5 74.5s-55.833 70.333 -73.5 115s-26.5 94 -26.5 148s8.83301 103.333 26.5 148
s42.167 83 73.5 115s68.833 56.833 112.5 74.5s91.834 26.5 144.501 26.5c52 0 99.833 -8.83301 143.5 -26.5s81.334 -42.5 113.001 -74.5s56.167 -70.333 73.5 -115s26 -94 26 -148c0 -45.333 -6.16699 -87.333 -18.5 -126s-29.833 -73.167 -52.5 -103.5s-50 -56 -82 -77
s-67.667 -36.5 -107 -46.5zM164 351.002c0 -37.333 5.83301 -71.333 17.5 -102s27.834 -57 48.501 -79s45.334 -39 74.001 -51s60 -18 94 -18s65.333 6 94 18s53.167 29 73.5 51s36.333 48.333 48 79s17.5 64.667 17.5 102s-5.83301 71.333 -17.5 102s-27.667 57 -48 79
s-44.833 39 -73.5 51s-60 18 -94 18s-65.333 -6 -94 -18s-53.334 -29 -74.001 -51s-36.834 -48.333 -48.501 -79s-17.5 -64.667 -17.5 -102z" />
    <glyph glyph-name="uni01EB" unicode="&#x1eb;" horiz-adv-x="617" 
d="M387 0c-25.333 -16.667 -46.332 -35.166 -62.999 -55.499s-25 -38.5 -25 -54.5c0 -9.33301 4.16699 -16.833 12.5 -22.5s19.166 -8.5 32.499 -8.5c16 0 30.667 4.66699 44 14v-75c-20 -8 -43.333 -12 -70 -12s-49.667 5.5 -69 16.5s-29 28.167 -29 51.5
c0 22 9.16699 44.833 27.5 68.5s41.5 46.167 69.5 67.5h-8c-39.333 0 -75.333 6.16699 -108 18.5s-60.834 29.666 -84.501 51.999s-42.167 49.333 -55.5 81s-20 67.5 -20 107.5c0 39.333 6.66699 75 20 107s31.833 59.167 55.5 81.5s51.834 39.666 84.501 51.999
s68.667 18.5 108 18.5s75.333 -6.16699 108 -18.5s60.667 -29.666 84 -51.999s41.666 -49.5 54.999 -81.5s20 -67.667 20 -107c0 -66 -17.167 -120.5 -51.5 -163.5s-80.166 -71.5 -137.499 -85.5zM160.001 249.001c0 -24 3.66699 -46.167 11 -66.5
s17.5 -37.666 30.5 -51.999s28.667 -25.5 47 -33.5s38.5 -12 60.5 -12s42.167 4 60.5 12s34 19.167 47 33.5s23 31.666 30 51.999s10.5 42.5 10.5 66.5s-3.5 46 -10.5 66s-17 37.333 -30 52s-28.667 26 -47 34s-38.5 12 -60.5 12s-42.167 -4 -60.5 -12s-34 -19.333 -47 -34
s-23.167 -32 -30.5 -52s-11 -42 -11 -66z" />
    <glyph glyph-name="Aringacute" unicode="&#x1fa;" horiz-adv-x="707" 
d="M353 728c-17.333 0 -33.668 3 -49.001 9s-28.833 14.333 -40.5 25s-20.834 23.667 -27.501 39s-10 32 -10 50s3.33301 34.667 10 50s15.834 28.333 27.501 39s25.167 19 40.5 25s31.666 9 48.999 9c4.66699 0 9 -0.166992 13 -0.5s8 -0.833008 12 -1.5l49 77h126
l-98 -123c16 -21.333 24 -46.333 24 -75c0 -18 -3.33301 -34.667 -10 -50s-15.667 -28.333 -27 -39s-24.666 -19 -39.999 -25s-31.666 -9 -48.999 -9zM352.998 917c-18.667 0 -34.167 -6.16699 -46.5 -18.5s-18.5 -28.166 -18.5 -47.499s6.16699 -35.166 18.5 -47.499
s27.833 -18.5 46.5 -18.5s34.5 6.16699 47.5 18.5s19.5 28.166 19.5 47.499s-6.5 35.166 -19.5 47.499s-28.833 18.5 -47.5 18.5zM563.998 0l-57 155h-307l-57 -155h-131l264 702h155l264 -702h-131zM236.998 258h233l-116 319z" />
    <glyph glyph-name="aringacute" unicode="&#x1fb;" horiz-adv-x="545" 
d="M279 555c-18 0 -34.499 3.16797 -49.499 9.50098s-27.667 14.833 -38 25.5s-18.5 23.167 -24.5 37.5s-9 29.5 -9 45.5s2.83301 31 8.5 45s13.834 26.167 24.501 36.5s23.5 18.666 38.5 24.999s31.5 9.5 49.5 9.5c4 0 8.16699 -0.166992 12.5 -0.5
s8.16602 -0.833008 11.499 -1.5l56 89h127l-108 -137c13.333 -19.333 20 -41.333 20 -66c0 -16 -2.83301 -31.167 -8.5 -45.5s-13.834 -26.833 -24.501 -37.5s-23.167 -19.167 -37.5 -25.5s-30.5 -9.5 -48.5 -9.5zM279.001 731.001c-16.667 0 -30.667 -5.33301 -42 -16
s-17 -24.667 -17 -42s5.66699 -31.5 17 -42.5s25.333 -16.5 42 -16.5c16 0 29.833 5.5 41.5 16.5s17.5 25.167 17.5 42.5s-5.66699 31.333 -17 42s-25.333 16 -42 16zM485.001 91.001c0 -15.333 0.333008 -30.001 1 -44.001s2.66699 -26 6 -36v-11h-117l-5 76
c-17.333 -29.333 -41.333 -51 -72 -65s-63.667 -21 -99 -21c-20.667 0 -40.5 2.5 -59.5 7.5s-36 12.833 -51 23.5s-27 24.667 -36 42s-13.5 38 -13.5 62c0 26.667 5.33301 49.334 16 68.001s24.834 34.167 42.501 46.5s37.667 22.333 60 30s45.166 13.834 68.499 18.501
l97 20c12 3.33301 22.167 7.16602 30.5 11.499s12.5 12.166 12.5 23.499c0 28 -9.33301 48.167 -28 60.5s-41.667 18.5 -69 18.5c-63.333 0 -100.333 -27.667 -111 -83l-114 17c10 52 35 90.333 75 115s90.333 37 151 37c70 0 123.333 -15.667 160 -47
s55 -76.666 55 -135.999v-234zM233.001 73c18.667 0 36.498 3.66602 53.498 10.999s31.833 18.333 44.5 33s22.667 32.834 30 54.501s11 46.5 11 74.5l-127 -30c-25.333 -4.66699 -46.166 -13 -62.499 -25s-24.5 -30 -24.5 -54c0 -21.333 6.83301 -37.333 20.5 -48
s31.834 -16 54.501 -16z" />
    <glyph glyph-name="AEacute" unicode="&#x1fc;" horiz-adv-x="888" 
d="M396 732l83 132h126l-105 -132h-104zM12 0l264 702h568v-109h-284v-188h247v-109h-247v-187h284v-109h-407v155h-237l-57 -155h-131zM236 258h201v335h-77z" />
    <glyph glyph-name="aeacute" unicode="&#x1fd;" horiz-adv-x="908" 
d="M614 702l-113 -144h-104l90 144h127zM861 225l-389.001 0.00292969c3.33301 -44.667 18.333 -79.334 45 -104.001s59.667 -37 99 -37c29.333 0 54.5 6.5 75.5 19.5s37.167 32.167 48.5 57.5l110 -16c-17.333 -49.333 -46.5 -87.5 -87.5 -114.5s-89.5 -40.5 -145.5 -40.5
c-48 0 -90.333 8.5 -127 25.5s-66.334 41.5 -89.001 73.5c-24 -34.667 -53.5 -59.834 -88.5 -75.501s-71.5 -23.5 -109.5 -23.5c-22.667 0 -43.667 2.5 -63 7.5s-36.166 13 -50.499 24s-25.5 25 -33.5 42s-12 37.167 -12 60.5c0 26 5 48 15 66s23.833 33.333 41.5 46
s38 22.834 61 30.501s47.5 13.834 73.5 18.501l86 17c16 3.33301 27.167 8.16602 33.5 14.499s9.5 14.166 9.5 23.499c0 30.667 -9.66699 52.667 -29 66s-43 20 -71 20c-30.667 0 -55.5 -7 -74.5 -21s-30.5 -38 -34.5 -72l-106 15
c9.33301 55.333 32.166 95.666 68.499 120.999s87.833 38 154.5 38c32.667 0 63.334 -4.16699 92.001 -12.5s52.334 -24.166 71.001 -47.499c22.667 19.333 49 34.333 79 45s63 16 99 16s69.167 -5.33301 99.5 -16s56.5 -26.834 78.5 -48.501s39.333 -48.5 52 -80.5
s19 -69 19 -111zM613.999 419.003c-38.667 0 -70.167 -10.167 -94.5 -30.5s-39.5 -50.166 -45.5 -89.499h270c-3.33301 37.333 -17 66.666 -41 87.999s-53.667 32 -89 32zM234.999 83.0029c12 0 24.499 1.66699 37.499 5s25.333 8.5 37 15.5s22.334 16 32.001 27
s17.167 24.167 22.5 39.5c-5.33301 20 -8.66602 42 -9.99902 66l-101 -22c-62 -12 -93 -36.333 -93 -73c0 -19.333 6.66699 -33.833 20 -43.5s31.666 -14.5 54.999 -14.5z" />
    <glyph glyph-name="Oslashacute" unicode="&#x1fe;" horiz-adv-x="795" 
d="M555 864l-105 -132h-104l83 132h126zM630 637c39.333 -32.667 69.833 -73.333 91.5 -122s32.5 -103.334 32.5 -164.001c0 -54 -8.66699 -103.333 -26 -148s-41.833 -83 -73.5 -115s-69.334 -56.833 -113.001 -74.5s-91.5 -26.5 -143.5 -26.5c-36 0 -69.5 4 -100.5 12
s-60.167 19.667 -87.5 35l-59 -85l-48 28l62 89c-39.333 32 -69.833 72.333 -91.5 121s-32.5 103.334 -32.5 164.001c0 54 8.83301 103.333 26.5 148s42.167 83 73.5 115s68.833 56.833 112.5 74.5s91.834 26.5 144.501 26.5c35.333 0 68.5 -4 99.5 -12
s59.833 -19.667 86.5 -35l60 86l48 -28zM164 351.001c0 -39.333 6.16895 -74.666 18.502 -105.999s29.5 -58 51.5 -80l283 406c-17.333 9.33301 -36 16.666 -56 21.999s-41 8 -63 8c-34 0 -65.333 -6 -94 -18s-53.334 -29 -74.001 -51s-36.834 -48.333 -48.501 -79
s-17.5 -64.667 -17.5 -102zM398.002 101.001c34 0 65.333 6.00098 94 18.001s53.167 29 73.5 51s36.333 48.333 48 79s17.5 64.667 17.5 102c0 39.333 -6.16699 74.666 -18.5 105.999s-29.5 58 -51.5 80l-283 -405c35.333 -20.667 75.333 -31 120 -31z" />
    <glyph glyph-name="oslashacute" unicode="&#x1ff;" horiz-adv-x="617" 
d="M472 702l-113 -144h-104l90 144h127zM484 452c29.333 -22.667 51.9971 -51.166 67.9971 -85.499s24 -73.5 24 -117.5c0 -40 -6.66699 -75.833 -20 -107.5s-31.666 -58.667 -54.999 -81s-51.333 -39.666 -84 -51.999s-68.667 -18.5 -108 -18.5
c-46.667 0 -89 8.66699 -127 26l-46 -65l-48 29l46 65c-29.333 22.667 -52.166 51.167 -68.499 85.5s-24.5 73.833 -24.5 118.5c0 39.333 6.66699 75 20 107s31.833 59.167 55.5 81.5s51.834 39.666 84.501 51.999s68.667 18.5 108 18.5c24 0 46.667 -2.33301 68 -7
s41.333 -11.334 60 -20.001l46 65l47 -29zM159.997 249.001c0 -46.667 12.332 -84.333 36.999 -113l182 260c-21.333 11.333 -44.666 17 -69.999 17c-22 0 -42.167 -4 -60.5 -12s-34 -19.333 -47 -34s-23.167 -32 -30.5 -52s-11 -42 -11 -66zM308.996 85.002
c22 0 42.167 4.00098 60.5 12.001s34 19.167 47 33.5s23 31.666 30 51.999s10.5 42.5 10.5 66.5c0 44.667 -12 82 -36 112l-181 -260c21.333 -10.667 44.333 -16 69 -16z" />
    </font>
</defs>
</svg>
