<svg width="10" height="14" viewBox="0 0 10 14" fill="none" xmlns="http://www.w3.org/2000/svg">
<path d="M4.9 0C2.191 0 0 2.191 0 4.9C0 8.575 4.9 14 4.9 14C4.9 14 9.8 8.575 9.8 4.9C9.8 2.191 7.609 0 4.9 0ZM1.4 4.9C1.4 2.968 2.968 1.4 4.9 1.4C6.832 1.4 8.4 2.968 8.4 4.9C8.4 6.916 6.384 9.933 4.9 11.816C3.444 9.947 1.4 6.895 1.4 4.9Z" fill="#999999"/>
<path d="M4.90039 6.6499C5.86689 6.6499 6.65039 5.8664 6.65039 4.8999C6.65039 3.9334 5.86689 3.1499 4.90039 3.1499C3.93389 3.1499 3.15039 3.9334 3.15039 4.8999C3.15039 5.8664 3.93389 6.6499 4.90039 6.6499Z" fill="#999999"/>
</svg>
