<svg width="18" height="18" viewBox="0 0 18 18" fill="none" xmlns="http://www.w3.org/2000/svg">
<path d="M12 9H14C14 6.24 11.76 4 9 4V6C10.66 6 12 7.34 12 9ZM16 9H18C18 4.03 13.97 0 9 0V2C12.87 2 16 5.13 16 9ZM17 12.5C15.75 12.5 14.55 12.3 13.43 11.93C13.33 11.9 13.22 11.88 13.12 11.88C12.86 11.88 12.61 11.98 12.41 12.17L10.21 14.37C7.38 12.93 5.06 10.62 3.62 7.78L5.82 5.57C6.1 5.31 6.18 4.92 6.07 4.57C5.7 3.45 5.5 2.25 5.5 1C5.5 0.45 5.05 0 4.5 0H1C0.45 0 0 0.45 0 1C0 10.39 7.61 18 17 18C17.55 18 18 17.55 18 17V13.5C18 12.95 17.55 12.5 17 12.5ZM2.03 2H3.53C3.6 2.88 3.75 3.75 3.98 4.58L2.78 5.79C2.38 4.58 2.12 3.32 2.03 2ZM16 15.97C14.68 15.88 13.4 15.62 12.2 15.21L13.4 14.01C14.25 14.25 15.12 14.4 16 14.46V15.97Z" fill="#2A2A2A"/>
</svg>
