<svg width="18" height="16" viewBox="0 0 18 16" fill="none" xmlns="http://www.w3.org/2000/svg">
<path d="M6.71526 15.3843C5.93687 15.3843 5.1357 15.3213 4.32971 15.1949C2.91014 14.9722 1.47313 14.2296 1.0665 14.0073L0 13.4242L1.15466 13.0445C2.41686 12.6295 3.18466 12.372 4.13512 11.9688C3.18343 11.5079 2.44995 10.6789 2.09688 9.60714L1.82826 8.79168L2.04854 8.82533C1.83966 8.6148 1.67473 8.40112 1.54688 8.2068C1.09218 7.51617 0.851441 6.67228 0.902664 5.94911L0.953201 5.23733L1.37933 5.4024C1.19957 5.06292 1.06966 4.70037 0.993302 4.32038C0.807221 3.39369 0.962952 2.40917 1.43193 1.54826L1.80313 0.866831L2.29958 1.46311C3.86966 3.34919 5.85832 4.46801 8.2186 4.79554C8.12219 4.13101 8.19443 3.48968 8.43352 2.91482C8.71188 2.24548 9.20709 1.6779 9.86517 1.27333C10.596 0.824122 11.4824 0.606455 12.3609 0.660426C13.2929 0.717692 14.1391 1.06692 14.8112 1.67103C15.1394 1.58575 15.3813 1.4947 15.7081 1.37165C15.9048 1.29763 16.1278 1.21359 16.4068 1.11746L17.4352 0.763148L16.7646 2.67834C16.8088 2.67463 16.8544 2.67147 16.9021 2.66941L18.0001 2.6197L17.3511 3.50671C17.3139 3.55752 17.3044 3.57194 17.2912 3.59185C17.2389 3.67068 17.1738 3.76873 16.283 4.95828C16.06 5.25614 15.9486 5.6441 15.9693 6.05087C16.0483 7.59664 15.8586 8.9952 15.4053 10.2075C14.9766 11.3545 14.3122 12.3386 13.4308 13.1325C12.3401 14.1147 10.9494 14.7872 9.29704 15.1311C8.48653 15.2997 7.61614 15.3843 6.71526 15.3843Z" fill="white"/>
</svg>
