<svg width="135" height="44" viewBox="0 0 135 44" fill="none" xmlns="http://www.w3.org/2000/svg">
<path d="M9.98555 21.9856C4.47397 21.9856 1.35901e-06 26.4693 8.75007e-07 31.9928L0 42H9.98555C15.4971 42 19.971 37.5163 19.971 31.9928C19.971 26.4693 15.4971 21.9856 9.98555 21.9856Z" fill="#57D9A6"/>
<path d="M29.9846 22.0144C35.4961 22.0144 39.9701 17.5307 39.9701 12.0072V2H29.9846C24.473 2 19.999 6.48367 19.999 12.0072C19.999 17.5307 24.473 22.0144 29.9846 22.0144Z" fill="#57D9A6"/>
<path d="M20.0287 12.0072C20.0287 6.49958 15.5418 2.02881 10.0143 2.02881H0L4.36482e-07 12.0072C6.77401e-07 17.5149 4.48686 21.9857 10.0143 21.9857C15.5418 21.9857 20.0287 17.5149 20.0287 12.0072Z" fill="#57D9A6"/>
<path d="M19.9717 31.9641C19.9717 37.4717 24.4586 41.9425 29.9861 41.9425H40.0004V31.9641C40.0004 26.4564 35.5135 21.9857 29.9861 21.9857C24.4586 21.9857 19.9717 26.4564 19.9717 31.9641Z" fill="#57D9A6"/>
<path d="M65.3844 34.408C63.9337 34.408 62.4831 34.1473 61.0324 33.626C59.6044 33.082 58.3237 32.2773 57.1904 31.212L60.0464 27.778C60.8397 28.458 61.7124 29.0133 62.6644 29.444C63.6391 29.8747 64.5911 30.09 65.5204 30.09C66.5631 30.09 67.3337 29.8973 67.8324 29.512C68.3537 29.1267 68.6144 28.6053 68.6144 27.948C68.6144 27.608 68.5351 27.3133 68.3764 27.064C68.2404 26.8147 68.0251 26.5993 67.7304 26.418C67.4584 26.214 67.1184 26.0327 66.7104 25.874C66.3251 25.6927 65.8944 25.5 65.4184 25.296L62.5284 24.072C61.9617 23.8453 61.4064 23.5507 60.8624 23.188C60.3411 22.8253 59.8651 22.406 59.4344 21.93C59.0264 21.4313 58.6977 20.8647 58.4484 20.23C58.1991 19.5727 58.0744 18.836 58.0744 18.02C58.0744 17.1133 58.2671 16.2633 58.6524 15.47C59.0377 14.654 59.5817 13.9513 60.2844 13.362C60.9871 12.75 61.8144 12.274 62.7664 11.934C63.7411 11.594 64.8064 11.424 65.9624 11.424C67.2544 11.424 68.5237 11.6733 69.7704 12.172C71.0397 12.6707 72.1504 13.396 73.1024 14.348L70.5524 17.51C69.8271 16.9433 69.1017 16.5127 68.3764 16.218C67.6511 15.9007 66.8464 15.742 65.9624 15.742C65.1011 15.742 64.4097 15.9233 63.8884 16.286C63.3897 16.626 63.1404 17.1133 63.1404 17.748C63.1404 18.088 63.2197 18.3827 63.3784 18.632C63.5597 18.8587 63.7977 19.074 64.0924 19.278C64.4097 19.4593 64.7724 19.6407 65.1804 19.822C65.5884 19.9807 66.0304 20.162 66.5064 20.366L69.3624 21.522C70.7224 22.066 71.7877 22.814 72.5584 23.766C73.3517 24.718 73.7484 25.976 73.7484 27.54C73.7484 28.4693 73.5557 29.3533 73.1704 30.192C72.8077 31.008 72.2637 31.7333 71.5384 32.368C70.8357 32.98 69.9631 33.4787 68.9204 33.864C67.8777 34.2267 66.6991 34.408 65.3844 34.408ZM76.423 34V10.166H81.285V23.834H81.421L86.759 17.136H92.199L86.283 24.072L92.641 34H87.235L83.427 27.438L81.285 29.852V34H76.423ZM94.3699 34V17.136H99.3679V34H94.3699ZM96.8519 14.654C96.0133 14.654 95.3219 14.416 94.7779 13.94C94.2339 13.4413 93.9619 12.8067 93.9619 12.036C93.9619 11.2653 94.2339 10.642 94.7779 10.166C95.3219 9.69 96.0133 9.452 96.8519 9.452C97.7133 9.452 98.4046 9.69 98.9259 10.166C99.4699 10.642 99.7419 11.2653 99.7419 12.036C99.7419 12.8067 99.4699 13.4413 98.9259 13.94C98.4046 14.416 97.7133 14.654 96.8519 14.654ZM107.676 34.408C106.815 34.408 106.089 34.272 105.5 34C104.911 33.728 104.435 33.354 104.072 32.878C103.732 32.3793 103.483 31.79 103.324 31.11C103.165 30.4073 103.086 29.6253 103.086 28.764V10.166H108.084V28.968C108.084 29.4893 108.175 29.852 108.356 30.056C108.56 30.26 108.764 30.362 108.968 30.362C109.081 30.362 109.172 30.362 109.24 30.362C109.331 30.362 109.444 30.3393 109.58 30.294L110.192 34C109.92 34.1133 109.569 34.204 109.138 34.272C108.73 34.3627 108.243 34.408 107.676 34.408ZM116.725 34.408C115.863 34.408 115.138 34.272 114.549 34C113.959 33.728 113.483 33.354 113.121 32.878C112.781 32.3793 112.531 31.79 112.373 31.11C112.214 30.4073 112.135 29.6253 112.135 28.764V10.166H117.133V28.968C117.133 29.4893 117.223 29.852 117.405 30.056C117.609 30.26 117.813 30.362 118.017 30.362C118.13 30.362 118.221 30.362 118.289 30.362C118.379 30.362 118.493 30.3393 118.629 30.294L119.241 34C118.969 34.1133 118.617 34.204 118.187 34.272C117.779 34.3627 117.291 34.408 116.725 34.408ZM120.265 34V31.314L127.337 21.046H121.047V17.136H133.559V19.788L126.487 30.09H133.797V34H120.265Z" fill="white"/>
</svg>
